<?xml version="1.0" encoding="UTF-8"?><svg id="Layer_1" xmlns="http://www.w3.org/2000/svg" width="499.28" height="294.41" viewBox="0 0 499.28 294.41"><defs><style>.cls-1{stroke:#fbb040;}.cls-1,.cls-2{fill:none;}.cls-1,.cls-2,.cls-3{stroke-miterlimit:10;}.cls-1,.cls-3{stroke-width:3px;}.cls-4{fill:#f9d7e7;}.cls-5{fill:#faaa51;}.cls-6{fill:#f99f4c;}.cls-7{fill:#010101;}.cls-8{fill:#e89cc4;}.cls-9{fill:#ef8c22;}.cls-10{fill:#ffdc87;}.cls-11{fill:#fff;}.cls-12{fill:#f68938;}.cls-13{fill:#ffd987;}.cls-14{fill:#fcb95c;}.cls-15{fill:#f171ab;}.cls-16{fill:#be4a81;}.cls-17{fill:#a7a9ac;}.cls-18{fill:#c25327;}.cls-19{fill:#231f20;}.cls-20{fill:#781f60;}.cls-2{stroke:#a7a9ac;}.cls-3{fill:#f494be;stroke:#be4a81;}</style></defs><path class="cls-19" d="m19.81,40.95v10.97c0,.98.86,1.92,1.88,1.88s1.88-.82,1.88-1.88v-10.97c0-.98-.86-1.92-1.88-1.88s-1.88.82-1.88,1.88h0Z"/><path class="cls-19" d="m19.81,17.65v10.97c0,.98.86,1.92,1.88,1.88s1.88-.82,1.88-1.88v-10.97c0-.98-.86-1.92-1.88-1.88s-1.88.82-1.88,1.88h0Z"/><path class="cls-19" d="m32.65,15.78h-10.97c-.98,0-1.92.86-1.88,1.87s.82,1.87,1.88,1.88h10.97c.98,0,1.92-.86,1.88-1.87s-.82-1.87-1.88-1.88h0Z"/><path class="cls-19" d="m229.99,14.7h-10.97c-.98,0-1.92.86-1.88,1.88s.82,1.88,1.88,1.88h10.97c.98,0,1.92-.86,1.88-1.88s-.82-1.88-1.88-1.88h0Z"/><path class="cls-19" d="m231.87,27.54v-10.97c0-.98-.86-1.92-1.87-1.88s-1.87.82-1.88,1.88v10.97c0,.98.86,1.92,1.87,1.88s1.87-.82,1.88-1.88h0Z"/><path class="cls-19" d="m232.53,277.54v-10.97c0-.98-.86-1.92-1.88-1.88s-1.88.82-1.88,1.88v10.97c0,.98.86,1.92,1.88,1.88s1.88-.82,1.88-1.88h0Z"/><path class="cls-19" d="m219.69,279.41h10.97c.98,0,1.92-.86,1.88-1.87s-.82-1.87-1.88-1.88h-10.97c-.98,0-1.92.86-1.88,1.87s.82,1.87,1.88,1.88h0Z"/><path class="cls-19" d="m21.69,280.2h10.97c.98,0,1.92-.86,1.88-1.88s-.82-1.88-1.88-1.88h-10.97c-.98,0-1.92.86-1.88,1.88s.82,1.88,1.88,1.88h0Z"/><path class="cls-19" d="m19.81,267.36v10.97c0,.98.86,1.92,1.87,1.88s1.87-.82,1.88-1.88v-10.97c0-.98-.86-1.92-1.87-1.88s-1.87.82-1.88,1.88h0Z"/><path class="cls-19" d="m19.81,62.57v10.97c0,.98.86,1.92,1.88,1.88s1.88-.82,1.88-1.88v-10.97c0-.98-.86-1.92-1.88-1.88s-1.88.82-1.88,1.88h0Z"/><path class="cls-19" d="m19.81,84.37v10.97c0,.98.86,1.92,1.88,1.88s1.88-.82,1.88-1.88v-10.97c0-.98-.86-1.92-1.88-1.88s-1.88.82-1.88,1.88h0Z"/><path class="cls-19" d="m19.81,107.05v10.97c0,.98.86,1.92,1.88,1.88s1.88-.82,1.88-1.88v-10.97c0-.98-.86-1.92-1.88-1.88s-1.88.82-1.88,1.88h0Z"/><path class="cls-19" d="m19.81,128.27v10.97c0,.98.86,1.92,1.88,1.88s1.88-.82,1.88-1.88v-10.97c0-.98-.86-1.92-1.88-1.88s-1.88.82-1.88,1.88h0Z"/><path class="cls-19" d="m19.81,149.29v10.97c0,.98.86,1.92,1.88,1.88s1.88-.82,1.88-1.88v-10.97c0-.98-.86-1.92-1.88-1.88s-1.88.82-1.88,1.88h0Z"/><path class="cls-19" d="m19.81,173.77v10.97c0,.98.86,1.92,1.88,1.88s1.88-.82,1.88-1.88v-10.97c0-.98-.86-1.92-1.88-1.88s-1.88.82-1.88,1.88h0Z"/><path class="cls-19" d="m19.81,197.82v10.97c0,.98.86,1.92,1.88,1.88s1.88-.82,1.88-1.88v-10.97c0-.98-.86-1.92-1.88-1.88s-1.88.82-1.88,1.88h0Z"/><path class="cls-19" d="m19.81,218.66v10.97c0,.98.86,1.92,1.88,1.88s1.88-.82,1.88-1.88v-10.97c0-.98-.86-1.92-1.88-1.88s-1.88.82-1.88,1.88h0Z"/><path class="cls-19" d="m19.81,242.25v10.97c0,.98.86,1.92,1.88,1.88s1.88-.82,1.88-1.88v-10.97c0-.98-.86-1.92-1.88-1.88s-1.88.82-1.88,1.88h0Z"/><path class="cls-19" d="m228.78,40.95v10.97c0,.98.86,1.92,1.88,1.88s1.88-.82,1.88-1.88v-10.97c0-.98-.86-1.92-1.88-1.88s-1.88.82-1.88,1.88h0Z"/><path class="cls-19" d="m228.78,62.57v10.97c0,.98.86,1.92,1.88,1.88s1.88-.82,1.88-1.88v-10.97c0-.98-.86-1.92-1.88-1.88s-1.88.82-1.88,1.88h0Z"/><path class="cls-19" d="m228.78,84.37v10.97c0,.98.86,1.92,1.88,1.88s1.88-.82,1.88-1.88v-10.97c0-.98-.86-1.92-1.88-1.88s-1.88.82-1.88,1.88h0Z"/><path class="cls-19" d="m228.78,107.05v10.97c0,.98.86,1.92,1.88,1.88s1.88-.82,1.88-1.88v-10.97c0-.98-.86-1.92-1.88-1.88s-1.88.82-1.88,1.88h0Z"/><path class="cls-19" d="m228.78,128.27v10.97c0,.98.86,1.92,1.88,1.88s1.88-.82,1.88-1.88v-10.97c0-.98-.86-1.92-1.88-1.88s-1.88.82-1.88,1.88h0Z"/><path class="cls-19" d="m228.78,149.29v10.97c0,.98.86,1.92,1.88,1.88s1.88-.82,1.88-1.88v-10.97c0-.98-.86-1.92-1.88-1.88s-1.88.82-1.88,1.88h0Z"/><path class="cls-19" d="m228.78,173.77v10.97c0,.98.86,1.92,1.88,1.88s1.88-.82,1.88-1.88v-10.97c0-.98-.86-1.92-1.88-1.88s-1.88.82-1.88,1.88h0Z"/><path class="cls-19" d="m228.78,197.82v10.97c0,.98.86,1.92,1.88,1.88s1.88-.82,1.88-1.88v-10.97c0-.98-.86-1.92-1.88-1.88s-1.88.82-1.88,1.88h0Z"/><path class="cls-19" d="m228.78,218.66v10.97c0,.98.86,1.92,1.88,1.88s1.88-.82,1.88-1.88v-10.97c0-.98-.86-1.92-1.88-1.88s-1.88.82-1.88,1.88h0Z"/><path class="cls-19" d="m228.78,242.25v10.97c0,.98.86,1.92,1.88,1.88s1.88-.82,1.88-1.88v-10.97c0-.98-.86-1.92-1.88-1.88s-1.88.82-1.88,1.88h0Z"/><path class="cls-19" d="m164.02,15.33c-3.66.03-7.31.06-10.97.08-.98,0-1.92.86-1.88,1.88s.82,1.88,1.88,1.88c3.66-.03,7.31-.06,10.97-.08.98,0,1.92-.86,1.88-1.88s-.82-1.88-1.88-1.88h0Z"/><path class="cls-19" d="m142.39,15.49c-3.66.03-7.31.06-10.97.08-.98,0-1.92.86-1.88,1.88s.82,1.88,1.88,1.88c3.66-.03,7.31-.06,10.97-.08.98,0,1.92-.86,1.88-1.88s-.82-1.88-1.88-1.88h0Z"/><path class="cls-19" d="m120.6,15.66c-3.66.03-7.31.06-10.97.08-.98,0-1.92.86-1.88,1.88s.82,1.88,1.88,1.88c3.66-.03,7.31-.06,10.97-.08.98,0,1.92-.86,1.88-1.88s-.82-1.88-1.88-1.88h0Z"/><path class="cls-19" d="m97.92,15.83c-3.66.03-7.31.06-10.97.08-.98,0-1.92.86-1.88,1.88s.82,1.88,1.88,1.88c3.66-.03,7.31-.06,10.97-.08.98,0,1.92-.86,1.88-1.88s-.82-1.88-1.88-1.88h0Z"/><path class="cls-19" d="m76.7,15.99c-3.66.03-7.31.06-10.97.08-.98,0-1.92.86-1.88,1.88s.82,1.88,1.88,1.88c3.66-.03,7.31-.06,10.97-.08.98,0,1.92-.86,1.88-1.88s-.82-1.88-1.88-1.88h0Z"/><path class="cls-19" d="m55.68,16.15c-3.66.03-7.31.06-10.97.08-.98,0-1.92.86-1.88,1.88s.82,1.88,1.88,1.88c3.66-.03,7.31-.06,10.97-.08.98,0,1.92-.86,1.88-1.88s-.82-1.88-1.88-1.88h0Z"/><path class="cls-19" d="m185.51,15.29c-3.66.03-7.31.06-10.97.08-.98,0-1.92.86-1.88,1.88s.82,1.88,1.88,1.88c3.66-.03,7.31-.06,10.97-.08.98,0,1.92-.86,1.88-1.88s-.82-1.88-1.88-1.88h0Z"/><path class="cls-19" d="m206.52,14.66c-3.66.03-7.31.06-10.97.08-.98,0-1.92.86-1.88,1.88s.82,1.88,1.88,1.88c3.66-.03,7.31-.06,10.97-.08.98,0,1.92-.86,1.88-1.88s-.82-1.88-1.88-1.88h0Z"/><path class="cls-19" d="m161.65,276.33c-3.66.03-7.31.06-10.97.08-.98,0-1.92.86-1.88,1.88s.82,1.88,1.88,1.88c3.66-.03,7.31-.06,10.97-.08.98,0,1.92-.86,1.88-1.88s-.82-1.88-1.88-1.88h0Z"/><path class="cls-19" d="m140.03,276.5c-3.66.03-7.31.06-10.97.08-.98,0-1.92.86-1.88,1.88s.82,1.88,1.88,1.88c3.66-.03,7.31-.06,10.97-.08.98,0,1.92-.86,1.88-1.88s-.82-1.88-1.88-1.88h0Z"/><path class="cls-19" d="m118.24,276.66c-3.66.03-7.31.06-10.97.08-.98,0-1.92.86-1.88,1.88s.82,1.88,1.88,1.88c3.66-.03,7.31-.06,10.97-.08.98,0,1.92-.86,1.88-1.88s-.82-1.88-1.88-1.88h0Z"/><path class="cls-19" d="m95.55,276.83c-3.66.03-7.31.06-10.97.08-.98,0-1.92.86-1.88,1.88s.82,1.88,1.88,1.88c3.66-.03,7.31-.06,10.97-.08.98,0,1.92-.86,1.88-1.88s-.82-1.88-1.88-1.88h0Z"/><path class="cls-19" d="m74.33,277c-3.66.03-7.31.06-10.97.08-.98,0-1.92.86-1.88,1.88s.82,1.88,1.88,1.88c3.66-.03,7.31-.06,10.97-.08.98,0,1.92-.86,1.88-1.88s-.82-1.88-1.88-1.88h0Z"/><path class="cls-19" d="m53.31,277.15l-10.97.08c-.98,0-1.92.86-1.88,1.88s.82,1.88,1.88,1.88l10.97-.08c.98,0,1.92-.86,1.88-1.88s-.82-1.88-1.88-1.88h0Z"/><path class="cls-19" d="m183.15,276.29c-3.66.03-7.31.06-10.97.08-.98,0-1.92.86-1.88,1.88s.82,1.88,1.88,1.88c3.66-.03,7.31-.06,10.97-.08.98,0,1.92-.86,1.88-1.88s-.82-1.88-1.88-1.88h0Z"/><path class="cls-19" d="m208.27,275.63c-3.66.03-7.31.06-10.97.08-.98,0-1.92.86-1.88,1.88s.82,1.88,1.88,1.88c3.66-.03,7.31-.06,10.97-.08.98,0,1.92-.86,1.88-1.88s-.82-1.88-1.88-1.88h0Z"/><rect class="cls-1" x="44.71" y="51.92" width="163.56" height="201.31"/><g><g><path class="cls-6" d="m114.33,152.74c1.12,5.08.51,10.42-.22,15.54-.58,4.12-1.26,8.29-2.86,11.94-2.82,6.46-8.21,10.59-13.75,13.34-1.6.79-3.58,1.44-4.98.12-.82-.77-1.21-2.02-1.53-3.21-2.29-8.5-2.93-17.62-1.83-26.35.63,1.17-.61,2.44-1.66,2.89-8.64,3.74-18.74,2.37-26.74-3.61-1.02-.76-2.08-1.72-2.39-3.13-.22-.99-.02-2.03.22-2.99,1.37-5.53,4.14-10.47,7.83-13.99,1.88-1.79,3.98-3.21,6.13-4.45,10.18-5.88,22.04-7.94,33.16-4.6-.86,3.63-.44,7.73,1.13,11.08s4.27,5.88,7.29,6.86"/><path class="cls-12" d="m115.38,152.51c1.34,6.35.32,13.01-.71,19.23-.96,5.8-2.75,11.01-6.23,15.14-3.13,3.71-7.26,6.62-11.41,8.31-1.92.78-4.21.98-5.73-1.1-.7-.96-1.06-2.18-1.38-3.38-.45-1.67-.84-3.37-1.16-5.09-1.34-7.11-1.56-14.49-.69-21.62.15-1.25,1.5-1.68,2.03-.45,1.65,3.82-3.44,5.28-5.39,5.84-2.94.85-6.01,1.16-9.05.97s-6.27-.96-9.26-2.24c-1.45-.62-2.86-1.37-4.22-2.24s-2.84-1.77-3.88-3.18c-2.29-3.08-.41-7.62.85-10.66,1.37-3.33,3.28-6.33,5.57-8.77,2.57-2.75,5.64-4.75,8.76-6.41s6.34-2.97,9.65-3.91c7.49-2.12,15.34-2.19,22.92.05.59.17.82,1.08.68,1.7-1.57,7.03,2,14.29,7.74,16.24,1.34.46.66,2.94-.69,2.49-6.92-2.35-10.96-11.32-9.09-19.64l.68,1.7c-11.77-3.48-24.59-.88-34.93,6.18-4.89,3.34-8.72,8.52-10.56,15.09-.46,1.65-.9,3.25.33,4.59,1.01,1.1,2.37,1.89,3.57,2.61,2.47,1.46,5.1,2.54,7.78,3.16,2.96.68,5.99.86,8.97.48.78-.1,8.22-1.67,7.69-2.88l2.03-.45c-.7,5.72-.7,11.57.07,17.33.38,2.86.94,5.71,1.69,8.48.28,1.04.62,2.35,1.51,2.85.81.46,1.8.18,2.59-.11,1.82-.67,3.6-1.8,5.26-2.91,1.81-1.21,3.52-2.63,5.05-4.31,3.18-3.5,4.97-7.95,5.94-13.06.59-3.1,1.03-6.28,1.32-9.45.31-3.37.32-6.75-.38-10.08-.35-1.66,1.76-2.12,2.11-.47h0Z"/></g><g><path class="cls-6" d="m187.13,152.64c1.45-.22,2.86-.79,4.12-1.69.73-.52,1.4-1.14,1.96-1.91,2.02-2.81,1.98-7.54-.08-10.44-.41-.58-.89-1.09-1.44-1.44-1.14-.72-2.46-.72-3.72-.65-1.86.1-3.82.35-5.29,1.7,2.49,4.04,3.79,9.13,3.61,14.11"/><path class="cls-12" d="m186.91,151.34c2.08-.34,4.44-1.4,5.71-3.54.98-1.65,1.22-3.8.8-5.8-.2-.93-.57-1.81-1.09-2.54-.74-1.05-1.64-1.52-2.74-1.63-1.04-.1-2.11-.01-3.14.15-1.08.17-2.17.46-3.06,1.24l.08-1.87c2.66,4.38,4.05,9.7,3.89,15.09-.05,1.7-2.2,1.46-2.15-.24.14-4.65-1.03-9.34-3.34-13.13-.33-.54-.42-1.43.08-1.87,1.82-1.6,3.98-1.91,6.19-2.02,2.2-.11,4.26.38,5.79,2.56,2.42,3.42,2.45,8.88.09,12.18-1.66,2.31-4.19,3.62-6.66,4.02-1.36.22-1.81-2.38-.44-2.61h0Z"/></g><g><path class="cls-14" d="m175.08,130.27c1-.51,2.11.38,2.95,1.26,4.33,4.58,7.69,10.8,8.66,17.65s-.68,14.32-4.85,18.83c-2.42,2.62-5.51,4.15-8.65,5.15-9.38,2.97-20.13,1.23-27.87-6.35-5.98-5.86-10.22-15.02-17.47-17.83,1.52.79,2.93,1.92,4.15,3.3-.16,1.01-1.15,1.38-1.98,1.53-5.94,1.05-12.16,0-17.75-2.99-3.43-1.84-6.94-4.98-7.46-9.51-.52-4.53,2.17-8.5,4.95-11.41,8.38-8.79,19.36-13.81,30.53-13.96,12.53-.16,24.9,5.65,35.5,14.24"/><path class="cls-9" d="m174.86,128.96c1.7-.66,3.22.87,4.43,2.2,1.41,1.56,2.7,3.28,3.84,5.14,2.19,3.6,3.83,7.7,4.54,12.09,1.28,7.94-.76,16.75-6.06,21.59-2.92,2.66-6.48,4.13-10.04,5-3.21.79-6.55,1.05-9.85.75-6.56-.61-13.03-3.55-18.08-8.97-5.2-5.59-9.29-13.81-16.12-16.54l.69-2.49c1.71.92,3.22,2.14,4.6,3.68.29.32.32.9.22,1.32-.55,2.23-2.72,2.41-4.32,2.6-2.05.24-4.13.25-6.2.02-3.99-.44-8.07-1.71-11.69-3.96-3.14-1.95-6.33-5.05-7-9.53-.66-4.43,1.39-8.36,3.78-11.32,2.74-3.39,6.09-6.16,9.49-8.46,3.58-2.42,7.42-4.27,11.38-5.54,7.68-2.46,15.8-2.51,23.64-.41,8.66,2.32,16.84,6.94,24.28,12.94,1.18.95,0,3.12-1.18,2.17-12.07-9.74-26.55-15.93-40.86-13.44-7.3,1.27-14.35,4.6-20.35,9.75-2.68,2.3-5.51,4.92-7.17,8.46s-1.02,7.48,1.53,10.3c2.93,3.23,7.12,4.9,10.87,5.8,2.1.5,4.24.76,6.37.76,1.05,0,2.09-.07,3.13-.21.55-.07,2.05-.03,2.26-.85l.22,1.32c-1.09-1.21-2.35-2.19-3.69-2.91s-.66-3.02.69-2.49c5.63,2.25,9.53,8.01,13.51,13.11,2.07,2.66,4.24,5.17,6.8,7.11,2.61,1.98,5.5,3.38,8.46,4.23,6.05,1.75,12.68,1.3,18.44-1.25,3.08-1.36,5.92-3.48,7.79-6.83,1.68-3,2.55-6.6,2.67-10.27.15-4.47-.92-8.89-2.74-12.81-.97-2.08-2.15-4.01-3.47-5.77-.62-.83-1.28-1.63-1.97-2.38s-1.46-1.68-2.39-1.32c-1.31.51-1.73-2.1-.44-2.61h0Z"/></g><g><path class="cls-6" d="m173.83,132.51c2.56-3.52,3.08-8.61,3.19-13.38.03-1.51.02-3.11-.6-4.43-.51-1.09-1.38-1.85-2.24-2.52-3.77-2.9-8.11-4.62-12.5-4.95-1.83-.14-3.67-.03-5.5.12-3.67.3-7.36.78-10.83,2.16-3.48,1.38-6.76,3.72-9.02,7.22,10.31-1.12,21.05,3.16,29.06,11.56,1.47,1.55,2.88,3.24,4.6,4.33,1.21.77,2.83,1.13,3.77-.03"/><path class="cls-12" d="m172.93,131.75c2.16-3.06,2.77-7.09,2.96-11.07.09-1.98.38-4.48-.86-6.07s-3.01-2.54-4.54-3.37c-3.37-1.84-6.96-2.74-10.61-2.76-4.06-.01-8.26.44-12.18,1.59s-7.88,3.46-10.48,7.41l-1.12-2.06c10.37-1.07,21.12,2.93,29.32,11.21,1.21,1.22,2.34,2.58,3.6,3.71.99.89,2.86,2.47,4,1.24,1.03-1.11,2.47.91,1.44,2.02-2.2,2.38-5.27.26-7.23-1.66-2.2-2.15-4.21-4.48-6.58-6.36-4.53-3.6-9.67-6.04-14.95-7.1-3.04-.61-6.12-.78-9.16-.46-.83.09-1.76-1.1-1.12-2.06,5.58-8.45,15.14-9.86,23.57-10.11,4.12-.12,8.22.76,12.05,2.82,1.76.94,3.62,2.07,5.08,3.63,1.63,1.74,2.01,4.05,1.98,6.56-.06,5.03-.63,10.52-3.37,14.4-.89,1.25-2.7-.25-1.8-1.51h0Z"/></g><path class="cls-18" d="m186.59,141.3c.72-.35,1.46-.62,2.23-.78.28-.06.59.18.64.54s-.12.71-.42.77c-.35.07-.7.17-1.04.29-.09.03-.17.06-.26.09-.03.01-.15.06-.02,0-.04.02-.08.03-.12.05-.17.07-.34.15-.51.23-.26.13-.6.03-.72-.31-.11-.31-.04-.75.23-.88h0Z"/><path class="cls-18" d="m187.86,144.98c.21-.05.42-.11.63-.19l-.14.05c.39-.16.76-.37,1.1-.64.11-.09.3-.08.42-.02s.25.19.31.34c.06.16.08.35.03.51s-.14.27-.26.37c-.56.44-1.21.74-1.87.89-.28.06-.59-.18-.64-.54s.12-.7.42-.77h0Z"/><path class="cls-18" d="m169.31,126.33c.88-3.51,1.08-7.25.57-10.92-.12-.84.94-1.08,1.05-.23.54,3.9.33,7.88-.6,11.61-.2.81-1.22.35-1.02-.46h0Z"/><path class="cls-18" d="m164.39,121.49c.37-3.03-.04-6.13-1.21-8.89-.32-.77.64-1.34.96-.57,1.25,2.96,1.72,6.34,1.32,9.59-.1.83-1.18.72-1.07-.12h0Z"/><path class="cls-18" d="m158.99,118.03c.04-2.21-.84-4.43-2.31-5.77-.56-.52.03-1.6.59-1.09,1.79,1.64,2.84,4.28,2.79,6.98-.02.85-1.09.73-1.07-.12h0Z"/><path class="cls-18" d="m97.99,142.54c-9.81-1.24-19.74,1.86-27.69,8.71-.56.48-1.28-.53-.72-1.01,8.19-7.05,18.37-10.3,28.48-9.02.69.09.62,1.41-.07,1.32h0Z"/><path class="cls-18" d="m95.62,146.53c-6.17,1.2-11.91,4.46-16.6,9.41-.52.55-1.24-.46-.72-1.01,4.83-5.1,10.75-8.47,17.1-9.71.68-.13.9,1.17.22,1.3h0Z"/><path class="cls-18" d="m109.42,158.85c-.48,9.74-3.64,18.98-8.89,26.13-.46.62-1.17-.39-.72-1.01,5.06-6.9,8.07-15.87,8.54-25.24.04-.85,1.12-.73,1.07.12h0Z"/><path class="cls-18" d="m105.35,158.69c-.54,2.58-1.68,4.93-2.83,7.16s-2.52,4.51-3.98,6.58c-.44.63-1.35-.12-.9-.76,1.42-2.02,2.72-4.15,3.89-6.4,1.13-2.19,2.26-4.49,2.8-7.03.17-.82,1.19-.36,1.02.46h0Z"/><path class="cls-5" d="m105.17,150.43c-2.75-3.62-4.05-8.63-3.45-13.44l.37.68c-6.62-2.37-13.93-.77-20.39,1.18-6.55,1.97-13,5.62-17.07,12.38-.41.67-1.31-.08-.9-.76,3.18-5.27,7.79-8.85,12.78-11.09,5.3-2.37,11.15-3.76,16.82-4.11,3.06-.19,6.12.09,9.1,1.15.21.08.4.41.37.68-.56,4.49.61,9.08,3.18,12.46.48.63-.32,1.49-.8.86h0Z"/><path class="cls-5" d="m91.94,166.93c-.45,1.69-.34,3.47-.22,5.23.13,1.86.3,3.72.53,5.58.46,3.71,1.12,7.37,1.96,10.99.19.82-.86,1.05-1.05.23-.91-3.89-1.61-7.85-2.06-11.85-.22-1.91-.38-3.83-.49-5.76-.1-1.67-.11-3.3.32-4.89.22-.8,1.24-.35,1.02.46h0Z"/><g><g><path class="cls-6" d="m151.03,163.94c.07,1.14.07,2.27.05,3.41-.06,2.99-.36,6.02-1.42,8.67s-3.01,4.88-5.39,5.37c-1.78.37-3.63-.24-5.33-1.08-1.25-.62-2.47-1.37-3.52-2.43s-1.91-2.43-2.31-4.01c-.69-2.75.14-5.78,1.64-7.92s3.57-3.53,5.66-4.73c1.35-.77,2.73-1.48,4.17-1.96.81-.27,1.66-.47,2.51-.35,1.93.27,3.62,2.36,3.83,4.73"/><path class="cls-12" d="m152.1,164.06c.27,5.23-.06,11.22-2.95,15.26-1.27,1.78-3.01,3.13-4.97,3.42-2.11.31-4.23-.45-6.17-1.49-1.92-1.03-3.75-2.45-4.96-4.61-1.22-2.18-1.53-4.75-1.01-7.25,1.08-5.14,5.13-7.91,8.8-9.88,2.17-1.16,4.88-2.6,7.31-1.64,1.98.79,3.51,3.03,3.81,5.55.2,1.68-1.91,2.16-2.11.47s-1.19-3.22-2.6-3.6c-1.72-.46-3.75.73-5.27,1.53-2.95,1.56-6.43,3.57-7.65,7.51-.57,1.84-.56,3.83.31,5.58s2.4,2.95,3.9,3.78c1.52.83,3.22,1.61,4.89,1.49s3.05-1.16,4.09-2.62c2.55-3.6,2.65-9.14,2.41-13.74-.09-1.7,2.06-1.44,2.15.24h0Z"/></g><path class="cls-18" d="m147.22,167.4c-.67,3.1-1.78,6.03-3.25,8.65-.39.69-1.29-.06-.9-.76,1.43-2.54,2.48-5.35,3.13-8.35.18-.82,1.2-.36,1.02.46h0Z"/><path class="cls-18" d="m143.98,166.63c-1.53,1.39-2.73,3.26-3.45,5.44-.11.33-.39.52-.68.39-.26-.12-.45-.52-.34-.85.78-2.38,2.08-4.47,3.75-5.99.23-.21.55-.21.76.07.18.26.19.72-.04.93h0Z"/><path class="cls-5" d="m140.31,165.2c-1.56,1.54-3.38,3.31-3.64,5.94-.12,1.22.1,2.41.82,3.32s1.6,1.49,2.28,2.4c.48.64-.32,1.49-.8.86-.77-1.02-1.83-1.65-2.53-2.75s-.98-2.57-.84-3.95c.3-3.02,2.19-5.04,4-6.83.53-.53,1.25.48.72,1.01h0Z"/></g><path class="cls-5" d="m187.25,138.9c1.06-.54,2.28-.51,3.33.16s1.74,1.78,2.05,3.11c.08.35-.15.71-.42.77-.3.07-.55-.19-.64-.54-.1-.41-.31-.9-.55-1.26-.26-.39-.56-.69-.91-.92-.73-.47-1.64-.5-2.37-.13-.27.14-.59.02-.72-.31-.13-.31-.03-.75.23-.88h0Z"/><path class="cls-5" d="m173.35,124.81c.16-1.38.27-2.78.31-4.18.04-1.24.27-3.14-.24-4.29-.56-1.27-1.91-1.96-2.94-2.47s-2.14-1-3.23-1.46c-4.66-1.96-9.33-2.21-14.14-1.57-.68.09-.91-1.21-.22-1.3,2.62-.35,5.27-.52,7.91-.23s5.22,1.15,7.74,2.27c1.93.85,4.77,1.74,5.83,4.19.5,1.16.38,2.72.37,3.98-.01,1.74-.13,3.46-.32,5.18-.1.83-1.17.72-1.07-.12h0Z"/><path class="cls-10" d="m129.82,121.91c-2.54.29-4.83,1.65-7.06,3.02-2.23,1.36-4.41,2.87-6.51,4.51s-4.26,3.18-5.77,5.45c-1.42,2.13-2.16,5.67-.05,7.7.55.53-.04,1.62-.59,1.09-1.9-1.83-2.23-4.93-1.3-7.48,1.07-2.94,3.35-4.78,5.44-6.52,2.38-1.97,4.84-3.78,7.4-5.39s5.28-3.35,8.23-3.68c.68-.08.91,1.23.22,1.3h0Z"/><path class="cls-10" d="m182.69,151.11c-.15-5.64-3.16-10.32-5.98-14.53l.85-.05c-1.06,2.12-3.15,3.06-5.13,2.42-.67-.22-.33-1.46.34-1.24,1.52.49,3.1-.34,3.89-1.93.17-.35.63-.38.85-.05,3.03,4.53,6.09,9.47,6.25,15.52.02.85-1.05.72-1.07-.12h0Z"/><path class="cls-10" d="m162.32,171.35c-2.85.08-5.71-.54-8.4-1.82-.65-.31-.31-1.55.34-1.24,2.61,1.24,5.36,1.83,8.13,1.75.29,0,.52.39.5.72-.02.39-.28.59-.57.6h0Z"/><ellipse class="cls-13" cx="139.68" cy="123.06" rx="3.14" ry="5.13" transform="translate(-20.26 218.31) rotate(-72.16)"/><ellipse class="cls-13" cx="131.97" cy="127.44" rx="2.91" ry="2.36" transform="translate(-33.06 47.31) rotate(-18.1)"/><ellipse class="cls-13" cx="137.68" cy="129.11" rx="1.95" ry="1.54" transform="translate(-32.02 46.49) rotate(-17.2)"/><ellipse class="cls-7" cx="182.52" cy="149.62" rx="4.72" ry="4.36" transform="translate(-51 115.47) rotate(-31.02)"/><ellipse class="cls-7" cx="157.86" cy="154.39" rx="4.71" ry="4.6" transform="translate(-62.16 173.03) rotate(-49.21)"/><ellipse class="cls-11" cx="184.57" cy="150.97" rx="1.43" ry="1.77" transform="translate(-9.9 12.98) rotate(-3.92)"/><ellipse class="cls-11" cx="159.98" cy="156.4" rx="1.43" ry="1.77" transform="translate(-10.32 11.31) rotate(-3.92)"/><ellipse class="cls-11" cx="182.94" cy="148.64" rx=".94" ry=".86" transform="translate(-49.61 110.14) rotate(-29.69)"/><ellipse class="cls-11" cx="157.84" cy="154.19" rx=".94" ry=".86" transform="translate(-55.66 98.44) rotate(-29.69)"/><path class="cls-7" d="m173.82,155.33c.54.56.82,1.32.84,2.17.02.75-.26,1.53-.74,1.98s-1.17.68-1.8.52-1.23-.69-1.52-1.45c-.33-.84-.31-1.83.07-2.62.14-.29.52-.38.75-.16.25.23.31.61.16.92,0,.01-.04.1-.05.1,0,0,.05-.15.02-.04-.02.06-.04.12-.06.19-.01.05-.03.26-.02.07,0,.07-.02.15-.02.22,0,.06,0,.12,0,.18,0,.06.03.17,0-.01,0,.03,0,.05,0,.08,0,.07.02.14.03.2,0,.03.01.07.02.1,0,.02,0,.04.01.06.02.07.01.05-.02-.05.03.05.04.13.07.19s.05.11.07.16c.01.02.04.06.04.09-.02-.09-.06-.1-.02-.04.04.06.08.13.13.19.02.02.04.05.06.07.05.07-.11-.1-.02-.02.04.04.09.08.14.12.02.01.04.03.06.04.1.07-.09-.05-.02-.01.06.03.11.06.17.08.03.01.06.02.1.04.06.02.02-.03-.04,0,.04-.01.12.03.16.03.06,0,.11.01.17.01.02,0,.05,0,.07,0-.09,0-.1,0-.04,0,.02,0,.03,0,.05,0,.11-.01.2-.05.31-.08-.16.04,0,0,.05-.03.06-.03.12-.07.17-.11.02-.01.04-.03.06-.04-.12.08-.05.04-.02.01.04-.04.08-.08.12-.13.02-.02.04-.05.06-.07.07-.08-.03.03-.02.04,0-.02.1-.17.11-.2.01-.02.02-.05.03-.07.06-.12-.05.14,0,0,.02-.06.04-.12.06-.19,0-.03.01-.05.02-.08,0-.02.02-.14,0-.03s0-.02,0-.03c0-.04,0-.08.01-.12,0-.08,0-.16,0-.24,0-.11,0,.04,0,.06-.01-.04,0-.1-.01-.14,0-.07-.02-.15-.04-.22,0-.04-.02-.08-.03-.12-.03-.12.05.14,0,.02-.02-.07-.05-.14-.08-.2-.01-.03-.03-.06-.04-.09-.03-.07-.07-.08,0,0-.05-.05-.08-.13-.12-.19-.01-.02-.03-.04-.05-.06-.02-.02-.03-.04-.05-.06.06.07.07.08.03.03-.22-.22-.34-.62-.16-.92.16-.26.51-.4.75-.16h0Z"/></g><path class="cls-19" d="m270.79,39.88v10.97c0,.98.86,1.92,1.88,1.88s1.88-.82,1.88-1.88v-10.97c0-.98-.86-1.92-1.88-1.88s-1.88.82-1.88,1.88h0Z"/><path class="cls-19" d="m270.79,16.58v10.97c0,.98.86,1.92,1.88,1.88s1.88-.82,1.88-1.88v-10.97c0-.98-.86-1.92-1.88-1.88s-1.88.82-1.88,1.88h0Z"/><path class="cls-19" d="m283.63,14.71h-10.97c-.98,0-1.92.86-1.88,1.87s.82,1.87,1.88,1.88h10.97c.98,0,1.92-.86,1.88-1.87s-.82-1.87-1.88-1.88h0Z"/><path class="cls-19" d="m480.97,13.63h-10.97c-.98,0-1.92.86-1.88,1.88s.82,1.88,1.88,1.88h10.97c.98,0,1.92-.86,1.88-1.88s-.82-1.88-1.88-1.88h0Z"/><path class="cls-19" d="m482.84,26.47v-10.97c0-.98-.86-1.92-1.87-1.88s-1.87.82-1.88,1.88v10.97c0,.98.86,1.92,1.87,1.88s1.87-.82,1.88-1.88h0Z"/><path class="cls-19" d="m483.51,276.47v-10.97c0-.98-.86-1.92-1.88-1.88s-1.88.82-1.88,1.88v10.97c0,.98.86,1.92,1.88,1.88s1.88-.82,1.88-1.88h0Z"/><path class="cls-19" d="m470.67,278.34h10.97c.98,0,1.92-.86,1.88-1.87s-.82-1.87-1.88-1.88h-10.97c-.98,0-1.92.86-1.88,1.87s.82,1.87,1.88,1.88h0Z"/><path class="cls-19" d="m272.66,279.13h10.97c.98,0,1.92-.86,1.88-1.88s-.82-1.88-1.88-1.88h-10.97c-.98,0-1.92.86-1.88,1.88s.82,1.88,1.88,1.88h0Z"/><path class="cls-19" d="m270.79,266.28v10.97c0,.98.86,1.92,1.87,1.88s1.87-.82,1.88-1.88v-10.97c0-.98-.86-1.92-1.87-1.88s-1.87.82-1.88,1.88h0Z"/><path class="cls-19" d="m270.79,61.5v10.97c0,.98.86,1.92,1.88,1.88s1.88-.82,1.88-1.88v-10.97c0-.98-.86-1.92-1.88-1.88s-1.88.82-1.88,1.88h0Z"/><path class="cls-19" d="m270.79,83.29v10.97c0,.98.86,1.92,1.88,1.88s1.88-.82,1.88-1.88v-10.97c0-.98-.86-1.92-1.88-1.88s-1.88.82-1.88,1.88h0Z"/><path class="cls-19" d="m270.79,105.98v10.97c0,.98.86,1.92,1.88,1.88s1.88-.82,1.88-1.88v-10.97c0-.98-.86-1.92-1.88-1.88s-1.88.82-1.88,1.88h0Z"/><path class="cls-19" d="m270.79,127.2v10.97c0,.98.86,1.92,1.88,1.88s1.88-.82,1.88-1.88v-10.97c0-.98-.86-1.92-1.88-1.88s-1.88.82-1.88,1.88h0Z"/><path class="cls-19" d="m270.79,148.22v10.97c0,.98.86,1.92,1.88,1.88s1.88-.82,1.88-1.88v-10.97c0-.98-.86-1.92-1.88-1.88s-1.88.82-1.88,1.88h0Z"/><path class="cls-19" d="m270.79,172.7v10.97c0,.98.86,1.92,1.88,1.88s1.88-.82,1.88-1.88v-10.97c0-.98-.86-1.92-1.88-1.88s-1.88.82-1.88,1.88h0Z"/><path class="cls-19" d="m270.79,196.75v10.97c0,.98.86,1.92,1.88,1.88s1.88-.82,1.88-1.88v-10.97c0-.98-.86-1.92-1.88-1.88s-1.88.82-1.88,1.88h0Z"/><path class="cls-19" d="m270.79,217.59v10.97c0,.98.86,1.92,1.88,1.88s1.88-.82,1.88-1.88v-10.97c0-.98-.86-1.92-1.88-1.88s-1.88.82-1.88,1.88h0Z"/><path class="cls-19" d="m270.79,241.18v10.97c0,.98.86,1.92,1.88,1.88s1.88-.82,1.88-1.88v-10.97c0-.98-.86-1.92-1.88-1.88s-1.88.82-1.88,1.88h0Z"/><path class="cls-19" d="m479.76,39.88v10.97c0,.98.86,1.92,1.88,1.88s1.88-.82,1.88-1.88v-10.97c0-.98-.86-1.92-1.88-1.88s-1.88.82-1.88,1.88h0Z"/><path class="cls-19" d="m479.76,61.5v10.97c0,.98.86,1.92,1.88,1.88s1.88-.82,1.88-1.88v-10.97c0-.98-.86-1.92-1.88-1.88s-1.88.82-1.88,1.88h0Z"/><path class="cls-19" d="m479.76,83.29v10.97c0,.98.86,1.92,1.88,1.88s1.88-.82,1.88-1.88v-10.97c0-.98-.86-1.92-1.88-1.88s-1.88.82-1.88,1.88h0Z"/><path class="cls-19" d="m479.76,105.98v10.97c0,.98.86,1.92,1.88,1.88s1.88-.82,1.88-1.88v-10.97c0-.98-.86-1.92-1.88-1.88s-1.88.82-1.88,1.88h0Z"/><path class="cls-19" d="m479.76,127.2v10.97c0,.98.86,1.92,1.88,1.88s1.88-.82,1.88-1.88v-10.97c0-.98-.86-1.92-1.88-1.88s-1.88.82-1.88,1.88h0Z"/><path class="cls-19" d="m479.76,148.22v10.97c0,.98.86,1.92,1.88,1.88s1.88-.82,1.88-1.88v-10.97c0-.98-.86-1.92-1.88-1.88s-1.88.82-1.88,1.88h0Z"/><path class="cls-19" d="m479.76,172.7v10.97c0,.98.86,1.92,1.88,1.88s1.88-.82,1.88-1.88v-10.97c0-.98-.86-1.92-1.88-1.88s-1.88.82-1.88,1.88h0Z"/><path class="cls-19" d="m479.76,196.75v10.97c0,.98.86,1.92,1.88,1.88s1.88-.82,1.88-1.88v-10.97c0-.98-.86-1.92-1.88-1.88s-1.88.82-1.88,1.88h0Z"/><path class="cls-19" d="m479.76,217.59v10.97c0,.98.86,1.92,1.88,1.88s1.88-.82,1.88-1.88v-10.97c0-.98-.86-1.92-1.88-1.88s-1.88.82-1.88,1.88h0Z"/><path class="cls-19" d="m479.76,241.18v10.97c0,.98.86,1.92,1.88,1.88s1.88-.82,1.88-1.88v-10.97c0-.98-.86-1.92-1.88-1.88s-1.88.82-1.88,1.88h0Z"/><path class="cls-19" d="m414.99,14.25c-3.66.03-7.31.06-10.97.08-.98,0-1.92.86-1.88,1.88s.82,1.88,1.88,1.88c3.66-.03,7.31-.06,10.97-.08.98,0,1.92-.86,1.88-1.88s-.82-1.88-1.88-1.88h0Z"/><path class="cls-19" d="m393.37,14.42c-3.66.03-7.31.06-10.97.08-.98,0-1.92.86-1.88,1.88s.82,1.88,1.88,1.88c3.66-.03,7.31-.06,10.97-.08.98,0,1.92-.86,1.88-1.88s-.82-1.88-1.88-1.88h0Z"/><path class="cls-19" d="m371.58,14.58c-3.66.03-7.31.06-10.97.08-.98,0-1.92.86-1.88,1.88s.82,1.88,1.88,1.88c3.66-.03,7.31-.06,10.97-.08.98,0,1.92-.86,1.88-1.88s-.82-1.88-1.88-1.88h0Z"/><path class="cls-19" d="m348.9,14.76c-3.66.03-7.31.06-10.97.08-.98,0-1.92.86-1.88,1.88s.82,1.88,1.88,1.88c3.66-.03,7.31-.06,10.97-.08.98,0,1.92-.86,1.88-1.88s-.82-1.88-1.88-1.88h0Z"/><path class="cls-19" d="m327.68,14.92c-3.66.03-7.31.06-10.97.08-.98,0-1.92.86-1.88,1.88s.82,1.88,1.88,1.88c3.66-.03,7.31-.06,10.97-.08.98,0,1.92-.86,1.88-1.88s-.82-1.88-1.88-1.88h0Z"/><path class="cls-19" d="m306.65,15.08c-3.66.03-7.31.06-10.97.08-.98,0-1.92.86-1.88,1.88s.82,1.88,1.88,1.88c3.66-.03,7.31-.06,10.97-.08.98,0,1.92-.86,1.88-1.88s-.82-1.88-1.88-1.88h0Z"/><path class="cls-19" d="m436.49,14.21c-3.66.03-7.31.06-10.97.08-.98,0-1.92.86-1.88,1.88s.82,1.88,1.88,1.88c3.66-.03,7.31-.06,10.97-.08.98,0,1.92-.86,1.88-1.88s-.82-1.88-1.88-1.88h0Z"/><path class="cls-19" d="m457.5,13.59c-3.66.03-7.31.06-10.97.08-.98,0-1.92.86-1.88,1.88s.82,1.88,1.88,1.88c3.66-.03,7.31-.06,10.97-.08.98,0,1.92-.86,1.88-1.88s-.82-1.88-1.88-1.88h0Z"/><path class="cls-19" d="m412.63,275.26c-3.66.03-7.31.06-10.97.08-.98,0-1.92.86-1.88,1.88s.82,1.88,1.88,1.88c3.66-.03,7.31-.06,10.97-.08.98,0,1.92-.86,1.88-1.88s-.82-1.88-1.88-1.88h0Z"/><path class="cls-19" d="m391,275.42c-3.66.03-7.31.06-10.97.08-.98,0-1.92.86-1.88,1.88s.82,1.88,1.88,1.88c3.66-.03,7.31-.06,10.97-.08.98,0,1.92-.86,1.88-1.88s-.82-1.88-1.88-1.88h0Z"/><path class="cls-19" d="m369.21,275.59c-3.66.03-7.31.06-10.97.08-.98,0-1.92.86-1.88,1.88s.82,1.88,1.88,1.88c3.66-.03,7.31-.06,10.97-.08.98,0,1.92-.86,1.88-1.88s-.82-1.88-1.88-1.88h0Z"/><path class="cls-19" d="m346.53,275.76c-3.66.03-7.31.06-10.97.08-.98,0-1.92.86-1.88,1.88s.82,1.88,1.88,1.88c3.66-.03,7.31-.06,10.97-.08.98,0,1.92-.86,1.88-1.88s-.82-1.88-1.88-1.88h0Z"/><path class="cls-19" d="m325.31,275.92c-3.66.03-7.31.06-10.97.08-.98,0-1.92.86-1.88,1.88s.82,1.88,1.88,1.88c3.66-.03,7.31-.06,10.97-.08.98,0,1.92-.86,1.88-1.88s-.82-1.88-1.88-1.88h0Z"/><path class="cls-19" d="m304.29,276.08l-10.97.08c-.98,0-1.92.86-1.88,1.88s.82,1.88,1.88,1.88l10.97-.08c.98,0,1.92-.86,1.88-1.88s-.82-1.88-1.88-1.88h0Z"/><path class="cls-19" d="m434.13,275.22c-3.66.03-7.31.06-10.97.08-.98,0-1.92.86-1.88,1.88s.82,1.88,1.88,1.88c3.66-.03,7.31-.06,10.97-.08.98,0,1.92-.86,1.88-1.88s-.82-1.88-1.88-1.88h0Z"/><path class="cls-19" d="m459.25,274.56c-3.66.03-7.31.06-10.97.08-.98,0-1.92.86-1.88,1.88s.82,1.88,1.88,1.88c3.66-.03,7.31-.06,10.97-.08.98,0,1.92-.86,1.88-1.88s-.82-1.88-1.88-1.88h0Z"/><rect class="cls-1" x="295.69" y="50.84" width="163.56" height="201.31"/><g><path class="cls-15" d="m341.22,134.92c-3.11-1.07-5.53-3.52-7.03-6.31s-2.15-5.93-2.53-9.06c-.23-1.92-.35-3.93.42-5.73,1.44-3.34,5.49-4.92,9.24-5.51,6.81-1.07,14.47.26,19.07,5.12.36.38.72.85.61,1.36-.1.48-.59.79-1.03,1.04-7.42,4.31-13.78,10.25-18.44,17.22"/><path class="cls-16" d="m341.36,134.42c-2.46-.87-4.52-2.65-5.96-4.8-1.65-2.47-2.49-5.38-2.97-8.29-.46-2.78-.96-6.02.79-8.47,1.39-1.95,3.79-2.99,6.03-3.59,2.46-.66,5.05-.87,7.58-.77s5.14.58,7.54,1.53c1.15.46,2.26,1.04,3.28,1.74.52.35,1.01.73,1.48,1.15s1.04.86,1.3,1.41c.32.67-.7,1.05-1.15,1.31-.6.35-1.19.72-1.77,1.09-1.2.77-2.38,1.59-3.52,2.46-4.45,3.36-8.41,7.35-11.69,11.87-.41.57-.81,1.15-1.21,1.73-.37.55.52,1.07.89.52,3.32-4.95,7.46-9.34,12.19-12.97,1.19-.92,2.42-1.78,3.68-2.6.62-.4,1.25-.79,1.89-1.17.58-.35,1.29-.67,1.63-1.29.72-1.33-.96-2.63-1.85-3.37-1.01-.85-2.12-1.58-3.31-2.17-4.86-2.43-10.73-2.82-16.01-1.75-2.49.5-5.06,1.44-6.92,3.23-.94.91-1.65,2.05-2,3.32-.43,1.55-.35,3.19-.16,4.77.37,3.21,1.02,6.44,2.52,9.34,1.26,2.43,3.17,4.59,5.58,5.93.6.33,1.23.61,1.87.83s.9-.77.27-.99h0Z"/></g><g><path class="cls-15" d="m332.07,164.94c-5.05-2.63-10.94-3.54-16.54-2.57-2.31.4-4.67,1.18-6.29,2.91-1.68,1.8-2.33,4.42-2.15,6.89s1.09,4.84,2.18,7.06c2.35,4.78,5.68,9.21,10.23,11.88s10.44,3.3,15.05.74c2.4-1.33,4.36-3.47,5.49-6.01.22-.5.42-1.03.41-1.58,0-.51-.2-1.01-.38-1.48-2.15-5.53-4.3-11.07-6.44-16.6"/><path class="cls-16" d="m332.32,164.5c-3.08-1.59-6.44-2.57-9.89-2.9-1.72-.16-3.46-.16-5.19.02-1.61.17-3.23.45-4.75,1.01s-2.83,1.34-3.84,2.53-1.64,2.64-1.92,4.16c-.63,3.43.48,6.82,1.95,9.89,2.7,5.6,6.84,10.96,12.73,13.42,2.91,1.22,6.16,1.67,9.28,1.12s5.89-2.18,7.88-4.59c.96-1.17,1.94-2.6,2.29-4.09.22-.92-.04-1.73-.37-2.58-.35-.9-.7-1.81-1.05-2.71-1.43-3.67-2.85-7.34-4.28-11.01-.35-.9-.7-1.81-1.05-2.71-.24-.61-1.23-.35-.99.27,1.34,3.46,2.69,6.92,4.03,10.38.66,1.7,1.32,3.41,1.98,5.11.3.78.81,1.68.8,2.54-.01.77-.45,1.55-.82,2.21-1.4,2.53-3.68,4.57-6.39,5.59-2.79,1.04-5.87,1.05-8.73.29-5.89-1.55-10.26-6.23-13.19-11.37-1.57-2.76-3.05-5.85-3.22-9.08-.16-2.96.92-5.96,3.53-7.55,1.26-.77,2.7-1.2,4.14-1.47,1.57-.3,3.16-.44,4.76-.43,3.27.01,6.53.65,9.57,1.86.75.3,1.49.64,2.21,1.02.59.3,1.11-.58.52-.89h0Z"/></g><path class="cls-20" d="m326.84,172.79c-3.95.37-7.9.74-11.85,1.11-.49.05-.5.82,0,.77,3.95-.37,7.9-.74,11.85-1.11.49-.05.5-.82,0-.77h0Z"/><path class="cls-20" d="m328.07,177.89c-3.38.97-6.71,2.11-9.97,3.43-.45.18-.26.93.21.74,3.26-1.32,6.59-2.46,9.97-3.43.48-.14.27-.88-.21-.74h0Z"/><path class="cls-8" d="m312.11,169.97c-.66-1.26.3-2.53,1.38-3.14,1.13-.64,2.47-.89,3.76-.97,2.59-.16,5.19.3,7.78-.01.32-.04.33-.55,0-.51-2.96.36-5.94-.3-8.89.13-1.3.19-2.69.6-3.69,1.48-.93.81-1.38,2.15-.78,3.29.15.29.6.03.44-.26h0Z"/><g><g><path class="cls-15" d="m421.79,141.9c2.8-3.99,6.33-7.66,10.7-10.03,1.94-1.06,4.19-1.86,6.25-1.4,3.14.69,4.61,3.91,5.51,6.84.61,2.01,1.15,4.12.8,6.26-.35,2.15-1.77,4.35-3.94,5.13-1.66.6-3.44.28-5.1-.05-2.68-.53-5.37-1.06-8.05-1.59-2.21-.44-4.71-1.09-5.51-3.07"/><path class="cls-16" d="m422.23,142.16c2.35-3.33,5.16-6.39,8.56-8.66,1.74-1.16,3.69-2.27,5.78-2.58,1.82-.27,3.51.32,4.75,1.68,1.12,1.23,1.78,2.84,2.28,4.4.67,2.08,1.32,4.35.92,6.55-.31,1.71-1.27,3.38-2.79,4.28-1.97,1.18-4.34.57-6.44.16-2.6-.51-5.22-.99-7.81-1.55-1.73-.37-3.84-.92-4.61-2.72-.26-.61-1.15-.08-.89.52.75,1.76,2.65,2.54,4.38,2.99,2.4.62,4.88,1,7.31,1.48s4.96,1.29,7.33.56c1.9-.59,3.31-2.14,4.06-3.94.9-2.17.64-4.57.06-6.79-.5-1.9-1.12-3.85-2.2-5.51-.98-1.51-2.4-2.74-4.2-3.09-2.31-.44-4.63.46-6.63,1.55-4.38,2.41-7.9,6.1-10.76,10.15-.38.54.51,1.06.89.52h0Z"/></g><path class="cls-20" d="m429.45,140.75c1.79-1.06,3.59-2.13,5.38-3.19.28-.17.03-.61-.26-.44-1.79,1.06-3.59,2.13-5.38,3.19-.28.17-.03.61.26.44h0Z"/><path class="cls-20" d="m431.55,142.58l6-1.85c.32-.1.18-.59-.14-.5-2,.62-4,1.24-6,1.85-.32.1-.18.59.14.5h0Z"/><path class="cls-8" d="m440.34,138.89c.38,1.05.79,2.24.26,3.32-.2.42-.52.78-.93.99-.56.28-1.21.17-1.8.07-.32-.06-.46.44-.14.5.68.12,1.39.23,2.05-.05.52-.22.94-.64,1.21-1.13.68-1.24.3-2.59-.15-3.83-.11-.31-.61-.18-.5.14h0Z"/></g><ellipse class="cls-3" cx="379.59" cy="159.79" rx="47.5" ry="48.37"/><g><g><path class="cls-15" d="m368.31,163.76c-3.9-2.37-8.27-4.1-12.81-4.26-2.02-.07-4.19.24-5.7,1.6-2.31,2.09-2.23,5.73-1.79,8.84.3,2.13.7,4.32,1.85,6.13s3.2,3.18,5.3,2.89c1.61-.22,2.94-1.34,4.17-2.41,2-1.73,3.99-3.46,5.99-5.19,1.64-1.43,3.44-3.19,3.31-5.38"/><path class="cls-16" d="m368.57,163.32c-3.83-2.31-8.11-4.05-12.62-4.31-1.99-.12-4.2.06-5.89,1.24-1.52,1.05-2.36,2.72-2.65,4.52-.31,1.92-.12,3.85.16,5.76.31,2.09.77,4.26,1.98,6.03,1.09,1.58,2.8,2.83,4.77,2.95,2.13.13,3.86-1.28,5.37-2.59,2.1-1.81,4.21-3.61,6.28-5.45,1.6-1.42,3.26-3.2,3.16-5.49-.03-.66-1.06-.66-1.03,0,.08,1.86-1.27,3.32-2.56,4.49-1.6,1.47-3.28,2.86-4.92,4.28-.84.73-1.66,1.47-2.52,2.17-.72.58-1.51,1.13-2.41,1.4-1.76.52-3.51-.32-4.71-1.61-1.32-1.44-1.88-3.41-2.22-5.29-.32-1.75-.55-3.55-.46-5.33.09-1.61.51-3.28,1.68-4.44,1.33-1.33,3.3-1.64,5.11-1.63,4.62.04,9.06,1.84,12.96,4.2.57.34,1.09-.55.52-.89h0Z"/></g><path class="cls-20" d="m361.56,165.74l-5.7-.44c-.33-.03-.33.49,0,.51l5.7.44c.33.03.33-.49,0-.51h0Z"/><path class="cls-20" d="m360.44,168.41c-1.89.36-3.78.72-5.67,1.08-.33.06-.19.56.14.5,1.89-.36,3.78-.72,5.67-1.08.33-.06.19-.56-.14-.5h0Z"/><path class="cls-8" d="m351.36,169.65c.12,1.27.28,2.7,1.34,3.57.44.36,1.01.61,1.59.55.66-.07,1.19-.49,1.68-.91.25-.21-.11-.58-.36-.36-.4.34-.86.73-1.41.76-.48.03-.94-.2-1.28-.53-.83-.78-.94-2.01-1.04-3.08-.03-.33-.55-.33-.51,0h0Z"/></g><path class="cls-20" d="m340.84,123.31c-1.36-1.8-3.34-2.97-5.44-3.71-.16-.06-.22.19-.07.25,2.03.72,3.98,1.85,5.29,3.6.1.13.32,0,.22-.13h0Z"/><path class="cls-20" d="m343.68,119.57c-2.05-2-4.57-3.48-7.32-4.29-.16-.05-.23.2-.07.25,2.71.79,5.19,2.25,7.21,4.22.12.12.3-.07.18-.18h0Z"/><path class="cls-20" d="m346.41,117.42c-2.23-2.42-5.26-4.04-8.38-5.01-.16-.05-.23.2-.07.25,3.07.96,6.07,2.55,8.26,4.94.11.12.29-.06.18-.18h0Z"/><path class="cls-20" d="m348.42,115.42c-.68-.87-1.55-1.59-2.53-2.1-.15-.08-.28.15-.13.22.97.5,1.81,1.2,2.48,2.06.1.13.28-.05.18-.18h0Z"/><path class="cls-8" d="m333.81,115.43c.42-2.19,1.97-4.14,4.07-4.93,1.29-.49,2.73-.63,4.08-.82s2.8-.32,4.2-.2c1.47.13,2.91.56,4.14,1.4.14.09.27-.13.13-.22-2.35-1.6-5.28-1.65-8-1.3-1.46.19-3.01.35-4.4.82-1.06.36-2,.99-2.76,1.82-.87.95-1.46,2.12-1.7,3.37-.03.16.22.23.25.07h0Z"/><ellipse class="cls-4" cx="346.57" cy="142.01" rx="6.25" ry="4.17" transform="translate(28.72 340.12) rotate(-54.22)"/><ellipse class="cls-4" cx="352.47" cy="130.96" rx="3.52" ry="4.58" transform="translate(199.61 474.5) rotate(-86.4)"/><ellipse class="cls-4" cx="358.81" cy="139.5" rx="4.58" ry="3.01" transform="translate(-22.34 85.38) rotate(-13.16)"/><path class="cls-4" d="m337.23,156.7c0,5.71,1.11,11.41,3.2,16.72,2.07,5.26,5.08,10.15,8.89,14.33,2.14,2.35,4.53,4.45,7.12,6.28.41.29.79-.38.39-.67-4.53-3.19-8.4-7.29-11.42-11.94s-5.22-9.88-6.4-15.32c-.67-3.09-1.01-6.24-1.01-9.4,0-.5-.77-.5-.77,0h0Z"/><path class="cls-4" d="m386.87,114.71c5.51,1.02,10.78,3.16,15.45,6.25,1.35.9,2.65,1.87,3.89,2.92.38.32.93-.22.55-.55-4.38-3.7-9.48-6.52-14.96-8.21-1.55-.48-3.13-.87-4.72-1.16-.49-.09-.69.65-.21.74h0Z"/><ellipse class="cls-7" cx="372.95" cy="152.68" rx="7.89" ry="7.3"/><ellipse class="cls-7" cx="414.53" cy="138.08" rx="7.89" ry="7.3"/><ellipse class="cls-11" cx="415.96" cy="134.43" rx="3.58" ry="3.65"/><ellipse class="cls-11" cx="374.39" cy="149.03" rx="3.58" ry="3.65"/><ellipse class="cls-11" cx="413.13" cy="140.33" rx="2.18" ry="2.14"/><ellipse class="cls-11" cx="371.25" cy="154.97" rx="2.18" ry="2.14"/><path class="cls-7" d="m393.49,156.35c.23,1.81.97,4.06,3.06,4.35s3.87-1.75,3.82-3.81c-.02-1.11-.48-2.2-1.29-2.97-.24-.23-.6.13-.36.36,1.25,1.21,1.52,3.24.52,4.68-.53.77-1.39,1.27-2.32,1.25-.87-.01-1.61-.51-2.08-1.23-.5-.78-.73-1.72-.84-2.63-.04-.32-.56-.33-.51,0h0Z"/><g><path class="cls-19" d="m33.77,33.52l.31-2.35h-.98v-.71h1.09l.23-1.74h-1.03v-.71h1.14l.31-2.29h.7l-.3,2.29h1.25l.31-2.29h.71l-.3,2.29h.98v.71h-1.09l-.22,1.74h1.03v.71h-1.14l-.31,2.35h-.72l.31-2.35h-1.25l-.31,2.35h-.72Zm2.39-3.06l.23-1.74h-1.25l-.23,1.74h1.25Z"/><path class="cls-19" d="m44.49,27.71c-.02.42-.05.89-.05,1.6v3.37c0,1.33-.26,2.15-.83,2.65-.56.53-1.38.7-2.11.7s-1.46-.17-1.93-.48l.26-.8c.38.24.98.46,1.7.46,1.08,0,1.87-.56,1.87-2.03v-.65h-.02c-.32.54-.95.97-1.85.97-1.44,0-2.47-1.22-2.47-2.83,0-1.97,1.28-3.08,2.61-3.08,1.01,0,1.56.53,1.81,1.01h.02l.05-.88h.92Zm-1.09,2.29c0-.18-.01-.34-.06-.48-.19-.61-.71-1.12-1.48-1.12-1.01,0-1.73.85-1.73,2.19,0,1.14.58,2.09,1.72,2.09.65,0,1.24-.41,1.46-1.08.06-.18.08-.38.08-.56v-1.04Z"/><path class="cls-19" d="m51.45,30.57c0,2.15-1.49,3.08-2.89,3.08-1.57,0-2.78-1.15-2.78-2.99,0-1.94,1.27-3.08,2.88-3.08s2.79,1.21,2.79,2.99Zm-4.61.06c0,1.27.73,2.23,1.76,2.23s1.76-.95,1.76-2.25c0-.98-.49-2.23-1.74-2.23s-1.79,1.15-1.79,2.25Z"/><path class="cls-19" d="m57.8,25v7.02c0,.52.01,1.1.05,1.5h-.95l-.05-1.01h-.02c-.32.65-1.03,1.14-1.98,1.14-1.4,0-2.48-1.19-2.48-2.95-.01-1.93,1.19-3.12,2.6-3.12.89,0,1.49.42,1.75.89h.02v-3.47h1.06Zm-1.06,5.07c0-.13-.01-.31-.05-.44-.16-.67-.73-1.22-1.52-1.22-1.09,0-1.74.96-1.74,2.24,0,1.18.58,2.15,1.72,2.15.71,0,1.35-.47,1.55-1.26.04-.14.05-.29.05-.46v-1.01Z"/><path class="cls-19" d="m59.66,33.52v-5h-.82v-.8h.82v-.31c0-1.54.9-2.53,2.53-2.53.54,0,1.18.17,1.48.38l-.3.8c-.25-.18-.71-.34-1.22-.34-1.12,0-1.44.78-1.44,1.7v.29h3.37v5.8h-1.04v-5h-2.33v5h-1.04Z"/><path class="cls-19" d="m65.69,32.44c.31.2.86.42,1.39.42.77,0,1.13-.38,1.13-.86,0-.5-.3-.78-1.08-1.07-1.04-.37-1.54-.95-1.54-1.64,0-.94.76-1.7,2-1.7.59,0,1.1.17,1.43.36l-.26.77c-.23-.14-.65-.34-1.19-.34-.62,0-.97.36-.97.79,0,.48.35.7,1.1.98,1.01.38,1.52.89,1.52,1.75,0,1.02-.79,1.74-2.17,1.74-.64,0-1.22-.16-1.63-.4l.26-.8Z"/><path class="cls-19" d="m71.63,30.38h.02c.14-.2.35-.46.52-.66l1.7-2h1.27l-2.24,2.39,2.55,3.42h-1.28l-2-2.78-.54.6v2.18h-1.04v-8.52h1.04v5.37Z"/><path class="cls-19" d="m81.33,34.42v.6h-6v-.6h6Z"/><path class="cls-19" d="m86.35,33.3c-.28.14-.89.34-1.67.34-1.75,0-2.89-1.19-2.89-2.96s1.22-3.08,3.12-3.08c.62,0,1.18.16,1.46.3l-.24.82c-.25-.14-.65-.28-1.22-.28-1.33,0-2.05.98-2.05,2.19,0,1.34.86,2.17,2.02,2.17.6,0,1-.16,1.3-.29l.18.79Z"/><path class="cls-19" d="m92.77,30.57c0,2.15-1.49,3.08-2.89,3.08-1.57,0-2.78-1.15-2.78-2.99,0-1.94,1.27-3.08,2.88-3.08s2.79,1.21,2.79,2.99Zm-4.61.06c0,1.27.73,2.23,1.76,2.23s1.76-.95,1.76-2.25c0-.98-.49-2.23-1.74-2.23s-1.79,1.15-1.79,2.25Z"/><path class="cls-19" d="m94.1,29.29c0-.6-.01-1.09-.05-1.57h.94l.06.96h.02c.29-.55.96-1.09,1.92-1.09.8,0,2.05.48,2.05,2.47v3.47h-1.06v-3.35c0-.94-.35-1.71-1.34-1.71-.7,0-1.24.49-1.42,1.08-.05.13-.07.31-.07.49v3.49h-1.06v-4.23Z"/><path class="cls-19" d="m101.99,26.05v1.67h1.51v.8h-1.51v3.13c0,.72.2,1.13.79,1.13.28,0,.48-.04.61-.07l.05.79c-.2.08-.53.14-.94.14-.49,0-.89-.16-1.14-.44-.3-.31-.41-.83-.41-1.51v-3.17h-.9v-.8h.9v-1.39l1.03-.28Z"/><path class="cls-19" d="m107.9,33.52l-.08-.73h-.04c-.32.46-.95.86-1.77.86-1.18,0-1.77-.83-1.77-1.67,0-1.4,1.25-2.17,3.49-2.16v-.12c0-.48-.13-1.34-1.32-1.34-.54,0-1.1.17-1.51.43l-.24-.7c.48-.31,1.18-.52,1.91-.52,1.77,0,2.21,1.21,2.21,2.37v2.17c0,.5.02,1,.1,1.39h-.96Zm-.16-2.96c-1.15-.02-2.46.18-2.46,1.31,0,.68.46,1.01,1,1.01.76,0,1.24-.48,1.4-.97.04-.11.06-.23.06-.34v-1.01Z"/><path class="cls-19" d="m111.65,26.08c.01.36-.25.65-.67.65-.37,0-.64-.29-.64-.65s.28-.66.66-.66.65.29.65.66Zm-1.18,7.44v-5.8h1.06v5.8h-1.06Z"/><path class="cls-19" d="m113.28,29.29c0-.6-.01-1.09-.05-1.57h.94l.06.96h.02c.29-.55.96-1.09,1.92-1.09.8,0,2.05.48,2.05,2.47v3.47h-1.06v-3.35c0-.94-.35-1.71-1.34-1.71-.7,0-1.24.49-1.42,1.08-.05.13-.07.31-.07.49v3.49h-1.06v-4.23Z"/><path class="cls-19" d="m120.53,30.81c.02,1.43.94,2.01,1.99,2.01.76,0,1.21-.13,1.61-.3l.18.76c-.37.17-1.01.36-1.93.36-1.79,0-2.85-1.18-2.85-2.93s1.03-3.13,2.72-3.13c1.9,0,2.4,1.67,2.4,2.73,0,.22-.02.38-.04.49h-4.08Zm3.09-.76c.01-.67-.28-1.71-1.46-1.71-1.07,0-1.54.98-1.62,1.71h3.08Z"/><path class="cls-19" d="m125.95,29.53c0-.68-.01-1.27-.05-1.81h.92l.04,1.14h.05c.26-.78.9-1.27,1.61-1.27.12,0,.2.01.3.04v1c-.11-.02-.22-.04-.36-.04-.74,0-1.27.56-1.42,1.36-.02.14-.05.31-.05.49v3.09h-1.04v-3.99Z"/></g><g><path class="cls-19" d="m54.43,65.08l.31-2.35h-.98v-.71h1.09l.23-1.74h-1.03v-.71h1.14l.31-2.29h.7l-.3,2.29h1.25l.31-2.29h.71l-.3,2.29h.98v.71h-1.09l-.22,1.74h1.03v.71h-1.14l-.31,2.35h-.72l.31-2.35h-1.25l-.31,2.35h-.72Zm2.39-3.06l.23-1.74h-1.25l-.23,1.74h1.25Z"/><path class="cls-19" d="m65.15,59.28c-.02.42-.05.89-.05,1.6v3.37c0,1.33-.26,2.15-.83,2.65-.56.53-1.38.7-2.11.7s-1.46-.17-1.93-.48l.26-.8c.38.24.98.46,1.7.46,1.08,0,1.87-.56,1.87-2.03v-.65h-.02c-.32.54-.95.97-1.85.97-1.44,0-2.47-1.22-2.47-2.83,0-1.97,1.28-3.08,2.61-3.08,1.01,0,1.56.53,1.81,1.01h.02l.05-.88h.92Zm-1.09,2.29c0-.18-.01-.34-.06-.48-.19-.61-.71-1.12-1.48-1.12-1.01,0-1.73.85-1.73,2.19,0,1.14.58,2.09,1.72,2.09.65,0,1.24-.41,1.46-1.08.06-.18.08-.38.08-.56v-1.04Z"/><path class="cls-19" d="m72.11,62.13c0,2.15-1.49,3.08-2.89,3.08-1.57,0-2.78-1.15-2.78-2.99,0-1.94,1.27-3.08,2.88-3.08s2.79,1.21,2.79,2.99Zm-4.61.06c0,1.27.73,2.23,1.76,2.23s1.76-.95,1.76-2.25c0-.98-.49-2.23-1.74-2.23s-1.79,1.15-1.79,2.25Z"/><path class="cls-19" d="m78.46,56.57v7.02c0,.52.01,1.1.05,1.5h-.95l-.05-1.01h-.02c-.32.65-1.03,1.14-1.98,1.14-1.4,0-2.48-1.19-2.48-2.95-.01-1.93,1.19-3.12,2.6-3.12.89,0,1.49.42,1.75.89h.02v-3.47h1.06Zm-1.06,5.07c0-.13-.01-.31-.05-.44-.16-.67-.73-1.22-1.52-1.22-1.09,0-1.74.96-1.74,2.24,0,1.18.58,2.15,1.72,2.15.71,0,1.35-.47,1.55-1.26.04-.14.05-.29.05-.46v-1.01Z"/><path class="cls-19" d="m80.32,65.08v-5h-.82v-.8h.82v-.31c0-1.54.9-2.53,2.53-2.53.54,0,1.18.17,1.48.38l-.3.8c-.25-.18-.71-.34-1.22-.34-1.12,0-1.44.78-1.44,1.7v.29h3.37v5.8h-1.04v-5h-2.33v5h-1.04Z"/><path class="cls-19" d="m86.35,64c.31.2.86.42,1.39.42.77,0,1.13-.38,1.13-.86,0-.5-.3-.78-1.08-1.07-1.04-.37-1.54-.95-1.54-1.64,0-.94.76-1.7,2-1.7.59,0,1.1.17,1.43.36l-.26.77c-.23-.14-.65-.34-1.19-.34-.62,0-.97.36-.97.79,0,.48.35.7,1.1.98,1.01.38,1.52.89,1.52,1.75,0,1.02-.79,1.74-2.17,1.74-.64,0-1.22-.16-1.63-.4l.26-.8Z"/><path class="cls-19" d="m92.29,61.94h.02c.14-.2.35-.46.52-.66l1.7-2h1.27l-2.24,2.39,2.55,3.42h-1.28l-2-2.78-.54.6v2.18h-1.04v-8.52h1.04v5.37Z"/><path class="cls-19" d="m101.99,65.98v.6h-6v-.6h6Z"/><path class="cls-19" d="m102.73,64c.31.2.86.42,1.39.42.77,0,1.13-.38,1.13-.86,0-.5-.3-.78-1.08-1.07-1.04-.37-1.54-.95-1.54-1.64,0-.94.76-1.7,2-1.7.59,0,1.1.17,1.43.36l-.26.77c-.23-.14-.65-.34-1.19-.34-.62,0-.97.36-.97.79,0,.48.35.7,1.1.98,1.01.38,1.52.89,1.52,1.75,0,1.02-.79,1.74-2.17,1.74-.64,0-1.22-.16-1.63-.4l.26-.8Z"/><path class="cls-19" d="m107.62,61.17c0-.74-.02-1.34-.05-1.9h.95l.05,1h.02c.43-.71,1.12-1.13,2.06-1.13,1.4,0,2.46,1.19,2.46,2.95,0,2.09-1.27,3.12-2.64,3.12-.77,0-1.44-.34-1.79-.91h-.02v3.15h-1.04v-6.28Zm1.04,1.55c0,.16.02.3.05.43.19.73.83,1.24,1.58,1.24,1.12,0,1.76-.91,1.76-2.24,0-1.16-.61-2.16-1.73-2.16-.72,0-1.39.52-1.6,1.31-.04.13-.07.29-.07.43v1Z"/><path class="cls-19" d="m114.45,61.09c0-.68-.01-1.27-.05-1.81h.92l.04,1.14h.05c.26-.78.9-1.27,1.61-1.27.12,0,.2.01.3.04v1c-.11-.02-.22-.04-.36-.04-.74,0-1.27.56-1.42,1.36-.02.14-.05.31-.05.49v3.09h-1.04v-3.99Z"/><path class="cls-19" d="m119.6,57.65c.01.36-.25.65-.67.65-.37,0-.64-.29-.64-.65s.28-.66.66-.66.65.29.65.66Zm-1.18,7.44v-5.8h1.06v5.8h-1.06Z"/><path class="cls-19" d="m122.5,57.61v1.67h1.51v.8h-1.51v3.13c0,.72.2,1.13.79,1.13.28,0,.48-.04.61-.07l.05.79c-.2.08-.53.14-.94.14-.49,0-.89-.16-1.14-.44-.3-.31-.41-.83-.41-1.51v-3.17h-.9v-.8h.9v-1.39l1.03-.28Z"/><path class="cls-19" d="m125.72,62.37c.02,1.43.94,2.01,1.99,2.01.76,0,1.21-.13,1.61-.3l.18.76c-.37.17-1.01.36-1.93.36-1.79,0-2.85-1.18-2.85-2.93s1.03-3.13,2.72-3.13c1.9,0,2.4,1.67,2.4,2.73,0,.22-.02.38-.04.49h-4.08Zm3.09-.76c.01-.67-.28-1.71-1.46-1.71-1.07,0-1.54.98-1.62,1.71h3.08Z"/></g><g><path class="cls-19" d="m284.75,31.1l.31-2.35h-.98v-.71h1.09l.23-1.74h-1.03v-.71h1.14l.31-2.29h.7l-.3,2.29h1.25l.31-2.29h.71l-.3,2.29h.98v.71h-1.09l-.22,1.74h1.03v.71h-1.14l-.31,2.35h-.72l.31-2.35h-1.25l-.31,2.35h-.72Zm2.39-3.06l.23-1.74h-1.25l-.23,1.74h1.25Z"/><path class="cls-19" d="m295.47,25.29c-.02.42-.05.89-.05,1.6v3.37c0,1.33-.26,2.15-.83,2.65-.56.53-1.38.7-2.11.7s-1.46-.17-1.93-.48l.26-.8c.38.24.98.46,1.7.46,1.08,0,1.87-.56,1.87-2.03v-.65h-.02c-.32.54-.95.97-1.85.97-1.44,0-2.47-1.22-2.47-2.83,0-1.97,1.28-3.08,2.61-3.08,1.01,0,1.56.53,1.81,1.01h.02l.05-.88h.92Zm-1.09,2.29c0-.18-.01-.34-.06-.48-.19-.61-.71-1.12-1.48-1.12-1.01,0-1.73.85-1.73,2.19,0,1.14.58,2.09,1.72,2.09.65,0,1.24-.41,1.46-1.08.06-.18.08-.38.08-.56v-1.04Z"/><path class="cls-19" d="m302.43,28.15c0,2.15-1.49,3.08-2.89,3.08-1.57,0-2.78-1.15-2.78-2.99,0-1.94,1.27-3.08,2.88-3.08s2.79,1.21,2.79,2.99Zm-4.61.06c0,1.27.73,2.23,1.76,2.23s1.76-.95,1.76-2.25c0-.98-.49-2.23-1.74-2.23s-1.79,1.15-1.79,2.25Z"/><path class="cls-19" d="m308.78,22.58v7.02c0,.52.01,1.1.05,1.5h-.95l-.05-1.01h-.02c-.32.65-1.03,1.14-1.98,1.14-1.4,0-2.48-1.19-2.48-2.95-.01-1.93,1.19-3.12,2.6-3.12.89,0,1.49.42,1.75.89h.02v-3.47h1.06Zm-1.06,5.07c0-.13-.01-.31-.05-.44-.16-.67-.73-1.22-1.52-1.22-1.09,0-1.74.96-1.74,2.24,0,1.18.58,2.15,1.72,2.15.71,0,1.35-.47,1.55-1.26.04-.14.05-.29.05-.46v-1.01Z"/><path class="cls-19" d="m310.64,31.1v-5h-.82v-.8h.82v-.31c0-1.54.9-2.53,2.53-2.53.54,0,1.18.17,1.48.38l-.3.8c-.25-.18-.71-.34-1.22-.34-1.12,0-1.44.78-1.44,1.7v.29h3.37v5.8h-1.04v-5h-2.33v5h-1.04Z"/><path class="cls-19" d="m316.67,30.02c.31.2.86.42,1.39.42.77,0,1.13-.38,1.13-.86,0-.5-.3-.78-1.08-1.07-1.04-.37-1.54-.95-1.54-1.64,0-.94.76-1.7,2-1.7.59,0,1.1.17,1.43.36l-.26.77c-.23-.14-.65-.34-1.19-.34-.62,0-.97.36-.97.79,0,.48.35.7,1.1.98,1.01.38,1.52.89,1.52,1.75,0,1.02-.79,1.74-2.17,1.74-.64,0-1.22-.16-1.63-.4l.26-.8Z"/><path class="cls-19" d="m322.61,27.96h.02c.14-.2.35-.46.52-.66l1.7-2h1.27l-2.24,2.39,2.55,3.42h-1.28l-2-2.78-.54.6v2.18h-1.04v-8.52h1.04v5.37Z"/><path class="cls-19" d="m332.31,32v.6h-6v-.6h6Z"/><path class="cls-19" d="m337.33,30.88c-.28.14-.89.34-1.67.34-1.75,0-2.89-1.19-2.89-2.96s1.22-3.08,3.12-3.08c.62,0,1.18.16,1.46.3l-.24.82c-.25-.14-.65-.28-1.22-.28-1.33,0-2.05.98-2.05,2.19,0,1.34.86,2.17,2.02,2.17.6,0,1-.16,1.3-.29l.18.79Z"/><path class="cls-19" d="m343.75,28.15c0,2.15-1.49,3.08-2.89,3.08-1.57,0-2.78-1.15-2.78-2.99,0-1.94,1.27-3.08,2.88-3.08s2.79,1.21,2.79,2.99Zm-4.61.06c0,1.27.73,2.23,1.76,2.23s1.76-.95,1.76-2.25c0-.98-.49-2.23-1.74-2.23s-1.79,1.15-1.79,2.25Z"/><path class="cls-19" d="m345.08,26.86c0-.6-.01-1.09-.05-1.57h.94l.06.96h.02c.29-.55.96-1.09,1.92-1.09.8,0,2.05.48,2.05,2.47v3.47h-1.06v-3.35c0-.94-.35-1.71-1.34-1.71-.7,0-1.24.49-1.42,1.08-.05.13-.07.31-.07.49v3.49h-1.06v-4.23Z"/><path class="cls-19" d="m352.97,23.63v1.67h1.51v.8h-1.51v3.13c0,.72.2,1.13.79,1.13.28,0,.48-.04.61-.07l.05.79c-.2.08-.53.14-.94.14-.49,0-.89-.16-1.14-.44-.3-.31-.41-.83-.41-1.51v-3.17h-.9v-.8h.9v-1.39l1.03-.28Z"/><path class="cls-19" d="m358.88,31.1l-.08-.73h-.04c-.32.46-.95.86-1.77.86-1.18,0-1.77-.83-1.77-1.67,0-1.4,1.25-2.17,3.49-2.16v-.12c0-.48-.13-1.34-1.32-1.34-.54,0-1.1.17-1.51.43l-.24-.7c.48-.31,1.18-.52,1.91-.52,1.77,0,2.21,1.21,2.21,2.37v2.17c0,.5.02,1,.1,1.39h-.96Zm-.16-2.96c-1.15-.02-2.46.18-2.46,1.31,0,.68.46,1.01,1,1.01.76,0,1.24-.48,1.4-.97.04-.11.06-.23.06-.34v-1.01Z"/><path class="cls-19" d="m362.63,23.66c.01.36-.25.65-.67.65-.37,0-.64-.29-.64-.65s.28-.66.66-.66.65.29.65.66Zm-1.18,7.44v-5.8h1.06v5.8h-1.06Z"/><path class="cls-19" d="m364.26,26.86c0-.6-.01-1.09-.05-1.57h.94l.06.96h.02c.29-.55.96-1.09,1.92-1.09.8,0,2.05.48,2.05,2.47v3.47h-1.06v-3.35c0-.94-.35-1.71-1.34-1.71-.7,0-1.24.49-1.42,1.08-.05.13-.07.31-.07.49v3.49h-1.06v-4.23Z"/><path class="cls-19" d="m371.51,28.39c.02,1.43.94,2.01,1.99,2.01.76,0,1.21-.13,1.61-.3l.18.76c-.37.17-1.01.36-1.93.36-1.79,0-2.85-1.18-2.85-2.93s1.03-3.13,2.72-3.13c1.9,0,2.4,1.67,2.4,2.73,0,.22-.02.38-.04.49h-4.08Zm3.09-.76c.01-.67-.28-1.71-1.46-1.71-1.07,0-1.54.98-1.62,1.71h3.08Z"/><path class="cls-19" d="m376.93,27.1c0-.68-.01-1.27-.05-1.81h.92l.04,1.14h.05c.26-.78.9-1.27,1.61-1.27.12,0,.2.01.3.04v1c-.11-.02-.22-.04-.36-.04-.74,0-1.27.56-1.42,1.36-.02.14-.05.31-.05.49v3.09h-1.04v-3.99Z"/></g><g><path class="cls-19" d="m309.44,65.08l.31-2.35h-.98v-.71h1.09l.23-1.74h-1.03v-.71h1.14l.31-2.29h.7l-.3,2.29h1.25l.31-2.29h.71l-.3,2.29h.98v.71h-1.09l-.22,1.74h1.03v.71h-1.14l-.31,2.35h-.72l.31-2.35h-1.25l-.31,2.35h-.72Zm2.39-3.06l.23-1.74h-1.25l-.23,1.74h1.25Z"/><path class="cls-19" d="m320.17,59.28c-.02.42-.05.89-.05,1.6v3.37c0,1.33-.26,2.15-.83,2.65-.56.53-1.38.7-2.11.7s-1.46-.17-1.93-.48l.26-.8c.38.24.98.46,1.7.46,1.08,0,1.87-.56,1.87-2.03v-.65h-.02c-.32.54-.95.97-1.85.97-1.44,0-2.47-1.22-2.47-2.83,0-1.97,1.28-3.08,2.61-3.08,1.01,0,1.56.53,1.81,1.01h.02l.05-.88h.92Zm-1.09,2.29c0-.18-.01-.34-.06-.48-.19-.61-.71-1.12-1.48-1.12-1.01,0-1.73.85-1.73,2.19,0,1.14.58,2.09,1.72,2.09.65,0,1.24-.41,1.46-1.08.06-.18.08-.38.08-.56v-1.04Z"/><path class="cls-19" d="m327.13,62.13c0,2.15-1.49,3.08-2.89,3.08-1.57,0-2.78-1.15-2.78-2.99,0-1.94,1.27-3.08,2.88-3.08s2.79,1.21,2.79,2.99Zm-4.61.06c0,1.27.73,2.23,1.76,2.23s1.76-.95,1.76-2.25c0-.98-.49-2.23-1.74-2.23s-1.79,1.15-1.79,2.25Z"/><path class="cls-19" d="m333.47,56.57v7.02c0,.52.01,1.1.05,1.5h-.95l-.05-1.01h-.02c-.32.65-1.03,1.14-1.98,1.14-1.4,0-2.48-1.19-2.48-2.95-.01-1.93,1.19-3.12,2.6-3.12.89,0,1.49.42,1.75.89h.02v-3.47h1.06Zm-1.06,5.07c0-.13-.01-.31-.05-.44-.16-.67-.73-1.22-1.52-1.22-1.09,0-1.74.96-1.74,2.24,0,1.18.58,2.15,1.72,2.15.71,0,1.35-.47,1.55-1.26.04-.14.05-.29.05-.46v-1.01Z"/><path class="cls-19" d="m335.34,65.08v-5h-.82v-.8h.82v-.31c0-1.54.9-2.53,2.53-2.53.54,0,1.18.17,1.48.38l-.3.8c-.25-.18-.71-.34-1.22-.34-1.12,0-1.44.78-1.44,1.7v.29h3.37v5.8h-1.04v-5h-2.33v5h-1.04Z"/><path class="cls-19" d="m341.36,64c.31.2.86.42,1.39.42.77,0,1.13-.38,1.13-.86,0-.5-.3-.78-1.08-1.07-1.04-.37-1.54-.95-1.54-1.64,0-.94.76-1.7,2-1.7.59,0,1.1.17,1.43.36l-.26.77c-.23-.14-.65-.34-1.19-.34-.62,0-.97.36-.97.79,0,.48.35.7,1.1.98,1.01.38,1.52.89,1.52,1.75,0,1.02-.79,1.74-2.17,1.74-.64,0-1.22-.16-1.63-.4l.26-.8Z"/><path class="cls-19" d="m347.3,61.94h.02c.14-.2.35-.46.52-.66l1.7-2h1.27l-2.24,2.39,2.55,3.42h-1.28l-2-2.78-.54.6v2.18h-1.04v-8.52h1.04v5.37Z"/><path class="cls-19" d="m357.01,65.98v.6h-6v-.6h6Z"/><path class="cls-19" d="m357.74,64c.31.2.86.42,1.39.42.77,0,1.13-.38,1.13-.86,0-.5-.3-.78-1.08-1.07-1.04-.37-1.54-.95-1.54-1.64,0-.94.76-1.7,2-1.7.59,0,1.1.17,1.43.36l-.26.77c-.23-.14-.65-.34-1.19-.34-.62,0-.97.36-.97.79,0,.48.35.7,1.1.98,1.01.38,1.52.89,1.52,1.75,0,1.02-.79,1.74-2.17,1.74-.64,0-1.22-.16-1.63-.4l.26-.8Z"/><path class="cls-19" d="m362.64,61.17c0-.74-.02-1.34-.05-1.9h.95l.05,1h.02c.43-.71,1.12-1.13,2.06-1.13,1.4,0,2.46,1.19,2.46,2.95,0,2.09-1.27,3.12-2.64,3.12-.77,0-1.44-.34-1.79-.91h-.02v3.15h-1.04v-6.28Zm1.04,1.55c0,.16.02.3.05.43.19.73.83,1.24,1.58,1.24,1.12,0,1.76-.91,1.76-2.24,0-1.16-.61-2.16-1.73-2.16-.72,0-1.39.52-1.6,1.31-.04.13-.07.29-.07.43v1Z"/><path class="cls-19" d="m369.46,61.09c0-.68-.01-1.27-.05-1.81h.92l.04,1.14h.05c.26-.78.9-1.27,1.61-1.27.12,0,.2.01.3.04v1c-.11-.02-.22-.04-.36-.04-.74,0-1.27.56-1.42,1.36-.02.14-.05.31-.05.49v3.09h-1.04v-3.99Z"/><path class="cls-19" d="m374.61,57.65c.01.36-.25.65-.67.65-.37,0-.64-.29-.64-.65s.28-.66.66-.66.65.29.65.66Zm-1.18,7.44v-5.8h1.06v5.8h-1.06Z"/><path class="cls-19" d="m377.52,57.61v1.67h1.51v.8h-1.51v3.13c0,.72.2,1.13.79,1.13.28,0,.48-.04.61-.07l.05.79c-.2.08-.53.14-.94.14-.49,0-.89-.16-1.14-.44-.3-.31-.41-.83-.41-1.51v-3.17h-.9v-.8h.9v-1.39l1.03-.28Z"/><path class="cls-19" d="m380.73,62.37c.02,1.43.94,2.01,1.99,2.01.76,0,1.21-.13,1.61-.3l.18.76c-.37.17-1.01.36-1.93.36-1.79,0-2.85-1.18-2.85-2.93s1.03-3.13,2.72-3.13c1.9,0,2.4,1.67,2.4,2.73,0,.22-.02.38-.04.49h-4.08Zm3.09-.76c.01-.67-.28-1.71-1.46-1.71-1.07,0-1.54.98-1.62,1.71h3.08Z"/></g><rect class="cls-2" x="53.31" y="80.79" width="143.99" height="161.62"/><rect class="cls-2" x="303.79" y="80.79" width="143.99" height="161.62"/><g><path class="cls-17" d="m63.07,232.07c-.02.35-.04.74-.04,1.33v2.8c0,1.11-.22,1.78-.68,2.2-.46.44-1.13.58-1.73.58s-1.2-.14-1.58-.4l.22-.67c.31.2.8.38,1.39.38.88,0,1.53-.47,1.53-1.68v-.54h-.02c-.26.45-.77.81-1.51.81-1.18,0-2.02-1.02-2.02-2.35,0-1.63,1.05-2.56,2.14-2.56.82,0,1.28.44,1.48.84h.02l.04-.73h.76Zm-.89,1.9c0-.15,0-.28-.05-.4-.16-.51-.58-.93-1.21-.93-.82,0-1.41.71-1.41,1.82,0,.95.47,1.73,1.4,1.73.53,0,1.01-.34,1.2-.9.05-.15.07-.32.07-.47v-.87Z"/><path class="cls-17" d="m68.76,234.44c0,1.78-1.22,2.56-2.36,2.56-1.29,0-2.28-.96-2.28-2.48,0-1.61,1.04-2.56,2.35-2.56s2.29,1.01,2.29,2.48Zm-3.77.05c0,1.06.6,1.85,1.44,1.85s1.44-.79,1.44-1.87c0-.82-.4-1.85-1.42-1.85s-1.46.96-1.46,1.87Z"/><path class="cls-17" d="m73.95,229.82v5.83c0,.43,0,.92.04,1.25h-.77l-.04-.84h-.02c-.26.54-.84.95-1.62.95-1.15,0-2.03-.99-2.03-2.45-.01-1.6.97-2.59,2.13-2.59.73,0,1.22.35,1.43.74h.02v-2.88h.86Zm-.86,4.21c0-.11,0-.26-.04-.37-.13-.56-.6-1.02-1.25-1.02-.89,0-1.42.8-1.42,1.86,0,.98.47,1.78,1.4,1.78.58,0,1.11-.39,1.27-1.05.03-.12.04-.24.04-.38v-.84Z"/><path class="cls-17" d="m75.47,236.9v-4.15h-.67v-.67h.67v-.26c0-1.28.74-2.1,2.07-2.1.44,0,.96.14,1.21.32l-.25.67c-.21-.15-.58-.28-1-.28-.91,0-1.18.65-1.18,1.42v.24h2.76v4.82h-.85v-4.15h-1.9v4.15h-.85Z"/><path class="cls-17" d="m80.39,236c.25.17.71.35,1.14.35.63,0,.92-.32.92-.72,0-.42-.25-.65-.88-.89-.85-.31-1.26-.79-1.26-1.36,0-.78.62-1.42,1.64-1.42.48,0,.9.14,1.17.3l-.22.64c-.19-.12-.53-.28-.97-.28-.51,0-.79.3-.79.66,0,.4.28.58.9.82.82.32,1.25.74,1.25,1.45,0,.85-.65,1.44-1.78,1.44-.52,0-1-.13-1.33-.33l.22-.67Z"/><path class="cls-17" d="m85.25,234.28h.02c.12-.17.28-.38.42-.55l1.39-1.66h1.04l-1.83,1.98,2.09,2.84h-1.05l-1.64-2.31-.44.5v1.81h-.85v-7.07h.85v4.46Z"/><path class="cls-17" d="m88.93,236.38c0-.37.25-.63.59-.63s.58.26.58.63-.23.63-.59.63c-.34,0-.58-.27-.58-.63Z"/><path class="cls-17" d="m91.04,236c.25.17.71.35,1.14.35.63,0,.92-.32.92-.72,0-.42-.25-.65-.88-.89-.85-.31-1.26-.79-1.26-1.36,0-.78.62-1.42,1.64-1.42.48,0,.9.14,1.17.3l-.22.64c-.19-.12-.53-.28-.97-.28-.51,0-.79.3-.79.66,0,.4.28.58.9.82.82.32,1.25.74,1.25,1.45,0,.85-.65,1.44-1.78,1.44-.52,0-1-.13-1.33-.33l.22-.67Z"/><path class="cls-17" d="m95.38,232.07l.93,2.71c.16.44.28.84.38,1.24h.03c.11-.4.25-.8.4-1.24l.92-2.71h.9l-1.86,4.82h-.82l-1.81-4.82h.92Z"/><path class="cls-17" d="m103.76,232.07c-.02.35-.04.74-.04,1.33v2.8c0,1.11-.22,1.78-.68,2.2-.46.44-1.13.58-1.73.58s-1.2-.14-1.58-.4l.22-.67c.31.2.8.38,1.39.38.88,0,1.53-.47,1.53-1.68v-.54h-.02c-.26.45-.77.81-1.51.81-1.18,0-2.02-1.02-2.02-2.35,0-1.63,1.05-2.56,2.14-2.56.82,0,1.28.44,1.48.84h.02l.04-.73h.76Zm-.89,1.9c0-.15,0-.28-.05-.4-.16-.51-.58-.93-1.21-.93-.82,0-1.41.71-1.41,1.82,0,.95.47,1.73,1.4,1.73.53,0,1.01-.34,1.2-.9.05-.15.07-.32.07-.47v-.87Z"/></g><g><path class="cls-17" d="m313.58,232.07c-.02.35-.04.74-.04,1.33v2.8c0,1.11-.22,1.78-.68,2.2-.46.44-1.13.58-1.73.58s-1.2-.14-1.58-.4l.22-.67c.31.2.8.38,1.39.38.88,0,1.53-.47,1.53-1.68v-.54h-.02c-.26.45-.77.81-1.51.81-1.18,0-2.02-1.02-2.02-2.35,0-1.63,1.05-2.56,2.14-2.56.82,0,1.28.44,1.48.84h.02l.04-.73h.76Zm-.89,1.9c0-.15,0-.28-.05-.4-.16-.51-.58-.93-1.21-.93-.82,0-1.41.71-1.41,1.82,0,.95.47,1.73,1.4,1.73.53,0,1.01-.34,1.2-.9.05-.15.07-.32.07-.47v-.87Z"/><path class="cls-17" d="m319.27,234.44c0,1.78-1.22,2.56-2.36,2.56-1.29,0-2.28-.96-2.28-2.48,0-1.61,1.04-2.56,2.35-2.56s2.29,1.01,2.29,2.48Zm-3.77.05c0,1.06.6,1.85,1.44,1.85s1.44-.79,1.44-1.87c0-.82-.4-1.85-1.42-1.85s-1.46.96-1.46,1.87Z"/><path class="cls-17" d="m324.46,229.82v5.83c0,.43,0,.92.04,1.25h-.77l-.04-.84h-.02c-.26.54-.84.95-1.62.95-1.15,0-2.03-.99-2.03-2.45-.01-1.6.97-2.59,2.13-2.59.73,0,1.22.35,1.43.74h.02v-2.88h.86Zm-.86,4.21c0-.11,0-.26-.04-.37-.13-.56-.6-1.02-1.25-1.02-.89,0-1.42.8-1.42,1.86,0,.98.47,1.78,1.4,1.78.58,0,1.11-.39,1.27-1.05.03-.12.04-.24.04-.38v-.84Z"/><path class="cls-17" d="m325.98,236.9v-4.15h-.67v-.67h.67v-.26c0-1.28.74-2.1,2.07-2.1.44,0,.96.14,1.21.32l-.25.67c-.21-.15-.58-.28-1-.28-.91,0-1.18.65-1.18,1.42v.24h2.76v4.82h-.85v-4.15h-1.9v4.15h-.85Z"/><path class="cls-17" d="m330.9,236c.25.17.71.35,1.14.35.63,0,.92-.32.92-.72,0-.42-.25-.65-.88-.89-.85-.31-1.26-.79-1.26-1.36,0-.78.62-1.42,1.64-1.42.48,0,.9.14,1.17.3l-.22.64c-.19-.12-.53-.28-.97-.28-.51,0-.79.3-.79.66,0,.4.28.58.9.82.82.32,1.25.74,1.25,1.45,0,.85-.65,1.44-1.78,1.44-.52,0-1-.13-1.33-.33l.22-.67Z"/><path class="cls-17" d="m335.76,234.28h.02c.12-.17.28-.38.42-.55l1.39-1.66h1.04l-1.83,1.98,2.09,2.84h-1.05l-1.64-2.31-.44.5v1.81h-.85v-7.07h.85v4.46Z"/><path class="cls-17" d="m339.43,236.38c0-.37.25-.63.59-.63s.58.26.58.63-.23.63-.59.63c-.34,0-.58-.27-.58-.63Z"/><path class="cls-17" d="m341.55,236c.25.17.71.35,1.14.35.63,0,.92-.32.92-.72,0-.42-.25-.65-.88-.89-.85-.31-1.26-.79-1.26-1.36,0-.78.62-1.42,1.64-1.42.48,0,.9.14,1.17.3l-.22.64c-.19-.12-.53-.28-.97-.28-.51,0-.79.3-.79.66,0,.4.28.58.9.82.82.32,1.25.74,1.25,1.45,0,.85-.65,1.44-1.78,1.44-.52,0-1-.13-1.33-.33l.22-.67Z"/><path class="cls-17" d="m345.89,232.07l.93,2.71c.16.44.28.84.38,1.24h.03c.11-.4.25-.8.4-1.24l.92-2.71h.9l-1.86,4.82h-.82l-1.81-4.82h.92Z"/><path class="cls-17" d="m354.27,232.07c-.02.35-.04.74-.04,1.33v2.8c0,1.11-.22,1.78-.68,2.2-.46.44-1.13.58-1.73.58s-1.2-.14-1.58-.4l.22-.67c.31.2.8.38,1.39.38.88,0,1.53-.47,1.53-1.68v-.54h-.02c-.26.45-.77.81-1.51.81-1.18,0-2.02-1.02-2.02-2.35,0-1.63,1.05-2.56,2.14-2.56.82,0,1.28.44,1.48.84h.02l.04-.73h.76Zm-.89,1.9c0-.15,0-.28-.05-.4-.16-.51-.58-.93-1.21-.93-.82,0-1.41.71-1.41,1.82,0,.95.47,1.73,1.4,1.73.53,0,1.01-.34,1.2-.9.05-.15.07-.32.07-.47v-.87Z"/></g></svg>