<?xml version="1.0" encoding="UTF-8"?><svg id="Layer_1" xmlns="http://www.w3.org/2000/svg" width="50" height="50" viewBox="0 0 50 50"><defs><style>.cls-1{fill:#d08229;}</style></defs><g><path class="cls-1" d="m36.37,15.85c2.86,1.45,5.51,3.73,6.35,6.94.39,1.48.35,3.03-.46,4.34-.74,1.21-1.93,2.09-3.25,2.59-1.67.64-3.5.72-5.27.77-.1,0-.17-.07-.18-.16-.21-1.21-.74-2.8-2.17-2.99-.72-.09-1.35.38-1.83.85s-.86,1.01-1.13,1.62-.48,1.31-.42,1.97c.07.75.63,1.24,1.27,1.57.85.43,2.54,1.15,3.32.3.28-.3.36-.72.43-1.11.06-.34.12-.69.06-1.03-.04-.29-.27-.78-.64-.78-.3,0-.27.4-.31.62s-.08.44-.12.66-.38.15-.34-.07c.05-.27.09-.53.14-.8.03-.18.03-.44.15-.59.17-.22.52-.19.75-.09.68.29.77,1.08.71,1.72-.08.75-.23,1.63-.96,2.01-.6.31-1.34.19-1.96,0-.76-.22-1.58-.51-2.17-1.06s-.76-1.31-.63-2.09c.13-.86.49-1.67.99-2.37.47-.65,1.16-1.35,1.96-1.59s1.63.1,2.19.7c.65.7.9,1.64,1.06,2.56l-.18-.16c2.84-.07,6.03-.32,7.91-2.71,1.9-2.41.76-5.8-1.04-7.97-1.18-1.42-2.73-2.48-4.36-3.3-.2-.1-.05-.41.15-.31h0Z"/><path class="cls-1" d="m39.23,16.74c1.05-.97,2.9-.47,3.69.63.37.52.56,1.2.43,1.83-.16.76-.73,1.33-1.32,1.79-.17.14-.36-.15-.19-.29.5-.4,1.01-.89,1.16-1.54.12-.54-.03-1.1-.33-1.55-.32-.48-.82-.81-1.38-.95s-1.34-.1-1.8.32c-.16.15-.42-.08-.26-.23h0Z"/><path class="cls-1" d="m28.93,28.33c-.89-.59-1.82-1.13-2.79-1.58-.82-.38-2-1.06-2.83-.4-.17.14-.36-.16-.19-.29.84-.66,1.93-.17,2.79.21,1.11.49,2.17,1.08,3.18,1.76.18.12.03.43-.15.31h0Z"/><path class="cls-1" d="m26.04,26.65c-.63.74-1.53,1.13-2.46,1.35-1,.24-2.06.39-3.09.43-1.92.07-3.94-.64-4.62-2.61s.15-3.93,1.25-5.5c1.2-1.72,2.86-3.13,4.76-4.03,1.73-.82,3.65-1.22,5.57-1.14.93.04,1.85.18,2.75.43.99.28,1.92.71,2.89,1.05.5.17,1.04.35,1.57.4.79.07.68-.93.67-1.45-.02-1.09-.08-2.24-.65-3.21-.62-1.06-1.67-1.38-2.81-1.6-.56-.11-1.13-.2-1.7-.13-.54.06-1.06.24-1.57.41-1.05.34-2.1.7-3.07,1.22-.45.24-.88.52-1.28.85-.44.37-.79.81-1.17,1.24-.59.67-1.37,1.09-2.27.79-.76-.25-1.25-.97-1.28-1.76-.02-.4.08-.8.29-1.14.11-.19.43-.03.31.16-.49.8-.27,1.96.65,2.36.48.21,1.02.17,1.46-.1s.75-.75,1.1-1.14c1.33-1.5,3.28-2.19,5.14-2.8.97-.32,1.87-.54,2.9-.38.94.14,1.98.32,2.76.92s1.17,1.5,1.35,2.4c.1.47.14.95.16,1.43s.06.97-.02,1.44c-.06.36-.23.72-.6.83-.39.12-.88-.04-1.26-.14-.96-.25-1.86-.66-2.79-1-1.79-.65-3.7-.87-5.57-.62-2.01.27-3.91,1.08-5.51,2.3s-3.16,3.04-3.74,5.05c-.27.94-.3,1.95.05,2.88.38,1,1.21,1.71,2.23,2.03s2.07.27,3.1.15,2.03-.26,2.95-.65c.49-.21.93-.51,1.28-.92.14-.17.4.06.26.23h0Z"/><path class="cls-1" d="m14.36,24.59c-3.56.69-7.01,2.51-8.85,5.72-.84,1.46-1.33,3.14-1.28,4.84,0,.33-.04,1.04.23,1.29.16.15.48.22.68.29.27.1.55.18.83.26.86.24,1.75.4,2.64.41,2.1.02,4.19-.8,5.44-2.52.07-.1.27-.06.29.06.47,2.15,1.66,4.05,3.16,5.65.7.76,1.59,1.86,2.74,1.44,1.09-.4,1.53-1.62,1.82-2.65.53-1.89.6-3.92.21-5.86-.19-.94-.49-1.87-.89-2.75-.1-.22-.21-.45-.33-.66-.07-.13-.13-.26-.25-.36-.15-.13-.31-.14-.5-.15-.46-.02-.91-.05-1.36-.17-2.02-.5-3.71-2.04-4.43-3.99-.08-.21.25-.31.33-.1.74,2.03,2.62,3.59,4.77,3.87.43.06.99-.05,1.36.22s.56.84.74,1.24c.43.94.74,1.93.93,2.95.38,2.04.28,4.17-.33,6.14-.31,1-.78,2.06-1.78,2.53s-1.83-.03-2.56-.73c-1.85-1.79-3.4-3.97-3.95-6.51l.29.06c-1.14,1.57-3.02,2.46-4.95,2.61-.95.07-1.92-.02-2.85-.23-.48-.11-.95-.25-1.41-.41-.36-.13-.88-.23-1.05-.62s-.16-.88-.17-1.29c-.01-.43,0-.87.06-1.3.11-.9.36-1.79.71-2.62.73-1.72,1.93-3.2,3.41-4.33,1.8-1.37,3.96-2.22,6.18-2.65.22-.04.33.29.11.33h0Z"/><path class="cls-1" d="m29.5,14.56c-.33-.68-.83-1.28-1.45-1.71-.08-.05-.12-.14-.08-.23.04-.07.15-.13.23-.08.68.46,1.23,1.09,1.59,1.83.04.08.04.18-.05.24-.07.04-.2.03-.24-.05h0Z"/><path class="cls-1" d="m31.32,14.74c-.28-.85-.76-1.63-1.41-2.26-.16-.16.07-.41.23-.26.69.67,1.21,1.5,1.51,2.41.07.21-.26.32-.33.1h0Z"/><path class="cls-1" d="m33.39,15.47c-.18-.5-.25-1.03-.44-1.53s-.46-.96-.78-1.38c-.14-.18.15-.36.29-.18.34.43.61.91.8,1.41s.27,1.06.45,1.58c.08.21-.25.31-.33.1h0Z"/><path class="cls-1" d="m14.23,27.47c-3.09.04-5.3,2.51-7.05,4.74-.14.17-.39-.06-.26-.23,1.81-2.31,4.1-4.81,7.29-4.86.22,0,.24.34.02.34h0Z"/><path class="cls-1" d="m14.15,28.85c-1.5,1.11-2.61,2.63-3.62,4.18-.12.18-.43.03-.31-.16,1.04-1.61,2.19-3.17,3.74-4.32.18-.13.37.16.19.29h0Z"/><path class="cls-1" d="m18.46,31.21c0,1.67-.26,3.33-.78,4.91-.07.21-.41.14-.34-.07.51-1.55.78-3.18.77-4.82,0-.22.34-.24.34-.02h0Z"/><path class="cls-1" d="m19.81,30.81c.79,2.74.84,5.65.15,8.4-.05.21-.39.14-.34-.07.67-2.69.63-5.54-.14-8.22-.06-.21.27-.32.33-.1h0Z"/><path class="cls-1" d="m21.9,18.69c-.08.03-.15.06-.22.1.06-.03-.03.01-.04.02-.04.02-.08.04-.12.06-.07.04-.13.08-.19.12,0,0-.06.05-.02.02.03-.03,0,0-.01,0-.03.03-.06.06-.09.1-.01.02-.03.03-.04.05-.01.01-.03.07-.01.02s-.02.03-.02.05c0,0-.02.04-.02.04,0-.02.01-.06,0-.02,0,0,0,.05,0,.05,0,0,0-.08,0,0,0,.03,0-.03,0-.03.02.05,0,0-.01-.02.04.07,0,0,0,0,0,0,.04.04.04.04,0,0-.07-.04,0,0,.02,0,.03.02.05.02,0,0,.02,0,.03.01.06.03,0-.01-.01,0,0,0,.16.03.17.03,0,0-.07,0-.04,0,.01,0,.03,0,.04,0,.03,0,.06,0,.1,0,.01,0,.03,0,.04,0,.05,0-.02,0-.02,0,0,0,.07-.02.07-.02.02,0,.05-.01.07-.02.01,0,.03-.01.04-.02.07-.02-.05.03-.01,0,.05-.03.09-.05.14-.08.02-.01.05-.04.07-.05,0,0-.06.06-.02.02.01-.01.03-.02.04-.04.02-.02.03-.04.05-.06,0-.01.02-.02.03-.03.04-.05-.01.02-.01.02,0-.02.03-.05.04-.07.01-.03.02-.05.04-.08.03-.06-.01.02,0,.02,0,0,.01-.05.02-.05,0-.03.02-.08.02-.11,0,.01,0,.07,0,.01,0-.02,0-.04,0-.06,0-.05.02.05,0,.01,0,0,0-.02,0-.02,0-.02,0-.02.01.03,0-.01-.03-.03-.03-.04,0,.01.05.05.01.02.07.05.04.03.02.02.05.01.06.02.03.01-.02,0-.01,0,.01,0,0,.02.03,0-.01,0s.07-.02.01,0c.07-.02.05-.02.02,0,.04-.03.07-.06.08-.12-.05.17-.21.32-.41.27-.17-.04-.33-.23-.27-.41.04-.15.11-.26.25-.34.12-.08.28-.1.43-.07.3.06.48.3.53.59.07.42-.16.82-.47,1.08-.29.24-.67.34-1.05.29-.2-.03-.42-.12-.57-.26-.22-.21-.24-.5-.15-.77.19-.51.75-.76,1.21-.95.17-.07.39.06.44.23.05.19-.04.36-.22.43h0Z"/><path class="cls-1" d="m23.01,20.54c-.15.16-.41-.07-.26-.23s.41.07.26.23h0Z"/><path class="cls-1" d="m20.96,21.18c-.29.33-.81-.13-.52-.46s.81.13.52.46h0Z"/><path class="cls-1" d="m40.3,17.75c.17-.13.38-.22.59-.26.05,0,.09-.01.13.01.04.02.08.06.09.1s.01.09,0,.13-.06.08-.1.09c-.11.02-.21.06-.31.1l.04-.02c-.08.04-.16.09-.24.14s-.19.02-.24-.05c-.05-.09-.03-.18.05-.24h0Z"/><path class="cls-1" d="m41.23,18.5l.49-.28c.08-.04.19-.03.24.05.05.08.03.19-.05.24l-.49.28c-.08.04-.19.03-.24-.05-.05-.08-.03-.19.05-.24h0Z"/><path class="cls-1" d="m31,29.51c-.33.61-.54,1.26-.65,1.94-.03.22-.37.15-.34-.07.11-.71.34-1.4.68-2.03.1-.19.41-.04.31.16h0Z"/></g><path class="cls-1" d="m21.9,19.4c-.46.51-1.31-.24-.85-.76s1.31.24.85.76h0Z"/></svg>