<?xml version="1.0" encoding="UTF-8"?><svg id="Layer_1" xmlns="http://www.w3.org/2000/svg" width="810" height="90" viewBox="0 0 810 90"><defs><style>.cls-1{fill:#d08229;}.cls-2{fill:#d18229;}.cls-3{fill:none;stroke:#d18229;stroke-miterlimit:10;}</style></defs><g><path class="cls-1" d="m348.67,45.99c4.64,7.75,9.57,16.01,9.78,25.3.03,1.17.18,2.6-.88,3.37-.9.65-1.98,1.23-3.01,1.64-2.17.86-4.55.74-6.82.49-4.43-.48-8.94-1.37-12.85-3.59-1.9-1.08-4.64-2.75-4.55-5.26.05-1.35.77-2.61,1.34-3.8s1.19-2.46,1.78-3.68c.21-.43-.45-.78-.66-.35-.57,1.19-1.15,2.37-1.72,3.56-.52,1.08-1.11,2.17-1.37,3.35-.48,2.2.7,3.89,2.36,5.19,3.83,3.01,8.66,4.36,13.41,5.04,2.36.34,4.85.68,7.22.3,1.11-.18,2.15-.53,3.15-1.04.91-.46,2.12-1,2.76-1.82s.59-2.06.58-3.07c0-1.2-.1-2.39-.27-3.58-.33-2.38-.93-4.71-1.72-6.97-1.93-5.5-4.93-10.52-7.91-15.5-.25-.41-.88-.01-.63.4h0Z"/><path class="cls-1" d="m349.27,45.67c-1-1.64-3.17-.14-4.29.54-1.82,1.12-3.49,2.46-5.02,3.94-.76.73-1.48,1.5-2.17,2.29-.35.4-.68.82-1.04,1.22-.19.21-.39.42-.62.58-.12.08-.29.21-.43.24-.3.06-.24.06-.16-.16.15-.47.6-.95.82-1.4.29-.56.55-1.14.8-1.72.48-1.09.95-2.18,1.39-3.28,1-2.5,1.79-5.06,2.02-7.75.04-.48-.71-.44-.75.04-.21,2.6-1.02,5.09-1.98,7.49-.46,1.14-.95,2.27-1.45,3.4-.22.5-.44.99-.69,1.47-.28.54-.75,1.07-.96,1.63s.14,1.04.73,1.06c.81.03,1.5-.71,1.98-1.27,1.42-1.66,2.87-3.27,4.54-4.69.97-.82,1.99-1.58,3.06-2.26.75-.47,2.88-2.12,3.58-.97.25.41.88,0,.63-.4h0Z"/><path class="cls-1" d="m340.54,40.37c.42-2.33.54-4.71.32-7.07s-.99-4.7-1.44-7.09c-.07-.36-.68-.32-.72.03-.32,2.8-.93,5.56-1.28,8.35-.18,1.39-.69,2.77-1.1,4.11-.45,1.48-.94,2.94-1.53,4.37-.18.44.48.79.66.35.56-1.36,1.04-2.74,1.48-4.14s.96-2.82,1.19-4.26c.1-.61.1-1.24.2-1.85.11-.7.28-1.4.42-2.1.29-1.54.53-3.1.71-4.66l-.72.03c.43,2.32,1.18,4.53,1.4,6.9.21,2.3.1,4.6-.3,6.87-.08.47.64.64.73.16h0Z"/><path class="cls-1" d="m334.81,43.1c-.88,1.27-1.66,2.61-2.33,4-.35.73-.67,1.47-.96,2.22-.26.68-.56,1.39-.69,2.12-.23,1.33.41,2.32,1.71,2.67.49.13,1.06.1,1.42-.3.31-.34.37-.81.13-1.2s-.88-.01-.63.4c.17.28-.24.43-.44.43-.28,0-.59-.13-.83-.26-.47-.25-.68-.65-.68-1.18,0-.57.23-1.15.42-1.68s.38-1.01.58-1.5c.8-1.89,1.79-3.69,2.95-5.38.27-.4-.39-.74-.66-.35h0Z"/><path class="cls-1" d="m331.09,51.17c-1.16-.58-2.11-1.5-3.3-2.02-1.1-.48-2.32-1.02-2.9-2.16-.28-.56-.37-1.23-.1-1.82s.71-1.08,1.06-1.6c.79-1.16,1.52-2.37,2.19-3.6.23-.42-.43-.77-.66-.35-.75,1.38-1.57,2.73-2.47,4.02-.38.55-.83,1.08-.98,1.75-.12.59-.02,1.22.22,1.76.51,1.16,1.61,1.89,2.72,2.4.74.34,1.4.66,2.06,1.14.58.43,1.17.81,1.81,1.13.43.21.78-.45.35-.66h0Z"/><path class="cls-1" d="m328.07,39.98c1.61-3.4,2.9-7.02,2.76-10.84l-.75.04c.23,1.81.71,3.57,1.01,5.37.15.89.24,1.78.23,2.68s-.19,1.82-.18,2.75c.03,1.88-.47,3.92-.99,5.72-.16.55-.34,1.11-.58,1.63-.26.56-.53.93-1.22.78-.88-.19-1.76-1.11-2.32-1.76-.31-.36-.82.19-.51.55.9,1.05,3.06,3,4.31,1.45.57-.71.84-1.76,1.08-2.62.33-1.18.55-2.38.77-3.58.19-1.06.13-2.08.22-3.14s.2-2.12.1-3.22c-.21-2.25-.9-4.41-1.18-6.65-.06-.47-.76-.45-.75.04.14,3.68-1.12,7.17-2.67,10.45-.21.43.45.78.66.35h0Z"/><path class="cls-1" d="m309.97,73.09c6.5-.58,12.83-3.28,17.53-7.85,1.19-1.15,2.26-2.43,3.18-3.8.78-1.16,1.97-2.74,1.38-4.2-.54-1.36-2.08-2.2-3.25-2.96-.74-.48-1.45-.98-2.08-1.6-.59-.57-1.13-1.19-1.78-1.69-.73-.57-1.54-.84-2.39-1.17-.98-.37-1.72-.99-2.42-1.76-1.23-1.35-2.38-2.93-4.31-3.2-.47-.07-.64.66-.16.73,1.7.24,2.74,1.64,3.8,2.84.45.5.92.99,1.47,1.38.65.46,1.37.69,2.1.97,1.53.58,2.44,1.82,3.64,2.86,1.13.98,2.5,1.62,3.64,2.59.66.56,1.32,1.27,1.12,2.2-.18.82-.76,1.63-1.21,2.33-.84,1.3-1.83,2.5-2.92,3.6-2.13,2.16-4.67,3.91-7.4,5.23-3.13,1.51-6.52,2.42-9.98,2.73-.48.04-.44.79.04.75h0Z"/><path class="cls-1" d="m315.81,44.86c-.7-.48-1.3.19-1.72.7-.62.76-1.18,1.56-1.75,2.35-1.05,1.45-2.17,2.91-3.68,3.91-.38.25-.77.47-1.19.65-.18.08-.37.15-.56.21-.1.03-.27.1-.37.09-.46-.07.02-.13.1-.14.92-.04,1.81.31,2.73.36,1.76.1,3.55-.57,5.15-1.25.87-.37,1.71-.81,2.43-1.42.66-.56,1.34-1.27,1.29-2.2-.03-.48-.77-.44-.75.04.05.95-1.12,1.74-1.83,2.17-.78.48-1.63.82-2.49,1.13-.97.35-1.96.69-3,.77s-1.93-.22-2.92-.33c-.55-.06-1.57-.13-1.73.6-.17.77.71,1.09,1.31.96,1.66-.35,3.13-1.56,4.25-2.77.75-.81,1.4-1.71,2.05-2.6.28-.38,1.85-2.92,2.34-2.58.39.27.74-.39.35-.66h0Z"/><path class="cls-1" d="m310.41,72.75c1.83-.57,3.39-2.11,4.89-3.23,1.75-1.3,3.49-2.61,5.24-3.91.73-.55,1.5-1.08,2.15-1.73.7-.71,1.26-1.54,1.85-2.34,1.31-1.79,2.62-3.58,3.93-5.37.28-.38-.26-.89-.55-.51-1.25,1.71-2.51,3.43-3.76,5.14-.55.75-1.07,1.52-1.68,2.21-.68.77-1.52,1.36-2.34,1.97-1.67,1.25-3.34,2.49-5.01,3.74-.85.64-1.71,1.27-2.56,1.91-.75.56-1.49,1.13-2.39,1.41-.46.14-.23.85.23.71h0Z"/><path class="cls-1" d="m333.57,60.47c1.24-3.04-1.68-5.28-3.74-6.95-1.24-1-2.12-2.41-3.42-3.31-1.37-.95-3.01-1.39-4.32-2.47-1.21-1-2.24-2.19-3.59-3.04s-2.97-1.42-4.53-1.9c-.86-.26-1.82-.5-1.52-1.61.1-.39.29-.81.6-1.08.49-.43,1.11-.24,1.67-.01,1.57.63,2.86,1.89,4.24,2.83,1.06.73,2.45,1.11,3.28-.14.95-1.43,1.13-3.53,1.08-5.2-.01-.48-.76-.44-.75.04.02.88-.04,1.75-.22,2.61-.16.75-.37,2-1.04,2.49-.75.53-1.74-.27-2.33-.69-.7-.5-1.38-1.02-2.08-1.52-.98-.7-2.39-1.67-3.67-1.38-1.04.24-1.72,1.78-1.57,2.78.21,1.34,1.86,1.51,2.91,1.85,1.58.52,3.15,1.17,4.47,2.21,1.22.97,2.23,2.2,3.56,3.04,1.44.91,3.11,1.33,4.31,2.6.59.62,1.1,1.29,1.74,1.86.67.6,1.41,1.13,2.1,1.71,1.39,1.15,2.96,2.99,2.17,4.92-.18.44.48.79.66.35h0Z"/><path class="cls-1" d="m323.35,37.75c-.08-2.98-1.55-5.62-3.06-8.1-.22-.36-.81-.09-.67.31.69,2.02.35,4.16-.42,6.11-.2.51-.43,1-.67,1.49s-.49,1.1-.97,1.42c-.67.44-1.27-.07-1.35-.78-.06-.53.07-1.09.12-1.61.4-3.94-.09-7.93-1.38-11.67-.16-.45-.87-.23-.71.23.83,2.4,1.33,4.89,1.46,7.43.07,1.32.04,2.65-.1,3.97-.1.94-.36,2.04.31,2.83.59.69,1.54.65,2.21.11.85-.68,1.3-1.98,1.7-2.96.88-2.16,1.3-4.54.52-6.8l-.67.31c1.44,2.37,2.86,4.89,2.94,7.74.01.48.76.44.75-.04h0Z"/><path class="cls-1" d="m314.92,24.96c-.54-1.96-1.09-3.91-1.7-5.85-.55-1.73-1.1-3.52-2.02-5.1-.45-.77-1.03-1.43-1.51-2.18-.6-.92-.81-1.74-.66-2.82.21-1.63-.53-3.07-1.31-4.45-.24-.42-.86-.02-.63.4.42.74.84,1.5,1.08,2.32.26.92-.01,1.72.03,2.64.09,1.69,1.4,2.9,2.24,4.26.97,1.57,1.51,3.4,2.07,5.15.61,1.94,1.16,3.89,1.7,5.85.13.46.84.23.71-.23h0Z"/><path class="cls-1" d="m308.66,13.18c-.76,2.52-1.41,5.19-1.58,7.82-.04.64.11,1.52.89,1.58.84.07,1.19-.82,1.06-1.51-.1-.52-.37-1.02-.56-1.52-.21-.56-.4-1.13-.59-1.71-.36-1.15-.68-2.31-.99-3.48-.63-2.31-1.3-4.61-2.32-6.79-.09-.18-.36-.21-.52-.11-.96.63-1.52,1.79-2.07,2.77-.62,1.12-1.16,2.27-1.61,3.47-.89,2.36-1.43,4.87-1.42,7.4,0,2.16.4,4.34,1.21,6.35.4.98.89,1.93,1.48,2.8.27.41.57.8.88,1.17.39.46,1.1.98,1.2,1.6l.35-.39c-1.18.03-2.35.05-3.53.08-.48.01-.44.76.04.75,1.18-.03,2.35-.05,3.53-.08.19,0,.38-.2.35-.39-.14-.94-.96-1.51-1.52-2.22-.62-.77-1.15-1.61-1.6-2.49-.98-1.95-1.51-4.12-1.63-6.3-.13-2.41.27-4.83,1.03-7.12.4-1.22.92-2.41,1.51-3.55.55-1.06,1.17-2.54,2.2-3.21l-.52-.11c1.57,3.33,2.22,6.98,3.36,10.46.26.81.6,1.59.88,2.39.03.08.42,1.25-.32.8-.11-.07-.04-.57-.03-.67.04-.5.12-1,.19-1.49.3-2.08.77-4.12,1.37-6.13.14-.46-.59-.62-.73-.16h0Z"/><path class="cls-1" d="m300.41,32.79c-3.73,1.07-7.02,3.2-9.83,5.85-1.44,1.36-2.76,2.86-3.96,4.44-.81,1.06-2.82,3.19-1.67,4.56.63.74,1.57,1.34,2.37,1.89.85.58,1.76,1.08,2.76,1.36,1.07.3,2.19.32,3.29.35,1.18.03,2.36.06,3.53-.01,4.29-.26,8.52-2.04,12.27-4.06.89-.48,1.75-1.06,2.34-1.9.24-.34.55-.83.49-1.27s-.43-.68-.68-1c-1.61-2.13-.05-5.03,2.53-5.12.48-.02.44-.76-.04-.75-1.52.05-2.98.94-3.6,2.37s-.2,2.91.67,4.15c1.22,1.73-3.21,3.44-4.28,3.94-1.85.86-3.73,1.65-5.7,2.2-2.07.58-4.17.76-6.31.74-2.27-.03-4.4-.06-6.39-1.3-.86-.53-1.74-1.17-2.49-1.87-.49-.46-.39-.89-.1-1.47s.67-1.12,1.05-1.65c1.06-1.44,2.21-2.82,3.45-4.1,2.93-3.01,6.44-5.46,10.5-6.63.46-.13.23-.84-.23-.71h0Z"/><path class="cls-1" d="m311.36,34.33c-.09-2.96-.21-5.98-1.34-8.76-.18-.44-.89-.22-.71.23,1.1,2.72,1.21,5.67,1.3,8.57.02.48.76.44.75-.04h0Z"/><path class="cls-1" d="m308.81,32.31c-.94-.81-1.57-2.03-2.19-3.09-.67-1.15-1.28-2.33-1.77-3.56-1.03-2.6-1.29-5.29-1.46-8.06-.03-.48-.77-.44-.75.04.17,2.91.46,5.74,1.58,8.46.5,1.22,1.1,2.39,1.77,3.52s1.32,2.38,2.32,3.24c.36.31.87-.23.51-.55h0Z"/><path class="cls-1" d="m307.2,39.48c-.71.66-1.65.97-2.56,1.22-1.12.31-2.25.58-3.38.86-.47.12-.24.83.23.71,1.18-.3,2.38-.58,3.55-.91.99-.28,1.95-.67,2.71-1.37.35-.33-.2-.83-.55-.51h0Z"/><path class="cls-1" d="m308.89,41.56c-1.09,1.02-2.51,1.7-3.85,2.3-1.27.57-2.59,1.03-3.93,1.41-2.75.79-5.59,1.23-8.43,1.53-.48.05-.44.8.04.75,2.99-.32,5.98-.78,8.87-1.64,2.7-.79,5.77-1.9,7.86-3.85.35-.33-.2-.83-.55-.51h0Z"/><path class="cls-1" d="m323.78,52.87c1.58,1.25-.77,2.98-1.7,3.69-1.23.93-2.51,1.79-3.83,2.58s-2.72,1.51-4.14,2.14c-1.5.67-3.09,1.28-4.76,1.08l.03.72c2.77-.68,4.8-2.78,6.47-4.97.99-1.3,1.93-2.64,2.87-3.98.55-.79,1.11-1.59,1.65-2.39.41-.61.81-1.2.69-1.96-.07-.47-.82-.44-.75.04.12.81-.59,1.55-1.02,2.17-.46.68-.93,1.35-1.41,2.03-.89,1.27-1.78,2.54-2.73,3.77-1.58,2.03-3.44,3.96-6.02,4.59-.35.09-.33.67.03.72,1.87.23,3.6-.4,5.27-1.15s3.46-1.69,5.09-2.72c1.54-.97,3.21-2.01,4.49-3.32.94-.95,1.47-2.61.24-3.58-.38-.3-.88.25-.51.55h0Z"/><path class="cls-1" d="m321.13,49.73l-.2-.62c-.03-.09-.1-.17-.18-.22-.05-.03-.09-.04-.14-.04-.05,0-.1,0-.15.01-.09.03-.17.09-.22.18s-.06.19-.03.29l.2.62c.03.09.1.17.18.22.05.03.09.04.14.04.05,0,.1,0,.15-.01.09-.03.17-.09.22-.18s.06-.19.03-.29h0Z"/><path class="cls-1" d="m346.52,56.84c1.88.42,2.52-2.5.65-2.91s-2.52,2.5-.65,2.91h0Z"/><path class="cls-1" d="m343.44,55.54c.08-.27.1-.55.12-.83.01-.15,0-.31-.02-.46,0-.2-.05-.38-.15-.55-.07-.18-.18-.34-.33-.47-.14-.14-.31-.24-.5-.29-.18-.09-.38-.12-.59-.1l-.38.07c-.25.08-.46.22-.64.41l-.22.32c-.13.24-.18.5-.17.77.03.16.03.32.02.48l.03-.4c-.01.14-.04.28-.08.41-.05.2-.05.4,0,.59.02.19.08.37.2.54.1.17.23.31.4.41.15.13.33.21.53.25l.4.03c.26-.01.5-.09.73-.23l.29-.24c.18-.2.3-.43.36-.69h0Z"/><path class="cls-1" d="m344.49,52.37c.63.34,1.36.4,2.06.34.33-.03.67-.06.97-.18.52-.2.94-.52,1.22-1.01.08-.14.13-.31.18-.47.01-.04.02-.08.03-.13.02-.16.05-.34.03-.5-.05-.39-.18-.82-.5-1.07-.27-.21-.56-.41-.86-.58-.1-.06-.2-.11-.31-.15-.22-.09-.45-.18-.68-.23-.45-.1-.83-.06-1.27.03-.3.06-.61.2-.85.4-.3.24-.47.41-.67.74-.03.04-.05.08-.06.13-.07.16-.14.33-.17.5-.08.38,0,.8.2,1.13.2.31.57.59.94.66s.8.03,1.13-.2.57-.54.66-.94c0-.04.02-.08.03-.12l-.14.38c.02-.06.05-.11.09-.16l-.22.32c.04-.05.08-.1.13-.14l-.29.24c.07-.06.14-.1.22-.14l-.35.16c.09-.04.19-.07.29-.09l-.38.07c.11-.02.22-.03.33-.02l-.4-.03c.14.02.27.05.4.1l-.38-.14c.31.12.59.3.85.49l-.32-.22s.05.03.07.05l-.41-.64v.03c-.02-.13-.04-.25-.06-.38,0,.03,0,.07,0,.1l.03-.4s-.01.09-.03.13l.14-.38s-.04.08-.06.12l.22-.32s-.07.09-.12.13l.29-.24s-.1.07-.15.1l.35-.16c-.11.05-.21.08-.33.1l.38-.07c-.33.05-.68.08-1.01.05l.4.03c-.14-.01-.28-.04-.42-.09l.38.14c-.07-.03-.13-.06-.19-.09-.34-.18-.79-.22-1.16-.1-.34.11-.71.39-.86.72-.17.35-.24.78-.1,1.16s.37.67.72.86h0Z"/></g><g><path class="cls-1" d="m254.89,37.08l-.38-1.68c-.08-.36-.12-.86-.31-1.18-.4-.67-1.53-.14-2.06-.03s-1.77.1-1.86.94c-.04.41.11.87.17,1.26.1.58.2,1.17.3,1.75l.26-.5c-1.13.29-2.2.75-3.22,1.37-.16.1-.19.28-.17.46.13,1.11.37,2.18.72,3.23.05.15.19.32.35.3,1.15-.14,2.28-.37,3.4-.71l-.41-.19,1.1,2.61c.06.15.27.25.41.19.99-.42,2-.79,3.02-1.11.16-.05.27-.21.27-.39.02-1.06-.14-2.1-.49-3.09l-.17.46,1.54-.79c.37-.19.92-.35,1.18-.72s.09-.79-.02-1.18c-.17-.61-.34-1.23-.52-1.84-.06-.21-.26-.35-.45-.29-.99.34-1.97.68-2.96,1.01-.45.15-.26.94.19.79.99-.34,1.97-.68,2.96-1.01l-.45-.29c.12.44.25.89.37,1.33.07.24.14.48.2.72s.1.21-.06.35c-.29.25-.75.39-1.09.56l-1.27.65c-.13.07-.22.31-.17.46.33.93.48,1.87.47,2.87l.27-.39c-1.02.31-2.03.68-3.02,1.11l.41.19-1.1-2.61c-.07-.16-.27-.23-.41-.19-1.05.32-2.12.55-3.21.68l.35.3c-.35-1.05-.59-2.12-.72-3.23l-.17.46c.96-.59,1.98-1.01,3.04-1.28.2-.05.29-.29.26-.5-.12-.73-.25-1.46-.37-2.18-.01-.08-.11-.37-.07-.44.04-.07.13-.07.22-.09.33-.08.67-.14,1-.21.3-.06.6-.13.9-.19.45-.1.46-.12.57.39l.48,2.1c.12.51.82.29.71-.22h0Z"/><path class="cls-1" d="m235.27,44.82c.42-.49,1-.94,1.64-.92s1.04.69,1.18,1.32c.17.78-.45,1.32-1.01,1.62s-1.28.39-1.83,0-.61-1.19-.13-1.67c.35-.36-.17-.93-.52-.58-.66.67-.72,1.83-.13,2.58s1.66.9,2.49.61,1.82-1.06,1.89-2.15c.03-.52-.15-1.07-.4-1.5s-.59-.77-1.03-.94c-.97-.37-2.01.3-2.67,1.06-.33.38.19.96.52.58h0Z"/><path class="cls-1" d="m229.49,42.44c.42-.49,1-.94,1.64-.92s1.04.69,1.18,1.32c.17.78-.45,1.32-1.01,1.62s-1.28.39-1.83,0-.61-1.19-.13-1.67c.35-.36-.17-.93-.52-.58-.66.67-.72,1.83-.13,2.58s1.66.9,2.49.61,1.82-1.06,1.89-2.15c.03-.52-.15-1.07-.4-1.5s-.59-.77-1.03-.94c-.97-.37-2.01.3-2.67,1.06-.33.38.19.96.52.58h0Z"/><path class="cls-1" d="m232.06,50.73c.42-.49,1-.94,1.64-.92s1.04.69,1.18,1.32c.17.78-.45,1.32-1.01,1.62s-1.28.39-1.83,0-.61-1.19-.13-1.67c.35-.36-.17-.93-.52-.58-.66.67-.72,1.83-.13,2.58s1.66.9,2.49.61,1.82-1.06,1.89-2.15c.03-.52-.15-1.07-.4-1.5s-.59-.77-1.03-.94c-.97-.37-2.01.3-2.67,1.06-.33.38.19.96.52.58h0Z"/><path class="cls-1" d="m225.77,48.47c.42-.49,1-.94,1.64-.92s1.04.69,1.18,1.32c.17.78-.45,1.32-1.01,1.62s-1.28.39-1.83,0-.61-1.19-.13-1.67c.35-.36-.17-.93-.52-.58-.66.67-.72,1.83-.13,2.58s1.66.9,2.49.61,1.82-1.06,1.89-2.15c.03-.52-.15-1.07-.4-1.5s-.59-.77-1.03-.94c-.97-.37-2.01.3-2.67,1.06-.33.38.19.96.52.58h0Z"/><path class="cls-1" d="m243.53,34.78c.61-1.51,0-3.2,1.09-4.52s2.91-1.9,4.46-2.41c2.88-.95,6.59-1.55,8.98,1.01.34.37.86-.21.52-.58-2.51-2.7-6.34-2.29-9.43-1.31-1.62.52-3.42,1.07-4.71,2.34-.55.54-1.01,1.24-1.19,2.04-.23.99.04,2.06-.35,3.01-.19.48.44.89.63.41h0Z"/><path class="cls-1" d="m243.01,34.46c-1.2.83-2.54,1.22-3.92,1.49s-2.89.68-4.22.11c-1.19-.51-2.13-1.21-3.44-1.26-1.21-.05-2.42.3-3.53.8-2.22,1-4.24,2.44-5.19,4.98-1.04,2.79-1.6,5.95-2.04,8.92-.84,5.68-.9,11.88,1.15,17.27.89,2.33,2.44,4.38,4.78,4.84,2.13.42,3.98-.71,5.17-2.63,2.92-4.67,2.89-11.72,7.61-14.87,2.44-1.63,5.17-2.89,7.89-3.83,1.44-.5,2.86-.75,4.35-.33,1.35.38,2.61,1.13,3.86,1.79,2.55,1.35,5.08,2.85,7.72,3.99,1.95.85,4.93,1.67,6.65-.15s1.86-4.56,1.39-6.91c-.52-2.63-1.77-5.11-3.05-7.37s-2.82-4.42-4.52-6.35-3.61-3.87-5.71-5.25c-2.3-1.51-4.91-1.51-7.44-.83-1.76.47-4.28,1.37-4.81,3.58-.24,1,.7,3.2-.57,3.52-.46.12-.27.9.19.79.74-.18,1.19-.93,1.23-1.75.03-.61-.19-1.2-.2-1.81,0-.65.28-1.2.68-1.65.77-.86,1.87-1.34,2.9-1.66,1.29-.41,2.63-.69,3.97-.65,2.7.07,4.79,1.86,6.77,3.73,1.78,1.68,3.42,3.55,4.87,5.59,1.46,2.05,2.73,4.29,3.77,6.64s1.87,5,1.2,7.54c-.37,1.42-1.18,2.73-2.55,3.01-1.28.26-2.64-.05-3.86-.5-2.53-.94-4.94-2.45-7.35-3.72-2.13-1.12-4.38-2.65-6.81-2.61s-5,1.34-7.22,2.43-4.53,2.18-6.04,4.23-2.2,4.61-3.06,6.98-1.52,5.09-3.13,6.92c-1.78,2.02-4.6,1.76-6.36-.17s-2.39-4.86-2.82-7.42c-.48-2.86-.53-5.79-.32-8.68s.75-5.91,1.43-8.79c.33-1.36.63-2.8,1.2-4.07s1.55-2.22,2.68-2.95c2.1-1.36,4.75-2.45,7.09-1.21,1.06.56,1.97,1.04,3.18.98s2.42-.32,3.58-.6,2.23-.7,3.22-1.38c.4-.28.03-.98-.37-.7h0Z"/><path class="cls-1" d="m258.38,29.1c1.97.95,3.94,2.95,6.22,1.87.97-.46,1.47-1.34,1.63-2.47.09-.62.1-1.29.41-1.84s.87-.86,1.44-.89c.47-.03.47-.84,0-.82-.94.05-1.82.62-2.21,1.59s-.14,2.39-.92,3.22c-.82.87-2.06.81-3.05.42-1.11-.44-2.07-1.27-3.15-1.79-.43-.21-.8.5-.37.7h0Z"/></g><g><g><path class="cls-1" d="m90.37,18.8c5.7,2.88,10.95,7.42,12.63,13.8.77,2.94.7,6.03-.92,8.64-1.48,2.4-3.85,4.15-6.47,5.15-3.32,1.28-6.95,1.44-10.49,1.53-.2,0-.33-.14-.36-.33-.42-2.4-1.47-5.58-4.32-5.95-1.42-.19-2.68.75-3.64,1.68s-1.7,2.02-2.25,3.22c-.53,1.18-.96,2.6-.83,3.92.14,1.49,1.26,2.47,2.53,3.11,1.69.86,5.04,2.29,6.61.6.55-.59.72-1.44.85-2.21.11-.67.23-1.37.13-2.05-.09-.59-.54-1.55-1.28-1.55-.6,0-.54.79-.61,1.22s-.16.88-.23,1.32-.75.29-.67-.14c.09-.53.19-1.06.28-1.59.06-.36.06-.88.29-1.18.33-.43,1.04-.38,1.5-.18,1.36.59,1.54,2.14,1.4,3.42-.16,1.49-.47,3.25-1.92,4-1.19.62-2.66.37-3.91,0-1.51-.44-3.14-1.02-4.32-2.11s-1.51-2.6-1.26-4.16c.26-1.7.97-3.33,1.97-4.72.94-1.3,2.31-2.69,3.9-3.16s3.24.21,4.35,1.39c1.3,1.39,1.8,3.27,2.11,5.08l-.36-.33c5.66-.14,12-.64,15.74-5.4,3.78-4.8,1.52-11.53-2.08-15.85-2.35-2.82-5.43-4.93-8.68-6.57-.4-.2-.1-.81.3-.61h0Z"/><path class="cls-1" d="m96.08,20.58c2.1-1.93,5.78-.94,7.33,1.25.74,1.04,1.11,2.39.85,3.64-.32,1.52-1.45,2.64-2.62,3.56-.34.27-.72-.31-.38-.58,1-.79,2.01-1.77,2.31-3.06.24-1.06-.06-2.19-.66-3.09-.64-.95-1.63-1.62-2.74-1.89s-2.66-.21-3.57.63c-.32.29-.84-.16-.52-.46h0Z"/><path class="cls-1" d="m75.58,43.62c-1.77-1.18-3.63-2.24-5.56-3.14-1.63-.76-3.97-2.1-5.63-.8-.34.27-.72-.31-.38-.58,1.67-1.31,3.84-.34,5.55.42,2.2.98,4.31,2.15,6.32,3.49.37.24.07.86-.3.61h0Z"/><path class="cls-1" d="m69.82,40.29c-1.26,1.47-3.04,2.24-4.9,2.68-1.99.47-4.1.78-6.15.85-3.81.14-7.85-1.28-9.2-5.19s.3-7.82,2.48-10.95c2.39-3.42,5.69-6.23,9.47-8.02,3.44-1.63,7.26-2.42,11.09-2.26,1.84.08,3.68.36,5.47.86,1.97.56,3.83,1.42,5.76,2.09,1,.35,2.07.7,3.13.8,1.56.14,1.36-1.85,1.34-2.89-.03-2.17-.17-4.46-1.3-6.39-1.23-2.11-3.32-2.75-5.58-3.19-1.12-.22-2.24-.4-3.38-.27-1.07.13-2.1.49-3.13.82-2.08.68-4.17,1.39-6.1,2.43-.9.48-1.76,1.04-2.54,1.69-.88.73-1.57,1.61-2.32,2.46-1.17,1.33-2.72,2.17-4.52,1.56-1.52-.51-2.49-1.92-2.56-3.49-.03-.8.17-1.58.59-2.27.23-.37.85-.06.62.31-.98,1.59-.53,3.9,1.3,4.7.95.41,2.04.35,2.9-.21s1.5-1.5,2.19-2.28c2.66-2.97,6.53-4.35,10.23-5.56,1.93-.63,3.72-1.07,5.78-.76,1.87.28,3.94.64,5.49,1.82,1.5,1.15,2.32,2.98,2.68,4.77.19.94.27,1.89.31,2.85s.12,1.94-.03,2.87c-.12.71-.45,1.43-1.19,1.65-.78.23-1.74-.08-2.51-.28-1.9-.5-3.7-1.32-5.55-1.99-3.56-1.29-7.36-1.73-11.09-1.23-4,.53-7.79,2.14-10.97,4.58-3.25,2.49-6.29,6.04-7.44,10.05-.53,1.86-.59,3.88.1,5.73.75,2,2.42,3.4,4.43,4.04s4.12.54,6.16.29,4.04-.51,5.88-1.3c.98-.42,1.85-1.02,2.54-1.83.29-.33.8.13.52.46h0Z"/><path class="cls-1" d="m46.6,36.18c-7.08,1.37-13.95,5-17.61,11.38-1.67,2.9-2.64,6.25-2.55,9.63.02.66-.08,2.07.46,2.56.33.3.95.43,1.36.57.54.19,1.09.37,1.64.52,1.71.48,3.48.79,5.25.81,4.18.05,8.34-1.59,10.83-5.01.15-.2.53-.12.58.13.93,4.27,3.31,8.05,6.28,11.24,1.4,1.5,3.17,3.7,5.45,2.86,2.16-.79,3.04-3.23,3.61-5.27,1.06-3.77,1.19-7.8.41-11.66-.38-1.88-.97-3.72-1.77-5.46-.21-.45-.43-.89-.66-1.32-.14-.26-.27-.52-.5-.71-.3-.25-.61-.27-.99-.29-.92-.04-1.81-.11-2.71-.33-4.02-1-7.39-4.06-8.81-7.94-.15-.42.5-.62.65-.21,1.48,4.03,5.22,7.13,9.49,7.71.85.11,1.98-.1,2.71.43s1.11,1.67,1.47,2.46c.86,1.87,1.47,3.84,1.85,5.86.76,4.05.57,8.29-.65,12.21-.62,1.99-1.55,4.11-3.54,5.03-1.97.91-3.64-.06-5.09-1.46-3.67-3.55-6.76-7.9-7.85-12.94l.58.13c-2.28,3.13-6,4.89-9.84,5.19-1.9.15-3.82-.05-5.68-.47-.95-.22-1.89-.49-2.81-.81-.72-.25-1.74-.47-2.08-1.24s-.31-1.75-.33-2.56c-.03-.87.02-1.73.12-2.59.21-1.8.71-3.56,1.42-5.22,1.46-3.43,3.84-6.36,6.79-8.61,3.58-2.73,7.88-4.41,12.3-5.27.43-.08.65.57.22.65h0Z"/><path class="cls-1" d="m76.71,16.22c-.66-1.36-1.64-2.55-2.89-3.4-.16-.11-.25-.28-.16-.46.07-.15.31-.26.46-.15,1.36.92,2.45,2.17,3.17,3.65.08.17.07.37-.1.47-.14.09-.39.06-.48-.11h0Z"/><path class="cls-1" d="m80.34,16.58c-.56-1.69-1.52-3.24-2.8-4.49-.32-.31.14-.82.45-.51,1.37,1.34,2.4,2.98,3,4.79.14.42-.51.63-.65.21h0Z"/><path class="cls-1" d="m84.44,18.05c-.36-1-.49-2.05-.87-3.05s-.91-1.91-1.56-2.74c-.27-.35.3-.72.58-.37.67.85,1.2,1.8,1.6,2.81s.53,2.11.9,3.14c.15.42-.5.62-.65.21h0Z"/><path class="cls-1" d="m46.32,41.92c-6.15.08-10.53,4.99-14.03,9.44-.27.35-.79-.12-.52-.46,3.61-4.59,8.16-9.57,14.5-9.66.44,0,.49.68.04.69h0Z"/><path class="cls-1" d="m46.16,44.66c-2.98,2.21-5.2,5.23-7.2,8.32-.24.36-.86.06-.62-.31,2.07-3.2,4.36-6.3,7.44-8.59.35-.26.73.32.38.58h0Z"/><path class="cls-1" d="m54.74,49.36c0,3.32-.51,6.62-1.55,9.76-.14.41-.81.27-.67-.14,1.02-3.09,1.54-6.32,1.54-9.59,0-.44.69-.48.69-.03h0Z"/><path class="cls-1" d="m57.44,48.56c1.57,5.45,1.67,11.24.3,16.7-.11.43-.78.29-.67-.14,1.34-5.35,1.26-11.02-.28-16.36-.12-.42.53-.63.65-.21h0Z"/><path class="cls-1" d="m61.59,24.45c-.15.06-.3.13-.45.19.11-.05-.05.03-.09.04-.08.04-.16.08-.24.13-.13.07-.26.16-.38.25-.02.01-.12.09-.05.03.06-.05-.01.01-.02.02-.07.06-.13.12-.19.19-.03.03-.05.06-.08.09-.02.03-.07.13-.03.04s-.03.06-.04.09c0,0-.04.08-.04.09,0-.03.03-.12.01-.03,0,.01-.01.09-.02.09.02-.01.02-.15,0-.01,0,.07-.01-.05-.01-.06.03.11-.01-.01-.03-.03.08.14-.02,0-.02,0,0,0,.07.07.09.08-.01,0-.14-.07,0-.01.03.01.06.03.09.04.02,0,.04.02.06.03.12.06,0-.02-.03,0,0,0,.32.06.33.07,0,0-.14,0-.07,0,.03,0,.06,0,.08,0,.06,0,.13,0,.19,0,.03,0,.06,0,.08-.01.1-.01-.04-.02-.05,0,0-.01.13-.03.14-.04.05-.01.1-.03.14-.05.03,0,.05-.02.08-.03.14-.05-.1.05-.02.01.09-.05.19-.1.28-.16.04-.03.09-.09.14-.1-.01,0-.12.12-.04.03.02-.03.05-.05.08-.08.03-.04.07-.07.1-.11.02-.02.03-.05.05-.07.07-.09-.03.03-.03.05,0-.04.07-.11.09-.15.03-.05.05-.1.07-.16.05-.11-.02.04-.01.05,0,0,.03-.1.03-.11.02-.07.04-.16.04-.23,0,.02,0,.14,0,.02,0-.04,0-.08-.01-.13,0-.09.04.11,0,.03,0-.02,0-.03-.02-.05-.02-.05,0-.03.03.05,0-.02-.06-.06-.05-.08,0,.02.11.1.02.04.13.1.08.05.04.03.09.03.11.04.06.02-.04,0-.03,0,.02,0,.02.03.06-.01-.02,0s.14-.04.02,0c.13-.05.09-.04.05-.01.09-.06.13-.13.16-.23-.1.34-.42.63-.81.53-.33-.09-.65-.45-.54-.81.09-.29.23-.52.49-.68.24-.15.57-.2.85-.15.59.11.95.6,1.05,1.17.14.83-.32,1.63-.93,2.14-.57.48-1.34.68-2.08.59-.4-.05-.84-.23-1.13-.52-.43-.42-.49-1-.29-1.54.37-1.02,1.49-1.51,2.41-1.9.33-.14.77.11.87.45.11.39-.08.71-.44.86h0Z"/><path class="cls-1" d="m63.79,28.13c-.29.33-.81-.13-.52-.46s.81.13.52.46h0Z"/><path class="cls-1" d="m59.72,29.4c-.59.65-1.62-.27-1.03-.92s1.62.27,1.03.92h0Z"/><path class="cls-1" d="m98.2,22.57c.34-.25.75-.44,1.17-.52.09-.02.17-.02.26.02.08.04.15.12.18.2s.03.18-.02.26-.11.16-.2.17c-.22.04-.42.11-.62.2l.08-.04c-.17.08-.32.17-.47.28s-.39.05-.48-.11c-.1-.17-.05-.36.1-.47h0Z"/><path class="cls-1" d="m100.05,24.08l.98-.55c.16-.09.38-.06.48.11.09.15.07.38-.1.47l-.98.55c-.16.09-.38.06-.48-.11-.09-.15-.07-.38.1-.47h0Z"/><path class="cls-1" d="m79.7,45.98c-.65,1.21-1.08,2.51-1.3,3.87-.07.44-.74.29-.67-.14.22-1.41.68-2.78,1.35-4.03.21-.39.83-.08.62.31h0Z"/></g><path class="cls-1" d="m61.6,25.86c-.92,1.02-2.6-.48-1.69-1.51s2.6.48,1.69,1.51h0Z"/></g><g><path class="cls-3" d="m183.26,63.92c-.44-3.66,1.88-7.27,5.62-8.43,4.16-1.29,8.5.94,9.69,4.98s-1.21,8.36-5.37,9.65c-2.6.81-5.27.24-7.19-1.29"/><path class="cls-3" d="m181.15,52.77c-1.62,1.19-3.47,2.14-5.51,2.77-9.45,2.93-19.31-2.14-22.02-11.33-2.71-9.19,2.76-19.01,12.22-21.95s19.31,2.14,22.02,11.33c1.67,5.66.23,11.57-3.33,15.95"/><path class="cls-2" d="m189.12,58.42c1.59-.83,3.7-.61,5.03.54.5.44,1.24-.34.73-.78-1.7-1.46-4.27-1.71-6.31-.64-.26.13-.32.5-.18.72.16.25.47.29.73.16h0Z"/><path class="cls-2" d="m177.53,25.79c3.44,1.44,6.03,4.36,7.01,7.91.18.64,1.2.33,1.02-.31-1.04-3.8-3.84-6.99-7.52-8.53-.62-.26-1.13.67-.51.93h0Z"/><path class="cls-2" d="m182.86,63.78c.17.92.23,2.02-.48,2.78s-1.78.57-2.53.06c-1.55-1.06-1.82-3.19-.98-4.82.93-1.79,2.69-2.96,4.11-4.33,1.15-1.11,2.13-2.49,1.59-4.1-.25-.73-.82-1.5-1.62-1.67s-1.56.4-2.13.95c-.4.38.22.94.62.56.36-.34.79-.78,1.31-.67s.88.68,1.03,1.17c.31,1.03-.19,1.92-.89,2.68-1.41,1.53-3.23,2.67-4.39,4.41-.96,1.44-1.27,3.17-.58,4.74.6,1.35,2,2.57,3.62,2.35,2.16-.3,2.46-2.68,2.15-4.35-.1-.53-.92-.27-.82.25h0Z"/><path class="cls-2" d="m186.41,68.61c-.75-.39-1.62-.11-2.21.48-.39.4-.64.91-.91,1.38-.33.59-.73,1.14-1.19,1.64-1.88,2.04-4.5,3.13-7.14,3.8-.53.14-.3.93.23.8,2.28-.58,4.52-1.46,6.36-2.96.86-.7,1.61-1.5,2.2-2.42.45-.69,1.13-2.57,2.25-1.98.48.25.89-.49.41-.74h0Z"/><path class="cls-2" d="m184.37,49.01c-.91,2.1,1.79,3.09,3.41,2.21,2.79-1.52,2.36-5.46,4.9-7.28,1.24-.88,3.23-1.03,4.07.37.53.88.32,2.26-.91,2.38-.98.09-1.82-.76-2.27-1.51-1.77-2.99.39-6.77,1.86-9.53,1.62-3.03,3.29-6.05,3.57-9.49.04-.54-.81-.5-.85.04-.31,3.81-2.5,7.1-4.2,10.47-1.38,2.73-2.79,6.13-1.11,8.96.63,1.06,1.81,2.05,3.16,1.92,1.16-.12,1.89-1.16,1.89-2.25.01-2.63-3.05-3.44-5.13-2.38-1.49.76-2.42,2.23-3.01,3.72-.37.92-.65,1.9-1.21,2.73-.41.61-.99,1.17-1.74,1.33-.7.15-2.19-.17-1.7-1.31.21-.49-.53-.88-.75-.38h0Z"/></g><g><g><path class="cls-1" d="m108.25,53.53c-2.5,2.79-4.53,6.36-4.45,10.11.03,1.73.52,3.35,1.73,4.37,1.11.94,2.57,1.34,4.06,1.3,1.89-.06,3.77-.78,5.59-1.52.1-.04.15-.15.14-.25-.13-1.36-.06-3.28,1.34-4.11.7-.41,1.48-.2,2.11.08s1.17.69,1.62,1.21.87,1.17,1,1.89c.14.82-.29,1.59-.84,2.21-.74.83-2.25,2.33-3.3,1.78-.37-.19-.58-.6-.76-.98-.15-.33-.32-.68-.36-1.06-.04-.33.05-.94.43-1.1.31-.13.39.3.49.51s.21.43.31.65.43-.01.32-.22c-.12-.26-.25-.52-.37-.78-.09-.18-.16-.45-.32-.56-.23-.16-.59.03-.79.24-.61.61-.48,1.48-.22,2.12.3.75.71,1.62,1.56,1.69.7.06,1.42-.39,2-.86.71-.57,1.46-1.24,1.9-2.07s.39-1.71.04-2.49c-.38-.84-.98-1.55-1.7-2.06-.67-.48-1.57-.91-2.46-.81s-1.63.83-2.02,1.7c-.46,1.02-.44,2.13-.34,3.16l.14-.25c-2.91,1.18-6.23,2.32-8.85.63-2.63-1.7-2.46-5.77-1.25-8.86.79-2.02,2.06-3.81,3.49-5.41.17-.19-.07-.45-.24-.26h0Z"/><path class="cls-1" d="m105.59,55.74c-1.35-.55-3.09.78-3.57,2.29-.23.72-.22,1.51.1,2.12.38.73,1.13,1.07,1.86,1.31.22.07.32-.32.11-.39-.63-.2-1.29-.49-1.63-1.11-.28-.51-.29-1.17-.11-1.78.19-.65.6-1.22,1.13-1.61s1.33-.7,1.92-.46c.21.08.41-.27.2-.36h0Z"/><path class="cls-1" d="m119.44,63.39c.74-1.02,1.53-1.99,2.39-2.9.72-.77,1.73-2,2.77-1.67.22.07.32-.32.11-.39-1.05-.32-2.02.67-2.78,1.45-.98,1.01-1.89,2.1-2.73,3.25-.15.21.09.47.24.26h0Z"/><path class="cls-1" d="m121.9,60.35c.86.5,1.88.51,2.9.33,1.09-.19,2.21-.5,3.27-.91,1.97-.77,3.83-2.42,3.95-4.79s-1.29-4.08-2.87-5.25c-1.72-1.28-3.82-2.04-6.01-2.15-2-.1-4.07.33-6.01,1.26-.93.45-1.83,1.01-2.67,1.67-.93.73-1.75,1.6-2.64,2.38-.46.41-.96.83-1.49,1.12-.78.42-.96-.68-1.11-1.24-.3-1.16-.56-2.4-.27-3.67.32-1.39,1.3-2.2,2.39-2.93.54-.36,1.09-.71,1.69-.89.57-.17,1.15-.21,1.72-.26,1.16-.1,2.34-.19,3.48-.07.53.06,1.05.16,1.55.33.56.19,1.04.5,1.54.79.79.45,1.71.54,2.54-.18.7-.61,1-1.57.8-2.42-.1-.43-.32-.8-.63-1.07-.17-.15-.44.15-.27.3.73.63.84,1.95.02,2.78-.42.43-.99.64-1.51.53s-.98-.46-1.45-.72c-1.79-.99-3.98-.85-6.05-.67-1.08.09-2.06.26-3.07.88-.91.56-1.92,1.22-2.54,2.18s-.75,2.09-.68,3.12c.04.54.14,1.06.26,1.58s.22,1.05.44,1.51c.16.35.44.66.85.61.43-.05.88-.43,1.24-.7.9-.69,1.7-1.52,2.55-2.29,1.63-1.47,3.51-2.55,5.5-3.11,2.12-.61,4.3-.59,6.28,0s4.1,1.8,5.27,3.67c.55.87.87,1.93.78,3.06-.09,1.23-.74,2.33-1.68,3.12s-2.03,1.2-3.11,1.52-2.14.63-3.2.62c-.56,0-1.09-.13-1.57-.41-.19-.11-.39.25-.2.36h0Z"/><path class="cls-1" d="m133.19,53.02c3.82-.85,7.87-.45,10.67,2.12,1.28,1.17,2.26,2.72,2.71,4.54.09.35.35,1.08.14,1.46-.12.23-.42.44-.61.61-.25.22-.5.44-.77.64-.81.63-1.67,1.19-2.57,1.59-2.13.95-4.5,1.01-6.27-.25-.1-.07-.29.06-.28.2.15,2.47-.52,5-1.58,7.34-.5,1.11-1.08,2.66-2.37,2.72-1.22.06-2.03-1.04-2.62-1.99-1.09-1.76-1.75-3.87-1.91-6.08-.08-1.08-.05-2.18.11-3.29.04-.28.09-.56.15-.85.03-.17.06-.33.15-.49.12-.2.27-.28.46-.37.46-.22.91-.46,1.34-.78,1.91-1.42,3.19-3.79,3.35-6.16.02-.25-.35-.22-.36.04-.17,2.47-1.63,4.94-3.74,6.19-.42.25-1.03.38-1.32.83s-.32,1.13-.39,1.63c-.17,1.18-.19,2.36-.09,3.51.2,2.32.92,4.52,2.11,6.33.61.92,1.39,1.83,2.55,1.88s1.86-.84,2.39-1.9c1.36-2.7,2.31-5.69,2.13-8.6l-.28.2c1.62,1.15,3.78,1.26,5.79.56.99-.34,1.95-.87,2.84-1.51.46-.32.89-.68,1.32-1.05.33-.29.82-.63.88-1.12s-.1-1-.2-1.43c-.11-.46-.26-.91-.44-1.35-.37-.91-.88-1.73-1.49-2.45-1.25-1.49-2.89-2.52-4.73-3.05-2.23-.65-4.68-.59-7.06-.06-.23.05-.25.45-.01.39h0Z"/><path class="cls-1" d="m114.87,49.13c.14-.86.47-1.72.99-2.44.06-.09.08-.2.01-.28-.06-.06-.19-.07-.26.02-.56.79-.94,1.69-1.09,2.63-.02.11.02.21.12.23.08.02.21-.05.23-.16h0Z"/><path class="cls-1" d="m113.07,50.13c.04-1.02.31-2.05.78-3,.12-.23-.19-.4-.31-.17-.51,1.01-.79,2.11-.84,3.2-.01.25.35.22.36-.04h0Z"/><path class="cls-1" d="m111.18,51.82c.04-.61-.05-1.2,0-1.81s.19-1.21.4-1.8c.09-.25-.26-.31-.35-.07-.22.6-.35,1.22-.41,1.84s.03,1.24,0,1.86c-.02.25.35.22.36-.04h0Z"/><path class="cls-1" d="m134.17,56c3.16-1.32,6.12.31,8.55,1.88.19.12.39-.24.2-.36-2.51-1.63-5.57-3.26-8.83-1.9-.23.09-.15.47.08.37h0Z"/><path class="cls-1" d="m134.65,57.41c1.85.51,3.42,1.62,4.9,2.81.17.14.45-.16.27-.3-1.53-1.23-3.15-2.37-5.06-2.9-.22-.06-.33.33-.11.39h0Z"/><path class="cls-1" d="m130.94,61.81c.48,1.76,1.23,3.39,2.22,4.83.13.19.46-.03.32-.22-.97-1.41-1.71-3.01-2.18-4.74-.06-.23-.42-.1-.36.13h0Z"/><path class="cls-1" d="m129.44,61.98c-.01,3.23.78,6.33,2.28,8.91.12.2.44-.02.32-.22-1.47-2.54-2.25-5.55-2.24-8.72,0-.25-.36-.22-.36.04h0Z"/><path class="cls-1" d="m123.81,50.14c.09,0,.17,0,.26,0-.07,0,.03,0,.05,0,.05,0,.1,0,.14.01.08.01.15.03.23.05.01,0,.07.02.03,0-.04-.01,0,0,.01,0,.04.02.08.04.12.06.02.01.04.02.05.03.02.01.05.06.02.01s.02.03.03.04c0,0,.03.03.03.04,0-.02-.03-.06-.01-.01,0,0,.02.04.02.04,0,0-.03-.08,0,0,.01.04,0-.03,0-.04,0,.06,0-.01,0-.02-.02.09,0,0,0,0,0,0-.03.05-.03.06,0,0,.06-.07,0,0-.01.01-.03.03-.04.04,0,0-.02.02-.03.03-.06.06,0-.01.01-.01,0,0-.16.1-.16.11,0,0,.07-.03.04-.02-.01,0-.03.01-.04.02-.03.01-.07.03-.1.04-.01,0-.03,0-.04.01-.05.02.02-.02.03,0,0,0-.07.01-.08.01-.03,0-.05,0-.08,0-.02,0-.03,0-.05,0-.08,0,.06,0,.01,0-.06,0-.11-.01-.16-.03-.02,0-.06-.03-.08-.02,0,0,.08.03.03,0-.02,0-.03-.01-.05-.02-.02-.01-.05-.02-.07-.04-.01,0-.02-.02-.04-.02-.05-.03.02.01.02.02,0-.02-.05-.04-.07-.06-.02-.02-.04-.04-.06-.07-.04-.05.02.01.01.02,0,0-.03-.04-.03-.05-.02-.03-.05-.07-.05-.11,0,.01.02.08,0,.01,0-.02,0-.05-.01-.07-.01-.05,0,.07,0,.01,0,0,0-.02,0-.03,0-.03,0-.02,0,.03,0-.01.02-.05.01-.05,0,.01-.04.08,0,.02-.05.08-.04.05-.02.03-.04.04-.05.04-.03.03.02-.01.01-.01-.01,0,0,.02-.03,0,.01,0s-.08.01-.01,0c-.08,0-.05,0-.03,0-.05-.01-.09-.04-.12-.09.1.16.31.24.49.1.16-.12.27-.38.16-.55-.09-.14-.19-.22-.35-.25-.15-.03-.32.02-.46.11-.29.19-.4.53-.37.85.05.47.4.79.79.93.36.13.79.06,1.15-.15.2-.12.4-.31.5-.52.16-.32.1-.64-.08-.88-.34-.46-.98-.47-1.51-.47-.19,0-.38.23-.38.43,0,.23.15.36.35.36h0Z"/><path class="cls-1" d="m123.22,52.57c.2.11.39-.25.2-.36s-.39.25-.2.36h0Z"/><path class="cls-1" d="m125.49,52.34c.39.22.79-.5.39-.72s-.79.5-.39.72h0Z"/><path class="cls-1" d="m104.8,57.27c-.21-.06-.45-.07-.68-.02-.05.01-.09.03-.13.07-.03.04-.06.1-.06.15s.01.1.05.13.08.06.13.05c.12-.03.23-.04.35-.03h-.05c.1,0,.19.02.28.04s.2-.06.23-.16c.03-.11-.02-.2-.12-.23h0Z"/><path class="cls-1" d="m104.07,58.47l-.58-.07c-.09-.01-.2.05-.23.16-.02.1.02.22.12.23l.58.07c.09.01.2-.05.23-.16.02-.1-.02-.22-.12-.23h0Z"/><path class="cls-1" d="m117.68,65.56c.51.5.92,1.09,1.23,1.76.1.22.42,0,.32-.22-.32-.7-.75-1.32-1.28-1.84-.16-.16-.43.14-.27.3h0Z"/></g><path class="cls-1" d="m124.01,50.88c.62.34,1.26-.83.64-1.17s-1.26.83-.64,1.17h0Z"/></g><g><g><path class="cls-1" d="m359.85,20.07c-2.54,2.77-4.58,6.33-4.4,10.14.08,1.75.63,3.41,1.92,4.48,1.18.98,2.73,1.43,4.28,1.42,1.97-.01,3.93-.69,5.82-1.4.11-.04.15-.15.14-.25-.18-1.39-.15-3.33,1.3-4.13.72-.4,1.55-.16,2.21.14s1.24.73,1.73,1.27.94,1.21,1.09,1.95c.17.84-.26,1.6-.83,2.22-.75.82-2.29,2.31-3.41,1.72-.39-.21-.62-.62-.82-1.02-.17-.34-.35-.69-.41-1.08-.05-.34.03-.96.42-1.11.32-.13.42.32.53.53s.23.44.34.67.45,0,.33-.22c-.14-.27-.27-.53-.41-.8-.09-.18-.18-.46-.35-.58-.25-.16-.61.01-.82.22-.62.6-.46,1.49-.18,2.15.33.77.79,1.66,1.68,1.76.74.08,1.47-.36,2.07-.83.73-.56,1.5-1.22,1.94-2.06s.37-1.73-.02-2.52c-.42-.87-1.07-1.59-1.83-2.13-.71-.51-1.67-.97-2.59-.89s-1.68.8-2.08,1.67c-.46,1.03-.41,2.15-.28,3.2l.14-.25c-3.02,1.12-6.47,2.2-9.25.42-2.8-1.8-2.72-5.91-1.53-9.01.78-2.02,2.06-3.82,3.51-5.39.18-.19-.08-.46-.26-.27h0Z"/><path class="cls-1" d="m357.12,22.24c-1.43-.6-3.22.72-3.68,2.23-.22.72-.19,1.53.15,2.15.42.75,1.21,1.12,1.98,1.37.23.08.33-.32.1-.39-.66-.22-1.36-.53-1.73-1.17-.31-.52-.33-1.19-.16-1.81.18-.65.6-1.22,1.14-1.6s1.38-.68,2-.42c.22.09.42-.27.2-.36h0Z"/><path class="cls-1" d="m371.81,30.36c.74-1.02,1.55-1.98,2.42-2.88.74-.76,1.76-1.98,2.86-1.62.23.07.33-.32.1-.39-1.1-.36-2.09.63-2.87,1.4-1,1-1.93,2.08-2.77,3.23-.15.21.11.48.26.27h0Z"/><path class="cls-1" d="m374.31,27.34c.91.53,1.98.57,3.04.41,1.13-.17,2.3-.45,3.4-.84,2.04-.73,3.95-2.35,4.02-4.75s-1.46-4.17-3.14-5.4c-1.84-1.35-4.05-2.16-6.35-2.33-2.09-.16-4.25.23-6.26,1.13-.97.43-1.89.97-2.75,1.62-.95.72-1.79,1.58-2.71,2.35-.47.4-.98.82-1.53,1.1-.81.41-1.03-.71-1.19-1.28-.34-1.18-.65-2.45-.37-3.73.3-1.4,1.31-2.19,2.43-2.91.56-.35,1.12-.69,1.75-.86.59-.16,1.2-.18,1.79-.22,1.22-.07,2.44-.13,3.64.02.56.07,1.1.19,1.63.37.59.21,1.1.54,1.64.84.84.47,1.8.6,2.66-.11.72-.6,1-1.57.77-2.43-.12-.44-.35-.82-.69-1.1-.18-.15-.46.14-.28.3.78.66.93,2,.09,2.82-.43.42-1.02.62-1.57.5s-1.04-.49-1.54-.77c-1.9-1.05-4.19-.97-6.35-.84-1.13.07-2.15.21-3.19.81-.94.55-1.98,1.18-2.61,2.15s-.73,2.1-.63,3.15c.05.55.17,1.08.31,1.6s.26,1.07.5,1.54c.18.36.48.68.91.64.45-.04.91-.41,1.28-.68.93-.67,1.74-1.5,2.61-2.25,1.67-1.45,3.61-2.49,5.67-3.02,2.21-.56,4.49-.49,6.58.15s4.34,1.93,5.61,3.86c.59.89.96,1.98.9,3.12-.07,1.24-.72,2.35-1.68,3.12s-2.09,1.17-3.22,1.46-2.23.58-3.33.54c-.59-.02-1.15-.16-1.65-.45-.21-.12-.4.24-.2.36h0Z"/><path class="cls-1" d="m385.94,20.2c3.98-.76,8.23-.25,11.23,2.42,1.37,1.22,2.44,2.82,2.95,4.67.1.36.39,1.1.18,1.48-.12.23-.43.43-.62.6-.26.22-.52.43-.78.63-.83.62-1.71,1.16-2.65,1.55-2.21.91-4.69.91-6.57-.42-.11-.08-.3.05-.29.19.22,2.51-.42,5.06-1.46,7.41-.49,1.11-1.07,2.67-2.41,2.7-1.28.03-2.15-1.1-2.79-2.08-1.19-1.81-1.93-3.97-2.16-6.22-.11-1.1-.1-2.22.03-3.33.03-.29.08-.57.13-.85.03-.17.06-.34.15-.49.12-.2.28-.28.48-.37.48-.22.94-.44,1.38-.75,1.97-1.39,3.24-3.76,3.35-6.16.01-.26-.37-.23-.38.03-.12,2.5-1.58,4.96-3.75,6.18-.43.24-1.06.36-1.37.81s-.31,1.14-.37,1.64c-.14,1.19-.14,2.39,0,3.56.27,2.35,1.08,4.61,2.37,6.47.66.95,1.5,1.89,2.72,1.97s1.92-.8,2.46-1.87c1.36-2.7,2.27-5.71,2.01-8.66l-.29.19c1.73,1.21,3.99,1.38,6.08.72,1.03-.32,2.02-.83,2.93-1.46.47-.32.92-.67,1.35-1.03.34-.29.85-.62.9-1.11s-.13-1.01-.25-1.45c-.13-.47-.3-.93-.49-1.38-.41-.93-.97-1.78-1.62-2.52-1.34-1.54-3.1-2.63-5.03-3.22-2.35-.72-4.91-.72-7.4-.24-.24.05-.25.45,0,.4h0Z"/><path class="cls-1" d="m366.66,15.79c.12-.87.45-1.73.97-2.45.06-.09.08-.2,0-.28-.06-.07-.2-.07-.27.02-.57.79-.94,1.69-1.07,2.64-.02.11.02.21.13.23.09.02.22-.05.23-.16h0Z"/><path class="cls-1" d="m364.8,16.75c.02-1.04.27-2.07.74-3.02.12-.23-.21-.41-.33-.18-.51,1.01-.78,2.12-.79,3.23,0,.26.38.23.38-.03h0Z"/><path class="cls-1" d="m362.87,18.41c.02-.62-.08-1.21-.05-1.83s.16-1.22.37-1.81c.09-.25-.28-.32-.37-.08-.21.6-.34,1.23-.38,1.86s.07,1.26.04,1.89c0,.26.37.23.38-.03h0Z"/><path class="cls-1" d="m387.04,23.25c3.28-1.26,6.42.47,9.01,2.13.2.13.4-.23.2-.36-2.67-1.72-5.92-3.45-9.29-2.15-.24.09-.14.47.09.38h0Z"/><path class="cls-1" d="m387.58,24.69c1.95.57,3.63,1.73,5.2,2.98.19.15.46-.15.28-.3-1.63-1.29-3.36-2.48-5.37-3.07-.23-.07-.33.33-.1.39h0Z"/><path class="cls-1" d="m383.82,29.05c.55,1.8,1.37,3.47,2.44,4.95.14.19.48-.02.33-.22-1.05-1.45-1.87-3.09-2.41-4.86-.07-.24-.44-.11-.37.13h0Z"/><path class="cls-1" d="m382.25,29.19c.07,3.28.98,6.43,2.62,9.1.13.21.46-.01.33-.22-1.6-2.61-2.5-5.69-2.57-8.91,0-.26-.39-.23-.38.03h0Z"/><path class="cls-1" d="m376.05,17.03c.09,0,.18,0,.27,0-.07,0,.03,0,.05,0,.05,0,.1.01.15.02.08.01.16.03.24.05.01,0,.08.02.03,0-.04-.01,0,0,.01,0,.04.02.09.04.13.06.02.01.04.02.06.03.02.01.06.06.02.01s.03.03.04.04c0,0,.03.03.03.04,0-.02-.03-.06-.01-.01,0,0,.02.05.02.05,0,0-.03-.08,0,0,.01.04,0-.03,0-.04,0,.07,0-.01,0-.02-.02.09,0,0,0,0,0,0-.03.05-.03.06,0,0,.06-.07,0,0-.01.01-.03.03-.04.04,0,0-.02.02-.03.03-.06.06,0-.01.01-.01,0,0-.16.1-.16.11,0,0,.07-.03.04-.02-.01,0-.03.01-.04.02-.03.01-.07.03-.1.04-.02,0-.03,0-.05.01-.05.01.02-.02.03,0,0,0-.08.01-.08.01-.03,0-.06,0-.08,0-.02,0-.03,0-.05,0-.08,0,.06,0,.02,0-.06,0-.12-.02-.17-.03-.03,0-.06-.03-.09-.03,0,0,.09.04.03,0-.02,0-.04-.02-.05-.02-.02-.01-.05-.03-.07-.04-.01,0-.03-.02-.04-.03-.05-.03.02.01.02.02-.01-.02-.05-.04-.07-.06-.02-.02-.04-.05-.06-.07-.05-.05.02.02.01.02,0,0-.03-.05-.03-.05-.02-.03-.05-.07-.06-.11,0,.01.02.08,0,.01,0-.02,0-.05-.02-.07-.01-.05,0,.07,0,.02,0,0,0-.02,0-.03,0-.03,0-.02,0,.03,0-.01.02-.05.01-.06,0,.01-.04.08,0,.02-.05.08-.04.05-.02.03-.04.03-.05.04-.03.03.02-.01.01-.01-.01,0,0,.02-.04,0,.01,0s-.08,0-.01,0c-.08,0-.06,0-.03,0-.06-.01-.09-.04-.12-.09.11.16.33.25.52.12.16-.12.27-.38.15-.55-.1-.14-.21-.23-.37-.26-.16-.03-.33.01-.47.1-.3.19-.4.53-.36.85.06.48.44.82.85.96.38.14.82.09,1.2-.12.2-.11.41-.3.51-.52.16-.32.09-.64-.1-.89-.37-.47-1.04-.5-1.59-.52-.2,0-.39.23-.39.43,0,.23.16.37.37.37h0Z"/><path class="cls-1" d="m375.49,19.49c.21.11.41-.24.2-.36s-.41.24-.2.36h0Z"/><path class="cls-1" d="m377.86,19.31c.42.23.81-.49.39-.72s-.81.49-.39.72h0Z"/><path class="cls-1" d="m356.32,23.77c-.22-.06-.47-.08-.71-.03-.05,0-.09.02-.13.07-.03.04-.06.1-.06.15s.02.1.05.14.09.06.14.05c.12-.02.24-.03.36-.02h-.05c.1,0,.2.02.29.05s.21-.06.23-.16c.02-.11-.03-.21-.13-.23h0Z"/><path class="cls-1" d="m355.59,24.98l-.61-.09c-.1-.01-.21.05-.23.16-.02.1.03.22.13.23l.61.09c.1.01.21-.05.23-.16.02-.1-.03-.22-.13-.23h0Z"/><path class="cls-1" d="m370.02,32.51c.54.52.99,1.13,1.33,1.82.11.22.44,0,.33-.22-.35-.72-.82-1.36-1.39-1.9-.17-.17-.45.13-.28.3h0Z"/></g><path class="cls-1" d="m376.28,17.8c.66.36,1.3-.81.64-1.17s-1.3.81-.64,1.17h0Z"/></g><g><path class="cls-1" d="m415.02,47.84l-.33-1.46c-.07-.31-.1-.74-.27-1.02-.35-.58-1.32-.12-1.78-.02s-1.53.08-1.61.82c-.04.35.09.75.15,1.09.09.5.17,1.01.26,1.51l.22-.44c-.98.25-1.91.65-2.79,1.18-.14.08-.16.24-.15.4.12.96.32,1.89.63,2.8.04.13.16.28.31.26,1-.12,1.98-.32,2.95-.62l-.36-.16.96,2.26c.05.13.24.21.36.16.86-.37,1.73-.69,2.62-.96.14-.04.23-.19.23-.34.02-.92-.12-1.82-.43-2.67l-.15.4,1.33-.69c.32-.17.79-.3,1.02-.63s.08-.68-.02-1.02c-.15-.53-.3-1.06-.45-1.6-.05-.18-.22-.3-.39-.25-.85.29-1.71.59-2.56.88-.39.13-.22.82.17.68.85-.29,1.71-.59,2.56-.88l-.39-.25c.11.38.22.77.32,1.15.06.21.12.41.17.62s.09.18-.06.31c-.25.22-.65.34-.94.48l-1.1.56c-.12.06-.19.27-.15.4.28.8.42,1.62.4,2.49l.23-.34c-.89.27-1.76.59-2.62.96l.36.16-.96-2.26c-.06-.14-.23-.2-.36-.16-.91.28-1.84.48-2.78.59l.31.26c-.3-.91-.51-1.84-.63-2.8l-.15.4c.83-.51,1.71-.88,2.64-1.11.18-.05.25-.25.22-.44-.11-.63-.22-1.26-.32-1.89-.01-.07-.09-.32-.06-.38.03-.06.11-.06.19-.08.29-.07.58-.12.87-.19.26-.06.52-.11.78-.17.39-.08.4-.1.5.33l.41,1.82c.1.44.71.25.61-.19h0Z"/><path class="cls-1" d="m398.03,54.54c.36-.42.87-.82,1.42-.8s.9.6,1.02,1.14c.15.68-.39,1.14-.87,1.41s-1.11.33-1.59,0-.53-1.03-.11-1.45c.3-.31-.15-.81-.45-.5-.57.58-.62,1.58-.11,2.23s1.43.78,2.16.52,1.58-.92,1.64-1.86c.03-.45-.13-.92-.35-1.3s-.51-.67-.89-.81c-.84-.32-1.74.26-2.31.92-.28.33.16.83.45.5h0Z"/><path class="cls-1" d="m393.02,52.48c.36-.42.87-.82,1.42-.8s.9.6,1.02,1.14c.15.68-.39,1.14-.87,1.41s-1.11.33-1.59,0-.53-1.03-.11-1.45c.3-.31-.15-.81-.45-.5-.57.58-.62,1.58-.11,2.23s1.43.78,2.16.52,1.58-.92,1.64-1.86c.03-.45-.13-.92-.35-1.3s-.51-.67-.89-.81c-.84-.32-1.74.26-2.31.92-.28.33.16.83.45.5h0Z"/><path class="cls-1" d="m395.24,59.66c.36-.42.87-.82,1.42-.8s.9.6,1.02,1.14c.15.68-.39,1.14-.87,1.41s-1.11.33-1.59,0-.53-1.03-.11-1.45c.3-.31-.15-.81-.45-.5-.57.58-.62,1.58-.11,2.23s1.43.78,2.16.52,1.58-.92,1.64-1.86c.03-.45-.13-.92-.35-1.3s-.51-.67-.89-.81c-.84-.32-1.74.26-2.31.92-.28.33.16.83.45.5h0Z"/><path class="cls-1" d="m389.8,57.71c.36-.42.87-.82,1.42-.8s.9.6,1.02,1.14c.15.68-.39,1.14-.87,1.41s-1.11.33-1.59,0-.53-1.03-.11-1.45c.3-.31-.15-.81-.45-.5-.57.58-.62,1.58-.11,2.23s1.43.78,2.16.52,1.58-.92,1.64-1.86c.03-.45-.13-.92-.35-1.3s-.51-.67-.89-.81c-.84-.32-1.74.26-2.31.92-.28.33.16.83.45.5h0Z"/><path class="cls-1" d="m405.18,45.84c.52-1.31,0-2.77.95-3.92s2.52-1.65,3.86-2.09c2.5-.82,5.71-1.34,7.78.88.29.32.74-.18.45-.5-2.18-2.34-5.5-1.99-8.17-1.13-1.4.45-2.97.93-4.08,2.03-.47.47-.87,1.08-1.03,1.77-.2.86.03,1.78-.3,2.6-.17.41.38.77.55.36h0Z"/><path class="cls-1" d="m404.73,45.56c-1.04.72-2.2,1.06-3.4,1.29s-2.5.59-3.65.1c-1.03-.44-1.84-1.05-2.98-1.09-1.05-.04-2.1.26-3.06.7-1.92.86-3.67,2.12-4.49,4.31-.9,2.42-1.39,5.15-1.77,7.73-.73,4.92-.78,10.29.99,14.96.77,2.02,2.11,3.79,4.14,4.19,1.84.37,3.45-.62,4.48-2.28,2.53-4.05,2.51-10.15,6.59-12.89,2.11-1.42,4.48-2.51,6.83-3.32,1.25-.43,2.48-.65,3.77-.29,1.17.33,2.26.98,3.35,1.55,2.21,1.17,4.4,2.47,6.69,3.46,1.69.73,4.27,1.45,5.76-.13s1.61-3.95,1.21-5.99c-.45-2.28-1.53-4.43-2.65-6.38s-2.45-3.83-3.92-5.5-3.13-3.35-4.95-4.55c-1.99-1.31-4.25-1.31-6.45-.72-1.52.41-3.71,1.18-4.17,3.1-.21.87.61,2.77-.5,3.05-.4.1-.23.78.17.68.64-.16,1.03-.81,1.06-1.52.03-.53-.16-1.04-.17-1.57,0-.56.24-1.04.59-1.43.67-.75,1.62-1.16,2.51-1.44,1.12-.35,2.28-.6,3.44-.57,2.34.06,4.15,1.61,5.86,3.23,1.54,1.46,2.96,3.08,4.22,4.84,1.27,1.78,2.37,3.71,3.27,5.75s1.62,4.33,1.04,6.54c-.32,1.23-1.02,2.36-2.21,2.61-1.11.23-2.29-.04-3.34-.43-2.19-.82-4.28-2.12-6.37-3.22-1.84-.97-3.8-2.29-5.9-2.26s-4.34,1.16-6.26,2.11-3.92,1.89-5.24,3.67-1.91,4-2.65,6.04-1.32,4.41-2.72,6c-1.55,1.75-3.99,1.53-5.51-.15s-2.07-4.21-2.44-6.43c-.42-2.48-.46-5.02-.27-7.52s.65-5.12,1.24-7.61c.28-1.18.54-2.43,1.04-3.53s1.35-1.92,2.32-2.55c1.82-1.18,4.11-2.12,6.14-1.05.92.48,1.71.9,2.76.85s2.1-.27,3.1-.52,1.93-.6,2.79-1.2c.35-.24.03-.85-.32-.61h0Z"/><path class="cls-1" d="m418.05,40.92c1.71.82,3.41,2.56,5.39,1.62.84-.4,1.27-1.16,1.41-2.14.08-.53.09-1.12.35-1.59s.76-.74,1.25-.77c.41-.02.41-.73,0-.71-.81.05-1.58.54-1.92,1.38s-.12,2.07-.8,2.79c-.71.75-1.78.7-2.65.36-.97-.38-1.79-1.1-2.73-1.55-.37-.18-.69.43-.32.61h0Z"/></g><g><g><path class="cls-1" d="m532.53,31.61c5.19,5.88,9.14,13.44,8.19,21.47-.44,3.7-1.91,7.19-4.91,9.44-2.76,2.06-6.23,2.98-9.67,2.94-4.35-.06-8.56-1.52-12.62-3.03-.23-.09-.32-.31-.27-.54.6-2.93.83-7.03-2.25-8.75-1.54-.86-3.39-.36-4.89.26s-2.84,1.52-4,2.65c-1.13,1.11-2.25,2.53-2.7,4.09-.5,1.77.33,3.39,1.49,4.7,1.54,1.75,4.71,4.91,7.26,3.69.89-.43,1.46-1.31,1.96-2.14.43-.71.88-1.46,1.06-2.28.16-.71.08-2.02-.76-2.35-.69-.27-.96.66-1.25,1.12s-.57.93-.86,1.4-.99,0-.7-.47c.34-.56.69-1.12,1.03-1.68.24-.38.46-.98.86-1.22.57-.34,1.35.04,1.78.47,1.28,1.28.79,3.14.07,4.54-.85,1.62-1.98,3.49-3.97,3.69-1.64.17-3.19-.79-4.45-1.77-1.52-1.19-3.12-2.6-3.97-4.37s-.55-3.65.43-5.32c1.06-1.82,2.6-3.35,4.36-4.48,1.65-1.06,3.83-2.02,5.85-1.83,2.01.18,3.59,1.71,4.33,3.56.86,2.17.58,4.55.13,6.75l-.27-.54c6.5,2.42,13.94,4.73,20.33,1,6.45-3.75,6.89-12.45,4.73-19.01-1.41-4.29-3.98-8.09-6.94-11.44-.36-.41.26-.97.62-.56h0Z"/><path class="cls-1" d="m538.23,36.23c3.25-1.24,6.99,1.56,7.79,4.75.38,1.53.2,3.23-.66,4.54-1.04,1.58-2.84,2.34-4.57,2.87-.51.16-.68-.68-.17-.83,1.49-.45,3.08-1.1,4-2.44.75-1.1.92-2.52.63-3.82-.3-1.38-1.13-2.58-2.28-3.4s-2.93-1.45-4.35-.91c-.5.19-.88-.57-.38-.76h0Z"/><path class="cls-1" d="m504.59,53.17c-1.49-2.16-3.13-4.2-4.92-6.11-1.51-1.61-3.58-4.2-6.06-3.47-.51.15-.68-.68-.17-.83,2.49-.74,4.53,1.35,6.13,3,2.07,2.12,3.94,4.42,5.63,6.85.31.44-.31,1.01-.62.56h0Z"/><path class="cls-1" d="m499.52,46.76c-2.09,1.1-4.46,1.17-6.77.83-2.48-.37-5.02-.97-7.38-1.82-4.4-1.58-8.36-5.02-8.15-10.1.21-4.99,3.84-8.78,7.73-11.35,4.25-2.82,9.26-4.51,14.36-4.84,4.64-.3,9.35.55,13.63,2.47,2.06.93,4.03,2.08,5.83,3.47,1.99,1.53,3.72,3.36,5.62,5,.98.85,2.05,1.74,3.21,2.33,1.72.88,2.37-1.49,2.82-2.69.93-2.49,1.81-5.16,1.38-7.87-.46-2.96-2.55-4.65-4.92-6.17-1.17-.75-2.37-1.48-3.72-1.84-1.28-.34-2.61-.4-3.92-.49-2.67-.17-5.37-.32-8.03,0-1.24.15-2.46.39-3.65.77-1.33.43-2.5,1.12-3.74,1.75-1.93.99-4.06,1.23-5.85-.28-1.5-1.27-1.98-3.32-1.34-5.15.32-.93.9-1.73,1.68-2.32.43-.32.99.31.56.63-1.82,1.37-2.35,4.2-.63,5.95.89.9,2.16,1.32,3.39,1.08,1.28-.25,2.37-1.03,3.51-1.6,4.35-2.18,9.38-1.98,14.14-1.69,2.48.16,4.72.47,6.92,1.76,2,1.17,4.2,2.53,5.43,4.57,1.19,1.99,1.31,4.45.92,6.66-.2,1.16-.54,2.28-.92,3.38s-.73,2.26-1.32,3.25c-.45.75-1.16,1.43-2.09,1.34-.99-.09-1.95-.88-2.73-1.46-1.94-1.44-3.62-3.19-5.42-4.8-3.47-3.09-7.6-5.31-12.06-6.45-4.79-1.22-9.82-1.1-14.53.23s-9.86,4.03-12.96,8.07c-1.44,1.88-2.41,4.16-2.45,6.58-.04,2.62,1.23,4.97,3.23,6.62s4.44,2.49,6.88,3.13c2.36.62,4.82,1.25,7.27,1.2,1.31-.03,2.56-.33,3.71-.93.47-.25.85.51.38.76h0Z"/><path class="cls-1" d="m474.94,31.51c-8.67-1.66-18.11-.65-25.14,4.96-3.2,2.55-5.81,5.92-7.21,9.82-.27.76-1.02,2.32-.63,3.13.24.49.89.92,1.29,1.27.53.47,1.08.91,1.64,1.34,1.73,1.33,3.6,2.48,5.61,3.31,4.74,1.96,10.2,1.98,14.56-.79.25-.16.66.11.61.41-.86,5.29.16,10.68,2.11,15.66.92,2.35,1.95,5.65,4.92,5.74,2.82.08,4.91-2.3,6.47-4.36,2.89-3.81,4.85-8.35,5.69-13.1.41-2.31.56-4.68.43-7.03-.03-.6-.09-1.21-.16-1.81-.04-.36-.07-.71-.25-1.04-.23-.42-.57-.59-.99-.78-1.03-.46-2.01-.95-2.94-1.61-4.13-2.97-6.59-7.99-6.47-13.06.01-.54.85-.48.83.06-.12,5.27,2.74,10.5,7.35,13.1.91.51,2.29.78,2.89,1.73s.51,2.41.57,3.47c.14,2.52-.05,5.05-.52,7.52-.95,4.97-3.07,9.71-6.2,13.63-1.59,1.99-3.6,3.98-6.29,4.12-2.65.14-4.12-1.72-5.14-3.98-2.59-5.72-4.15-12.08-3.14-18.32l.61.41c-3.99,2.54-9.02,2.85-13.52,1.44-2.22-.7-4.32-1.79-6.25-3.11-.99-.68-1.93-1.42-2.83-2.2-.7-.61-1.77-1.32-1.81-2.35s.43-2.14.77-3.07c.36-1,.8-1.97,1.3-2.9,1.05-1.95,2.4-3.74,3.95-5.31,3.19-3.24,7.22-5.5,11.59-6.73,5.3-1.49,10.94-1.45,16.35-.41.52.1.48.95-.05.84h0Z"/><path class="cls-1" d="m518.14,22.46c-.14-1.84-.73-3.65-1.77-5.19-.13-.19-.15-.43.03-.6.15-.14.46-.15.59.04,1.13,1.67,1.82,3.59,1.97,5.6.02.23-.08.45-.33.49-.2.04-.48-.11-.49-.34h0Z"/><path class="cls-1" d="m522.11,24.51c.12-2.19-.28-4.38-1.18-6.39-.22-.5.52-.87.74-.37.96,2.15,1.39,4.49,1.27,6.83-.03.54-.86.48-.83-.06h0Z"/><path class="cls-1" d="m526.12,28.05c.04-1.3.36-2.56.38-3.87s-.18-2.59-.54-3.83c-.15-.52.67-.68.82-.16.38,1.28.56,2.6.56,3.93s-.34,2.65-.38,3.99c-.02.54-.85.48-.83-.06h0Z"/><path class="cls-1" d="m472.06,37.93c-7.04-2.7-14.22.9-20.19,4.38-.46.27-.84-.49-.38-.76,6.16-3.59,13.57-7.2,20.82-4.42.51.19.25,1-.26.8h0Z"/><path class="cls-1" d="m470.65,40.98c-4.38,1.17-8.26,3.6-11.92,6.21-.43.31-1-.32-.56-.63,3.79-2.7,7.78-5.2,12.31-6.41.52-.14.69.69.17.83h0Z"/><path class="cls-1" d="m478.31,50.24c-1.48,3.79-3.55,7.31-6.14,10.42-.34.41-1.05-.06-.7-.47,2.54-3.06,4.59-6.51,6.04-10.23.2-.5.99-.23.8.27h0Z"/><path class="cls-1" d="m481.74,50.56c-.65,6.93-3.13,13.57-7.14,19.18-.31.44-1.02-.03-.7-.47,3.92-5.49,6.36-11.98,7-18.77.05-.54.89-.48.83.06h0Z"/><path class="cls-1" d="m497.25,24.96c-.2,0-.4,0-.59.02.15,0-.07,0-.12,0-.11,0-.22.02-.33.04-.18.03-.36.06-.54.11-.02,0-.17.05-.07.02.1-.03-.02,0-.03.01-.1.04-.2.08-.3.13-.04.02-.09.05-.13.07-.04.02-.14.12-.05.03s-.06.06-.09.08c0,0-.08.07-.08.08,0-.04.09-.13.03-.03,0,.01-.06.1-.06.1.02,0,.09-.17.02-.01-.04.08.01-.07.01-.08-.01.14-.01-.02-.01-.05.03.2-.02-.01-.02-.01,0,0,.05.11.06.13-.01-.01-.12-.14,0-.02.03.03.05.06.08.09.02.02.04.04.06.06.12.12,0-.03-.03-.02.01,0,.34.21.34.23,0,0-.16-.07-.08-.04.03.01.06.03.09.04.07.03.15.05.22.08.03,0,.07.02.1.03.12.03-.03-.04-.06-.01.01-.01.16.02.18.02.06,0,.12.01.18.01.03,0,.07,0,.1,0,.18,0-.13.02-.03,0,.13-.02.26-.03.39-.06.06-.01.14-.06.2-.06-.02,0-.19.08-.06.02.04-.02.08-.03.12-.05.06-.03.11-.05.16-.08.03-.02.06-.04.09-.05.13-.07-.05.02-.05.04.03-.05.12-.09.16-.13.05-.05.1-.1.15-.15.11-.1-.04.03-.03.05,0,0,.07-.1.08-.11.05-.07.12-.16.14-.24,0,.02-.06.17-.02.02.01-.05.03-.1.04-.15.03-.11,0,.14,0,.03,0-.02,0-.04,0-.06,0-.06,0-.04,0,.07.02-.02-.04-.1-.02-.12-.02.02.08.16.01.05.11.18.07.1.03.06.09.07.11.09.06.06-.04-.02-.03-.02.03,0,0,.04.08.02-.03,0s.17.02.03.01c.17,0,.13,0,.06,0,.13-.03.21-.09.29-.19-.27.34-.76.52-1.16.24-.34-.25-.54-.81-.25-1.17.23-.29.49-.49.86-.55.35-.06.73.03,1.03.22.63.4.81,1.12.67,1.81-.21,1.01-1.09,1.72-2.02,2.02-.87.28-1.83.17-2.63-.28-.43-.24-.85-.65-1.06-1.1-.3-.68-.11-1.36.36-1.88.88-.99,2.37-1.05,3.6-1.07.44,0,.83.48.79.91-.05.49-.41.77-.88.78h0Z"/><path class="cls-1" d="m498.11,30.15c-.48.24-.86-.52-.38-.76s.86.52.38.76h0Z"/><path class="cls-1" d="m492.91,29.75c-.96.48-1.72-1.04-.76-1.52.96-.48,1.72,1.04.76,1.52h0Z"/><path class="cls-1" d="m539.75,39.47c.5-.13,1.05-.16,1.57-.06.11.02.21.05.28.14.07.08.12.21.11.31s-.05.22-.14.29-.2.13-.31.11c-.26-.05-.53-.07-.8-.05h.11c-.22,0-.44.04-.66.1s-.46-.12-.49-.34c-.04-.24.1-.43.33-.49h0Z"/><path class="cls-1" d="m541.18,42.02l1.36-.18c.22-.03.46.1.49.34.03.22-.09.46-.33.49l-1.36.18c-.22.03-.46-.1-.49-.34-.03-.22.09-.46.33-.49h0Z"/><path class="cls-1" d="m508.22,57.73c-1.28,1.08-2.35,2.37-3.21,3.82-.27.47-.98,0-.7-.47.88-1.51,2.02-2.86,3.34-3.98.41-.35.97.29.56.63h0Z"/></g><path class="cls-1" d="m496.63,26.57c-1.5.75-2.75-1.73-1.24-2.49s2.75,1.73,1.24,2.49h0Z"/></g><g><path class="cls-1" d="m561.47,53.6c-2.21,5.63-4.56,11.62-3.71,17.87.11.79.16,1.76.93,2.18.66.35,1.42.64,2.14.82,1.5.37,3.05.07,4.5-.31,2.84-.73,5.69-1.75,8.01-3.61,1.13-.9,2.74-2.28,2.41-3.95-.17-.9-.78-1.68-1.28-2.42s-1.03-1.53-1.55-2.3c-.18-.27.21-.57.39-.3.5.74,1,1.48,1.5,2.22.46.68.95,1.35,1.25,2.12.54,1.43-.05,2.67-.99,3.7-2.18,2.38-5.19,3.73-8.22,4.63-1.51.45-3.09.91-4.68.88-.74-.01-1.46-.16-2.16-.4-.64-.23-1.49-.47-1.99-.96s-.6-1.33-.7-2c-.12-.8-.19-1.61-.2-2.42-.04-1.62.11-3.24.39-4.83.68-3.86,2.11-7.51,3.53-11.13.12-.3.57-.09.45.21h0Z"/><path class="cls-1" d="m561.04,53.44c.48-1.2,2.05-.39,2.85-.04,1.3.58,2.53,1.33,3.69,2.18.57.42,1.12.87,1.65,1.33.27.24.53.49.81.72.14.12.3.24.46.33.08.04.21.11.3.12.2.01.16.02.09-.12-.15-.3-.49-.58-.69-.86-.25-.35-.48-.72-.7-1.08-.43-.69-.85-1.37-1.25-2.07-.91-1.58-1.7-3.22-2.13-5-.08-.32.42-.36.49-.04.41,1.72,1.2,3.32,2.08,4.84.42.72.86,1.43,1.3,2.14.2.31.39.62.61.92.24.33.6.65.8,1s.02.71-.36.78c-.52.1-1.05-.33-1.42-.66-1.1-.98-2.22-1.92-3.46-2.72-.72-.46-1.46-.88-2.23-1.23-.54-.25-2.1-1.15-2.44-.32-.12.3-.57.09-.45-.21h0Z"/><path class="cls-1" d="m566.18,49.07c-.52-1.52-.85-3.11-.95-4.71s.15-3.24.19-4.89c0-.25.41-.28.47-.04.51,1.85,1.19,3.64,1.71,5.48.26.92.74,1.79,1.15,2.65.45.95.92,1.88,1.46,2.78.17.28-.23.58-.39.3-.51-.86-.97-1.74-1.4-2.64s-.92-1.8-1.22-2.74c-.13-.4-.2-.82-.32-1.22-.15-.46-.33-.91-.49-1.37-.35-1.01-.67-2.03-.95-3.06l.47-.04c-.04,1.6-.3,3.15-.19,4.75s.42,3.09.92,4.58c.1.31-.35.49-.46.18h0Z"/><path class="cls-1" d="m570.2,50.37c.71.77,1.36,1.59,1.94,2.46.3.45.59.92.86,1.4.24.43.52.88.67,1.36.29.87-.03,1.6-.84,1.95-.31.14-.68.17-.96-.07-.24-.2-.33-.51-.21-.79s.57-.09.45.21c-.08.2.2.26.33.25.18-.03.37-.14.51-.25.28-.21.38-.5.32-.85-.06-.38-.27-.75-.45-1.09s-.35-.64-.54-.95c-.72-1.19-1.56-2.31-2.49-3.33-.22-.24.18-.53.39-.3h0Z"/><path class="cls-1" d="m573.48,55.43c.7-.5,1.22-1.2,1.94-1.66.67-.43,1.41-.9,1.66-1.72.13-.4.11-.86-.12-1.23s-.58-.66-.86-.97c-.64-.71-1.24-1.45-1.81-2.21-.19-.26.2-.56.39-.3.64.86,1.31,1.68,2.04,2.46.31.33.66.65.82,1.08.14.38.14.81.04,1.2-.21.82-.85,1.42-1.52,1.86-.45.29-.84.57-1.22.96-.33.34-.68.65-1.06.93-.26.18-.56-.23-.3-.41h0Z"/><path class="cls-1" d="m574.27,47.65c-1.41-2.13-2.63-4.44-2.94-7.01l.49-.04c.04,1.24-.09,2.46-.09,3.7,0,.61.03,1.22.13,1.82s.32,1.2.41,1.82c.18,1.27.72,2.58,1.25,3.74.16.36.34.71.55,1.04.23.35.44.58.88.41.55-.21,1.03-.91,1.33-1.4.17-.27.55.05.39.32-.48.79-1.68,2.3-2.66,1.38-.45-.42-.73-1.1-.98-1.66-.34-.76-.61-1.55-.88-2.33-.23-.69-.3-1.38-.47-2.08s-.36-1.4-.4-2.15c-.1-1.53.12-3.04.07-4.57-.01-.32.45-.37.49-.04.3,2.48,1.48,4.7,2.84,6.76.18.27-.21.57-.39.3h0Z"/><path class="cls-1" d="m589.57,68.15c-4.3.22-8.71-1-12.26-3.62-.9-.66-1.73-1.42-2.47-2.25-.63-.7-1.57-1.65-1.35-2.69.21-.96,1.13-1.67,1.81-2.29.43-.39.84-.79,1.19-1.27.32-.44.61-.9.98-1.3.42-.45.91-.71,1.43-1.01.6-.34,1.02-.82,1.4-1.4.66-1.02,1.24-2.18,2.48-2.55.3-.09.49.38.18.47-1.08.32-1.61,1.35-2.18,2.26-.24.38-.49.75-.81,1.06-.37.37-.82.59-1.27.84-.94.53-1.4,1.45-2.07,2.26-.63.76-1.46,1.32-2.1,2.08-.37.44-.73.97-.5,1.58.2.54.67,1.02,1.04,1.45.68.79,1.46,1.51,2.28,2.14,1.62,1.25,3.46,2.18,5.38,2.81,2.2.72,4.51,1.02,6.8.9.32-.02.37.49.05.5h0Z"/><path class="cls-1" d="m582.78,49.77c.41-.39.87,0,1.19.31.48.45.93.93,1.39,1.41.84.87,1.72,1.75,2.81,2.28.27.13.55.25.84.32.13.03.26.07.39.09.07.01.19.05.25.03.3-.09-.03-.09-.08-.08-.6.06-1.15.38-1.74.5-1.14.23-2.38-.05-3.49-.36-.6-.17-1.2-.38-1.73-.72-.49-.31-1.01-.73-1.07-1.35-.03-.32.46-.37.49-.04.06.64.91,1.06,1.42,1.28.56.25,1.15.4,1.74.53.67.15,1.35.28,2.04.24s1.24-.33,1.87-.49c.35-.09,1.01-.24,1.19.24.19.5-.35.79-.75.77-1.12-.08-2.21-.75-3.06-1.46-.57-.47-1.09-1.01-1.61-1.55-.22-.23-1.52-1.78-1.8-1.51-.23.22-.52-.19-.3-.41h0Z"/><path class="cls-1" d="m589.24,67.97c-1.25-.21-2.43-1.1-3.53-1.71-1.28-.71-2.55-1.42-3.83-2.13-.54-.3-1.09-.58-1.58-.96-.53-.41-.98-.92-1.45-1.4-1.04-1.08-2.09-2.16-3.13-3.23-.22-.23.08-.62.3-.39,1,1.03,2,2.06,2.99,3.09.43.45.86.92,1.33,1.33.52.46,1.13.77,1.73,1.1,1.22.68,2.44,1.36,3.66,2.04.62.35,1.25.69,1.87,1.04.55.31,1.09.62,1.71.72.31.05.24.55-.07.5h0Z"/><path class="cls-1" d="m572.84,61.89c-1.13-1.92.54-3.7,1.71-5,.7-.79,1.13-1.81,1.88-2.54.8-.77,1.82-1.21,2.56-2.06.69-.79,1.23-1.68,2.02-2.37s1.79-1.23,2.76-1.7c.53-.26,1.13-.51.82-1.22-.11-.25-.28-.52-.5-.67-.36-.24-.75-.06-1.09.15-.96.57-1.67,1.53-2.47,2.29-.62.59-1.48.98-2.15.21-.77-.87-1.11-2.26-1.25-3.38-.04-.32.45-.37.49-.04.08.59.21,1.17.42,1.73.18.49.45,1.31.94,1.57.54.29,1.11-.34,1.45-.68.4-.4.8-.81,1.2-1.21.57-.56,1.38-1.34,2.25-1.27.71.06,1.31,1.03,1.31,1.72,0,.92-1.06,1.19-1.7,1.51-.98.49-1.93,1.08-2.68,1.9-.7.77-1.22,1.68-2,2.37-.84.75-1.89,1.18-2.54,2.14-.32.47-.58.97-.94,1.41-.37.47-.8.89-1.19,1.34-.78.9-1.62,2.28-.9,3.5.16.28-.23.58-.39.3h0Z"/><path class="cls-1" d="m577.12,45.71c-.26-2,.42-3.91,1.14-5.71.1-.26.52-.13.47.15-.24,1.42.21,2.82.92,4.05.19.32.39.63.6.94s.44.69.78.86c.48.23.82-.17.8-.65-.02-.36-.16-.72-.25-1.07-.67-2.61-.78-5.32-.33-7.95.05-.32.54-.23.49.09-.29,1.68-.35,3.4-.17,5.11.1.89.26,1.78.49,2.65.16.62.45,1.33.09,1.93-.31.52-.93.58-1.43.28-.63-.38-1.06-1.21-1.42-1.82-.81-1.37-1.32-2.92-1.06-4.51l.47.15c-.69,1.73-1.35,3.55-1.1,5.46.04.32-.45.37-.49.04h0Z"/><path class="cls-1" d="m581.27,36.35c.15-1.36.3-2.72.49-4.08.18-1.21.35-2.46.78-3.61.21-.55.52-1.06.76-1.6.29-.67.34-1.24.14-1.95-.31-1.07.03-2.11.39-3.1.11-.3.56-.09.45.21-.19.54-.39,1.08-.46,1.66-.07.64.19,1.15.25,1.77.12,1.14-.61,2.08-1.01,3.06-.47,1.14-.63,2.42-.81,3.65-.2,1.35-.35,2.72-.49,4.08-.04.32-.52.24-.49-.09h0Z"/><path class="cls-1" d="m584.11,27.87c.76,1.62,1.46,3.35,1.85,5.1.09.42.09,1.03-.42,1.15-.54.13-.86-.44-.85-.91,0-.36.14-.72.21-1.07.08-.4.14-.8.2-1.2.12-.8.2-1.61.28-2.42.17-1.61.36-3.21.8-4.77.04-.13.21-.18.32-.12.69.33,1.18,1.06,1.64,1.66.52.69,1,1.42,1.42,2.17.83,1.5,1.44,3.13,1.71,4.83.23,1.45.19,2.95-.12,4.37-.16.69-.38,1.37-.67,2.02-.14.3-.29.59-.45.87-.2.35-.62.76-.61,1.19l-.27-.23c.77-.09,1.54-.18,2.31-.27.31-.04.37.47.05.5-.77.09-1.54.18-2.31.27-.12.01-.27-.1-.27-.23,0-.64.47-1.1.76-1.63.32-.57.58-1.19.78-1.82.43-1.4.55-2.91.4-4.38-.17-1.63-.69-3.21-1.42-4.67-.39-.78-.85-1.53-1.36-2.24-.47-.66-1.03-1.59-1.77-1.95l.32-.12c-.68,2.38-.72,4.88-1.09,7.32-.09.57-.23,1.12-.32,1.68,0,.05-.14.88.29.5.06-.05-.04-.39-.05-.45-.08-.33-.18-.66-.28-.98-.42-1.36-.93-2.69-1.54-3.98-.14-.3.32-.47.46-.18h0Z"/><path class="cls-1" d="m591.56,40.24c2.54.37,4.92,1.49,7.03,3.01,1.08.78,2.1,1.66,3.05,2.61.64.64,2.18,1.88,1.57,2.9-.33.56-.89,1.05-1.35,1.49-.49.47-1.04.89-1.65,1.17-.66.3-1.39.42-2.11.54-.76.13-1.53.26-2.31.32-2.83.23-5.77-.57-8.43-1.57-.63-.24-1.25-.55-1.72-1.05-.19-.21-.45-.5-.46-.81s.21-.49.34-.73c.83-1.58-.5-3.38-2.19-3.2-.31.03-.37-.47-.05-.5,1-.11,2.05.35,2.59,1.25s.44,1.93,0,2.84c-.61,1.27,2.45,2.01,3.2,2.24,1.3.4,2.61.76,3.95.94,1.41.19,2.8.12,4.2-.1,1.48-.23,2.86-.45,4.03-1.46.51-.44,1.01-.95,1.42-1.48.27-.36.16-.64-.09-1s-.55-.69-.86-1.01c-.84-.87-1.74-1.69-2.68-2.43-2.23-1.75-4.77-3.06-7.55-3.47-.32-.05-.24-.54.07-.5h0Z"/><path class="cls-1" d="m584.58,42.3c-.25-1.99-.49-4.03-.05-6,.07-.31.56-.23.49.09-.43,1.93-.19,3.92.05,5.87.04.32-.45.37-.49.04h0Z"/><path class="cls-1" d="m586.03,40.71c.53-.63.81-1.51,1.1-2.28.32-.83.59-1.68.78-2.55.4-1.84.29-3.67.1-5.54-.03-.32.46-.37.49-.04.2,1.97.3,3.89-.14,5.82-.2.86-.47,1.7-.78,2.52s-.61,1.72-1.17,2.39c-.2.24-.59-.08-.39-.32h0Z"/><path class="cls-1" d="m587.83,45.36c.53.37,1.18.5,1.8.58.76.1,1.53.18,2.3.26.32.04.24.53-.07.5-.8-.09-1.61-.16-2.41-.28-.68-.1-1.34-.27-1.91-.67-.27-.19.04-.58.3-.39h0Z"/><path class="cls-1" d="m586.95,46.91c.82.58,1.81.91,2.76,1.18.89.26,1.8.45,2.71.58,1.88.27,3.77.3,5.66.24.32-.01.37.49.05.5-1.98.07-3.98.03-5.96-.27-1.84-.28-3.96-.73-5.53-1.85-.26-.19.04-.58.3-.39h0Z"/><path class="cls-1" d="m578.43,55.88c-.9.98.81,1.93,1.49,2.32.9.51,1.82.97,2.77,1.37s1.93.76,2.93,1.05c1.05.31,2.15.57,3.22.28l.05.49c-1.88-.2-3.42-1.42-4.75-2.73-.79-.78-1.54-1.59-2.29-2.4-.45-.48-.89-.96-1.33-1.45-.33-.37-.65-.73-.66-1.25,0-.32.49-.37.49-.04,0,.55.55.98.89,1.36.37.41.75.82,1.13,1.23.71.77,1.43,1.54,2.18,2.27,1.24,1.21,2.66,2.33,4.41,2.52.24.02.29.42.05.49-1.19.33-2.39.07-3.56-.28s-2.44-.81-3.61-1.35c-1.11-.5-2.31-1.05-3.28-1.8-.71-.55-1.23-1.61-.53-2.38.21-.23.6.09.39.32h0Z"/><path class="cls-1" d="m579.83,53.54l.07-.43c0-.06.05-.12.1-.16.03-.02.06-.03.09-.04.03-.01.06-.01.1,0,.06.01.12.05.16.1s.06.12.05.19l-.07.43c0,.06-.05.12-.1.16-.03.02-.06.03-.09.04-.03.01-.06.01-.1,0-.06-.01-.12-.05-.16-.1s-.06-.12-.05-.19h0Z"/><path class="cls-1" d="m564.01,60.67c-1.18.45-1.91-1.44-.73-1.89s1.91,1.44.73,1.89h0Z"/><path class="cls-1" d="m565.88,59.51c-.08-.17-.12-.36-.16-.55-.02-.1-.03-.21-.03-.31-.02-.13,0-.26.04-.39.03-.13.08-.24.16-.34.08-.11.18-.19.3-.24.11-.08.24-.12.37-.12h.26c.17.04.32.11.46.22l.18.19c.11.15.17.32.19.5,0,.11.01.22.04.33l-.06-.26c.02.09.06.18.1.27.05.13.08.26.06.4,0,.13-.02.26-.07.38-.05.12-.12.23-.22.31-.09.1-.19.17-.32.22l-.26.06c-.17.01-.34-.01-.5-.09l-.22-.14c-.14-.12-.24-.26-.31-.43h0Z"/><path class="cls-1" d="m564.87,57.48c-.37.29-.85.4-1.31.42-.22.01-.44.02-.65-.03-.36-.09-.67-.26-.9-.56-.07-.09-.12-.2-.17-.3-.01-.03-.02-.05-.03-.08-.03-.11-.07-.22-.07-.33,0-.26.03-.56.22-.76.16-.16.32-.33.5-.47.06-.05.12-.09.18-.13.13-.08.27-.16.42-.22.28-.11.54-.12.83-.1.2.01.42.08.6.19.22.13.35.23.52.43.02.02.04.05.06.08.06.1.12.21.17.32.09.25.09.53-.01.77-.1.23-.31.45-.54.53s-.52.09-.75-.03-.43-.31-.53-.57c-.01-.03-.02-.05-.04-.08l.13.24s-.05-.07-.08-.1l.18.19s-.06-.06-.1-.08l.22.14c-.05-.03-.1-.05-.16-.07l.24.08c-.06-.02-.13-.03-.2-.04h.26c-.07,0-.15.01-.22.03l.26-.06c-.09.02-.17.06-.25.1l.23-.13c-.19.11-.35.26-.51.41l.18-.18s-.03.03-.04.04l.2-.47v.02c0-.09,0-.17,0-.26,0,.02,0,.04,0,.07l-.06-.26s.02.06.03.08l-.13-.24s.03.05.05.08l-.18-.19s.06.05.09.08l-.22-.14s.07.04.11.05l-.24-.08c.07.02.15.03.22.04h-.26c.22,0,.45-.02.67-.07l-.26.06c.09-.02.18-.05.26-.1l-.23.13s.08-.05.12-.08c.2-.15.49-.22.74-.18.23.04.5.2.64.4.15.22.24.5.19.77s-.17.48-.38.65h0Z"/></g><g><path class="cls-3" d="m648.89,31.4c-2.49,2.71-6.75,3.3-10.06,1.22-3.69-2.32-4.81-7.06-2.52-10.6s7.14-4.52,10.83-2.2c2.3,1.45,3.61,3.85,3.7,6.3"/><path class="cls-3" d="m641.8,40.26c1.96.46,3.89,1.24,5.69,2.38,8.38,5.27,10.94,16.06,5.73,24.09-5.22,8.03-16.24,10.27-24.61,5s-10.94-16.06-5.73-24.09c3.22-4.95,8.64-7.7,14.28-7.85"/><path class="cls-2" d="m640.9,30.53c-1.67-.67-2.87-2.41-2.86-4.17,0-.67-1.06-.72-1.07-.05,0,2.24,1.48,4.35,3.62,5.21.27.11.59-.08.67-.33.09-.28-.09-.55-.36-.66h0Z"/><path class="cls-2" d="m623.67,60.56c-1.14-3.55-.62-7.42,1.45-10.47.37-.55-.53-1.13-.9-.58-2.21,3.26-2.81,7.46-1.58,11.26.21.64,1.25.43,1.04-.22h0Z"/><path class="cls-2" d="m649.04,31.8c.59-.73,1.39-1.49,2.43-1.44s1.59.98,1.69,1.89c.21,1.87-1.24,3.46-3.02,3.88-1.97.46-3.99-.12-5.97-.3-1.6-.15-3.28,0-4.15,1.46-.4.66-.61,1.59-.21,2.32s1.32.92,2.11,1c.55.05.57-.78.02-.83-.49-.05-1.1-.09-1.37-.56s-.06-1.12.22-1.54c.57-.91,1.58-1.11,2.61-1.07,2.08.08,4.12.72,6.21.47,1.72-.21,3.24-1.1,3.98-2.65.64-1.33.65-3.19-.57-4.28-1.63-1.44-3.64-.12-4.7,1.2-.33.42.39.87.72.46h0Z"/><path class="cls-2" d="m650.4,25.96c.19.82.97,1.31,1.8,1.36.56.04,1.1-.11,1.64-.21.67-.13,1.34-.19,2.02-.16,2.77.1,5.3,1.38,7.53,2.95.45.32.9-.38.46-.69-1.92-1.35-4.05-2.48-6.38-2.91-1.08-.2-2.19-.24-3.27-.09-.82.11-2.68.81-2.97-.42-.12-.52-.95-.35-.83.17h0Z"/><path class="cls-2" d="m636.85,40.26c2.19-.68,1.18-3.37-.54-4.03-2.96-1.13-5.68,1.76-8.72,1.01-1.48-.36-2.88-1.78-2.37-3.33.32-.97,1.51-1.72,2.4-.86.71.68.61,1.88.33,2.71-1.12,3.29-5.4,4.11-8.45,4.79-3.35.74-6.74,1.44-9.53,3.46-.44.32.15.94.58.62,3.1-2.24,7.01-2.72,10.68-3.62,2.97-.73,6.47-1.87,7.53-4.98.4-1.16.38-2.71-.6-3.65-.84-.8-2.11-.68-2.94.02-2.01,1.71-.63,4.55,1.53,5.44,1.55.64,3.27.38,4.78-.13.94-.32,1.86-.74,2.86-.86.73-.09,1.53,0,2.14.45.58.43,1.3,1.78.11,2.14-.52.16-.32.97.2.81h0Z"/></g><g><path class="cls-1" d="m691.29,39.51l.41-1.8c.09-.39.13-.92.33-1.26.43-.71,1.63-.15,2.2-.03s1.89.1,1.99,1.01c.05.43-.11.93-.19,1.35-.11.62-.21,1.25-.32,1.87l-.27-.54c1.2.31,2.35.8,3.44,1.46.17.1.2.3.18.49-.14,1.18-.4,2.33-.77,3.45-.05.17-.2.34-.38.32-1.23-.15-2.44-.4-3.63-.76l.44-.2c-.39.93-.79,1.86-1.18,2.8-.07.16-.29.26-.44.2-1.06-.45-2.14-.85-3.23-1.18-.17-.05-.28-.23-.29-.42-.02-1.14.15-2.24.53-3.3l.18.49-1.64-.85c-.4-.21-.98-.37-1.26-.77s-.09-.85.02-1.26c.18-.66.37-1.31.55-1.97.06-.22.27-.38.48-.31,1.05.36,2.11.72,3.16,1.08.48.16.28,1.01-.21.84-1.05-.36-2.11-.72-3.16-1.08l.48-.31c-.13.47-.27.95-.4,1.42-.07.25-.15.51-.21.77s-.11.22.07.38c.31.27.8.41,1.16.6l1.35.7c.14.07.24.33.18.49-.35.99-.52,2-.5,3.07l-.29-.42c1.09.34,2.17.73,3.23,1.18l-.44.2c.39-.93.79-1.86,1.18-2.8.07-.17.29-.25.44-.2,1.13.34,2.27.59,3.43.73l-.38.32c.37-1.12.63-2.27.77-3.45l.18.49c-1.03-.63-2.11-1.08-3.25-1.37-.22-.06-.31-.31-.27-.54.13-.78.27-1.56.4-2.34.01-.08.11-.4.08-.47-.04-.08-.14-.08-.24-.1-.36-.08-.71-.15-1.07-.23-.32-.07-.64-.14-.96-.21-.48-.1-.49-.13-.61.41l-.51,2.25c-.12.54-.88.31-.75-.23h0Z"/><path class="cls-1" d="m712.25,47.79c-.45-.52-1.07-1.01-1.75-.98s-1.11.74-1.26,1.41c-.19.84.48,1.41,1.08,1.74s1.37.41,1.96,0,.65-1.27.14-1.79c-.37-.38.18-1,.55-.62.7.72.77,1.96.14,2.76s-1.77.97-2.67.65-1.95-1.13-2.02-2.3c-.03-.55.16-1.14.43-1.6s.63-.83,1.1-1c1.04-.39,2.15.32,2.85,1.14.35.41-.2,1.02-.55.62h0Z"/><path class="cls-1" d="m718.43,45.24c-.45-.52-1.07-1.01-1.75-.98s-1.11.74-1.26,1.41c-.19.84.48,1.41,1.08,1.74s1.37.41,1.96,0,.65-1.27.14-1.79c-.37-.38.18-1,.55-.62.7.72.77,1.96.14,2.76s-1.77.97-2.67.65-1.95-1.13-2.02-2.3c-.03-.55.16-1.14.43-1.6s.63-.83,1.1-1c1.04-.39,2.15.32,2.85,1.14.35.41-.2,1.02-.55.62h0Z"/><path class="cls-1" d="m715.68,54.12c-.45-.52-1.07-1.01-1.75-.98s-1.11.74-1.26,1.41c-.19.84.48,1.41,1.08,1.74s1.37.41,1.96,0,.65-1.27.14-1.79c-.37-.38.18-1,.55-.62.7.72.77,1.96.14,2.76s-1.77.97-2.67.65-1.95-1.13-2.02-2.3c-.03-.55.16-1.14.43-1.6s.63-.83,1.1-1c1.04-.39,2.15.32,2.85,1.14.35.41-.2,1.02-.55.62h0Z"/><path class="cls-1" d="m722.4,51.7c-.45-.52-1.07-1.01-1.75-.98s-1.11.74-1.26,1.41c-.19.84.48,1.41,1.08,1.74s1.37.41,1.96,0,.65-1.27.14-1.79c-.37-.38.18-1,.55-.62.7.72.77,1.96.14,2.76s-1.77.97-2.67.65-1.95-1.13-2.02-2.3c-.03-.55.16-1.14.43-1.6s.63-.83,1.1-1c1.04-.39,2.15.32,2.85,1.14.35.41-.2,1.02-.55.62h0Z"/><path class="cls-1" d="m703.43,37.05c-.65-1.61,0-3.42-1.17-4.84s-3.11-2.03-4.76-2.58c-3.08-1.02-7.05-1.66-9.59,1.09-.36.39-.92-.23-.55-.62,2.68-2.89,6.78-2.45,10.08-1.4,1.73.55,3.66,1.15,5.03,2.51.58.58,1.08,1.33,1.27,2.18.24,1.06-.04,2.2.37,3.22.2.51-.47.95-.68.44h0Z"/><path class="cls-1" d="m703.98,36.7c1.28.89,2.72,1.31,4.19,1.6,1.44.28,3.09.73,4.51.12,1.27-.55,2.27-1.29,3.68-1.35,1.29-.05,2.59.32,3.77.86,2.37,1.07,4.53,2.61,5.54,5.33,1.11,2.99,1.71,6.37,2.18,9.55.9,6.07.96,12.71-1.23,18.48-.95,2.49-2.61,4.68-5.1,5.18-2.27.45-4.25-.76-5.53-2.81-3.12-5-3.09-12.54-8.13-15.92-2.61-1.75-5.53-3.09-8.43-4.1-1.54-.53-3.06-.81-4.64-.36-1.45.41-2.79,1.2-4.13,1.91-2.73,1.44-5.43,3.05-8.25,4.27-2.09.9-5.27,1.79-7.11-.16s-1.98-4.88-1.49-7.4c.56-2.82,1.89-5.47,3.26-7.88,1.39-2.44,3.02-4.73,4.83-6.8s3.86-4.14,6.1-5.62c2.46-1.62,5.24-1.62,7.95-.89,1.88.5,4.57,1.46,5.14,3.83.26,1.07-.75,3.42.61,3.77.49.12.28.97-.21.84-.79-.2-1.27-.99-1.31-1.87-.03-.66.2-1.29.21-1.94.01-.7-.3-1.28-.73-1.76-.82-.92-2-1.43-3.1-1.78-1.38-.44-2.81-.74-4.24-.7-2.89.08-5.12,1.99-7.23,3.99-1.9,1.8-3.65,3.8-5.2,5.98-1.56,2.2-2.92,4.59-4.03,7.1s-2,5.35-1.29,8.07c.4,1.51,1.26,2.92,2.73,3.22,1.37.28,2.82-.05,4.12-.54,2.71-1.01,5.28-2.62,7.85-3.98,2.27-1.2,4.68-2.83,7.28-2.79,2.63.04,5.35,1.44,7.72,2.6s4.84,2.33,6.46,4.53,2.35,4.93,3.27,7.46,1.63,5.45,3.35,7.41c1.91,2.17,4.92,1.89,6.8-.18s2.55-5.2,3.01-7.94c.52-3.06.57-6.2.34-9.29s-.8-6.32-1.53-9.4c-.35-1.46-.67-3-1.28-4.35-.64-1.41-1.66-2.37-2.87-3.15-2.25-1.46-5.07-2.62-7.58-1.3-1.14.6-2.11,1.12-3.4,1.05s-2.58-.34-3.83-.64c-1.22-.3-2.39-.74-3.44-1.48-.43-.3-.03-1.05.4-.75h0Z"/><path class="cls-1" d="m687.56,30.97c-2.11,1.01-4.21,3.16-6.65,2-1.03-.49-1.57-1.43-1.74-2.64-.09-.66-.11-1.38-.44-1.96s-.93-.92-1.54-.95c-.5-.03-.5-.9,0-.87,1,.06,1.94.66,2.36,1.7s.15,2.56.98,3.44c.87.93,2.2.86,3.26.45,1.19-.47,2.21-1.35,3.36-1.91.46-.22.86.53.4.75h0Z"/></g><g><g><path class="cls-1" d="m755.45,23.06c-4.65,1.09-9.29,3.45-11.67,7.75-1.1,1.98-1.61,4.22-.93,6.37.63,1.98,2.02,3.65,3.73,4.82,2.17,1.49,4.77,2.24,7.31,2.91.14.04.27-.04.32-.17.74-1.65,2.09-3.76,4.22-3.54,1.06.11,1.8,1,2.32,1.84s.86,1.74,1.03,2.7c.17.94.21,2.04-.12,2.96-.38,1.05-1.37,1.56-2.4,1.8-1.38.32-4.07.78-4.89-.71-.29-.52-.26-1.16-.21-1.74.04-.5.09-1.03.29-1.5.17-.41.68-1.02,1.21-.89.44.11.24.66.22.99s-.05.66-.07.99.49.34.51.01c.03-.4.06-.79.09-1.19.02-.27.12-.64,0-.9-.16-.37-.68-.45-1.05-.39-1.09.19-1.51,1.28-1.64,2.22-.16,1.1-.26,2.41.65,3.21.75.65,1.86.73,2.83.68,1.17-.06,2.46-.19,3.51-.77s1.57-1.61,1.68-2.78c.12-1.27-.09-2.56-.56-3.73-.44-1.1-1.18-2.33-2.24-2.95s-2.38-.41-3.4.25c-1.2.77-1.9,2.04-2.46,3.29l.32-.17c-4.07-1.07-8.56-2.53-10.4-6.6-1.85-4.11,1.02-8.56,4.41-11.04,2.22-1.63,4.83-2.61,7.49-3.23.32-.08.22-.57-.11-.49h0Z"/><path class="cls-1" d="m751,23.35c-1.16-1.75-4.01-1.67-5.53-.37-.73.62-1.24,1.53-1.28,2.47-.05,1.14.57,2.15,1.24,3.01.2.26.58-.1.38-.35-.58-.74-1.13-1.62-1.11-2.6.02-.81.44-1.56,1.05-2.11.64-.57,1.48-.88,2.33-.88s1.96.31,2.47,1.07c.18.27.64.03.46-.24h0Z"/><path class="cls-1" d="m761.59,43.46c1.5-.55,3.04-.98,4.6-1.3,1.32-.27,3.26-.83,4.22.4.2.25.58-.1.38-.35-.97-1.23-2.72-.91-4.09-.66-1.77.32-3.51.8-5.21,1.42-.31.11-.21.61.11.49h0Z"/><path class="cls-1" d="m766.37,42.06c.64,1.27,1.79,2.13,3.05,2.77,1.35.68,2.82,1.27,4.29,1.68,2.73.76,5.91.44,7.61-2.14s1.22-5.68.22-8.31c-1.1-2.88-2.97-5.46-5.37-7.4-2.19-1.77-4.81-2.99-7.61-3.54-1.35-.26-2.73-.38-4.11-.32-1.53.06-3.03.36-4.55.51-.79.08-1.63.15-2.41.03-1.16-.17-.64-1.56-.44-2.31.42-1.55.94-3.18,2.11-4.37,1.28-1.3,2.91-1.41,4.62-1.33.85.04,1.7.1,2.49.39.75.28,1.43.71,2.11,1.13,1.38.85,2.76,1.72,3.97,2.8.56.5,1.08,1.05,1.53,1.65.5.68.84,1.43,1.23,2.17.6,1.16,1.57,2.03,2.99,1.91,1.19-.1,2.16-.95,2.49-2.07.17-.57.17-1.17,0-1.73-.1-.31-.6-.19-.5.12.41,1.31-.33,2.9-1.8,3.16-.76.14-1.54-.1-2.06-.65s-.81-1.33-1.17-2.02c-1.37-2.6-3.93-4.25-6.38-5.77-1.28-.79-2.5-1.41-4.04-1.55-1.4-.12-2.97-.22-4.3.36s-2.22,1.74-2.82,2.97c-.31.64-.54,1.31-.75,1.99s-.44,1.37-.5,2.07c-.05.53.06,1.11.56,1.39.52.3,1.28.25,1.86.23,1.47-.03,2.92-.31,4.38-.48,2.81-.32,5.64.03,8.25,1.02,2.8,1.07,5.24,2.89,7.09,5.19s3.44,5.43,3.53,8.51c.04,1.43-.28,2.9-1.13,4.1-.91,1.31-2.37,2.03-3.95,2.14s-3.08-.32-4.51-.85-2.83-1.06-4.01-1.95c-.63-.47-1.15-1.05-1.5-1.76-.15-.29-.6-.05-.46.24h0Z"/><path class="cls-1" d="m783.93,43.11c4.87,2.21,9.17,6,10.65,11.22.67,2.38.77,4.95.07,7.37-.14.47-.32,1.51-.8,1.77-.29.16-.77.14-1.09.18-.43.05-.86.08-1.29.09-1.33.05-2.66-.03-3.95-.33-3.04-.69-5.74-2.58-6.91-5.47-.07-.17-.36-.18-.45,0-1.46,2.91-3.87,5.22-6.6,7-1.29.84-2.97,2.11-4.47,1.12-1.42-.94-1.61-2.85-1.65-4.41-.07-2.89.57-5.82,1.84-8.46.62-1.29,1.38-2.51,2.28-3.62.23-.29.47-.57.72-.84.15-.16.29-.33.49-.43.26-.13.49-.09.77-.04.67.13,1.33.23,2.02.23,3.09-.02,6.09-1.65,7.83-4.19.19-.27-.25-.53-.43-.26-1.81,2.65-5.08,4.23-8.28,3.9-.63-.06-1.41-.41-2.04-.16s-1.11,1.01-1.51,1.52c-.96,1.2-1.77,2.51-2.41,3.9-1.3,2.78-1.93,5.87-1.78,8.9.08,1.54.36,3.22,1.64,4.23,1.26,1,2.65.59,3.95-.17,3.31-1.92,6.34-4.52,8.06-7.95h-.45c1.07,2.64,3.44,4.55,6.17,5.42,1.34.43,2.77.63,4.19.64.73,0,1.45-.03,2.18-.1.56-.06,1.34-.03,1.73-.53s.55-1.21.71-1.78c.18-.62.31-1.25.39-1.88.18-1.33.14-2.68-.07-4-.43-2.72-1.61-5.24-3.33-7.37-2.09-2.58-4.89-4.53-7.93-5.91-.29-.13-.57.3-.28.43h0Z"/><path class="cls-1" d="m765.81,23.56c.72-.86,1.66-1.55,2.72-1.95.13-.05.23-.16.2-.3-.02-.12-.17-.24-.3-.19-1.15.43-2.17,1.14-2.96,2.08-.09.11-.12.25-.01.36.09.09.27.11.36,0h0Z"/><path class="cls-1" d="m763.12,23.19c.72-1.12,1.69-2.07,2.85-2.75.29-.17.05-.61-.24-.44-1.24.72-2.28,1.73-3.05,2.93-.18.28.26.54.43.26h0Z"/><path class="cls-1" d="m759.88,23.54c.44-.66.73-1.39,1.19-2.04s1.01-1.22,1.63-1.7c.26-.2-.09-.57-.35-.36-.64.5-1.2,1.09-1.67,1.75s-.77,1.43-1.23,2.1c-.18.27.25.54.43.26h0Z"/><path class="cls-1" d="m783.07,47.29c4.44,1.12,6.7,5.41,8.41,9.21.13.3.59.05.46-.24-1.77-3.92-4.14-8.29-8.71-9.45-.32-.08-.48.4-.16.49h0Z"/><path class="cls-1" d="m782.68,49.28c1.75,2.11,2.8,4.66,3.68,7.23.1.3.61.19.5-.12-.91-2.66-1.99-5.28-3.8-7.46-.21-.25-.58.1-.38.35h0Z"/><path class="cls-1" d="m775.61,51.19c-.61,2.39-.85,4.85-.67,7.29.02.32.54.34.51.01-.17-2.4.04-4.82.65-7.16.08-.32-.41-.46-.49-.14h0Z"/><path class="cls-1" d="m773.81,50.15c-2.14,3.65-3.27,7.8-3.29,11.96,0,.33.51.34.51.01.01-4.08,1.11-8.14,3.21-11.72.17-.28-.27-.55-.43-.26h0Z"/><path class="cls-1" d="m775.24,32.09c.1.07.19.14.29.22-.07-.06.03.03.06.05.05.04.1.09.15.13.08.08.16.16.23.24,0,.01.07.08.03.03-.04-.05,0,0,.01.02.04.06.07.11.1.17.01.03.03.05.04.08.01.02.03.11.01.03s.01.05.01.07c0,0,.02.06.01.07.01-.02,0-.09,0-.03,0,0,0,.07,0,.07,0-.01.02-.11,0-.01,0,.05.02-.04.02-.04-.04.07.01,0,.03-.02-.08.09.01,0,.01,0,0,0-.06.04-.08.04.01,0,.11-.03,0,0-.02,0-.05.01-.07.02-.02,0-.03,0-.05,0-.1.02,0-.02.02,0,0,0-.24-.01-.25,0,0,0,.1.02.05,0-.02,0-.04,0-.06-.01-.05-.01-.09-.02-.14-.04-.02,0-.04-.01-.06-.02-.07-.02.03,0,.03.01,0-.01-.09-.05-.1-.05-.03-.02-.06-.04-.09-.06-.02-.01-.03-.02-.05-.04-.09-.06.06.06.02.01-.06-.05-.12-.11-.17-.16-.02-.03-.05-.08-.08-.1,0,0,.07.11.02.03-.01-.02-.03-.04-.04-.07-.02-.03-.04-.06-.05-.1,0-.02-.02-.04-.03-.06-.04-.08.01.03.01.04,0-.03-.03-.09-.04-.12,0-.04-.02-.08-.02-.12-.02-.09,0,.03,0,.03,0,0,0-.07,0-.08,0-.05,0-.12.01-.17,0,.01-.03.1,0,.02.01-.03.02-.06.03-.09.02-.06-.05.07,0,.02,0-.01.01-.02.02-.03.02-.03.01-.02-.03.03,0-.02.05-.03.05-.05,0,.02-.1.05-.02.02-.12.05-.07.02-.03.02-.07,0-.09,0-.05,0,.03,0,.02,0-.01,0-.02.02-.04-.02.02,0s-.09-.05-.02,0c-.09-.06-.06-.05-.03-.02-.05-.06-.07-.11-.07-.19.01.26.19.52.49.52.26,0,.55-.21.54-.49-.01-.23-.07-.41-.23-.57-.15-.15-.37-.24-.59-.25-.45-.02-.8.27-.97.66-.26.57-.07,1.23.28,1.7.33.44.84.72,1.4.78.3.03.65-.02.91-.18.39-.23.54-.63.49-1.06-.08-.8-.8-1.34-1.4-1.78-.21-.16-.58-.05-.71.17-.15.26-.07.53.16.69h0Z"/><path class="cls-1" d="m772.97,34.35c.15.29.61.04.46-.24s-.61-.04-.46.24h0Z"/><path class="cls-1" d="m775.68,35.97c.3.57,1.22.09.92-.49s-1.22-.09-.92.49h0Z"/><path class="cls-1" d="m749.1,24.42c-.2-.24-.46-.44-.75-.58-.06-.03-.12-.05-.19-.03-.06.01-.13.06-.16.12s-.05.12-.03.19.05.13.11.16c.15.07.29.15.41.25l-.05-.04c.11.08.2.18.29.28s.27.1.36,0c.1-.11.11-.25.01-.36h0Z"/><path class="cls-1" d="m747.48,25.18l-.61-.57c-.1-.09-.26-.11-.36,0-.09.1-.12.26-.01.36l.61.57c.1.09.26.11.36,0,.09-.1.12-.26.01-.36h0Z"/><path class="cls-1" d="m758.18,44.45c.25.98.32,1.99.23,3-.03.33.48.34.51.01.1-1.05.02-2.12-.24-3.13-.08-.31-.58-.2-.5.12h0Z"/></g><path class="cls-1" d="m774.97,33.1c.48.89,1.97.1,1.5-.79s-1.97-.1-1.5.79h0Z"/></g></svg>