<?xml version="1.0" encoding="UTF-8"?><svg id="Layer_1" xmlns="http://www.w3.org/2000/svg" width="45" height="45" viewBox="0 0 45 45"><defs><style>.cls-1{fill:#fee5d5;}.cls-2{fill:#a17c6b;}</style></defs><rect class="cls-1" x=".69" y=".78" width="43.12" height="43.12" rx="5.15" ry="5.15"/><g><path class="cls-2" d="m22.37,24.96c.05,5.2.09,10.4.14,15.6,0,.8,1.26.81,1.25,0-.05-5.2-.09-10.4-.14-15.6,0-.8-1.26-.81-1.25,0h0Z"/><path class="cls-2" d="m29.88,24.96c.05,5.2.09,10.4.14,15.6,0,.8,1.26.81,1.25,0-.05-5.2-.09-10.4-.14-15.6,0-.8-1.26-.81-1.25,0h0Z"/><path class="cls-2" d="m23.25,41.27c2.42-.16,4.84-.16,7.26.02.8.06.8-1.19,0-1.25-2.42-.18-4.84-.18-7.26-.02-.8.05-.8,1.3,0,1.25h0Z"/><path class="cls-2" d="m22.95,24.02h-3.12c-.33-.01-.64.28-.62.61s.27.62.62.62h3.12c.33.01.64-.28.62-.61s-.27-.62-.62-.62h0Z"/><path class="cls-2" d="m22.95,18.33h-3.12c-.33-.01-.64.28-.62.61s.27.62.62.62h3.12c.33.01.64-.28.62-.61s-.27-.62-.62-.62h0Z"/><path class="cls-2" d="m20.43,24.42c-.07-1.76-.09-3.53-.08-5.3,0-.8-1.24-.81-1.25,0-.01,1.77.01,3.53.08,5.3.03.8,1.28.81,1.25,0h0Z"/><path class="cls-2" d="m30.5,19.46c1.59-.09,3.17-.06,4.76-.02.8.02.8-1.23,0-1.25-1.59-.03-3.18-.06-4.76.02-.34.02-.62.27-.62.62,0,.32.29.64.62.62h0Z"/><path class="cls-2" d="m30.47,25.36c1.37,0,2.73-.03,4.1-.12.33-.02.64-.27.62-.62-.01-.32-.28-.65-.62-.62-1.36.09-2.73.13-4.1.12-.33,0-.64.29-.62.62s.27.62.62.62h0Z"/><path class="cls-2" d="m35.22,24.81c.61-1.88,1.07-3.8,1.37-5.75.06-.36-.16-.83-.6-.79-.11,0-.15,0-.25-.04-.31-.13-.69.14-.77.44-.1.36.12.64.44.77.18.08.39.1.59.09l-.6-.79c-.3,1.95-.76,3.87-1.37,5.75-.25.77.96,1.09,1.21.33h0Z"/><path class="cls-2" d="m23.54,18.79c-.02-3.06-.56-6.82,1.98-9.11,1.19-1.07,2.81-1.24,4.34-1.3,1.86-.07,3.71-.09,5.57-.1.8,0,.81-1.25,0-1.25-2.03,0-4.08,0-6.1.13-1.71.1-3.39.46-4.69,1.64-2.82,2.56-2.37,6.57-2.34,9.99,0,.8,1.26.81,1.25,0h0Z"/><path class="cls-2" d="m34.84,7.85v5.3c0,.8,1.24.81,1.24,0v-5.3c0-.8-1.24-.81-1.24,0h0Z"/><path class="cls-2" d="m35.33,12.67c-1.03-.11-2.06-.11-3.09.01-.86.1-1.78.29-2.32,1.03-.27.37-.35.82-.39,1.27-.05.54-.05,1.08-.06,1.62,0,.51-.01,1.01-.02,1.52,0,.25-.04.52.03.76.09.31.39.52.71.52.25,0,.56-.2.6-.46v-.03c.06-.33-.08-.67-.43-.77-.3-.08-.71.1-.77.44v.03c.2-.15.4-.31.6-.46h-.03c.11.03.21.06.32.08l.05.04.16.28c-.03-.1.01-.39.02-.53,0-.22,0-.43,0-.65,0-.42.01-.83.02-1.25s0-.82.06-1.22c.03-.24.12-.47.25-.58.45-.37,1.17-.39,1.73-.44.85-.07,1.71-.05,2.56.04.34.04.62-.31.62-.62,0-.37-.29-.59-.62-.62h0Z"/><path class="cls-2" d="m24.65,24.01c1.57.29,3.37.05,4.16-1.54.37-.74.45-1.51.23-2.3-.2-.71-.85-1.54-1.59-1.8-.17-.1-.17-.08,0,.05.14.1.26.23.35.37.14.37.18.42.12.16.05.38.06.47.05.27.01-.45-.05-.91-.07-1.35-.04-.86-.11-1.71-.1-2.57,0-.07.08-1.07.06-1.09-.06.39-.06.45-.01.17l.03-.16s.18-.62.18-.62c.04.02-.3.56.02.02s-.03-.04-.02-.02c.07-.08.15-.16.23-.24.21-.18.17-.15-.1.07,0-.08.4-.23.45-.26.45-.26-.42.11.05-.01.23-.06.46-.14.69-.19.15-.03.39-.13.53-.1-.34.04-.41.05-.22.03.09-.01.18-.02.27-.03,1.03-.1,2.06-.11,3.09-.06l-2.5-2.5c0,.11.01.22.02.33.08,1.3,1.1,2.56,2.5,2.5,1.29-.06,2.58-1.1,2.5-2.5,0-.11-.01-.22-.02-.33-.08-1.4-1.08-2.43-2.5-2.5-1.85-.1-3.92-.07-5.69.52-2.04.68-3.55,2.1-4.2,4.17-.49,1.59-.36,3.3-.27,4.94.05.98.02,2.03.25,2.99.14.6.49,1.19.92,1.63.21.22.48.41.75.56.09.04.17.08.26.12.23.13.17.08-.2-.14l-.64-1.1c-.12-1.38.44-2.16,1.68-2.34-.29-.01-.26,0,.08.02-1.28-.23-2.76.35-3.08,1.75-.28,1.22.37,2.82,1.75,3.08h0Z"/><path class="cls-2" d="m28.61,18.47c.87-1.4,1.54-2.97,1.91-4.57.15-.65.09-1.35-.25-1.93-.3-.52-.9-1.01-1.49-1.15-.64-.15-1.36-.11-1.93.25-.54.35-1,.86-1.15,1.49-.17.71-.39,1.41-.68,2.08l.25-.6c-.28.66-.61,1.29-.99,1.89-.34.54-.42,1.32-.25,1.93s.61,1.21,1.15,1.49c.58.31,1.28.46,1.93.25s1.14-.58,1.49-1.15h0Z"/><path class="cls-2" d="m23.29,19.27l-.54-.18c-1.4-.48-3.37.83-3.16,2.41.02.18.05.37.07.55.09.66.21,1.29.73,1.77.49.45,1.09.74,1.77.73,2.18-.03,4.36-.06,6.55,0s4.98.56,6.33-1.75c.92-1.57-.23-3.87-2.16-3.76-.99.05-1.98.07-2.97.06-.1,0-.61-.08-.66-.02.77,0,1.34.45,1.71,1.32.05.43.07.54.04.34,0-.88-.38-1.64-.94-2.29-.86-.99-2.66-.95-3.54,0-.97,1.05-.92,2.48,0,3.54-.26-.3-.53-.77-.51-1.18,0,.26.06.61.12.86.1.42.29.81.55,1.15.67.87,1.58,1.2,2.65,1.27,1.18.08,2.38.03,3.56-.04l-2.16-3.76c.15-.22.34-.4.57-.54-.17.09-.14.08.07-.02.22-.09.24-.1.05-.04-.26.05-.18.04.25-.03-.24-.08-.66,0-.92-.01-.96-.05-1.93-.09-2.89-.1-1.9-.03-3.79,0-5.69.02l2.5,2.5c-.02-.18-.05-.37-.07-.55l-3.16,2.41.54.18c1.24.42,2.79-.49,3.08-1.75.32-1.39-.42-2.62-1.75-3.08h0Z"/><path class="cls-2" d="m23.36,25.5c0,.69.1,1.4.28,2.06.26.96,1.11,1.66,2.08,1.79,1.07.14,1.87-.37,2.49-1.19-.37.49.03.02.1-.06l.14-.13c-.18.17-.39.28-.63.35l-1.93-.25.1.05-.9-.9c-.21-.89-.29-1.08-.24-.58v.22c.02.22.04.44.05.66.02.44.04.89.06,1.33.03.85.06,1.7.08,2.55.04,1.74.04,3.47.01,5.21l1.84-2.41c-.12.04-.23.08-.35.11-.23.06-.46-.01.16-.01.24,0,.55.09.75.23l.83,1.03c.05.38.06.46.04.24-.03-.68-.11-1.36-.17-2.03-.11-1.36-.23-2.71-.34-4.07s-1.07-2.56-2.5-2.5c-1.26.06-2.62,1.1-2.5,2.5.16,1.86.31,3.71.47,5.57.12,1.41.3,2.79,1.65,3.58.99.58,2.24.54,3.29.18s1.82-1.26,1.84-2.41c.04-2.55.01-5.1-.09-7.65-.02-.63-.05-1.26-.09-1.88-.05-.94-.06-1.86-.66-2.64-.83-1.07-2.34-1.31-3.5-.63-.76.45-1.32,1.13-1.84,1.82l4.57.6c-.04-.15-.15-.44-.13-.59l.04.26c0-.13-.01-.27-.01-.4-.01-1.31-1.14-2.56-2.5-2.5s-2.51,1.1-2.5,2.5h0Z"/><path class="cls-2" d="m24.5,40.33c2.41,0,2.42-3.75,0-3.75s-2.42,3.75,0,3.75h0Z"/><path class="cls-2" d="m25.68,40.68c2.41,0,2.42-3.75,0-3.75s-2.42,3.75,0,3.75h0Z"/><path class="cls-2" d="m27.73,40.62c2.41,0,2.42-3.75,0-3.75s-2.42,3.75,0,3.75h0Z"/><path class="cls-2" d="m28.35,40.68c2.41,0,2.42-3.75,0-3.75s-2.42,3.75,0,3.75h0Z"/><path class="cls-2" d="m33.93,22.18c2.41,0,2.42-3.75,0-3.75s-2.42,3.75,0,3.75h0Z"/></g><path class="cls-2" d="m28.51,27.64c3.22,0,3.22-5,0-5s-3.22,5,0,5h0Z"/><path class="cls-2" d="m24.99,30.45c3.22,0,3.22-5,0-5s-3.22,5,0,5h0Z"/><path class="cls-2" d="m21.67,24.83c3.22,0,3.22-5,0-5s-3.22,5,0,5h0Z"/><path class="cls-2" d="m21.6,23.74c3.22,0,3.22-5,0-5s-3.22,5,0,5h0Z"/><path class="cls-2" d="m28.19,20.86c3.22,0,3.22-5,0-5s-3.22,5,0,5h0Z"/><path class="cls-2" d="m29.08,14.86c3.22,0,3.22-5,0-5s-3.22,5,0,5h0Z"/><path class="cls-2" d="m33.36,12.23c3.22,0,3.22-5,0-5s-3.22,5,0,5h0Z"/><path class="cls-2" d="m33.17,13.7c3.22,0,3.22-5,0-5s-3.22,5,0,5h0Z"/><path class="cls-2" d="m32.53,25.15c3.22,0,3.22-5,0-5s-3.22,5,0,5h0Z"/><path class="cls-2" d="m28.38,40.74c3.22,0,3.22-5,0-5s-3.22,5,0,5h0Z"/></svg>