<?xml version="1.0" encoding="UTF-8"?><svg id="Layer_1" xmlns="http://www.w3.org/2000/svg" width="50" height="50" viewBox="0 0 50 50"><defs><style>.cls-1{fill:#d18229;}</style></defs><path class="cls-1" d="m18.13,24.46c.41-.36.74-.8.93-1.36.29-.83.12-2.3.99-2.76.8-.42,1.84-.61,2.7-.9.17-.06.09-.34-.08-.28-.82.27-1.64.54-2.46.82-.53.18-.94.32-1.07.92-.14.67-.11,1.36-.33,2.02-.33.99-1.05,1.57-1.95,1.99-3.4,1.6-7.15.2-10.65-.38-2.45-.41-5.77.02-6.24,3.07-.21,1.35.21,2.75.59,4.04.46,1.55,1.03,3.11,1.99,4.41.84,1.14,1.97,2.11,3.31,2.53.91.28,1.86.22,2.78.4,1.11.22,2.44,1.06,1.96,2.42-.06.18.22.25.28.08h0c.39-1.11-.37-2.13-1.36-2.55-1.4-.59-2.96-.25-4.35-.95-2.92-1.47-4.17-5.13-4.8-8.17-.36-1.72-.15-3.46,1.38-4.46,1.45-.94,3.26-.77,4.89-.46,3.08.59,6.28,1.59,9.37.65.76-.23,1.52-.57,2.11-1.09"/><path class="cls-1" d="m22.85,19.4l2.03-.63c.62-.19,1.26-.35,1.87-.59.97-.39.96-1.43.83-2.36-.04-.29-.09-.58-.15-.86-.04-.21-.06-.5-.23-.65-.35-.3-.96.13-1.28.26-1.25.52-2.51,1.03-3.81,1.42-.72.22-1.47.43-2.22.5-.13.01-.41.05-.52-.06s-.15-.4-.11-.52.12-.24.21-.34c.28-.34.69-.58,1.09-.74.17-.07.09-.35-.08-.28-.56.23-2.07,1.12-1.43,1.97.23.31.64.3.97.25.66-.09,1.31-.25,1.95-.43,1.3-.37,2.56-.88,3.82-1.39.28-.11.59-.32.89-.37.52-.1.52.57.59.95.1.59.25,1.35-.04,1.9-.21.4-.62.5-1.01.62-.36.11-.73.23-1.09.34l-2.34.73c-.17.05-.1.34.08.28h0Z"/><path class="cls-1" d="m20.57,14.8c.26-.09.53-.19.81-.24.15-.03.3-.04.45-.04l.28.04c.3.01.36.15.18.41-.11.38-.12.31-.45.41-.13.04-.26.07-.39.11-.32.09-.65.18-.97.27-.77.21-1.67.5-1.69,1.48-.01.77.25,1.74,1.1,1.87.42.07.85-.08,1.24-.2.65-.2,1.31-.37,1.98-.53,1.1-.25,2.26-.49,3.19-1.17.25-.19.47-.34.46-.68-.01-.58-.31-1.29-.54-1.81-.4-.89-1.09-.76-1.86-.48-.21.07-.45.17-.68.14-.59-.07-1.02-.95-.52-1.4s1.32-.59,1.93-.76c.28-.07.57-.17.87-.17.6,0,.63.49.78.92.1.3.32.62.67.6,1.14-.06-.21-2.69.94-3.12.17-.06.09-.35-.08-.28-.94.35-.73,1.57-.7,2.39,0,.13.09.99-.47.52-.08-.06-.12-.33-.14-.42-.07-.22-.11-.44-.27-.62-.21-.23-.5-.3-.79-.28-.48.02-.97.19-1.42.33-.53.16-1.15.36-1.58.72-.54.45-.2,1.36.33,1.71.9.59,2.02-.9,2.7.21.19.31.31.76.4,1.11.12.41.21.69-.1,1.05-.41.47-1.25.69-1.81.85-1.22.36-2.47.63-3.69.96-.29.08-.63.17-.93.07-.45-.14-.59-.6-.67-1.02-.06-.32-.11-.69.05-.98.19-.36.61-.52.97-.63.65-.21,1.32-.34,1.97-.55.32-.1.75-.26.74-.69-.02-1.09-1.88-.57-2.37-.4-.17.06-.09.35.08.28h0Z"/><path class="cls-1" d="m28.4,10.43c1.38-.45,2.77-.86,4.18-1.22.74-.19,1.64-.52,2.4-.25s1.19.98,1.52,1.67c.19.4,1.09,2.03.47,2.28-.18.07-.72-.13-.92-.17-.26-.05-.53-.09-.79-.12-1.25-.15-2.4.13-3.5.71-2.12,1.12-3.63,2.86-3.98,5.35-.17,1.2-.06,2.43.18,3.62.22,1.09.45,2.37,1.32,3.13.14.12.34-.09.2-.21-.87-.77-1.09-2.16-1.29-3.26-.22-1.21-.29-2.46-.05-3.66.48-2.43,2.26-4.14,4.44-5.03,1.17-.48,2.3-.45,3.53-.22.34.06,1.29.47,1.46-.04.09-.28-.13-.77-.22-1.03-.16-.47-.35-.93-.56-1.38-.33-.73-.8-1.47-1.54-1.83-.95-.46-2.08-.01-3.02.23-1.32.34-2.62.73-3.92,1.15-.17.06-.09.34.08.28h0Z"/><path class="cls-1" d="m29.37,25.35c.82,1.11,1.95,1.86,3.23,2.29,1.36.46,3.05.74,4.46.51.62-.1,1.13-.39,1.69-.67.69-.34,1.49-.46,2.08-.98,1.05-.92,1.49-2.6,1.95-3.89.52-1.45.35-2.83-.11-4.3s-1.36-2.41-2.53-3.25-2.42-1.4-3.77-1.61c-.91-.14-2.54-.3-3.23.46-.43.48-.33,1.24-.23,1.83s.34,1.18.92,1.38c.61.21,1.32-.17,1.95-.15,1.16.04,2.21.74,2.54,1.93.05.18.33.11.27-.08-.25-.89-.86-1.58-1.7-1.91-.43-.17-.89-.24-1.35-.23-.73.02-1.66.51-2.15-.3-.22-.36-.24-.87-.27-1.28-.03-.57.14-1.05.68-1.26s1.28-.22,1.88-.18c1.18.08,2.33.47,3.37,1.05,1.1.62,2.27,1.47,2.9,2.61.67,1.22,1.13,3.09.79,4.44-.29,1.18-.8,2.42-1.36,3.49-.39.75-.89,1.23-1.68,1.53-.54.2-1.04.42-1.55.67-1.46.71-3.24.49-4.79.1-1.46-.37-2.82-1.1-3.75-2.36-.11-.15-.36,0-.24.15h0Z"/><path class="cls-1" d="m38.33,18.97c.36,1.14.69,2.37.05,3.45s-1.73,1.85-2.94,2-2.3-.35-3.09-1.27c-.86-.98-1.47-2.49-.94-3.76.48-1.16,1.78-1.54,2.91-1.68.56-.07,1.15-.07,1.66.23.66.38,1.02,1.12,1.19,1.84.13.56.33,1.5-.07,1.97-.31.36-.8.25-.93-.22-.09-.33,0-.69.03-1.01.09-1.03-.1-2.12-1.04-2.69-1.93-1.18-4.71-.44-5.43,1.8-.06.18.22.25.28.08.48-1.5,1.97-2.26,3.46-2.12.75.07,1.68.35,2.13,1.03s.36,1.52.28,2.29c-.04.46,0,1.04.45,1.29.38.21.83.02,1.06-.32.32-.46.24-1.11.16-1.64-.1-.67-.29-1.34-.7-1.89-.8-1.05-2.02-1.05-3.17-.81s-2.25.8-2.61,2.01c-.73,2.42,1.59,5.18,3.94,5.2,1.39.01,2.65-.76,3.45-1.89.86-1.22.59-2.6.15-3.96-.06-.18-.33-.1-.27.08h0Z"/><path class="cls-1" d="m29.69,19.69c-.41,2.61.93,5.25,3.35,6.27s5.69.78,7.29-1.37,1.12-5.45-.46-7.46-5.09-2.58-7.44-1.97c-2.98.78-4.18,3.98-3.61,6.91.04.19.31.11.27-.08-.48-2.43.3-5.18,2.6-6.26,2.1-.98,5.17-.59,7.09.76,2.03,1.42,2.77,4.88,1.78,7.09-1.12,2.52-4.07,2.93-6.47,2.4-2.78-.61-4.6-3.35-4.14-6.22.03-.19-.25-.26-.28-.08h0Z"/><path class="cls-1" d="m29.76,25.49l-.23-.22s-.06-.04-.1-.04-.08.02-.1.04-.04.06-.04.1.02.08.04.11l.23.22s.06.04.1.04.08-.02.1-.04.04-.06.04-.1-.02-.08-.04-.11h0Z"/><path class="cls-1" d="m29.54,25.62c.04.07.1.13.16.19.01.01.03.02.05.03.02,0,.03.01.05.01.02,0,.04,0,.06-.01.02,0,.03-.02.05-.03.02-.03.04-.06.04-.1s-.01-.08-.04-.11c-.04-.03-.07-.07-.1-.1l.02.03s-.02-.03-.04-.05c-.02-.03-.05-.06-.09-.07-.02,0-.04,0-.06,0-.02,0-.04,0-.05.02-.03.02-.06.05-.06.09s0,.08.02.11h0Z"/><path class="cls-1" d="m29.62,25.24c-.07-.06-.15-.12-.22-.18-.07-.05-.14-.11-.21-.16-.03-.02-.08-.02-.11-.01-.03,0-.07.04-.09.07s-.02.07-.01.11l.02.04s.03.04.05.05c.11.09.23.17.34.26l-.03-.02s.04.03.07.05c.03.03.06.04.1.04.04,0,.08-.02.1-.04.05-.06.06-.15,0-.21h0Z"/><path class="cls-1" d="m28.87,22.2c.38,1.28.82,2.48,1.52,3.62.36.57.74,1.12,1.08,1.7.08.13.15.26.22.4.16.3.21.37.14.72s-.08.33-.34.46c-.21.11-.43.21-.65.3-1.29.56-2.66.93-4.03,1.26-.66.16-1.33.3-2,.45-.7.15-1.91.47-2.18-.53-.05-.18-.32-.11-.27.08.41,1.5,2.42.77,3.4.55,1.75-.39,3.52-.81,5.17-1.52.44-.19,1.29-.39,1.34-.98s-.56-1.34-.85-1.79c-.45-.72-.95-1.42-1.34-2.18-.42-.82-.68-1.71-.95-2.59-.05-.18-.33-.11-.27.08h0Z"/><path class="cls-1" d="m22.62,30.67c-.77-1.84-1.41-3.72-1.89-5.65-.21-.83-.57-1.86-.47-2.71.14-1.13,1.17-1.71,2.14-1.98.87-.25,1.78-.37,2.67-.53.46-.09.49-.25.66.28s.05.43-.44.64-1.04.44-1.56.66c-1.06.45-2.34.74-2.32,2.15.02,1.5.46,3.34,1.3,4.6s2.03.81,3.22.49c.87-.24,1.73-.49,2.6-.71.6-.15,1.17-.25,1.58.37.19.28.27.62.46.91.74,1.15,2.25.64,3.31.44,2.07-.38,4.13-.83,6.16-1.4.53-.15,1.4-.26,1.73-.8.17-.28.08-.41.1-.7.03-.53.57-.51,1.02-.64.18-.05.1-.34-.08-.28-.4.12-1.13.15-1.32.6-.03.07.03.16.03.23-.06.52-.06.74-.41.94-.44.26-1.06.34-1.55.47-1.86.51-3.74.92-5.63,1.27-.79.15-2.18.64-2.9,0-.51-.45-.51-1.29-1.12-1.66-.45-.28-.99-.15-1.46-.03-.96.24-1.91.52-2.86.78-1.02.28-1.99.58-2.69-.51-.53-.83-.82-1.89-1.01-2.85-.2-1.01-.47-2.23.57-2.79.93-.49,1.95-.84,2.91-1.25.39-.17.94-.33,1.08-.8.12-.41-.1-.77-.51-.83-.64-.09-1.4.22-2.02.34-.89.17-1.83.29-2.63.74-.54.3-1.02.79-1.22,1.4-.26.77.02,1.65.2,2.42.51,2.22,1.21,4.38,2.09,6.48.07.17.35.1.27-.08h0Z"/><path class="cls-1" d="m42.91,26.02c.69-.09,1.38-.19,2.04-.38.57-.16,1.21-.39,1.65-.81.4-.39.41-.96.19-1.47-.09-.22-.22-.49-.45-.59-.25-.1-.53,0-.78.05-.38.09-.76.18-1.14.29-.2.06-.4.12-.6.19-.1.03-.64.24-.58-.05l-.1.1c.43-.17.87-.32,1.33-.43.4-.1.82-.13,1.2-.29.29-.12.53-.32.6-.64.08-.34-.04-.71-.16-1.03-.07-.18-.34-.1-.27.08.14.38.32.89-.05,1.19-.31.25-.79.26-1.16.35-.48.11-.95.25-1.42.43-.16.06-.29.1-.27.31.02.15.12.27.24.34.15.08.33.05.48,0,.25-.07.5-.16.74-.24.47-.14.94-.26,1.42-.36.25-.05.42-.06.57.19.11.19.2.42.23.64.06.5-.26.8-.65,1.02-.96.54-2.09.69-3.17.84-.18.02-.1.31.08.28h0Z"/><path class="cls-1" d="m46.16,21l-1.13-3.52c-.31-.98-.54-2.1-1.08-2.98-.48-.79-1.18-.63-1.97-.46-1.12.24-2.13.34-3.09-.47-.3-.25-.89-.86-.88-1.29.03-.76.95-.88,1.5-1.05s1.14-.31,1.72-.41c.65-.12,1.32-.28,1.7.45s.3,1.85-.58,2.15c-.48.16-1.09.09-1.59.06-.76-.04-1.37-.13-1.78-.87-.33-.58-.51-1.27-.66-1.91-.04-.19-.31-.11-.27.08.19.87.5,2.26,1.35,2.73.74.41,2,.37,2.8.24s1.27-.81,1.24-1.62c-.02-.72-.42-1.64-1.2-1.73-.43-.04-.9.09-1.32.17-.61.12-1.22.28-1.82.47-.56.18-1.51.37-1.41,1.17.09.75.76,1.46,1.35,1.84.73.47,1.55.57,2.38.41s1.8-.63,2.32.28c.37.66.56,1.44.79,2.16.45,1.4.89,2.79,1.34,4.19.06.18.33.1.27-.08h0Z"/><path class="cls-1" d="m38.37,10.68c-.55-.98.66-1.71,1.43-1.89.42-.1.97-.12,1.37.09.23.13.37.33.4.6.01.13,0,.28.08.4.15.25.42.15.64.1.44-.1.86-.09,1.18.29.27.31.45.7.7,1.03.26.36.56.68.88.98.14.13.33-.08.2-.21-.43-.4-.81-.85-1.13-1.36-.23-.36-.45-.78-.85-.98s-.74-.06-1.15-.02c-.16.02-.24.03-.26-.15-.01-.11,0-.21-.04-.31-.05-.19-.17-.36-.32-.49-1.18-1.01-4.36.31-3.38,2.06.09.17.34.02.24-.15h0Z"/></svg>