<?xml version="1.0" encoding="UTF-8"?><svg id="Layer_1" xmlns="http://www.w3.org/2000/svg" width="46.23" height="45" viewBox="0 0 46.23 45"><defs><style>.cls-1{stroke-width:1.5px;}.cls-1,.cls-2,.cls-3,.cls-4{fill:none;stroke:#fee6d5;stroke-miterlimit:10;}.cls-5{fill:#fee6d5;}.cls-2{stroke-width:.75px;}.cls-4{stroke-width:.5px;}</style></defs><rect class="cls-1" x="6.76" y="19.11" width="27.41" height="14.96" rx="1.2" ry="1.2"/><path class="cls-5" d="m18.11,33.87c-1.9,3.27-3.85,6.5-5.86,9.7-.66,1.05.96,2.03,1.61.98,2.01-3.2,3.96-6.43,5.86-9.7.62-1.08-.99-2.06-1.61-.98h0Z"/><path class="cls-5" d="m29.39,43.53c-2.05-3.17-4.04-6.38-5.98-9.62-.63-1.06-2.25-.08-1.61.98,1.94,3.24,3.93,6.45,5.98,9.62.67,1.03,2.29.06,1.61-.98h0Z"/><path class="cls-5" d="m34.99,24.02c3.11-1.54,6.23-3.08,9.34-4.62l-1.41-.84c-.03,5.62-.02,11.25.26,16.86l1.18-.94c-3.17-1.34-6.28-2.86-9.3-4.53-1.06-.58-2.01,1.1-.94,1.68,3.17,1.75,6.43,3.32,9.75,4.72.55.23,1.21-.36,1.18-.94-.28-5.62-.29-11.24-.26-16.86,0-.79-.78-1.15-1.41-.84l-9.34,4.62c-1.09.54-.14,2.22.94,1.68h0Z"/><ellipse class="cls-3" cx="13.1" cy="12.58" rx="6.64" ry="6.53"/><ellipse class="cls-1" cx="29.27" cy="10.18" rx="9.54" ry="8.93"/><ellipse class="cls-2" cx="25.82" cy="7.08" rx="2.32" ry="2.42"/><ellipse class="cls-2" cx="25.59" cy="13.63" rx="2.32" ry="2.42"/><ellipse class="cls-2" cx="32.84" cy="7.08" rx="2.32" ry="2.42"/><ellipse class="cls-2" cx="32.84" cy="13.63" rx="2.32" ry="2.42"/><ellipse class="cls-4" cx="10.66" cy="10.42" rx="1.69" ry="1.76"/><ellipse class="cls-4" cx="15.23" cy="10.42" rx="1.69" ry="1.76"/><ellipse class="cls-4" cx="10.66" cy="15.03" rx="1.69" ry="1.76"/><ellipse class="cls-4" cx="15.36" cy="14.89" rx="1.69" ry="1.76"/></svg>