<?xml version="1.0" encoding="UTF-8"?><svg id="Layer_1" xmlns="http://www.w3.org/2000/svg" width="810" height="90" viewBox="0 0 810 90"><defs><style>.cls-1{fill:#d18229;}.cls-2{fill:none;stroke:#d18229;stroke-miterlimit:10;}</style></defs><g><path class="cls-1" d="m537.36,40.02c-.85-.76-1.54-1.68-1.94-2.8-.6-1.68-.19-4.56-2.03-5.58-1.69-.93-3.88-1.42-5.7-2.09-.37-.13-.19-.69.18-.55,1.73.63,3.46,1.26,5.18,1.9,1.12.42,1.98.73,2.24,1.96.29,1.35.21,2.71.65,4.04.66,2,2.19,3.23,4.07,4.17,7.16,3.57,15.14,1.21,22.55.47,5.2-.52,12.21.71,13.14,6.8.41,2.7-.5,5.43-1.35,7.94-1.01,3.02-2.27,6.03-4.33,8.52-1.8,2.17-4.23,3.95-7.07,4.62-1.94.46-3.94.22-5.91.48-2.36.3-5.18,1.82-4.2,4.58.13.36-.46.47-.59.12h0c-.8-2.24.83-4.18,2.94-4.89,2.98-1.01,6.27-.15,9.23-1.38,6.21-2.57,8.96-9.68,10.37-15.63.8-3.37.41-6.84-2.81-8.99-3.04-2.03-6.89-1.9-10.33-1.48-6.53.81-13.33,2.44-19.85.21-1.61-.55-3.21-1.31-4.45-2.41"/><path class="cls-1" d="m527.51,29.46l-4.28-1.49c-1.31-.45-2.67-.84-3.94-1.39-2.05-.89-1.99-2.94-1.7-4.77.09-.57.2-1.13.33-1.69.09-.4.15-.98.51-1.26.74-.56,2.04.36,2.71.66,2.63,1.18,5.29,2.33,8.03,3.25,1.52.51,3.11,1.02,4.7,1.25.29.04.87.15,1.11-.06s.32-.77.25-1.02-.26-.49-.43-.69c-.59-.7-1.45-1.22-2.29-1.59-.35-.15-.18-.71.18-.55,1.18.51,4.36,2.46,2.98,4.07-.5.58-1.36.51-2.07.39-1.4-.25-2.77-.64-4.12-1.08-2.75-.89-5.41-2.03-8.04-3.2-.59-.26-1.25-.69-1.87-.84-1.1-.26-1.13,1.07-1.27,1.82-.22,1.15-.56,2.65.03,3.77.43.81,1.3,1.06,2.12,1.35.77.27,1.54.53,2.3.8,1.65.57,3.29,1.15,4.94,1.72.37.13.19.68-.18.55h0Z"/><path class="cls-1" d="m532.44,20.61c-.56-.21-1.12-.43-1.7-.56-.31-.07-.64-.12-.96-.13l-.6.04c-.64-.01-.78.25-.4.78.22.76.24.63.94.85.27.09.55.17.82.26.68.21,1.37.43,2.05.64,1.63.51,3.53,1.18,3.55,3.12.01,1.52-.57,3.41-2.37,3.58-.89.08-1.79-.26-2.62-.54-1.38-.47-2.77-.89-4.18-1.27-2.32-.63-4.77-1.22-6.73-2.68-.53-.4-.99-.72-.96-1.39.04-1.14.68-2.51,1.19-3.52.88-1.72,2.33-1.38,3.95-.75.44.17.95.39,1.43.36,1.26-.07,2.18-1.76,1.14-2.72s-2.78-1.33-4.06-1.72c-.59-.18-1.21-.4-1.83-.44-1.27-.07-1.34.89-1.67,1.74-.22.58-.7,1.19-1.43,1.12-2.41-.24.5-5.31-1.91-6.3-.36-.15-.19-.7.18-.55,1.98.81,1.51,3.19,1.42,4.82-.01.25-.21,1.95.99,1.08.16-.12.26-.64.32-.81.14-.43.24-.86.59-1.2.45-.44,1.06-.53,1.68-.47,1.01.09,2.04.49,2.99.82,1.11.38,2.42.84,3.32,1.61,1.14.96.39,2.72-.75,3.36-1.91,1.07-4.25-2.02-5.72.1-.41.6-.67,1.47-.88,2.16-.25.8-.46,1.35.18,2.08.85.98,2.62,1.5,3.82,1.9,2.57.84,5.21,1.52,7.79,2.33.61.19,1.32.4,1.96.24.95-.23,1.27-1.11,1.43-1.94.13-.62.24-1.35-.08-1.95-.39-.73-1.29-1.1-2.03-1.36-1.37-.48-2.79-.84-4.17-1.32-.67-.24-1.59-.61-1.56-1.45.08-2.15,3.99-.92,5.03-.51.36.14.19.69-.18.55h0Z"/><path class="cls-1" d="m515.97,11.03c-2.91-1.06-5.85-2.03-8.82-2.9-1.57-.46-3.45-1.23-5.07-.77s-2.55,1.8-3.26,3.13c-.41.77-2.37,3.9-1.05,4.46.38.16,1.53-.18,1.95-.23.56-.06,1.11-.12,1.68-.16,2.65-.16,5.07.54,7.39,1.82,4.45,2.47,7.62,6.08,8.29,11.06.32,2.4.07,4.82-.47,7.15-.49,2.14-1.02,4.65-2.88,6.06-.3.23-.71-.21-.41-.44,1.86-1.42,2.37-4.15,2.82-6.31.49-2.37.67-4.84.2-7.26-.95-4.87-4.68-8.46-9.26-10.48-2.46-1.09-4.86-1.15-7.48-.85-.72.08-2.74.78-3.09-.25-.19-.56.3-1.51.49-2.02.35-.91.77-1.81,1.21-2.67.73-1.42,1.73-2.82,3.3-3.44,2.03-.79,4.4.21,6.38.8,2.78.82,5.54,1.74,8.27,2.73.37.13.19.69-.18.55h0Z"/><path class="cls-1" d="m513.54,40.5c-1.77,2.11-4.18,3.46-6.9,4.17-2.89.76-6.47,1.11-9.45.5-1.31-.27-2.39-.91-3.56-1.51-1.45-.75-3.15-1.08-4.39-2.18-2.19-1.95-3.08-5.32-4.03-7.94-1.06-2.94-.67-5.65.34-8.52s2.94-4.61,5.44-6.14,5.16-2.49,8.03-2.76c1.93-.18,5.38-.31,6.84,1.29.9.99.66,2.48.45,3.65s-.76,2.3-1.99,2.62c-1.3.34-2.8-.49-4.12-.51-2.47-.05-4.7,1.21-5.43,3.52-.11.36-.69.17-.58-.18.55-1.73,1.86-3.02,3.64-3.6.91-.29,1.9-.38,2.86-.3,1.53.12,3.51,1.21,4.57-.35.47-.69.54-1.69.59-2.5.08-1.13-.27-2.09-1.41-2.57s-2.71-.58-3.99-.57c-2.49.02-4.94.66-7.16,1.69-2.34,1.09-4.85,2.66-6.21,4.85-1.45,2.33-2.46,6-1.78,8.71.59,2.37,1.63,4.88,2.79,7.06.82,1.53,1.86,2.55,3.51,3.22,1.14.46,2.19.95,3.27,1.51,3.08,1.58,6.86,1.34,10.15.75,3.1-.56,6.01-1.86,8-4.24.24-.29.75.04.51.32h0Z"/><path class="cls-1" d="m494.72,26.81c-.79,2.21-1.52,4.62-.2,6.84s3.62,3.87,6.17,4.3,4.87-.43,6.58-2.15c1.84-1.85,3.18-4.76,2.09-7.35-.99-2.36-3.74-3.26-6.12-3.66-1.18-.2-2.44-.26-3.53.26-1.41.68-2.18,2.1-2.56,3.51-.29,1.09-.75,2.92.1,3.9.64.75,1.68.59,1.98-.34.2-.64.03-1.36-.03-2.01-.17-2.06.27-4.19,2.27-5.22,4.12-2.12,9.98-.33,11.46,4.19.12.36-.47.48-.59.12-.99-3.02-4.12-4.71-7.26-4.59-1.59.06-3.57.49-4.54,1.79s-.79,2.98-.66,4.5c.08.92-.02,2.05-.99,2.5-.8.37-1.75-.06-2.23-.75-.67-.96-.48-2.22-.3-3.28.22-1.32.65-2.63,1.53-3.66,1.71-1.99,4.3-1.84,6.73-1.25s4.74,1.84,5.48,4.29c1.48,4.87-3.49,10.09-8.47,9.86-2.94-.14-5.6-1.82-7.27-4.15-1.8-2.51-1.18-5.22-.23-7.86.13-.35.7-.17.58.18h0Z"/><path class="cls-1" d="m513,29.25c.81,5.21-2.1,10.29-7.25,12.03-4.96,1.68-12.06.9-15.4-3.56-3.22-4.3-2.24-10.94,1.15-14.73s10.85-4.53,15.81-3.04c6.28,1.89,8.75,8.37,7.46,14.11-.08.36-.66.18-.58-.18,1.07-4.77-.5-10.3-5.35-12.7-4.42-2.18-10.93-1.76-15.04.69-4.34,2.59-5.98,9.34-3.96,13.84,2.31,5.13,8.54,6.27,13.64,5.51,5.89-.88,9.82-6.11,8.93-11.85-.06-.37.53-.49.59-.12h0Z"/><path class="cls-1" d="m512.71,40.72l.49-.41c.06-.05.14-.08.21-.07s.16.04.21.1.09.13.08.21-.04.15-.1.2l-.49.41c-.06.05-.14.08-.21.07s-.16-.04-.21-.1-.09-.13-.08-.21.04-.15.1-.2h0Z"/><path class="cls-1" d="m513.17,41c-.1.13-.21.25-.34.35-.03.03-.06.04-.1.05-.04.02-.07.02-.11.02-.04,0-.08-.01-.12-.03-.04-.01-.07-.04-.1-.07-.05-.06-.09-.13-.08-.21s.03-.16.1-.2c.08-.06.15-.12.22-.19l-.05.06s.05-.06.08-.1c.04-.06.11-.11.19-.12.04,0,.08,0,.12,0,.04,0,.08.02.11.04.06.04.12.11.13.18s0,.16-.04.22h0Z"/><path class="cls-1" d="m513.01,40.25c.15-.12.32-.22.48-.32.15-.1.3-.19.44-.29.06-.04.17-.04.23-.02.07.02.15.08.18.15s.05.15.02.22l-.03.07s-.07.08-.11.1c-.24.16-.48.31-.72.47l.06-.04s-.09.06-.14.1c-.06.05-.13.08-.21.07-.08,0-.16-.04-.21-.1-.1-.12-.11-.31.02-.41h0Z"/><path class="cls-1" d="m514.68,34.3c-.84,2.49-1.79,4.82-3.32,6.99-.77,1.09-1.59,2.13-2.32,3.24-.17.25-.33.5-.48.76-.34.57-.46.71-.33,1.41s.16.66.71.95c.45.24.9.46,1.36.67,2.73,1.25,5.62,2.16,8.51,2.96,1.4.39,2.81.76,4.22,1.12,1.48.38,4.03,1.14,4.64-.81.11-.36.69-.17.58.18-.91,2.93-5.14,1.25-7.2.71-3.7-.97-7.43-2.02-10.92-3.61-.92-.42-2.73-.93-2.82-2.1s1.22-2.59,1.84-3.46c.98-1.38,2.05-2.7,2.89-4.16.91-1.58,1.49-3.31,2.07-5.03.12-.35.7-.17.58.18h0Z"/><path class="cls-1" d="m527.69,51.81c1.67-3.55,3.07-7.21,4.15-10.98.46-1.61,1.26-3.61,1.06-5.32-.27-2.25-2.44-3.52-4.47-4.17-1.83-.59-3.76-.93-5.63-1.36-.97-.22-1.02-.55-1.41.48s-.13.85.92,1.33,2.19.99,3.28,1.49c2.23,1.01,4.94,1.73,4.86,4.52-.08,2.96-1.06,6.57-2.87,8.96-1.79,2.38-4.32,1.38-6.82.6-1.83-.57-3.65-1.16-5.49-1.7-1.26-.37-2.47-.62-3.36.54-.41.53-.59,1.2-.99,1.74-1.59,2.19-4.78,1.01-7.01.5-4.38-.99-8.73-2.12-13.01-3.48-1.13-.36-2.97-.67-3.65-1.78-.35-.57-.16-.82-.19-1.39-.05-1.06-1.2-1.08-2.14-1.39-.37-.12-.19-.68.18-.55.84.28,2.38.43,2.77,1.34.06.15-.08.31-.06.46.12,1.04.1,1.47.83,1.91.93.56,2.23.79,3.27,1.12,3.92,1.22,7.89,2.25,11.89,3.16,1.67.38,4.6,1.52,6.14.32,1.08-.84,1.12-2.5,2.41-3.16.97-.5,2.1-.18,3.09.12,2.02.59,4.02,1.25,6.03,1.87,2.15.67,4.21,1.39,5.71-.71,1.14-1.59,1.78-3.65,2.21-5.53.45-1.98,1.06-4.37-1.14-5.59-1.95-1.08-4.1-1.88-6.13-2.8-.83-.38-1.99-.76-2.27-1.71-.25-.83.24-1.52,1.11-1.58,1.35-.1,2.95.59,4.27.9,1.87.43,3.86.78,5.54,1.77,1.13.67,2.13,1.67,2.56,2.9.53,1.56-.08,3.27-.47,4.77-1.13,4.34-2.68,8.54-4.59,12.6-.16.33-.74.15-.58-.18h0Z"/><path class="cls-1" d="m484.85,40.25c-1.45-.26-2.91-.53-4.31-.99-1.2-.39-2.56-.91-3.47-1.8-.84-.82-.84-1.95-.37-2.93.21-.43.47-.95.98-1.12.53-.17,1.13.05,1.64.18.81.21,1.61.45,2.4.71.43.14.85.29,1.27.44.21.08,1.36.54,1.23-.04l.21.22c-.91-.39-1.84-.73-2.8-1.01-.84-.24-1.74-.36-2.54-.71-.6-.26-1.11-.69-1.26-1.33-.17-.69.1-1.39.36-2.02.14-.34.72-.16.58.18-.31.73-.7,1.73.07,2.36.65.53,1.67.61,2.45.82,1.02.27,2.01.61,2.99,1.01.34.14.62.23.56.64-.04.29-.26.52-.53.64-.32.14-.69.06-1.02-.04-.53-.17-1.04-.38-1.57-.55-.99-.33-1.99-.63-3.01-.88-.52-.13-.9-.17-1.22.3-.25.36-.44.81-.5,1.25-.14.98.54,1.62,1.36,2.09,2.03,1.18,4.4,1.6,6.68,2.02.38.07.2.62-.18.55h0Z"/><path class="cls-1" d="m478.09,29.94l2.48-6.85c.69-1.91,1.2-4.09,2.36-5.79,1.03-1.5,2.52-1.11,4.17-.69,2.36.61,4.5.92,6.55-.58.64-.47,1.91-1.6,1.89-2.46-.04-1.5-1.98-1.85-3.16-2.25s-2.4-.74-3.63-1.01c-1.38-.31-2.78-.71-3.62.69s-.69,3.64,1.17,4.33c1,.37,2.3.3,3.36.3,1.61,0,2.89-.1,3.8-1.52.71-1.11,1.12-2.45,1.44-3.72.09-.36.67-.18.58.18-.42,1.71-1.12,4.42-2.93,5.26-1.58.73-4.25.51-5.93.16s-2.66-1.75-2.59-3.35c.07-1.42.93-3.21,2.58-3.28.9-.04,1.91.28,2.78.48,1.3.31,2.58.69,3.83,1.14,1.18.43,3.19.9,2.97,2.47-.21,1.47-1.65,2.81-2.91,3.5-1.57.86-3.29.95-5.04.55s-3.8-1.45-4.92.29c-.81,1.26-1.21,2.79-1.72,4.18-.98,2.71-1.96,5.42-2.95,8.14-.13.35-.71.17-.58-.18h0Z"/><path class="cls-1" d="m494.86,10.39c1.19-1.87-1.35-3.46-2.98-3.91-.89-.24-2.04-.36-2.9.03-.5.23-.8.61-.87,1.14-.03.26-.03.56-.18.79-.33.48-.89.25-1.36.12-.93-.25-1.81-.27-2.5.44-.57.59-.97,1.34-1.5,1.97-.57.67-1.2,1.29-1.89,1.85-.29.24-.7-.2-.41-.44.92-.75,1.74-1.6,2.43-2.56.5-.7.97-1.5,1.82-1.84s1.58-.03,2.43.1c.34.05.5.08.55-.27.03-.21.02-.41.09-.62.11-.38.37-.7.69-.94,2.52-1.87,9.23,1.12,7.1,4.48-.2.32-.71,0-.51-.32h0Z"/></g><g><path class="cls-1" d="m611.46,6.48c-.44.33-.91.59-1.41.8-.24.1-.48.18-.72.24-.22.06-.49.08-.7.18-.31.15-.13.23.06.39.25.2.5.4.76.61.48.39.97.78,1.45,1.16.39.31.87.89,1.4.86s1.11-.25,1.63-.4c1.14-.31,2.25-.68,3.36-1.09.51-.19.74.62.24.81-1.36.5-2.75.94-4.16,1.3-.55.14-1.18.35-1.73.1-.27-.12-.5-.34-.74-.52-.32-.25-.63-.51-.95-.76-.61-.49-1.22-.98-1.83-1.47-.41-.33-.68-.76-.39-1.27s.92-.58,1.44-.72c.68-.19,1.3-.51,1.87-.94.43-.32.86.4.43.72h0Z"/><g><path class="cls-1" d="m657.44,36.01c-1.83,3.88-3.22,7.94-4.15,12.11l-.23-.5c.75.39,2.44-3.65,2.62-4.16.48-1.37.8-2.85.8-4.29-.01-1.78-1.17-2.75-2.56-3.72s-2.88-1.97-4.33-2.95c-5.83-3.96-11.7-7.87-17.6-11.74-.49-.32-.05-1.11.45-.78,5.49,3.6,10.96,7.25,16.4,10.93,1.35.91,2.69,1.83,4.04,2.74,1.11.76,2.37,1.48,3.31,2.45,1.76,1.82,1.3,4.52.68,6.72-.39,1.39-.99,2.74-1.77,3.97-.5.79-1.32,2.22-2.48,1.62-.19-.1-.27-.31-.23-.5.96-4.25,2.38-8.37,4.24-12.32.25-.52,1.06-.09.82.43h0Z"/><path class="cls-1" d="m631.84,20.45c-2.49-1.88-5.14-3.55-7.74-5.29-2.51-1.68-4.84-3.52-7.19-5.39s-5.06-3.31-7.68-4.89c-1.14-.69-2.17-1.6-3.33-2.24-.94-.52-1.74-.23-2.5.42-.54.46-1.17,1.01-1.33,1.7l-.59-.54c1.81-.41,3.59-.91,5.34-1.49.57-.19.83.67.27.86-1.76.59-3.54,1.08-5.34,1.49-.35.08-.66-.19-.59-.54.26-1.16,1.53-2.31,2.6-2.82,1.14-.54,2.18-.18,3.14.51,2.76,1.97,5.83,3.44,8.61,5.37s5.52,4.41,8.47,6.4,5.76,3.74,8.49,5.81c.47.36-.17,1-.64.65h0Z"/><path class="cls-1" d="m622.08,14.1c-.96.56-2.09.56-3.08,1.02-.25.12-.59.27-.43.57.13.23.46.41.66.57.5.38.99.77,1.49,1.15.53.4.97.56,1.63.33.58-.2,1.13-.48,1.71-.66,1.21-.39,2.49-.57,3.77-.58.6,0,.62.89.03.9-1.62,0-3.19.34-4.66.97-.61.26-1.25.52-1.93.35s-1.21-.68-1.74-1.09c-.79-.61-2.74-1.7-1.63-2.86.93-.96,2.58-.79,3.7-1.44.51-.3,1,.47.49.76h0Z"/><path class="cls-1" d="m632.53,19.97c.45,1.36-1.39,1.88-2.33,2.3-.35.16-.69.31-1.04.47-.09.04-.33.12-.41.2-.17.17-.07.26.06.46.37.58.91,1.11,1.45,1.55,1.18.95,2.81.41,4.12.03s2.61-.82,4-.79c.6.01.63.91.03.9-1.6-.04-3.07.6-4.59.98-1.39.35-2.86.56-4.06-.37-.58-.45-1.08-.99-1.53-1.56-.38-.48-.8-1.08-.35-1.65.41-.51,1.25-.72,1.83-.99.4-.18,2.13-.7,1.93-1.28-.18-.55.71-.81.89-.26h0Z"/><path class="cls-1" d="m642.78,27.74c-.64,1.07-1.87,1.31-3.02,1.59-.34.08-1.67.39-1.59.86.03.17.77.6.91.71.35.27.69.54,1.04.8.54.42,1.23,1.05,1.99.85.66-.18,1.27-.7,1.9-.98,1.32-.59,2.75-.9,4.21-.92.6,0,.62.89.03.9-1.77.03-3.42.52-4.93,1.41-.65.38-1.31.66-2.07.45s-1.39-.77-2-1.25c-.37-.29-.75-.58-1.12-.87-.29-.22-.67-.44-.83-.77-.3-.63.25-1.19.76-1.51,1.16-.72,3.17-.47,3.92-1.72.3-.5,1.12-.06.82.43h0Z"/><path class="cls-1" d="m656.52,35.98c-2.06-1.88-4.95-.78-6.94.56-1.86,1.25-3.52,2.9-5.99,2.5-1.24-.2-2.45-.69-3.64-1.07-1.39-.44-2.79-.88-4.18-1.33-2.78-.89-5.56-1.79-8.34-2.7-5.44-1.78-10.86-3.61-16.27-5.47-5.32-1.83-10.64-3.74-16.17-4.91-.7-.15-1.76-.53-2.46-.32s-1.06.99-1.39,1.56c-.68,1.19-1.4,2.52-1.2,3.93.11.8.53,1.24,1.01,1.86.26.33.43.62.4,1.05-.04.58-.41,1.19-.63,1.72-.32.77-.65,1.55-.97,2.32l-.18-.61c3.29,1.87,7.24,2.42,10.87,3.39s7.58,2.16,11.34,3.35c7.57,2.41,15.08,5.02,22.72,7.21,4.06,1.16,8.43,1.86,12.2,3.77.29.15.33.62.02.77-2.15,1.06-4.53.2-6.69-.41-2.68-.75-5.36-1.52-8.03-2.3-5.34-1.56-10.67-3.17-15.97-4.85s-10.59-3.4-15.86-5.18c-1.26-.43-2.52-.86-3.78-1.29s-2.73-1.04-4.12-.73c-1.21.27-2.22,1.3-1.7,2.55.56,1.33,2.08,1.86,3.44,1.98s2.8.03,4.19.22c1.52.21,3.01.61,4.5.98,3.13.76,6.25,1.53,9.38,2.29.58.14.36,1.01-.22.87-3.01-.74-6.01-1.47-9.02-2.21-1.38-.34-2.77-.71-4.18-.96-1.55-.27-3.08-.17-4.63-.3-1.93-.16-4.2-1.11-4.51-3.2-.3-1.97,1.7-3.21,3.53-3.2,1.23,0,2.41.44,3.55.84,1.49.51,2.97,1.02,4.46,1.52,2.86.97,5.73,1.91,8.61,2.85,5.75,1.87,11.53,3.67,17.32,5.4,3.25.97,6.5,1.92,9.75,2.85,1.63.47,3.26.93,4.89,1.38,1.48.41,3.12.84,4.58.13l.02.77c-3.5-1.77-7.54-2.42-11.3-3.49s-7.56-2.26-11.31-3.47c-7.56-2.45-15.07-5.02-22.75-7.1-3.92-1.06-8.22-1.64-11.78-3.66-.24-.13-.28-.38-.18-.61.28-.66.55-1.33.83-1.99.34-.81.91-1.61.24-2.36s-1.03-1.68-1.01-2.7c.02-1.12.45-2.18.98-3.16.44-.82.91-1.88,1.75-2.41.99-.62,2.27-.19,3.33.03,1.43.3,2.86.65,4.27,1.04,2.83.78,5.61,1.69,8.39,2.64,11.53,3.94,23.06,7.89,34.72,11.47.8.25,1.61.48,2.46.37.79-.11,1.49-.48,2.14-.91,1.18-.78,2.23-1.7,3.51-2.34,2.11-1.06,4.79-1.29,6.64.4.44.4-.2,1.05-.64.65h0Z"/><path class="cls-1" d="m612.11,46.77c5.67,1.5,11.28,3.24,16.79,5.23,2.68.97,5.34,1.99,7.98,3.07,1.19.49,2.38.99,3.56,1.5.77.33,2.45.72,2.57,1.72.29,2.36-4.74.27-5.54.03-2.93-.87-5.87-1.75-8.8-2.64-5.74-1.74-11.48-3.51-17.2-5.31-6.54-2.06-13.07-4.15-19.58-6.28-.56-.18-.35-1.06.22-.87,10.59,3.47,21.21,6.83,31.86,10.09,5.27,1.61,10.55,3.2,15.83,4.77.34.1,1.22.52,1.58.44,1.08-.22.1-.51-.12-.61-.32-.14-.64-.28-.96-.42-1.18-.51-2.37-1.01-3.56-1.5-2.56-1.05-5.15-2.05-7.75-2.99-5.62-2.03-11.33-3.81-17.12-5.35-.58-.15-.36-1.02.22-.87h0Z"/><path class="cls-1" d="m592.28,43.98c-.7.67-1.31,1.4-1.82,2.22-.2.32-.46.68-.57,1.04s-.21.37.11.55c.21.12.62.1.88.15,2.1.38,4.18.85,6.24,1.38,4.16,1.08,8.26,2.39,12.36,3.66,8.56,2.65,17.11,5.29,25.67,7.94,2.07.64,4.21,1.18,6.24,1.94.9.34,2.03,1.5,1.01,2.37-1.08.93-3.37-.23-4.44-.7-1.94-.85-3.89-1.64-5.9-2.31-3.99-1.33-8.2-1.89-12.15-3.31-1.96-.7-3.86-1.54-5.81-2.25s-4.01-1.34-6.04-1.94c-4.65-1.36-9.33-2.62-14-3.92-1.16-.32-2.33-.72-3.51-.98-.42-.09-.77-.19-1.18-.02-.52.23-.67.54-.11.89.43.27,1.21.37,1.71.52,2.39.72,4.79,1.45,7.18,2.17.57.17.35,1.04-.22.87-2.17-.66-4.33-1.31-6.5-1.97-.9-.27-1.94-.46-2.79-.86-.55-.26-.82-.79-.7-1.37.37-1.71,2.47-1.2,3.68-.87,2.19.61,4.37,1.22,6.56,1.83,4.33,1.21,8.69,2.35,12.97,3.7s8.07,3.27,12.3,4.31,8.2,1.96,12.16,3.53c.67.26,6.12,2.85,6.22,1.72.06-.65-2.71-1.19-3.18-1.34l-3.54-1.1c-8.85-2.74-17.7-5.48-26.55-8.21-4.71-1.46-9.42-2.96-14.24-4.07-1.21-.28-2.43-.53-3.65-.75-.62-.11-1.75-.08-1.92-.86-.15-.68.59-1.65.92-2.19.55-.88,1.21-1.68,1.96-2.4.42-.41,1.1.21.68.62h0Z"/><path class="cls-1" d="m598.21,53.23c10.34,3.11,20.69,6.2,31.03,9.32,2.53.77,5.06,1.54,7.58,2.34,1.03.33,2.11.6,3.12,1,.72.29,1.44.94,1.08,1.77-.25.58-.9.69-1.48.53-1.31-.35-2.6-.96-3.88-1.4-2.37-.81-4.77-1.55-7.19-2.2-1.43-.39-3.22-1.1-4.47.05-.91.84-1.6,1.97-2.27,3-1.45,2.26-2.56,4.69-3.34,7.23l-.46-.56c1.66.09,2.57-1.56,3.19-2.81.74-1.49,1.3-3.06,1.66-4.68.16-.69.33-1.41.28-2.12-.08-.99-.75-1.37-1.63-1.67-1.73-.59-3.49-1.12-5.24-1.68s-3.49-1.12-5.24-1.68c-.82-.26-1.63-.52-2.45-.78-.77-.25-1.21-.57-1.97.15-.21.2-.37.53-.53.78-1.75,2.69-2.85,5.7-3.3,8.85l-.9-.22c1.25-3.18,1.18-6.75.85-10.09-.09-.9-1.11-1.11-1.85-1.41-.95-.38-1.9-.74-2.86-1.08-1.67-.59-3.35-1.13-5.06-1.61-.86-.24-1.78-.59-2.67-.68-1.15-.12-1.56.85-2.04,1.68-.84,1.46-1.57,2.98-2.17,4.54-.53,1.41-1.4,3.26-.99,4.79.43,1.61,2.34,2.07,3.8,2.4.58.13.36,1-.22.87-2.57-.58-4.93-1.77-4.55-4.69.19-1.47.77-2.92,1.33-4.29.63-1.54,1.37-3.04,2.23-4.47.67-1.12,1.37-1.92,2.84-1.69,1.75.27,3.53.9,5.21,1.44s3.32,1.12,4.94,1.75c1.1.43,2.71.76,2.95,2.07.31,1.67.26,3.54.2,5.23-.06,1.87-.35,3.71-1.03,5.46-.21.54-.99.36-.9-.22.43-2.96,1.42-5.82,2.97-8.4.54-.91,1.24-2.47,2.55-2.4.75.04,1.57.43,2.27.66.87.28,1.75.56,2.62.84,1.75.56,3.49,1.12,5.24,1.68,1.6.51,3.27.93,4.82,1.56,2.75,1.11,1.53,4.6.85,6.64-.73,2.21-2.12,6.33-5.18,6.17-.29-.01-.56-.26-.46-.56.62-2.02,1.44-3.98,2.47-5.84.93-1.68,2.05-3.7,3.57-4.97,1.63-1.36,3.86-.48,5.67.02,2.36.65,4.7,1.38,7.01,2.18,1.03.36,2.05.74,3.07,1.12l.48.17c.17-.37.1-.58-.22-.62-.21-.16-.65-.22-.9-.3-.68-.22-1.37-.43-2.05-.65-2.41-.76-4.82-1.5-7.23-2.23-4.92-1.49-9.86-2.96-14.78-4.45-5.53-1.66-11.06-3.32-16.59-4.98-.57-.17-.35-1.04.22-.87h0Z"/><path class="cls-1" d="m593.02,22.65c.49,2.11.89,4.26,1.48,6.35.28.99.73,1.88,1.68,2.43.86.49,1.89.65,2.86.82l-.56.33c.66-2.08.81-4.25.38-6.39-.07-.35.19-.62.56-.56,1.36.22,2.69.54,4,.98.19.07.35.22.35.42.03,1.66.25,3.3.72,4.9.24.83.44,1.51,1.25,1.95.69.37,1.49.61,2.24.83.71.21,4.33,1.35,4.14-.09-.09-.68-.67-1.5-.96-2.13-.33-.73-.66-1.46-.99-2.19-.12-.27.16-.57.43-.58,1.64-.04,3.4-.04,4.8.91s1.53,2.26,1.55,3.81c.03,2.04,1.8,3.01,3.54,3.74.55.23,1.1.44,1.67.61.42.13.4.14.86-.08.51-.24.45-.27.5-.76.1-1.05.17-2.11.25-3.16.02-.27.18-.42.45-.46.96-.15,2.05-.27,2.96.17.97.47,1.35,1.46,1.57,2.42.3,1.3.28,2.74,1.07,3.89.73,1.06,2.01,1.79,3.34,1.88.35.02.82.06,1.08-.18s.21-.59.2-.95c-.03-.73-.18-1.45-.17-2.18,0-.92.24-1.9.92-2.57,1.46-1.41,3.86-.5,4.85.98,1.64,2.45.42,5.67,2.14,8.08l-.8.02c1-1.59,1.78-3.28,2.32-5.08.17-.55,1.07-.34.9.22-.56,1.86-1.36,3.63-2.41,5.29-.19.29-.6.3-.8.02-.86-1.2-1.07-2.61-1.19-4.02s-.13-3.3-1.26-4.46c-1.3-1.33-3.36-1.04-3.69.88-.21,1.27.67,3.12-.12,4.25-.61.88-2.2.66-3.1.41-1.17-.33-2.22-1.04-2.92-2.01-.91-1.26-.91-2.77-1.25-4.21-.2-.87-.48-1.74-1.47-2-.69-.18-1.46-.05-2.15.05l.45-.46c-.09,1.15-.15,2.31-.27,3.46-.07.65-.27,1.34-.99,1.56-.84.26-1.88-.24-2.64-.53-.95-.36-1.9-.77-2.74-1.34-.65-.43-1.25-.96-1.61-1.63-.45-.83-.4-1.68-.41-2.58-.03-2.9-3.04-3.15-5.4-3.1l.43-.58c.47,1.04.95,2.09,1.42,3.13.31.69.91,1.56.48,2.31-.76,1.31-3.11.62-4.24.35-1.55-.37-3.92-.86-4.68-2.39-.93-1.89-1.16-4.32-1.19-6.39l.35.42c-1.31-.44-2.64-.76-4-.98l.56-.56c.46,2.31.35,4.63-.37,6.87-.08.24-.3.37-.56.33-2.01-.34-3.95-.9-4.84-2.84-.48-1.04-.66-2.2-.91-3.3l-.94-4.07c-.13-.56.76-.82.89-.26h0Z"/><path class="cls-1" d="m589.01,67.07c6.66,1.17,13.01,3.18,19.25,5.67,3.12,1.25,6.25,2.48,9.51,3.35,3.02.81,6.1,1.4,9.11,2.25,1.55.44,3.09.95,4.56,1.58,1.11.48,3.27,1.14,3.54,2.45.04.21-.04.51-.31.56-2.48.4-4.85-.18-7.18-.98-2.59-.89-5.16-1.85-7.76-2.74-5.24-1.8-10.51-3.51-15.82-5.13-5.36-1.63-10.75-3.15-16.14-4.67-.7-.2-1.4-.42-2.11-.59-.16-.04-.67-.22-.85-.16l-.35.58c.2.1.41.19.62.26,1.35.51,2.72.97,4.09,1.43,2.63.87,5.28,1.68,7.93,2.47,5.27,1.57,10.54,3.14,15.81,4.71,4.97,1.48,10.14,2.72,14.93,4.7,1.1.45,2.18.97,3.2,1.57.74.44,1.47.93,1.36,1.87-.23,2.01-2.9,1.84-4.39,1.56-2.43-.46-4.69-1.63-6.95-2.57-2.58-1.06-5.19-2.05-7.82-2.97-11.7-4.12-23.72-7.44-35.69-10.68-.58-.16-.36-1.03.22-.87,10.62,2.88,21.23,5.86,31.67,9.31,4.95,1.64,9.81,3.46,14.6,5.5,1.16.49,2.33.97,3.57,1.27.79.19,4,.88,3.88-.76-.06-.87-2.5-1.75-3.21-2.06-1.25-.56-2.54-1.03-3.84-1.46-5.03-1.65-10.16-3.06-15.24-4.57s-10.3-3.04-15.44-4.61c-2.65-.81-5.28-1.66-7.89-2.59-.69-.25-1.91-.48-2.35-1.13-.42-.61-.07-1.37.57-1.68.92-.44,2.11.12,3.02.37,1.35.38,2.7.76,4.05,1.14,2.7.76,5.39,1.53,8.08,2.32,5.92,1.73,11.8,3.57,17.64,5.54,2.86.96,5.7,1.95,8.53,2.97s5.88,2.32,8.99,1.81l-.31.56c-.14-.68-1.24-1.05-1.82-1.34-.7-.35-1.42-.66-2.15-.95-1.38-.54-2.8-.97-4.23-1.35-2.87-.77-5.79-1.35-8.66-2.13-6.1-1.66-11.75-4.52-17.79-6.38-3.49-1.08-7.06-1.93-10.67-2.56-.59-.1-.37-.97.22-.87h0Z"/><path class="cls-1" d="m589.67,37.47c-2.18,5.51-4.36,11.03-6.53,16.54-1.09,2.76-2.18,5.51-3.27,8.27-.52,1.32-1.05,2.65-1.57,3.97-.26.66-1.92,4.71-.22,4.59.6-.04.62.85.03.9-3.26.23-.94-5.12-.45-6.37,1.22-3.09,2.44-6.17,3.66-9.26,2.48-6.28,4.97-12.57,7.45-18.85.21-.53,1.12-.32.9.22h0Z"/><path class="cls-1" d="m630.72,87.15l2.61,1.14c.81.35,1.75.96,2.61,1.14l.33.14c.47-.08.74-.32.82-.72.22-.37.33-.85.49-1.25.33-.84.65-1.67.98-2.51,1.29-3.31,2.57-6.62,3.85-9.93,2.58-6.71,5.08-13.44,7.51-20.19.19-.54,1.1-.33.9.22-2.09,5.81-4.23,11.6-6.43,17.37-2.18,5.72-4.28,11.49-6.63,17.14-.53,1.27-1.55.82-2.58.38-1.63-.71-3.27-1.42-4.9-2.13-.55-.24-.1-1.02.45-.78h0Z"/><path class="cls-1" d="m649.67,55.27c.74-1.74,1.81-3.58,1.69-5.52-.01-.24-.02-.33-.25-.43s-.46-.2-.69-.29c-.46-.19-.92-.38-1.39-.56-.94-.37-1.9-.7-2.86-1.02-.56-.18-.35-1.05.22-.87,1.09.36,2.17.74,3.24,1.16.57.22,1.13.45,1.69.69.45.19.82.36.92.87.21,1.06-.05,2.22-.43,3.22-.41,1.08-.89,2.13-1.33,3.19-.22.53-1.04.09-.82-.43h0Z"/><path class="cls-1" d="m646.1,47.57c-16.78-5.22-33.56-10.44-50.34-15.66-1.06-.33-2.15-.61-3.19-1.01-.64-.24-1.29-.6-1.59-1.22-.37-.78-.04-1.67.18-2.44.3-1.06.68-2.09,1.11-3.1.22-.53,1.04-.09.82.43-.38.89-.7,1.8-.98,2.72-.29,1-.71,2.07.51,2.65.83.39,1.79.6,2.67.88l3,.93c3.89,1.21,7.77,2.42,11.66,3.63,7.77,2.42,15.54,4.84,23.32,7.25,4.36,1.36,8.71,2.71,13.07,4.07.57.18.35,1.05-.22.87h0Z"/><path class="cls-1" d="m643.59,40.77c.51-1.05,1.15-2.41.45-3.52-.61-.97-1.87-1.79-2.73-2.54-1.87-1.62-3.8-3.17-5.86-4.55-4.07-2.73-8.31-5.21-12.4-7.92-3.99-2.65-7.92-5.39-11.77-8.23-1.96-1.44-3.9-2.9-5.82-4.39-.91-.71-1.82-1.42-2.73-2.14-.99-.78-1.98-1.63-3.28-1.86-2.73-.48-5.51.92-8.24.99-1.99.06-4.08-.48-5.39-2.01-.38-.44.26-1.09.64-.65,3.43,4,9.13-.07,13.37.83,2.21.46,4.03,2.44,5.72,3.76,2.01,1.56,4.04,3.1,6.09,4.61,4.16,3.06,8.41,6.02,12.73,8.87,4.23,2.79,8.67,5.3,12.8,8.22,2.28,1.62,4.38,3.44,6.46,5.28.76.67,1.49,1.35,1.63,2.38.15,1.15-.36,2.27-.85,3.29-.25.52-1.07.09-.82-.43h0Z"/></g></g><g><path class="cls-1" d="m46.46,12.82c-.53.17-1.07.25-1.63.23-.49-.02-1.05-.14-1.44.27s-.13.84.15,1.22c.38.5.75,1.01,1.13,1.51.3.4.59.93.99,1.24s.91.3,1.38.32c1.2.07,2.4.09,3.61.04.55-.02.55-.87,0-.85-.95.03-1.91.03-2.86,0-.42-.02-.87-.01-1.29-.08s-.6-.44-.84-.77c-.28-.37-.56-.75-.84-1.12-.15-.21-.31-.41-.46-.62-.07-.09-.14-.19-.21-.28-.02-.03-.05-.06-.07-.09-.03-.06-.04-.05-.02.03.17-.08.46,0,.64.02.21.01.43.01.64,0,.46-.03.91-.12,1.35-.26.52-.17.3-.99-.23-.82h0Z"/><g><path class="cls-1" d="m76.33,45.81c-2.32,2.38-4.33,4.99-6.01,7.79l-.07-.42c.51.46,2.75-2.07,3.01-2.39.69-.88,1.28-1.87,1.59-2.92.39-1.29-.3-2.27-1.18-3.3s-1.84-2.11-2.76-3.16c-3.72-4.25-7.47-8.47-11.26-12.67-.32-.35.21-.82.53-.46,3.53,3.91,7.03,7.84,10.5,11.79.86.98,1.72,1.96,2.57,2.94.71.82,1.54,1.63,2.06,2.56.98,1.74.01,3.58-.98,5.03-.62.92-1.4,1.75-2.29,2.46-.57.45-1.54,1.3-2.32.59-.12-.11-.14-.29-.07-.42,1.71-2.85,3.76-5.5,6.12-7.93.31-.32.86.19.55.51h0Z"/><path class="cls-1" d="m59.61,28.48c-1.54-1.95-3.26-3.79-4.92-5.66s-3.03-3.69-4.47-5.61-3.25-3.59-4.96-5.36c-.75-.77-1.36-1.67-2.13-2.41-.62-.6-1.32-.58-2.07-.29-.53.2-1.16.45-1.43.92l-.34-.53c1.52.13,3.04.19,4.56.18.49,0,.51.68.02.69-1.52,0-3.04-.05-4.56-.18-.29-.02-.48-.3-.34-.53.47-.78,1.73-1.31,2.69-1.43,1.02-.12,1.76.38,2.36,1.11,1.73,2.08,3.83,3.87,5.6,5.93s3.37,4.5,5.25,6.64,3.71,4.07,5.4,6.21c.29.37-.36.69-.65.32h0Z"/><path class="cls-1" d="m53.33,21.58c-.88.18-1.78-.09-2.67.01-.22.02-.53.06-.47.32.05.2.27.41.39.57.31.4.61.79.92,1.19.33.42.64.64,1.21.62.5-.01,1-.08,1.5-.08,1.05,0,2.1.17,3.11.47.47.14.29.79-.18.66-1.28-.38-2.59-.51-3.9-.4-.54.05-1.1.08-1.61-.2s-.81-.78-1.13-1.2c-.49-.63-1.78-1.88-.64-2.45.95-.48,2.21.03,3.25-.17.47-.09.69.58.22.67h0Z"/><path class="cls-1" d="m60.26,28.3c.05,1.09-1.52,1.03-2.36,1.12-.31.03-.62.06-.92.09-.08,0-.29,0-.37.05-.17.08-.11.17-.06.35.16.51.47,1.02.8,1.47.71.97,2.12.96,3.25.99s2.25.02,3.33.37c.47.15.29.81-.18.66-1.26-.41-2.56-.29-3.84-.37-1.18-.07-2.38-.27-3.12-1.22-.36-.46-.63-.97-.86-1.49-.19-.44-.39-.98.1-1.28.44-.27,1.15-.23,1.67-.28.36-.04,1.84,0,1.82-.47-.02-.44.74-.42.76.02h0Z"/><path class="cls-1" d="m66.62,36.36c-.75.62-1.77.51-2.74.44-.29-.02-1.4-.11-1.45.25-.02.13.47.61.56.73.21.28.43.55.64.83.33.43.74,1.05,1.38,1.08.56.03,1.16-.21,1.72-.26,1.18-.11,2.37,0,3.53.33.47.13.29.79-.18.66-1.41-.4-2.82-.43-4.21-.14-.6.12-1.18.17-1.74-.16s-.92-.89-1.3-1.37c-.23-.3-.46-.59-.69-.89-.18-.23-.43-.48-.48-.76-.09-.52.46-.81.94-.92,1.07-.25,2.61.41,3.48-.32.35-.29.9.22.55.51h0Z"/><path class="cls-1" d="m75.61,45.57c-1.2-1.85-3.73-1.73-5.61-1.23-1.75.47-3.44,1.27-5.3.39-.93-.44-1.78-1.08-2.64-1.63-1-.65-2-1.3-3-1.95-2-1.3-3.99-2.61-5.98-3.93-3.89-2.58-7.77-5.18-11.62-7.81s-7.57-5.22-11.66-7.38c-.52-.27-1.27-.8-1.87-.81s-1.06.47-1.45.8c-.81.7-1.67,1.49-1.83,2.56-.09.61.14,1.03.38,1.58.13.3.2.55.08.86-.17.41-.59.77-.89,1.1-.43.48-.86.97-1.29,1.45v-.49c2.17,2.13,5.17,3.46,7.82,5.02s5.51,3.36,8.2,5.11c5.44,3.53,10.78,7.2,16.33,10.59,2.94,1.8,6.24,3.34,8.79,5.61.2.18.12.53-.16.57-1.94.26-3.62-.93-5.19-1.88-1.95-1.18-3.89-2.36-5.82-3.56-3.87-2.39-7.71-4.82-11.53-7.28s-7.61-4.96-11.37-7.5c-.9-.61-1.8-1.21-2.69-1.82s-1.92-1.4-3.09-1.5c-1.02-.09-2.04.42-1.91,1.45.14,1.1,1.22,1.84,2.27,2.25s2.2.68,3.26,1.15c1.16.51,2.24,1.16,3.34,1.77,2.3,1.29,4.6,2.59,6.89,3.88.43.24.06.82-.37.58-2.21-1.24-4.42-2.49-6.63-3.73-1.02-.57-2.03-1.17-3.08-1.68-1.16-.56-2.4-.85-3.59-1.31-1.49-.57-3.07-1.79-2.85-3.38.21-1.5,2.07-1.93,3.51-1.49.97.3,1.8.89,2.62,1.45,1.06.72,2.12,1.44,3.18,2.16,2.05,1.38,4.1,2.74,6.16,4.1,4.12,2.71,8.28,5.38,12.47,8,2.34,1.47,4.7,2.93,7.06,4.37,1.18.72,2.36,1.44,3.55,2.16,1.08.64,2.28,1.35,3.59,1.17l-.16.57c-2.37-2.11-5.41-3.54-8.14-5.2s-5.46-3.42-8.15-5.19c-5.42-3.56-10.78-7.2-16.37-10.52-2.86-1.7-6.13-3.13-8.48-5.43-.16-.15-.14-.34,0-.49.37-.42.74-.83,1.1-1.25.45-.51,1.08-.95.72-1.66s-.43-1.46-.19-2.2c.27-.81.85-1.47,1.48-2.06.53-.49,1.14-1.15,1.93-1.33.92-.21,1.84.4,2.62.81,1.07.56,2.11,1.15,3.14,1.76,2.06,1.23,4.05,2.55,6.03,3.89,8.22,5.58,16.44,11.16,24.84,16.51.58.37,1.17.73,1.86.85.65.11,1.28,0,1.89-.16,1.1-.28,2.15-.7,3.3-.86,1.91-.27,4.07.19,5.16,1.86.25.39-.4.71-.65.32h0Z"/><path class="cls-1" d="m38.11,42.9c4.14,2.43,8.18,5.01,12.09,7.75,1.9,1.33,3.77,2.7,5.62,4.11.83.63,1.66,1.28,2.48,1.92.53.42,1.77,1.1,1.64,1.86-.3,1.78-3.8-.93-4.38-1.29-2.12-1.33-4.24-2.66-6.36-3.99-4.15-2.62-8.28-5.25-12.39-7.91-4.7-3.04-9.39-6.1-14.06-9.18-.4-.27-.04-.85.37-.58,7.58,5.01,15.22,9.96,22.9,14.84,3.8,2.41,7.61,4.81,11.43,7.19.24.15.85.66,1.15.7.9.09.19-.35.05-.47-.22-.18-.44-.36-.67-.53-.82-.65-1.64-1.29-2.47-1.93-1.79-1.37-3.6-2.7-5.45-4-3.98-2.8-8.09-5.44-12.32-7.92-.42-.25-.05-.83.37-.58h0Z"/><path class="cls-1" d="m23.07,36.19c-.7.32-1.35.71-1.94,1.18-.23.19-.52.38-.69.62s-.24.22-.04.42c.14.14.47.22.66.32,1.57.77,3.11,1.6,4.62,2.47,3.05,1.76,5.99,3.68,8.94,5.57,6.16,3.94,12.33,7.88,18.49,11.82,1.49.95,3.06,1.85,4.49,2.88.63.46,1.27,1.56.27,1.96-1.06.42-2.61-.96-3.35-1.56-1.34-1.08-2.7-2.11-4.14-3.07-2.85-1.9-6.05-3.31-8.85-5.27-1.39-.97-2.7-2.03-4.08-3s-2.86-1.92-4.34-2.83c-3.37-2.08-6.78-4.1-10.18-6.15-.85-.51-1.68-1.07-2.55-1.54-.31-.16-.57-.32-.93-.29-.47.04-.65.23-.29.62.28.3.88.55,1.23.78,1.73,1.09,3.46,2.18,5.18,3.27.41.26.04.84-.37.58-1.56-.99-3.13-1.97-4.69-2.96-.65-.41-1.43-.79-2.01-1.28-.38-.32-.47-.77-.24-1.16.68-1.15,2.22-.29,3.1.24,1.59.96,3.18,1.92,4.77,2.87,3.15,1.9,6.33,3.75,9.41,5.75s5.64,4.28,8.75,6.03,6.03,3.36,8.81,5.43c.47.35,4.19,3.51,4.53,2.72.19-.45-1.87-1.51-2.21-1.72l-2.55-1.63c-6.38-4.08-12.75-8.15-19.13-12.23-3.4-2.17-6.78-4.37-10.33-6.31-.89-.49-1.8-.96-2.72-1.41-.46-.23-1.36-.47-1.33-1.07.03-.53.84-1.06,1.22-1.37.63-.51,1.33-.93,2.09-1.28.42-.2.82.41.39.61h0Z"/><path class="cls-1" d="m25.67,44.3c7.47,4.69,14.95,9.38,22.41,14.09,1.83,1.15,3.65,2.31,5.46,3.48.74.48,1.54.93,2.24,1.46.5.38.92,1.02.46,1.54-.33.36-.87.29-1.29.04-.96-.56-1.83-1.31-2.75-1.93-1.69-1.15-3.42-2.25-5.18-3.29-1.05-.62-2.3-1.56-3.54-1.02-.91.39-1.71,1.05-2.46,1.64-1.65,1.29-3.08,2.79-4.27,4.45l-.24-.51c1.29.45,2.38-.52,3.15-1.28.92-.9,1.72-1.91,2.37-3,.28-.46.58-.94.7-1.47.16-.74-.28-1.17-.91-1.59-1.24-.84-2.51-1.64-3.76-2.45s-2.51-1.64-3.76-2.45c-.59-.38-1.17-.76-1.76-1.15-.55-.36-.83-.7-1.59-.35-.21.1-.41.3-.59.44-1.99,1.54-3.53,3.46-4.6,5.63l-.66-.37c1.7-2.01,2.45-4.61,2.94-7.11.13-.67-.62-1.07-1.14-1.46-.66-.5-1.33-.99-2.02-1.46-1.18-.82-2.39-1.61-3.63-2.36-.62-.38-1.27-.85-1.95-1.12-.89-.36-1.43.25-1.99.73-.99.86-1.91,1.78-2.74,2.78-.74.89-1.84,2.04-1.86,3.24-.02,1.27,1.39,2.05,2.47,2.64.43.23.06.81-.37.58-1.9-1.03-3.5-2.45-2.53-4.47.48-1.02,1.27-1.94,2.02-2.8.84-.97,1.76-1.88,2.76-2.71.78-.65,1.51-1.07,2.62-.56,1.33.61,2.58,1.49,3.79,2.27s2.37,1.59,3.51,2.44c.78.57,1.97,1.19,1.86,2.2-.13,1.28-.59,2.63-1.02,3.84-.47,1.34-1.11,2.61-2.04,3.71-.29.34-.86.03-.66-.37,1-2.04,2.43-3.88,4.24-5.39.63-.53,1.54-1.49,2.55-1.14.58.2,1.14.68,1.65,1.01.63.41,1.25.82,1.88,1.23,1.25.82,2.51,1.64,3.76,2.45,1.15.75,2.37,1.45,3.46,2.27,1.92,1.46.17,3.69-.83,5.01-1.08,1.43-3.1,4.09-5.48,3.25-.22-.08-.38-.32-.24-.51.94-1.32,2.03-2.54,3.26-3.65,1.11-1,2.45-2.2,3.93-2.76,1.59-.6,3.16.56,4.48,1.35,1.72,1.03,3.4,2.11,5.05,3.24.73.5,1.45,1.02,2.17,1.53l.34.24c.22-.23.21-.39-.04-.5-.13-.17-.46-.31-.64-.43-.49-.32-.98-.64-1.47-.95-1.73-1.12-3.47-2.22-5.21-3.33-3.55-2.24-7.12-4.48-10.68-6.71l-11.99-7.53c-.41-.26-.04-.84.37-.58h0Z"/><path class="cls-1" d="m28.45,20.91c-.09,1.64-.26,3.3-.26,4.95,0,.79.16,1.54.78,2.16.57.56,1.35.92,2.08,1.27l-.52.1c.99-1.35,1.59-2.89,1.74-4.54.02-.27.29-.41.57-.28,1.03.48,2.01,1.03,2.94,1.66.14.09.23.24.18.39-.35,1.21-.54,2.45-.54,3.72,0,.65,0,1.2.55,1.71.46.43,1.04.79,1.58,1.13.51.32,3.12,2,3.29.91.08-.52-.19-1.25-.28-1.77-.1-.61-.19-1.22-.29-1.82-.04-.23.25-.38.47-.32,1.3.36,2.69.78,3.58,1.79s.7,2,.37,3.13c-.44,1.48.75,2.6,1.96,3.55.38.3.77.58,1.19.84.3.19.28.2.7.15.46-.05.42-.09.56-.43.32-.74.61-1.49.91-2.23.08-.19.24-.26.46-.23.79.12,1.68.29,2.3.83.66.57.74,1.38.7,2.12-.06,1.02-.4,2.05-.03,3.07.34.94,1.19,1.78,2.21,2.15.27.1.63.24.9.13s.3-.38.37-.64c.14-.53.19-1.09.35-1.62.21-.66.61-1.32,1.31-1.64,1.47-.68,3.16.55,3.61,1.86.74,2.16-.94,4.21-.13,6.36l-.64-.18c1.15-.92,2.14-1.96,2.98-3.13.26-.36.92,0,.66.37-.86,1.22-1.9,2.31-3.09,3.27-.21.17-.54.08-.64-.18-.41-1.07-.26-2.14-.04-3.2s.64-2.42,0-3.53c-.73-1.27-2.42-1.54-3.11-.23-.46.87-.17,2.42-1.05,3.05-.68.49-1.88-.04-2.54-.44-.85-.52-1.52-1.28-1.85-2.15-.44-1.13-.1-2.22-.04-3.35.04-.68,0-1.38-.71-1.8-.5-.29-1.14-.38-1.71-.47l.46-.23c-.33.81-.64,1.64-.99,2.44-.2.46-.51.91-1.14.9-.72,0-1.43-.62-1.96-1-.67-.48-1.33-1.01-1.87-1.62-.41-.46-.77-.99-.91-1.57-.17-.7.06-1.31.25-1.97.63-2.11-1.69-3-3.57-3.52l.47-.32c.14.87.28,1.74.42,2.61.09.57.37,1.35-.14,1.79-.89.77-2.6-.29-3.43-.75-1.14-.63-2.91-1.55-3.16-2.84-.31-1.59.06-3.41.49-4.91l.18.39c-.93-.63-1.91-1.18-2.94-1.66l.57-.28c-.16,1.78-.77,3.44-1.84,4.89-.12.16-.32.2-.52.1-1.51-.72-2.92-1.58-3.19-3.2-.14-.87-.03-1.75.02-2.61l.17-3.17c.02-.44.79-.42.76.02h0Z"/><path class="cls-1" d="m15.29,52.16c5,2.42,9.56,5.37,13.93,8.66,2.18,1.64,4.38,3.27,6.76,4.67,2.21,1.3,4.51,2.46,6.69,3.79,1.13.69,2.22,1.42,3.25,2.23.77.61,2.33,1.6,2.25,2.62-.01.17-.15.36-.37.33-2.05-.29-3.79-1.27-5.45-2.41-1.85-1.26-3.66-2.56-5.51-3.82-3.73-2.55-7.52-5.03-11.34-7.45s-7.78-4.82-11.7-7.19c-.51-.31-1.01-.64-1.53-.93-.12-.07-.48-.32-.63-.31l-.4.34c.13.12.28.23.43.33.95.69,1.93,1.35,2.91,2,1.88,1.25,3.79,2.46,5.71,3.66,3.81,2.39,7.62,4.76,11.43,7.15,3.6,2.25,7.4,4.36,10.74,6.93.77.59,1.5,1.21,2.18,1.89.49.49.95,1.02.66,1.68-.64,1.4-2.71.65-3.82.09-1.82-.91-3.33-2.29-4.91-3.5-1.8-1.38-3.64-2.71-5.51-4-8.31-5.75-17.06-10.99-25.79-16.17-.42-.25-.05-.83.37-.58,7.74,4.6,15.45,9.26,22.92,14.23,3.54,2.36,6.97,4.83,10.29,7.43.81.63,1.62,1.26,2.53,1.76.58.32,2.96,1.58,3.24.37.15-.64-1.59-1.86-2.07-2.25-.86-.7-1.77-1.35-2.71-1.97-3.6-2.39-7.34-4.62-11.01-6.91-3.72-2.33-7.46-4.64-11.16-6.99-1.91-1.21-3.8-2.45-5.65-3.74-.49-.34-1.4-.8-1.6-1.37-.2-.54.26-1.01.83-1.08.83-.1,1.64.58,2.3.98.98.59,1.96,1.19,2.94,1.78,1.96,1.19,3.91,2.38,5.86,3.59,4.28,2.65,8.51,5.38,12.68,8.18,2.04,1.37,4.06,2.76,6.07,4.17s4.12,3.07,6.69,3.44l-.37.33c.04-.53-.74-1.05-1.14-1.4-.48-.42-.97-.81-1.48-1.19-.97-.72-2-1.36-3.04-1.98-2.09-1.24-4.27-2.34-6.36-3.59-4.44-2.64-8.27-6.05-12.61-8.83-2.52-1.61-5.14-3.06-7.85-4.37-.44-.21-.07-.79.37-.58h0Z"/><path class="cls-1" d="m22.47,30.86c-2.96,3.48-5.92,6.96-8.88,10.44l-4.44,5.22c-.71.84-1.42,1.67-2.13,2.51-.35.41-2.58,2.96-1.21,3.28.48.11.3.77-.18.66-2.63-.6.41-3.93,1.08-4.72,1.66-1.95,3.32-3.9,4.97-5.85,3.38-3.97,6.75-7.94,10.13-11.9.29-.34.95.03.66.37h0Z"/><path class="cls-1" d="m43.72,76.56l1.81,1.44c.56.44,1.17,1.11,1.81,1.44l.23.18c.39.05.66-.06.81-.33.26-.22.45-.54.67-.79.44-.53.89-1.06,1.33-1.59,1.76-2.09,3.52-4.19,5.27-6.29,3.54-4.25,7.04-8.54,10.47-12.86.27-.35.94.02.66.37-2.96,3.72-5.95,7.41-8.99,11.07s-5.97,7.31-9.1,10.86c-.7.8-1.41.23-2.12-.34-1.13-.9-2.26-1.8-3.39-2.7-.38-.3.15-.76.53-.46h0Z"/><path class="cls-1" d="m65.86,57.93c.97-1.09,2.23-2.17,2.58-3.6.04-.18.06-.25-.1-.37s-.32-.25-.48-.38c-.32-.25-.64-.49-.97-.73-.66-.49-1.34-.96-2.03-1.41-.4-.27-.04-.85.37-.58.78.52,1.55,1.05,2.3,1.61.4.29.79.6,1.18.9.31.24.56.46.53.84-.07.82-.54,1.6-1.06,2.23-.57.68-1.18,1.33-1.77,2-.3.33-.84-.18-.55-.51h0Z"/><path class="cls-1" d="m64.78,51.51c-12.08-7.75-24.16-15.49-36.24-23.24-.76-.49-1.56-.95-2.29-1.48-.45-.33-.89-.74-.98-1.26-.12-.65.34-1.22.69-1.72.48-.69,1.01-1.35,1.57-1.99.3-.33.84.18.55.51-.5.56-.96,1.14-1.38,1.74-.46.66-1.02,1.34-.2,2.04.57.48,1.28.86,1.91,1.26l2.16,1.39,8.39,5.38c5.6,3.59,11.19,7.18,16.79,10.76,3.14,2.01,6.27,4.02,9.41,6.03.41.26.04.84-.37.58h0Z"/><path class="cls-1" d="m64.32,45.99c.64-.64,1.45-1.47,1.15-2.44-.26-.85-1.07-1.74-1.59-2.48-1.11-1.62-2.29-3.19-3.61-4.68-2.6-2.94-5.4-5.74-8.01-8.67s-5.04-5.78-7.45-8.74c-1.22-1.51-2.43-3.02-3.61-4.55-.56-.73-1.12-1.46-1.68-2.19-.61-.8-1.2-1.65-2.18-2.12-2.05-.99-4.56-.64-6.73-1.23-1.58-.43-3.12-1.31-3.81-2.73-.2-.41.45-.73.65-.32,1.81,3.71,7.23,2.11,10.38,3.76,1.64.86,2.63,2.72,3.68,4.07,1.24,1.61,2.49,3.2,3.77,4.78,2.6,3.2,5.28,6.35,8.06,9.44s5.66,5.89,8.26,8.98c1.44,1.71,2.68,3.53,3.91,5.35.45.67.88,1.33.75,2.11-.14.87-.79,1.56-1.41,2.18-.32.32-.86-.19-.55-.51h0Z"/></g></g><g><path class="cls-1" d="m198.41,38.94c-3.06-1.5-6.77-1.58-9.97-.25-.56.23-.18,1.04.38.81,2.99-1.24,6.4-1.12,9.25.28.53.26.87-.58.34-.84h0Z"/><path class="cls-1" d="m199.45,35.57c-3.72-1.32-7.84-1.34-11.63-.08-.58.19-.19,1,.38.81,3.55-1.18,7.43-1.13,10.91.1.56.2.91-.64.34-.84h0Z"/><g><path class="cls-2" d="m192.42,75.4c13.17.2,24.24-10.27,24.72-23.38s-9.79-23.91-22.96-24.11c-13.17-.2-24.24,10.27-24.72,23.38-.39,10.44,6.05,19.41,15.34,22.74"/><ellipse class="cls-2" cx="193.67" cy="36.33" rx="6.02" ry="5.89" transform="translate(20.24 129.88) rotate(-38.97)"/><ellipse class="cls-2" cx="179.59" cy="43.74" rx="6.02" ry="5.89" transform="translate(12.45 122.67) rotate(-38.97)"/><ellipse class="cls-2" cx="179.03" cy="59.01" rx="6.02" ry="5.89" transform="translate(2.72 125.72) rotate(-38.97)"/><ellipse class="cls-2" cx="207.19" cy="44.16" rx="6.02" ry="5.89" transform="translate(18.33 140.12) rotate(-38.97)"/><ellipse class="cls-2" cx="206.6" cy="60.11" rx="6.02" ry="5.89" transform="translate(8.16 143.3) rotate(-38.97)"/><ellipse class="cls-2" cx="192.53" cy="67.14" rx="6.02" ry="5.89" transform="translate(.61 136.02) rotate(-38.97)"/><ellipse class="cls-2" cx="193.1" cy="51.73" rx="6.57" ry="6.43" transform="translate(10.43 132.95) rotate(-38.97)"/><ellipse class="cls-2" cx="193.1" cy="51.73" rx="1.17" ry="1.15" transform="translate(10.43 132.95) rotate(-38.97)"/><ellipse class="cls-2" cx="191.24" cy="48.38" rx="1.17" ry="1.15" transform="translate(12.13 131.03) rotate(-38.97)"/><ellipse class="cls-2" cx="188.9" cy="51.67" rx="1.17" ry="1.15" transform="translate(9.54 130.29) rotate(-38.97)"/><ellipse class="cls-2" cx="191.1" cy="55.09" rx="1.17" ry="1.15" transform="translate(7.87 132.44) rotate(-38.97)"/><ellipse class="cls-2" cx="195.07" cy="55.1" rx="1.17" ry="1.15" transform="translate(8.76 134.94) rotate(-38.97)"/><ellipse class="cls-2" cx="197.31" cy="51.8" rx="1.17" ry="1.15" transform="translate(11.33 135.61) rotate(-38.97)"/><ellipse class="cls-2" cx="195.32" cy="48.44" rx="1.17" ry="1.15" transform="translate(13 133.61) rotate(-38.97)"/><path class="cls-1" d="m182,38.53c-3,2.66-5.02,6.14-5.85,9.93-.12.56.81.63.94.07.78-3.53,2.69-6.83,5.5-9.32.45-.39-.14-1.08-.59-.69h0Z"/><path class="cls-1" d="m181.34,63.8c-1.66-1.03-2.53-2.91-3.38-4.55s-1.54-3.33-1.28-5.17c.08-.57-.86-.65-.94-.07-.28,1.98.46,3.88,1.36,5.61s1.89,3.78,3.68,4.9c.5.31,1.07-.41.56-.72h0Z"/><path class="cls-1" d="m184.01,60.98c-1.35-.68-2.24-2.07-2.85-3.35s-.97-2.74-1.05-4.19c-.03-.57-.96-.41-.93.16.09,1.59.5,3.16,1.21,4.6.73,1.46,1.74,2.85,3.28,3.62.22.11.52-.06.61-.26.11-.25-.05-.46-.27-.57h0Z"/><path class="cls-1" d="m180.38,49.33c.16-3.09,1.79-6.05,4.49-7.86.5-.34-.09-1.02-.59-.69-2.89,1.94-4.67,5.17-4.84,8.47-.03.57.91.65.94.07h0Z"/><path class="cls-1" d="m210.48,48.83c-.8-3.72-2.78-7.11-5.72-9.67-.44-.38-1,.34-.56.72,2.75,2.39,4.6,5.63,5.35,9.1.12.56,1.05.41.93-.16h0Z"/><path class="cls-1" d="m207.07,49.76c-.31-3.22-1.92-6.26-4.5-8.36-.46-.37-1.02.36-.56.72,2.4,1.95,3.84,4.8,4.13,7.79.06.57.99.41.93-.16h0Z"/><path class="cls-1" d="m205.88,54.52c-.45,3.07-2.17,5.93-4.81,7.81-.49.35.1,1.04.59.69,2.84-2.02,4.68-5.12,5.16-8.42.08-.57-.85-.65-.94-.07h0Z"/><path class="cls-1" d="m203.97,65.5c1.46-1.39,2.72-2.94,3.73-4.65s1.87-3.55,2.2-5.47c.1-.57-.84-.64-.94-.07-.31,1.81-1.17,3.61-2.13,5.21-.94,1.57-2.1,3.02-3.45,4.3-.43.41.15,1.1.59.69h0Z"/><path class="cls-1" d="m197.17,64.09c-.55.44-1.22.58-1.91.67-.85.11-1.71.17-2.56.18-1.71.02-3.38-.22-4.9-.96-.53-.26-.87.58-.34.84,1.68.82,3.59,1.06,5.48,1.01.89-.02,1.79-.08,2.67-.21.78-.11,1.54-.33,2.15-.83.46-.38-.12-1.07-.59-.69h0Z"/><path class="cls-1" d="m198.14,67.68c-1.81.54-3.72.73-5.6.66-.91-.03-1.81-.12-2.71-.26s-2.03-.21-2.78-.72c-.49-.33-1.05.39-.56.72.79.54,1.84.66,2.79.81,1.05.17,2.11.29,3.17.33,2.06.08,4.1-.15,6.08-.74.58-.17.2-.98-.38-.81h0Z"/><path class="cls-1" d="m173.77,67.18c-1.34-.85-2.88-1.17-4.44-1.5-.8-.17-1.6-.34-2.36-.63s-1.47-.72-2.21-1.07c-.51-.24-1.23-.59-1.82-.33s-.9,1.13-1.18,1.65c-.84,1.56-1.55,3.16-2.16,4.81-.2.54.68.85.88.31.52-1.41,1.11-2.79,1.8-4.13.17-.33.34-.65.52-.97.1-.19.31-.77.54-.84.27-.09.75.19.99.3.34.15.66.33.99.5,1.18.62,2.4.97,3.72,1.24,1.45.3,2.93.58,4.18,1.38.5.32,1.06-.41.56-.72h0Z"/><path class="cls-1" d="m191.44,75.2c-3.12.52-6.27.49-9.41.33s-6.55-.49-9.79-.94-6.65-.97-9.73-2.28c-2.35-1-4.44-.67-6.82.16-1.37.48-2.73,1.04-4.18,1.25-.88.12-1.86.08-2.56-.49s-.93-2.03.25-2.31l-.54-.36c.79,2.74-.37,5.8-2.98,7.34-.52.31.07.99.59.69,2.86-1.69,4.19-5.18,3.32-8.18-.06-.22-.27-.43-.54-.36-1.01.25-1.67,1.11-1.65,2.09.03,1.25,1.14,2.18,2.36,2.44,2.73.59,5.53-1.24,8.11-1.84,1.8-.42,3.16-.06,4.8.63s3.4,1.1,5.17,1.43c3.81.7,7.68,1.18,11.55,1.47s8.17.5,12.2-.17c.6-.1.45-.98-.15-.88h0Z"/><path class="cls-1" d="m185.59,74.6c-.15.36-.31.73-.46,1.09-.09.22.03.5.27.57s.51-.03.61-.26c.15-.36.31-.73.46-1.09.09-.22-.03-.5-.27-.57s-.51.03-.61.26h0Z"/><path class="cls-1" d="m181.83,72.91c-.45.79-.8,1.61-1.06,2.47-.07.22.01.49.27.57.22.07.54-.02.61-.26.26-.86.61-1.68,1.06-2.47.12-.21-.05-.51-.27-.57-.27-.08-.48.04-.61.26h0Z"/><path class="cls-1" d="m177.25,70.36c-.59,1.59-1.19,3.17-1.81,4.75-.21.54.66.85.88.31.62-1.58,1.23-3.16,1.81-4.75.2-.54-.68-.85-.88-.31h0Z"/><path class="cls-1" d="m173.01,67.58c.25,1.12-.03,2.29-.35,3.38-.35,1.21-.8,2.39-1.36,3.53-.26.52.62.83.88.31.6-1.23,1.08-2.5,1.44-3.8.32-1.17.59-2.39.32-3.58-.13-.56-1.06-.4-.93.16h0Z"/><path class="cls-1" d="m167.93,66.42c-.2,2.45-1.29,4.72-2.38,6.93-.26.52.62.83.88.31,1.12-2.28,2.24-4.63,2.44-7.16.05-.57-.89-.65-.94-.07h0Z"/><path class="cls-1" d="m212.89,38.2c.91,2.43.77,5.17-.35,7.56-.2.42.5.67.7.25,1.2-2.56,1.31-5.49.33-8.1-.16-.43-.85-.13-.69.3h0Z"/><path class="cls-1" d="m201.64,42.95c.23-3.73.38-8.22-2.98-10.78-.38-.29-.82.3-.45.58,3.13,2.37,2.9,6.69,2.69,10.14-.03.46.72.52.75.06h0Z"/><path class="cls-1" d="m181.13,38.34c1.08-.09,2.01.41,2.86.97s1.58,1.1,2.45,1.56c1.62.86,3.4,1.42,5.28,1.42.48,0,.56-.71.08-.71-2.1,0-4.07-.73-5.8-1.8-1.55-.96-2.97-2.31-4.98-2.14-.48.04-.36.74.12.7h0Z"/><path class="cls-1" d="m181.42,53.07c-1.1-.85-2.53-1.17-3.64-1.98-.97-.71-1.63-1.74-1.92-2.87-.11-.44-.86-.32-.74.12.3,1.21.97,2.31,1.96,3.13,1.15.95,2.71,1.27,3.89,2.18.37.29.82-.29.45-.58h0Z"/><path class="cls-1" d="m181.93,64.57c2.9.25,5.14-2.05,7.95-2.25.48-.04.36-.74-.12-.7-1.39.1-2.65.7-3.89,1.27s-2.5,1.1-3.87.98c-.48-.04-.56.67-.08.71h0Z"/><path class="cls-1" d="m200.29,60.53c-.19,2.87-.54,5.92-2.36,8.35-.28.38.32.79.6.42,1.91-2.54,2.31-5.7,2.51-8.7.03-.46-.72-.52-.75-.06h0Z"/><path class="cls-1" d="m205.02,53.98c-2.07,1.26-4.1,2.61-6.24,3.75-2.02,1.08-4.12,1.56-6.42,1.44-1.11-.06-2.36-.14-3.39-.54-1.13-.45-1.76-1.45-2.23-2.47-.99-2.11-1.14-4.31.5-6.23.31-.36-.3-.78-.6-.42-1.52,1.78-1.76,4.02-.95,6.1.41,1.06.93,2.16,1.8,2.95s2.07,1.03,3.24,1.18c2.45.32,4.94.2,7.23-.81,2.64-1.17,5.07-2.91,7.52-4.4.41-.25-.06-.8-.47-.55h0Z"/><path class="cls-1" d="m192.81,75.01c-.33-.02-.65.05-.96.13-.14.04-.29.08-.44.11-.07.01-.15.03-.22.04-.03,0-.15,0-.04,0-.04,0-.08,0-.12,0-.2,0-.4.13-.41.33-.01.19.13.38.34.39.33.01.64-.06.96-.15.14-.04.29-.08.44-.11.07-.01.15-.02.22-.03.01,0,.08,0,.02,0s.01,0,.02,0c.04,0,.08,0,.12,0,.2.01.4-.13.41-.33s-.13-.37-.34-.39h0Z"/><path class="cls-1" d="m186.32,74.86c.08-.13.12-.25.1-.4-.02-.11-.07-.23-.15-.32-.17-.18-.4-.23-.64-.29-.2-.05-.41-.1-.61-.15-.22-.05-.44-.12-.67-.13-.2,0-.4.13-.41.33-.01.18.13.38.34.39.08,0,.16.01.24.03.09.01-.05-.01.04,0,.04.01.09.02.14.03.16.04.31.08.47.12s.31.07.46.11c.04.01.07.02.11.04.03.01.02,0-.02,0,.04.03.04.02,0,0,.05.05-.03-.06,0,0-.01-.03-.02-.05-.01-.08,0,.06,0,.03.04-.09-.05.09-.09.17-.07.27.01.08.07.18.15.23.15.09.42.09.53-.08h0Z"/></g></g><g><path class="cls-1" d="m264.6,45.62c.9-.79,1.63-1.78,2.06-3.01.64-1.83.26-5.08,2.19-6.1,1.78-.94,4.07-1.35,5.98-1.98.38-.13.21-.76-.18-.63-1.81.6-3.63,1.19-5.43,1.8-1.18.4-2.08.7-2.37,2.04-.32,1.49-.25,3.01-.73,4.47-.72,2.19-2.33,3.47-4.31,4.4-7.52,3.55-15.82.43-23.55-.85-5.42-.9-12.76.05-13.8,6.79-.46,2.99.45,6.09,1.3,8.94,1.02,3.43,2.29,6.87,4.41,9.76,1.85,2.53,4.36,4.66,7.32,5.59,2.01.63,4.11.49,6.16.89,2.45.48,5.39,2.35,4.33,5.36-.14.39.48.56.61.17h0c.86-2.45-.81-4.72-3-5.64-3.1-1.3-6.54-.55-9.61-2.1-6.45-3.24-9.23-11.34-10.62-18.07-.79-3.81-.34-7.66,3.05-9.86,3.2-2.08,7.22-1.71,10.81-1.02,6.81,1.3,13.88,3.53,20.71,1.44,1.69-.52,3.37-1.27,4.67-2.42"/><path class="cls-1" d="m275.03,34.43l4.49-1.4c1.37-.43,2.8-.78,4.13-1.31,2.15-.87,2.12-3.16,1.84-5.22-.09-.64-.19-1.27-.32-1.91-.09-.45-.14-1.1-.52-1.43-.76-.67-2.13.28-2.84.58-2.76,1.15-5.56,2.28-8.42,3.14-1.59.48-3.26.95-4.92,1.11-.3.03-.91.11-1.16-.13s-.33-.87-.25-1.16.27-.53.45-.74c.63-.75,1.53-1.28,2.42-1.64.37-.15.2-.78-.18-.63-1.24.5-4.58,2.49-3.16,4.36.52.68,1.42.65,2.15.55,1.46-.2,2.9-.55,4.32-.95,2.88-.83,5.67-1.94,8.44-3.08.62-.25,1.31-.7,1.96-.83,1.16-.23,1.16,1.26,1.3,2.11.21,1.3.55,2.99-.09,4.2-.46.88-1.37,1.11-2.23,1.38-.8.25-1.61.5-2.42.76-1.73.54-3.45,1.08-5.18,1.62-.39.12-.21.75.18.63h0Z"/><path class="cls-1" d="m270.01,24.26c.58-.21,1.17-.42,1.78-.53.32-.06.67-.1,1-.09l.62.08c.67.03.81.33.4.9-.24.84-.26.69-.99.9-.29.08-.57.16-.86.24-.72.2-1.44.39-2.15.59-1.7.47-3.7,1.11-3.74,3.27-.03,1.69.55,3.84,2.43,4.14.93.15,1.87-.18,2.74-.45,1.45-.44,2.91-.83,4.38-1.16,2.43-.56,4.99-1.07,7.06-2.58.56-.41,1.04-.75,1.02-1.5-.03-1.28-.68-2.84-1.2-3.99-.89-1.97-2.41-1.68-4.11-1.07-.46.17-1,.38-1.5.32-1.32-.15-2.25-2.1-1.15-3.1s2.92-1.31,4.26-1.67c.62-.16,1.27-.38,1.92-.38,1.33,0,1.39,1.07,1.72,2.04.23.66.71,1.38,1.48,1.34,2.52-.13-.45-5.95,2.08-6.91.38-.14.2-.77-.18-.63-2.08.78-1.62,3.46-1.55,5.29.01.28.19,2.19-1.05,1.15-.17-.14-.26-.73-.32-.93-.15-.49-.24-.97-.6-1.37-.46-.52-1.1-.65-1.75-.63-1.06.04-2.14.42-3.14.73-1.16.36-2.54.79-3.49,1.59-1.2,1.01-.44,3.01.74,3.79,1.98,1.31,4.46-1.99,5.97.46.42.69.68,1.69.89,2.46.25.91.46,1.54-.21,2.31-.9,1.04-2.76,1.52-4.01,1.88-2.69.79-5.46,1.38-8.16,2.13-.64.18-1.39.37-2.05.15-.99-.32-1.31-1.32-1.47-2.25-.12-.7-.23-1.52.11-2.17.42-.79,1.36-1.15,2.14-1.39,1.44-.46,2.93-.76,4.37-1.22.71-.22,1.67-.58,1.64-1.53-.05-2.41-4.15-1.26-5.25-.88-.38.13-.21.76.18.63h0Z"/><path class="cls-1" d="m287.31,14.58c3.05-1,6.13-1.91,9.25-2.69,1.64-.41,3.62-1.16,5.3-.55s2.64,2.16,3.36,3.69c.42.88,2.42,4.5,1.04,5.03-.4.15-1.6-.3-2.03-.37-.58-.1-1.16-.2-1.75-.27-2.76-.34-5.3.29-7.74,1.58-4.68,2.48-8.04,6.32-8.8,11.84-.37,2.66-.14,5.37.39,8,.48,2.41,1,5.24,2.92,6.93.31.27.75-.19.43-.46-1.93-1.69-2.42-4.77-2.86-7.2-.48-2.67-.63-5.44-.11-8.11,1.05-5.37,4.99-9.15,9.81-11.13,2.59-1.06,5.09-.99,7.82-.49.75.14,2.85,1.03,3.23-.09.21-.62-.29-1.7-.49-2.28-.35-1.04-.78-2.06-1.23-3.06-.74-1.63-1.76-3.25-3.4-4.04-2.1-1.01-4.59-.03-6.67.5-2.92.75-5.8,1.61-8.66,2.55-.38.13-.21.76.18.63h0Z"/><path class="cls-1" d="m289.47,47.59c1.81,2.46,4.32,4.11,7.14,5.07,3.01,1.02,6.74,1.63,9.85,1.13,1.37-.22,2.51-.87,3.74-1.47,1.53-.75,3.3-1.01,4.61-2.17,2.31-2.04,3.29-5.75,4.31-8.61,1.15-3.21.77-6.26-.24-9.52s-3.01-5.32-5.6-7.18-5.35-3.09-8.34-3.57c-2.01-.32-5.61-.67-7.15,1.03-.96,1.05-.72,2.73-.52,4.05s.76,2.61,2.04,3.05c1.36.46,2.93-.37,4.3-.32,2.58.1,4.89,1.63,5.62,4.26.11.4.72.23.61-.17-.55-1.96-1.9-3.48-3.75-4.23-.94-.38-1.98-.54-2.98-.51-1.6.05-3.68,1.13-4.76-.67-.48-.8-.54-1.92-.59-2.82-.07-1.26.31-2.31,1.51-2.79s2.84-.48,4.17-.39c2.6.17,5.15,1.03,7.45,2.32,2.43,1.36,5.02,3.26,6.42,5.78,1.49,2.69,2.49,6.84,1.75,9.83-.65,2.61-1.76,5.35-3,7.71-.87,1.66-1.97,2.73-3.71,3.38-1.19.45-2.29.93-3.44,1.49-3.23,1.58-7.18,1.08-10.6.22-3.23-.81-6.25-2.44-8.3-5.22-.25-.33-.79,0-.54.33h0Z"/><path class="cls-1" d="m309.29,33.47c.8,2.51,1.52,5.24.12,7.64s-3.83,4.1-6.5,4.42-5.08-.77-6.84-2.8c-1.9-2.18-3.25-5.5-2.08-8.32,1.07-2.57,3.94-3.41,6.43-3.71,1.23-.15,2.55-.15,3.68.5,1.46.84,2.25,2.47,2.62,4.08.29,1.23.74,3.31-.15,4.35-.68.8-1.76.55-2.06-.5-.2-.73,0-1.52.06-2.24.21-2.29-.23-4.69-2.3-5.96-4.27-2.62-10.41-.98-12.01,3.98-.13.4.49.56.61.17,1.07-3.31,4.36-5,7.64-4.68,1.66.17,3.72.77,4.71,2.27s.79,3.37.63,5.06c-.1,1.02,0,2.29,1,2.85.83.47,1.83.04,2.34-.7.71-1.03.53-2.45.36-3.64-.21-1.48-.64-2.97-1.55-4.17-1.76-2.33-4.46-2.31-7.01-1.8s-4.97,1.77-5.78,4.45c-1.61,5.35,3.51,11.47,8.71,11.51,3.07.02,5.87-1.69,7.64-4.18,1.91-2.7,1.3-5.75.34-8.75-.13-.4-.73-.23-.61.17h0Z"/><path class="cls-1" d="m290.18,35.08c-.92,5.76,2.06,11.6,7.41,13.86s12.58,1.73,16.12-3.03c3.42-4.6,2.48-12.06-1.01-16.5-3.62-4.6-11.26-5.72-16.46-4.35-6.58,1.73-9.24,8.81-7.98,15.29.08.41.69.24.61-.17-1.05-5.38.66-11.46,5.75-13.84,4.64-2.17,11.43-1.3,15.68,1.68,4.5,3.15,6.12,10.78,3.94,15.68-2.48,5.58-9,6.48-14.31,5.32-6.14-1.34-10.17-7.41-9.16-13.76.07-.41-.55-.58-.61-.17h0Z"/><path class="cls-1" d="m290.33,47.9l-.51-.49c-.06-.06-.14-.09-.22-.09s-.17.04-.22.1-.09.14-.09.23.03.17.1.23l.51.49c.06.06.14.09.22.09s.17-.04.22-.1.09-.14.09-.23-.03-.17-.1-.23h0Z"/><path class="cls-1" d="m289.84,48.18c.1.15.22.29.35.41.03.03.06.05.1.07.04.02.08.03.12.03.04,0,.08,0,.12-.03.04-.01.07-.04.1-.07.05-.06.09-.14.09-.23s-.03-.18-.1-.23c-.08-.07-.16-.15-.22-.23l.05.07s-.06-.07-.08-.11c-.05-.07-.11-.13-.19-.15-.04-.01-.08-.02-.12,0-.04,0-.08.02-.12.04-.07.05-.12.11-.14.2s-.01.18.04.25h0Z"/><path class="cls-1" d="m290.01,47.35c-.16-.14-.33-.26-.5-.39-.15-.12-.31-.23-.46-.35-.06-.05-.17-.05-.24-.03-.07.02-.15.08-.19.15s-.05.16-.03.25l.03.08s.07.09.12.12c.25.19.5.38.75.57l-.07-.05s.1.08.14.12c.06.06.14.09.22.09.08,0,.17-.04.22-.1.11-.13.12-.34-.01-.46h0Z"/><path class="cls-1" d="m288.36,40.61c.84,2.83,1.8,5.49,3.37,8,.79,1.26,1.63,2.47,2.38,3.75.17.29.34.58.49.88.35.66.47.81.32,1.59s-.18.72-.76,1.02c-.47.24-.95.46-1.43.66-2.86,1.23-5.89,2.06-8.92,2.79-1.47.35-2.95.67-4.42.99-1.55.33-4.22,1.03-4.83-1.18-.11-.4-.72-.24-.61.17.91,3.33,5.35,1.7,7.51,1.23,3.88-.86,7.78-1.8,11.44-3.37.96-.41,2.86-.87,2.97-2.17s-1.24-2.97-1.87-3.97c-1-1.59-2.1-3.13-2.96-4.82-.93-1.82-1.51-3.78-2.1-5.73-.12-.4-.73-.23-.61.17h0Z"/><path class="cls-1" d="m274.54,59.36c-1.7-4.06-3.11-8.23-4.18-12.5-.46-1.83-1.27-4.11-1.04-5.99.31-2.5,2.59-3.77,4.73-4.38,1.92-.54,3.94-.81,5.89-1.18,1.02-.19,1.08-.55,1.47.62s.12.95-.98,1.42-2.3.97-3.44,1.46c-2.34.99-5.18,1.63-5.14,4.75.04,3.31,1.02,7.39,2.87,10.17,1.84,2.76,4.49,1.8,7.11,1.08,1.91-.52,3.82-1.08,5.75-1.56,1.32-.33,2.58-.55,3.5.81.42.62.6,1.38,1.01,2.01,1.63,2.54,4.98,1.41,7.31.98,4.58-.84,9.14-1.83,13.62-3.1,1.18-.33,3.11-.57,3.84-1.76.38-.62.18-.91.22-1.54.07-1.18,1.27-1.13,2.25-1.43.39-.12.21-.74-.18-.63-.88.26-2.49.33-2.91,1.32-.07.16.08.35.06.52-.14,1.16-.13,1.64-.9,2.08-.98.57-2.34.75-3.42,1.05-4.1,1.12-8.26,2.03-12.45,2.8-1.75.32-4.82,1.41-6.41-.01-1.12-1-1.14-2.85-2.48-3.67-1-.61-2.19-.32-3.23-.06-2.12.54-4.22,1.15-6.32,1.72-2.25.61-4.41,1.29-5.95-1.14-1.17-1.84-1.81-4.18-2.23-6.31-.45-2.24-1.04-4.94,1.27-6.16,2.05-1.08,4.31-1.85,6.44-2.75.87-.37,2.08-.73,2.39-1.77.27-.91-.23-1.71-1.13-1.83-1.41-.19-3.09.48-4.47.75-1.96.37-4.04.64-5.81,1.64-1.19.67-2.25,1.74-2.71,3.09-.58,1.7.04,3.65.43,5.35,1.12,4.91,2.69,9.69,4.62,14.33.16.38.77.22.61-.17h0Z"/><path class="cls-1" d="m319.41,49.06c1.52-.21,3.04-.42,4.51-.84,1.25-.36,2.69-.86,3.65-1.8.89-.87.9-2.13.43-3.25-.21-.5-.48-1.09-1-1.31-.55-.22-1.18-.01-1.72.11-.85.19-1.69.41-2.52.65-.45.13-.89.27-1.33.41-.22.07-1.42.52-1.28-.12l-.22.23c.96-.38,1.93-.7,2.93-.95.88-.22,1.82-.3,2.66-.64.63-.26,1.17-.71,1.33-1.41.18-.76-.08-1.56-.35-2.27-.15-.39-.75-.22-.61.17.31.84.71,1.97-.1,2.63-.68.55-1.75.58-2.57.76-1.06.24-2.11.56-3.13.95-.36.14-.65.22-.59.68.04.32.26.6.54.74.33.17.72.11,1.06.02.55-.16,1.1-.36,1.65-.52,1.04-.31,2.09-.58,3.15-.8.55-.11.94-.14,1.26.41.25.42.45.93.51,1.42.13,1.1-.59,1.77-1.44,2.25-2.13,1.2-4.62,1.52-7,1.85-.4.05-.22.68.18.63h0Z"/><path class="cls-1" d="m326.6,37.97l-2.5-7.79c-.7-2.17-1.2-4.64-2.39-6.6-1.06-1.74-2.61-1.39-4.35-1.02-2.48.53-4.71.76-6.83-1.04-.66-.56-1.98-1.9-1.94-2.86.06-1.67,2.09-1.95,3.33-2.32s2.51-.68,3.8-.91c1.45-.26,2.91-.62,3.77.99s.67,4.1-1.27,4.76c-1.05.35-2.4.2-3.51.14-1.68-.09-3.02-.29-3.94-1.92-.73-1.28-1.14-2.8-1.45-4.23-.09-.41-.69-.24-.61.17.42,1.93,1.11,5,2.99,6.05,1.64.91,4.43.83,6.18.54s2.8-1.79,2.74-3.58c-.05-1.59-.93-3.64-2.65-3.82-.94-.1-2,.2-2.91.37-1.36.26-2.7.61-4.02,1.04-1.24.4-3.35.81-3.13,2.58.2,1.66,1.68,3.23,2.99,4.08,1.62,1.05,3.42,1.26,5.26.91s3.98-1.39,5.13.62c.83,1.45,1.23,3.18,1.74,4.77.99,3.09,1.98,6.17,2.97,9.26.13.4.73.23.61-.17h0Z"/><path class="cls-1" d="m309.36,15.14c-1.21-2.16,1.46-3.78,3.16-4.18.94-.22,2.14-.27,3.03.21.52.28.83.73.89,1.32.03.29.02.63.18.89.34.56.92.33,1.42.22.97-.22,1.89-.2,2.61.64.59.69.99,1.55,1.54,2.28.59.79,1.24,1.51,1.95,2.18.3.28.74-.18.43-.46-.95-.9-1.8-1.89-2.5-3-.51-.81-.99-1.73-1.87-2.17s-1.65-.13-2.54-.04c-.35.03-.52.06-.57-.33-.03-.23-.02-.46-.08-.69-.11-.43-.38-.81-.71-1.09-2.61-2.24-9.65.69-7.47,4.56.21.37.74.03.54-.33h0Z"/></g><g><path class="cls-1" d="m127.49,38.06c-.86.16-1.76.14-2.69-.18-1.37-.46-3.15-2.18-4.59-1.51-1.33.61-2.56,1.77-3.76,2.59-.24.17-.54-.22-.3-.39,1.14-.79,2.27-1.58,3.42-2.36.74-.51,1.31-.9,2.24-.45,1.03.5,1.91,1.23,2.99,1.62,1.62.58,3.08.23,4.49-.5,5.36-2.78,7.08-9.08,9.64-14.2,1.8-3.59,5.53-7.46,10-4.98,1.99,1.1,3.44,3.06,4.78,4.87,1.61,2.17,3.12,4.5,3.94,7.07.71,2.25.91,4.7.18,6.86-.49,1.47-1.48,2.64-2.12,4.02-.77,1.66-.92,4.24,1.34,5,.29.1.13.54-.16.44h0c-1.83-.62-2.47-2.64-2.07-4.35.56-2.42,2.49-4.09,2.89-6.6.84-5.27-2.8-10.62-6.22-14.52-1.94-2.21-4.43-3.71-7.2-2.74-2.62.92-4.13,3.45-5.27,5.87-2.16,4.59-3.88,9.76-8.07,12.81-1.04.75-2.21,1.39-3.46,1.63"/><path class="cls-1" d="m116.32,39.04c-.92.66-1.85,1.32-2.77,1.99-.85.61-1.67,1.28-2.56,1.82-1.45.87-2.8-.21-3.91-1.32-.34-.34-.68-.7-1-1.07-.23-.26-.6-.59-.63-.96-.07-.76,1.09-1.12,1.57-1.4,1.88-1.09,3.75-2.21,5.51-3.5.97-.71,1.97-1.47,2.79-2.37.15-.16.46-.48.42-.74s-.38-.59-.58-.68-.43-.08-.64-.07c-.72.02-1.42.31-2.02.67-.25.15-.55-.24-.3-.39.83-.5,3.46-1.55,3.97.15.18.62-.22,1.13-.6,1.52-.75.77-1.58,1.45-2.43,2.09-1.73,1.31-3.6,2.43-5.48,3.53-.42.24-.98.45-1.34.77-.63.57.26,1.26.7,1.73.68.72,1.55,1.69,2.55,1.88.72.14,1.25-.29,1.78-.67.5-.36.99-.71,1.49-1.07l3.2-2.29c.24-.17.54.22.3.39h0Z"/><path class="cls-1" d="m112.41,31.43c-.37.25-.75.5-1.08.8-.17.16-.35.35-.48.55l-.22.4c-.27.41-.15.62.36.65.6.24.52.17.96-.17.17-.13.34-.26.51-.4.43-.33.85-.66,1.28-.99,1.02-.78,2.26-1.66,3.57-.69,1.03.76,2.06,2.09,1.43,3.32-.31.61-.92,1.02-1.45,1.4-.89.65-1.75,1.33-2.58,2.03-1.38,1.17-2.79,2.43-4.58,2.95-.49.14-.89.27-1.34-.09-.75-.6-1.41-1.7-1.87-2.54-.79-1.43.04-2.19,1.13-2.9.3-.2.65-.41.84-.73.48-.84-.28-2.28-1.36-2.1s-2.04,1.11-2.83,1.73c-.37.29-.77.57-1.05.95-.57.78.04,1.31.48,1.95.3.44.52,1.05.16,1.48-1.16,1.42-3.36-3-5.02-1.95-.25.16-.55-.24-.3-.39,1.37-.86,2.77.64,3.83,1.52.17.14,1.22,1.12,1.14-.09-.01-.16-.33-.49-.42-.61-.23-.31-.48-.59-.56-.98-.11-.51.08-.94.38-1.31.48-.6,1.17-1.06,1.79-1.5.72-.52,1.57-1.12,2.46-1.31,1.12-.24,1.99,1.12,1.95,2.17-.07,1.77-3.12,1.7-2.3,3.71.23.56.72,1.17,1.09,1.66.44.57.72.97,1.47.94,1.01-.05,2.09-.92,2.85-1.49,1.63-1.22,3.18-2.56,4.79-3.81.38-.29.82-.65.98-1.13.24-.73-.22-1.37-.71-1.9-.37-.4-.81-.83-1.34-.93-.65-.12-1.27.27-1.76.62-.89.63-1.72,1.37-2.61,2-.44.31-1.07.71-1.62.26-1.41-1.14,1.03-3.02,1.74-3.48.24-.16.55.23.3.39h0Z"/><path class="cls-1" d="m99.16,37.13c-1.91,1.33-3.78,2.72-5.6,4.18-.96.77-2.25,1.59-2.61,2.86s.16,2.54.76,3.66c.35.65,1.65,3.48,2.56,2.92.26-.16.51-1.07.65-1.36.19-.39.38-.77.59-1.15.99-1.77,2.46-2.98,4.28-3.81,3.5-1.6,7.24-1.81,10.87.28,1.75,1.01,3.27,2.39,4.61,3.9,1.23,1.39,2.7,3,2.88,4.9.03.31-.44.35-.46.04-.18-1.91-1.81-3.61-3.07-4.99-1.39-1.51-2.98-2.87-4.8-3.79-3.66-1.85-7.62-1.27-10.88.64-1.75,1.03-2.78,2.53-3.66,4.36-.24.5-.61,2.15-1.45,1.85-.46-.16-.89-.95-1.15-1.33-.47-.68-.9-1.4-1.3-2.12-.65-1.18-1.18-2.53-.95-3.85.3-1.7,1.96-2.71,3.18-3.68,1.7-1.37,3.46-2.67,5.26-3.91.24-.17.54.22.3.39h0Z"/><path class="cls-1" d="m117.96,53.55c.69,2.19.59,4.42-.05,6.52-.69,2.23-1.93,4.7-3.57,6.3-.72.7-1.6,1.07-2.49,1.52-1.1.55-2.03,1.47-3.28,1.71-2.22.42-4.85-.71-7-1.43-2.41-.8-4.08-2.42-5.59-4.51-1.45-2.01-1.88-4.21-1.88-6.58s.46-4.56,1.46-6.53c.68-1.33,2.01-3.6,3.7-3.72,1.04-.08,1.94.83,2.64,1.56s1.23,1.65.94,2.6c-.31,1.01-1.49,1.54-2.05,2.38-1.05,1.56-1.13,3.62.12,5.25.19.25-.17.53-.36.28-.94-1.22-1.26-2.72-.91-4.14.18-.73.53-1.4.98-1.98.72-.92,2.26-1.64,1.65-3.1-.27-.65-.92-1.2-1.43-1.64-.73-.62-1.52-.88-2.31-.4s-1.51,1.44-2.03,2.26c-1.02,1.6-1.6,3.49-1.82,5.43-.23,2.05-.22,4.44.69,6.42.97,2.11,3.02,4.6,5.12,5.54,1.84.82,3.96,1.42,5.9,1.78,1.37.25,2.48.1,3.62-.62.78-.49,1.54-.92,2.37-1.33,2.34-1.17,3.74-3.71,4.7-6.12.91-2.27,1.23-4.78.46-7.26-.09-.3.34-.46.43-.16h0Z"/><path class="cls-1" d="m100.98,58.69c1.16,1.62,2.48,3.3,4.51,3.58,2,.27,4.1-.36,5.44-1.78s1.73-3.33,1.28-5.3c-.48-2.11-1.89-4.43-4.08-5.04-2-.55-3.74.75-4.99,2.07-.62.66-1.19,1.43-1.29,2.39-.13,1.24.51,2.45,1.31,3.41.61.73,1.66,1.95,2.66,1.91.77-.03,1.09-.78.59-1.43-.35-.45-.9-.7-1.36-1-1.46-.93-2.7-2.29-2.57-4.09.28-3.71,3.9-6.55,7.56-5.22.29.11.13.54-.16.44-2.44-.89-4.87.26-6.09,2.33-.62,1.05-1.14,2.53-.67,3.81s1.68,2.01,2.75,2.69c.65.41,1.37,1.05,1.28,1.89-.08.7-.77,1.09-1.43,1.05-.92-.05-1.69-.82-2.33-1.46-.79-.8-1.5-1.74-1.82-2.83-.63-2.1.54-3.68,1.95-4.93s3.2-2.1,5.15-1.34c3.89,1.51,5.34,7.32,3.12,10.39-1.31,1.81-3.54,2.67-5.79,2.56-2.43-.12-3.99-1.88-5.38-3.82-.18-.26.18-.54.36-.28h0Z"/><path class="cls-1" d="m110.18,48.22c3.84,2.11,6.05,6.53,5.09,10.71-.92,4.02-4.39,8.17-8.76,8.06-4.23-.11-8.28-4.08-9.43-8.17s1.44-9.23,4.49-11.65c3.87-3.07,9.25-1.37,12.57,2.34.21.24-.15.51-.36.28-2.76-3.09-7.14-4.88-10.75-2.98-3.3,1.73-5.7,6.1-5.76,9.97-.06,4.08,3.81,8.54,7.67,9.51,4.4,1.11,7.75-2.3,9.34-5.95,1.84-4.22-.05-9.37-4.27-11.69-.27-.15-.11-.59.16-.44h0Z"/><path class="cls-1" d="m117.77,54.19l-.07-.52c0-.06,0-.13.04-.17s.1-.08.15-.09.12.01.17.05.09.1.1.17l.07.52c0,.06,0,.13-.04.17s-.1.08-.15.09-.12-.01-.17-.05-.09-.1-.1-.17h0Z"/><path class="cls-1" d="m118.15,54.04c.05.13.08.26.09.4,0,.03,0,.06,0,.09,0,.03-.02.06-.03.08-.02.03-.04.05-.07.06-.03.02-.05.03-.09.03-.06,0-.12-.01-.17-.05s-.09-.1-.1-.17c0-.08-.02-.16-.04-.24l.02.06s-.02-.07-.03-.1c-.02-.06-.03-.12,0-.18,0-.03.03-.06.05-.07.02-.02.04-.04.08-.05.06-.02.12-.02.18,0s.11.08.13.14h0Z"/><path class="cls-1" d="m117.58,53.76c-.02-.16-.01-.31-.02-.47,0-.14,0-.29-.01-.43,0-.06.04-.12.08-.16.04-.03.11-.05.17-.04s.12.04.16.1l.03.06s.02.08.02.12c0,.23.01.47.02.7v-.06s0,.09,0,.14c0,.06,0,.12-.04.17-.03.05-.1.08-.15.09-.12,0-.26-.08-.27-.22h0Z"/><path class="cls-1" d="m114.27,49.7c1.33,1.8,2.5,3.58,3.32,5.65.41,1.04.78,2.09,1.22,3.12.1.23.2.46.31.69.24.51.28.65.81.92s.51.23.93.02c.34-.17.68-.35,1.01-.53,1.97-1.11,3.77-2.51,5.51-3.95.84-.7,1.67-1.42,2.5-2.14.87-.76,2.43-2,1.37-3.37-.19-.25.17-.53.36-.28,1.59,2.06-1.29,3.92-2.5,4.97-2.18,1.88-4.43,3.74-6.94,5.16-.66.38-1.75,1.28-2.58.75s-1.24-2.09-1.56-2.92c-.52-1.32-.97-2.67-1.61-3.95-.69-1.38-1.61-2.62-2.52-3.86-.19-.25.17-.53.36-.28h0Z"/><path class="cls-1" d="m131.43,50.2c-1.69-2.86-3.58-5.6-5.67-8.19-.89-1.11-1.91-2.63-3.14-3.36-1.62-.96-3.37-.21-4.65.76-1.15.88-2.18,1.94-3.24,2.92-.55.51-.79.38-.26,1.15s.52.51,1.27.08,1.57-.9,2.36-1.35c1.6-.92,3.2-2.29,5.05-.83,1.96,1.55,3.98,3.99,4.84,6.35s-.86,3.46-2.42,4.67c-1.14.88-2.29,1.75-3.41,2.65-.77.62-1.44,1.26-1.02,2.42.19.53.56.99.76,1.51.82,2.12-1.3,3.57-2.56,4.74-2.48,2.3-5.03,4.52-7.72,6.57-.71.54-1.68,1.56-2.7,1.44-.53-.06-.62-.31-1.02-.58-.73-.5-1.22.22-1.82.66-.24.17-.54-.22-.3-.39.53-.39,1.27-1.31,2.04-1.1.12.03.18.21.29.27.75.45,1.03.68,1.63.43.77-.31,1.46-1.03,2.1-1.53,2.44-1.89,4.77-3.91,7.04-6.01.95-.88,2.92-2.18,2.75-3.76-.12-1.12-1.21-1.98-1.13-3.14.07-.87.75-1.43,1.36-1.92,1.23-.99,2.5-1.95,3.75-2.92,1.34-1.04,2.67-1.99,1.89-4.01-.6-1.53-1.72-2.98-2.81-4.2-1.15-1.29-2.5-2.88-4.23-2.09-1.53.7-2.96,1.68-4.42,2.51-.6.34-1.33.89-2.09.59-.66-.26-.92-.92-.61-1.51.49-.92,1.62-1.59,2.37-2.28,1.07-.98,2.12-2.08,3.48-2.65.92-.39,2.01-.52,3.01-.17,1.27.44,2.16,1.7,3.01,2.71,2.45,2.91,4.64,6.03,6.57,9.29.16.27-.2.55-.36.28h0Z"/><path class="cls-1" d="m105.94,71.79c-.78.79-1.56,1.59-2.45,2.26-.76.57-1.67,1.18-2.64,1.31-.9.12-1.66-.45-2.12-1.24-.21-.35-.45-.79-.35-1.19.1-.42.5-.7.8-.96.48-.41.97-.8,1.47-1.18.27-.2.54-.4.82-.59.14-.1.92-.59.48-.81l.23-.02c-.64.39-1.25.81-1.83,1.28-.51.41-.96.93-1.53,1.27-.42.25-.93.36-1.42.13-.53-.24-.9-.76-1.21-1.25-.17-.26.19-.54.36-.28.37.57.87,1.32,1.61,1.14.62-.15,1.1-.76,1.57-1.16.6-.51,1.24-.98,1.92-1.4.24-.15.41-.28.66-.03.18.17.25.43.21.66-.04.27-.24.48-.45.63-.33.25-.69.48-1.02.73-.63.47-1.25.96-1.84,1.48-.3.27-.49.49-.3.93.14.34.36.69.63.95.6.58,1.31.47,1.97.19,1.63-.7,2.9-2.01,4.12-3.26.21-.21.5.18.3.39h0Z"/><path class="cls-1" d="m96.21,70.91c-1.19-1.68-2.39-3.36-3.58-5.04-1-1.41-2.25-2.83-2.91-4.43-.58-1.42.29-2.17,1.26-3.02,1.39-1.21,2.48-2.42,2.32-4.49-.05-.64-.28-2.03-.87-2.45-1.03-.73-2.06.33-2.82.89s-1.49,1.16-2.18,1.81c-.78.73-1.63,1.42-1.03,2.67s2.16,2.28,3.39,1.44c.67-.45,1.15-1.32,1.59-1.99.67-1.03,1.13-1.9.55-3.19-.45-1.02-1.18-1.95-1.91-2.79-.21-.24.16-.52.36-.28.97,1.13,2.51,2.95,2.33,4.53-.16,1.38-1.42,2.98-2.34,3.87s-2.28.82-3.32-.04c-.93-.76-1.77-2.21-1.14-3.31.35-.6.98-1.08,1.48-1.53.74-.68,1.53-1.3,2.35-1.88.78-.54,1.92-1.59,2.89-.65.9.88,1.21,2.47,1.15,3.63-.07,1.43-.72,2.58-1.72,3.5s-2.55,1.7-1.84,3.29c.51,1.15,1.37,2.18,2.1,3.21,1.42,2,2.84,3.99,4.25,5.99.18.26-.18.54-.36.28h0Z"/><path class="cls-1" d="m89.99,50.31c-.77-1.7-2.89-.88-3.86-.07-.53.45-1.09,1.13-1.18,1.87-.06.43.08.82.4,1.13.16.15.37.3.45.51.19.46-.2.69-.48.93-.55.47-.93,1.02-.74,1.82.16.66.5,1.3.7,1.95.22.7.37,1.42.46,2.14.04.31-.42.35-.46.04-.12-.97-.35-1.92-.72-2.85-.26-.67-.61-1.37-.49-2.09s.63-1.02,1.07-1.51c.17-.19.26-.28.05-.48-.13-.12-.27-.22-.38-.37-.21-.26-.32-.59-.34-.92-.22-2.56,4.57-5.34,5.95-2.28.13.29-.3.45-.43.16h0Z"/></g><g><path class="cls-1" d="m393.08,22.42c.12.42.29.83.51,1.21s.51.66.74,1.02c.16.25.08.28-.18.29-.27,0-.54.02-.82.03-.5.02-1,.03-1.5.05-.42.01-1.1.17-1.45-.11s-.61-.72-.88-1.07c-.61-.8-1.19-1.62-1.73-2.47-.25-.38-.83.01-.59.4.66,1.03,1.37,2.03,2.14,2.99.3.38.62.85,1.11.97.29.07.61.03.9.02.32,0,.63-.02.95-.03.63-.02,1.27-.04,1.9-.06.47-.02.88-.17.93-.7s-.38-.87-.66-1.26c-.33-.45-.56-.95-.72-1.49-.13-.44-.8-.21-.67.23h0Z"/><g><path class="cls-1" d="m347.19,19.03c-.73,3.56-1.84,7.01-3.32,10.31l.41-.22c-.7-.12.2-3.72.33-4.15.37-1.17.9-2.34,1.63-3.31.91-1.2,2.18-1.27,3.6-1.22s2.94.13,4.41.2c5.93.29,11.86.62,17.79,1.01.49.03.59-.73.09-.76-5.52-.36-11.05-.67-16.57-.95-1.37-.07-2.74-.13-4.11-.2-1.14-.05-2.34-.2-3.46-.02-2.11.34-3.16,2.4-3.85,4.21-.44,1.14-.72,2.36-.81,3.59-.06.79-.24,2.17.85,2.36.17.03.34-.07.41-.22,1.5-3.36,2.62-6.88,3.37-10.51.1-.48-.67-.6-.77-.12h0Z"/><path class="cls-1" d="m372.31,21.52c2.63,0,5.26.21,7.89.36s5.04.08,7.57,0c2.57-.08,5.08.33,7.64.6,1.12.11,2.27.02,3.38.18.9.12,1.29.73,1.47,1.56.13.58.28,1.28.04,1.83l.67-.07c-1.01-1.2-1.96-2.44-2.85-3.73-.29-.42-.9.03-.62.44.89,1.29,1.84,2.53,2.85,3.73.19.23.55.21.67-.07.41-.92.14-2.34-.33-3.24-.49-.95-1.37-1.23-2.37-1.25-2.85-.07-5.67-.64-8.52-.75s-5.95.18-8.94.03-5.77-.4-8.65-.39c-.5,0-.39.77.1.76h0Z"/><path class="cls-1" d="m382.08,22.19c.37.86,1.13,1.45,1.56,2.26.11.2.26.49,0,.61-.2.09-.52.05-.73.05-.53,0-1.06.02-1.59.02-.56,0-.94-.11-1.26-.6-.29-.43-.52-.9-.82-1.32-.62-.88-1.39-1.66-2.25-2.31-.4-.31-.87.29-.47.59,1.09.83,1.98,1.85,2.65,3.03.28.49.58.99,1.13,1.22s1.16.16,1.72.15c.84-.01,2.71.24,2.54-1.1-.14-1.13-1.33-1.85-1.76-2.86-.2-.46-.91-.19-.72.27h0Z"/><path class="cls-1" d="m372.08,20.85c-.99.69-.01,1.98.41,2.75.15.28.31.56.46.84.04.08.16.25.18.34.03.2-.08.21-.27.28-.54.2-1.18.29-1.76.31-1.27.05-2.1-1.15-2.79-2.08s-1.34-1.88-2.3-2.57c-.41-.29-.88.3-.47.59,1.1.79,1.77,1.97,2.59,3,.76.95,1.65,1.83,2.92,1.82.61,0,1.23-.12,1.81-.28.5-.14,1.09-.33,1.07-.94-.02-.55-.48-1.13-.74-1.6-.18-.32-1.08-1.56-.66-1.85.4-.28-.07-.91-.47-.63h0Z"/><path class="cls-1" d="m361.25,20.89c-.11,1.05.6,1.84,1.23,2.62.19.23.93,1.11.64,1.39-.11.1-.82.01-.97.02-.37,0-.74.01-1.11.02-.58,0-1.36.09-1.77-.44-.36-.46-.5-1.12-.79-1.63-.59-1.07-1.4-2.01-2.37-2.76-.4-.31-.87.28-.47.59,1.18.92,2.04,2.1,2.61,3.46.24.59.54,1.11,1.17,1.36s1.33.18,1.97.17c.4,0,.79-.01,1.19-.02.3,0,.68.04.95-.1.52-.27.44-.93.25-1.41-.42-1.08-1.9-1.93-1.77-3.16.05-.49-.72-.61-.77-.12h0Z"/><path class="cls-1" d="m347.83,19.48c2.34-.23,3.73,1.99,4.39,3.91.62,1.79.91,3.76,2.78,4.74.94.49,2,.78,2.99,1.13,1.16.41,2.32.82,3.49,1.23,2.33.81,4.65,1.62,6.98,2.42,4.56,1.56,9.14,3.09,13.72,4.58,4.51,1.47,9.06,2.89,13.37,4.9.55.26,1.45.53,1.82,1.03s.21,1.21.15,1.76c-.14,1.16-.33,2.41-1.17,3.27-.48.49-.98.58-1.62.74-.34.09-.6.2-.8.51-.26.42-.32,1.02-.44,1.49-.17.69-.35,1.38-.52,2.07l.43-.32c-3.16-.41-6.1-2.05-9.04-3.24s-6.2-2.4-9.34-3.5c-6.32-2.23-12.69-4.28-18.95-6.69-3.32-1.28-6.62-3.03-10.13-3.66-.27-.05-.54.25-.41.51.91,1.82,2.95,2.44,4.71,3.13,2.19.86,4.37,1.7,6.57,2.53,4.39,1.66,8.79,3.28,13.21,4.85,4.42,1.57,8.85,3.09,13.3,4.57,1.06.35,2.13.7,3.19,1.05s2.37.69,3.14,1.6c.68.8.84,2.01-.14,2.59-1.05.62-2.34.2-3.32-.41s-1.9-1.4-2.93-1.99c-1.13-.64-2.34-1.12-3.53-1.63-2.49-1.07-4.99-2.15-7.48-3.22-.46-.2-.75.5-.29.7,2.4,1.03,4.79,2.07,7.19,3.1,1.1.48,2.23.93,3.3,1.48,1.18.61,2.16,1.45,3.27,2.16,1.38.87,3.39,1.39,4.66.13,1.2-1.18.48-3.04-.76-3.97-.83-.62-1.85-.92-2.82-1.24-1.26-.41-2.52-.83-3.77-1.24-2.42-.8-4.83-1.62-7.24-2.46-4.82-1.66-9.62-3.38-14.4-5.16-2.68-.99-5.35-2.01-8.01-3.03-1.33-.51-2.67-1.03-3.99-1.56-1.2-.48-2.53-1.02-3.15-2.24l-.41.51c3.25.58,6.3,2.2,9.38,3.39s6.23,2.32,9.37,3.41c6.33,2.19,12.69,4.27,18.92,6.77,3.18,1.28,6.37,3.08,9.78,3.52.23.03.38-.11.43-.32.15-.59.3-1.18.45-1.77.18-.72.2-1.55,1.03-1.72s1.54-.62,2.04-1.32c.55-.77.79-1.71.94-2.64.12-.78.34-1.74.03-2.52-.36-.92-1.43-1.29-2.26-1.67-1.12-.53-2.25-1.01-3.4-1.47-2.3-.91-4.64-1.71-6.98-2.48-9.76-3.2-19.52-6.4-29.19-9.9-.66-.24-1.33-.49-1.84-1-.48-.47-.76-1.09-.98-1.7-.4-1.12-.65-2.29-1.18-3.37-.89-1.79-2.58-3.31-4.68-3.11-.49.05-.39.81.1.76h0Z"/><path class="cls-1" d="m372.3,49.39c-4.58-1.87-9.23-3.55-13.95-5.01-2.3-.71-4.61-1.37-6.93-1.99-1.05-.28-2.1-.54-3.15-.8-.69-.17-2.01-.76-2.6-.14-1.39,1.45,3.06,2.59,3.72,2.84,2.42.9,4.84,1.8,7.26,2.69,4.75,1.75,9.5,3.47,14.27,5.16,5.45,1.94,10.9,3.84,16.37,5.71.47.16.77-.54.29-.7-8.88-3.04-17.74-6.17-26.57-9.39-4.37-1.59-8.72-3.2-13.07-4.83-.28-.1-1.08-.27-1.29-.51-.61-.7.19-.4.39-.35.29.06.58.14.86.21,1.05.25,2.11.52,3.16.79,2.26.59,4.5,1.23,6.74,1.92,4.81,1.48,9.56,3.19,14.23,5.09.47.19.76-.51.29-.7h0Z"/><path class="cls-1" d="m387.08,57.59c.13.81.18,1.62.11,2.43-.03.32-.03.69-.14,1s-.05.35-.35.32c-.2-.02-.47-.25-.67-.34-1.6-.81-3.24-1.55-4.9-2.24-3.35-1.39-6.77-2.59-10.18-3.82-7.1-2.56-14.2-5.13-21.31-7.69-1.72-.62-3.44-1.34-5.19-1.86-.78-.23-2.12-.02-1.88,1.09.26,1.18,2.39,1.56,3.35,1.78,1.74.41,3.45.87,5.15,1.44,3.36,1.13,6.48,2.89,9.86,3.94,1.67.52,3.38.92,5.05,1.44s3.38,1.13,5.05,1.76c3.82,1.45,7.61,2.98,11.41,4.47.95.37,1.93.7,2.86,1.13.33.15.62.26.8.59.24.42.18.71-.37.66-.43-.04-1-.37-1.41-.52-1.98-.73-3.96-1.46-5.94-2.18-.47-.17-.76.53-.29.7,1.79.66,3.58,1.32,5.37,1.98.75.27,1.54.68,2.32.84.51.1.95-.11,1.16-.58.61-1.35-1.06-2.07-2.04-2.46-1.78-.7-3.56-1.4-5.34-2.1-3.53-1.39-7.04-2.83-10.61-4.09-3.45-1.22-7.09-1.89-10.46-3.34s-6.51-2.84-9.97-3.8c-.58-.16-5.56-1.19-5.06-2,.29-.47,2.43.57,2.82.71l2.94,1.06c7.35,2.65,14.69,5.3,22.04,7.96,3.91,1.41,7.85,2.79,11.65,4.49.96.43,1.9.88,2.84,1.35.47.24,1.22.83,1.73.4.44-.38.44-1.42.48-1.95.08-.87.03-1.75-.11-2.62-.08-.49-.85-.42-.77.08h0Z"/><path class="cls-1" d="m378.41,60.84c-8.54-3.16-17.07-6.34-25.61-9.48-2.09-.77-4.19-1.53-6.29-2.28-.86-.31-1.73-.67-2.61-.91-.63-.17-1.45-.09-1.62.65-.12.52.26.93.73,1.12,1.06.43,2.24.67,3.32,1.02,2.01.65,3.99,1.38,5.96,2.17,1.16.47,2.73.89,2.99,2.31.19,1.03.09,2.15.01,3.18-.16,2.26-.64,4.48-1.4,6.6l.59-.14c-1.16-.79-.94-2.37-.73-3.53.25-1.39.67-2.73,1.24-4.01.24-.54.49-1.12.88-1.57.55-.63,1.2-.55,1.94-.3,1.47.48,2.92,1.02,4.38,1.53s2.92,1.02,4.38,1.53c.68.24,1.36.48,2.04.71.64.22,1.11.23,1.25,1.11.04.25-.02.55-.04.79-.18,2.71-.96,5.31-2.24,7.67l.72.31c.76-2.78,2.61-5.17,4.53-7.26.52-.56,1.31-.19,1.96-.01.83.22,1.65.47,2.48.72,1.42.45,2.83.94,4.22,1.49.7.27,1.5.51,2.14.9.84.51.63,1.37.53,2.17-.17,1.42-.44,2.82-.83,4.18-.35,1.22-.71,2.92-1.75,3.75-1.1.87-2.62.21-3.77-.31-.46-.21-.75.49-.29.7,2.03.91,4.21,1.31,5.43-.86.61-1.09.95-2.37,1.27-3.58.36-1.36.61-2.75.76-4.16.11-1.1.05-2-1.06-2.59-1.32-.71-2.83-1.18-4.24-1.68s-2.8-.93-4.22-1.33c-.96-.27-2.21-.86-3.03-.1-1.05.98-1.96,2.27-2.78,3.44-.9,1.3-1.64,2.69-2.06,4.22-.13.47.48.75.72.31,1.21-2.22,1.98-4.67,2.24-7.2.09-.89.41-2.3-.5-2.92-.52-.36-1.27-.51-1.86-.71-.73-.26-1.46-.51-2.19-.77-1.46-.51-2.92-1.02-4.38-1.53-1.33-.47-2.67-1.03-4.04-1.4-2.42-.65-3.35,2.34-3.92,4.07-.62,1.87-1.77,5.37.37,6.82.2.14.51.11.59-.14.6-1.68,1.04-3.43,1.29-5.21.22-1.61.49-3.55.1-5.18-.41-1.75-2.36-2.29-3.83-2.88-1.92-.76-3.86-1.46-5.83-2.09-.87-.28-1.75-.54-2.63-.81l-.41-.13c.07-.34.23-.44.46-.31.22,0,.55.18.76.26.57.2,1.14.4,1.71.6,2,.71,4,1.44,6,2.17,4.07,1.5,8.14,3.01,12.21,4.52l13.7,5.07c.47.17.76-.53.29-.7h0Z"/><path class="cls-1" d="m397.34,42.78c-1.39,1.18-2.75,2.43-4.21,3.54-.69.53-1.44.9-2.36.79-.83-.1-1.61-.52-2.34-.9l.22.51c.6-1.75,1.6-3.29,2.97-4.52.22-.2.19-.52-.09-.66-1.03-.55-2.09-1.01-3.19-1.37-.16-.05-.34-.03-.45.11-.86,1.11-1.84,2.1-2.96,2.95-.58.44-1.06.8-1.83.68-.65-.1-1.31-.35-1.92-.58-.58-.22-3.6-1.29-2.74-2.17.41-.42,1.21-.67,1.72-.95.59-.33,1.19-.65,1.78-.98.22-.12.18-.47,0-.61-1.09-.86-2.27-1.75-3.69-1.82s-2.17.75-2.97,1.79c-1.05,1.37-2.73,1.12-4.28.73-.48-.12-.97-.27-1.44-.44-.34-.13-.34-.11-.54-.49-.22-.42-.16-.41.05-.76.46-.77.95-1.51,1.43-2.27.12-.19.09-.37-.07-.54-.58-.59-1.25-1.22-2.08-1.39-.89-.18-1.65.3-2.28.84-.86.73-1.57,1.72-2.69,2.09-1.03.35-2.26.19-3.2-.43-.25-.16-.59-.37-.64-.67s.15-.51.35-.74c.39-.47.85-.89,1.21-1.39.46-.62.8-1.41.67-2.21-.27-1.7-2.35-2.3-3.76-1.8-2.34.82-3.15,3.63-5.52,4.38l.53.42c.13-1.59.46-3.13,1-4.62.17-.46-.55-.77-.72-.31-.56,1.55-.92,3.16-1.05,4.81-.02.29.25.51.53.42,1.18-.38,2.04-1.22,2.84-2.12s1.75-2.17,3.1-2.37c1.54-.24,2.79,1.01,2.04,2.47-.5.97-2.03,1.77-2.06,2.94-.03.91,1.15,1.57,1.88,1.85.96.37,2.02.42,2.98.12,1.25-.39,2.01-1.41,2.97-2.22.57-.48,1.21-.93,2-.61.56.23,1.01.71,1.42,1.13l-.07-.54c-.52.83-1.07,1.64-1.56,2.48-.28.48-.49,1.04-.12,1.56.43.6,1.38.79,2.04.99.82.24,1.67.44,2.52.49.65.04,1.32-.01,1.91-.28.72-.33,1.12-.93,1.58-1.54,1.48-1.95,3.64-.59,5.2.65v-.61c-.85.47-1.69.93-2.54,1.4-.56.31-1.4.59-1.49,1.32-.15,1.28,1.78,2,2.68,2.4,1.23.54,3.08,1.42,4.36.76,1.59-.81,2.96-2.34,4.03-3.72l-.45.11c1.1.37,2.16.82,3.19,1.37l-.09-.66c-1.48,1.33-2.57,2.96-3.22,4.84-.07.2.02.4.22.51,1.52.79,3.11,1.4,4.69.54.85-.46,1.55-1.15,2.28-1.77l2.69-2.28c.37-.31-.1-.94-.47-.63h0Z"/><path class="cls-1" d="m377.62,74.9c-5.08-2.6-10.37-4.47-15.84-5.96-2.73-.74-5.46-1.5-8.1-2.57-2.44-.99-4.82-2.16-7.28-3.11-1.27-.49-2.56-.93-3.88-1.25-.99-.24-2.78-.89-3.63-.14-.14.12-.23.37-.07.54,1.47,1.54,3.36,2.35,5.34,2.99,2.2.72,4.41,1.38,6.61,2.09,4.44,1.45,8.86,2.97,13.25,4.58,4.43,1.62,8.83,3.33,13.23,5.05.57.22,1.16.43,1.72.67.13.06.57.19.65.32l-.06.57c-.19-.03-.37-.08-.55-.14-1.17-.34-2.32-.72-3.48-1.11-2.21-.75-4.4-1.55-6.59-2.36-4.34-1.62-8.69-3.24-13.03-4.86-4.1-1.53-8.2-3.32-12.43-4.42-.97-.25-1.96-.45-2.95-.57-.72-.08-1.46-.12-1.86.57-.86,1.48,1.03,2.72,2.17,3.29,1.87.93,3.98,1.28,5.98,1.8,2.27.59,4.53,1.26,6.77,1.97,9.96,3.17,19.73,7.04,29.45,10.94.47.19.76-.51.29-.7-8.61-3.46-17.27-6.84-26.04-9.82-4.16-1.41-8.36-2.65-12.61-3.7-1.03-.26-2.06-.53-3.05-.95-.63-.27-3.14-1.44-2.24-2.49.48-.56,2.57.09,3.2.23,1.13.25,2.23.59,3.33.97,4.23,1.44,8.39,3.1,12.58,4.66s8.48,3.19,12.73,4.74c2.19.8,4.4,1.57,6.62,2.26.59.18,1.53.64,2.16.43.6-.2.74-.9.46-1.43-.4-.77-1.48-1-2.22-1.29-1.1-.43-2.2-.86-3.3-1.29-2.2-.86-4.4-1.71-6.61-2.54-4.86-1.84-9.75-3.59-14.68-5.23-2.41-.8-4.83-1.58-7.25-2.34s-5.14-1.42-6.97-3.35l-.07.54c.44-.39,1.36-.08,1.9.02.65.12,1.29.27,1.93.45,1.2.34,2.38.77,3.54,1.24,2.32.94,4.58,2.04,6.91,2.97,4.95,1.98,10.2,2.92,15.21,4.73,2.9,1.05,5.73,2.29,8.48,3.7.45.23.74-.47.29-.7h0Z"/><path class="cls-1" d="m392.12,54.52c-1.32,4.84-2.63,9.68-3.95,14.53l-1.97,7.26c-.32,1.16-.63,2.32-.95,3.49-.16.58-1.09,4.17-2.17,3.22-.38-.33-.85.26-.47.59,2.08,1.82,3.22-2.99,3.52-4.09.74-2.71,1.47-5.42,2.21-8.13,1.5-5.52,3-11.04,4.5-16.56.13-.47-.59-.78-.72-.31h0Z"/><path class="cls-1" d="m339.38,67.26l-2.33-.56c-.72-.17-1.66-.24-2.33-.56l-.29-.07c-.27-.3-.34-.6-.19-.91.04-.36.21-.75.3-1.1.2-.73.41-1.46.61-2.19.8-2.9,1.61-5.79,2.42-8.69,1.65-5.85,3.36-11.69,5.14-17.5.14-.46-.58-.78-.72-.31-1.53,5-3.01,10.01-4.44,15.04-1.42,4.98-2.91,9.96-4.19,14.98-.29,1.13.63,1.35,1.55,1.57l4.38,1.05c.49.12.58-.64.09-.76h0Z"/><path class="cls-1" d="m342.7,36.03c.38-1.55.59-3.35,1.65-4.6.13-.16.18-.21.39-.17s.41.1.61.15c.41.1.81.21,1.22.33.82.23,1.63.49,2.44.77.47.16.77-.54.29-.7-.92-.32-1.84-.6-2.77-.87-.49-.14-.99-.27-1.49-.39-.4-.1-.73-.17-1.05.12-.68.61-1.09,1.53-1.34,2.39-.27.94-.48,1.89-.71,2.84-.12.47.65.59.77.12h0Z"/><path class="cls-1" d="m349,32.63c13.94,5.01,27.88,10.02,41.83,15.02.88.32,1.76.68,2.66.94.55.16,1.17.25,1.69-.02.64-.33.87-1.11,1.11-1.74.33-.87.59-1.76.82-2.66.12-.47-.65-.59-.77-.12-.2.79-.43,1.58-.72,2.34-.31.83-.57,1.76-1.68,1.53-.76-.16-1.51-.5-2.24-.76l-2.49-.9c-3.23-1.16-6.46-2.32-9.69-3.48-6.46-2.32-12.92-4.64-19.37-6.96-3.62-1.3-7.24-2.6-10.86-3.9-.47-.17-.76.53-.29.7h0Z"/><path class="cls-1" d="m354.12,29.3c.19-.97.44-2.22,1.47-2.61.9-.34,2.16-.26,3.12-.33,2.08-.14,4.16-.21,6.25-.1,4.12.22,8.23.7,12.35.95,4.03.24,8.06.38,12.09.42,2.05.02,4.09.02,6.14,0,.97-.01,1.95-.03,2.92-.06,1.06-.03,2.16-.09,3.15.42,2.08,1.06,3.25,3.43,5.05,4.87,1.31,1.05,2.99,1.75,4.65,1.39.48-.11.38-.87-.1-.76-4.33.96-6.12-4.69-9.43-6.25-1.72-.81-3.94-.4-5.75-.37-2.14.03-4.28.04-6.43.02-4.35-.04-8.71-.2-13.06-.47-4.26-.27-8.52-.83-12.78-.95-2.35-.07-4.69.1-7.02.29-.85.07-1.69.15-2.3.78-.68.7-.91,1.72-1.09,2.66-.09.48.68.6.77.12h0Z"/></g></g><g><path class="cls-1" d="m425.93,47.45c2.41-3.02,6.19-4.95,10.12-5.22.69-.05.69.95,0,1-3.67.25-7.11,2.07-9.36,4.88-.42.53-1.17-.14-.76-.67h0Z"/><path class="cls-1" d="m423.22,44.6c3.18-3.17,7.4-5.24,11.91-5.87.68-.1.68.9,0,1-4.22.59-8.18,2.57-11.15,5.54-.48.48-1.24-.18-.76-.67h0Z"/><g><path class="cls-2" d="m449.75,80.91c-13.42,6.76-29.86,1.81-36.72-11.06s-1.53-28.78,11.89-35.54c13.42-6.76,29.86-1.81,36.72,11.06,5.46,10.25,3.2,22.42-4.73,30.37"/><ellipse class="cls-2" cx="429.53" cy="42.48" rx="6.83" ry="6.57" transform="translate(-1.5 65.06) rotate(-8.65)"/><ellipse class="cls-2" cx="447.57" cy="42.87" rx="6.83" ry="6.57" transform="translate(-1.36 67.78) rotate(-8.65)"/><ellipse class="cls-2" cx="455.56" cy="57.85" rx="6.83" ry="6.57" transform="translate(-3.52 69.15) rotate(-8.65)"/><ellipse class="cls-2" cx="419.44" cy="57.04" rx="6.83" ry="6.57" transform="translate(-3.81 63.71) rotate(-8.65)"/><ellipse class="cls-2" cx="427.78" cy="72.69" rx="6.83" ry="6.57" transform="translate(-6.07 65.14) rotate(-8.65)"/><ellipse class="cls-2" cx="445.64" cy="72.71" rx="6.83" ry="6.57" transform="translate(-5.87 67.83) rotate(-8.65)"/><ellipse class="cls-2" cx="437.58" cy="57.59" rx="7.46" ry="7.18" transform="translate(-3.69 66.44) rotate(-8.65)"/><ellipse class="cls-2" cx="437.58" cy="57.59" rx="1.33" ry="1.28" transform="translate(-3.68 66.45) rotate(-8.65)"/><ellipse class="cls-2" cx="437.86" cy="53.31" rx="1.33" ry="1.28" transform="translate(-3.04 66.44) rotate(-8.65)"/><ellipse class="cls-2" cx="441.86" cy="55.44" rx="1.33" ry="1.28" transform="translate(-3.31 67.06) rotate(-8.65)"/><ellipse class="cls-2" cx="441.26" cy="59.95" rx="1.33" ry="1.28" transform="translate(-4 67.02) rotate(-8.65)"/><ellipse class="cls-2" cx="437.18" cy="61.94" rx="1.33" ry="1.28" transform="translate(-4.34 66.43) rotate(-8.65)"/><ellipse class="cls-2" cx="433.29" cy="59.75" rx="1.33" ry="1.28" transform="translate(-4.06 65.82) rotate(-8.65)"/><ellipse class="cls-2" cx="433.7" cy="55.4" rx="1.33" ry="1.28" transform="translate(-3.4 65.84) rotate(-8.65)"/><path class="cls-1" d="m442.58,38.87c4.38,1.16,8.13,3.64,10.82,7.01.4.5-.53,1.04-.93.54-2.51-3.14-6.08-5.49-10.16-6.57-.65-.17-.38-1.15.27-.98h0Z"/><path class="cls-1" d="m455.5,63.8c1.2-1.86,1.19-4.17,1.27-6.23s-.03-4.1-1.19-5.8c-.36-.53.57-1.07.93-.54,1.25,1.84,1.41,4.1,1.33,6.29s-.1,4.72-1.4,6.73c-.36.56-1.29.12-.93-.44h0Z"/><path class="cls-1" d="m451.4,62.3c1.06-1.36,1.3-3.18,1.3-4.77s-.33-3.22-.95-4.71c-.24-.59.79-.89,1.03-.31.68,1.63,1.02,3.41.98,5.2-.04,1.82-.41,3.72-1.61,5.26-.18.22-.57.2-.75.04-.23-.2-.18-.48,0-.71h0Z"/><path class="cls-1" d="m449.48,48.85c-1.66-3-4.77-5.15-8.42-5.62-.68-.09-.4-1.07.27-.98,3.91.5,7.3,2.85,9.08,6.06.31.56-.62,1.1-.93.54h0Z"/><path class="cls-1" d="m418.33,63.34c-.98-4.11-.59-8.5,1.18-12.51.27-.6,1.19-.15.93.44-1.66,3.76-2,7.92-1.08,11.76.15.62-.88.93-1.03.31h0Z"/><path class="cls-1" d="m422.29,62.58c-1.24-3.38-1.06-7.22.57-10.59.29-.6,1.22-.15.93.44-1.52,3.14-1.62,6.72-.47,9.84.22.6-.81.9-1.03.31h0Z"/><path class="cls-1" d="m425.81,66.74c1.95,2.84,5.1,4.85,8.72,5.41.67.1.4,1.08-.27.98-3.9-.61-7.29-2.79-9.38-5.85-.36-.53.56-1.07.93-.54h0Z"/><path class="cls-1" d="m433.09,76.76c-2.18-.66-4.22-1.58-6.08-2.8s-3.65-2.62-4.91-4.37c-.37-.52.55-1.06.93-.54,1.19,1.66,2.96,3.03,4.71,4.15,1.73,1.1,3.62,1.97,5.62,2.58.64.19.38,1.17-.27.98h0Z"/><path class="cls-1" d="m439.4,71.97c.78.17,1.54-.03,2.29-.29.92-.32,1.83-.68,2.71-1.1,1.76-.83,3.37-1.9,4.56-3.4.42-.53,1.17.14.76.67-1.32,1.66-3.17,2.85-5.13,3.74-.93.42-1.88.81-2.85,1.12-.85.28-1.74.43-2.61.24-.66-.15-.39-1.13.27-.98h0Z"/><path class="cls-1" d="m440.14,76.05c2.12-.36,4.17-1.13,6.07-2.13.92-.49,1.8-1.03,2.66-1.61s1.98-1.22,2.51-2.11c.34-.57,1.27-.13.93.44-.55.93-1.57,1.57-2.47,2.2-.99.7-2.02,1.34-3.1,1.91-2.07,1.1-4.28,1.89-6.6,2.29-.68.12-.68-.88,0-1h0Z"/><path class="cls-1" d="m464.92,63.41c.96-1.52,2.39-2.61,3.83-3.71.74-.56,1.47-1.14,2.12-1.8s1.16-1.45,1.75-2.17c.41-.49.98-1.2,1.7-1.24s1.48.68,2.02,1.06c1.61,1.14,3.13,2.39,4.55,3.74.47.44-.28,1.19-.75.75-1.21-1.15-2.49-2.23-3.85-3.23-.33-.24-.66-.48-1-.71-.2-.14-.69-.62-.96-.58-.32.05-.68.56-.88.79-.27.32-.52.66-.77.99-.91,1.2-2,2.17-3.22,3.1-1.34,1.03-2.73,2.04-3.62,3.46-.36.57-1.29.12-.93-.44h0Z"/><path class="cls-1" d="m450.67,80.22c3.46-1.03,6.68-2.63,9.82-4.36s6.49-3.75,9.6-5.82c3.19-2.13,6.36-4.29,8.88-7.13,1.93-2.17,4.23-2.88,7.08-3.24,1.64-.21,3.31-.32,4.89-.84.96-.32,1.95-.84,2.39-1.76s-.03-2.49-1.37-2.19l.38-.63c.52,3.13,3.19,5.61,6.62,5.86.68.05.41,1.03-.27.98-3.75-.27-6.81-3.09-7.38-6.53-.04-.25.07-.56.38-.63,1.16-.26,2.25.28,2.71,1.27.58,1.26-.12,2.74-1.24,3.61-2.52,1.95-6.28,1.52-9.21,2.2-2.05.48-3.27,1.51-4.62,3.02s-2.96,2.79-4.61,4c-3.57,2.6-7.31,5-11.15,7.22-4.01,2.32-8.14,4.57-12.61,5.9-.66.2-.94-.75-.27-.95h0Z"/><path class="cls-1" d="m456.38,76.71c.33.29.67.57,1,.86.2.17.21.51,0,.71s-.54.22-.75.04c-.33-.29-.67-.57-1-.86-.2-.17-.21-.51,0-.71s.54-.22.75-.04h0Z"/><path class="cls-1" d="m459.42,73.15c.84.56,1.61,1.21,2.29,1.94.18.19.23.5,0,.71-.2.18-.56.24-.75.04-.68-.73-1.45-1.38-2.29-1.94-.22-.15-.2-.53,0-.71.24-.21.52-.2.75-.04h0Z"/><path class="cls-1" d="m462.88,68.32c1.37,1.3,2.76,2.58,4.17,3.85.48.43-.27,1.18-.75.75-1.4-1.27-2.79-2.55-4.17-3.85-.47-.44.28-1.19.75-.75h0Z"/><path class="cls-1" d="m465.89,63.43c.28,1.25,1.14,2.27,2,3.21.94,1.04,1.98,1.99,3.11,2.85.52.4-.24,1.14-.75.75-1.21-.93-2.32-1.96-3.32-3.09-.89-1.01-1.77-2.09-2.07-3.42-.14-.62.89-.93,1.03-.31h0Z"/><path class="cls-1" d="m470.54,59.74c1.39,2.35,3.62,4.07,5.81,5.74.52.4-.24,1.14-.75.75-2.26-1.72-4.55-3.51-5.98-5.94-.32-.55.6-1.09.93-.54h0Z"/><path class="cls-1" d="m410.7,53.92c.25,2.88,1.71,5.55,4.02,7.38.41.32-.19.92-.6.6-2.47-1.97-4.01-4.84-4.27-7.93-.04-.51.81-.55.85-.05h0Z"/><path class="cls-1" d="m424.56,53.06c-2.04-3.61-4.38-8.03-2.16-12.26.25-.47.99-.11.74.35-2.06,3.93.27,8.14,2.16,11.47.25.44-.49.88-.74.43h0Z"/><path class="cls-1" d="m443.37,38.24c-1.15.44-1.87,1.41-2.47,2.39s-1.09,1.89-1.76,2.77c-1.25,1.66-2.8,3.11-4.73,4.05-.49.24-.92-.43-.42-.67,2.16-1.05,3.82-2.76,5.08-4.69,1.13-1.73,1.93-3.79,4.08-4.62.52-.2.73.56.22.76h0Z"/><path class="cls-1" d="m450.22,53.11c.72-1.39,2.03-2.42,2.78-3.79.65-1.19.83-2.56.58-3.82-.1-.5.72-.75.82-.25.28,1.37.12,2.79-.49,4.1-.72,1.53-2.17,2.62-2.94,4.12-.24.47-.99.12-.74-.35h0Z"/><path class="cls-1" d="m455.27,64.86c-2.86,1.7-6.27.51-9.26,1.71-.51.21-.73-.56-.22-.76,1.47-.59,3.06-.61,4.61-.67,1.51-.05,3.1-.15,4.44-.95.47-.28.9.39.42.67h0Z"/><path class="cls-1" d="m434.46,69.97c1.59,2.77,3.42,5.64,6.48,7.17.47.24.06.95-.42.72-3.19-1.59-5.13-4.55-6.8-7.45-.25-.44.49-.88.74-.43h0Z"/><path class="cls-1" d="m426.43,65.78c2.73.23,5.47.56,8.22.65,2.6.08,4.99-.5,7.29-1.76,1.11-.61,2.36-1.31,3.22-2.23.95-1.01,1.1-2.33,1.1-3.58-.01-2.61-.92-4.88-3.53-5.98-.49-.21-.07-.92.42-.72,2.42,1.02,3.76,3.14,3.93,5.63.09,1.26.1,2.62-.42,3.84s-1.62,2.06-2.76,2.79c-2.36,1.54-4.98,2.66-7.82,2.8-3.28.15-6.62-.38-9.86-.65-.54-.05-.32-.83.21-.78h0Z"/><path class="cls-1" d="m449.16,80.72c.33-.19.69-.28,1.05-.35.17-.03.34-.06.5-.11.08-.02.16-.05.24-.07.04-.01.16-.07.05-.01.04-.02.08-.04.12-.06.2-.11.47-.07.58.12.1.18.05.44-.16.55-.33.18-.69.26-1.06.33-.17.03-.33.07-.5.11-.08.02-.16.05-.24.08-.01,0-.09.04-.02,0s-.01,0-.02.01c-.04.02-.08.04-.12.06-.19.11-.48.07-.58-.12s-.05-.43.16-.55h0Z"/><path class="cls-1" d="m455.75,77.34c-.14-.09-.24-.19-.29-.35-.04-.12-.04-.27,0-.39.09-.26.3-.43.52-.6.18-.15.37-.3.55-.46.2-.16.4-.34.63-.46.2-.1.47-.07.58.12.1.18.06.44-.16.55-.08.04-.16.09-.23.14-.08.06.04-.04-.03.03-.04.03-.08.07-.12.1-.14.12-.28.23-.42.35s-.28.23-.41.34c-.03.03-.06.06-.09.09-.02.02-.02.02.01-.02-.02.04-.02.04,0,0-.03.08,0-.07,0,0,0-.03,0-.06-.03-.09.04.06.01.04-.09-.07.1.06.17.12.2.24.03.09.01.21-.04.3-.11.17-.39.3-.58.18h0Z"/></g></g><g><path class="cls-1" d="m691,25.01c-3.06.17-6.03,1.72-7.98,4.14-.34.42.31.88.65.46,1.82-2.25,4.57-3.64,7.42-3.8.53-.03.44-.82-.09-.79h0Z"/><path class="cls-1" d="m690.37,21.97c-3.51.6-6.76,2.38-9.21,4.99-.37.4.28.85.65.46,2.29-2.45,5.38-4.1,8.66-4.66.53-.09.44-.88-.09-.79h0Z"/><g><path class="cls-2" d="m702.01,55.68c10.48-5.56,14.7-18.43,9.42-28.73-5.28-10.31-18.05-14.16-28.53-8.59s-14.7,18.43-9.42,28.73c4.2,8.21,13.16,12.32,21.92,10.85"/><ellipse class="cls-2" cx="686.13" cy="25.06" rx="5.38" ry="5.23" transform="translate(168.42 476.04) rotate(-43.15)"/><ellipse class="cls-2" cx="678.22" cy="36.88" rx="5.38" ry="5.23" transform="translate(158.2 473.83) rotate(-43.15)"/><ellipse class="cls-2" cx="684.36" cy="48.88" rx="5.38" ry="5.23" transform="translate(151.66 481.27) rotate(-43.15)"/><ellipse class="cls-2" cx="700.18" cy="25.22" rx="5.38" ry="5.23" transform="translate(172.12 485.7) rotate(-43.15)"/><ellipse class="cls-2" cx="706.6" cy="37.76" rx="5.38" ry="5.23" transform="translate(165.28 493.48) rotate(-43.15)"/><ellipse class="cls-2" cx="698.53" cy="49.28" rx="5.38" ry="5.23" transform="translate(155.22 491.07) rotate(-43.15)"/><ellipse class="cls-2" cx="692.33" cy="37.17" rx="5.88" ry="5.72" transform="translate(161.82 483.56) rotate(-43.15)"/><ellipse class="cls-2" cx="692.33" cy="37.17" rx="1.05" ry="1.02" transform="translate(161.82 483.56) rotate(-43.15)"/><ellipse class="cls-2" cx="689.41" cy="35.39" rx="1.05" ry="1.02" transform="translate(162.25 481.08) rotate(-43.15)"/><ellipse class="cls-2" cx="688.99" cy="38.94" rx="1.05" ry="1.02" transform="translate(159.71 481.75) rotate(-43.15)"/><ellipse class="cls-2" cx="692.2" cy="40.62" rx="1.05" ry="1.02" transform="translate(159.43 484.4) rotate(-43.15)"/><ellipse class="cls-2" cx="695.34" cy="38.9" rx="1.05" ry="1.02" transform="translate(161.45 486.08) rotate(-43.15)"/><ellipse class="cls-2" cx="695.68" cy="35.39" rx="1.05" ry="1.02" transform="translate(163.94 485.37) rotate(-43.15)"/><ellipse class="cls-2" cx="692.66" cy="33.67" rx="1.05" ry="1.02" transform="translate(164.31 482.84) rotate(-43.15)"/><path class="cls-1" d="m677.87,31.82c-1.22,3.35-1.31,6.91-.33,10.18.14.49.92.14.77-.35-.91-3.06-.82-6.43.32-9.56.18-.5-.58-.78-.76-.28h0Z"/><path class="cls-1" d="m688.26,51.56c-1.75-.08-3.26-1.14-4.63-2.03s-2.66-1.9-3.24-3.42c-.18-.47-.95-.13-.77.35.63,1.65,2.03,2.79,3.49,3.73,1.49.97,3.12,2.09,5.02,2.17.53.02.66-.78.13-.8h0Z"/><path class="cls-1" d="m689.14,48.23c-1.36.06-2.66-.62-3.7-1.34s-1.95-1.69-2.64-2.77c-.27-.43-.94.1-.67.52.76,1.19,1.76,2.22,2.94,3.01,1.2.81,2.61,1.44,4.15,1.37.23-.01.39-.27.37-.47-.02-.24-.23-.33-.46-.32h0Z"/><path class="cls-1" d="m681.25,40.84c-1.2-2.45-1.2-5.44.15-8,.25-.48-.51-.75-.76-.28-1.44,2.75-1.45,6.01-.16,8.63.22.45,1,.11.77-.35h0Z"/><path class="cls-1" d="m704.79,27.38c-2.23-2.51-5.26-4.27-8.69-4.96-.51-.1-.64.7-.13.8,3.2.65,6.06,2.33,8.15,4.68.34.38,1.01-.14.67-.52h0Z"/><path class="cls-1" d="m702.5,29.59c-1.64-2.35-4.22-3.99-7.16-4.48-.52-.09-.65.72-.13.8,2.73.46,5.11,2.03,6.62,4.2.29.42.96-.11.67-.52h0Z"/><path class="cls-1" d="m703.62,33.77c.97,2.56.85,5.5-.42,8.1-.24.48.52.76.76.28,1.37-2.79,1.48-5.98.44-8.72-.18-.47-.95-.13-.77.35h0Z"/><path class="cls-1" d="m706.85,43.05c.56-1.7.88-3.45.93-5.2s-.06-3.55-.62-5.16c-.17-.48-.94-.13-.77.35.54,1.53.63,3.29.57,4.93-.06,1.62-.35,3.24-.87,4.81-.16.5.59.78.76.28h0Z"/><path class="cls-1" d="m700.87,44.92c-.24.58-.71.98-1.22,1.35-.62.45-1.27.87-1.94,1.25-1.34.75-2.76,1.3-4.28,1.38-.53.03-.44.82.09.79,1.68-.09,3.29-.74,4.76-1.6.69-.41,1.38-.84,2.02-1.32.57-.42,1.07-.92,1.34-1.57.2-.49-.56-.77-.76-.28h0Z"/><path class="cls-1" d="m703.2,47.26c-1.2,1.2-2.62,2.17-4.14,2.94-.73.37-1.49.69-2.25.98s-1.69.72-2.51.65c-.53-.04-.66.76-.13.8.86.07,1.74-.29,2.55-.58.9-.32,1.79-.69,2.65-1.12,1.66-.83,3.17-1.89,4.48-3.2.38-.39-.27-.84-.65-.46h0Z"/><path class="cls-1" d="m683.74,57.45c-1.42-.08-2.78.35-4.15.78-.7.22-1.41.43-2.13.54s-1.47.08-2.21.14c-.51.04-1.23.08-1.58.53s-.22,1.27-.22,1.79c.01,1.56.14,3.11.38,4.64.08.51.9.36.83-.14-.2-1.31-.33-2.63-.36-3.96,0-.32-.01-.65-.01-.97,0-.19-.09-.73.06-.88.18-.18.67-.18.91-.2.33-.03.66-.03,1-.04,1.2-.04,2.32-.3,3.47-.66,1.28-.4,2.56-.83,3.89-.75.53.03.66-.77.13-.8h0Z"/><path class="cls-1" d="m701.15,55.96c-2.24,1.76-4.74,3.1-7.29,4.34s-5.38,2.47-8.13,3.52c-2.83,1.09-5.67,2.14-8.66,2.47-2.29.25-3.8,1.41-5.32,3.08-.87.96-1.7,1.99-2.76,2.77-.64.48-1.43.87-2.23.74s-1.61-1.16-.8-1.89l-.58-.04c1.8,1.77,2.21,4.63.82,6.94-.28.46.49.73.76.28,1.53-2.54,1.07-5.8-.91-7.74-.14-.14-.4-.21-.58-.04-.69.63-.84,1.58-.4,2.33.56.95,1.84,1.18,2.91.85,2.41-.73,3.83-3.35,5.61-4.93,1.24-1.1,2.47-1.42,4.06-1.6s3.16-.63,4.69-1.15c3.31-1.11,6.57-2.42,9.75-3.88s6.66-3.16,9.56-5.43c.43-.34-.06-.95-.5-.61h0Z"/><path class="cls-1" d="m696.27,58.04c.03.35.07.69.1,1.04.02.21.24.37.46.32s.39-.25.37-.47c-.03-.35-.07-.69-.1-1.04-.02-.21-.24-.37-.46-.32s-.39.25-.37.47h0Z"/><path class="cls-1" d="m692.58,58.37c-.01.8.06,1.59.23,2.36.04.2.22.38.46.32.21-.04.41-.25.37-.47-.16-.77-.24-1.56-.23-2.36,0-.21-.26-.37-.46-.32-.25.05-.36.24-.37.47h0Z"/><path class="cls-1" d="m687.86,58.39c.22,1.48.43,2.96.62,4.45.07.51.89.37.83-.14-.19-1.49-.4-2.97-.62-4.45-.08-.51-.9-.36-.83.14h0Z"/><path class="cls-1" d="m683.31,58.09c.68.75.96,1.78,1.19,2.76.25,1.08.4,2.19.45,3.31.02.52.85.37.83-.14-.06-1.2-.22-2.39-.51-3.55-.26-1.04-.56-2.09-1.29-2.9-.34-.37-1.01.15-.67.52h0Z"/><path class="cls-1" d="m678.8,59.4c.9,1.97,1.01,4.19,1.11,6.37.02.52.85.37.83-.14-.1-2.25-.23-4.54-1.16-6.57-.21-.46-.98-.11-.77.35h0Z"/><path class="cls-1" d="m702.11,18.16c1.77,1.48,2.84,3.65,2.99,5.97.03.41.69.3.66-.11-.16-2.5-1.34-4.8-3.23-6.38-.31-.26-.73.27-.42.53h0Z"/><path class="cls-1" d="m695.28,26.7c-1.43-2.97-3.25-6.5-7.01-7-.42-.06-.52.59-.11.64,3.49.47,5.18,3.9,6.5,6.64.17.36.79.09.62-.28h0Z"/><path class="cls-1" d="m677.1,32.05c.81-.54,1.77-.56,2.67-.5s1.72.16,2.6.14c1.65-.04,3.3-.38,4.78-1.2.38-.21.14-.79-.25-.58-1.66.91-3.53,1.2-5.35,1.13-1.64-.06-3.34-.49-4.86.52-.36.24.03.73.4.49h0Z"/><path class="cls-1" d="m683.68,43.27c-1.23-.17-2.5.2-3.73.06-1.07-.12-2.04-.63-2.75-1.38-.28-.29-.81.12-.53.42.76.8,1.76,1.36,2.9,1.56,1.32.24,2.69-.2,4.01-.01.42.06.52-.58.11-.64h0Z"/><path class="cls-1" d="m689.05,51.9c2.4-1.07,3.17-3.81,5.3-5.19.37-.24-.03-.73-.4-.49-1.05.68-1.79,1.69-2.52,2.67s-1.5,1.93-2.63,2.43c-.4.18-.15.76.25.58h0Z"/><path class="cls-1" d="m701.81,40.82c1.09,2.29,2.13,4.79,1.74,7.45-.06.41.6.47.66.06.41-2.78-.64-5.39-1.78-7.79-.17-.36-.79-.09-.62.28h0Z"/><path class="cls-1" d="m702.71,33.72c-1.09,1.86-2.11,3.79-3.3,5.6-1.13,1.71-2.58,2.99-4.45,3.9-.9.44-1.92.92-2.91,1.05-1.09.15-2.01-.35-2.83-.93-1.69-1.2-2.76-2.83-2.3-5.02.09-.41-.57-.47-.66-.06-.43,2.03.34,3.86,1.88,5.11.78.63,1.66,1.26,2.69,1.49s2.07-.11,3.07-.5c2.07-.82,3.99-1.99,5.36-3.76,1.58-2.05,2.75-4.44,4.04-6.66.22-.37-.39-.59-.61-.22h0Z"/><path class="cls-1" d="m702.15,55.21c-.27.12-.49.32-.7.52-.1.09-.19.19-.3.27-.05.04-.1.08-.16.12-.02.02-.12.07-.03.02-.03.02-.06.03-.09.05-.16.08-.26.27-.19.43.07.15.26.24.43.15.27-.13.48-.33.7-.53.1-.09.19-.19.3-.27.05-.04.1-.08.16-.12.01,0,.06-.04.02-.01s.01,0,.02,0c.03-.02.06-.03.09-.05.16-.07.26-.28.19-.43s-.26-.23-.43-.15h0Z"/><path class="cls-1" d="m696.96,57.92c0-.13-.01-.24-.09-.35-.06-.08-.16-.15-.26-.18-.21-.06-.42,0-.63.06-.18.05-.36.1-.55.15-.2.05-.4.1-.59.2-.16.08-.26.27-.19.43.07.15.26.24.43.15.06-.03.13-.06.2-.08.08-.03-.04,0,.03,0,.04-.01.08-.02.12-.03.14-.04.28-.08.42-.11s.27-.08.41-.11c.03,0,.07-.01.1-.02.02,0,.02,0-.02,0,.04,0,.04,0,0,0,.06.02-.05-.03,0,0-.02-.01-.04-.03-.05-.06.02.05.02.02,0-.09,0,.09,0,.17.06.24.05.06.13.11.21.11.16,0,.37-.11.38-.29h0Z"/></g></g><g><path class="cls-1" d="m752.94,13.84c.45.09.9.13,1.36.11.22,0,.43-.03.64-.07.19-.03.41-.11.6-.1.29,0,.18.12.07.31-.13.23-.27.47-.4.7-.25.45-.51.9-.76,1.35-.2.36-.4.95-.82,1.11s-.95.19-1.4.26c-.99.15-1.98.26-2.98.33-.46.03-.38.71.07.67,1.23-.09,2.45-.24,3.67-.45.48-.08,1.03-.14,1.39-.51.18-.18.29-.42.41-.64.17-.29.33-.59.5-.88.32-.57.64-1.13.96-1.7.22-.38.29-.79-.1-1.07s-.9-.11-1.36-.04c-.6.09-1.18.06-1.76-.06-.44-.09-.55.59-.11.68h0Z"/><g><path class="cls-1" d="m726.36,51.17c2.67,2.25,5.05,4.77,7.11,7.52l.02-.45c-.46.54-3.08-1.87-3.38-2.18-.81-.85-1.54-1.83-1.99-2.9-.56-1.32.04-2.43.82-3.61s1.63-2.43,2.45-3.64c3.3-4.89,6.65-9.76,10.03-14.61.28-.4-.31-.84-.6-.43-3.15,4.52-6.27,9.05-9.36,13.61-.76,1.13-1.53,2.26-2.28,3.39-.63.94-1.38,1.89-1.81,2.92-.8,1.94.42,3.78,1.61,5.19.75.89,1.65,1.69,2.65,2.33.64.41,1.74,1.19,2.45.36.11-.13.11-.32.02-.45-2.1-2.81-4.53-5.37-7.25-7.65-.36-.3-.86.29-.5.6h0Z"/><path class="cls-1" d="m741.44,31.03c1.35-2.23,2.89-4.36,4.37-6.52s2.67-4.23,3.91-6.41,2.91-4.15,4.45-6.2c.67-.89,1.19-1.91,1.89-2.78.57-.7,1.28-.76,2.09-.54.57.16,1.24.35,1.58.81l.29-.6c-1.55.31-3.1.54-4.66.71-.5.05-.44.78.06.73,1.56-.16,3.11-.4,4.66-.71.3-.06.46-.37.29-.6-.57-.77-1.93-1.18-2.94-1.2-1.06-.02-1.76.6-2.29,1.43-1.53,2.39-3.47,4.51-5.03,6.87-1.64,2.48-2.92,5.12-4.59,7.58s-3.32,4.71-4.8,7.15c-.26.42.45.68.71.26h0Z"/><path class="cls-1" d="m747.05,23.05c.93.09,1.82-.29,2.74-.29.23,0,.55,0,.52.28-.03.21-.23.46-.34.65-.27.45-.53.9-.8,1.35-.29.47-.58.74-1.17.79-.52.05-1.03.03-1.55.09-1.07.13-2.13.42-3.14.85-.47.2-.2.87.27.67,1.27-.54,2.6-.83,3.96-.86.56-.01,1.14-.04,1.63-.39s.73-.91,1.01-1.39c.42-.72,1.6-2.18.37-2.66-1.04-.4-2.27.29-3.35.18-.5-.05-.64.68-.14.73h0Z"/><path class="cls-1" d="m740.74,30.92c.08,1.15,1.69.92,2.56.91.32,0,.64,0,.96,0,.09,0,.3-.02.38,0,.18.07.14.17.1.36-.11.55-.36,1.13-.64,1.63-.62,1.1-2.07,1.26-3.21,1.41s-2.3.28-3.38.77c-.46.21-.2.88.27.67,1.24-.57,2.59-.6,3.9-.82,1.2-.21,2.42-.56,3.06-1.64.31-.52.53-1.09.7-1.66.14-.48.28-1.07-.25-1.34-.48-.24-1.21-.11-1.75-.11-.37,0-1.89.21-1.92-.29-.03-.47-.81-.36-.78.11h0Z"/><path class="cls-1" d="m735.19,40.11c.84.57,1.88.33,2.87.15.29-.05,1.43-.28,1.52.1.03.14-.41.7-.49.83-.19.32-.37.63-.56.95-.29.49-.63,1.19-1.28,1.3-.58.09-1.22-.09-1.8-.08-1.22.01-2.44.27-3.59.75-.47.2-.21.87.27.67,1.4-.58,2.85-.77,4.31-.63.63.06,1.23.05,1.77-.37s.84-1.04,1.17-1.59c.2-.34.4-.68.6-1.02.15-.26.39-.55.41-.85.03-.56-.57-.8-1.07-.86-1.13-.14-2.63.73-3.62.06-.39-.27-.89.33-.5.6h0Z"/><path class="cls-1" d="m727.07,50.83c1.01-2.08,3.63-2.25,5.61-1.93,1.85.3,3.68.94,5.49-.18.91-.57,1.7-1.34,2.51-2.02.95-.8,1.9-1.59,2.85-2.39,1.9-1.6,3.78-3.2,5.67-4.81,3.69-3.15,7.35-6.33,11-9.53s7.14-6.35,11.09-9.09c.5-.35,1.2-.99,1.82-1.07s1.14.37,1.58.68c.91.65,1.89,1.38,2.19,2.49.17.63-.02,1.1-.2,1.71-.1.33-.14.6.03.91.22.41.7.74,1.04,1.05.5.46,1,.92,1.5,1.38l-.05-.51c-1.98,2.49-4.9,4.23-7.43,6.17s-5.25,4.16-7.81,6.31c-5.16,4.34-10.2,8.8-15.49,13-2.8,2.23-6.01,4.22-8.35,6.91-.18.21-.06.57.23.58,2.02.06,3.61-1.39,5.1-2.57,1.86-1.46,3.71-2.93,5.55-4.41,3.69-2.96,7.34-5.95,10.96-8.98,3.62-3.03,7.21-6.09,10.77-9.18.85-.74,1.7-1.48,2.55-2.23.87-.76,1.81-1.69,2.99-1.93,1.04-.21,2.15.21,2.14,1.31-.01,1.17-1.04,2.07-2.06,2.63s-2.18.97-3.21,1.58c-1.13.67-2.16,1.47-3.21,2.24-2.2,1.62-4.41,3.24-6.61,4.86-.41.3.04.87.45.57,2.12-1.56,4.24-3.12,6.36-4.68.98-.72,1.94-1.46,2.96-2.12,1.12-.72,2.36-1.17,3.53-1.79,1.46-.77,2.93-2.24,2.51-3.89-.39-1.55-2.36-1.79-3.79-1.17-.96.42-1.74,1.14-2.51,1.82-1,.88-2,1.76-3.01,2.63-1.93,1.68-3.88,3.35-5.83,5.01-3.91,3.32-7.85,6.6-11.84,9.84-2.23,1.81-4.47,3.61-6.73,5.4-1.13.89-2.25,1.79-3.39,2.67-1.03.8-2.18,1.68-3.54,1.64l.23.58c2.17-2.49,5.13-4.34,7.73-6.39s5.2-4.22,7.75-6.38c5.14-4.36,10.2-8.8,15.55-12.93,2.73-2.11,5.91-3.99,8.06-6.68.14-.18.1-.37-.05-.51-.43-.4-.86-.79-1.28-1.19-.52-.48-1.22-.88-.94-1.66.29-.8.27-1.59-.07-2.33-.37-.82-1.05-1.45-1.77-2-.61-.46-1.31-1.08-2.14-1.18-.97-.12-1.84.63-2.59,1.15-1.03.71-2.03,1.45-3.01,2.21-1.97,1.53-3.85,3.15-5.72,4.78-7.77,6.8-15.54,13.62-23.52,20.2-.55.45-1.11.9-1.81,1.11-.65.19-1.32.15-1.96.05-1.17-.17-2.29-.5-3.49-.54-1.99-.06-4.16.67-5.07,2.54-.21.44.49.7.71.26h0Z"/><path class="cls-1" d="m765.26,43.77c-3.96,3.03-7.79,6.2-11.48,9.53-1.79,1.62-3.55,3.27-5.27,4.96-.78.76-1.55,1.53-2.31,2.31-.5.5-1.69,1.36-1.47,2.14.53,1.84,3.79-1.41,4.34-1.85,2.02-1.64,4.03-3.28,6.05-4.92,3.94-3.23,7.87-6.47,11.77-9.73,4.47-3.73,8.91-7.48,13.33-11.26.38-.33-.07-.9-.45-.57-7.18,6.14-14.43,12.21-21.73,18.22-3.61,2.97-7.24,5.93-10.87,8.87-.23.19-.79.79-1.1.86-.91.2-.24-.35-.1-.49.2-.21.41-.43.62-.64.76-.78,1.53-1.55,2.31-2.31,1.67-1.64,3.38-3.25,5.11-4.83,3.75-3.4,7.66-6.64,11.7-9.73.4-.31-.05-.88-.45-.57h0Z"/><path class="cls-1" d="m779.9,35.01c.76.26,1.47.59,2.13,1.02.26.17.58.35.78.57s.28.2.09.44c-.13.16-.45.29-.64.41-1.52.99-3,2.04-4.44,3.13-2.92,2.2-5.71,4.55-8.51,6.88-5.85,4.85-11.71,9.69-17.56,14.54-1.42,1.17-2.92,2.3-4.27,3.54-.6.55-1.11,1.79-.04,2.09,1.14.32,2.57-1.31,3.25-2.02,1.24-1.28,2.52-2.53,3.88-3.7,2.7-2.33,5.82-4.17,8.45-6.55,1.31-1.18,2.53-2.44,3.83-3.62s2.71-2.35,4.11-3.47c3.21-2.57,6.47-5.09,9.71-7.63.81-.63,1.59-1.32,2.44-1.91.3-.21.54-.41.92-.41.48,0,.7.17.37.62-.25.35-.83.68-1.17.96-1.64,1.34-3.29,2.69-4.93,4.03-.39.32.06.89.45.57,1.49-1.22,2.97-2.43,4.46-3.65.62-.51,1.37-.99,1.91-1.58.35-.38.39-.86.11-1.25-.84-1.14-2.32-.05-3.16.61-1.52,1.19-3.03,2.38-4.55,3.57-3,2.35-6.05,4.67-8.97,7.12s-5.27,5.14-8.25,7.34c-2.91,2.14-5.79,4.22-8.39,6.71-.44.42-3.88,4.17-4.32,3.37-.25-.46,1.74-1.8,2.06-2.06.81-.67,1.62-1.34,2.42-2.01,6.06-5.01,12.11-10.03,18.17-15.04,3.23-2.67,6.43-5.37,9.85-7.82.86-.61,1.73-1.21,2.62-1.79.45-.29,1.34-.65,1.23-1.28-.1-.55-.99-1.02-1.42-1.3-.71-.46-1.48-.83-2.3-1.11-.46-.16-.79.53-.33.69h0Z"/><path class="cls-1" d="m778.2,43.84c-7.11,5.79-14.22,11.57-21.32,17.37-1.74,1.42-3.47,2.85-5.19,4.29-.71.59-1.47,1.15-2.12,1.79-.47.46-.83,1.18-.29,1.67.38.34.93.2,1.33-.11.91-.7,1.72-1.59,2.59-2.35,1.59-1.4,3.24-2.76,4.92-4.06,1-.77,2.17-1.9,3.51-1.48.98.31,1.88.91,2.73,1.44,1.85,1.17,3.5,2.59,4.92,4.2l.19-.57c-1.27.63-2.51-.28-3.39-.99-1.06-.85-1.99-1.82-2.79-2.88-.34-.45-.71-.93-.89-1.47-.25-.76.15-1.26.74-1.78,1.17-1.02,2.38-2.01,3.57-3.01s2.38-2.01,3.57-3.01c.55-.47,1.11-.94,1.66-1.4.52-.44.77-.83,1.59-.55.23.08.46.27.66.39,2.22,1.39,4.04,3.24,5.4,5.41l.64-.47c-1.99-1.92-3.07-4.58-3.88-7.15-.22-.69.51-1.19,1-1.67.62-.6,1.25-1.19,1.9-1.77,1.12-1,2.26-1.97,3.45-2.9.59-.47,1.2-1.04,1.87-1.4.87-.48,1.49.1,2.13.54,1.12.79,2.18,1.66,3.15,2.62.87.86,2.13,1.93,2.3,3.2.18,1.34-1.18,2.32-2.21,3.06-.41.29.04.86.45.57,1.83-1.3,3.29-2.97,2.06-5-.62-1.02-1.54-1.89-2.41-2.72-.98-.93-2.04-1.78-3.17-2.54-.89-.6-1.68-.95-2.76-.29-1.29.79-2.47,1.86-3.62,2.82s-2.24,1.95-3.31,2.97c-.73.69-1.88,1.48-1.65,2.52.29,1.34.93,2.7,1.51,3.93.64,1.35,1.45,2.62,2.55,3.68.34.32.89-.07.64-.47-1.28-2.04-2.97-3.81-5-5.19-.72-.49-1.76-1.4-2.76-.91-.58.28-1.09.85-1.57,1.25-.59.5-1.19,1-1.78,1.51-1.19,1-2.38,2.01-3.57,3.01-1.09.92-2.26,1.79-3.27,2.78-1.8,1.75.27,3.91,1.45,5.19,1.28,1.38,3.67,3.95,6.02,2.8.22-.11.35-.38.19-.57-1.13-1.28-2.39-2.45-3.79-3.47-1.26-.92-2.79-2.04-4.37-2.46-1.71-.45-3.17.95-4.44,1.93-1.64,1.28-3.24,2.61-4.79,3.98-.69.61-1.37,1.24-2.05,1.86l-.32.29c-.25-.21-.26-.39-.02-.53.11-.19.44-.38.61-.52.47-.39.93-.78,1.4-1.17,1.64-1.37,3.29-2.74,4.95-4.09,3.38-2.77,6.77-5.52,10.16-8.28,3.8-3.1,7.6-6.19,11.4-9.29.39-.32-.06-.89-.45-.57h0Z"/><path class="cls-1" d="m772.52,19.53c.29,1.72.66,3.44.86,5.18.09.83.03,1.64-.54,2.36-.51.65-1.27,1.12-1.98,1.57l.54.05c-1.18-1.31-1.99-2.86-2.34-4.59-.06-.28-.34-.4-.62-.23-1,.62-1.94,1.31-2.82,2.08-.13.11-.21.28-.14.43.5,1.23.85,2.52,1,3.86.08.69.14,1.26-.36,1.86-.42.5-.97.95-1.49,1.37-.49.39-2.96,2.46-3.27,1.33-.15-.53.05-1.33.07-1.89.03-.65.05-1.3.08-1.95,0-.24-.31-.37-.52-.28-1.29.53-2.67,1.12-3.46,2.3s-.48,2.18,0,3.33c.63,1.51-.45,2.83-1.58,3.96-.35.36-.72.7-1.12,1.02-.29.23-.27.24-.7.23-.48,0-.44-.05-.63-.39-.42-.74-.8-1.5-1.2-2.25-.1-.19-.27-.25-.5-.18-.8.22-1.69.5-2.26,1.13-.61.67-.59,1.53-.46,2.32.18,1.06.66,2.12.4,3.23-.24,1.03-1.01,2-2.01,2.51-.27.14-.62.33-.91.23s-.36-.36-.46-.64c-.2-.55-.32-1.13-.56-1.66-.3-.67-.79-1.32-1.54-1.58-1.59-.55-3.18.94-3.48,2.37-.5,2.36,1.48,4.33.9,6.68l.63-.26c-1.29-.84-2.44-1.82-3.43-2.96-.31-.35-.95.11-.64.47,1.03,1.18,2.23,2.22,3.57,3.09.24.15.57.02.63-.26.29-1.17.01-2.28-.35-3.37s-.95-2.47-.43-3.71c.59-1.42,2.3-1.9,3.17-.6.57.87.47,2.53,1.45,3.09.76.44,1.93-.25,2.56-.75.81-.64,1.4-1.52,1.64-2.47.31-1.23-.17-2.35-.37-3.53-.12-.71-.18-1.45.51-1.98.48-.37,1.12-.53,1.7-.69l-.5-.18c.44.82.85,1.65,1.32,2.46.26.46.64.89,1.28.82.74-.09,1.39-.81,1.9-1.28.63-.59,1.24-1.21,1.72-1.91.37-.54.67-1.13.74-1.75.09-.76-.22-1.38-.5-2.04-.9-2.15,1.37-3.35,3.24-4.11l-.52-.28c-.04.93-.08,1.86-.11,2.79-.02.61-.22,1.46.36,1.87,1.01.71,2.63-.6,3.43-1.18,1.09-.79,2.8-1.96,2.9-3.34.13-1.71-.47-3.58-1.1-5.11l-.14.43c.88-.77,1.82-1.46,2.82-2.08l-.62-.23c.38,1.86,1.2,3.53,2.48,4.94.14.15.35.17.54.05,1.46-.93,2.81-2,2.89-3.73.04-.93-.18-1.84-.34-2.74l-.56-3.32c-.08-.46-.86-.35-.78.11h0Z"/><path class="cls-1" d="m789.82,50.93c-4.84,3.11-9.17,6.74-13.26,10.7-2.05,1.98-4.1,3.94-6.38,5.68-2.11,1.62-4.33,3.1-6.41,4.74-1.07.85-2.11,1.74-3.07,2.71-.72.73-2.2,1.95-1.99,3.01.03.17.2.37.42.31,2.07-.54,3.74-1.77,5.31-3.15,1.75-1.53,3.45-3.11,5.2-4.64,3.53-3.1,7.11-6.15,10.75-9.13,3.67-3.01,7.41-5.96,11.14-8.9.49-.38.96-.79,1.46-1.15.12-.08.46-.39.61-.4l.45.31c-.12.14-.26.28-.4.4-.9.83-1.82,1.64-2.74,2.44-1.78,1.53-3.6,3.02-5.42,4.5-3.62,2.94-7.25,5.88-10.88,8.82-3.42,2.77-7.07,5.43-10.19,8.51-.72.71-1.4,1.45-2.01,2.24-.44.57-.86,1.19-.47,1.84.82,1.4,2.86.37,3.93-.33,1.76-1.16,3.15-2.79,4.62-4.24,1.68-1.66,3.41-3.26,5.18-4.84,7.85-6.99,16.2-13.5,24.54-19.95.4-.31-.05-.88-.45-.57-7.4,5.72-14.75,11.5-21.83,17.58-3.35,2.88-6.58,5.87-9.67,8.99-.75.76-1.52,1.51-2.39,2.14-.55.41-2.85,2-3.28.76-.23-.66,1.4-2.14,1.85-2.61.8-.84,1.66-1.62,2.54-2.38,3.41-2.92,6.98-5.69,10.47-8.53,3.54-2.87,7.1-5.72,10.62-8.62,1.81-1.49,3.61-3.01,5.35-4.58.46-.41,1.34-1,1.48-1.63.14-.6-.38-1.04-.98-1.05-.86-.01-1.62.8-2.24,1.29-.94.74-1.87,1.47-2.8,2.21-1.87,1.47-3.73,2.95-5.58,4.44-4.08,3.28-8.1,6.62-12.04,10.05-1.93,1.67-3.84,3.37-5.74,5.07-1.91,1.72-3.86,3.7-6.46,4.38l.42.31c-.11-.55.63-1.19,1-1.6.44-.49.9-.97,1.38-1.42.91-.86,1.88-1.66,2.88-2.43,2-1.54,4.1-2.95,6.1-4.5,4.25-3.29,7.76-7.31,11.89-10.72,2.39-1.98,4.91-3.81,7.54-5.49.43-.28-.02-.84-.45-.57h0Z"/><path class="cls-1" d="m779.87,29.32c3.46,3.33,6.92,6.66,10.38,9.99l5.19,4.99c.83.8,1.66,1.6,2.49,2.4.41.4,3,2.83,1.64,3.31-.48.17-.21.84.27.67,2.63-.93-.89-4.09-1.68-4.85-1.94-1.86-3.88-3.73-5.81-5.59-3.95-3.8-7.89-7.59-11.84-11.39-.33-.32-.98.14-.64.47h0Z"/><path class="cls-1" d="m763.56,79.84c-.56.57-1.12,1.15-1.68,1.72-.52.53-1.07,1.3-1.68,1.72l-.21.22c-.39.1-.69.01-.87-.25-.29-.2-.53-.52-.78-.76-.52-.51-1.04-1.01-1.56-1.52-2.06-2.01-4.12-4.01-6.18-6.02-4.15-4.07-8.26-8.19-12.31-12.35-.32-.33-.96.13-.64.47,3.49,3.58,7.01,7.13,10.57,10.64,3.53,3.48,7.01,7.02,10.65,10.4.82.76,1.48.08,2.14-.6,1.05-1.08,2.11-2.15,3.16-3.23.35-.36-.25-.79-.6-.43h0Z"/><path class="cls-1" d="m738.57,62.75c-1.13-1.04-2.56-2.03-3.08-3.5-.07-.18-.09-.25.06-.4s.3-.3.44-.45c.3-.3.6-.59.91-.88.62-.59,1.26-1.16,1.92-1.72.38-.33-.06-.9-.45-.57-.74.63-1.47,1.28-2.17,1.95-.37.36-.74.72-1.1,1.08-.29.29-.52.54-.44.95.18.85.74,1.62,1.36,2.23.66.65,1.37,1.27,2.06,1.9.35.32.84-.28.5-.6h0Z"/><path class="cls-1" d="m738.91,55.86c11.47-9.52,22.94-19.05,34.42-28.57.72-.6,1.49-1.18,2.17-1.82.42-.4.82-.88.86-1.44.05-.7-.5-1.24-.91-1.74-.57-.68-1.2-1.31-1.86-1.91-.35-.32-.84.28-.5.6.58.53,1.12,1.09,1.63,1.68.55.64,1.21,1.29.45,2.12-.53.57-1.21,1.05-1.81,1.55l-2.05,1.7c-2.66,2.21-5.31,4.41-7.97,6.62-5.31,4.41-10.63,8.82-15.94,13.23-2.98,2.47-5.96,4.95-8.94,7.42-.39.32.06.89.45.57h0Z"/><path class="cls-1" d="m738.71,50c-.73-.6-1.67-1.39-1.48-2.44.17-.92.89-1.95,1.33-2.8.95-1.83,1.96-3.62,3.14-5.34,2.32-3.39,4.85-6.65,7.18-10.03,2.28-3.3,4.48-6.66,6.59-10.05,1.07-1.72,2.13-3.46,3.16-5.2.49-.83.98-1.66,1.46-2.5.53-.91,1.03-1.87,1.98-2.48,1.98-1.28,4.61-1.19,6.77-2.05,1.57-.63,3.04-1.73,3.58-3.3.16-.45-.55-.72-.71-.26-1.41,4.11-7.17,3.04-10.21,5.13-1.58,1.09-2.38,3.16-3.28,4.71-1.08,1.83-2.17,3.65-3.3,5.45-2.28,3.67-4.66,7.28-7.14,10.85s-5.1,6.84-7.4,10.39c-1.27,1.96-2.33,4.02-3.37,6.08-.38.75-.74,1.5-.52,2.31.25.9,1,1.55,1.71,2.14.36.3.86-.3.5-.6h0Z"/></g></g></svg>