<?xml version="1.0" encoding="UTF-8"?><svg id="Layer_1" xmlns="http://www.w3.org/2000/svg" width="30" height="30" viewBox="0 0 30 30"><defs><style>.cls-1{fill:#d18229;}.cls-2{stroke-width:.25px;}.cls-2,.cls-3{fill:none;stroke:#d18229;stroke-miterlimit:10;}.cls-3{stroke-width:.5px;}</style></defs><path class="cls-3" d="m26.98,19.61v5.07c0,.79-.65,1.43-1.45,1.43H3.98c-.8,0-1.45-.64-1.45-1.43v-5.13"/><rect class="cls-3" x=".27" y="26.12" width="29.18" height="2.47" rx=".52" ry=".52"/><rect class="cls-2" x="8.11" y="5.05" width="2.37" height="6.73" rx=".38" ry=".38"/><rect class="cls-2" x="13.95" y="5.05" width="2.37" height="6.73" rx=".38" ry=".38"/><rect class="cls-2" x="20.11" y="5.05" width="2.37" height="6.73" rx=".38" ry=".38"/><path class="cls-1" d="m20.49,7.66s-.02.02.02-.01c.02-.02.04-.03.06-.05.04-.03.08-.06.12-.09.08-.06.17-.12.25-.17.16-.11.33-.21.5-.32.34-.21.7-.41,1.05-.6.17-.1.24-.34.14-.51s-.33-.24-.52-.13c-.74.42-1.48.84-2.15,1.35-.16.12-.14.4,0,.53.17.15.37.13.53,0h0Z"/><path class="cls-1" d="m20.55,9.95s.08-.06.12-.09c.02-.02.04-.03.06-.05-.03.02-.02.02.01-.01.08-.06.16-.12.24-.18.16-.12.33-.23.5-.35.33-.23.68-.44,1.03-.64.17-.1.25-.34.14-.51s-.33-.24-.52-.13c-.74.43-1.44.91-2.11,1.44-.16.12-.14.4,0,.53.16.15.37.13.53,0h0Z"/><path class="cls-1" d="m14.33,7.8l2.03-1.28c.17-.1.25-.34.14-.51-.11-.16-.34-.25-.52-.13l-2.03,1.28c-.17.1-.25.34-.14.51.11.16.34.25.52.13h0Z"/><path class="cls-1" d="m14.26,10.04c.7-.38,1.39-.78,2.06-1.21.17-.11.25-.33.14-.51-.11-.16-.34-.25-.52-.13-.67.43-1.36.84-2.06,1.21-.17.09-.24.34-.14.51.11.17.33.23.52.13h0Z"/><path class="cls-1" d="m8.5,7.69c.68-.37,1.35-.76,1.99-1.2.16-.11.25-.33.14-.51-.1-.16-.34-.25-.52-.13-.64.43-1.31.83-1.99,1.2-.17.09-.24.34-.14.51.11.17.33.23.52.13h0Z"/><path class="cls-1" d="m8.52,10.02c.7-.36,1.37-.79,1.99-1.27.16-.12.14-.4,0-.53-.17-.15-.37-.13-.53,0-.03.03-.04.03,0,0-.02.01-.04.03-.06.04-.04.03-.07.06-.11.08-.08.05-.15.11-.23.16-.15.11-.31.21-.47.31-.32.2-.64.38-.97.55-.18.09-.24.35-.14.51.12.18.33.23.52.13h0Z"/><path class="cls-1" d="m8.87,4.53c-.55-.17-.35-.95-.21-1.32.22-.62.51-1.21.85-1.77l-.59.08c.49.5.83,1.12.98,1.8.06.29.1.61-.1.86-.17.2-.45.33-.71.36-.2.02-.38.16-.38.37,0,.19.17.39.38.37.43-.04.85-.19,1.17-.5.37-.35.48-.83.42-1.32-.12-.93-.58-1.8-1.23-2.47-.17-.18-.47-.13-.59.08-.43.7-.83,1.48-1.03,2.28-.19.75,0,1.66.84,1.91.47.14.66-.58.2-.72h0Z"/><path class="cls-1" d="m14.84,4.53c-.55-.17-.35-.95-.21-1.32.22-.62.51-1.21.85-1.77l-.59.08c.49.5.83,1.12.98,1.8.06.29.1.61-.1.86-.17.2-.45.33-.71.36-.2.02-.38.16-.38.37,0,.19.17.39.38.37.43-.04.85-.19,1.17-.5.37-.35.48-.83.42-1.32-.12-.93-.58-1.8-1.23-2.47-.17-.18-.47-.13-.59.08-.43.7-.83,1.48-1.03,2.28-.19.75,0,1.66.84,1.91.47.14.66-.58.2-.72h0Z"/><path class="cls-1" d="m20.86,4.53c-.55-.17-.35-.95-.21-1.32.22-.62.51-1.21.85-1.77l-.59.08c.49.5.83,1.12.98,1.8.06.29.1.61-.1.86-.17.2-.45.33-.71.36-.2.02-.38.16-.38.37,0,.19.17.39.38.37.43-.04.85-.19,1.17-.5.37-.35.48-.83.42-1.32-.12-.93-.58-1.8-1.23-2.47-.17-.18-.47-.13-.59.08-.43.7-.83,1.48-1.03,2.28-.19.75,0,1.66.84,1.91.47.14.66-.58.2-.72h0Z"/><g><path class="cls-1" d="m2.27,12.28c-.76.78-.7,2.04-.77,3.05-.08,1.06-.37,2.5.17,3.49.44.81,1.46,1.2,2.33.83.41-.17.75-.49.94-.88.27-.54.05-1.25.36-1.74.18-.28.61-.45.95-.43.43.02.61.25.69.65.12.58.05,1.18.14,1.77.16,1.01.9,1.88,2.02,1.83.96-.04,1.62-.81,1.77-1.7s-.34-3,1.18-2.91c.82.05.7,1.67.71,2.26.01.77-.01,1.53.09,2.3.14,1.05.74,2.24,2.01,2.12.48-.05.48-.79,0-.74-1.51.14-1.34-2.28-1.34-3.21s.1-2.26-.46-3.05c-.46-.66-1.58-.48-2.15-.06-.69.5-.77,1.41-.76,2.19,0,.51.07,1.11-.22,1.55-.46.69-1.49.64-1.9-.07-.51-.87-.07-2.01-.49-2.92-.37-.8-1.34-.89-2.1-.58-1.03.42-.88,1.26-1.09,2.15-.18.77-1.09,1.18-1.75.63-.54-.45-.45-1.28-.43-1.9.03-.72.07-1.45.14-2.17.05-.63.03-1.43.5-1.92.34-.35-.2-.87-.53-.53h0Z"/><path class="cls-1" d="m15.16,22.84c.78-.29,1.2-.97,1.28-1.77.06-.57-.05-1.13-.08-1.69-.04-.6-.03-1.2.04-1.8.08-.69.21-1.33,1.05-1.38.68-.04,1,.37,1.1.97.13.74.09,1.56.72,2.1.59.51,1.51.48,2.07-.05.81-.75.18-1.92.83-2.69.36-.42.95-.56,1.46-.32.61.29.76.97.77,1.57.02.74-.13,1.59.4,2.21.59.68,1.63.63,2.29.08.84-.7.9-1.85.79-2.85-.05-.47-.81-.48-.76,0,.09.81.06,2.76-1.29,2.52-1.02-.18-.62-1.69-.71-2.4-.1-.8-.49-1.52-1.28-1.85-.65-.27-1.4-.17-1.96.27-.77.61-.7,1.38-.8,2.25-.08.67-.73,1.17-1.34.65-.36-.31-.37-.86-.42-1.29-.08-.64-.22-1.33-.82-1.69s-1.61-.33-2.19.12c-.76.59-.73,1.87-.75,2.72-.02.97.64,3.13-.62,3.59-.45.17-.26.88.2.72h0Z"/><path class="cls-1" d="m2.66,12.85c1-.76,2.34-.59,3.53-.59s2.47-.02,3.7-.02c2.3-.01,4.61-.03,6.91-.04s4.61-.03,6.91-.04c1.28,0,2.75-.09,3.28,1.33.41,1.11.23,2.57.11,3.72-.05.48.71.47.76,0,.18-1.73.49-4.55-1.44-5.47-.89-.43-1.99-.33-2.95-.32-1.56,0-3.13.02-4.69.03-2.96.02-5.93.04-8.89.06-1.56,0-3.13.01-4.69.03-1.05,0-2.06.03-2.92.69-.38.29,0,.93.38.64h0Z"/></g><path class="cls-1" d="m2.77,19.83l-.05-.57c0-.05,0-.1-.03-.14-.02-.05-.04-.09-.08-.12-.07-.06-.17-.11-.27-.11s-.2.04-.27.11c-.06.07-.12.17-.11.26l.05.57c0,.05,0,.1.03.14.02.05.04.09.08.12.07.06.17.11.27.11s.2-.04.27-.11c.06-.07.12-.17.11-.26h0Z"/></svg>