<?xml version="1.0" encoding="UTF-8"?><svg id="Layer_1" xmlns="http://www.w3.org/2000/svg" width="17" height="15" viewBox="0 0 17 15"><defs><style>.cls-1{fill:#d18229;}.cls-2{stroke-width:.25px;}.cls-2,.cls-3{fill:none;stroke:#d18229;stroke-miterlimit:10;}.cls-3{stroke-width:.5px;}</style></defs><path class="cls-3" d="m15.1,9.88v2.68c0,.42-.35.75-.78.75H2.82c-.43,0-.78-.34-.78-.75v-2.71"/><rect class="cls-3" x=".84" y="13.31" width="15.59" height="1.3" rx=".52" ry=".52"/><rect class="cls-2" x="5.03" y="2.2" width="1.26" height="3.55" rx=".38" ry=".38"/><rect class="cls-2" x="8.14" y="2.2" width="1.26" height="3.55" rx=".38" ry=".38"/><rect class="cls-2" x="11.43" y="2.2" width="1.26" height="3.55" rx=".38" ry=".38"/><path class="cls-1" d="m11.64,3.58s-.01,0,0,0c.01,0,.02-.02.03-.02.02-.02.04-.03.07-.05.04-.03.09-.06.13-.09.09-.06.18-.11.27-.17.18-.11.37-.21.56-.32.09-.05.13-.18.07-.27s-.18-.12-.28-.07c-.4.22-.79.44-1.15.71-.08.06-.07.21,0,.28.09.08.2.07.29,0h0Z"/><path class="cls-1" d="m11.67,4.79s.04-.03.06-.05c.01,0,.02-.02.03-.02-.01.01-.01,0,0,0,.04-.03.09-.06.13-.09.09-.06.18-.12.26-.18.18-.12.36-.23.55-.34.09-.05.13-.18.07-.27s-.18-.13-.28-.07c-.39.23-.77.48-1.13.76-.08.06-.07.21,0,.28.09.08.2.07.29,0h0Z"/><path class="cls-1" d="m8.34,3.65l1.08-.67c.09-.06.13-.18.07-.27-.06-.09-.18-.13-.28-.07l-1.08.67c-.09.06-.13.18-.07.27.06.09.18.13.28.07h0Z"/><path class="cls-1" d="m8.31,4.83c.38-.2.74-.41,1.1-.64.09-.06.13-.18.07-.27-.06-.09-.18-.13-.28-.07-.36.23-.72.44-1.1.64-.09.05-.13.18-.07.27.06.09.18.12.28.07h0Z"/><path class="cls-1" d="m5.23,3.6c.37-.19.72-.4,1.06-.63.09-.06.13-.17.07-.27-.06-.08-.18-.13-.28-.07-.34.23-.7.44-1.06.63-.09.05-.13.18-.07.27.06.09.18.12.28.07h0Z"/><path class="cls-1" d="m5.24,4.82c.38-.19.73-.42,1.06-.67.08-.06.07-.21,0-.28-.09-.08-.2-.07-.29,0-.02.01-.02.01,0,0,0,0-.02.01-.03.02-.02.01-.04.03-.06.04-.04.03-.08.06-.12.09-.08.06-.16.11-.25.16-.17.1-.34.2-.52.29-.09.05-.13.18-.07.27.06.09.18.12.28.07h0Z"/><path class="cls-1" d="m5.43,1.93c-.3-.09-.18-.5-.11-.7.12-.33.27-.64.46-.93l-.32.04c.26.26.44.59.52.95.03.15.06.32-.05.45-.09.11-.24.17-.38.19-.11.01-.2.08-.2.2,0,.1.09.21.2.2.23-.02.45-.1.63-.26.2-.18.26-.44.23-.69-.06-.49-.31-.95-.66-1.3-.09-.09-.25-.07-.32.04-.23.37-.44.78-.55,1.2-.1.39,0,.87.45,1.01.25.07.35-.3.11-.38h0Z"/><path class="cls-1" d="m8.62,1.93c-.3-.09-.18-.5-.11-.7.12-.33.27-.64.46-.93l-.32.04c.26.26.44.59.52.95.03.15.06.32-.05.45-.09.11-.24.17-.38.19-.11.01-.2.08-.2.2,0,.1.09.21.2.2.23-.02.45-.1.63-.26.2-.18.26-.44.23-.69-.06-.49-.31-.95-.66-1.3-.09-.09-.25-.07-.32.04-.23.37-.44.78-.55,1.2-.1.39,0,.87.45,1.01.25.07.35-.3.11-.38h0Z"/><path class="cls-1" d="m11.83,1.93c-.3-.09-.18-.5-.11-.7.12-.33.27-.64.46-.93l-.32.04c.26.26.44.59.52.95.03.15.06.32-.05.45-.09.11-.24.17-.38.19-.11.01-.2.08-.2.2,0,.1.09.21.2.2.23-.02.45-.1.63-.26.2-.18.26-.44.23-.69-.06-.49-.31-.95-.66-1.3-.09-.09-.25-.07-.32.04-.23.37-.44.78-.55,1.2-.1.39,0,.87.45,1.01.25.07.35-.3.11-.38h0Z"/><g><path class="cls-1" d="m1.91,6.01c-.4.41-.37,1.08-.41,1.61-.04.56-.19,1.32.09,1.84.23.43.78.63,1.24.44.22-.09.4-.26.5-.47.14-.28.03-.66.19-.92.1-.15.33-.24.51-.23.23.01.32.13.37.34.07.31.03.62.08.93.08.54.48.99,1.08.96.51-.02.87-.43.94-.89s-.18-1.58.63-1.54c.44.02.38.88.38,1.19,0,.4,0,.81.05,1.21.08.56.4,1.18,1.07,1.12.26-.02.26-.42,0-.39-.81.08-.71-1.2-.72-1.69s.05-1.19-.24-1.61c-.25-.35-.84-.25-1.15-.03-.37.27-.41.74-.41,1.16,0,.27.04.58-.12.82-.25.36-.79.34-1.02-.04-.27-.46-.04-1.06-.26-1.54-.2-.42-.72-.47-1.12-.31-.55.22-.47.67-.58,1.13-.1.41-.58.62-.93.33-.29-.24-.24-.68-.23-1,.01-.38.04-.76.07-1.14.03-.33.01-.75.27-1.01.18-.18-.11-.46-.29-.28h0Z"/><path class="cls-1" d="m8.79,11.58c.42-.15.64-.51.68-.93.03-.3-.02-.6-.04-.89-.02-.32-.01-.63.02-.95.04-.37.11-.7.56-.73.36-.02.53.19.59.51.07.39.05.82.38,1.11.32.27.8.25,1.11-.02.43-.39.09-1.01.44-1.42.19-.22.51-.29.78-.17.33.15.4.51.41.83,0,.39-.07.84.21,1.16.31.36.87.33,1.22.04.45-.37.48-.98.42-1.5-.03-.25-.43-.25-.4,0,.05.43.03,1.45-.69,1.33-.55-.09-.33-.89-.38-1.27-.05-.42-.26-.8-.68-.97-.35-.14-.75-.09-1.04.14-.41.32-.37.73-.42,1.19-.04.35-.39.62-.72.34-.19-.16-.2-.45-.23-.68-.04-.34-.12-.7-.44-.89s-.86-.17-1.17.06c-.4.31-.39.99-.4,1.44,0,.51.34,1.65-.33,1.89-.24.09-.14.47.11.38h0Z"/><path class="cls-1" d="m2.11,6.32c.53-.4,1.25-.31,1.89-.31s1.32,0,1.98-.01c1.23,0,2.46-.02,3.69-.02s2.46-.02,3.69-.02c.68,0,1.47-.05,1.75.7.22.58.12,1.36.06,1.96-.03.25.38.25.4,0,.1-.91.26-2.4-.77-2.88-.48-.22-1.06-.17-1.57-.17-.84,0-1.67.01-2.51.02-1.58,0-3.16.02-4.75.03-.84,0-1.67,0-2.51.02-.56,0-1.1.02-1.56.36-.2.15,0,.49.2.34h0Z"/></g><path class="cls-1" d="m2.17,10l-.03-.3s0-.05-.02-.08c0-.02-.02-.05-.04-.06-.03-.03-.09-.06-.14-.06s-.11.02-.14.06c-.03.04-.06.09-.06.14l.03.3s0,.05.02.08c0,.02.02.05.04.06.03.03.09.06.14.06s.11-.02.14-.06c.03-.04.06-.09.06-.14h0Z"/></svg>