<?xml version="1.0" encoding="UTF-8"?><svg id="Layer_1" xmlns="http://www.w3.org/2000/svg" width="100" height="170" viewBox="0 0 100 170"><defs><style>.cls-1{fill:#dd8226;}.cls-2{fill:#231f20;}</style></defs><g><g><path class="cls-1" d="m29.98,11.39c3.57-1.87,7.92-1.87,11.49,0,1.7.89,3.68,2.11,4.72,3.71s1.1,3.64,1.15,5.49c.02.8,1.34.81,1.32,0-.05-2.03-.14-4.2-1.25-6.01s-3.33-3.27-5.26-4.28c-3.99-2.08-8.83-2.08-12.82,0-.74.39-.08,1.47.66,1.08h0Z"/><path class="cls-1" d="m72.98,19.41c-2.04-1.45-3.37-3.59-5.21-5.24-2.03-1.81-4.7-2.86-7.16-4.04-.75-.36-1.42.71-.66,1.08,2.47,1.19,5.19,2.23,7.18,4.11,1.79,1.69,3.15,3.72,5.19,5.17.68.48,1.34-.6.66-1.08h0Z"/><g><path class="cls-2" d="m19.95,71.22c.06.52.18.98.34,1.48.11.33.28.71.27,1.07l-.03.21c0,.58-.42.49-1.23-.25-.36-1.09,1.06-2.87,1.78-3.55.45-.42.96-.78,1.51-1.06.26-.13.61-.31.88-.36l.4-.11.73.82c-.09.23-1.68.17-1.85.18-.87,0-1.65-.09-2.38-.55-1.24-.78-2.98-3.06-4.76-1.99s.35,2.89,1.5,3.36c.87.36,1.85.53,2.74.14,1.08-.47,1.62-1.51,2.86-1.79,1.07-.24,2.26.15,3.27-.38.8-.42,1.11-1.24,1.12-2.07.01-1.24-.34-2.52-.48-3.74-.17-1.47-.26-2.94-.13-4.42.24-2.75,1.16-5.62,2.77-7.93,1.02-1.46,2.45-1.84,4.13-2.28,1.6-.41,3.21-.76,4.84-1.02s3.51-.72,5.14-.38,2.89,1.57,4.04,2.66l.47-1.07c-6.59-.84-15.11-.46-18.1,6.31-.09.2.02.46.17.61,1.73,1.72,4.56,2.12,6.95,2.3,2.64.19,5.38-.37,7.21-2.31.56-.6-.36-1.48-.93-.88-1.61,1.71-3.96,2.11-6.27,1.94-2.01-.15-4.56-.48-6.01-1.93l.17.61c2.73-6.17,10.98-6.14,16.83-5.39.59.08.83-.72.47-1.07-1-.95-2.05-1.92-3.33-2.52-1.46-.69-2.92-.63-4.5-.45-3.27.38-6.87.88-9.9,2.14-2.7,1.13-3.96,4.41-4.72,6.93-.92,3.07-.88,6.16-.44,9.3.12.83.53,1.95.33,2.77-.3,1.28-1.5.89-2.44.94-1.57.08-2.41.78-3.57,1.67-.73.56-1.97.54-2.71-.09-.43-.37-.96-.94-.02-.82.33.04.7.39.95.58,1,.76,1.8,1.64,3.1,1.94,1.39.32,5.94.44,5.34-2.02s-4.28-.98-5.58-.02c-1.68,1.25-4.31,4.92-2.11,6.76.84.7,2.05.6,2.7-.27.96-1.28-.02-2.64-.18-3.98-.09-.79-1.41-.8-1.32,0h0Z"/><path class="cls-2" d="m10.18,79.95c1.33-.61,2.66-1.22,4-1.82,1.23-.55,2.94-1.25,4.1-.18.2.18.55.25.8.1,2.3-1.45,4.89.19,6.8,1.46v-1.08c-4.73,2.81-10.51,1.08-15.6.41-.83-.11-1.19,1.1-.35,1.21,5.47.71,11.54,2.48,16.61-.54.44-.26.41-.81,0-1.08-2.32-1.54-5.4-3.19-8.13-1.46l.8.1c-1.22-1.11-2.94-1.08-4.44-.54-1.8.65-3.52,1.55-5.26,2.34-.76.35-.1,1.42.66,1.08h0Z"/><path class="cls-2" d="m10.12,80.15c1.99,1.84,3.82,3.9,6.36,5.06,2.28,1.04,4.65,2.82,5.32,5.26.33,1.18.08,2.58-1.03,3.32s-2.65.72-3.81.18c-1.24-.58-1.75-1.73-2.02-2.95-.25-1.11.07-2.94,1.69-2.75,1.73.2,1.03,2.57.64,3.58-.52,1.35-1.43,2.52-2.49,3.54-.6.57.33,1.46.93.88,1.22-1.17,2.24-2.53,2.83-4.09.48-1.27.94-3.24-.11-4.36-.94-1.01-2.62-1.05-3.7-.22-1.4,1.07-1.37,2.78-.92,4.29s1.27,2.67,2.79,3.3,3.23.58,4.61-.17,2.14-2.32,2.04-3.84c-.11-1.59-.99-3.02-2.07-4.2-1.35-1.48-3-2.3-4.79-3.19-1.05-.52-1.85-1.28-2.69-2.06l-2.64-2.45c-.61-.56-1.54.32-.93.88h0Z"/><path class="cls-2" d="m16.98,84.02s-.09-.05-.14-.08c.12.08,0,0-.03-.03-.04-.03-.08-.07-.11-.11-.04-.04-.09-.12-.03-.03-.06-.08-.11-.17-.16-.26-.07-.12.02.09-.01-.04-.01-.05-.03-.1-.05-.14s-.02-.1-.03-.15c-.03-.14,0,.1,0-.03,0-.1,0-.2,0-.3-.02.16,0,0,.01-.03.01-.05.03-.1.04-.14.04-.13-.05.07.01-.03.04-.06.07-.12.11-.17.02-.03.04-.05.05-.07-.03.04-.03.04,0,0,.04-.05.08-.09.13-.13s.09-.08.14-.12c.02-.02.05-.04.07-.06-.04.03-.04.03,0,0,.22-.15.45-.28.69-.39.39-.18,1.01-.33,1.44-.35.34-.02.67-.27.66-.62-.02-.32-.29-.65-.66-.62-.75.05-1.46.23-2.13.54-.62.29-1.24.72-1.59,1.3-.64,1.08-.2,2.53.92,3.15.3.17.73.07.9-.22s.08-.68-.24-.86h0Z"/><path class="cls-2" d="m14.73,95.51c-1.08,1.52.08,3.35,1.71,3.95,2.35.86,5.49.37,7.91.08,5.55-.66,10.89-2.4,15.69-5.11.73-.41.07-1.49-.66-1.08-3.79,2.13-7.91,3.66-12.22,4.49-2.2.43-4.43.67-6.67.72-.98.02-2.03.08-2.98-.12-1.07-.23-2.44-1.16-1.62-2.31.48-.67-.66-1.29-1.14-.63h0Z"/><path class="cls-1" d="m48.35,29.72c-4.03-5.18-10.42-8.45-17.2-8.82-1.98-.11-4.08.39-6.01-.01-1.09-.22-2.21-.95-2.2-2.12,0-.58.29-1.16.57-1.66.11-.19.24-.38.38-.56.11-.16.23-.3.38-.43l1.36.23c.61.54.13,2.03-.16,2.61-.4.81-1.09,1.48-1.87,1.96-1.52.95-4.89,1.6-5.15-.83-.4-3.83,2.98-7.3,6.17-9.1,3.44-1.95,8.03-3.4,12.06-3.41s8.81,1.36,11.7,4.09c3.16,2.99,3.08,8.06,2.95,12.01-.29,8.68-2.67,17.75,1.5,25.96.37.72,1.5.09,1.14-.63-4.93-9.72-.28-20.64-1.52-30.84-.27-2.21-.72-4.46-2.14-6.28-1.24-1.61-3.03-2.78-4.91-3.61-2.19-.97-4.57-1.62-6.97-1.86-2.61-.26-5.15.19-7.66.86-4.34,1.16-8.72,3.01-11.45,6.57-1.74,2.27-4.2,8.47.53,9.11,3.48.47,7.5-2.22,7.33-5.77-.07-1.46-1.37-3.06-3.08-2.41-1.57.6-2.63,2.89-2.46,4.41.24,2.05,2.46,2.98,4.38,3.08,1.37.07,2.74-.15,4.12-.13s2.68.15,3.99.41c5.17,1.01,9.92,3.79,13.07,7.83.5.64,1.64.02,1.14-.63h0Z"/><path class="cls-1" d="m19.02,21.34c-.52-2.27,1.36-4.65,2.99-6.13s3.48-2.45,5.53-3.1,4.38-.99,6.61-.95c2.57.04,4.57,1.09,6.73,2.3,3.85,2.16,6.64,5.5,7.01,9.85s-1.22,8.55-.43,12.87c.15.79,1.41.46,1.27-.33-.77-4.19.82-8.34.47-12.54-.27-3.3-1.83-6.43-4.39-8.69-1.44-1.28-3.18-2.21-4.9-3.11s-3.34-1.48-5.28-1.58c-3.81-.19-7.93.69-11.16,2.63-3.03,1.82-6.55,5.42-5.71,9.12.18.79,1.45.45,1.27-.33h0Z"/><path class="cls-1" d="m40.32,7.97c3.79-.14,7.61-.07,11.35.58,3.49.6,7.49,1.53,9.93,4.14,2.59,2.76,3.11,6.58,2.86,10.13s-.72,7.04.27,10.62c.21.78,1.48.45,1.27-.33-.56-2.05-.73-4.09-.59-6.2s.48-4.13.43-6.21c-.08-3.34-1.09-6.74-3.59-9.19s-6.33-3.46-9.76-4.09c-4.01-.74-8.1-.86-12.17-.71-.84.03-.85,1.28,0,1.25h0Z"/><path class="cls-1" d="m64.81,33.4c1.46,3.34,3.97,6.01,6.67,8.51s5.44,4.97,8.81,6.5c2.54,1.16,6.71,2.53,8.68-.2,1-1.39,1.41-3.23,1.69-4.86.34-1.94.41-3.91.27-5.86s-.47-3.93-.95-5.85c-.34-1.35-.89-2.85-2.3-3.49-1.55-.7-2.75.27-3.78,1.32-1.08,1.1-1.91,2.6-1.49,4.14.38,1.4,1.66,2.14,3,2.63,1.84.67,3.68,1.16,5.12,2.52,1.32,1.26,2.71,4.52.45,5.65-2.05,1.03-4.14-1.19-5.37-2.46-1.74-1.82-2.93-3.79-3.58-6.18-.58-2.18-.89-4.41-1.55-6.56-.61-1.99-1.34-4.27-2.66-5.95s-3.35-2.81-5.04-4.04c-.67-.49-1.33.6-.66,1.08,1.57,1.14,3.53,2.22,4.71,3.76s1.77,3.49,2.32,5.26c1.04,3.31,1.19,6.92,2.87,10.03.76,1.41,1.84,2.64,2.97,3.79,1.04,1.06,2.21,2.17,3.73,2.58,2.8.76,4.91-1.28,4.73-3.9-.2-2.9-2.67-4.93-5.31-5.98-1.36-.54-3.54-.78-4.29-2.14-1.11-2.02,2.54-6.03,4.16-3.63.94,1.39,1.12,3.47,1.36,5.06.3,1.91.41,3.86.29,5.78-.12,1.75-.44,3.53-1.07,5.19-.31.82-.71,1.75-1.58,2.18-1.03.51-2.4.2-3.46-.06-3.88-.95-7.04-3.52-9.88-6.07s-5.98-5.46-7.57-9.09c-.32-.73-1.59-.41-1.27.33h0Z"/><path class="cls-1" d="m52.79,49.58c1.36,2.24,3.27,4.45,5.65,5.77,1.56.87,4.66,1.45,5.21-.84s-.88-4.81-2.29-6.51c-.65-.78-1.54-1.56-2.68-1.42-.9.11-1.58.81-1.81,1.62-.34,1.17.27,2.38.73,3.43.54,1.24,1.12,2.46,1.83,3.62,1.35,2.21,3.18,4.24,5.54,5.51,1.02.55,2.14,1.02,3.34.87,1.45-.19,2.6-1.19,4.01-1.51s3.88-.46,4.74.83c1.12,1.7-1.36,3.07-2.62,3.78-.93.52-2.35,1.17-2.6,2.29-.23,1.06.69,1.51,1.63,1.63,3.05.42,5.9-1.18,8.15-2.96.65-.52-.28-1.4-.93-.88-1.73,1.37-3.86,2.63-6.18,2.66-.11,0-1.03.02-1.11-.09-.18-.25.26-.66.39-.78.36-.34.89-.56,1.32-.8.76-.43,1.54-.85,2.18-1.43,1.08-.97,1.76-2.5,1.07-3.86s-2.33-1.7-3.71-1.81c-2.04-.16-3.62.54-5.41,1.33-2.33,1.03-4.73-.83-6.3-2.38s-2.68-3.4-3.59-5.32c-.42-.88-.96-1.84-1.15-2.8-.05-.25-.16-.77-.05-1,.56-1.16,1.3-.65,1.77-.22s.82.95,1.15,1.46c.68,1.05,1.25,2.23,1.33,3.47.05.78-.17,1.6-1.15,1.64-.69.03-1.36-.22-1.95-.52-2.28-1.14-4.1-3.34-5.37-5.42-.42-.7-1.56-.07-1.14.63h0Z"/><path class="cls-1" d="m81.51,65.8c7.33-4.19,11.12-12.3,9.29-20.27-.18-.79-1.45-.45-1.27.33,1.7,7.42-1.88,14.97-8.69,18.86-.72.41-.06,1.5.66,1.08h0Z"/><path class="cls-1" d="m47.42,35.95c.44,4.42.9,8.89,2.18,13.18s3.57,8.1,6.33,11.66c1.26,1.63,2.72,3.02,4.51,4.12s3.81,2.15,5.84,2.64c1.67.4,3.57.23,4.74-1.09.65-.73.88-1.7,1.47-2.47.75-.99,3.77-2.48,4.12-.38.13.79,1.4.46,1.27-.33-.26-1.59-1.99-2.15-3.49-1.86-1.97.39-2.94,1.71-3.79,3.3-1.49,2.78-4.43,1.61-6.74.54-2.14-.98-4.14-2.15-5.73-3.85s-3.01-3.87-4.27-5.89-2.18-4.11-2.87-6.32c-1.35-4.31-1.82-8.81-2.26-13.27-.08-.79-1.4-.8-1.32,0h0Z"/><path class="cls-1" d="m57.9,62.98c1.13,3.35.11,6.79-1.85,9.66-1.84,2.7-4.43,4.73-6.71,7.08-2.06,2.11-3.49,4.52-3.92,7.39s.02,5.61.94,8.25c1.82,5.2,5.73,9.55,11.78,10.07,5.47.48,10.56-2.98,11.83-8.03.8-3.15.61-8.19,4.66-9.38,1.87-.55,4.21.65,4.7,2.49.37,1.37-1.04,1.14-1.85.63-1.01-.65-1.05-2.42.48-2.3.84.07.84-1.18,0-1.25-2.56-.2-3.31,2.95-1.55,4.35.81.65,2.33,1.15,3.37.75,1.19-.46,1.06-1.99.66-2.93-1.06-2.54-4.27-3.8-6.86-2.68-3.36,1.45-3.99,5.1-4.52,8.19-.62,3.59-2.18,6.54-5.81,8.11-3.41,1.48-7.37.92-10.42-1.06s-4.88-5.61-5.75-9.09-.71-7.6,1.56-10.76,5.93-5.56,8.29-8.86,3.5-7.18,2.22-10.97c-.26-.76-1.53-.44-1.27.33h0Z"/><path class="cls-1" d="m79.13,67.3c3,.79,1.81,4.32,1.02,6.26s-1.66,3.77-1.79,5.83.7,3.49,1.86,5.2c.91,1.34,2.15,6.8-.73,6.79-.85,0-.85,1.25,0,1.25,2.71,0,3.12-2.94,3.04-4.94-.05-1.25-.35-2.47-1.05-3.54-.95-1.47-1.84-2.54-1.81-4.35.04-3.03,2.05-5.57,2.62-8.48.42-2.17-.36-4.57-2.79-5.21-.82-.22-1.17.99-.35,1.21h0Z"/><path class="cls-1" d="m58.44,65.41c.91,2.5,1.05,5.15.27,7.7-.64,2.1-1.8,4.01-2.55,6.08-.54,1.49-1.28,3.84-.11,5.24,1.06,1.27,2.95.75,3.97-.27,1.2-1.2,3.63-5.75,5.9-4.17.85.58,1.77,1.79,2.22,2.67.68,1.36-.35,2.58-1.22,3.65-1.41,1.73-3.23,3.13-5.28,4.11s-5.08,1.88-6.92-.05-2.56-5.01-1.99-7.61,2.15-5.07,2.95-7.69c.24-.77-1.03-1.1-1.27-.33-.8,2.62-2.36,5.01-2.95,7.69-.51,2.3-.2,4.67.89,6.77,1.01,1.95,2.58,3.48,4.97,3.57s4.79-1.01,6.7-2.23,3.64-2.87,4.89-4.77c.51-.77,1.06-1.65.86-2.6-.23-1.12-1.15-2.11-1.88-2.97-.63-.75-1.32-1.6-2.37-1.77s-2.08.37-2.88.97c-.9.68-1.73,1.47-2.41,2.36-.49.64-.89,1.49-1.62,1.92-1.23.74-1.86-.36-1.82-1.37.1-2.93,2.03-5.55,2.99-8.27,1.03-2.92.98-6.04-.08-8.95-.27-.76-1.55-.43-1.27.33h0Z"/><path class="cls-1" d="m69.57,94.11c-.64.47-1.55,1.17-2.39.8-.66-.29-1.04-1.08-1.4-1.64-.86-1.34-1.71-2.72-2.2-4.23s-.65-3.05-.79-4.59c-.13-1.45-.14-2.93.83-4.13.52-.64-.63-1.26-1.14-.63-1.13,1.4-1.16,3.2-1,4.89.19,1.97.42,3.97,1.21,5.82.71,1.65,1.68,3.47,2.88,4.84,1.35,1.55,3.18,1.04,4.66-.05.66-.48,0-1.57-.66-1.08h0Z"/><path class="cls-1" d="m84,63.54c1.3,1.2,2.65,2.43,3.5,3.97,1.03,1.85,1.01,3.92.6,5.92-.35,1.76-.94,3.47-1.46,5.19s-1.32,3.5-1.37,5.27c-.04,1.42.63,2.7,1.39,3.89.94,1.47,2.42,3.26,1.75,5.09-.53,1.45-2.04,2.39-2.62,3.86-.52,1.33-.52,2.74-.08,4.09.25.77,1.52.44,1.27-.33-.65-2.01,0-3.68,1.34-5.25.97-1.12,1.69-2.25,1.53-3.76s-1.02-2.76-1.83-4c-.49-.75-1.02-1.52-1.27-2.37-.35-1.17-.04-2.23.31-3.37,1.05-3.47,2.66-7.17,2.63-10.83s-2.26-5.95-4.76-8.27c-.61-.56-1.54.32-.93.88h0Z"/><path class="cls-1" d="m85.92,101c2.12,3.33,3.46,7.26,2.84,11.18-.28,1.77-.93,3.49-1.96,4.99s-2.51,2.42-3.67,3.77c-.91,1.06-1.22,2.28-.68,3.58.45,1.09,1.33,2.6,2.6,2.99,1.49.46,2.73-.72,3.68-1.64,1.02-.99,2.69-2.44,3.09-3.82s-1.03-1.88-2.19-2.11c-1.66-.32-3.38-.07-4.91.6s-2.81,1.78-3.85,3.06c-1.29,1.58-2.72,2.48-4.89,2.32-4.18-.3-6.94-4.15-9.17-7.08-.94-1.24-1.76-2.9-3.1-3.8-1.17-.79-2.69-.69-3.99-.24-2.98,1.02-4.91,4.49-2.72,7.1,1.11,1.33,2.93,1.82,4.58,2.23,1.12.28,2.29.48,3.39.83.77.25,1.54.61,1.76,1.43.2.77-.25,1.49-.91,1.9-.71.44-.05,1.52.66,1.08,2.08-1.29,2.13-4.13-.18-5.26-2.53-1.24-8.16-.79-8.86-4.2-.33-1.62.74-3.08,2.25-3.76.85-.38,2.09-.68,2.99-.26.79.37,1.27,1.24,1.75,1.9,1.88,2.61,3.87,5.46,6.52,7.43,2.04,1.51,4.66,2.38,7.24,1.77,3.14-.74,4.17-4,7-5.29.83-.38,1.75-.61,2.67-.65.55-.02,1.1.02,1.64.14.69.16,1.18.1.81.94-.3.68-1.07,1.35-1.59,1.9-.58.63-1.18,1.29-1.87,1.81-1.36,1.05-2.2-.02-2.82-1.11-.47-.82-.78-1.59-.28-2.47.75-1.33,2.36-2.21,3.35-3.37,4.62-5.43,3.53-12.89-.04-18.52-.44-.69-1.58-.06-1.14.63h0Z"/><path class="cls-1" d="m79.38,91.99c.07,2.12-1.27,3.97-1.4,6.07-.13,2.2,1.46,3.97,2.64,5.72,1.45,2.15,2.85,4.49,3,7.1.08,1.48-.34,2.85-.97,4.19-.48,1.02-1.01,2.46-2.14,2.94-.77.33-.1,1.4.66,1.08.93-.4,1.44-1.15,1.9-1.98.63-1.16,1.25-2.37,1.6-3.64.66-2.45.07-4.96-1.03-7.21-.6-1.22-1.35-2.37-2.13-3.5s-1.75-2.25-2.1-3.55c-.65-2.41,1.37-4.79,1.29-7.23-.03-.8-1.34-.81-1.32,0h0Z"/><path class="cls-1" d="m80.87,117.87c-.65.26-1.07.85-1.3,1.47-.12.33-.18.68-.23,1.03s-.09.71-.05,1.07c.17,1.39,1.51,2.44,3,2.3.35-.03.66-.26.66-.62,0-.31-.3-.66-.66-.62-.84.08-1.66-.41-1.7-1.23-.02-.48.05-1.01.2-1.47.06-.19.17-.4.28-.53.13-.14.26-.23.46-.31.33-.13.4-.59.24-.86-.2-.32-.57-.36-.9-.22h0Z"/><path class="cls-1" d="m45.5,86.21c-2.83,1.76-4.94,4.46-5.72,7.61-.96,3.87.35,8,1.69,11.65.66,1.81,1.44,3.58,2.32,5.3.97,1.9,2.21,3.63,3.25,5.49.54.97,1.01,2.06.83,3.18s-1.08,2.07-1.9,2.87c-1.37,1.34-3.03,2.41-4.84,3.13-2.1.83-5.97,1.81-7.52-.44-.28-.41-.25-.45.04-.87.38-.55.57-.4,1.15-.25.69.18,1.4.46,2.05.74,1.15.49,2.24,1.09,3.28,1.75.7.45,1.36-.63.66-1.08-1.83-1.17-4.26-2.58-6.51-2.79-1.81-.17-2.81,1.28-1.99,2.84,2.08,3.97,8.47,1.95,11.44.25,1.77-1.02,3.4-2.37,4.59-3.99,1.28-1.74,1.05-3.72.09-5.56-1.19-2.29-2.74-4.38-3.88-6.7s-2.1-4.86-2.83-7.39c-.79-2.79-1.36-5.67-.45-8.5.82-2.54,2.58-4.7,4.92-6.15.71-.44.05-1.52-.66-1.08h0Z"/><path class="cls-1" d="m39.96,126.18c1.43,1.37,2.98,2.79,4.99,3.31,1.1.29,2.26.26,3.39.24,1.45-.02,2.78.15,4.21.37,2.5.38,5.06.33,7.59.38,2.25.05,4.38.23,6.29-1.08.68-.47.02-1.55-.66-1.08-1.89,1.29-4.19.94-6.39.89-2.32-.05-4.66,0-6.95-.4-2.01-.34-3.93-.19-5.95-.35-2.36-.19-4.01-1.66-5.6-3.18-.6-.57-1.53.31-.93.88h0Z"/><path class="cls-1" d="m46.36,94.02c-4.27,2.13-10.14,5.88-9.58,11.17.59,5.56,6.53,8.17,10.6,11.25.66.5,1.59-.38.93-.88-3.65-2.76-9.11-5.09-10.13-9.88s4.91-8.61,8.84-10.57c.75-.38.09-1.45-.66-1.08h0Z"/><path class="cls-1" d="m56.02,104.03c-2.17-.38-4.53-.72-6.73-.45-1.81.22-3.66,1.19-4,3.04-.15.81.07,1.69.73,2.25s1.64.59,2.24-.05c1.18-1.28-.12-3.28-1.39-3.97-1.82-.98-4.2-.03-4.47,2-.11.8,1.21.79,1.32,0,.09-.66.82-1.11,1.47-1.16s1.3.32,1.71.79c.19.23.86,1.3.35,1.55-.27.13-.53-.3-.6-.48-.12-.3-.09-.62,0-.92.47-1.46,2.19-1.84,3.6-1.88,1.81-.05,3.66.16,5.44.48.83.14,1.18-1.06.35-1.21h0Z"/><path class="cls-1" d="m40.25,111.27c.54,1.12.3,2.53-.6,3.43-.48.48-1.13.77-1.73,1.09-.7.37-1.39.75-2.1,1.1-1.26.64-2.93,1.48-4.38.93s-1.44-2.52-1.15-3.78.93-2.41,1.85-3.34c.46-.46,3.32-2.71,3.53-1.06.09.68-.67,1.26-1.13,1.66-.62.54-1.27,1.04-1.95,1.51-1.21.83-2.5,1.48-3.79,2.19-2.83,1.56-4.43,4.16-5.92,6.83-.4.71.74,1.34,1.14.63.93-1.67,1.87-3.38,3.25-4.76s3.31-2.12,5.01-3.17c1.47-.91,3.3-2.03,4.26-3.46.86-1.26.4-3.16-1.4-3.24-1.62-.08-3.19,1.16-4.18,2.25-1.09,1.21-1.82,2.68-2.04,4.26s-.04,3.46,1.49,4.37,3.34.47,4.86-.17c1.1-.47,2.14-1.05,3.19-1.61.82-.43,1.67-.84,2.29-1.52,1.21-1.34,1.41-3.2.65-4.77-.35-.73-1.49-.1-1.14.63h0Z"/><path class="cls-2" d="m22.93,121.83c-2.51,4.67-4.63,9.42-5.75,14.58-.17.79,1.1,1.12,1.27.33,1.1-5.05,3.16-9.7,5.62-14.28.38-.72-.75-1.35-1.14-.63h0Z"/><path class="cls-2" d="m67.15,121.34c1.07,4.31,2.05,8.62,2.57,13.03s.74,8.65,1.03,12.98c.05.8,1.37.8,1.32,0-.3-4.49-.54-8.99-1.09-13.47s-1.5-8.61-2.55-12.87c-.19-.78-1.46-.45-1.27.33h0Z"/><path class="cls-2" d="m35.79,57.23c.8.34,1.64.88,2.04,1.65.18.35.02.67-.42.64s-.79-.39-1.01-.71c-.12-.19-.23-.4-.28-.61-.05-.23-.03-.26.16-.39.35-.25.92-.29,1.34-.32,1-.07,2.05-.13,3.04.05.75.14,1.78.39,2.27.99.28.34-.02.44-.39.41s-.74-.28-.96-.57c-.52-.69-.08-1.53.58-1.96.77-.51,1.81-.61,2.72-.58.58.02,1.19.1,1.74.29.14.05.52.17.52.36,0,.23-.46.13-.62.08-.94-.26-1.7-.99-2.15-1.79-.4-.71-1.54-.08-1.14.63.69,1.2,2.16,2.52,3.7,2.47.73-.02,1.46-.5,1.53-1.23.07-.77-.52-1.35-1.22-1.63-1.54-.61-3.59-.62-5.13,0-1.38.57-2.51,2.01-1.93,3.48.49,1.25,2.16,2.16,3.48,1.44.66-.36.89-1.05.6-1.7s-.94-1.11-1.61-1.39c-1.65-.71-3.45-.75-5.23-.59-.77.07-1.63.22-2.21.75s-.5,1.29-.2,1.96c.6,1.36,2.76,2.7,3.95,1.09s-1.2-3.35-2.51-3.9c-.77-.32-1.44.75-.66,1.08h0Z"/><path class="cls-2" d="m24.17,122.33c1.1-2.12,2.28-4.42,4.46-5.71.72-.43.06-1.51-.66-1.08-2.39,1.42-3.72,3.83-4.93,6.16-.16.3-.09.68.24.86.29.16.74.08.9-.22h0Z"/><path class="cls-1" d="m66.72,120.86c.23.27.46.54.69.82.06.07.11.14.17.21.03.03.03.03,0-.01l.04.05s.05.06.07.09c.12.15.23.29.35.44.41.54.77,1.23,1.42,1.55.3.15.73.08.9-.22.16-.29.09-.69-.24-.86-.03-.01-.06-.03-.09-.05,0,0-.12-.09-.05-.03s-.01-.02-.03-.03c-.03-.03-.06-.05-.09-.08-.02-.02-.04-.05-.07-.07-.05-.06-.03-.02,0,.02-.05-.05-.09-.12-.13-.17-.2-.28-.4-.55-.61-.82-.45-.58-.93-1.14-1.4-1.71-.22-.26-.71-.23-.93,0-.26.27-.23.61,0,.88h0Z"/></g></g><g><path class="cls-2" d="m5.23,156.39l.56-.07c.01.35.08.58.2.71s.28.19.49.19c.15,0,.29-.03.4-.1s.19-.16.23-.28c.04-.12.06-.31.06-.57v-3.11h.62v3.08c0,.38-.05.67-.14.88-.09.21-.24.37-.45.48s-.44.16-.72.16c-.41,0-.72-.11-.94-.34-.22-.23-.32-.57-.31-1.02Z"/><path class="cls-2" d="m15.11,153.15h.62v2.61c0,.45-.05.82-.16,1.08-.11.27-.3.48-.57.65s-.64.25-1.09.25-.79-.07-1.07-.22c-.28-.15-.48-.36-.59-.63-.12-.28-.18-.65-.18-1.13v-2.61h.62v2.61c0,.39.04.68.11.87s.2.33.39.43.41.15.67.15c.45,0,.78-.1.97-.3s.29-.58.29-1.15v-2.61Z"/><path class="cls-2" d="m19.98,157.67v-4.52h.62v3.99h2.29v.53h-2.91Z"/><path class="cls-2" d="m26.99,157.67v-4.52h.62v4.52h-.62Z"/><path class="cls-2" d="m31.96,157.67v-4.52h3.37v.53h-2.75v1.38h2.58v.53h-2.58v1.54h2.86v.53h-3.48Z"/></g><g><path class="cls-2" d="m62.31,155.82v-.53h1.97s0,1.67,0,1.67c-.3.23-.62.41-.94.53s-.65.18-.99.18c-.46,0-.87-.1-1.25-.29-.37-.19-.66-.47-.85-.83-.19-.36-.29-.76-.29-1.21s.09-.85.28-1.23.46-.66.82-.85.77-.28,1.23-.28c.34,0,.64.05.91.16.27.11.49.25.64.44.15.19.27.44.35.74l-.56.15c-.07-.23-.16-.41-.26-.54-.1-.13-.25-.24-.44-.32-.19-.08-.41-.12-.64-.12-.28,0-.53.04-.73.12s-.37.19-.5.33-.22.28-.29.45c-.12.28-.18.58-.18.91,0,.4.07.74.21,1.01.14.27.35.47.62.6.27.13.56.2.87.2.27,0,.53-.05.78-.15.25-.1.45-.21.58-.32v-.84h-1.37Z"/><path class="cls-2" d="m68.46,157.6v-4.52h3.37v.53h-2.75v1.38h2.58v.53h-2.58v1.54h2.86v.53h-3.48Z"/><path class="cls-2" d="m75.72,156.31l.56-.07c.01.35.08.58.2.71s.28.19.49.19c.15,0,.29-.03.4-.1s.19-.16.23-.28c.04-.12.06-.31.06-.57v-3.11h.62v3.08c0,.38-.05.67-.14.88-.09.21-.24.37-.45.48s-.44.16-.72.16c-.41,0-.72-.11-.94-.34-.22-.23-.32-.57-.31-1.02Z"/><path class="cls-2" d="m82.56,157.6v-4.52h3.37v.53h-2.75v1.38h2.58v.53h-2.58v1.54h2.86v.53h-3.48Z"/><path class="cls-2" d="m90.12,157.6v-4.52h.62v3.99h2.29v.53h-2.91Z"/></g></g><g><path class="cls-2" d="m53.09,147.25v.27c-.76.1-1.32.34-1.67.72-.15.16-.25.35-.31.59-.06.24-.09.59-.09,1.07v5.74c0,.94-.19,1.68-.58,2.2-.36.48-.83.85-1.43,1.11s-1.25.39-1.99.39c-.6,0-1.15-.09-1.65-.26-.5-.17-.89-.41-1.18-.72-.29-.3-.43-.64-.43-1,0-.34.12-.62.37-.84.25-.22.56-.33.95-.33.35,0,.65.09.89.26.24.18.36.4.36.67,0,.12-.02.27-.07.45l-.06.19c-.05.16-.08.29-.08.4,0,.23.09.41.27.54.18.13.41.2.69.2.19,0,.37-.04.55-.11.18-.08.33-.19.45-.33.12-.15.2-.31.25-.48.08-.31.12-.76.12-1.37v-6.71c0-.52-.04-.9-.13-1.14s-.25-.45-.49-.63c-.42-.32-1.06-.52-1.91-.62v-.27h7.13Zm-7.03,11.71c-.26-.15-.45-.28-.59-.39s-.23-.24-.28-.36-.08-.28-.08-.47c0-.16.02-.3.05-.43.03-.17.04-.27.04-.28,0-.12-.04-.22-.13-.3-.08-.08-.2-.11-.33-.11-.18,0-.32.07-.42.2s-.16.31-.16.53c0,.38.17.72.51,1.01s.8.49,1.38.61Zm1.62-11.38l.63.37c.29.16.45.29.5.38s.08.31.08.65v7.38c0,.54-.02.98-.07,1.31-.05.33-.14.58-.27.76-.13.18-.33.35-.58.5.77-.25,1.32-.64,1.62-1.16.31-.52.46-1.3.46-2.34v-6.3s0-.04,0-.05c0-.02,0-.05,0-.1v-.29c.01-.17.05-.3.12-.39s.22-.2.47-.35l.63-.37h-3.6Z"/><path class="cls-2" d="m51.25,152.65l.97,3.04h-.25c-.57-1.08-1.19-1.86-1.84-2.35-.65-.48-1.43-.72-2.33-.72-.66,0-1.28.14-1.88.41-.59.27-1.11.67-1.56,1.19-.83.95-1.24,2.15-1.24,3.6,0,1.11.21,2.11.64,3.01s1.02,1.6,1.77,2.11c.75.51,1.59.77,2.5.77.57,0,1.07-.09,1.52-.28.44-.19.76-.44.94-.76.17-.3.26-.78.26-1.45v-.29c0-.49-.04-.86-.11-1.11-.07-.25-.2-.46-.38-.63-.34-.32-.85-.51-1.51-.56v-.26h5.19v.26c-.45.1-.79.33-1.01.7-.16.28-.24.82-.24,1.61v1.53l.51.77c-.08,0-.17,0-.27,0-.43,0-.85.04-1.25.11-.4.07-.92.21-1.55.41-.61.2-1.13.33-1.56.4-.43.07-.89.1-1.37.1-1.83,0-3.27-.51-4.31-1.53-.57-.57-1.01-1.23-1.33-2-.32-.77-.48-1.55-.48-2.35s.16-1.62.49-2.36c.33-.75.78-1.4,1.36-1.96.58-.56,1.25-1,2.02-1.32s1.59-.48,2.45-.48c.49,0,1.08.05,1.76.16.1.01.22.03.36.05.14.03.4.07.79.14.2.04.37.06.5.06.02,0,.06,0,.12,0,.06,0,.12,0,.19,0,.04,0,.07,0,.1,0Zm-4.79,11.31c-.63-.22-1.14-.45-1.53-.69s-.77-.56-1.12-.94c-.48-.54-.84-1.17-1.1-1.88-.26-.71-.38-1.45-.38-2.23,0-.67.09-1.32.28-1.96s.46-1.2.81-1.69c.38-.54.97-1.09,1.78-1.67-.8.39-1.49.86-2.04,1.41-.56.55-.98,1.17-1.27,1.86-.28.69-.43,1.43-.43,2.22,0,.98.21,1.87.63,2.68.42.81,1.01,1.47,1.77,1.98.76.5,1.63.81,2.61.91Zm3.67-5.28l.5.37c.19.14.31.25.37.34.05.08.08.21.08.38,0,.06,0,.11,0,.15s0,.09,0,.13v1.42c0,.45-.05.8-.15,1.05-.1.25-.29.51-.57.79.53-.22,1.07-.36,1.61-.43v-2.83c0-.09,0-.18,0-.28,0-.17.03-.3.09-.39.06-.09.18-.2.36-.32l.5-.37h-2.8Z"/><path class="cls-2" d="m50.7,153.98c.8,0,.81-1.25,0-1.25s-.81,1.25,0,1.25h0Z"/></g></svg>