<?xml version="1.0" encoding="UTF-8"?><svg id="Layer_1" xmlns="http://www.w3.org/2000/svg" width="106" height="106" viewBox="0 0 106 106"><defs><style>.cls-1{fill:#dd8226;}.cls-2{fill:#231f20;}</style></defs><g><path class="cls-1" d="m42.52,3.94c2.21-1.14,4.9-1.14,7.11,0,1.05.54,2.28,1.29,2.92,2.27s.68,2.22.71,3.35c.01.49.83.49.81,0-.03-1.24-.09-2.56-.77-3.67s-2.06-2-3.26-2.61c-2.47-1.27-5.46-1.27-7.93,0-.46.24-.05.9.41.66h0Z"/><path class="cls-1" d="m69.11,8.83c-1.26-.88-2.08-2.19-3.22-3.2-1.25-1.11-2.91-1.74-4.43-2.47-.47-.22-.88.44-.41.66,1.53.73,3.21,1.36,4.44,2.51,1.1,1.03,1.95,2.27,3.21,3.16.42.29.83-.37.41-.66h0Z"/><g><path class="cls-2" d="m36.31,40.45c.04.32.11.6.21.9.07.2.17.43.17.65l-.02.13c0,.35-.26.3-.76-.15-.22-.66.66-1.75,1.1-2.17.28-.26.59-.48.94-.65.16-.08.38-.19.54-.22l.25-.07.45.5c-.05.14-1.04.11-1.14.11-.54,0-1.02-.06-1.47-.34-.77-.47-1.84-1.87-2.95-1.21s.22,1.76.93,2.05c.54.22,1.14.32,1.69.09.67-.29,1-.92,1.77-1.09.66-.15,1.4.09,2.02-.23.5-.26.69-.75.69-1.26,0-.76-.21-1.54-.3-2.28-.11-.9-.16-1.8-.08-2.7.15-1.68.72-3.43,1.71-4.84.63-.89,1.51-1.12,2.55-1.39.99-.25,1.99-.46,2.99-.62s2.17-.44,3.18-.23,1.79.96,2.5,1.62l.29-.65c-4.08-.51-9.34-.28-11.19,3.85-.06.12.01.28.1.37,1.07,1.05,2.82,1.3,4.29,1.4,1.63.12,3.33-.23,4.46-1.41.35-.36-.23-.91-.58-.54-1,1.04-2.45,1.29-3.88,1.18-1.24-.09-2.82-.29-3.72-1.18l.1.37c1.69-3.77,6.79-3.74,10.41-3.29.37.05.52-.44.29-.65-.62-.58-1.27-1.17-2.06-1.54-.9-.42-1.8-.39-2.78-.27-2.02.23-4.25.54-6.12,1.31-1.67.69-2.45,2.69-2.92,4.23-.57,1.87-.54,3.76-.27,5.67.07.5.32,1.19.21,1.69-.18.78-.93.54-1.51.57-.97.05-1.49.48-2.2,1.02-.45.34-1.22.33-1.68-.06-.26-.22-.59-.57-.01-.5.2.03.44.24.59.35.62.47,1.11,1,1.91,1.18.86.2,3.67.27,3.3-1.23s-2.65-.6-3.45-.01c-1.04.76-2.67,3-1.3,4.13.52.43,1.27.36,1.67-.17.59-.78-.01-1.61-.11-2.43-.06-.48-.87-.49-.81,0h0Z"/><path class="cls-2" d="m30.27,45.78c.82-.37,1.65-.74,2.47-1.11.76-.34,1.82-.76,2.54-.11.12.11.34.15.49.06,1.42-.89,3.02.12,4.21.89v-.66c-2.92,1.72-6.5.66-9.65.25-.51-.07-.73.67-.22.74,3.38.43,7.14,1.51,10.27-.33.27-.16.25-.49,0-.66-1.44-.94-3.34-1.95-5.03-.89l.49.06c-.75-.68-1.82-.66-2.74-.33-1.11.4-2.18.95-3.25,1.43-.47.21-.06.87.41.66h0Z"/><path class="cls-2" d="m30.23,45.9c1.23,1.12,2.36,2.38,3.93,3.09,1.41.64,2.88,1.72,3.29,3.21.2.72.05,1.57-.63,2.03s-1.64.44-2.36.11c-.77-.36-1.08-1.05-1.25-1.8-.16-.68.04-1.79,1.05-1.68,1.07.12.63,1.57.39,2.19-.32.82-.89,1.54-1.54,2.16-.37.35.21.89.58.54.75-.71,1.38-1.55,1.75-2.5.3-.78.58-1.97-.07-2.66-.58-.62-1.62-.64-2.29-.14-.86.65-.85,1.7-.57,2.62s.79,1.63,1.72,2.01,1.99.36,2.85-.11,1.32-1.41,1.26-2.34c-.07-.97-.61-1.84-1.28-2.56-.83-.9-1.86-1.41-2.96-1.95-.65-.32-1.15-.78-1.66-1.26l-1.63-1.49c-.37-.34-.95.2-.58.54h0Z"/><path class="cls-2" d="m34.47,48.26s-.06-.03-.08-.05c.08.05,0,0-.02-.02-.02-.02-.05-.04-.07-.06-.02-.03-.06-.07-.02-.02-.04-.05-.07-.1-.1-.16-.04-.08.01.05,0-.02,0-.03-.02-.06-.03-.09s-.01-.06-.02-.09c-.02-.09,0,.06,0-.02,0-.06,0-.12,0-.18-.01.1,0,0,0-.02,0-.03.02-.06.03-.09.02-.08-.03.05,0-.02.02-.04.04-.07.07-.11.01-.02.02-.03.03-.05-.02.02-.02.03,0,0,.03-.03.05-.05.08-.08s.06-.05.09-.08c.01-.01.03-.02.05-.04-.03.02-.03.02,0,0,.13-.09.28-.17.43-.24.24-.11.63-.2.89-.22.21-.01.42-.17.41-.38,0-.19-.18-.4-.41-.38-.46.03-.9.14-1.32.33-.39.18-.77.44-.98.79-.4.66-.12,1.54.57,1.92.18.1.45.05.56-.14s.05-.41-.15-.52h0Z"/><path class="cls-2" d="m33.09,55.28c-.67.93.05,2.05,1.06,2.41,1.45.52,3.39.23,4.89.05,3.43-.4,6.73-1.46,9.7-3.12.45-.25.04-.91-.41-.66-2.34,1.3-4.89,2.23-7.56,2.74-1.36.26-2.74.41-4.13.44-.6.01-1.25.05-1.85-.07-.66-.14-1.51-.71-1-1.41.29-.41-.41-.79-.7-.39h0Z"/><path class="cls-1" d="m53.87,15.12c-2.49-3.16-6.44-5.16-10.63-5.38-1.22-.07-2.52.24-3.72,0-.68-.14-1.36-.58-1.36-1.29,0-.35.18-.71.35-1.01.07-.12.15-.23.23-.34.07-.1.14-.19.24-.26l.84.14c.38.33.08,1.24-.1,1.59-.25.49-.67.9-1.16,1.2-.94.58-3.02.98-3.18-.51-.25-2.34,1.84-4.45,3.82-5.56,2.13-1.19,4.96-2.07,7.46-2.08s5.45.83,7.24,2.5c1.96,1.82,1.9,4.92,1.82,7.33-.18,5.3-1.65,10.83.93,15.85.23.44.93.06.7-.39-3.05-5.93-.17-12.6-.94-18.82-.17-1.35-.45-2.72-1.32-3.84-.77-.98-1.87-1.69-3.04-2.2-1.36-.59-2.83-.99-4.31-1.14-1.62-.16-3.19.12-4.74.53-2.68.71-5.4,1.84-7.08,4.01-1.08,1.39-2.6,5.17.33,5.56,2.15.29,4.64-1.36,4.53-3.52-.04-.89-.85-1.87-1.91-1.47-.97.37-1.63,1.77-1.52,2.69.15,1.25,1.52,1.82,2.71,1.88.85.04,1.7-.09,2.55-.08s1.66.09,2.47.25c3.2.62,6.13,2.31,8.08,4.78.31.39,1.01.01.7-.39h0Z"/><path class="cls-1" d="m35.74,10.01c-.32-1.38.84-2.84,1.85-3.74s2.15-1.5,3.42-1.89,2.71-.6,4.08-.58c1.59.03,2.82.66,4.16,1.4,2.38,1.32,4.1,3.36,4.33,6.01s-.75,5.22-.26,7.86c.09.48.87.28.78-.2-.48-2.56.51-5.09.29-7.65-.17-2.01-1.13-3.92-2.71-5.3-.89-.78-1.97-1.35-3.03-1.9s-2.07-.91-3.26-.96c-2.36-.12-4.9.42-6.9,1.61-1.87,1.11-4.05,3.31-3.53,5.56.11.48.9.28.78-.2h0Z"/><path class="cls-1" d="m48.91,1.85c2.34-.09,4.71-.04,7.02.35,2.16.37,4.63.94,6.14,2.53,1.6,1.69,1.92,4.01,1.77,6.18s-.44,4.3.16,6.48c.13.47.92.27.78-.2-.35-1.25-.45-2.5-.36-3.78s.3-2.52.26-3.79c-.05-2.04-.67-4.12-2.22-5.61s-3.91-2.11-6.03-2.5c-2.48-.45-5.01-.53-7.53-.43-.52.02-.52.78,0,.76h0Z"/><path class="cls-1" d="m64.05,17.37c.91,2.04,2.46,3.67,4.13,5.19s3.37,3.03,5.45,3.97c1.57.71,4.15,1.54,5.37-.12.62-.85.87-1.97,1.05-2.96.21-1.18.26-2.38.17-3.58s-.29-2.4-.59-3.57c-.21-.82-.55-1.74-1.42-2.13-.96-.43-1.7.17-2.34.81-.67.67-1.18,1.59-.92,2.53.24.86,1.03,1.31,1.86,1.6,1.14.41,2.28.71,3.17,1.54.82.77,1.68,2.76.28,3.45-1.27.63-2.56-.73-3.32-1.5-1.08-1.11-1.81-2.31-2.21-3.77-.36-1.33-.55-2.69-.96-4.01-.38-1.22-.83-2.6-1.65-3.63s-2.07-1.71-3.12-2.46c-.42-.3-.82.36-.41.66.97.7,2.18,1.36,2.91,2.3s1.09,2.13,1.44,3.21c.64,2.02.73,4.23,1.77,6.12.47.86,1.14,1.61,1.84,2.32.65.65,1.37,1.32,2.3,1.57,1.73.46,3.04-.78,2.92-2.38-.12-1.77-1.65-3.01-3.29-3.65-.84-.33-2.19-.47-2.65-1.31-.69-1.23,1.57-3.68,2.57-2.22.58.85.69,2.12.84,3.09.18,1.17.26,2.35.18,3.53-.07,1.07-.27,2.16-.66,3.17-.19.5-.44,1.07-.98,1.33-.64.31-1.48.12-2.14-.04-2.4-.58-4.35-2.15-6.11-3.71s-3.7-3.34-4.68-5.55c-.2-.45-.99-.25-.78.2h0Z"/><path class="cls-1" d="m56.62,27.25c.84,1.37,2.02,2.71,3.49,3.52.97.53,2.88.89,3.22-.51s-.54-2.93-1.41-3.97c-.4-.48-.95-.95-1.65-.87-.56.07-.98.49-1.12.99-.21.71.17,1.45.45,2.1.33.76.7,1.5,1.13,2.21.83,1.35,1.96,2.59,3.42,3.36.63.34,1.32.63,2.07.53.89-.12,1.61-.73,2.48-.92s2.4-.28,2.93.51c.69,1.04-.84,1.88-1.62,2.31-.58.32-1.46.72-1.61,1.4-.14.65.43.92,1.01,1,1.89.25,3.65-.72,5.04-1.81.4-.31-.18-.85-.58-.54-1.07.84-2.38,1.61-3.82,1.62-.07,0-.64.02-.69-.05-.11-.15.16-.4.24-.47.22-.21.55-.34.82-.49.47-.26.95-.52,1.35-.87.67-.59,1.09-1.53.66-2.36s-1.44-1.04-2.3-1.1c-1.26-.1-2.24.33-3.35.81-1.44.63-2.92-.51-3.89-1.45s-1.66-2.07-2.22-3.25c-.26-.54-.59-1.13-.71-1.71-.03-.15-.1-.47-.03-.61.34-.71.81-.4,1.1-.14s.51.58.71.89c.42.64.77,1.36.82,2.12.03.47-.1.97-.71,1-.43.02-.84-.14-1.21-.32-1.41-.7-2.54-2.04-3.32-3.31-.26-.42-.97-.04-.7.39h0Z"/><path class="cls-1" d="m74.38,37.15c4.53-2.56,6.88-7.51,5.75-12.37-.11-.48-.9-.28-.78.2,1.05,4.53-1.16,9.13-5.37,11.51-.45.25-.04.91.41.66h0Z"/><path class="cls-1" d="m53.3,18.93c.27,2.7.55,5.43,1.35,8.05s2.21,4.94,3.91,7.12c.78,1,1.68,1.84,2.79,2.52s2.36,1.31,3.61,1.61c1.03.25,2.21.14,2.93-.66.4-.45.54-1.03.91-1.51.46-.6,2.33-1.52,2.55-.23.08.48.87.28.78-.2-.16-.97-1.23-1.31-2.16-1.14-1.22.24-1.82,1.05-2.34,2.01-.92,1.7-2.74.98-4.17.33-1.32-.6-2.56-1.31-3.54-2.35s-1.86-2.36-2.64-3.59-1.35-2.51-1.78-3.86c-.84-2.63-1.12-5.38-1.4-8.1-.05-.48-.86-.49-.81,0h0Z"/><path class="cls-1" d="m59.78,35.43c.7,2.05.07,4.14-1.15,5.9-1.14,1.65-2.74,2.89-4.15,4.32-1.27,1.29-2.16,2.76-2.42,4.51s.01,3.43.58,5.04c1.13,3.17,3.55,5.83,7.29,6.15,3.38.29,6.53-1.82,7.31-4.9.49-1.93.38-5,2.88-5.73,1.16-.34,2.6.4,2.91,1.52.23.83-.64.7-1.14.38-.63-.4-.65-1.48.3-1.4.52.04.52-.72,0-.76-1.58-.12-2.05,1.8-.96,2.65.5.4,1.44.7,2.08.46.74-.28.65-1.21.41-1.79-.65-1.55-2.64-2.32-4.24-1.63-2.08.89-2.47,3.11-2.8,5-.39,2.19-1.35,3.99-3.59,4.95-2.11.9-4.56.56-6.44-.65s-3.02-3.43-3.56-5.55-.44-4.64.97-6.57,3.67-3.39,5.13-5.41,2.16-4.38,1.38-6.7c-.16-.47-.94-.27-.78.2h0Z"/><path class="cls-1" d="m72.91,38.06c1.85.48,1.12,2.64.63,3.82s-1.02,2.3-1.11,3.56.43,2.13,1.15,3.18c.56.82,1.33,4.15-.45,4.14-.52,0-.52.76,0,.76,1.68,0,1.93-1.8,1.88-3.02-.03-.76-.22-1.51-.65-2.16-.59-.9-1.14-1.55-1.12-2.66.02-1.85,1.27-3.4,1.62-5.18.26-1.32-.22-2.79-1.73-3.18-.51-.13-.72.6-.22.74h0Z"/><path class="cls-1" d="m60.11,36.91c.56,1.53.65,3.14.17,4.7-.4,1.28-1.11,2.45-1.58,3.71-.33.91-.79,2.35-.07,3.2.66.78,1.82.46,2.46-.16.74-.73,2.24-3.51,3.65-2.55.52.36,1.1,1.09,1.37,1.63.42.83-.22,1.57-.76,2.23-.87,1.05-2,1.91-3.27,2.51s-3.14,1.15-4.28-.03-1.58-3.06-1.23-4.64,1.33-3.09,1.83-4.69c.15-.47-.64-.67-.78-.2-.49,1.6-1.46,3.06-1.83,4.69-.32,1.4-.13,2.85.55,4.13.62,1.19,1.6,2.12,3.07,2.18s2.96-.62,4.14-1.36,2.25-1.75,3.02-2.91c.31-.47.65-1.01.53-1.59-.14-.68-.71-1.29-1.16-1.81-.39-.46-.81-.97-1.47-1.08s-1.28.23-1.78.59c-.56.41-1.07.9-1.49,1.44-.3.39-.55.91-1,1.17-.76.45-1.15-.22-1.13-.84.06-1.79,1.26-3.39,1.85-5.05.64-1.78.6-3.69-.05-5.46-.17-.46-.96-.26-.78.2h0Z"/><path class="cls-1" d="m67,54.42c-.4.29-.96.71-1.48.49-.41-.17-.64-.66-.87-1-.53-.82-1.06-1.66-1.36-2.58s-.4-1.86-.49-2.8c-.08-.88-.09-1.79.51-2.52.32-.39-.39-.77-.7-.39-.7.85-.72,1.96-.62,2.98.12,1.2.26,2.42.75,3.55.44,1.01,1.04,2.11,1.78,2.96.84.95,1.97.63,2.88-.03.41-.3,0-.96-.41-.66h0Z"/><path class="cls-1" d="m75.92,35.76c.8.73,1.64,1.49,2.17,2.42.63,1.13.62,2.39.37,3.61-.22,1.07-.58,2.12-.9,3.17s-.82,2.13-.85,3.21c-.03.87.39,1.65.86,2.37.58.9,1.49,1.99,1.08,3.11-.33.89-1.26,1.46-1.62,2.36-.32.81-.32,1.67-.05,2.5.15.47.94.27.78-.2-.4-1.22,0-2.25.83-3.2.6-.69,1.05-1.37.95-2.29s-.63-1.69-1.13-2.44c-.3-.46-.63-.93-.79-1.45-.22-.72-.02-1.36.19-2.06.65-2.12,1.65-4.38,1.63-6.61s-1.4-3.63-2.94-5.05c-.37-.34-.95.2-.58.54h0Z"/><path class="cls-1" d="m77.11,58.63c1.31,2.03,2.14,4.43,1.75,6.82-.17,1.08-.58,2.13-1.21,3.05s-1.55,1.48-2.27,2.3c-.56.65-.75,1.39-.42,2.18.28.67.83,1.59,1.61,1.83.92.28,1.69-.44,2.28-1,.63-.61,1.67-1.49,1.91-2.33s-.64-1.15-1.36-1.29c-1.03-.2-2.09-.04-3.04.36s-1.74,1.09-2.38,1.87c-.8.96-1.68,1.51-3.03,1.42-2.58-.18-4.29-2.53-5.67-4.32-.58-.75-1.09-1.77-1.92-2.32-.72-.48-1.67-.42-2.47-.15-1.84.62-3.04,2.74-1.68,4.33.69.81,1.81,1.11,2.83,1.36.69.17,1.41.3,2.09.51.48.15.96.37,1.09.87.12.47-.15.91-.56,1.16-.44.27-.03.93.41.66,1.29-.79,1.32-2.52-.11-3.21-1.57-.76-5.05-.48-5.48-2.56-.2-.99.45-1.88,1.39-2.3.53-.23,1.29-.42,1.85-.16.49.23.79.75,1.08,1.16,1.17,1.59,2.4,3.33,4.03,4.54,1.26.92,2.88,1.45,4.48,1.08,1.94-.45,2.58-2.44,4.33-3.23.51-.23,1.08-.37,1.65-.4.34-.01.68.01,1.01.08.43.09.73.06.5.58-.19.42-.66.82-.98,1.16-.36.38-.73.78-1.16,1.11-.84.64-1.36-.01-1.75-.67-.29-.5-.48-.97-.17-1.51.46-.81,1.46-1.35,2.07-2.06,2.86-3.32,2.18-7.87-.03-11.3-.27-.42-.97-.04-.7.39h0Z"/><path class="cls-1" d="m73.06,53.13c.04,1.29-.79,2.42-.86,3.7-.08,1.35.9,2.42,1.63,3.49.9,1.31,1.76,2.74,1.85,4.34.05.9-.21,1.74-.6,2.56-.3.62-.62,1.5-1.33,1.79-.48.2-.06.86.41.66.58-.24.89-.7,1.17-1.21.39-.71.78-1.44.99-2.22.41-1.49.04-3.03-.64-4.4-.37-.75-.84-1.45-1.31-2.13s-1.08-1.37-1.3-2.17c-.4-1.47.85-2.92.8-4.41-.02-.49-.83-.49-.81,0h0Z"/><path class="cls-1" d="m73.98,68.92c-.4.16-.66.52-.81.89-.08.2-.11.42-.14.63s-.06.44-.03.65c.11.85.94,1.49,1.85,1.41.22-.02.41-.16.41-.38,0-.19-.19-.4-.41-.38-.52.05-1.02-.25-1.05-.75-.01-.3.03-.62.13-.9.04-.11.1-.24.17-.32.08-.09.16-.14.29-.19.2-.08.25-.36.15-.52-.12-.2-.35-.22-.56-.14h0Z"/><path class="cls-1" d="m52.11,49.6c-1.75,1.07-3.06,2.72-3.54,4.64-.59,2.36.22,4.88,1.05,7.11.41,1.1.89,2.19,1.44,3.24.6,1.16,1.37,2.22,2.01,3.35.34.59.63,1.25.51,1.94s-.67,1.26-1.18,1.75c-.85.82-1.87,1.47-2.99,1.91-1.3.51-3.69,1.1-4.65-.27-.17-.25-.16-.27.03-.53.23-.33.35-.25.71-.15.43.11.86.28,1.27.45.71.3,1.38.66,2.03,1.07.44.27.84-.39.41-.66-1.13-.71-2.63-1.57-4.03-1.7-1.12-.1-1.73.78-1.23,1.73,1.29,2.42,5.24,1.19,7.07.15,1.09-.62,2.1-1.45,2.84-2.44.79-1.06.65-2.27.06-3.39-.74-1.4-1.69-2.67-2.4-4.09s-1.3-2.97-1.75-4.51c-.49-1.7-.84-3.46-.28-5.19.5-1.55,1.6-2.87,3.04-3.75.44-.27.03-.93-.41-.66h0Z"/><path class="cls-1" d="m48.69,74c.89.84,1.84,1.7,3.09,2.02.68.17,1.4.16,2.1.15.9-.02,1.72.09,2.6.23,1.55.23,3.13.2,4.69.23,1.39.03,2.71.14,3.89-.66.42-.28.02-.95-.41-.66-1.17.79-2.59.57-3.95.54-1.43-.03-2.88,0-4.3-.24-1.24-.21-2.43-.12-3.68-.21-1.46-.11-2.48-1.01-3.46-1.94-.37-.35-.95.19-.58.54h0Z"/><path class="cls-1" d="m52.64,54.37c-2.64,1.3-6.27,3.59-5.92,6.82.37,3.39,4.04,4.99,6.55,6.87.41.3.99-.23.58-.54-2.26-1.68-5.64-3.1-6.26-6.03s3.04-5.25,5.47-6.45c.46-.23.05-.89-.41-.66h0Z"/><path class="cls-1" d="m58.62,60.48c-1.34-.23-2.8-.44-4.16-.27-1.12.13-2.27.73-2.47,1.86-.09.49.04,1.03.45,1.38s1.02.36,1.38-.03c.73-.78-.07-2-.86-2.42-1.12-.6-2.6-.02-2.76,1.22-.07.49.75.48.81,0,.05-.4.5-.68.91-.71s.8.19,1.06.48c.12.14.53.79.22.95-.16.08-.33-.19-.37-.29-.07-.18-.06-.38,0-.56.29-.89,1.35-1.12,2.23-1.15,1.12-.03,2.26.1,3.36.29.51.09.73-.65.22-.74h0Z"/><path class="cls-1" d="m48.86,64.89c.34.69.19,1.54-.37,2.09-.3.29-.7.47-1.07.67-.43.23-.86.46-1.3.67-.78.39-1.81.9-2.71.57s-.89-1.54-.71-2.31.57-1.47,1.14-2.04c.28-.28,2.06-1.65,2.18-.65.05.42-.41.77-.7,1.02-.38.33-.78.64-1.2.92-.75.51-1.55.91-2.34,1.34-1.75.95-2.74,2.54-3.66,4.17-.24.43.46.82.7.39.57-1.02,1.16-2.06,2.01-2.9s2.05-1.3,3.1-1.94c.91-.56,2.04-1.24,2.63-2.11.53-.77.25-1.93-.87-1.98-1-.05-1.97.71-2.58,1.38-.67.74-1.12,1.64-1.26,2.6s-.02,2.11.92,2.67,2.07.28,3-.11c.68-.28,1.32-.64,1.98-.98.5-.26,1.03-.51,1.41-.93.75-.82.87-1.95.4-2.91-.22-.45-.92-.06-.7.39h0Z"/><path class="cls-2" d="m38.16,71.34c-1.55,2.85-2.86,5.75-3.55,8.9-.11.48.68.68.78.2.68-3.08,1.95-5.92,3.47-8.72.24-.44-.46-.82-.7-.39h0Z"/><path class="cls-2" d="m65.5,71.04c.66,2.63,1.27,5.26,1.59,7.95s.46,5.28.64,7.92c.03.49.85.49.81,0-.19-2.74-.33-5.49-.67-8.22s-.93-5.26-1.58-7.86c-.12-.48-.9-.28-.78.2h0Z"/><path class="cls-2" d="m46.11,31.92c.49.21,1.02.54,1.26,1.01.11.22.02.41-.26.39s-.49-.24-.62-.44c-.08-.11-.14-.24-.17-.37-.03-.14-.02-.16.1-.24.22-.15.57-.18.83-.19.62-.04,1.27-.08,1.88.03.46.08,1.1.24,1.4.61.17.21-.01.27-.24.25s-.46-.17-.59-.34c-.32-.42-.05-.93.36-1.2.48-.31,1.12-.37,1.68-.35.36.01.74.06,1.07.18.09.03.32.1.32.22,0,.14-.28.08-.38.05-.58-.16-1.05-.61-1.33-1.09-.25-.43-.95-.05-.7.39.42.73,1.33,1.54,2.29,1.51.45-.01.9-.31.94-.75.04-.47-.32-.83-.76-.99-.95-.37-2.22-.38-3.17,0-.86.35-1.55,1.23-1.19,2.12.31.76,1.33,1.32,2.15.88.41-.22.55-.64.37-1.04s-.58-.68-.99-.85c-1.02-.43-2.13-.46-3.24-.36-.48.04-1.01.14-1.37.46s-.31.79-.13,1.2c.37.83,1.71,1.65,2.44.66s-.74-2.04-1.55-2.38c-.47-.2-.89.46-.41.66h0Z"/><path class="cls-2" d="m38.92,71.65c.68-1.29,1.41-2.7,2.76-3.49.44-.26.04-.92-.41-.66-1.48.87-2.3,2.34-3.05,3.76-.1.18-.05.41.15.52.18.1.46.05.56-.14h0Z"/><path class="cls-1" d="m65.24,70.75c.14.17.28.33.42.5.04.04.07.08.1.13.02.02.02.02,0,0l.02.03s.03.04.05.06c.07.09.14.18.21.27.26.33.48.75.88.95.19.09.45.05.56-.14.1-.18.06-.42-.15-.52-.02,0-.04-.02-.05-.03,0,0-.08-.06-.03-.02s0,0-.02-.02c-.02-.02-.04-.03-.05-.05-.01-.01-.03-.03-.04-.04-.03-.03-.02,0,0,0-.03-.03-.06-.07-.08-.11-.12-.17-.25-.34-.38-.5-.28-.35-.57-.7-.87-1.04-.13-.16-.44-.14-.58,0-.16.17-.14.37,0,.54h0Z"/></g></g><g><path class="cls-2" d="m1.21,97.03l.7-.09c.02.44.1.74.25.9.15.16.36.24.62.24.2,0,.36-.04.51-.13.14-.09.24-.21.29-.36s.08-.39.08-.72v-3.95h.78v3.9c0,.48-.06.85-.18,1.11-.12.26-.31.46-.57.6-.26.14-.56.21-.91.21-.52,0-.91-.14-1.19-.43-.28-.29-.41-.72-.4-1.29Z"/><path class="cls-2" d="m13.73,92.92h.78v3.31c0,.58-.07,1.03-.2,1.37-.13.34-.38.61-.73.83-.35.21-.81.32-1.38.32s-1-.09-1.36-.28-.6-.45-.75-.8-.23-.83-.23-1.44v-3.31h.78v3.3c0,.5.05.86.14,1.1.1.24.26.42.49.54.23.13.52.19.85.19.57,0,.98-.13,1.23-.38s.37-.74.37-1.46v-3.3Z"/><path class="cls-2" d="m19.9,98.65v-5.73h.78v5.05h2.91v.68h-3.69Z"/><path class="cls-2" d="m28.77,98.65v-5.73h.78v5.73h-.78Z"/><path class="cls-2" d="m35.07,98.65v-5.73h4.27v.68h-3.49v1.75h3.27v.67h-3.27v1.95h3.62v.68h-4.4Z"/></g><g><path class="cls-2" d="m66.33,96.5v-.67h2.5s0,2.12,0,2.12c-.38.3-.78.52-1.19.67-.41.15-.83.22-1.26.22-.58,0-1.11-.12-1.58-.36s-.83-.59-1.07-1.04c-.24-.46-.36-.96-.36-1.53s.12-1.08.36-1.56c.24-.48.59-.84,1.04-1.08.45-.23.97-.35,1.56-.35.43,0,.81.07,1.16.2.34.13.62.32.81.56s.34.55.45.94l-.7.19c-.09-.29-.2-.52-.33-.69-.13-.17-.32-.3-.56-.4s-.52-.15-.81-.15c-.36,0-.67.05-.93.16s-.47.24-.63.42-.28.36-.37.57c-.15.35-.23.74-.23,1.15,0,.51.09.94.27,1.28s.44.6.79.77.71.25,1.1.25c.34,0,.67-.06.99-.19.32-.13.57-.26.73-.4v-1.07h-1.73Z"/><path class="cls-2" d="m74.12,98.75v-5.73h4.27v.68h-3.49v1.75h3.27v.67h-3.27v1.95h3.62v.68h-4.4Z"/><path class="cls-2" d="m83.33,97.12l.7-.09c.02.44.1.74.25.9.15.16.36.24.62.24.2,0,.36-.04.51-.13.14-.09.24-.21.29-.36s.08-.39.08-.72v-3.95h.78v3.9c0,.48-.06.85-.18,1.11-.12.26-.31.46-.57.6-.26.14-.56.21-.91.21-.52,0-.91-.14-1.19-.43-.28-.29-.41-.72-.4-1.29Z"/><path class="cls-2" d="m91.99,98.75v-5.73h4.27v.68h-3.49v1.75h3.27v.67h-3.27v1.95h3.62v.68h-4.4Z"/><path class="cls-2" d="m101.56,98.75v-5.73h.78v5.05h2.91v.68h-3.69Z"/></g><g><path class="cls-2" d="m57.26,86.56v.27c-.76.1-1.32.34-1.67.72-.15.16-.25.35-.31.59-.06.24-.09.59-.09,1.07v5.74c0,.94-.19,1.68-.58,2.2-.36.48-.83.85-1.43,1.11s-1.25.39-1.99.39c-.6,0-1.15-.09-1.65-.26-.5-.17-.89-.41-1.18-.72-.29-.3-.43-.64-.43-1,0-.34.12-.62.37-.84.25-.22.56-.33.95-.33.35,0,.65.09.89.26.24.18.36.4.36.67,0,.12-.02.27-.07.45l-.06.19c-.05.16-.08.29-.08.4,0,.23.09.41.27.54.18.13.41.2.69.2.19,0,.37-.04.55-.11.18-.08.33-.19.45-.33.12-.15.2-.31.25-.48.08-.31.12-.76.12-1.37v-6.71c0-.52-.04-.9-.13-1.14s-.25-.45-.49-.63c-.42-.32-1.06-.52-1.91-.62v-.27h7.13Zm-7.03,11.71c-.26-.15-.45-.28-.59-.39s-.23-.24-.28-.36-.08-.28-.08-.47c0-.16.02-.3.05-.43.03-.17.04-.27.04-.28,0-.12-.04-.22-.13-.3-.08-.08-.2-.11-.33-.11-.18,0-.32.07-.42.2s-.16.31-.16.53c0,.38.17.72.51,1.01s.8.49,1.38.61Zm1.62-11.38l.63.37c.29.16.45.29.5.38s.08.31.08.65v7.38c0,.54-.02.98-.07,1.31-.05.33-.14.58-.27.76-.13.18-.33.35-.58.5.77-.25,1.32-.64,1.62-1.16.31-.52.46-1.3.46-2.34v-6.3s0-.04,0-.05c0-.02,0-.05,0-.1v-.29c.01-.17.05-.3.12-.39s.22-.2.47-.35l.63-.37h-3.6Z"/><path class="cls-2" d="m55.43,91.96l.97,3.04h-.25c-.57-1.08-1.19-1.86-1.84-2.35-.65-.48-1.43-.72-2.33-.72-.66,0-1.28.14-1.88.41-.59.27-1.11.67-1.56,1.19-.83.95-1.24,2.15-1.24,3.6,0,1.11.21,2.11.64,3.01s1.02,1.6,1.77,2.11c.75.51,1.59.77,2.5.77.57,0,1.07-.09,1.52-.28.44-.19.76-.44.94-.76.17-.3.26-.78.26-1.45v-.29c0-.49-.04-.86-.11-1.11-.07-.25-.2-.46-.38-.63-.34-.32-.85-.51-1.51-.56v-.26h5.19v.26c-.45.1-.79.33-1.01.7-.16.28-.24.82-.24,1.61v1.53l.51.77c-.08,0-.17,0-.27,0-.43,0-.85.04-1.25.11-.4.07-.92.21-1.55.41-.61.2-1.13.33-1.56.4-.43.07-.89.1-1.37.1-1.83,0-3.27-.51-4.31-1.53-.57-.57-1.01-1.23-1.33-2-.32-.77-.48-1.55-.48-2.35s.16-1.62.49-2.36c.33-.75.78-1.4,1.36-1.96.58-.56,1.25-1,2.02-1.32s1.59-.48,2.45-.48c.49,0,1.08.05,1.76.16.1.01.22.03.36.05.14.03.4.07.79.14.2.04.37.06.5.06.02,0,.06,0,.12,0,.06,0,.12,0,.19,0,.04,0,.07,0,.1,0Zm-4.79,11.31c-.63-.22-1.14-.45-1.53-.69s-.77-.56-1.12-.94c-.48-.54-.84-1.17-1.1-1.88-.26-.71-.38-1.45-.38-2.23,0-.67.09-1.32.28-1.96s.46-1.2.81-1.69c.38-.54.97-1.09,1.78-1.67-.8.39-1.49.86-2.04,1.41-.56.55-.98,1.17-1.27,1.86-.28.69-.43,1.43-.43,2.22,0,.98.21,1.87.63,2.68.42.81,1.01,1.47,1.77,1.98.76.5,1.63.81,2.61.91Zm3.67-5.28l.5.37c.19.14.31.25.37.34.05.08.08.21.08.38,0,.06,0,.11,0,.15s0,.09,0,.13v1.42c0,.45-.05.8-.15,1.05-.1.25-.29.51-.57.79.53-.22,1.07-.36,1.61-.43v-2.83c0-.09,0-.18,0-.28,0-.17.03-.3.09-.39.06-.09.18-.2.36-.32l.5-.37h-2.8Z"/><path class="cls-2" d="m54.87,93.28c.8,0,.81-1.25,0-1.25s-.81,1.25,0,1.25h0Z"/></g></svg>