<?xml version="1.0" encoding="UTF-8"?><svg id="Layer_1" xmlns="http://www.w3.org/2000/svg" width="30" height="28.7" viewBox="0 0 30 28.7"><defs><style>.cls-1{fill:#d18229;}.cls-2{fill:none;stroke:#d18229;stroke-miterlimit:10;stroke-width:.5px;}</style></defs><g><g><ellipse class="cls-2" cx="14.85" cy="10.37" rx="3.66" ry="3.62"/><path class="cls-1" d="m6.79,13.19c-2.07-3.88-.15-8.98,3.76-10.96,1.88-.96,4.78-1.06,6.82-.61,1.88.42,3.47,1.69,4.55,3.23,1.16,1.66,1.87,3.67,1.73,5.7-.16,2.24-1.22,4.31-2.3,6.24-2.08,3.71-4.39,7.31-6.82,10.8h.82c-3.3-4.48-6.6-9.02-8.53-14.27-.21-.56-1.13-.32-.92.25,1.96,5.33,5.28,9.94,8.63,14.5.22.29.61.31.82,0,2.48-3.56,4.83-7.22,6.93-11.01,1.86-3.34,3.14-6.91,1.58-10.63-1.14-2.72-3.42-5.17-6.43-5.76-3.43-.68-7.19-.02-9.66,2.52-2.73,2.82-3.68,6.94-1.79,10.47.29.54,1.11.06.82-.47h0Z"/></g><path class="cls-1" d="m10.23,11.08c-.21-.37,0,.12-.08-.12-.04-.13-.07-.29-.12-.41-.12-.26,0,.43-.02-.12,0-.14,0-.29,0-.43,0-.23.06-.24,0-.02.05-.16.11-.36.14-.52.06-.31-.16.25,0,0,.09-.14.17-.3.25-.44.1-.18.14-.19,0-.02.11-.13.23-.26.35-.38.1-.1.21-.18.3-.28.18-.17-.27.15.1-.06.59-.34,1.25-.58,1.81-.97,1.06-.75,1.71-2.06,1.18-3.32-.49-1.15-1.59-1.73-2.83-1.66-2.06.11-3.39,1.51-4.52,3.06-.69.95-.24,2.38.61,3.03s2.32.68,3.12-.18c.44-.47.87-.95,1.37-1.37-.17.11-.14.09.1-.07.14-.09.27-.18.42-.25.14-.08.29-.15.44-.22-.19.08-.15.06.11-.04.3-.1.6-.19.91-.26.09-.02.75-.14.29-.07.59-.08,1.2-.08,1.79-.01-.52-.06.36.09.45.12s.89.34.46.14c.2.1.38.21.58.31.23.16.24.16.05,0,.11.09.21.18.32.28.1.1.2.2.29.3-.15-.21-.14-.2.02.02.05.09.45.83.25.36.11.25.18.52.23.79-.1-.54-.03.27-.03.4-.14,2.39,3.28,3.12,4.42,1.19.14-.22.24-.45.32-.7.07-.25.05-.21-.08.11l-.85.84.13-.08-1.83.24.14.03-1.42-1.08c-.07-.16-.08-.34-.12-.15-.03.14.01.35,0,.5,0,.21-.01.42-.04.62.04-.32-.04.14-.06.25-.17.79-.42,1.56-.67,2.33-.39,1.17.45,2.62,1.66,2.89,1.3.29,2.51-.39,2.92-1.64.55-1.66,1.08-3.44.91-5.2-.13-1.32-.54-2.78-2.06-3.08-.85-.17-1.83.03-2.45.69-.17.18-.33.4-.46.62.14-.24-.65,1.29-.16.45l4.42,1.19c.22-3.63-2.81-6.68-6.29-7.28-1.73-.3-3.53-.22-5.21.33-1.89.63-3.32,1.76-4.65,3.2,1.24.95,2.49,1.9,3.73,2.85.02-.03.46-.54.17-.23.15-.16.29-.33.46-.48-.32.3.18-.21.25-.13l-.15.08c-.31.05-.61-.01-.9-.2l-.85-.84.06.12-.32-1.19-.02.13.32-1.19c.63-.51.74-.63.32-.37l-.22.11c-.22.11-.45.21-.67.32-.51.26-.95.57-1.39.92-.74.58-1.39,1.34-1.83,2.17-1.08,2.05-1.1,4.46.05,6.48.61,1.07,2.18,1.52,3.25.84s1.5-2.07.85-3.22h0Z"/><path class="cls-1" d="m20.47,14.23c3.06,0,3.06-4.7,0-4.7s-3.06,4.7,0,4.7h0Z"/><path class="cls-1" d="m20.39,10.06c3.06,0,3.06-4.7,0-4.7s-3.06,4.7,0,4.7h0Z"/><path class="cls-1" d="m19.42,9.02c3.06,0,3.06-4.7,0-4.7s-3.06,4.7,0,4.7h0Z"/><path class="cls-1" d="m18.49,8.14c3.06,0,3.06-4.7,0-4.7s-3.06,4.7,0,4.7h0Z"/><path class="cls-1" d="m16.98,7.31c3.06,0,3.06-4.7,0-4.7s-3.06,4.7,0,4.7h0Z"/><path class="cls-1" d="m15.08,6.6c3.06,0,3.06-4.7,0-4.7s-3.06,4.7,0,4.7h0Z"/><path class="cls-1" d="m14.24,6.72c3.06,0,3.06-4.7,0-4.7s-3.06,4.7,0,4.7h0Z"/><path class="cls-1" d="m8.89,10.48c3.06,0,3.06-4.7,0-4.7s-3.06,4.7,0,4.7h0Z"/><path class="cls-1" d="m9.27,10.56c3.06,0,3.06-4.7,0-4.7s-3.06,4.7,0,4.7h0Z"/><path class="cls-1" d="m8.94,13.23c3.06,0,3.06-4.7,0-4.7s-3.06,4.7,0,4.7h0Z"/><path class="cls-1" d="m9.19,14.81c3.06,0,3.06-4.7,0-4.7s-3.06,4.7,0,4.7h0Z"/><path class="cls-1" d="m9.36,16.02c3.06,0,3.06-4.7,0-4.7s-3.06,4.7,0,4.7h0Z"/><path class="cls-1" d="m9.44,17.11c3.06,0,3.06-4.7,0-4.7s-3.06,4.7,0,4.7h0Z"/><path class="cls-1" d="m9.82,18.27c3.06,0,3.06-4.7,0-4.7s-3.06,4.7,0,4.7h0Z"/><path class="cls-1" d="m9.32,16.17c.66.89,1.42,1.56,2.46,2,.85.36,1.78.55,2.72.51,1.91-.09,3.64-.91,5.16-2.02.51-.38.92-.77,1.09-1.41.16-.56.09-1.31-.24-1.81s-.81-.94-1.42-1.08-1.33-.13-1.83.24c-.68.5-1.39.95-2.17,1.28l.57-.24c-.45.18-.9.31-1.38.38l.63-.08c-.41.05-.82.05-1.23,0l.63.08c-.34-.05-.66-.14-.98-.27l.57.24c-.25-.11-.48-.24-.7-.4l.48.37c-.21-.16-.4-.35-.57-.56l.37.48-.06-.08c-.38-.51-.78-.91-1.42-1.08-.57-.16-1.33-.09-1.83.24s-.95.81-1.09,1.41-.13,1.31.24,1.81h0Z"/><path class="cls-1" d="m11.88,19.59c-.01.08-.03.16-.06.24l.24-.56c-.06.14-.15.26-.24.38l.37-.48c-.07.09-.13.17-.21.25l.48-.37s-.04.03-.07.05l.57-.24s-.05.02-.08.03l.63-.08s-.06,0-.08,0l.63.08h-.04c.19.07.38.15.57.23-.04-.02-.07-.04-.11-.06l.48.37c-.06-.05-.1-.1-.15-.16l.37.48c-.34-.44-.69-.89-1.03-1.33-.31-.4-.62-.81-.83-1.28l.24.56c-.03-.08-.07-.17-.09-.25-.19-.58-.55-1.09-1.09-1.41-.27-.17-.57-.26-.88-.28-.32-.07-.63-.06-.95.04-.57.18-1.13.54-1.42,1.08s-.44,1.21-.24,1.81c.21.65.52,1.24.93,1.79.31.42.64.82.95,1.23.08.1.16.21.24.31.18.24.35.49.56.7.34.34.74.55,1.19.7.24.08.5.1.75.1l.63-.08s.05-.01.08-.03c.45-.14.9-.39,1.21-.75.18-.21.36-.44.52-.67.07-.09.13-.19.19-.3.1-.2.21-.44.28-.65.02-.06.04-.13.05-.19.1-.31.11-.63.04-.94-.01-.31-.11-.6-.28-.87-.15-.27-.35-.49-.61-.66-.23-.21-.5-.35-.81-.42-.61-.14-1.29-.11-1.83.24l-.48.37c-.29.29-.5.64-.61,1.04h0Z"/><path class="cls-1" d="m15.55,23.85c1.15-.31,2.04-1.09,2.86-1.9.71-.71,1.35-1.54,1.79-2.44.17-.27.27-.56.28-.87.07-.31.06-.63-.04-.94-.07-.31-.22-.57-.43-.8-.17-.26-.39-.46-.67-.61-.55-.29-1.22-.43-1.83-.24-.56.18-1.15.53-1.42,1.08-.22.44-.48.86-.79,1.25l.37-.48c-.45.56-.98,1.11-1.55,1.55l.48-.37c-.19.14-.38.26-.6.36l.57-.24c-.1.04-.2.08-.3.1-.57.15-1.12.57-1.42,1.08-.17.27-.27.56-.28.87-.07.31-.06.63.04.94.19.57.54,1.12,1.09,1.41s1.2.41,1.83.24h0Z"/><path class="cls-1" d="m20.92,18.21c.4-.8.86-1.57,1.4-2.29.17-.23.19-.64.12-.91s-.29-.57-.55-.7c-.28-.14-.61-.22-.91-.12l-.28.12c-.18.1-.32.25-.43.42-.53.72-1,1.49-1.4,2.29-.14.29-.21.59-.12.91.08.27.29.57.55.7.28.14.61.22.91.12.28-.09.58-.27.71-.54h0Z"/><path class="cls-1" d="m15.66,26.59c.29-.6.7-1.14,1.11-1.67.44-.56.87-1.13,1.31-1.69.11-.14.16-.42.16-.59,0-.26-.1-.51-.25-.71-.27-.34-.81-.59-1.25-.42-.71.28-1.35.66-1.96,1.11-.67.5-1.29,1.1-1.48,1.94l1.98-.52c-.14-.15-.27-.3-.4-.45-.04-.04-.36-.47-.38-.47.11.14.12.16.05.06-.03-.04-.06-.08-.09-.12-.06-.08-.12-.16-.18-.24-.12-.16-.23-.33-.34-.5-.33-.52-1.07-.78-1.62-.42-.52.33-.78,1.05-.43,1.61.5.78,1.08,1.52,1.71,2.19.6.63,1.79.33,1.98-.52.01-.06.03-.12.05-.18.06-.21-.13.23-.02.06.03-.05.06-.1.1-.16.11-.19-.18.19-.03.04.09-.09.17-.18.27-.27.05-.04.1-.08.15-.12.17-.15-.24.17-.01,0s.46-.32.7-.47c.12-.08.25-.15.38-.22.06-.03.13-.07.2-.1.27-.13-.2.08.02,0l-1.34-1.73c-.44.56-.87,1.12-1.31,1.69-.41.53-.81,1.07-1.11,1.67-.14.29-.21.59-.12.91.08.27.29.57.55.7.53.28,1.34.17,1.62-.42h0Z"/></g><path class="cls-1" d="m19.19,10.53c.8,0,.81-1.25,0-1.25s-.81,1.25,0,1.25h0Z"/><path class="cls-1" d="m11.32,8.49c.8,0,.81-1.25,0-1.25s-.81,1.25,0,1.25h0Z"/><path class="cls-1" d="m11.4,13.26c.8,0,.81-1.25,0-1.25s-.81,1.25,0,1.25h0Z"/></svg>