<?xml version="1.0" encoding="UTF-8"?><svg id="Layer_1" xmlns="http://www.w3.org/2000/svg" width="11" height="15" viewBox="0 0 11 15"><defs><style>.cls-1{fill:#d18229;}.cls-2{fill:none;stroke:#d18229;stroke-miterlimit:10;stroke-width:.5px;}</style></defs><g><ellipse class="cls-2" cx="5.58" cy="5.47" rx="1.87" ry="1.86"/><path class="cls-1" d="m1.44,6.91c-1.06-1.99-.07-4.6,1.92-5.62.96-.49,2.45-.54,3.49-.31.96.21,1.78.86,2.33,1.66.59.85.96,1.88.88,2.92-.08,1.15-.63,2.21-1.18,3.2-1.07,1.9-2.25,3.75-3.5,5.54h.42c-1.69-2.3-3.39-4.62-4.37-7.31-.11-.29-.58-.16-.47.13,1.01,2.73,2.71,5.1,4.42,7.43.11.15.31.16.42,0,1.27-1.82,2.48-3.7,3.55-5.64.95-1.71,1.61-3.54.81-5.45-.58-1.39-1.75-2.65-3.3-2.95-1.76-.35-3.69,0-4.95,1.29C.54,3.23.06,5.35,1.02,7.16c.15.27.57.03.42-.24h0Z"/></g><path class="cls-1" d="m3.21,5.83c-.11-.19,0,.06-.04-.06-.02-.07-.03-.15-.06-.21-.06-.13,0,.22-.01-.06,0-.07,0-.15,0-.22,0-.12.03-.12,0,0,.02-.08.06-.18.07-.27.03-.16-.08.13,0,0,.05-.07.09-.15.13-.23.05-.09.07-.1,0,0,.06-.07.12-.13.18-.19.05-.05.11-.09.16-.14.09-.09-.14.08.05-.03.3-.17.64-.3.93-.5.55-.39.88-1.05.6-1.7-.25-.59-.82-.88-1.45-.85-1.05.05-1.74.77-2.32,1.57-.36.49-.13,1.22.31,1.56s1.19.35,1.6-.09c.22-.24.45-.49.7-.7-.09.06-.07.05.05-.04.07-.05.14-.09.21-.13.07-.04.15-.08.22-.11-.1.04-.08.03.06-.02.15-.05.31-.1.47-.13.05-.01.38-.07.15-.04.3-.04.62-.04.92,0-.27-.03.18.05.23.06s.45.17.24.07c.1.05.2.11.3.16.12.08.13.08.03,0,.06.04.11.09.16.14.05.05.1.1.15.16-.08-.11-.07-.1,0,.01.03.04.23.43.13.18.05.13.09.27.12.41-.05-.28-.01.14-.02.21-.07,1.22,1.68,1.6,2.27.61.07-.11.12-.23.16-.36.04-.13.02-.11-.04.06l-.44.43.07-.04-.94.12.07.02-.73-.55c-.04-.08-.04-.17-.06-.08-.02.07,0,.18,0,.26,0,.11,0,.21-.02.32.02-.16-.02.07-.03.13-.08.41-.21.8-.34,1.19-.2.6.23,1.34.85,1.48.67.15,1.29-.2,1.5-.84.28-.85.56-1.76.47-2.66-.07-.68-.27-1.42-1.06-1.58-.44-.09-.94.01-1.25.35-.09.09-.17.21-.24.32.07-.12-.33.66-.08.23l2.27.61c.11-1.86-1.44-3.42-3.22-3.73-.89-.15-1.81-.11-2.67.17-.97.32-1.7.9-2.38,1.64l1.91,1.46s.24-.28.09-.12c.08-.08.15-.17.23-.25-.17.16.09-.11.13-.07l-.08.04c-.16.03-.31,0-.46-.1l-.44-.43.03.06-.17-.61v.07c.05-.2.1-.41.16-.61.32-.26.38-.32.16-.19l-.11.06c-.11.06-.23.11-.34.16-.26.13-.49.29-.71.47-.38.3-.71.69-.94,1.11-.56,1.05-.56,2.28.03,3.32.31.55,1.12.78,1.67.43s.77-1.06.44-1.65h0Z"/><path class="cls-1" d="m8.46,7.45c1.57,0,1.57-2.41,0-2.41s-1.57,2.41,0,2.41h0Z"/><path class="cls-1" d="m8.41,5.31c1.57,0,1.57-2.41,0-2.41s-1.57,2.41,0,2.41h0Z"/><path class="cls-1" d="m7.92,4.77c1.57,0,1.57-2.41,0-2.41s-1.57,2.41,0,2.41h0Z"/><path class="cls-1" d="m7.44,4.33c1.57,0,1.57-2.41,0-2.41s-1.57,2.41,0,2.41h0Z"/><path class="cls-1" d="m6.67,3.9c1.57,0,1.57-2.41,0-2.41s-1.57,2.41,0,2.41h0Z"/><path class="cls-1" d="m5.7,3.54c1.57,0,1.57-2.41,0-2.41s-1.57,2.41,0,2.41h0Z"/><path class="cls-1" d="m5.26,3.6c1.57,0,1.57-2.41,0-2.41s-1.57,2.41,0,2.41h0Z"/><path class="cls-1" d="m2.52,5.52c1.57,0,1.57-2.41,0-2.41s-1.57,2.41,0,2.41h0Z"/><path class="cls-1" d="m2.72,5.57c1.57,0,1.57-2.41,0-2.41s-1.57,2.41,0,2.41h0Z"/><path class="cls-1" d="m2.55,6.93c1.57,0,1.57-2.41,0-2.41s-1.57,2.41,0,2.41h0Z"/><path class="cls-1" d="m2.68,7.75c1.57,0,1.57-2.41,0-2.41s-1.57,2.41,0,2.41h0Z"/><path class="cls-1" d="m2.76,8.37c1.57,0,1.57-2.41,0-2.41s-1.57,2.41,0,2.41h0Z"/><path class="cls-1" d="m2.81,8.92c1.57,0,1.57-2.41,0-2.41s-1.57,2.41,0,2.41h0Z"/><path class="cls-1" d="m3,9.52c1.57,0,1.57-2.41,0-2.41s-1.57,2.41,0,2.41h0Z"/><path class="cls-1" d="m2.74,8.44c.34.46.73.8,1.26,1.02.44.18.91.28,1.39.26.98-.04,1.87-.47,2.64-1.03.26-.19.47-.4.56-.72.08-.29.04-.67-.12-.93s-.42-.48-.73-.55-.68-.07-.94.12c-.35.25-.71.49-1.11.65l.29-.12c-.23.09-.46.16-.71.2l.32-.04c-.21.03-.42.03-.63,0l.32.04c-.17-.03-.34-.07-.5-.14l.29.12c-.13-.06-.24-.12-.36-.2l.25.19c-.11-.08-.21-.18-.29-.29l.19.24-.03-.04c-.19-.26-.4-.47-.73-.55-.29-.08-.68-.04-.94.12s-.49.41-.56.72-.07.67.12.93h0Z"/><path class="cls-1" d="m4.06,10.2s-.02.08-.03.12l.12-.29c-.03.07-.07.13-.12.2l.19-.24s-.07.09-.11.13l.25-.19s-.02.02-.04.02l.29-.12s-.03.01-.04.01l.32-.04s-.03,0-.04,0l.32.04h-.02c.1.03.19.08.29.12-.02,0-.04-.02-.06-.03l.25.19s-.05-.05-.08-.08l.19.24c-.18-.23-.35-.46-.53-.68-.16-.21-.32-.41-.42-.65l.12.29s-.03-.09-.05-.13c-.1-.3-.28-.56-.56-.72-.14-.09-.29-.14-.45-.14-.16-.04-.32-.03-.49.02-.29.09-.58.28-.73.55s-.22.62-.12.93c.11.33.27.64.47.92.16.21.33.42.49.63.04.05.08.11.12.16.09.12.18.25.29.36.17.17.38.28.61.36.12.04.26.05.39.05l.32-.04s.03,0,.04-.01c.23-.07.46-.2.62-.38.09-.11.18-.23.27-.34.04-.05.07-.1.1-.15.05-.1.11-.22.14-.33.01-.03.02-.06.02-.1.05-.16.06-.32.02-.48,0-.16-.06-.31-.14-.45-.08-.14-.18-.25-.31-.34-.12-.11-.26-.18-.41-.22-.31-.07-.66-.06-.94.12l-.25.19c-.15.15-.26.33-.31.53h0Z"/><path class="cls-1" d="m5.94,12.38c.59-.16,1.05-.56,1.47-.98.36-.36.69-.79.92-1.25.09-.14.14-.29.14-.45.04-.16.03-.32-.02-.48-.04-.16-.11-.29-.22-.41-.09-.13-.2-.23-.34-.31-.28-.15-.62-.22-.94-.12-.29.09-.59.27-.73.55-.11.23-.25.44-.4.64l.19-.24c-.23.29-.5.57-.79.79l.25-.19c-.1.07-.2.13-.31.18l.29-.12c-.05.02-.1.04-.16.05-.29.08-.57.29-.73.55-.09.14-.14.29-.14.45-.04.16-.03.32.02.48.1.29.28.57.56.72s.61.21.94.12h0Z"/><path class="cls-1" d="m8.69,9.49c.2-.41.44-.81.72-1.17.09-.12.1-.33.06-.46s-.15-.29-.28-.36c-.14-.07-.31-.11-.47-.06l-.15.06c-.09.05-.16.13-.22.22-.27.37-.51.76-.72,1.17-.07.15-.11.3-.06.46.04.14.15.29.28.36.14.07.31.11.47.06.14-.05.29-.14.36-.28h0Z"/><path class="cls-1" d="m5.99,13.78c.15-.31.36-.58.57-.86.22-.29.45-.58.67-.86.06-.07.08-.21.08-.3,0-.13-.05-.26-.13-.37-.14-.17-.42-.3-.64-.22-.37.14-.69.34-1,.57-.34.26-.66.56-.76.99l1.02-.27c-.07-.08-.14-.15-.21-.23-.02-.02-.18-.24-.2-.24.06.07.06.08.02.03-.02-.02-.03-.04-.05-.06-.03-.04-.06-.08-.09-.13-.06-.08-.12-.17-.17-.26-.17-.27-.55-.4-.83-.22-.27.17-.4.54-.22.82.26.4.55.78.88,1.12.31.32.92.17,1.02-.27,0-.03.02-.06.03-.09.03-.11-.07.12-.01.03.02-.03.03-.05.05-.08.06-.1-.09.1-.02.02.05-.05.09-.09.14-.14.02-.02.05-.04.08-.06.09-.07-.12.09,0,0s.24-.17.36-.24c.06-.04.13-.08.19-.11.03-.02.07-.03.1-.05.14-.07-.1.04,0,0l-.69-.89c-.22.29-.45.58-.67.86-.21.27-.42.55-.57.86-.07.15-.11.3-.06.46.04.14.15.29.28.36.27.14.69.09.83-.22h0Z"/></svg>