<?xml version="1.0" encoding="UTF-8"?><svg id="Layer_1" xmlns="http://www.w3.org/2000/svg" width="19.88" height="15" viewBox="0 0 19.88 15"><defs><style>.cls-1{fill:#d18229;}.cls-2{fill:none;stroke:#d18229;stroke-miterlimit:10;stroke-width:.5px;}</style></defs><rect class="cls-2" x="1.92" y="1.54" width="16.05" height="11.56" rx="1.11" ry="1.11"/><path class="cls-1" d="m2.27,2.04c1.35,1.41,2.72,2.8,4.1,4.17.68.67,1.36,1.33,2.04,1.99.37.35.73.78,1.13,1.08.12.09.22.18.38.19.51,0,1.26-.85,1.6-1.16.66-.59,1.28-1.22,1.88-1.86,1.37-1.45,2.72-2.91,4.09-4.36.22-.23-.13-.59-.35-.35-1.18,1.26-2.36,2.52-3.54,3.78-.54.58-1.09,1.16-1.66,1.72-.32.31-.64.61-.97.9-.18.16-.84.82-1.03.79-.26-.04-.68-.6-.87-.78-.31-.3-.62-.59-.92-.89-.61-.6-1.23-1.2-1.83-1.8-1.25-1.24-2.48-2.5-3.7-3.77-.22-.23-.58.12-.35.35h0Z"/><path class="cls-1" d="m3.01,13.04c1.77-1.68,3.5-3.41,5.2-5.17.22-.23-.13-.59-.35-.35-1.69,1.76-3.43,3.49-5.2,5.17-.23.22.12.58.35.35h0Z"/><path class="cls-1" d="m12.06,7.76c1.65,1.8,3.35,3.56,5.08,5.28.23.23.58-.13.35-.35-1.73-1.72-3.43-3.48-5.08-5.28-.22-.24-.57.12-.35.35h0Z"/></svg>