<?xml version="1.0" encoding="UTF-8"?><svg id="Layer_1" xmlns="http://www.w3.org/2000/svg" width="25" height="20" viewBox="0 0 25 20"><defs><style>.cls-1{fill:#d18229;}.cls-2{fill:none;stroke:#d18229;stroke-miterlimit:10;stroke-width:.5px;}</style></defs><rect class="cls-2" x=".76" y="1.44" width="23.62" height="17.02" rx="1.11" ry="1.11"/><path class="cls-1" d="m1.35,2.1c1.99,2.07,4,4.12,6.04,6.13,1,.98,2,1.96,3.01,2.93.53.51,1.07,1.17,1.67,1.6.15.11.27.23.47.24.69.04,1.82-1.27,2.27-1.67.97-.87,1.88-1.8,2.77-2.74,2.02-2.13,4.01-4.28,6.01-6.42.22-.23-.13-.59-.35-.35-1.74,1.86-3.47,3.71-5.21,5.57-.8.85-1.6,1.71-2.44,2.53-.46.45-.94.9-1.43,1.33-.33.29-1.24,1.23-1.6,1.17-.44-.07-1.03-.85-1.35-1.16-.45-.44-.91-.87-1.36-1.31-.9-.88-1.8-1.76-2.7-2.65-1.84-1.83-3.65-3.67-5.45-5.54-.22-.23-.58.12-.35.35h0Z"/><path class="cls-1" d="m2.29,18.29c2.61-2.48,5.16-5.01,7.65-7.61.22-.23-.13-.59-.35-.35-2.49,2.59-5.04,5.13-7.65,7.61-.23.22.12.58.35.35h0Z"/><path class="cls-1" d="m15.76,10.52c2.43,2.65,4.93,5.24,7.48,7.78.23.23.58-.13.35-.35-2.55-2.53-5.05-5.13-7.48-7.78-.22-.24-.57.12-.35.35h0Z"/></svg>