<?xml version="1.0" encoding="UTF-8"?><svg id="Layer_1" xmlns="http://www.w3.org/2000/svg" width="315" height="88" viewBox="0 0 315 88"><defs><style>.cls-1{fill:#d18229;}</style></defs><path class="cls-1" d="m5.47,39.26c-1.39-1.16.98-2.42,1.82-2.95.75-.46,1.58-.95,2.21-1.58.95-.95,1.1-2.28.93-3.57-.14-1.04-.61-2.18-1.78-2.32s-2.06.75-2.14,1.86c-.21,2.9,4.22,4.1,6.36,3.29,1.52-.58,2.71-1.81,3.82-2.94,1.27-1.29,2.36-2.65,3.12-4.31,1.83-4.03,1.59-8.54.47-12.72-.08-.31-.57-.18-.48.13,1.02,3.81,1.32,7.88-.12,11.62-.73,1.91-1.91,3.47-3.34,4.92-1.21,1.23-2.56,2.68-4.33,3.03-1.12.22-2.27-.08-3.25-.63s-2.36-1.81-1.53-3.1,2.29-.43,2.59.6c.12.41.16.87.17,1.3.03,1.09-.25,1.98-1.1,2.71-.99.85-6.15,3.01-3.77,5,.25.2.6-.15.35-.35h0Z"/><path class="cls-1" d="m20.26,14.11c-.14-1.3-.59-2.4-1.4-3.42-.15-.19-.41-.01-.43.18-.22,2.4-.09,4.78.18,7.17.2,1.78.29,3.72.96,5.4s2.06,3.15,3.27,4.56c1.53,1.79,3.08,3.57,4.63,5.35.11.12.31.08.39-.05.33-.54.38-.95.18-1.55l-.17.31c3.29-.56,5.99-4.1,4.66-7.42-.79-1.96-2.6-3.63-4.01-5.15-1.7-1.83-3.5-3.57-5.39-5.21-.89-.77-1.79-1.52-2.72-2.25-.25-.2-1.7-1.18-.88-1.6.75-.39,1.91.34,2.52.76,2.07,1.45,3.97,3.2,5.77,4.97s3.39,3.53,4.95,5.4c.8.96,1.66,1.93,2.35,2.98.52.8.82,1.67.37,2.57-.3.59-.82,1-1.29,1.45-2.03,1.92-4.14,3.79-6.66,5.03-.61.3-1.17.52-1.04,1.31.14.89,1.14,1.7,1.76,2.24.24.21.6-.14.35-.35-.35-.31-.87-.68-1.1-1.09-.86-1.55.31-1.65,1.2-2.16,1-.56,1.93-1.23,2.82-1.95.94-.75,1.83-1.56,2.7-2.38.61-.58,1.44-1.17,1.8-1.96.82-1.81-.9-3.55-1.93-4.83-1.58-1.96-3.23-3.86-5-5.67s-3.62-3.5-5.59-5.06c-1.11-.88-3.13-2.62-4.65-1.52-1.36.98,1.67,2.59,2.22,3.04,1.94,1.58,3.79,3.26,5.55,5.04.98.99,1.94,2.01,2.86,3.06,1,1.14,2.26,2.37,2.7,3.87.87,3.01-1.59,5.89-4.46,6.38-.13.02-.21.19-.17.31l-.13,1.17.39-.05c-1.35-1.54-2.69-3.08-4.02-4.63s-2.82-2.98-3.64-4.79c-.89-1.96-.95-4.38-1.16-6.49s-.27-4.14-.08-6.22l-.43.18c.72.91,1.12,1.92,1.25,3.07.04.32.54.32.5,0h0Z"/><path class="cls-1" d="m28.46,37.15c1.04.73,3.15,1.44,4.19.34.94-1-.25-2.55-1.37-2.7-1.54-.2-2.22,1.37-2.02,2.67.13.82.65,1.43,1.17,2.05.65.78,1.3,1.56,1.95,2.34,1.49,1.81,2.98,3.62,4.45,5.44.2.25.55-.11.35-.35-2.18-2.7-4.4-5.37-6.61-8.04-.61-.73-1-1.52-.79-2.5s1.28-1.49,2.12-.8c.36.3.76.91.5,1.4-.23.45-.84.52-1.29.52-.88,0-1.69-.3-2.4-.8-.26-.19-.51.25-.25.43h0Z"/><path class="cls-1" d="m36.85,47.21c1.06,1.62,2.28,3.09,3.68,4.43.1.1.25.09.35,0,.51-.48-.08-1.16.81-1.44.39-.13.97-.07,1.39-.14.56-.1,1.12-.25,1.65-.44,1.79-.64,3.42-1.77,4.59-3.28,1.32-1.69.68-3.21-.58-4.76-1.73-2.14-3.71-4.12-5.57-6.15-.88-.97-1.76-1.93-2.64-2.9-1.06-1.16-2.28-2.09-2.3-3.75-.01-1.31.17-2.62.12-3.93-.02-.54-.19-1.28-.88-1.28-1.77,0,.47,2.61.72,2.93,1.55,2.02,3.21,3.96,4.94,5.84,2.02,2.21,4.13,4.34,6.23,6.46.68.69,2.98,3.95,4.01,2.22h-.43c.44.96-1.08,1.7-.97,2.69.08.68.76,1.35,1.12,1.87.34.49.81,1.04.94,1.62.23,1-.46,1.74-1.01,2.42-.59.73-1.24,1.41-1.93,2.05-1.56,1.45-3.36,2.64-5.29,3.53-.46.21-.94.48-1.43.59-.99.23-1.4.03-2.1-.66-.95-.94-1.81-2.02-1.82-3.42h-.5l.04.35c.03.25.44.37.49.07.04-.26.09-.53.13-.79.04-.26-.32-.46-.46-.19-.66,1.27.82,1.9,1.86,1.61,2.15-.59,4.29-2.08,6.06-3.41s3.42-2.93,4.83-4.68c.87-1.09,2.16-2.83.57-3.92-.2-.14-.48.14-.34.34.68.97,1.44,1.86,2.3,2.67.23.22.59-.13.35-.35-.83-.79-1.56-1.63-2.22-2.57l-.34.34c2.06,1.4-3.35,6.07-4.49,7.02-1.02.85-2.11,1.62-3.25,2.3-.52.31-1.05.61-1.59.89-.24.12-.48.24-.73.36-.24.11-.48.22-.72.32-.65.38-1.26.16-1.85-.67l-.46-.19c-.04.26-.09.53-.13.79l.49.07-.04-.35c-.03-.31-.5-.33-.5,0,.01,1.13.48,2.04,1.18,2.9.6.74,1.46,1.89,2.53,1.86s2.38-.81,3.3-1.29c1.21-.63,2.35-1.39,3.42-2.24s2.11-1.88,3-2.97c.6-.73,1.31-1.54,1.21-2.55-.14-1.46-2.47-2.86-1.98-4.33.31-.92,1.27-1.25.77-2.34-.08-.18-.34-.15-.43,0-.49.83-2.11-1.21-2.45-1.55-.74-.75-1.49-1.5-2.23-2.25-1.45-1.48-2.9-2.96-4.31-4.48s-2.78-3.07-4.08-4.67c-.68-.83-1.59-1.72-2.07-2.67-.17-.33-.3-.2-.1-.41.25-.28.15.23.17.28.16.45-.04,1.41-.06,1.88-.04,1.34-.35,2.82.53,3.95,1.32,1.67,2.9,3.19,4.34,4.76s2.98,3.26,4.46,4.89c.69.75,1.42,1.5,1.94,2.38.4.69.67,1.32.43,2.09-.22.71-.68,1.25-1.19,1.78-1.51,1.56-3.54,2.59-5.7,2.87-.52.07-1.46-.08-1.9.28-.5.42.14,1.09-.18,1.38h.35c-1.37-1.31-2.56-2.75-3.6-4.33-.18-.27-.61-.02-.43.25h0Z"/><path class="cls-1" d="m55.57,43.77c.38.59,1.5,1.67,2.11.65.36-.6-.25-1.12-.82-1-.12.03-.17.13-.18.24-.63,4.81-3.42,8.64-7.39,11.31-1.75,1.18-3.7,1.97-5.48,3.09-.34.12-.61.33-.8.65l.31.29c.22.42.89.86,1.23,1.2.76.76,1.51,1.54,2.24,2.32,5.81,6.25,10.86,13.23,17.47,18.69.2.17.57-.05.39-.3-1.67-2.37-1.88-5.36-1.81-8.18s.6-5.77,2.14-8.2c.89-1.39,2.58-3.28,4.45-2.64,1.36.46,1.85,2.06,2.13,3.32.32,1.43.64,3.03.33,4.49-.39,1.82-1.9,2.66-3.34,3.6-1.92,1.26-3.59,2.97-4.5,5.11-.52,1.24-.68,3.87,1.44,3.42,1.03-.22,2.06-1.03,2.97-1.55,1.21-.7,2.4-1.43,3.54-2.24,1.95-1.39,3.75-3.03,5.05-5.06.54-.84,1.03-1.79.95-2.82-.09-1.12-.84-2.03-1.5-2.87-2.01-2.59-4.02-5.16-6.03-7.75s-4.12-5.29-6.18-7.94c-.88-1.13-1.74-2.26-2.63-3.38-.66-.83-1.61-2.37-2.65-2.76-1.9-.71-1.22,2.79-.91,3.56,1.03,2.59,2.89,5.05,4.48,7.33,3.04,4.37,6.61,8.92,11.02,11.99,1.9,1.32,4.31,2.17,6.49.99,1.33-.72,3.19-3.36,1.33-4.6-1.24-.83-2.71.73-2.24,2,.9,2.41,3.8,1.11,4.92-.26.2-.25-.15-.6-.35-.35-.38.46-.79.91-1.33,1.18-.68.35-2.34.49-2.67-.53l.07-.68c-.12-1.07.46-1.17,1.74-.29.11.24.05.65.01.9-.1.68-.49,1.26-.99,1.7-2.03,1.77-4.76.88-6.73-.49-3.86-2.7-7.08-6.64-9.84-10.41-1.35-1.85-2.62-3.77-3.82-5.73-.59-.96-1.22-1.92-1.63-2.98-.18-.45-.6-1.44-.39-1.93.66-1.55,1.93.27,2.33.73,3.28,3.81,6.23,7.95,9.31,11.91,1.61,2.07,3.22,4.13,4.82,6.2.78,1,1.71,1.98,2.34,3.08.89,1.55.35,2.91-.58,4.27-1.31,1.92-3.08,3.47-4.97,4.78-.82.57-1.67,1.1-2.52,1.61s-1.97,1.43-2.93,1.66c-.19.04-1.77-.76-1.85-1.05-.08-.25.16-.83.27-1.13.2-.58.5-1.14.83-1.66.6-.96,1.38-1.82,2.24-2.55,1.47-1.24,3.57-1.97,4.51-3.74.86-1.61.54-3.58.21-5.28-.26-1.35-.63-2.93-1.76-3.83-1.49-1.18-3.39-.38-4.6.8-1.52,1.48-2.43,3.6-2.93,5.63-.97,3.98-1.12,9.36,1.34,12.85l.39-.3c-4.55-3.76-8.38-8.24-12.2-12.71-1.87-2.18-3.74-4.37-5.71-6.46-1.03-1.09-2.08-2.19-3.19-3.2-.59-.53-1.17-.97-1.95-.61-.1.05-.14.18-.11.28.43,1.7,2.47.38,3.35-.07,2.11-1.08,4.2-2.22,6.08-3.68,1.63-1.26,3.07-2.76,4.14-4.53.56-.92,1.02-1.89,1.37-2.9.21-.59.38-1.2.52-1.82.05-.25.17-.57.16-.83.01-.08.03-.16.04-.24.07-.43-.3-.63-1.12-.6-.17-.27-.61-.02-.43.25h0Z"/><path class="cls-1" d="m84.23,64.93c.32,0,.32-.5,0-.5s-.32.5,0,.5h0Z"/><path class="cls-1" d="m84.12,66.37c1.18-1.63.39-3.65-1.08-4.78-2.09-1.6-4.88-1.76-6.9-3.54-4.24-3.73-4.61-10.28-4.23-15.53.22-2.97,1.39-5.72,4.45-6.64,2.89-.87,5.88.24,8.48,1.49,4.92,2.37,9.86,5.48,15.53,5.36,2.37-.05,4.86-.6,6.32-2.61.89-1.22,1.29-3.69,2.99-4.04,1.56-.32,3.4-.15,5-.22.32-.01.32-.51,0-.5-1.51.07-3.03.13-4.54.2-.98.05-1.74.08-2.25,1.02-.56,1.03-.84,2.17-1.52,3.15-1.02,1.47-2.53,2.08-4.24,2.36-6.51,1.06-12.19-2.96-17.82-5.51-3.95-1.78-9.77-2.61-12.01,2.14-1,2.11-.96,4.59-.93,6.87.04,2.74.27,5.54,1.27,8.12.87,2.25,2.33,4.34,4.4,5.64,1.4.88,3.04,1.21,4.52,1.94,1.77.87,3.61,2.85,2.16,4.85-.19.26.24.51.43.25h0Z"/><path class="cls-1" d="m114.84,35.84l3.73-.1c1.14-.03,2.31,0,3.44-.11,1.83-.19,2.3-1.89,2.53-3.47.07-.49.13-.98.16-1.47.03-.35.13-.84-.09-1.16-.44-.65-1.69-.23-2.29-.16-2.36.28-4.74.53-7.12.57-1.32.02-2.7.02-4-.2-.23-.04-.72-.11-.86-.34s-.06-.71.06-.91.32-.33.51-.45c.64-.42,1.45-.62,2.2-.71.32-.03.32-.53,0-.5-1.05.11-4.04.88-3.35,2.56.25.61.94.78,1.53.86,1.16.16,2.34.2,3.51.19,2.38-.01,4.75-.26,7.12-.52.53-.06,1.15-.24,1.68-.2.93.07.62,1.17.54,1.82-.12,1-.23,2.32-.97,3.08-.54.55-1.28.53-2,.55-.67.02-1.34.04-2.01.06l-4.31.12c-.32,0-.32.51,0,.5h0Z"/><path class="cls-1" d="m113.19,27.29c.49-.03.99-.06,1.48-.02.26.02.53.07.78.14l.46.19c.51.16.55.41.12.75-.36.57-.34.46-.95.46-.24,0-.47,0-.71,0-.59,0-1.18,0-1.77,0-1.41,0-3.07.05-3.57,1.63-.39,1.24-.41,2.95.97,3.56.68.3,1.47.26,2.19.24,1.2-.02,2.4,0,3.6.05,1.98.09,4.05.24,5.95-.44.52-.19.96-.33,1.11-.89.26-.95.09-2.24-.06-3.19-.26-1.64-1.49-1.74-2.92-1.64-.39.03-.84.07-1.22-.08-.97-.39-1.27-2.01-.21-2.53s2.51-.36,3.62-.35c.51,0,1.05-.02,1.55.12,1.01.28.83,1.08.88,1.86.03.53.25,1.16.84,1.29,1.96.43.93-4.49,3.08-4.66.32-.03.32-.53,0-.5-1.76.15-1.98,2.22-2.32,3.58-.05.21-.32,1.65-1.05.63-.1-.14-.04-.59-.04-.75,0-.39.02-.77-.16-1.13-.24-.48-.7-.71-1.2-.82-.82-.19-1.73-.13-2.56-.11-.97.02-2.11.06-3.01.45-1.13.49-.98,2.13-.25,2.95,1.23,1.38,3.84-.54,4.46,1.58.17.6.15,1.38.15,2,0,.73.02,1.23-.66,1.66-.91.58-2.43.55-3.47.56-2.23.02-4.47-.11-6.7-.12-.53,0-1.14-.02-1.6-.31-.69-.44-.72-1.24-.64-1.96.06-.54.15-1.17.55-1.58.49-.5,1.28-.56,1.94-.58,1.2-.04,2.4.04,3.6,0,.59-.02,1.4-.08,1.59-.79.48-1.79-2.91-1.79-3.82-1.74-.32.02-.32.52,0,.5h0Z"/><path class="cls-1" d="m128.51,23.74c2.55-.11,5.1-.14,7.65-.07,1.35.04,3.02-.11,4.17.7s1.55,2.14,1.78,3.42c.13.74.88,3.82-.29,3.93-.34.03-1.16-.55-1.47-.7-.42-.2-.84-.39-1.28-.56-2.04-.82-4.12-.89-6.26-.44-4.11.86-7.51,3-9.27,6.9-.85,1.88-1.26,3.93-1.42,5.98-.15,1.88-.36,4.08.75,5.72.18.27.61.02.43-.25-1.11-1.65-.83-4.02-.64-5.91.21-2.07.69-4.15,1.66-6,1.96-3.74,5.79-5.71,9.9-6.17,2.21-.25,4.11.33,6.08,1.26.55.26,1.96,1.35,2.49.6.29-.41.14-1.31.12-1.78-.04-.84-.15-1.68-.28-2.51-.22-1.35-.65-2.76-1.73-3.68-1.39-1.18-3.51-.97-5.21-1.01-2.39-.05-4.78-.02-7.17.08-.32.01-.32.51,0,.5h0Z"/><path class="cls-1" d="m123.05,48.54c.86,2.19,2.42,3.93,4.37,5.22,2.08,1.38,4.8,2.6,7.29,2.88,1.1.12,2.1-.12,3.17-.31,1.33-.23,2.74-.06,3.99-.64,2.21-1.03,3.75-3.56,5.15-5.46,1.57-2.13,1.94-4.46,1.86-7.07s-1.16-4.55-2.74-6.46-3.43-3.39-5.61-4.36c-1.47-.65-4.14-1.66-5.69-.73-.96.58-1.14,1.87-1.26,2.88s.02,2.08.9,2.67c.94.62,2.32.33,3.36.66,1.95.61,3.39,2.22,3.38,4.31,0,.32.5.32.5,0,0-1.56-.7-2.96-1.96-3.9-.64-.48-1.4-.81-2.17-.99-1.24-.3-3.06.07-3.5-1.48-.19-.69,0-1.53.16-2.2.22-.95.73-1.64,1.75-1.74s2.27.23,3.27.57c1.95.67,3.72,1.83,5.2,3.26,1.57,1.51,3.14,3.45,3.66,5.6.56,2.29.43,5.56-.78,7.61-1.06,1.79-2.5,3.58-3.95,5.06-1.02,1.04-2.1,1.6-3.56,1.72-1.01.08-1.95.21-2.95.38-2.81.49-5.72-.69-8.16-2.04-2.3-1.27-4.25-3.09-5.22-5.57-.12-.3-.6-.17-.48.13h0Z"/><path class="cls-1" d="m141.24,42.23c.07,2.02.04,4.18-1.55,5.66s-3.81,2.23-5.92,1.91-3.72-1.62-4.63-3.48c-.98-2-1.3-4.73.2-6.57,1.37-1.68,3.75-1.7,5.72-1.4.97.15,1.98.42,2.71,1.13.93.92,1.19,2.29,1.13,3.55-.05.97-.15,2.59-1.05,3.17-.69.45-1.47.04-1.47-.79,0-.58.32-1.12.52-1.64.65-1.64.83-3.5-.48-4.87-2.71-2.82-7.75-2.88-10.04.44-.18.27.25.52.43.25,1.53-2.22,4.41-2.79,6.85-1.86,1.23.47,2.68,1.34,3.11,2.65s-.12,2.65-.61,3.86c-.29.74-.5,1.69.15,2.31.54.52,1.39.41,1.94-.03.77-.61.93-1.7,1.06-2.61.16-1.14.15-2.32-.29-3.4-.85-2.08-2.91-2.63-4.97-2.78s-4.18.27-5.38,2.09c-2.38,3.61.22,9.18,4.19,10.3,2.34.66,4.85-.03,6.74-1.5,2.04-1.59,2.23-3.97,2.15-6.39-.01-.32-.51-.32-.5,0h0Z"/><path class="cls-1" d="m126.29,39.45c-1.94,4.06-.92,8.98,2.69,11.76s9.25,3.89,12.98,1.11,4.49-8.38,2.78-12.38-7.38-6.55-11.65-6.62c-5.41-.09-8.96,4.58-9.39,9.62-.03.32.47.32.5,0,.35-4.19,2.97-8.32,7.38-9.02,4.02-.63,9.02,1.41,11.63,4.49,2.76,3.26,2.36,9.22-.36,12.38-3.09,3.6-8.27,2.91-12.08.95-4.41-2.26-6.18-7.58-4.04-12.05.14-.29-.29-.54-.43-.25h0Z"/><path class="cls-1" d="m123.64,48.94l-.28-.46c-.03-.05-.09-.1-.15-.11s-.14,0-.19.03-.1.09-.11.15-.01.13.03.19l.28.46c.03.05.09.1.15.11s.14,0,.19-.03.1-.09.11-.15.01-.13-.03-.19h0Z"/><path class="cls-1" d="m123.21,49.05c.04.13.1.26.18.38.02.03.04.05.06.07.02.02.05.04.09.04.03.01.07.01.1,0,.03,0,.06-.01.09-.03.05-.03.1-.09.11-.15s.01-.14-.03-.19c-.05-.07-.09-.14-.12-.22l.03.06s-.03-.07-.04-.1c-.02-.06-.06-.12-.11-.15-.03-.02-.06-.03-.09-.03-.03,0-.07,0-.1,0-.06.02-.12.06-.15.11s-.05.13-.03.19h0Z"/><path class="cls-1" d="m123.52,48.47c-.09-.14-.2-.26-.3-.39-.09-.12-.18-.24-.28-.35-.04-.05-.12-.07-.18-.07-.06,0-.13.03-.18.07s-.08.11-.07.18v.07s.04.08.07.11c.15.19.3.38.45.57l-.04-.05s.06.08.08.12c.04.05.09.1.15.11.06.02.14,0,.19-.03.11-.07.17-.23.09-.34h0Z"/><path class="cls-1" d="m123.71,43.16c.04,2.26.2,4.42.86,6.6.33,1.09.72,2.16,1.01,3.26.07.25.13.5.19.75.13.56.19.7-.1,1.24s-.29.5-.8.59c-.41.08-.82.14-1.23.19-2.45.32-4.95.3-7.42.21-1.2-.05-2.4-.11-3.6-.19-1.26-.07-3.45-.11-3.44-1.87,0-.32-.5-.32-.5,0-.02,2.64,3.73,2.37,5.48,2.46,3.15.17,6.34.29,9.47-.11.83-.1,2.37-.05,2.74-.99s-.31-2.45-.58-3.32c-.43-1.38-.93-2.75-1.23-4.17-.32-1.53-.34-3.1-.37-4.66,0-.32-.51-.32-.5,0h0Z"/><path class="cls-1" d="m109.1,54.12c-.42-3.35-.61-6.72-.51-10.09.04-1.44-.09-3.29.5-4.64.77-1.78,2.79-2.25,4.55-2.25,1.58,0,3.18.22,4.76.35.82.07.94-.18.99.76s-.11.73-1.06.85-1.96.24-2.95.36c-2.01.25-4.31.13-4.95,2.44-.68,2.45-.81,5.66,0,8.09s3.04,2.26,5.21,2.27c1.58.01,3.16,0,4.73.04,1.08.03,2.09.13,2.5,1.32.19.54.17,1.14.34,1.69.7,2.21,3.5,2.07,5.38,2.24,3.69.33,7.38.54,11.08.54.98,0,2.5.23,3.31-.5.42-.38.33-.63.5-1.09.31-.85,1.21-.57,2.03-.58.32,0,.32-.5,0-.5-.73,0-1.98-.27-2.51.37-.09.1-.02.28-.07.39-.35.83-.45,1.18-1.13,1.35-.88.22-1.95.07-2.84.06-3.38-.02-6.75-.22-10.12-.52-1.41-.12-3.99.04-4.9-1.34-.64-.97-.26-2.34-1.11-3.22-.63-.66-1.61-.69-2.46-.71-1.73-.04-3.47-.03-5.2-.04-1.85-.02-3.65.04-4.31-2.07-.5-1.6-.48-3.46-.35-5.11.14-1.75.26-3.86,2.29-4.28,1.8-.37,3.69-.47,5.52-.7.74-.09,1.75-.1,2.21-.81.4-.62.19-1.31-.47-1.59-1.04-.43-2.46-.28-3.58-.38-1.58-.13-3.23-.37-4.79,0-1.06.25-2.09.82-2.73,1.71-.81,1.14-.75,2.7-.82,4.03-.2,3.85-.03,7.71.45,11.53.04.31.54.32.5,0h0Z"/><path class="cls-1" d="m145.63,55.83c1.2.16,2.42.32,3.63.32,1.04,0,2.24-.07,3.17-.57.87-.46,1.14-1.38,1.02-2.31-.05-.41-.13-.91-.49-1.17-.37-.28-.9-.26-1.34-.28-.69-.04-1.38-.05-2.06-.04-.37,0-.74.01-1.11.03-.18,0-1.2.09-.96-.35l-.22.12c.81-.08,1.63-.12,2.45-.1.72.02,1.46.16,2.17.08.54-.06,1.04-.28,1.32-.76.3-.52.27-1.17.22-1.75-.03-.32-.53-.32-.5,0,.06.68.12,1.6-.64,1.91-.64.26-1.46.06-2.13.03-.87-.04-1.73-.03-2.6.05-.31.03-.54.03-.6.38-.04.24.07.5.25.66.22.2.53.23.81.23.46,0,.91-.04,1.37-.04.86-.01,1.72,0,2.58.06.44.03.75.09.88.56.1.36.14.78.08,1.15-.14.84-.83,1.18-1.59,1.36-1.89.44-3.86.16-5.75-.09-.32-.04-.31.46,0,.5h0Z"/><path class="cls-1" d="m145.06,55.88s.03,0,.05,0h-.07c.21-.02.42-.02.63,0,.06,0,.14-.03.18-.07.04-.04.08-.11.07-.18s-.02-.13-.07-.18c-.05-.05-.11-.07-.18-.07-.25-.03-.5-.01-.75.02-.06,0-.12.07-.15.11-.03.05-.04.13-.03.19s.06.12.11.15l.06.03s.09.01.13,0h0Z"/><path class="cls-1" d="m146.1,55.41l-.73-.03c-.13,0-.26.12-.25.25,0,.14.11.25.25.25l.73.03c.13,0,.26-.12.25-.25,0-.14-.11-.25-.25-.25h0Z"/><path class="cls-1" d="m153.51,49.14l-.23-6.27c-.07-1.75.08-3.67-.41-5.36-.43-1.5-1.7-1.57-3.1-1.65-2.01-.12-3.76-.42-5-2.19-.38-.55-1.1-1.81-.87-2.51.41-1.22,2.02-1,3.04-1.02s2.07.02,3.1.12c1.16.11,2.36.15,2.67,1.52s-.37,3.16-2,3.24c-.88.04-1.88-.35-2.71-.63-1.27-.42-2.25-.84-2.6-2.24-.28-1.1-.27-2.3-.2-3.42.02-.32-.48-.32-.5,0-.09,1.51-.23,3.92.98,5.08,1.06,1.01,3.21,1.53,4.61,1.68s2.53-.74,2.87-2.07c.3-1.18.07-2.87-1.21-3.37-.7-.27-1.57-.27-2.3-.33-1.1-.09-2.2-.11-3.29-.06-1.03.04-2.73-.1-2.95,1.25-.2,1.27.59,2.73,1.41,3.63,1.01,1.11,2.34,1.64,3.82,1.76s3.35-.2,3.79,1.52c.32,1.24.26,2.6.3,3.88.09,2.48.18,4.96.28,7.44.01.32.51.32.5,0h0Z"/><path class="cls-1" d="m145.25,28.73c-.46-1.84,1.93-2.49,3.32-2.43.76.03,1.69.24,2.27.78.34.32.48.71.4,1.16-.04.22-.12.47-.05.69.14.48.63.43,1.04.45.79.04,1.49.25,1.86,1.01.3.63.43,1.35.69,2,.28.7.62,1.37,1.02,2.01.17.27.6.02.43-.25-.54-.86-.97-1.77-1.27-2.73-.22-.7-.38-1.48-.96-1.99s-1.23-.43-1.93-.56c-.28-.05-.41-.06-.36-.36.03-.18.08-.35.09-.53,0-.34-.12-.67-.31-.95-1.51-2.19-7.52-1.49-6.69,1.82.08.31.56.18.48-.13h0Z"/><path class="cls-1" d="m155.77,34.46c1.14,2.16.67,5.74,2.88,7.23,1.65,1.12,3.92.47,4.72-1.36.3-.69.44-1.65-.21-2.18s-1.79-.48-2.41.06c-1.73,1.5-.77,4.33.66,5.6,1.29,1.14,2.43,2.08,2.86,3.84.45,1.87-.08,3.76-1.15,5.31-.18.27.25.52.43.25,1.31-1.92,1.8-4.34.92-6.55-.41-1.03-1.08-1.84-1.92-2.56-1.1-.92-2.15-1.83-2.2-3.38-.02-.75.16-1.84.87-2.27,1.06-.64,2.14.38,1.76,1.49-.48,1.4-2.08,2.14-3.46,1.63-1.53-.57-1.91-2.25-2.21-3.68-.27-1.28-.5-2.54-1.11-3.71-.15-.28-.58-.03-.43.25h0Z"/><path class="cls-1" d="m163.2,52.87c-2.03,2.87-4.41,5.69-5.47,9.1-.48,1.56-.73,3.2-.79,4.84-.05,1.4-.06,2.91.87,4.05.2.25.56-.11.35-.35-1.02-1.24-.79-3.3-.66-4.79s.46-3.05,1-4.5c1.12-2.98,3.29-5.52,5.11-8.1.19-.26-.25-.51-.43-.25h0Z"/><path class="cls-1" d="m157.87,70.9c.72,1.07,1.56,2.23,2.95,2.38.57.06,1.15-.09,1.58-.49.55-.51.83-1.36,1.7-1.41.57-.03.6.47.44.9-.14.4-.43.73-.76.98-.62.47-1.39.7-2.08,1.04-1.16.57-2.05,1.54-1.82,2.91.26,1.58,1.67,2.48,3.03,3.05.3.12.43-.36.13-.48-1.3-.54-2.78-1.52-2.7-3.12s2.1-2.04,3.27-2.7c.55-.31,1.04-.73,1.32-1.31.2-.42.35-1.08.06-1.49s-1.05-.33-1.47-.16c-.59.24-.87.76-1.27,1.22-.57.66-1.45.69-2.19.3s-1.28-1.18-1.75-1.89c-.18-.27-.61-.02-.43.25h0Z"/><path class="cls-1" d="m163.03,80.34c2.4.94,4.95,1.41,7.53,1.33,1.31-.04,2.56-.3,3.86-.47.82-.11,1.73-.16,2.47.28.65.38,1.01,1.07,1.5,1.62,1.28,1.42,3.21,2.41,5.15,2.13,2.24-.32,3.32-2.15,3.94-4.14.1-.31-.39-.44-.48-.13-.39,1.25-.92,2.55-2.08,3.28s-2.54.68-3.75.22c-1.37-.52-2.18-1.5-3.11-2.56-.47-.54-.94-.93-1.64-1.13-.83-.23-1.7-.12-2.53.02-1.25.21-2.48.4-3.75.41-2.4.02-4.74-.45-6.97-1.32-.3-.12-.43.37-.13.48h0Z"/><path class="cls-1" d="m187.46,81.06c.29-2.1.19-4.22-.33-6.27-.47-1.85-1.26-4.03-2.78-5.29-.65-.55-1.48-.93-2.34-.93-.91,0-1.8.45-2.55.92-1.45.91-2.7,2.51-2.32,4.32.49,2.37,3.4,1.77,4.84.66.25-.19,0-.63-.25-.43-.84.64-2.12,1.17-3.18.83-1.23-.39-1.09-2.13-.64-3.06.83-1.73,3.39-3.32,5.27-2.48s2.83,3.3,3.37,5.18c.59,2.08.74,4.27.44,6.42-.04.31.44.45.48.13h0Z"/><path class="cls-1" d="m182,74.46c1.76-1.53,1.79-4.39,1.38-6.49-.51-2.61-1.88-4.94-3.08-7.27-.15-.29-.58-.03-.43.25,1.07,2.08,2.28,4.14,2.87,6.43.54,2.1.73,5.15-1.09,6.73-.24.21.11.56.35.35h0Z"/><path class="cls-1" d="m180.37,60.69c-1.05-1.72-2.1-3.43-3.13-5.16-.5-.84-.99-1.69-1.47-2.55-.33-.59-1.73-2.46-.78-2.94.29-.14.03-.58-.25-.43-.76.38-.65,1.26-.33,1.92.53,1.08,1.16,2.12,1.77,3.16,1.22,2.1,2.5,4.18,3.77,6.25.17.27.6.02.43-.25h0Z"/><path class="cls-1" d="m174.95,50.01c1.32-.72,2.82-.65,4.28-.5,1.62.18,3.24.41,4.86.66,1.43.23,2.89.41,4.31.72.36.08.72.17,1.05.35.27.15.85.48.13.88-.12.07-.42.02-.56.02-.79-.02-1.6-.22-2.37-.35-1.49-.24-2.98-.49-4.47-.68-.74-.1-1.48-.18-2.23-.24-.69-.06-1.5-.21-2.19-.1-.65.11-.97.77-.4,1.24.37.3.96.32,1.4.41.77.16,1.54.33,2.32.47,3.43.63,6.91,1.06,10.35,1.67.31.06.45-.43.13-.48-3.21-.57-6.42-1.04-9.64-1.55-.72-.11-1.43-.26-2.14-.41-.35-.07-.69-.14-1.04-.22-.27-.06-1.47-.29-.56-.64.26-.1.82.04,1.12.06.43.03.85.06,1.27.11.93.09,1.86.21,2.79.35,1.58.23,3.15.51,4.72.76.66.1,2.13.39,2.38-.55s-1.27-1.43-1.94-1.58c-1.47-.32-2.98-.51-4.47-.74-1.69-.27-3.4-.52-5.1-.68-1.47-.14-2.94-.13-4.26.59-.28.15-.03.59.25.43h0Z"/><path class="cls-1" d="m191.33,54.47c.85.87,1.29,2.15,1.79,3.24.59,1.29,1.17,2.58,1.69,3.9.99,2.51,1.77,5.1,2.05,7.79.03.32.53.32.5,0-.3-2.83-1.11-5.55-2.17-8.18-.51-1.27-1.06-2.52-1.64-3.76-.53-1.14-.97-2.43-1.86-3.34-.23-.23-.58.12-.35.35h0Z"/><path class="cls-1" d="m196.84,69.47c.08,1.72-.4,3.56-1.89,4.58-.67.46-1.62.79-2.43.56s-1.34-1.38-1.41-2.17c-.18-2.15,2.21-2.79,3.87-3.18,1.82-.43,3.71-.52,5.57-.45.32.01.32-.49,0-.5-1.79-.07-3.6,0-5.36.39-.88.19-1.75.45-2.57.8-.7.3-1.34.71-1.7,1.4-.66,1.27-.24,2.98.87,3.88s2.82.22,3.75-.56c1.4-1.15,1.88-3.01,1.79-4.75-.02-.32-.52-.32-.5,0h0Z"/><g><path class="cls-1" d="m212.86,43.38c1.74,3.58,4.09,6.81,6.46,9.99s4.83,6.28,7.39,9.31c.21.25.56-.11.35-.35-2.61-3.09-5.13-6.25-7.53-9.5s-4.56-6.23-6.24-9.7c-.14-.29-.57-.04-.43.25h0Z"/><path class="cls-1" d="m226.75,62.84c2.18,1.69,4.76,2.67,7.3,3.69,2.98,1.19,6,2.31,9,3.45s6.08,1.82,8.94,3.2,5.75,2.29,8.64,3.36c.3.11.43-.37.13-.48-2.92-1.08-5.91-2.05-8.72-3.41-2.57-1.24-5.34-1.82-8-2.82s-5.57-2.1-8.33-3.18c-2.94-1.15-6.08-2.2-8.61-4.16-.25-.19-.61.16-.35.35h0Z"/><path class="cls-1" d="m260.74,76.59c6.98,2.54,13.89,5.27,20.91,7.74,3.33,1.17,6.69,2.43,10.16,3.12.79.16,2.1.57,2.8-.08.62-.58.27-1.33-.24-1.84-.93-.93-2.41-1.38-3.6-1.83-1.68-.64-3.37-1.27-5.06-1.9-3.53-1.31-7.07-2.6-10.62-3.87s-6.8-2.4-10.21-3.57c-1.7-.58-3.41-1.16-5.12-1.73-1.61-.54-3.27-1.08-4.67-2.09-1.26-.91-4.3-4.94-.8-4.88,1.69.03,3.53.62,5.13,1.1,3.7,1.12,7.17,2.86,10.31,5.12.26.19.51-.25.25-.43-2.59-1.86-5.4-3.37-8.38-4.48-1.48-.55-3-1-4.54-1.34-1.12-.25-2.55-.69-3.72-.39-2.24.58-.9,3.29.07,4.44,1.96,2.29,5.11,3.06,7.85,3.98,7.06,2.38,14.09,4.86,21.09,7.43,1.69.62,3.38,1.25,5.07,1.88,1.86.7,3.89,1.27,5.61,2.26.75.43,1.05.41.8,1.32s-.31.7-1.21.55-1.81-.36-2.7-.6c-1.72-.45-3.41-1.02-5.09-1.6-8.05-2.75-15.96-5.89-23.95-8.79-.3-.11-.43.37-.13.48h0Z"/><path class="cls-1" d="m269.62,71.93c1.48,1.08-.32,2.31-1.31,2.34-.48.01-.94-.12-1.39-.28-1.05-.37-2.06-.92-3.08-1.37-1.92-.85-3.86-1.67-5.83-2.39-3.95-1.45-8.15-2.06-12.09-3.57-.3-.12-.43.37-.13.48,2.73,1.04,5.59,1.63,8.4,2.4,3.02.82,5.91,2,8.77,3.24,1.77.77,4.36,2.62,6.38,1.78,1.29-.54,1.7-2.19.52-3.06-.26-.19-.51.24-.25.43h0Z"/><path class="cls-1" d="m246.09,66.73c-1.39-.64-2.86-.93-4.35-1.23-1.62-.32-3.07-.82-4.61-1.41s-3.18-.51-4.72-1.11c-.93-.37-1.37-1.11-1.95-1.88-.53-.71-1.06-1.41-1.59-2.12-.19-.25-.62,0-.43.25.56.75,1.12,1.5,1.69,2.25.38.51.74,1.16,1.25,1.55,1.24.95,2.98.94,4.43,1.2.82.15,1.56.52,2.33.83s1.61.54,2.44.72c1.77.39,3.59.62,5.25,1.38.29.13.54-.3.25-.43h0Z"/><path class="cls-1" d="m229.01,59.13c-2.39-2.67-4.7-5.41-6.98-8.18-1.11-1.35-2.31-2.68-3.3-4.13-.21-.31-.51-.66-.63-1.02-.44-1.32.4-1.41,1.27-1.17s1.65.56,2.46.86c3.21,1.19,6.4,2.46,9.59,3.7,1.59.62,3.19,1.24,4.77,1.9,1.5.63,2.96,1.29,4.57,1.59.31.06.45-.42.13-.48-1.88-.35-3.6-1.2-5.36-1.92-1.89-.77-3.79-1.5-5.69-2.23s-3.74-1.45-5.62-2.18c-.95-.37-1.91-.73-2.87-1.08-.85-.31-1.78-.76-2.7-.82-3.47-.21,1.11,5,1.75,5.77,2.7,3.29,5.41,6.57,8.25,9.74.22.24.57-.11.35-.35h0Z"/><path class="cls-1" d="m240.81,52.52c6.32,3.28,13.21,5.47,19.87,7.94,3.5,1.3,7,2.59,10.5,3.89,3.22,1.2,6.41,2.46,9.2,4.5.26.19.51-.24.25-.43-2.59-1.89-5.53-3.13-8.51-4.25-3.46-1.3-6.93-2.57-10.39-3.85-6.92-2.56-14.11-4.81-20.67-8.22-.29-.15-.54.28-.25.43h0Z"/><path class="cls-1" d="m239.73,52.42s.1,0,.15,0c.02,0,.02,0-.01,0,.01,0,.02,0,.03,0,.02,0,.05,0,.07.01.09.01.19.03.28.04.19.03.38.06.57.09.07.01.13.01.19-.03.05-.03.1-.09.11-.15.03-.12-.04-.29-.17-.31-.2-.03-.4-.06-.59-.09-.21-.03-.42-.08-.63-.08-.13,0-.26.11-.25.25s.11.25.25.25h0Z"/><path class="cls-1" d="m240.87,52.68c.19.03.38.09.56.16.06.02.14,0,.19-.03.05-.03.1-.09.11-.15.01-.06.01-.14-.03-.19l-.04-.05s-.07-.05-.11-.06c-.18-.08-.37-.13-.56-.16-.07-.01-.13-.01-.19.03-.05.03-.1.09-.11.15-.01.06-.01.14.03.19.03.05.09.1.15.11h0Z"/><path class="cls-1" d="m280.38,68.77c2.23,2.36,4.47,4.72,6.7,7.08,1.02,1.07,2.03,2.15,2.99,3.27.52.61,1.02,1.24,1.49,1.89.17.24.46.53.55.81.39,1.15-.94.53-1.31.27-.26-.19-.51.25-.25.43.49.34,1.07.68,1.67.39.45-.22.61-.67.43-1.14-.29-.76-.97-1.47-1.48-2.1-.59-.75-1.22-1.47-1.86-2.17-2.8-3.08-5.71-6.06-8.57-9.09-.22-.23-.57.12-.35.35h0Z"/><path class="cls-1" d="m290.88,82.15c-3.48-2.72-6.65-5.83-9.4-9.29-1.4-1.76-2.92-3.65-3.68-5.8-.84-2.39-.49-5.18.02-7.61.07-.31-.42-.45-.48-.13-.46,2.23-.81,4.72-.28,6.96s1.93,4.14,3.29,5.93c2.94,3.85,6.37,7.3,10.18,10.29.25.2.61-.16.35-.35h0Z"/><path class="cls-1" d="m280.56,68.94c.32,0,.32-.5,0-.5s-.32.5,0,.5h0Z"/><path class="cls-1" d="m280.47,68.82c.32,0,.32-.5,0-.5s-.32.5,0,.5h0Z"/><path class="cls-1" d="m280.7,68.42c-.1-.09-.21-.16-.33-.22-.03-.02-.06-.03-.09-.03-.03,0-.07,0-.1,0-.03,0-.06.02-.09.04-.03.02-.05.04-.06.07-.03.06-.05.13-.03.19l.03.06s.05.07.09.09c.08.04.15.08.22.14l-.05-.04s.04.03.05.04c.02.02.05.04.08.05.03.02.06.02.1.02.03,0,.07,0,.1-.02.03-.01.06-.03.08-.05.04-.05.08-.11.07-.18v-.07s-.04-.08-.07-.11h0Z"/><path class="cls-1" d="m277.73,59.48l4.15-13.21c1.37-4.35,2.89-8.69,3.95-13.12.07-.31-.41-.45-.48-.13-1.06,4.44-2.58,8.77-3.95,13.12s-2.77,8.81-4.15,13.21c-.1.31.39.44.48.13h0Z"/><path class="cls-1" d="m285.86,33.16c.27-1.27.57-2.53.82-3.81.2-1.04.35-2.14.08-3.19-.58-2.23-2.9-3.03-4.65-4.12-.27-.17-.52.26-.25.43,1.68,1.05,4,1.81,4.46,4,.22,1.06,0,2.17-.21,3.21-.24,1.12-.48,2.23-.72,3.34-.07.31.41.45.48.13h0Z"/><path class="cls-1" d="m282.11,22.02c-7.77-3.58-15.53-7.2-23.36-10.66-.29-.13-.55.3-.25.43,7.83,3.46,15.59,7.08,23.36,10.66.29.13.54-.3.25-.43h0Z"/><path class="cls-1" d="m258.76,11.34c-5.89-2.45-11.77-4.95-17.62-7.48-.29-.13-.55.3-.25.43,5.9,2.55,11.81,5.06,17.74,7.53.3.12.43-.36.13-.48h0Z"/><path class="cls-1" d="m241.11,3.88c-1.92-.9-3.85-1.81-5.85-2.51-1.03-.36-2.09-.67-3.16-.9-.82-.17-1.72-.33-2.52-.02-.66.26-1.09.83-1.42,1.43-.52.94-.94,1.95-1.36,2.94-.86,2.01-1.63,4.05-2.39,6.1-.11.3.37.43.48.13.67-1.79,1.33-3.57,2.06-5.33.39-.93.79-1.85,1.23-2.76.4-.83.8-1.83,1.77-2.11.91-.26,1.99.08,2.88.3s1.73.49,2.57.8c1.86.68,3.66,1.52,5.45,2.36.29.14.54-.29.25-.43h0Z"/><path class="cls-1" d="m224.42,10.84c-2.05,5.98-4.2,11.94-6.04,17.98-.09.31.39.44.48.13,1.84-6.05,3.99-12,6.04-17.98.1-.31-.38-.44-.48-.13h0Z"/><path class="cls-1" d="m218.39,28.89c-.91,3.3-1.75,7.09-.42,10.39.55,1.37,1.45,2.53,2.69,3.34,1.47.95,3.23,1.52,4.84,2.2.3.12.43-.36.13-.48-1.46-.61-3-1.14-4.37-1.94-1.45-.84-2.45-2.14-2.98-3.72-1.05-3.11-.25-6.59.59-9.65.09-.31-.4-.44-.48-.13h0Z"/><path class="cls-1" d="m225.44,44.69c4.94,2.12,10,3.98,15.01,5.92,2.55.99,5.2,1.83,7.68,2.97,2.33,1.06,4.56,2.02,7.02,2.77.31.09.44-.39.13-.48-2.56-.78-4.88-1.85-7.33-2.91-2.26-.98-4.63-1.76-6.93-2.65-5.12-1.98-10.29-3.87-15.34-6.04-.29-.13-.55.3-.25.43h0Z"/><path class="cls-1" d="m255.15,56.19c2.7,1.29,5.4,2.58,8.2,3.62,2.65.98,5.61,1.97,8.44,2.29.89.1,1.91.06,2.59-.61.81-.8.97-2.25,1.21-3.3.67-2.95,1.01-5.97,2.18-8.78.12-.3-.36-.43-.48-.13-.97,2.32-1.38,4.78-1.86,7.23-.23,1.2-.43,2.49-.87,3.63-.75,1.94-2.55,1.57-4.2,1.18-5.26-1.24-10.08-3.23-14.95-5.55-.29-.14-.54.29-.25.43h0Z"/><path class="cls-1" d="m277.69,49.34c1.38-4.56,2.8-9.1,4.14-13.67.77-2.63,2.73-8.08-1.21-9.22-.31-.09-.44.39-.13.48,2.39.69,2.15,3.53,1.71,5.44s-1.03,3.8-1.6,5.67c-1.13,3.72-2.25,7.44-3.38,11.16-.09.31.39.44.48.13h0Z"/><path class="cls-1" d="m280.66,26.57c-2.57-1.53-5.35-2.67-8.08-3.86-2.94-1.28-5.89-2.56-8.83-3.84-.29-.13-.55.3-.25.43,2.94,1.28,5.89,2.56,8.83,3.84,2.74,1.19,5.51,2.33,8.08,3.86.28.16.53-.27.25-.43h0Z"/><path class="cls-1" d="m264.08,18.96c-6.63-2.92-13.26-5.86-19.91-8.74-2.92-1.26-5.94-2.84-9.08-3.45-1.04-.2-2.25-.38-3.24.11-1.05.51-1.49,1.83-2,2.79-.15.28.28.54.43.25.76-1.42,1.29-2.84,3.15-2.84,1.44,0,2.9.48,4.24.97,3.01,1.12,5.95,2.46,8.89,3.75,5.75,2.52,11.5,5.05,17.25,7.58.29.13.55-.3.25-.43h0Z"/><path class="cls-1" d="m229.75,9.75c-2.6,6.27-4.54,12.78-6.43,19.3-.09.31.39.44.48.13,1.89-6.51,3.83-13.02,6.43-19.3.12-.3-.36-.43-.48-.13h0Z"/><path class="cls-1" d="m230.23,9.95c.01-.05.03-.1.05-.15l-.03.06c.03-.07.07-.14.12-.2l-.04.05s.02-.03.03-.04c.02-.02.04-.05.05-.08.02-.03.02-.06.02-.1,0-.06-.03-.13-.07-.18s-.11-.08-.18-.07-.13.02-.18.07c-.13.15-.22.32-.26.5-.01.07,0,.13.03.19.03.05.09.1.15.11.06.01.14.01.19-.03.05-.03.1-.09.11-.15h0Z"/><path class="cls-1" d="m229.81,9.78s-.02.05-.03.08l.03-.06c-.06.15-.15.3-.25.43-.04.05-.04.14-.03.19s.06.12.11.15c.06.03.13.05.19.03l.06-.03s.07-.05.09-.09c.13-.17.23-.36.3-.56.02-.06,0-.14-.03-.19s-.09-.1-.15-.11c-.06-.01-.14-.01-.19.03l-.05.04s-.05.07-.06.11h0Z"/><path class="cls-1" d="m223.34,29.1c-.41,2.71-1.62,5.22-2.04,7.93-.09.6-.18,1.61.66,1.72.4.05.81-.24,1.13-.42.54-.3,1.05-.65,1.54-1.02,2.22-1.71,4.11-3.92,6.07-5.9,2.12-2.14,4.23-4.29,6.33-6.45.22-.23-.13-.59-.35-.35-3.47,3.59-6.97,7.17-10.52,10.68-.82.81-1.68,1.59-2.65,2.22-.26.16-.52.32-.78.47-.11.06-.23.12-.35.18-.47.08-.68-.04-.64-.36-.17-.45.2-1.49.31-1.96.54-2.21,1.43-4.33,1.77-6.59.05-.31-.43-.45-.48-.13h0Z"/><path class="cls-1" d="m237.08,25.01c1.98-1.94,3.94-3.91,6.1-5.66,1.03-.84,2.12-1.71,3.31-2.32.32-.16.73-.36,1.09-.36.75.01.57.66.35,1.1-.31.62-.67,1.22-1.01,1.82-.16.28.28.53.43.25.4-.72.92-1.45,1.19-2.22.15-.44.16-1-.26-1.29-1.1-.76-2.92.76-3.75,1.34-2.85,2.02-5.33,4.53-7.81,6.97-.23.23.12.58.35.35h0Z"/><path class="cls-1" d="m246.93,19.58c-.39.92-1.08,1.73-1.68,2.52-.71.94-1.44,1.86-2.16,2.78-1.41,1.8-2.81,3.6-4.22,5.4-.2.25.16.61.35.35,1.45-1.85,2.9-3.71,4.35-5.56.67-.85,1.34-1.7,1.99-2.56s1.38-1.7,1.8-2.68c.13-.29-.3-.55-.43-.25h0Z"/><path class="cls-1" d="m238.81,30.35c-.91,1.3-1.74,2.66-2.57,4.02-.69,1.14-1.5,2.39-1.42,3.79.03.54.26.96.83,1.07.61.11,1.31-.25,1.87-.46,1.4-.52,2.77-1.13,4.09-1.81.29-.15.03-.58-.25-.43-1.15.59-2.33,1.13-3.53,1.59-.55.21-1.12.47-1.69.59-.47.1-.78-.05-.82-.55-.02-.32.02-.64.09-.95.29-1.19,1.06-2.25,1.69-3.29.69-1.12,1.39-2.24,2.14-3.31.18-.26-.25-.51-.43-.25h0Z"/><path class="cls-1" d="m241.63,36.95c2.16-1.13,4.01-2.71,5.95-4.16s4.16-2.92,6.35-4.2c.28-.16.03-.59-.25-.43-2.19,1.28-4.31,2.68-6.35,4.2s-3.79,3.03-5.95,4.16c-.29.15-.03.58.25.43h0Z"/><path class="cls-1" d="m253.93,28.6c1.22-.57,2.45-1.12,3.7-1.62.63-.26,1.27-.51,1.91-.75.56-.21,1.27-.49,1.86-.21.68.32.31,1.3.03,1.79-.32.55-.75,1.05-1.15,1.54-.83,1.02-1.71,2-2.62,2.95-.22.23.13.59.35.35,1.11-1.15,2.16-2.35,3.15-3.61.4-.51.81-1.04,1.01-1.67.16-.52.18-1.22-.26-1.61-1.01-.91-2.81.1-3.83.51-1.49.59-2.96,1.23-4.41,1.91-.29.14-.04.57.25.43h0Z"/><path class="cls-1" d="m257.63,32.33c-1.68,1.52-3.32,3.08-4.93,4.67-1.52,1.5-3.07,3.01-4.29,4.78-.18.27.25.52.43.25,1.22-1.78,2.8-3.29,4.34-4.8s3.17-3.06,4.8-4.54c.24-.22-.12-.57-.35-.35h0Z"/><path class="cls-1" d="m248.48,41.76c-.39.5-.9,1.52-.25,2.02.75.57,1.92.16,2.69-.13,2.12-.8,4.16-1.8,6.14-2.89.28-.16.03-.59-.25-.43-1.48.82-3,1.58-4.56,2.25-.76.33-1.56.7-2.37.89-.35.08-1.09.22-1.38-.11s.14-.99.33-1.24-.16-.61-.35-.35h0Z"/><path class="cls-1" d="m257.11,40.73c1.82-1.3,3.45-2.76,5.11-4.25s3.63-2.51,5.61-3.48c.29-.14.04-.57-.25-.43-1.91.92-3.8,1.91-5.42,3.3-.84.72-1.63,1.51-2.48,2.23-.91.77-1.85,1.5-2.82,2.19-.26.19-.01.62.25.43h0Z"/><path class="cls-1" d="m267.72,33.06c.91-.26,2-.56,2.85.03.77.53.78,1.9.54,2.72-.27.92-.96,1.77-1.47,2.57-.58.9-1.17,1.78-1.78,2.65-.19.26.25.51.43.25.74-1.05,1.45-2.12,2.13-3.2.61-.97,1.27-1.88,1.28-3.07.01-.93-.11-1.9-.99-2.41-.97-.57-2.12-.3-3.14-.01-.31.09-.18.57.13.48h0Z"/><path class="cls-1" d="m267.83,41.07c-1.17,1.55-2.52,2.95-3.83,4.39-.56.62-1.15,1.23-1.6,1.94-.28.45-.71,1.1-.08,1.45s1.41-.04,2-.27c.87-.33,1.73-.67,2.59-1.02,1.69-.7,3.37-1.73,5.23-1.85.32-.02.32-.52,0-.5-1.51.09-2.86.76-4.22,1.37-.78.35-1.57.67-2.37.98-.72.28-1.45.62-2.2.84-.18.05-.55.18-.71.05-.2-.15,0-.51.08-.65.22-.38.49-.72.78-1.06.51-.6,1.05-1.16,1.58-1.74,1.1-1.19,2.18-2.38,3.16-3.67.19-.26-.24-.51-.43-.25h0Z"/><path class="cls-1" d="m272.17,45.71c.98-.04,2.22.41,2.16,1.59-.05.9-.72,1.87-1.2,2.6-.88,1.34-1.94,2.56-2.81,3.91-.7,1.08-1.65,2.55-1.08,3.88.68,1.6,3.31.87,3.74,2.53.08.31.56.18.48-.13-.52-2-3.79-1.05-3.89-3.19-.05-.96.62-1.96,1.12-2.75s1.03-1.47,1.57-2.19c.95-1.27,2.27-2.79,2.54-4.41s-1.25-2.4-2.63-2.35c-.32.01-.32.51,0,.5h0Z"/><path class="cls-1" d="m273,60.25c.22.98-.14,2.02.28,2.97.4.9,1.25.97,2.09,1.21.24.07.39.23.61.34.17.09.37.11.56.14.58.11,1.16.22,1.73.34,1.15.25,2.28.58,3.38,1.02.3.12.43-.36.13-.48-.99-.4-2.02-.7-3.06-.94-.5-.11-.99-.22-1.49-.31-.26-.05-.51-.09-.77-.14-.23-.05-.39-.18-.58-.3-.31-.19-.71-.2-1.06-.29-.51-.13-.94-.37-1.13-.89-.33-.89,0-1.88-.21-2.79-.07-.31-.55-.18-.48.13h0Z"/><path class="cls-1" d="m281.69,66.28c1.31.5,2.2,1.18,2.88,2.42.51.92.9,1.9,1.45,2.8.98,1.6,2.47,3.63,4.46,3.92s4.16-.97,5.77-2.09c1.92-1.34,3.63-2.98,5.85-3.84.3-.11.17-.6-.13-.48-1.89.73-3.43,1.99-5.03,3.2-1.84,1.39-4.68,3.51-7.1,2.51-2.08-.86-3.42-3.39-4.34-5.31-.86-1.79-1.78-2.89-3.66-3.6-.3-.11-.43.37-.13.48h0Z"/><path class="cls-1" d="m302.04,69.45c1.28-.17,2.6-.1,3.22,1.2.43.9.52,1.97,1.22,2.73.78.85,2.15.96,3.17.56,1.08-.42,1.83-1.4,2.01-2.53.05-.31-.43-.45-.48-.13-.21,1.29-1.23,2.31-2.56,2.38-.66.03-1.38-.16-1.82-.68-.32-.38-.48-.86-.64-1.32-.28-.83-.53-1.73-1.26-2.28-.86-.64-1.99-.56-2.99-.42-.32.04-.18.52.13.48h0Z"/><path class="cls-1" d="m301.9,68.98c-.2.06-.39.15-.57.27-.05.04-.1.09-.11.15-.02.06,0,.14.03.19s.09.1.15.11.14.01.19-.03c.1-.07.21-.13.33-.18l-.06.03c.06-.02.12-.05.18-.07s.12-.06.15-.11.04-.13.03-.19-.06-.12-.11-.15-.13-.05-.19-.03h0Z"/></g><path class="cls-1" d="m213.31,43.14c-.73-1.33-1.64-2.81-2.73-3.87-.98-.96-2.38-1.01-3.68-1.06-1.63-.06-3.11.09-4.65.67-1.27.48-2.71.87-3.62,1.93-.21.24.14.6.35.35.85-1,2.21-1.36,3.4-1.8,1.4-.53,2.76-.7,4.26-.66,1.37.04,2.84.04,3.8,1.16s1.75,2.3,2.43,3.53c.16.28.59.03.43-.25h0Z"/><path class="cls-1" d="m198.64,40.81c-.72.57-1.61,1.12-2.1,1.91-.44.71-.61,1.67-.64,2.49-.02.57.16,1.19.79,1.34.69.17,1.26-.35,1.64-.86.33-.44.59-.92,1.09-1.21.63-.35,1.37-.24,1.76.41.54.91.6,2.27.61,3.3.02,2.11-.62,4.28.47,6.24.16.28.59.03.43-.25-1.07-1.93-.35-4.15-.4-6.22-.03-1.26-.13-3.64-1.61-4.1-.64-.2-1.32.02-1.82.43s-1.19,1.97-1.93,1.8c-1-.24-.36-2.32-.05-2.93.43-.85,1.4-1.41,2.12-1.99.25-.2-.1-.55-.35-.35h0Z"/><path class="cls-1" d="m202.28,54.5c.39.64.98,1.01,1.68,1.27,1,.38,2.02.66,2.98,1.13s1.9,1.05,2.15,2.2c.24,1.09-.17,2.39-.9,3.22-.59.66-1.52.66-2.15,1.25-.59.55-.39,1.25-.46,1.97-.25,2.43-3.12,2.89-5.06,2.77-.32-.02-.32.48,0,.5,1.89.12,4.07-.2,5.14-1.97.22-.37.37-.77.42-1.2.06-.54-.15-1.2.25-1.65.35-.41.96-.48,1.43-.71.41-.2.73-.5,1-.87,1.04-1.41,1.35-3.63,0-4.95-.71-.69-1.75-1.11-2.65-1.48-1.12-.45-2.7-.61-3.38-1.73-.17-.27-.6-.02-.43.25h0Z"/></svg>