<?xml version="1.0" encoding="UTF-8"?><svg id="Layer_1" xmlns="http://www.w3.org/2000/svg" width="780" height="90" viewBox="0 0 780 90"><defs><style>.cls-1{fill:#d18229;}</style></defs><path class="cls-1" d="m7.42,63.88c10.7-14.18,28.88-18.34,45.83-17.2,19.27,1.3,36.68,9.87,54.21,17.25,8.93,3.76,18.01,7.29,27.47,9.46,8.63,1.99,18.35,3.44,26.88.26,6.25-2.33,11.75-7.75,12.66-14.58.82-6.12-2.99-11.87-8.96-13.56-2.23-.63-5.2-.74-7.21.6s-2.37,4.23-2.12,6.55c.75,6.98,7.11,12.14,13.21,14.52,17.52,6.83,36.45-1.5,50.54-11.98,16.12-11.99,29.96-26.49,47.6-36.47,17.5-9.91,37.66-15.56,57.78-12.02,10.18,1.79,19.62,6.08,27.59,12.66,7.43,6.14,13.67,13.64,21.61,19.17,6.4,4.45,14.29,7.91,22.24,6.73,6.39-.95,12.83-4.74,15.44-10.87,2.48-5.83.24-12.33-4.76-16.06-4.37-3.26-10.55-3.42-14.22,1.01-3.37,4.07-3.03,10.17-1.04,14.77,2.92,6.75,9.62,9.96,16.61,10.94,9.32,1.3,19.07-.48,28.34-1.41,11.27-1.13,22.55-2.26,33.82-3.4,16.67-1.67,42.25-4.71,50.97,13.84,2.99,6.36,3.69,14.84-.39,20.91-2.33,3.47-6.33,5.83-10.57,5.83-7.3,0-9.72-7.13-7.53-13.19,3.01-8.3,11.93-12.91,20.15-14.27,8.67-1.44,17.78-.01,26.03,2.82,9.42,3.23,18.17,8.15,27.38,11.91,4.42,1.8,8.95,3.38,13.62,4.37,3.77.8,8.32,1.73,12.12.79,8.19-2.04,3.98-12.16,5.22-18,2.14-10.14,10.76-17.38,20.08-20.88,10.02-3.77,21.19-4.36,31.79-4.57,11.58-.23,23.19.62,34.61,2.54,18.7,3.16,38.3,11.73,57.35,6.07,6.76-2.01,12.72-5.73,16.96-11.4.19-.26-.24-.51-.43-.25-12.77,17.08-36.25,13.63-54.25,9.34-19.85-4.73-39.58-7.64-60.05-6.58-15.81.81-34.76,3.27-43.63,18.27-1.73,2.93-2.94,6.21-3.28,9.61-.46,4.56,2.39,11.86-2.63,14.7-4.07,2.3-10.84.58-15-.39-5.5-1.29-10.77-3.35-15.93-5.61-14.78-6.47-29.2-14.72-45.91-13.67-10.87.68-27.91,8.22-25.43,21.94,1.03,5.69,6.76,7.94,11.99,6.52,4.81-1.31,8.29-5.16,9.75-9.85,3.45-11.1-2.57-23.14-12.62-28.23-15.73-7.97-35.73-3.52-52.39-1.85-11.02,1.11-22.04,2.24-33.07,3.32-9.04.89-19.39,1.88-27.39-3.35-6.21-4.06-9.92-14.07-5.34-20.65,7.11-10.23,21.22,1.15,19.48,11.04-1.63,9.23-12.07,14.24-20.67,13.6-10.17-.77-18.71-7.35-25.9-14.04-6.77-6.29-13.09-13.15-21.2-17.76-6.91-3.93-14.61-6.33-22.48-7.37-17.48-2.31-34.97,2.09-50.5,10.07-16.49,8.47-30,20.68-44.09,32.5-14.94,12.54-34.25,25.01-54.7,19.54-4.68-1.25-9.09-3.4-12.36-7.05-3.06-3.42-7.44-12.96-.54-14.91,4.45-1.26,9.28,1.24,11.85,4.82,3.31,4.62,2.28,10.67-.79,15.13-6.04,8.79-17.44,9.86-27.18,8.66s-19.72-4.39-29.08-8.06c-28.89-11.34-62.05-30.33-93.3-14.99-5.83,2.86-10.78,6.98-14.69,12.15-.19.26.24.51.43.25h0Z"/></svg>