<?xml version="1.0" encoding="UTF-8"?><svg id="Layer_1" xmlns="http://www.w3.org/2000/svg" width="65" height="45" viewBox="0 0 65 45"><defs><style>.cls-1{fill:#fee6d5;}.cls-2{stroke-width:2px;}.cls-2,.cls-3{fill:none;stroke:#fee6d5;stroke-miterlimit:10;}</style></defs><rect class="cls-2" x="11.6" y="10.98" width="49.33" height="32.29" rx=".69" ry=".69"/><path class="cls-1" d="m14.47,11.56c-.14,10.32.02,20.64.11,30.96.01,1.48,2.45,1.48,2.43,0-.08-10.32-.25-20.64-.11-30.96.02-1.48-2.41-1.48-2.43,0h0Z"/><path class="cls-1" d="m17.24,37.66c.32.03-.16-.03.02,0,.08.02.16.03.24.04.16.03.32.07.48.12.09.03.19.06.28.09.22.07-.1-.05.03,0,.15.07.3.13.44.21s.29.16.42.25c.07.04.14.09.2.14-.21-.14-.02,0,.03.02.27.21.51.45.73.71-.11-.13-.04-.05.02.03.05.07.1.14.15.21.1.14.18.29.26.44.04.07.07.15.12.23.07.12-.06-.15.02.05.06.16.12.32.18.48.11.34.2.69.26,1.04.02.08.03.17.04.25-.03-.17,0-.05,0,.05.02.19.04.37.05.56.04.6.53,1.18,1.22,1.15.63-.03,1.26-.51,1.22-1.15-.12-1.8-.6-3.55-1.82-4.98-1.14-1.33-2.83-2.08-4.6-2.26-.64-.06-1.24.57-1.22,1.15.03.68.54,1.08,1.22,1.15h0Z"/><path class="cls-1" d="m55.47,42.02c-.02-.17-.02-.33-.01-.5,0-.31-.06.21,0-.09.01-.07.03-.13.04-.2.05-.18.1-.36.17-.53.02-.04.12-.26.02-.05.04-.08.07-.15.11-.23.16-.3.33-.6.52-.89.1-.15.2-.3.31-.45.07-.09.07-.08,0,0,.07-.07.13-.15.2-.22.06-.06.12-.1.18-.16.11-.11-.22.13.02-.02.14-.08.27-.16.42-.23.03-.01.28-.11.12-.06s.1-.03.13-.04c.15-.05.31-.09.47-.12.1-.02.2-.04.3-.06.11-.02.13-.02,0,0,.2-.02.41-.04.61-.05.39-.02.78-.02,1.18-.01.64,0,1.25-.53,1.22-1.15s-.53-1.15-1.22-1.15c-1.82,0-3.81.12-5.16,1.43-.6.58-1.06,1.34-1.43,2.07-.43.84-.75,1.76-.65,2.71.06.6.52,1.18,1.22,1.15.61-.03,1.28-.51,1.22-1.15h0Z"/><path class="cls-1" d="m12.19,25.57c-1.55-2.49-3.19-4.93-4.86-7.35-.81-1.18-1.63-2.37-2.45-3.55-.41-.59-.81-1.18-1.22-1.78s-1.01-1.23-1.27-1.86l-.12.89c.06-.14.7-.46.8-.52.35-.23.69-.45,1.04-.68.63-.42,1.27-.83,1.9-1.25,1.32-.87,2.65-1.74,3.97-2.61s.06-2.84-1.23-1.99c-2.19,1.44-4.37,2.88-6.56,4.32C1.4,9.69,0,10.26,0,11.33c0,.97,1.14,2.1,1.67,2.88,2.84,4.16,5.76,8.26,8.42,12.52.79,1.28,2.9.12,2.1-1.16h0Z"/><path class="cls-1" d="m10.09,6.82c2.25-1.31,4.52-2.59,6.8-3.84.55-.3.79-1.05.44-1.57s-1.08-.74-1.67-.41c-2.29,1.25-4.55,2.53-6.8,3.84-.54.32-.8,1.04-.44,1.57s1.09.75,1.67.41h0Z"/><path class="cls-1" d="m15.29,2.61c2.21,2.89,4.41,5.79,6.62,8.68.38.5,1.06.75,1.67.41.53-.29.82-1.07.44-1.57-2.21-2.89-4.41-5.79-6.62-8.68-.38-.5-1.06-.75-1.67-.41-.53.29-.82,1.07-.44,1.57h0Z"/><rect class="cls-3" x="25.99" y="1.42" width="18.41" height="9.56" rx="1.07" ry="1.07"/><rect class="cls-3" x="29.88" y="1.27" width="18.41" height="9.85" rx="1.22" ry="1.22"/><path class="cls-1" d="m21.92,27.12c1.92-1.39,3.85-2.78,5.77-4.16l-1.48-.18c.95.87,1.17,2.33,1.23,3.58.08,1.57-.18,3.1-.74,4.58l1.79-.69c-2.6-1.16-5.08-2.59-7.32-4.29-.51-.39-1.22-.47-1.72,0-.43.4-.51,1.24,0,1.63,2.41,1.84,5.01,3.41,7.82,4.65.75.33,1.5.05,1.79-.69.67-1.75.96-3.66.81-5.52-.14-1.74-.54-3.61-1.92-4.87-.35-.32-1.05-.49-1.48-.18-1.92,1.39-3.85,2.78-5.77,4.16-.52.38-.8.99-.44,1.57.3.49,1.14.79,1.67.41h0Z"/><path class="cls-1" d="m27.97,22.74c4.9.04,9.79.07,14.69.11l7.62.06c1.2,0,2.97-.39,3.48.9.35.89.39,1.89.39,2.83,0,1.05-.17,2.01-.43,3.03-.2.79-.09.82-.98.85-.64.02-1.27.04-1.91.06-2.46.07-4.91.12-7.37.14-5,.04-10.01-.04-15.01-.23-1.57-.06-1.56,2.24,0,2.3,4.64.17,9.28.26,13.92.24,2.37-.01,4.73-.05,7.1-.11,1.09-.03,2.18-.06,3.27-.1.89-.03,1.69,0,2.33-.64,1.18-1.18,1.43-3.32,1.5-4.86.08-1.7-.04-3.63-.94-5.15-1.06-1.8-2.88-1.54-4.81-1.56l-6.8-.05c-5.35-.04-10.7-.08-16.05-.12-1.57-.01-1.57,2.29,0,2.3h0Z"/><path class="cls-1" d="m49.94,31.09c.56-1.59.59-3.34.54-5s-.42-3.36-1.73-4.54c-.47-.43-1.25-.45-1.72,0s-.48,1.2,0,1.63c.42.38.65.8.81,1.34.18.62.21,1.26.21,1.9.01,1.37,0,2.75-.46,4.06-.21.59.24,1.26.85,1.42.66.17,1.29-.21,1.5-.8h0Z"/><path class="cls-1" d="m30.06,28.06c6.02-.28,12.04-.21,18.05.19,1.56.1,1.56-2.2,0-2.3-6.01-.4-12.04-.46-18.05-.19-1.56.07-1.57,2.37,0,2.3h0Z"/></svg>