<?xml version="1.0" encoding="UTF-8"?><svg id="Layer_1" xmlns="http://www.w3.org/2000/svg" width="15" height="15" viewBox="0 0 15 15"><defs><style>.cls-1{fill:#d18229;}</style></defs><path class="cls-1" d="m7.7,5.93c.09.02.17.04.25.07.02,0,.05.02.07.03-.04-.02,0,0,.02,0,.04.02.08.04.11.06.07.04.14.09.21.14.05.03-.02-.02.02.01.02.01.03.03.05.04.03.03.07.06.1.09.03.03.06.06.09.09.01.02.03.03.04.05,0,0,.05.07.02.02.05.07.1.14.14.21.02.04.04.07.06.11,0,.02.02.04.03.06-.02-.05,0,0,0,.02.03.09.06.17.08.26.03.13.18.21.31.17.13-.04.2-.17.17-.31-.17-.79-.84-1.45-1.64-1.61-.13-.03-.28.04-.31.17-.03.12.04.28.17.31h0Z"/><path class="cls-1" d="m7.7,3.95c.39.13.8.23,1.16.41s.67.4.94.67c.12.12.25.24.36.38.12.15.21.32.3.49.18.35.31.73.4,1.12.07.31.55.18.48-.13-.09-.42-.24-.83-.44-1.21s-.45-.69-.75-1-.64-.55-1.01-.74c-.41-.21-.87-.33-1.31-.47-.31-.1-.44.38-.13.48h0Z"/><path class="cls-1" d="m1.09,2.26c.56-.58,2.23-1.86,2.92-.82.24.36.38.86.56,1.25.25.57.62,1.22.34,1.84-.26.57-1.09.8-.87,1.5.24.78.75,1.55,1.21,2.21s.96,1.4,1.58,1.88c.54.42,1.14-.04,1.72-.14.75-.13,1.2.45,1.69.9.33.31.96.7,1.15,1.12.26.58-.49,1.27-.88,1.62-.57.5-1.27.67-1.91.16-.25-.2-.61.15-.35.35,1.33,1.05,2.88,0,3.58-1.3.37-.69-.04-1.22-.55-1.69-.59-.54-1.31-1.51-2.14-1.67-.38-.07-.77.02-1.13.14-.3.09-.63.22-.93.04-.2-.12-.38-.4-.53-.57-.7-.8-1.29-1.69-1.75-2.64-.1-.2-.31-.55-.21-.78.06-.14.32-.29.42-.4.26-.28.46-.59.52-.97.12-.82-.42-1.67-.74-2.39-.36-.79-.6-1.53-1.61-1.35-.93.17-1.77.68-2.42,1.35-.22.23.13.59.35.35h0Z"/><path class="cls-1" d="m.69,2.12c-.04,1.33.25,2.62.72,3.86s1,2.45,1.73,3.53c1.32,1.99,3.25,3.47,5.25,4.73.27.17.52-.26.25-.43-1.93-1.21-3.79-2.63-5.07-4.55C2.2,7.23,1.12,4.59,1.19,2.12c0-.32-.49-.32-.5,0h0Z"/><path class="cls-1" d="m7.93,2.04c2.52.2,4.6,2.2,4.89,4.72.04.32.54.32.5,0-.15-1.34-.74-2.61-1.71-3.56s-2.3-1.54-3.68-1.65c-.32-.03-.32.47,0,.5h0Z"/></svg>