<?xml version="1.0" encoding="UTF-8"?><svg id="Layer_1" xmlns="http://www.w3.org/2000/svg" width="65" height="45" viewBox="0 0 65 45"><defs><style>.cls-1{fill:#fee6d5;}.cls-2{fill:none;stroke:#fee6d5;stroke-miterlimit:10;}</style></defs><path class="cls-1" d="m3.62,34.92c.59-7.08,2.1-14.06,4.57-20.71.99-2.66,2.15-5.51,4.25-7.48,2.52-2.37,5.98-2.54,9.24-2.62,1.89-.05,4.13.05,4.79,2.2.29.94.42,1.92,1.32,2.49,1.07.68,2.65.37,3.84.35,1.66-.02,3.42.12,5.07-.1,2.79-.38,2.32-3.55,4.68-4.55,2.6-1.11,6.56-.61,9.02.64,2.99,1.52,4.6,4.84,6.03,7.74,1.55,3.14,2.81,6.43,3.76,9.81.95,3.37,1.62,6.84,1.93,10.33.25,2.83.41,6.8-2.59,8.25-6.24,3.02-10.66-5.75-13.82-9.53-3.95-4.73-9.59-5.84-15.49-5.39-2.95.22-5.73,1.09-8.04,3.02-2.46,2.05-4.07,4.88-5.97,7.41-2.08,2.77-5.23,5.83-9,4.9-4.78-1.18-3.92-7.34-3.22-10.96.25-1.31-1.72-1.87-1.98-.55-.63,3.25-1.23,6.77.3,9.87,1.28,2.6,3.82,4.04,6.67,3.85,7.08-.45,9.47-8.16,13.94-12.41,3.03-2.88,7.07-3.29,11.03-3.04,4.41.28,7.67,1.52,10.53,5.03,3.66,4.5,7.26,11.44,14.14,10.23s5.87-9.51,5.07-14.66c-1.16-7.43-3.69-15.23-7.87-21.51-1.75-2.63-4.07-4.5-7.17-5.2-2.64-.6-6.05-.81-8.54.47-1.15.59-1.89,1.45-2.42,2.62-.48,1.08-.47,1.39-1.61,1.59-1.02.18-2.2.03-3.23.05-.89.01-2.41.34-3.23.05-1.06-.38-1.03-1.26-1.41-2.11-.51-1.16-1.45-2-2.61-2.47-1.75-.7-3.75-.53-5.59-.42s-3.73.29-5.48.94c-3.16,1.19-5.28,3.86-6.74,6.85-3.75,7.66-5.51,16.57-6.21,25.03-.11,1.34,1.94,1.33,2.05,0h0Z"/><path class="cls-1" d="m19.03,13.01h1.82c-.34-.34-.68-.69-1.03-1.03.11,1.31.15,2.62.11,3.93-.02.57.48,1.03,1.03,1.04,1.37.03,2.74.03,4.12,0l-1.03-1.04.27,3.73,1.03-1.04-4.28.28c-.54.04-1.04.45-1.03,1.04s0,1.19-.02,1.78c-.01.3-.03.59-.06.89-.01.15-.03.3-.04.44-.05.23-.05.29,0,.17l.37-.37-.14.07.52-.14c-.57.06-1.16.04-1.73.06-1.32.04-1.32,2.12,0,2.08,1.12-.03,2.75.21,2.96-1.29.17-1.22.22-2.46.19-3.69l-1.03,1.04,4.28-.28c.52-.03,1.07-.45,1.03-1.04l-.27-3.73c-.04-.55-.44-1.05-1.03-1.04-1.37.03-2.74.03-4.12,0l1.03,1.04c.03-1.31,0-2.62-.11-3.93-.05-.56-.43-1.04-1.03-1.04h-1.82c-1.32-.02-1.32,2.07,0,2.07h0Z"/><path class="cls-1" d="m18.84,10.93h-1.78c-.59.01-.98.49-1.03,1.05-.11,1.31-.14,2.62-.11,3.93l1.03-1.04c-1.34.03-2.68.03-4.03,0-.58-.01-.99.49-1.03,1.04l-.26,3.73c-.04.59.5,1.01,1.03,1.04l4.19.28-1.03-1.04c-.03,1.23.01,2.47.19,3.69.21,1.48,1.8,1.26,2.92,1.29,1.32.04,1.32-2.05,0-2.08-.56-.02-1.13,0-1.69-.06l.52.14-.14-.07.37.37c.05.12.06.07,0-.17-.02-.15-.03-.3-.04-.44-.03-.3-.05-.59-.06-.89-.03-.59-.03-1.19-.02-1.78s-.48-1.01-1.03-1.04l-4.19-.28,1.03,1.04.26-3.73-1.03,1.04c1.34.03,2.68.03,4.03,0,.54-.01,1.04-.47,1.03-1.04-.03-1.31,0-2.62.11-3.93l-1.03,1.04h1.78c1.32-.02,1.32-2.1,0-2.09h0Z"/><ellipse class="cls-2" cx="39.72" cy="17.92" rx="2.61" ry="2.65"/><ellipse class="cls-2" cx="45.81" cy="22.91" rx="2.61" ry="2.65"/><ellipse class="cls-2" cx="52.08" cy="17.92" rx="2.61" ry="2.65"/><ellipse class="cls-2" cx="45.81" cy="12.49" rx="2.61" ry="2.65"/></svg>