<?xml version="1.0" encoding="UTF-8"?><svg id="Layer_1" xmlns="http://www.w3.org/2000/svg" width="1402.63" height="1080" viewBox="0 0 1402.63 1080"><defs><style>.cls-1{fill:#ccc6c9;}.cls-2{fill:#d18229;}.cls-3{fill:none;stroke:#d18229;stroke-miterlimit:10;}</style></defs><rect class="cls-1" x=".76" y="-.98" width="1407.12" height="1081.81"/><g><path class="cls-2" d="m144.84,624.85c2.39,1.72,5.56,2.68,8.39,1.7,2.44-.84,4.36-3.22,4.19-5.82-.17-2.74-2.53-4.73-4.82-6.07-2.57-1.51-5.51-2.81-8.49-3.09s-6.03.62-7.6,3.1c-1.36,2.16-.84,5.45,1.75,6.66,2.88,1.34,5.69-.91,6.83-3.27.74-1.51,1.11-3.21,1.47-4.84s.64-3.34.82-5.03c.73-6.65.12-13.47-1.8-19.97s-5.4-12.81-11.37-16.98c-2.86-2-6.06-3.52-9.39-4.61-1.64-.53-3.31-.97-4.99-1.31-.94-.19-2.17-.31-2.55-1.33-.33-.88-.28-1.98-.21-2.89.14-1.81.68-3.54,1.34-5.22.6-1.54,1.19-3.5,2.48-4.61,1.36-1.17,3.51-1.09,5.25-1.14,1.98-.05,3.97,0,5.96.16,3.86.3,7.7.98,11.43,2.03,1.89.53,3.75,1.16,5.57,1.87,1.33.52,3.1,1.14,3.79,2.48,1.07,2.09-2.02,3.03-3.48,3.52-1.81.6-3.65,1.12-5.51,1.54s-3.61.74-5.44,1c-.89.12-1.78.23-2.67.31-.94.09-2.15.3-3.01-.24-.94-.6-.83-1.75-.3-2.53s1.39-1.26,2.19-1.74c.52-.31-.07-1.06-.58-.75-1.22.72-2.51,1.56-2.87,2.99-.3,1.18.18,2.46,1.4,2.99,1.42.62,3.2.23,4.65.06,1.78-.21,3.55-.49,5.3-.85s3.45-.78,5.15-1.27,3.41-.9,4.82-1.8c1.06-.68,1.79-1.82,1.42-3.1-.3-1.06-1.23-1.83-2.17-2.39-1.47-.87-3.17-1.41-4.78-1.96-1.75-.6-3.53-1.12-5.33-1.56-3.68-.9-7.44-1.44-11.2-1.63-1.78-.09-3.56-.1-5.34-.02-1.51.06-3.13.15-4.41.96s-1.89,2.23-2.46,3.54c-.67,1.54-1.3,3.11-1.72,4.74s-.6,3.29-.35,4.95c.21,1.35.95,2.16,2.32,2.54,1.72.47,3.47.73,5.18,1.25s3.39,1.15,5.02,1.91c3.27,1.52,6.35,3.55,8.85,6.13s4.34,5.73,5.68,9.04c2.62,6.46,3.74,13.51,3.45,20.35-.14,3.36-.61,6.7-1.43,9.94-.46,1.82-1.04,3.84-2.53,5.11-1.25,1.06-3.2,1.56-4.66.45s-1.7-3.01-1.02-4.47c.74-1.6,2.39-2.65,4.12-3.03,3.08-.68,6.35.48,9.13,1.84,2.55,1.25,5.91,3.15,6.15,6.23.27,3.4-3.26,5.58-6.45,5.26-1.67-.17-3.24-.86-4.6-1.84-.5-.36-1.09.35-.58.72h0Z"/><path class="cls-2" d="m145.32,624.08c-1.22-.59-3.11-1.02-3.82.45-.63,1.31.51,2.64,1.69,3.21,3.2,1.54,7.57,1.62,10.91.82,3.09-.74,5.31-3.27,5.55-6.38.14-1.75-.55-3.41-.78-5.13-.26-1.99.03-4.13,1.41-5.66s3.67-1.8,5.7-2.14c1.73-.29,3.81-.71,4.09-2.69.08-.59-.87-.73-.95-.14-.25,1.78-2.83,1.84-4.28,2.07-1.27.21-2.56.45-3.69,1.05-2.43,1.27-3.42,3.94-3.33,6.54.05,1.46.5,2.83.76,4.26s.09,2.76-.52,4.01c-1.4,2.89-4.45,3.61-7.54,3.72-1.84.06-3.7-.14-5.49-.64-.91-.26-2.16-.59-2.6-1.5-.34-.71-.02-1.33.75-1.45.62-.1,1.2.19,1.75.46s.92-.58.36-.85h0Z"/><path class="cls-2" d="m131.65,628.37c-1.22,3.02-3.02,7.17-7.03,7.14-1.73-.01-3.58-.82-4.86-1.98-1.43-1.3-1.76-2.99-1.42-4.77.58-3.07,1.96-6.38,4.32-8.53,1.24-1.14,2.85-2,4.6-2.1s3.76.84,4.09,2.74-1.61,2.94-3.37,2.68c-1.97-.29-3.83-1.61-5.4-2.75-3.17-2.3-5.84-5.17-8.49-8.01s-5.11-5.53-7.15-8.67-3.61-6.49-5.08-9.88c-1.56-3.6-3.25-7.19-3.36-11.12s1.05-7.6,3.27-10.69c.35-.48-.41-1.07-.76-.59-2.23,3.1-3.46,6.83-3.47,10.67-.01,4.18,1.65,7.92,3.3,11.75s3.53,7.82,5.99,11.37c2.63,3.79,5.93,7.19,9.16,10.51,1.58,1.63,3.22,3.21,5.01,4.62s3.66,2.75,5.75,3.42c1.54.49,3.34.46,4.57-.61,1.14-.99,1.26-2.59.59-3.93-1.76-3.51-6.47-2.72-9.04-.86-2.97,2.15-4.54,5.76-5.36,9.2-.46,1.93-.4,3.93.99,5.56,1.26,1.47,3.17,2.45,5.08,2.78,4.96.85,7.46-3.93,8.94-7.6.22-.55-.66-.93-.88-.38h0Z"/><path class="cls-2" d="m101.8,572.43c1.91-2.34,3.89-4.62,5.96-6.83,1.01-1.08,2.05-2.15,3.1-3.19.82-.82,1.92-1.68,2.18-2.86.23-1.05-.37-1.81-1.04-2.59-1.07-1.24-.74-2.47-.39-3.88.58-2.3-.05-4.52-1.62-6.39-.96-1.14-2.16-2.05-3.4-2.87-1.37-.9-2.79-1.79-4.31-2.43-.57-.24-.93.61-.36.85,1.64.69,3.2,1.67,4.65,2.68,1.29.89,2.51,1.92,3.35,3.24.93,1.47,1.18,3,.79,4.63-.29,1.22-.72,2.49-.15,3.74.27.58.75,1,1.13,1.5.66.87.43,1.64-.21,2.41-1.04,1.27-2.35,2.37-3.49,3.56-2.42,2.53-4.73,5.15-6.94,7.86-.38.46.38,1.05.76.59h0Z"/><path class="cls-2" d="m102.41,541.4c-1.49-.63-3.04-1.11-4.63-1.38-.46-.08-.94-.18-1.36.04-.53.28-.84.95-1.12,1.44-1.47,2.55-2.02,5.6-1.99,8.54.03,2.59.6,5.22,1.96,7.51s3.96,4.42,3.75,7.22c-.29,3.79-4.34,5.35-7.73,5.64-.61.05-.48.97.13.92,2.58-.22,5.23-.98,6.96-2.91s2.05-4.38.88-6.65-3.17-4.12-4.1-6.59c-1.01-2.68-1.1-5.62-.66-8.38.28-1.72.8-3.41,1.68-4.92.37-.64.69-1,1.48-.95.46.03.97.19,1.42.3,1.02.26,2,.6,2.97,1.01.57.24.93-.61.36-.85h0Z"/><path class="cls-2" d="m91.19,570.39c-2.84.43-5.67.78-8.07,2.39s-3.77,3.92-4.65,6.59c-.18.56.7.94.88.38.83-2.52,2.07-4.69,4.35-6.22s4.95-1.82,7.62-2.23c.6-.09.47-1.01-.13-.92h0Z"/><path class="cls-2" d="m78.47,579.32c-1.99,7.9-1.66,16.3.89,24.19.19.57,1.07.24.88-.33-2.51-7.74-2.77-15.97-.83-23.72.14-.57-.81-.71-.95-.14h0Z"/><path class="cls-2" d="m79.33,603.45c.36,2.18,1.46,4.59,3.61,5.67.84.42,1.68.42,2.29-.3.98-1.18,1.71-2.67,2.49-3.99,1.64-2.79,3.14-5.66,4.46-8.61,1.22-2.72,2.27-5.56,2.69-8.53.12-.86.54-2.48-.47-3.06s-1.64.67-1.97,1.38c-.65,1.39-.88,2.95-1.3,4.42-.45,1.6-1.02,3.15-1.64,4.69-1.16,2.9-2.24,6.34-4.41,8.68-.65.7-1.25,1.03-2.1.26-.64-.58-1.22-1.24-1.8-1.86-1.1-1.17-2.16-2.36-3.19-3.58-1.15-1.37-2.27-2.77-3.22-4.28s-2.06-3.33-2.42-5.11c-.62-3.06,1.32-5.91,1.17-8.96-.03-.6-.98-.49-.95.1.13,2.55-1.2,4.85-1.29,7.37s1.37,5.01,2.73,7.15c1.55,2.44,3.49,4.67,5.45,6.82.97,1.07,1.95,2.18,3.03,3.16.7.65,1.51.81,2.35.37,1-.53,1.69-1.63,2.26-2.55.73-1.19,1.31-2.47,1.86-3.75,1.19-2.77,2.37-5.55,3.17-8.46.37-1.36.6-2.8,1.2-4.08.18-.37.52-1.17.76-.33.08.27-.06.73-.09,1-.08.72-.2,1.43-.36,2.14-.63,2.87-1.8,5.58-3.05,8.22-1.49,3.13-3.15,6.17-4.99,9.11-.37.59-.93,2.03-1.79,1.95-.64-.06-1.37-.79-1.77-1.23-.99-1.09-1.5-2.48-1.74-3.88-.1-.59-1.04-.49-.95.1h0Z"/><path class="cls-2" d="m73.39,580.64c.29-2.05-1.33-3.81-3.34-4.27-2.22-.51-4.09.8-6.22.96-.61.05-.48.97.13.92,1.78-.13,3.39-1.17,5.19-1.08s3.55,1.46,3.29,3.33c-.08.59.87.73.95.14h0Z"/><path class="cls-2" d="m135.7,576.35c.7-1.63-1.95-2.77-2.65-1.13s1.95,2.77,2.65,1.13h0Z"/><path class="cls-2" d="m131.67,577.39c.46-1.09-1.3-1.85-1.77-.76s1.3,1.85,1.77.76h0Z"/><path class="cls-2" d="m131.82,574.34c.23-.54-.65-.92-.88-.38s.65.92.88.38h0Z"/><path class="cls-2" d="m82.92,601.58c.23-.54-.65-.92-.88-.38s.65.92.88.38h0Z"/><path class="cls-2" d="m86.46,601.92c.46-1.09-1.3-1.85-1.77-.76s1.3,1.85,1.77.76h0Z"/><path class="cls-2" d="m85.1,605c.7-1.63-1.95-2.77-2.65-1.13s1.95,2.77,2.65,1.13h0Z"/></g><g><path class="cls-2" d="m1193.56,967.91c1.64-3.02,1.02-6.86-.8-9.64-2.15-3.31-5.64-5.41-8.79-7.52-3.67-2.46-7.41-4.81-11.22-7.03-3.59-2.1-7.23-4.22-11.16-5.55-1.77-.6-3.64-1.05-5.5-1.15-1.22-.07-2.67.16-3.56,1.12s-.91,2.32-.23,3.37c.82,1.26,2.29,1.79,3.57,2.34,6.98,3,14.06,5.9,20.51,10.05,3.73,2.4,7.18,5.22,10.2,8.56,1.55,1.71,3.12,3.33,4.8,4.9s3.47,3.86,2.47,6.33l.58-.25c-1.61-.29-2.95-1.35-4.3-2.25s-2.77-1.85-4.15-2.78c-2.71-1.83-5.4-3.69-8.11-5.52-5.44-3.7-10.92-7.35-16.58-10.67-2.84-1.67-5.72-3.25-8.66-4.71-1.32-.66-2.7-1.51-4.12-1.89-1.02-.27-2.16.04-2.59,1.15-.55,1.42,1,2.01,1.06,3.28.07,1.52-1.13,2.93-1.88,4.12-1.66,2.63-3.02,5.51-3.96,8.51-.38,1.22-.67,2.6-.23,3.84s1.55,1.94,2.56,2.62c2.64,1.76,5.34,3.42,8.06,5.04,5.49,3.26,11.08,6.35,16.48,9.76,2.73,1.73,5.42,3.54,8.01,5.5,1.1.83,2.31,2.17,3.64,2.54,1.22.33,1.87-.53,2.35-1.58,1.39-3.08,2.9-6.09,4.55-9.02.87-1.55,1.63-3.15,3.56-3.2,1.64-.04,3.29.55,4.9.83,2.59.46,5.23.4,7.32-1.46s2.29-4.34,1.35-6.86c-1.08-2.91-1.45-5.82-.61-8.87.38-1.36.97-2.66,1.77-3.81.85-1.2,1.95-2.18,2.92-3.27.86-.97,1.56-2,2.03-3.23.25-.65-.75-.93-.99-.29-.99,2.61-3.42,4.14-4.93,6.37-1.38,2.04-2.14,4.52-2.29,7-.07,1.2,0,2.41.24,3.59.3,1.5,1.06,2.84,1.35,4.34.61,3.1-2.22,5.43-4.92,5.64-2.96.23-5.83-1.42-8.75-1.03-2.56.35-3.67,3.33-4.79,5.42-.69,1.28-1.35,2.57-1.99,3.87-.35.71-.69,1.43-1.03,2.15-.42.9-.75,2.63-2.09,2.23-.51-.15-1.01-.71-1.43-1.04-.59-.47-1.19-.93-1.79-1.38-1.3-.98-2.62-1.92-3.96-2.83-4.93-3.36-10.09-6.33-15.24-9.31-2.57-1.49-5.15-2.99-7.69-4.54-1.17-.71-2.33-1.43-3.48-2.17-1.23-.79-3.09-1.62-3.92-2.91s-.23-2.9.2-4.18c.54-1.61,1.2-3.18,1.96-4.69.61-1.21,1.29-2.38,2.02-3.51s1.5-2.24,1.68-3.59c.17-1.2-.31-1.69-.82-2.63-1.16-2.11,1.56-1.22,2.25-.9.8.36,1.59.75,2.39,1.14,2.72,1.34,5.39,2.78,8.01,4.3,5.96,3.44,11.71,7.26,17.41,11.14,2.86,1.95,5.72,3.91,8.58,5.85,1.38.93,2.76,1.86,4.15,2.78s2.65,1.86,4.22,2.15c.2.04.49-.02.58-.25,1.32-3.27-.91-6.08-3.15-8.11-2.8-2.54-5.13-5.57-7.96-8.08-5.29-4.7-11.47-8.08-17.78-10.99-3.11-1.43-6.25-2.76-9.39-4.11-1.24-.53-3.96-1.39-3.57-3.29.35-1.7,2.69-1.61,3.94-1.47,3.96.45,7.68,2.18,11.18,4.08s6.98,4,10.39,6.14c1.98,1.25,3.95,2.53,5.89,3.85,1.75,1.19,3.55,2.35,5.13,3.78,3,2.7,5.44,7.3,3.25,11.34-.33.6.56,1.15.89.54h0Z"/><path class="cls-2" d="m1179.75,992.3c1.65-.42-.28,3.88-.45,4.3-.56,1.32-1.14,2.62-1.74,3.91-1.15,2.46-2.39,4.86-3.71,7.22s-2.79,4.74-4.31,7.02c-1.31,1.96-2.77,4.25-4.92,5.26-2.64,1.24-5.16-.74-7.36-2.09-2.44-1.5-4.89-3.01-7.32-4.52-4.88-3.03-9.74-6.09-14.58-9.18-1.15-.74-2.31-1.47-3.46-2.21s-2.33-1.37-3.31-2.28c-1.04-.97-1.43-2.15-1.15-3.59s.75-2.8,1.16-4.17c1.66-5.53,3.62-10.97,5.89-16.26.5-1.17.98-2.37,1.6-3.49.29-.52.6-1.03,1.01-1.45.54-.55,1.97-1.31,1.93.04-.03,1.14-.79,2.33-1.28,3.31-.61,1.23-1.27,2.44-1.97,3.61-1.37,2.28-2.92,4.44-4.63,6.45-1.55,1.83-3.19,3.59-4.46,5.65-1.2,1.94-2.02,4.16-2.12,6.49-.04,1.06.07,2.15.39,3.15.15.47.35.92.58,1.35.54,1.04.44,1.7.06,2.73-1.04,2.78-2.09,5.56-3.14,8.34-.5,1.32-1,2.65-1.49,3.97s-.94,2.58-.94,3.95c0,2.35,1.55,3.92,3.16,5.32,1.95,1.68,3.98,3.27,6.07,4.75,4.22,3,8.71,5.56,13.4,7.65,2.19.97,4.54,2.11,6.87,2.64s3.5-1.58,4.69-3.24c1.51-2.1,2.87-4.33,4.06-6.66.57-1.12,1.1-2.25,1.59-3.41.39-.91.85-1.96.43-2.95-.33-.79-1.09-1.1-1.8-1.42-1.27-.58-2.54-1.17-3.79-1.8-2.4-1.19-4.76-2.48-7.07-3.85-4.58-2.72-8.8-5.96-13.23-8.93-2.02-1.35-4.11-2.58-6.34-3.49s-4.78-1.29-7.23-1.78-5.03-1.12-6.69-3.03c-.8-.92-1.32-2.17-.87-3.39.54-1.49,2.02-1.69,2.8-.28,1.2,2.18.29,5.09-.87,7.07-1.29,2.2-3.18,3.91-5.15,5.41-3.95,3.01-8.38,5.38-11.72,9.2-1.48,1.69-2.66,3.59-3.47,5.73-.25.64.75.93.99.29,2.08-5.46,6.82-8.77,11.33-11.86,3.95-2.7,8.52-5.75,10.04-10.73.6-1.97.73-4.54-.64-6.21-1.12-1.37-2.93-1.24-3.89.25-1.18,1.84-.46,4.1.95,5.53,1.71,1.73,4.15,2.49,6.42,2.97,2.55.54,5.12.85,7.57,1.82,2.6,1.03,5,2.55,7.31,4.16,4.67,3.24,9.24,6.57,14.18,9.37,2.56,1.44,5.17,2.79,7.82,4.01.54.25,1.09.47,1.62.74.84.43.99,1.05.69,1.95-.47,1.41-1.19,2.77-1.86,4.09-1.33,2.61-2.88,5.11-4.63,7.44-.34.45-.67.92-1.07,1.32-.81.82-1.62.74-2.62.42-1.36-.44-2.7-.97-4.03-1.51-5.09-2.08-9.96-4.76-14.52-7.91-2.34-1.62-4.59-3.36-6.75-5.23-.87-.76-1.8-1.56-2.32-2.64-.8-1.65-.22-3.48.37-5.09,1.11-3.05,2.28-6.07,3.42-9.1.54-1.43,1.19-2.86,1.63-4.34.38-1.28-.06-1.99-.59-3.1-1.26-2.61-.65-5.88.6-8.36s3.22-4.56,5.01-6.68c1.68-1.99,3.22-4.11,4.59-6.35.71-1.17,1.38-2.37,2-3.59.56-1.1,1.25-2.28,1.5-3.52.39-1.93-.9-3.29-2.69-2.22-2.01,1.21-2.87,3.99-3.77,6.08-2.32,5.44-4.34,11.03-6.03,16.72-.68,2.3-1.97,5.18-.5,7.42.55.84,1.35,1.47,2.16,2.03,1.29.89,2.63,1.7,3.95,2.54,5.18,3.32,10.39,6.6,15.61,9.85,2.67,1.66,5.34,3.31,8.02,4.96,2.03,1.25,4.27,2.94,6.75,2.6,2.2-.3,3.92-2.04,5.26-3.77,1.64-2.12,3.07-4.45,4.45-6.76,3.01-5.02,5.64-10.3,7.82-15.77.36-.89.74-1.94.33-2.89-.34-.79-1.05-1.22-1.85-1.01-.64.16-.37,1.21.27,1.04h0Z"/></g><g><path class="cls-2" d="m215.51,931.73c.55,6.06,2.06,13.19,7.93,16.65,2,1.18,5.05,1.83,6.63-.08.89-1.07,1.16-2.72,1.56-4.05.46-1.55.88-3.1,1.22-4.69.66-3.03,1.12-6.1,1.81-9.12.35-1.55.76-3.08,1.29-4.57s1.09-3.32,2.26-4.36,3.07-1.28,4.68-1.07c1.29.17,3.26.71,4.17,1.79.59.69-.19,1.89-.45,2.57-.3.78-.6,1.56-.88,2.35-.56,1.58-1.08,3.17-1.56,4.78-.92,3.11-1.67,6.29-2.25,9.51-.26,1.46-.55,2.94-.66,4.43-.09,1.15.02,2.41.76,3.4.97,1.28,2.61,1.76,4.02,2.28,1.58.58,3.18,1.13,4.78,1.64,3.26,1.04,6.56,1.95,9.88,2.71s6.4,1.33,9.62,1.8c1.36.2,3.05.66,4.35.2.86-.3,1.58-1.12,1.43-2.11-.19-1.29-1.58-1.87-2.68-2.14-1.67-.4-3.37-.69-5.05-1.07-3.41-.76-6.8-1.62-10.17-2.57-1.66-.47-3.36-.89-4.98-1.49-1.94-.72-2.81-2.08-3.1-4.06-.47-3.24-.54-6.63-.55-9.87,0-1.63.06-3.26.23-4.88.09-.82.17-1.66.37-2.46.18-.71,1.13-2.39,2.11-1.38.58.6.07,1.86-.1,2.5-.24.96-.48,1.91-.72,2.87-.44,1.73-.87,3.46-1.31,5.2s-.87,3.46-1.31,5.2c-.15.58.77.89.92.3.89-3.52,1.78-7.05,2.66-10.57.37-1.45,1.02-3.04,1.04-4.57.02-1.04-.6-2.02-1.71-2.11-2.89-.25-2.86,4.19-3,6.14-.24,3.31-.09,6.65.14,9.99.17,2.53-.02,5.92,2.32,7.69,1.33,1.01,3.12,1.35,4.66,1.8,1.68.49,3.37.97,5.06,1.41,3.44.91,6.9,1.73,10.38,2.44.77.16,1.55.27,2.31.5.92.28,2.2,1.17,1.16,2.07-.62.54-1.63.38-2.41.28-.85-.1-1.71-.23-2.56-.35-6.72-1-13.39-2.6-19.91-4.76-1.65-.55-3.3-1.1-4.92-1.75-.88-.35-1.85-.78-2.37-1.65-.42-.7-.47-1.54-.43-2.3.16-3.28,1.01-6.61,1.77-9.75s1.71-6.28,2.81-9.32c.27-.73.54-1.47.83-2.19.26-.67.74-1.41.73-2.17-.02-1.14-1.41-1.87-2.3-2.32-2.37-1.2-5.5-1.52-7.73-.22-1.25.72-1.89,2.03-2.46,3.31s-1.06,2.71-1.46,4.12c-.85,3.02-1.36,6.14-1.95,9.23s-1.41,6.38-2.45,9.46c-1.27,3.77-5.72,1.88-8.01-.24-2.64-2.45-4.06-5.86-4.78-9.25-.36-1.68-.56-3.38-.71-5.08-.05-.61-1-.68-.95-.06h0Z"/><path class="cls-2" d="m229.2,952.59c-1.81,8.96-2.97,18.1-3.45,27.32-.12,2.3-.19,4.6-.23,6.9-.03,1.96-.01,3.97.48,5.92.46,1.83,1.4,3.51,2.91,4.73,1.73,1.39,3.93,2.21,5.95,3.02,8.31,3.3,17.09,4.83,25.8,5.79,4.43.49,8.87.83,13.31,1.19,2.46.2,4.93.42,7.39.59,1.76.12,3.64.07,5.02-1.04,1.59-1.29,2.15-3.55,2.77-5.45.71-2.18,1.34-4.4,1.91-6.63,1.12-4.42,1.98-8.91,2.7-13.44,1.43-9.1,2.3-18.32,3.29-27.51.53-4.91,1.23-9.82,1.58-14.75.12-1.72.06-3.78-1.15-5.24-.37-.44-.85-.95-1.42-.86-.93.14-1.72,1.25-2.14,1.99-1,1.8-1.42,4.01-2,5.99-.62,2.11-1.24,4.23-1.85,6.35-1.21,4.24-2.38,8.5-3.42,12.8-2.09,8.59-3.73,17.34-4.35,26.27-.3,4.31-.55,8.77.13,13.12.21,1.34.4,4.32,2.14,4.67,1.63.33,2.32-1.32,2.42-2.64.17-2.34.13-4.73.19-7.09.02-.61-.93-.67-.95-.06-.04,1.45-.08,2.9-.11,4.35-.02.6-.03,1.21-.05,1.81-.02.73.05,1.66-.4,2.26-.6.8-1.4.32-1.68-.53-.21-.64-.35-1.31-.48-1.96-.27-1.39-.41-2.79-.48-4.19-.25-5.23.17-10.5.77-15.64,1.22-10.34,3.68-20.41,6.46-30.32.77-2.76,1.57-5.52,2.38-8.26.4-1.37.8-2.75,1.22-4.11.48-1.58,1.04-3.28,2.66-3.95l-.47-.03c2.46,1.67,1.61,5.45,1.35,7.78-.33,3.08-.66,6.15-.99,9.23-.65,6-1.27,12.01-1.96,18-1.31,11.4-2.98,22.82-6.65,33.57-.49,1.43-1.01,3.02-2.3,3.89-1.1.75-2.53.77-3.86.7-3.06-.17-6.14-.48-9.2-.73-5.52-.44-11.04-.89-16.54-1.65s-10.95-1.84-16.29-3.54c-2.75-.88-5.55-1.88-8.15-3.2-1.38-.7-2.67-1.6-3.52-2.94-.71-1.12-1.08-2.41-1.28-3.69-.43-2.74-.21-5.56-.11-8.28.1-2.87.27-5.74.5-8.6.47-5.85,1.23-11.65,2.25-17.39.25-1.4.52-2.8.8-4.19.12-.59-.8-.9-.92-.3h0Z"/><path class="cls-2" d="m273.69,958.04c2.61,1.34,4.1-1.43,4.68-3.46.74-2.59.9-5.34,1.09-8.05s.43-5.64,1.35-8.27c.54-1.52,1.26-2.97,2-4.4.69-1.34,1.54-2.86,3.11-3.25,1.23-.31,2.56.12,3.79.45,1.14.3,2.25.52,3.42.5,1.23-.02,2.44-.2,3.67-.15,1.65.08,3.01.78,4.22,1.98,2.29,2.27,4.01,5.22,5.04,8.22.47,1.36.95,2.89.89,4.31-.06,1.22-1.17,3.13-2.7,2.21-.92-.55-.91-1.93-.62-2.76.36-1.03,1.26-1.5,2.34-1.25,1.82.42,3.12,2.49,4.25,3.87,2.53,3.1,4.93,6.29,7.22,9.57.36.51,1.18.1.82-.41-2.3-3.3-4.72-6.51-7.25-9.63-1.55-1.91-4.52-5.98-7.27-3.95-1.87,1.38-1.64,5.87,1.43,5.7s2.9-3.95,2.3-6.23c-.88-3.38-2.57-6.59-4.87-9.29-1.05-1.23-2.28-2.4-3.82-2.94-1.35-.47-2.76-.38-4.12-.29-1.57.11-3,.07-4.57-.34-1.28-.34-2.61-.75-3.92-.6-1.45.17-2.52,1.09-3.31,2.24-.99,1.45-1.74,3.15-2.43,4.78-1.4,3.3-1.71,6.85-1.96,10.46-.13,1.94-.56,12.1-4.31,10.17-.55-.28-1.03.51-.47.79h0Z"/><path class="cls-2" d="m230.6,986.17c1.31,3.15,2.46,6.35,3.44,9.6.18.6,1.1.42.92-.18-1.01-3.33-2.19-6.61-3.53-9.83-.24-.58-1.06-.16-.82.41h0Z"/><path class="cls-2" d="m232.22,982.93c1.7,4.26,3.06,8.63,4.09,13.06.14.61,1.06.43.92-.18-1.05-4.52-2.45-8.96-4.18-13.3-.23-.58-1.05-.16-.82.41h0Z"/><path class="cls-2" d="m234.45,980.54c1.88,5.38,3.76,10.79,4.94,16.33.13.61,1.05.43.92-.18-1.19-5.55-3.06-10.95-4.94-16.33-.2-.59-1.12-.41-.92.18h0Z"/></g><g><path class="cls-2" d="m726.71,983.24c-1.64,1.42-3.5-.48-4.62-1.68-1.37-1.47-2.72-2.96-4.06-4.46-2.5-2.8-5.08-5.58-7.39-8.55-1.03-1.32-2.07-2.93-1.96-4.73s1.37-3.29,2.61-4.44c1.08-1,2.75-2.8,4.32-2.33s2.79,2.31,3.86,3.43c2.72,2.83,5.43,5.66,8.15,8.5,1.3,1.35,2.6,2.71,3.9,4.06.88.92,1.9,2.34,3.24,2.51.84.1,1.82-.37,2.08-1.28.38-1.35-1.05-2.44-1.81-3.25-2.58-2.78-5.16-5.56-7.74-8.34-1.2-1.3-2.41-2.6-3.61-3.89-1.3-1.4-2.76-2.75-3.92-4.29-.77-1.01-1.17-2.14-.5-3.35.37-.68.94-1.22,1.48-1.74,1.42-1.41,2.85-2.86,4.32-4.21.7-.64,1.53-1.4,2.52-1.23,1.65.29.89,1.95.12,2.76-1.12,1.18-2.62,2.06-4.02,2.81-2.68,1.43-5.56,2.35-8.35,3.48-4.67,1.89-11.24,5.22-11.01,11.51.11,2.95,1.75,5.52,3.53,7.66,2.23,2.69,4.82,5.09,7.26,7.58s4.71,5.02,7.87,6.05c1.45.47,3.07.63,4.4-.27,1.53-1.04,2.84-2.59,4.19-3.88,3.09-2.93,6.18-5.87,9.26-8.8,2.66-2.53,5.59-4.98,7.22-8.43.14-.29.09-.56-.1-.8-3.58-4.61-7.3-9.11-11.15-13.48-1.73-1.96-3.79-3.86-4.99-6.26-1.36-2.74-.49-5.26,1.79-7.01.89-.68,1.86-1.23,2.83-1.78,1.24-.71,3.3-2.49,4.7-1.85,1.11.51,2.2,1.55,3.15,2.34,1.07.89,2.08,1.84,3.07,2.83,1.83,1.83,3.52,3.8,5.17,5.82.8.98,1.59,1.97,2.38,2.96.86,1.08,1.87,2.17,2.15,3.61.58,2.95-1.6,5.49-3.53,7.26-.85.78-3.14,3.08-3.68.78-.36-1.51,1.26-2.72,2.29-3.38,2.14-1.36,4.58-2.02,6.81-3.19,2.02-1.06,3.84-2.53,5.49-4.15,3.08-3.03,7.13-7.26,7.44-11.97.16-2.51-1.25-3.99-2.23-6.08-.63-1.36-.47-3.77,1.55-3.07,1.32.46,2.41,2.01,3.13,3.2,1.62,2.68,2.09,5.7,1.88,8.83s-.9,6.17-.64,9.28c.46,5.63,4.26,9.78,7.91,13.51.58.59,1.46-.34.88-.94-2.12-2.17-4.27-4.38-5.78-7.08-1.67-2.98-1.99-6.13-1.67-9.53s.95-6.55.36-9.84c-.5-2.74-1.82-5.44-3.74-7.36-1.44-1.44-4.12-2.51-5.22-.05s.95,4.45,1.86,6.49c1.46,3.24-.75,6.74-2.66,9.18s-3.98,4.77-6.39,6.62-5.12,2.75-7.79,4.01c-1.91.9-4.7,2.43-4.79,5.01s2.29,3.53,4.11,2.17c2.09-1.55,4.29-3.67,5.23-6.25,1.04-2.82.17-5.1-1.56-7.3-1.93-2.46-3.89-4.9-5.98-7.22s-4.16-4.34-6.52-6.16c-.9-.69-1.92-1.68-3.05-1.87-1.42-.24-2.92,1.06-4.11,1.74-2.39,1.37-5.36,2.78-6.45,5.63s.3,5.55,1.95,7.7c2.29,3.01,5,5.7,7.44,8.58s5.03,6.08,7.45,9.2l-.1-.8c-1.58,3.35-4.45,5.71-7.03,8.16-2.91,2.76-5.81,5.52-8.72,8.28-1.43,1.36-2.85,3.1-4.48,4.19s-3.9.13-5.41-.8c-3.02-1.86-5.47-4.88-7.96-7.43s-5.26-4.97-6.86-8.2c-1.78-3.59-.75-7.12,2.11-9.68,4.81-4.29,11.5-5.03,16.86-8.29,1.72-1.05,5.33-3.31,4.2-5.95-.46-1.07-1.62-1.54-2.68-1.43-1.43.14-2.52,1.31-3.52,2.28-1.41,1.37-2.89,2.69-4.23,4.14-.93,1.01-1.75,2.22-1.62,3.7s1.13,2.62,2.05,3.63c1.36,1.5,2.75,2.97,4.13,4.45,2.75,2.97,5.51,5.93,8.26,8.9.69.74,1.38,1.48,2.06,2.23.29.31,2.01,1.71,1.05,2.27-.71.42-2.04-1.32-2.44-1.75-.83-.86-1.65-1.72-2.48-2.59-2.83-2.96-5.67-5.91-8.5-8.87-1.24-1.29-2.43-2.64-3.72-3.86-.96-.91-2.09-1.68-3.44-1.48-1.5.22-2.8,1.5-3.91,2.5-1.18,1.05-2.29,2.27-2.88,3.81-1.31,3.44,1,6.42,3.05,8.84,2.93,3.46,5.92,6.86,8.98,10.19,1.92,2.1,4.83,5.7,7.75,3.16.62-.54-.27-1.47-.88-.94h0Z"/><path class="cls-2" d="m768.77,920.82l-3.45-3.64.1.8c.67-.95,2.29-3.62,3.56-3.12s2.54,1.89,3.48,2.89,1.8,2.12,2.52,3.33c.5.84,1.26,2.28.21,3-.82.56-1.88.24-2.73,0-1.33-.38-2.52-.42-3.87-.62-1.45-.21-1.99-1.47-3.13-2.23s-1.87-.03-3.02-.28c-1.22-.26-2.29-1.49-3.47-1.97-4.91-1.99-10.11.69-13.37,4.61-.76.92-1.45,1.91-2.08,2.93-.88,1.44-1.77,2.53-3.53,2.36-2.92-.28-4.56-3.42-6.18-5.6-1.86-2.51-4.17-4.06-7.24-4.19-3.31-.13-6.39,1.33-9.34,2.74-.73.35-.1,1.49.63,1.14,3.26-1.56,6.92-3.29,10.57-2.28,3.4.95,4.76,4.33,6.96,6.85,1.68,1.92,4.28,3.42,6.76,2.29,1.11-.5,1.7-1.45,2.33-2.48.89-1.45,1.87-2.83,3.06-4.03,2.32-2.35,5.37-3.92,8.63-3.67,1.64.13,2.98.8,4.35,1.72.49.33,1,.67,1.57.83.8.22,1.58-.29,2.34-.07,1.07.31,1.73,1.76,2.75,2.26,1.37.68,3.04.37,4.49.79,1.22.36,2.46.75,3.7.22,1.04-.45,1.7-1.43,1.61-2.63-.12-1.57-1.3-3.07-2.19-4.25-1.03-1.37-2.22-2.59-3.54-3.65-1.01-.8-2.3-2.04-3.61-1.32s-2.43,2.47-3.31,3.72c-.16.23-.08.61.1.8l3.45,3.64c.57.6,1.45-.33.88-.94h0Z"/><path class="cls-2" d="m767.8,921.57c.41.38.87.66,1.38.86.22.08.45.14.68.18.28.04.62.11.9.02.68-.23.75-1.12.58-1.75-.15-.55-.48-1.02-.84-1.43-.39-.46-.82-.89-1.24-1.33-.23-.25-.66-.26-.88,0s-.25.67,0,.94c.39.42.8.83,1.18,1.27.08.09.16.18.23.28.02.02.03.04.05.07-.04-.06-.04-.06,0,0,.03.05.06.09.09.14.07.11.12.22.18.34-.06-.14,0,.03.02.07.01.04.05.14.04.18,0-.09,0-.1,0-.02v.05s0,.07,0,.11c0,.08,0,.07,0-.02.01.05-.07.17.01.03.07-.12.18-.18.31-.19-.02,0-.05,0-.07,0-.06,0-.12,0-.18-.01-.05,0-.16-.02-.05,0-.12-.02-.25-.05-.37-.08s-.24-.08-.36-.12c-.07-.03-.07-.03,0,0-.02-.01-.05-.02-.07-.03-.06-.03-.11-.06-.17-.09-.11-.06-.22-.13-.32-.2-.04-.03-.09-.06-.13-.1.11.09-.06-.06-.08-.08-.25-.23-.64-.28-.88,0-.21.25-.26.69,0,.94h0Z"/></g><g><path class="cls-2" d="m96.83,161.63c-1.25-.78-3.11-1.94-3.13-3.69-.01-.91.53-1.68,1.01-2.38.68-1,1.44-1.95,2.2-2.88,2.37-2.89,4.96-5.57,7.49-8.3,5.45-5.89,10.9-11.79,16.35-17.68,5.42-5.86,10.73-11.87,16.27-17.59.69-.71,1.47-1.49,2.5-1.49.78,0,1.49.45,2.1.91,1.25.94,2.26,2.12,3.76,2.63,2.67.91,4.27-1.29,4.18-3.93s-.64-5.7-3.09-6.83c-2.15-.99-4.79-.24-6.24,1.68-1.62,2.13-1.75,5.16-.84,7.64.61,1.66,1.72,3.33,1.39,5.19s-1.72,3.34-2.8,4.71c-8.71,10.98-18.9,20.52-27.72,31.39-2.43,3-4.76,6.09-6.91,9.33-1.06,1.6-2.04,3.29-3.3,4.73-.57.65-1.23,1.41-1.98,1.82-.45.25-2.41.93-1.34-.8.26-.43,1.39-.59,1.82-.63,4.01-.44,6.84,3.35,9.21,6.17,2.2,2.63,4.76,5.11,8.23,5.35.8.06.8-1.27,0-1.32-3.74-.26-6.19-3.6-8.49-6.33-2-2.38-4.32-4.68-7.43-5.13-1.33-.19-2.82-.03-3.97.76-.92.63-1.46,1.87-.69,2.87,1.93,2.51,5.15-1.25,6.31-2.79,2.11-2.79,3.89-5.86,5.98-8.67,2.23-3,4.6-5.89,7.04-8.7,4.7-5.43,9.65-10.6,14.47-15.9,2.51-2.76,5-5.55,7.39-8.43,1.05-1.26,2.09-2.54,3.1-3.85s1.97-2.61,2.29-4.23c.66-3.37-2.24-6.06-1.87-9.47.18-1.63.95-3.26,2.38-4.02s3.35-.7,4.48.57,1.37,3.62,1.34,5.27c-.02.83-.16,1.81-.94,2.25-.97.55-2.2-.13-3.01-.71-1.21-.87-2.19-2.1-3.61-2.62s-2.66-.11-3.76.81c-1.3,1.09-2.41,2.5-3.57,3.75-1.51,1.63-3.01,3.26-4.52,4.89-2.78,3.01-5.56,6.02-8.35,9.03-6.38,6.9-12.75,13.79-19.13,20.69-2.79,3.02-5.79,6.03-8.04,9.55-2.1,3.29.09,5.81,2.82,7.52.69.43,1.32-.71.63-1.14h0Z"/><path class="cls-2" d="m147.92,100.95c-.02-1.61,1.75-2.08,2.95-2.17.23-.02.74-.14.93.02s.2.67.22.9c.07.79.09,1.59.06,2.38-.04,1.6-.27,3.19-.68,4.74-.18.68-.38,1.47-.91,1.95-.41.37-1.18.51-1.35-.2-.19-.83-1.39-.48-1.21.35.36,1.58,2.16,1.83,3.25.94,1.3-1.06,1.61-3.2,1.86-4.8.29-1.86.39-3.77.19-5.65-.07-.68-.25-1.41-.86-1.78-.66-.4-1.66-.19-2.36-.07-1.66.27-3.37,1.42-3.35,3.39.01.85,1.26.85,1.25,0h0Z"/><path class="cls-2" d="m153.09,100.14c1.54-.27,3.77-.19,4.4,1.7.42,1.28-.5,2.36-1.28,3.2-1.26,1.35-2.88,2.76-2.7,4.86.09,1.1.69,2.04,1.36,2.85,1.1,1.34,2.38,2.53,3.58,3.78s2.33,2.43,3.49,3.64c1.08,1.13,2.13,2.55,3.44,3.38,2.24,1.42,4.44-.44,5.94-2.14,1.85-2.1,1.52-4.26-.15-6.39-2.06-2.62-4.55-4.93-6.96-7.17-1.07-.99-2.57-2.26-2.18-3.97.43-1.86,2.43-2.65,4.05-2.53,3.39.25,6.12,3.05,9.58,3.11,2.7.05,5.21-1.68,6.41-4.2.36-.76-.71-1.43-1.08-.67-1.46,3.04-4.52,4.12-7.51,3.13-2.74-.91-5.26-2.9-8.26-2.68-2.02.15-4.13,1.62-4.46,3.85-.39,2.63,2.01,4.36,3.62,5.88,1.16,1.1,2.3,2.24,3.4,3.4s2.48,2.41,3.23,3.91c.95,1.91-.28,3.23-1.59,4.44-.61.57-1.42,1.2-2.28,1.23-1.09.04-1.88-.96-2.59-1.7-2.33-2.42-4.65-4.85-6.98-7.28-.98-1.03-2.45-2.18-2.78-3.68-.27-1.24.51-2.23,1.27-3.05,1.3-1.42,3.17-2.98,2.71-5.22-.6-2.91-3.7-3.38-6.02-2.97-.79.14-.46,1.41.33,1.28h0Z"/><path class="cls-2" d="m150.8,109.64c.57,1.05,1.8,1.58,2.9,1.27.32-.09.54-.48.44-.81s-.43-.56-.77-.46c-.08.02-.16.04-.24.05l.17-.02c-.16.02-.33.02-.49,0l.17.02c-.14-.02-.28-.06-.42-.11-.05-.02-.17-.1,0,0-.03-.02-.06-.03-.08-.04-.06-.03-.13-.07-.19-.11-.03-.02-.05-.04-.08-.05-.13-.1.09.08,0,0-.05-.05-.11-.1-.16-.15-.02-.02-.04-.05-.06-.07-.01-.02-.03-.03-.04-.05-.04-.05-.03-.03.04.06-.04-.07-.08-.13-.12-.19-.16-.3-.57-.43-.86-.24s-.4.58-.22.91h0Z"/><path class="cls-2" d="m145.4,110.65c-.07.19-.11.3-.24.55-.11.21-.22.41-.35.6,0,0-.12.16-.05.07-.04.05-.08.1-.12.15-.07.08-.13.16-.2.24-.16.18-.33.35-.51.51-.04.03-.08.07-.12.1.09-.07-.07.05-.07.05-.09.07-.18.14-.28.2-.19.13-.39.24-.59.34-.05.02-.09.05-.14.07.1-.05-.07.03-.08.03-.1.04-.21.08-.32.12-.22.07-.45.13-.68.17-.33.06-.52.49-.44.81.1.37.44.52.77.46,2.1-.39,3.87-2.03,4.61-4.13.11-.32-.13-.74-.44-.81-.35-.09-.65.11-.77.46h0Z"/></g><g><path class="cls-3" d="m34.44,426.94c2.34,4.04,1.66,9.31-1.8,12.39-3.85,3.43-9.68,2.85-13.03-1.28-3.35-4.13-2.94-10.26.91-13.69,2.41-2.14,5.59-2.72,8.45-1.84"/><path class="cls-3" d="m42.4,438.89c1.15-2.14,2.67-4.1,4.55-5.77,8.75-7.79,22.01-6.48,29.61,2.92,7.61,9.4,6.68,23.33-2.07,31.12-8.75,7.79-22.01,6.48-29.61-2.92-4.69-5.79-6.14-13.31-4.51-20.05"/><path class="cls-2" d="m30.88,436.07c-1.32,1.73-3.71,2.39-5.72,1.68-.77-.27-1.14.98-.37,1.25,2.6.91,5.48-.02,7.16-2.21.21-.27.06-.73-.2-.91-.31-.21-.65-.09-.86.19h0Z"/><path class="cls-2" d="m60.03,468.5c-4.46-.07-8.77-2.27-11.62-5.95-.52-.66-1.43.22-.91.88,3.05,3.92,7.73,6.31,12.48,6.38.81.01.86-1.31.05-1.32h0Z"/><path class="cls-2" d="m35.01,427.02c-.82-1.24-1.83-3.47-.24-4.53,1.22-.81,2.91-.13,3.91.8,2.58,2.41,1.48,5.99.3,8.75-.95,2.21-2.46,5-.88,7.35.59.88,1.63,1.66,2.68,1.61,1.15-.06,1.68-1.15,2.05-2.13.24-.63-.72-.96-.96-.34-.41,1.07-1.03,1.84-2.2,1.05-.59-.41-1.04-1.08-1.21-1.8-.35-1.55.57-3.32,1.15-4.67,1.13-2.63,2.39-5.61,1.18-8.52-.92-2.21-3.38-4.01-5.7-3.39-1.13.3-1.92,1.21-2.11,2.43-.22,1.4.39,2.73,1.14,3.87.37.56,1.25.08.88-.48h0Z"/><path class="cls-2" d="m28.66,422.97c1.34.16,2.13-1.13,2.31-2.36.11-.79.09-1.6.24-2.38.13-.71.33-1.41.58-2.07,1.1-2.89,3.23-5.14,5.55-6.98.51-.4-.18-1.19-.69-.78-2.14,1.7-4.11,3.73-5.33,6.28-.56,1.18-.97,2.42-1.16,3.73-.15,1,.1,3.71-1.47,3.52-.64-.08-.68.98-.04,1.05h0Z"/><path class="cls-2" d="m40.82,444.74c-.05-1.58-1.41-2.51-2.84-2.25-1.62.29-2.55,1.82-2.83,3.42-.43,2.45.48,4.96-.26,7.38s-3.98,4.85-5.76,1.91c-.45-.75-.62-1.83.28-2.41.58-.37,1.38-.28,2.01-.08,1.06.35,1.97,1.14,2.63,2.08,1.59,2.26,1.71,5.24,1.67,7.91-.06,5.1-.91,10.27.82,15.23.22.63,1.2.43.98-.21-1.64-4.71-.92-9.61-.81-14.46.08-3.71-.18-8.15-3.31-10.61-1.14-.89-2.73-1.49-4.1-.96-1.29.5-1.82,1.92-1.39,3.3,1.08,3.4,5.14,3,6.91.69,1.19-1.56,1.46-3.65,1.36-5.62-.07-1.34-.29-2.69-.04-4.02.12-.66.34-1.29.79-1.78.62-.67,2.82-1.49,2.88.4.02.68,1.02.75,1,.07h0Z"/></g><g><path class="cls-2" d="m542.34,1024.94c.94,3.69,0,8.31-4.09,10.16-1.84.83-4.12,1.01-5.97.1s-2.92-2.75-3.48-4.55c-1.07-3.44-1.19-7.54-.37-11.02s3.8-7.88,8.54-7.56c2.29.16,4.47,1.88,4.47,4.04,0,2.04-1.95,3.64-3.98,4.22-2.48.72-5.22.3-7.73-.09-2.28-.35-4.53-.81-6.75-1.38-8.82-2.24-17.12-6.14-24.2-11.38-3.57-2.65-6.91-5.63-9.45-9.13s-4.09-7.33-4.88-11.38-.78-8.25-.2-12.34c.28-1.96,1.01-3.93,1.14-5.9.12-1.79-1.05-2.76-2.7-3.52-3.93-1.82-8.51-1.92-12.83-1.86-1.99.03-3.99.22-5.56,1.42s-2.45,3.01-3.3,4.65c-4.09,7.8-6.52,16.29-7.16,24.89-.19,2.62-.98,7.28,1.97,9.03,3.61,2.12,7.33-2.77,9.24-4.84,3-3.24,5.7-6.71,8.04-10.37.95-1.48,2.35-3.27,2.13-5.07-.18-1.46-1.53-2.39-3.08-2.56-1.89-.21-3.54.79-5,1.74-.65.42-.02,1.4.63.97.92-.59,1.88-1.24,2.98-1.51,1.31-.31,2.95.08,3.2,1.44.19,1.06-.52,2.12-1.06,3.02-.65,1.06-1.33,2.11-2.03,3.15-2.55,3.74-5.48,7.27-8.75,10.53-1.33,1.33-4.13,4.27-6.12,2.15-1.28-1.37-1.1-3.55-1.05-5.22.15-4.52.81-9.03,1.96-13.43s2.77-8.69,4.87-12.79c.94-1.82,1.91-4.17,3.88-5.29s4.9-.82,7.15-.77c2.39.05,4.8.25,7.09.91,1.1.32,2.22.74,3.18,1.32,1.33.82,1.1,2.04.81,3.28-.95,4.03-1.46,8.12-1.26,12.24.4,8.17,3.72,15.63,9.95,21.61s13.9,10.47,22.13,13.59c4.26,1.62,8.7,2.85,13.23,3.65,3.98.7,8.86,1.6,12.32-.86,2.91-2.07,3.21-5.78.3-7.99s-7.42-1.26-10.01,1.1-3.63,5.98-3.81,9.33.01,7.27,1.71,10.36c1.57,2.86,4.8,4.42,8.3,3.73,3.8-.74,6.33-3.69,6.98-7.04.33-1.69.22-3.4-.2-5.07-.18-.71-1.39-.41-1.21.3h0Z"/><path class="cls-2" d="m543.59,1024.82c-.05-.91.06-3.19,1.77-2.72,1.3.36,1.39,1.9,1.33,2.89-.11,1.86-.63,3.73-1.35,5.47-1.33,3.26-3.53,7.01-7.52,7.97-1.77.43-3.71.32-5.42-.29-1.85-.67-3.31-1.99-5.01-2.89-3.04-1.61-6.93-2.33-10.14-.67-1.6.83-2.75,2.17-3.76,3.53-1.12,1.5-2.69,4.81-5.17,4.22-.78-.18-1.11.9-.33,1.09,2.23.53,3.77-.95,4.93-2.46,1.28-1.67,2.34-3.58,4.13-4.87,2.14-1.54,5-1.61,7.5-.8s4.34,2.57,6.7,3.63c3.63,1.62,8.27,1.05,11.1-1.61,3.17-2.98,5.01-7.5,5.51-11.54.22-1.79,0-4.42-2.48-4.81s-3.12,2.22-3.04,3.87c.04.72,1.29.73,1.25,0h0Z"/><path class="cls-2" d="m554.72,1013.19c4.72.09,10.7-.13,13.25-4.42,2.03-3.42,1.27-8.94-2.67-11.01-2.03-1.07-4.62-1.27-6.93-1.4-2.49-.14-5.04-.01-7.45.61-4.18,1.09-8.86,4.33-8.32,8.72.21,1.72,1.54,3.38,3.38,3.97,1.99.64,3.97-.24,5.1-1.76,1.47-1.97,1.24-4.51.87-6.74-.42-2.59-1.23-5.11-2.22-7.57-2.04-5.07-4.6-10.1-7.39-14.87s-6.37-8.9-10.38-12.8c-2.23-2.17-4.52-4.3-6.87-6.36-2.13-1.87-4.45-3.51-7.13-4.69-5.07-2.23-10.84-2.86-16.35-1.77-.79.15-.45,1.24.33,1.09,4.31-.85,8.81-.58,12.96.75,4.5,1.44,7.87,4.11,11.17,7.12s6.72,6.18,9.68,9.58c3.13,3.59,5.54,7.54,7.68,11.67s4.3,8.23,5.82,12.55c.76,2.17,1.38,4.41,1.62,6.68.23,2.09.09,4.81-2.26,5.94s-4.68-1.1-4.82-3.12,1.31-4.01,3.04-5.28c3.39-2.49,8.08-2.85,12.28-2.52,2.56.2,5.55.53,7.18,2.54,1.42,1.75,1.71,4.23,1.25,6.31-1.19,5.42-7.91,5.76-12.85,5.67-.8-.01-.8,1.11,0,1.13h0Z"/><path class="cls-2" d="m501.62,953.1c-4.5,1.14-8.95,2.43-13.33,3.89-2.02.67-4.01,1.56-6.07,2.09-1.29.33-2.34.21-3.04-.88-.42-.65-.67-1.36-1.26-1.92-1.34-1.28-3.29-1.3-5.08-1.61-2.01-.36-3.63-1.41-4.79-2.91s-1.79-3.3-2.21-5.09c-.47-2.03-.86-4.16-.84-6.24,0-.72-1.24-.73-1.25,0-.02,3.13.58,6.67,1.87,9.58,1.04,2.36,2.93,4.6,5.68,5.47,1.72.55,3.85.28,5.36,1.31,1.24.85,1.3,2.49,2.68,3.24,1.23.67,2.71.34,3.97-.08,1.86-.63,3.69-1.32,5.55-1.93,4.31-1.43,8.68-2.69,13.11-3.81.77-.2.44-1.28-.33-1.09h0Z"/><path class="cls-2" d="m464.94,940.57c0-.97.06-1.93.2-2.89.07-.54.17-1.07.29-1.6.09-.4.15-1.3.45-1.6.59-.59,2.55-.48,3.35-.49,1.19-.02,2.37.07,3.54.25,3.76.57,7.55,1.91,10.54,4.08,1.4,1.02,2.61,2.22,3.58,3.58.92,1.29,1.69,2.68,2.7,3.92,1.91,2.34,4.65,3.65,7.91,3.15,3.94-.6,6.71-3.44,8.54-6.46.38-.64-.69-1.21-1.08-.57-1.87,3.09-4.92,6.16-9.18,6.01s-5.8-3.76-7.71-6.49c-3.85-5.49-11.51-8.63-18.61-8.6-1.51,0-4.2-.12-4.84,1.43-.79,1.91-.91,4.27-.92,6.29,0,.72,1.24.73,1.25,0h0Z"/><path class="cls-2" d="m506.06,942.4c1.89-2.68,3.64-5.44,6.7-7.18s6.34-2.09,9.86-1.82c.8.06.8-1.07,0-1.13-3.73-.29-7.27.14-10.49,1.97s-5.13,4.73-7.14,7.59c-.43.61.65,1.18,1.08.57h0Z"/><path class="cls-2" d="m522.21,933.33c10.53,1.47,20.44,5.57,28.55,11.8.61.47,1.5-.33.88-.8-8.27-6.35-18.36-10.59-29.11-12.09-.79-.11-1.13.97-.33,1.09h0Z"/><path class="cls-2" d="m550.96,945.23c1.41.8,2.68,1.81,3.52,3.12.41.64.72,1.34.86,2.07.05.29.16.85,0,1.13-.33.55-1.26.54-1.84.63-4.07.61-8.16,1.02-12.28,1.26-3.86.22-7.77.35-11.63,0-1.76-.16-3.51-.43-5.21-.84-.58-.14-3.41-.99-1.33-1.14,1.23-.09,2.47.08,3.68.24,3.95.55,7.88.78,11.88.8,3.59.02,7.59.26,11.01-.92.94-.32,1.95-.88,2.22-1.82.34-1.19-.71-2.67-1.22-3.73-1.53-3.15-3.18-6.29-5.14-9.25-1.05-1.59-2.23-3.09-3.53-4.51-1.21-1.31-2.5-2.65-4.19-3.47-3.37-1.63-7.43-1.01-10.86-2.48-.72-.31-1.36.66-.63.97,3.33,1.42,7.2.91,10.5,2.32,1.83.78,3.18,2.23,4.44,3.61,1.37,1.51,2.57,3.13,3.64,4.82s1.95,3.27,2.85,4.94,1.99,3.55,2.68,5.4c.19.52.42,1.04-.03,1.51-.26.27-.7.46-1.07.6-.93.34-1.97.51-2.95.64-2.15.28-4.33.25-6.5.25-4.56,0-8.98-.28-13.5-.86-1.36-.18-4.05-.66-5.22.27-.85.68-.33,1.72.53,2.15,1.57.8,3.75,1.08,5.51,1.34,1.94.28,3.9.42,5.86.46,4.17.09,8.37-.13,12.53-.5,2.37-.21,4.74-.48,7.1-.81,1.46-.2,3.5-.14,3.94-1.72.84-3-2.47-6.05-4.99-7.47-.68-.38-1.31.59-.63.97h0Z"/><path class="cls-2" d="m527.14,926.3c-2.45-.59-3.14-3.13-2.34-5.07s2.93-3.25,4.02-5.1c.38-.64-.7-1.21-1.08-.57-1.31,2.22-3.89,3.66-4.42,6.26-.48,2.35.78,4.91,3.48,5.56.78.19,1.11-.9.33-1.09h0Z"/><path class="cls-2" d="m489.03,992.5c2.41,0,2.42-3.38,0-3.38s-2.42,3.38,0,3.38h0Z"/><path class="cls-2" d="m492.4,988.64c1.61,0,1.61-2.25,0-2.25s-1.61,2.25,0,2.25h0Z"/><path class="cls-2" d="m488.61,987.39c.8,0,.81-1.13,0-1.13s-.81,1.13,0,1.13h0Z"/><path class="cls-2" d="m547.42,947.27c.8,0,.81-1.13,0-1.13s-.81,1.13,0,1.13h0Z"/><path class="cls-2" d="m546,951.24c1.61,0,1.61-2.25,0-2.25s-1.61,2.25,0,2.25h0Z"/><path class="cls-2" d="m550.47,951.19c2.41,0,2.42-3.38,0-3.38s-2.42,3.38,0,3.38h0Z"/></g><g><path class="cls-2" d="m1337.8,774.74c-7.69.31-16.38,1.78-21.13,8.95-1.67,2.52-2.83,6.25-1.2,9.11.86,1.52,2.37,2.11,3.87,2.68,2.17.83,4.34,1.66,6.54,2.35,4.11,1.3,8.31,2.2,12.45,3.35s8.37,2.45,11.98,4.84,3.65,8.3,1.69,12.04c-.24.46-.58,1.19-.97,1.52-.66.57-1.23.25-1.88-.05-1.13-.53-2.26-1.07-3.41-1.59-1.98-.88-3.98-1.72-5.99-2.49-4.23-1.62-8.53-3.01-12.9-4.14-2.13-.55-4.28-1.1-6.45-1.47-1.68-.29-3.51-.39-4.99.64-1.33.92-1.97,2.53-2.5,4.04-.79,2.26-1.52,4.54-2.2,6.84-1.38,4.63-2.57,9.33-3.55,14.08s-1.75,9.49-2.34,14.28c-.23,1.89-.81,4.22-.11,6.07.51,1.35,1.83,2.41,3.24,1.93,1.31-.44,1.91-1.94,2.22-3.23.54-2.26.84-4.62,1.28-6.91.96-4.89,2.05-9.75,3.27-14.58.57-2.27,1.08-4.6,1.85-6.8.84-2.43,2.46-3.6,4.84-3.9,2.07-.26,4.21-.18,6.3-.2,2.31-.03,4.63-.01,6.94.11,2.48.13,4.97.37,7.42.83.94.18,1.92.33,2.81.69,1.02.4,2.89,2.52.93,3.12-.96.29-2.16-.31-3.06-.61-1.18-.38-2.37-.76-3.55-1.15-2.29-.74-4.57-1.48-6.86-2.21s-4.57-1.48-6.86-2.21c-.77-.25-1.1,1.03-.33,1.28,4.65,1.5,9.31,3,13.96,4.51,1.92.62,4.03,1.66,6.05,1.79,1.34.09,2.58-.68,2.7-2.19.33-4.04-5.45-4.34-7.97-4.69-4.59-.62-9.22-.64-13.84-.56-3.33.06-7.61-.33-9.74,2.99-1.1,1.72-1.49,3.95-2.02,5.92-.63,2.36-1.22,4.74-1.79,7.12-1.15,4.84-2.16,9.72-3.05,14.63-.24,1.33-.71,6.39-3,4.69-.99-.73-.82-2.37-.71-3.47.13-1.35.29-2.69.46-4.03,1.26-9.79,3.37-19.46,6.29-28.85.68-2.17,1.26-4.53,2.28-6.55,1.22-2.39,3.4-2.49,5.69-2.07,4.47.83,8.9,2.08,13.23,3.49s8.71,3.13,12.92,5.08c1.28.59,3.26,2.14,4.69,1.3,1.34-.78,2.16-2.94,2.63-4.38,1.07-3.29.99-7.8-1.38-10.47-1.32-1.47-3.26-2.35-4.99-3.15-1.86-.87-3.78-1.59-5.72-2.21-4.1-1.32-8.3-2.22-12.44-3.36-2.11-.58-4.2-1.23-6.26-1.98-1.09-.4-2.18-.81-3.27-1.23s-2.21-.73-2.97-1.63c-2.7-3.16.34-8.17,2.61-10.47,3.09-3.13,7.21-4.73,11.37-5.47,2.28-.41,4.6-.56,6.91-.66.8-.03.81-1.36,0-1.32h0Z"/><path class="cls-2" d="m1310.66,792.38c-12.26-3.31-24.76-5.65-37.35-6.96-3.11-.33-6.24-.63-9.36-.78-2.47-.12-5.04-.1-7.43.68-5.12,1.67-7.01,6.83-8.78,11.7-4.25,11.7-6.03,24.2-7.09,36.63-.55,6.43-.91,12.87-1.3,19.31-.2,3.26-.55,6.55-.54,9.82,0,2.57.57,5.06,2.5,6.78s4.49,2.52,6.78,3.43c2.84,1.12,5.72,2.14,8.62,3.07,5.89,1.89,11.87,3.43,17.89,4.76,12.26,2.7,24.68,4.62,37.04,6.73,6.04,1.03,12.1,2.29,18.18,3.07,2.01.26,4.28.32,6.11-.74.63-.37,1.6-1.09,1.81-1.86.23-.83-.69-1.94-1.2-2.49-1.58-1.69-3.88-2.41-5.94-3.17-2.91-1.08-5.82-2.15-8.74-3.21-5.99-2.17-12-4.29-18.06-6.23-11.81-3.79-23.84-6.93-36.1-8.57-6-.8-12.26-1.57-18.3-.79-1.69.22-5.27.31-5.59,2.69s1.99,3.31,3.76,3.51c3.04.34,6.1.52,9.14.77.8.07.8-1.26,0-1.32-2.86-.24-5.73-.45-8.58-.72-.65-.06-1.32-.11-1.93-.38-.8-.36-1.76-1.53-.67-2.33.46-.33,1.2-.39,1.73-.51.86-.19,1.73-.33,2.6-.43,5.58-.65,11.34.02,16.9.72,11.37,1.44,22.55,4.24,33.52,7.64,5.47,1.69,10.89,3.54,16.29,5.46,5.27,1.87,10.61,3.65,15.79,5.78,1,.41,2.01.9,2.85,1.62.34.29,1.05.89,1.14,1.39.1.62-.61,1.03-1.06,1.29-1.85,1.09-4.3.76-6.3.43-5.84-.95-11.67-1.99-17.51-2.98-22.12-3.76-44.94-6.67-65.86-15.61-2.39-1.02-4.69-2.33-5.33-5.2s-.09-5.92.08-8.72c.36-5.99.69-11.98,1.12-17.96.83-11.56,2.09-23.17,5.21-34.32.77-2.74,1.64-5.45,2.65-8.11s1.94-5.34,3.77-7.33c3.53-3.83,9.33-3.11,13.9-2.76,11.71.91,23.35,2.7,34.81,5.35,2.84.66,5.67,1.37,8.49,2.13.78.21,1.11-1.07.33-1.28h0Z"/><path class="cls-2" d="m1304.44,854.32c-1.54,3.2,1.45,5.52,3.95,6.51,3.58,1.43,7.42,1.88,11.2,2.36,4.08.53,8.15,1.14,11.93,2.93,1.79.85,3.53,1.86,5.23,2.9,1.54.94,3.25,2.09,3.9,3.95.73,2.09-.07,4.38-.53,6.44-.43,1.92-.48,3.77-.33,5.73.17,2.22.47,4.61-.5,6.68-.84,1.79-2.35,3.17-3.84,4.35-3.04,2.43-6.55,4.17-10.26,5.09-1.86.46-4.35,1.06-6.07-.18-.69-.49-1.27-1.45-1.24-2.35.04-1.3,1.2-1.9,2.29-1.91,2.85-.04,4.15,2.74,2.64,5.2-1.24,2.02-3.57,3.51-5.35,4.95-3.73,3.03-7.57,5.91-11.51,8.64-.67.47-.04,1.61.63,1.14,4.19-2.92,8.28-6,12.25-9.25,2.55-2.09,7.36-5.31,5.59-9.47-1.21-2.86-6.33-3.73-7.59-.45-.57,1.47.07,3.18,1.13,4.21,1.39,1.35,3.43,1.45,5.2,1.21,4.22-.58,8.37-2.37,11.88-4.9s6.23-5.45,6.16-10.12c-.04-2.63-.53-5.16.01-7.77.43-2.06,1.17-4.16.91-6.31-.54-4.38-5.3-6.46-8.57-8.2-4.57-2.42-9.4-3.24-14.42-3.88-2.72-.35-5.46-.71-8.11-1.48-2-.57-7.07-2.12-5.51-5.35.36-.76-.71-1.43-1.08-.67h0Z"/><path class="cls-2" d="m1266.66,791.84c-4.16,1.63-8.41,3.02-12.71,4.17-.78.21-.45,1.49.33,1.28,4.3-1.15,8.55-2.55,12.71-4.17.75-.29.42-1.57-.33-1.28h0Z"/><path class="cls-2" d="m1270.95,794.35c-5.62,2.09-11.39,3.71-17.25,4.83-.79.15-.46,1.43.33,1.28,5.86-1.13,11.63-2.74,17.25-4.83.75-.28.43-1.56-.33-1.28h0Z"/><path class="cls-2" d="m1273.98,797.71c-7.04,2.24-14.11,4.47-21.38,5.73-.79.14-.46,1.41.33,1.28,7.27-1.26,14.34-3.49,21.38-5.73.77-.24.44-1.52-.33-1.28h0Z"/></g><g><path class="cls-3" d="m1312.19,458.75c4.04,1.93,6.28,6.73,5.09,11.41-1.32,5.2-6.37,8.28-11.28,6.89s-7.82-6.74-6.51-11.94c.82-3.25,3.11-5.67,5.9-6.69"/><path class="cls-3" d="m1324.99,463.83c-.19-2.48,0-5.04.65-7.58,3-11.82,14.48-18.83,25.65-15.65,11.17,3.17,17.79,15.33,14.79,27.14s-14.48,18.83-25.65,15.65c-6.88-1.96-12.04-7.32-14.28-13.92"/><path class="cls-2" d="m1314.13,468.49c-.16,2.21-1.73,4.27-3.76,4.91-.77.24-.44,1.52.33,1.28,2.58-.82,4.47-3.35,4.67-6.19.03-.36-.31-.66-.62-.66-.36,0-.6.3-.62.66h0Z"/><path class="cls-2" d="m1355.03,477.68c-3.67,2.66-8.31,3.47-12.59,2.17-.77-.24-1.11,1.04-.33,1.28,4.57,1.39,9.62.55,13.55-2.3.66-.48.04-1.63-.63-1.14h0Z"/><path class="cls-2" d="m1312.6,458.42c-1.06-.42-2.23-1.08-2.55-2.32s.54-2.23,1.55-2.69c2.08-.93,4.44.18,5.58,2.12,1.25,2.14,1.33,4.75,1.84,7.14.41,1.94,1.2,3.86,3.21,4.35.91.22,2.06.13,2.75-.61s.58-1.89.37-2.85c-.14-.66-1.1-.38-.96.28.12.6.3,1.33-.14,1.81s-1.26.48-1.86.32c-1.25-.34-1.85-1.45-2.19-2.68-.67-2.48-.69-5.12-1.74-7.49-.87-1.95-2.46-3.41-4.51-3.71-1.77-.26-3.92.42-4.71,2.26-1.06,2.45,1.19,4.33,3.11,5.09.6.24.86-.78.27-1.02h0Z"/><path class="cls-2" d="m1305.38,458.98c.88-.53,1.15-1.63.91-2.63-.16-.67-.53-1.26-.84-1.85-.4-.74-.71-1.51-.93-2.32-.9-3.3-.36-6.76.63-9.96.2-.65-.76-.93-.96-.28-.85,2.76-1.37,5.68-1,8.59.17,1.35.52,2.66,1.09,3.89.43.92,1.92,2.86.61,3.65-.56.34-.06,1.25.5.91h0Z"/><path class="cls-2" d="m1326.81,469.66c-1.58-2.33-4.32-.15-4.44,2.13-.21,3.91,4.11,6.04,4.36,9.9.12,1.87-.99,4.05-2.97,4.03-1.24-.02-2.53-1.14-1.87-2.51.53-1.09,1.94-1.41,3-1.39,4.2.1,6.72,4.84,8.61,8.18,2.08,3.67,4.13,7.4,7.48,9.95.52.4,1.02-.52.5-.91-3.72-2.82-5.71-7.26-8.09-11.24-1.93-3.22-4.53-6.93-8.5-7.03-1.48-.04-3.26.55-3.98,2.05-.62,1.29,0,2.74,1.11,3.45,2.7,1.73,5.47-.94,5.7-3.82.16-2.06-.76-3.99-1.9-5.59-.71-.99-1.54-1.92-2.04-3.05-.37-.83-.57-1.8-.26-2.69.29-.84,1.57-2.19,2.43-.92.37.55,1.24.02.86-.53h0Z"/></g><g><path class="cls-2" d="m1352.22,655.06c1.05-.36,2.16-.76,3.28-.75,1.28,0,2.33.62,3.21,1.47,1.54,1.5,2.46,3.51,2.86,5.6.77,3.96-.12,9.5-3.52,12.29-1.55,1.27-3.94,1.83-5.68.76-.95-.58-1.38-1.64-2.14-2.41-.64-.66-1.46-1.14-2.32-1.49s-1.81-.59-2.76-.76c-.99-.18-2.12-.25-2.98-.79-1.18-.74-1.26-2.25-1.25-3.51s.06-2.6.07-3.9c.02-2.5,0-5-.1-7.5-.07-1.9-.14-3.75-1.97-4.78-1.72-.97-4.01-1-5.97-.84-1.79.15-3.88.39-5.32,1.62-1.65,1.41-1.38,3.6-1.37,5.5,0,2.42.03,4.83.15,7.25s.31,4.63.65,6.92c.31,2.09.58,4.45,1.94,6.15,1.12,1.4,3.04,2.19,4.83,1.39,1.64-.74,2.96-2.83,2.31-4.56s-2.99-1.85-4.63-1.35c-2.52.77-4.52,2.62-6.39,4.4-.52.5.27,1.24.79.74,1.72-1.63,3.55-3.38,5.87-4.09,1.02-.31,2.53-.5,3.17.5.69,1.1-.29,2.66-1.33,3.25-2.5,1.44-4.35-1.45-4.86-3.39-.58-2.19-.83-4.52-1.03-6.79s-.28-4.41-.32-6.62-.23-4.38-.01-6.51c.28-2.71,3.32-3.13,5.54-3.31,1.93-.16,5.19-.28,6.34,1.55.6.95.47,2.34.5,3.44.04,1.18.06,2.36.08,3.54.03,2.29,0,4.59-.06,6.88-.04,1.72.01,3.66,1.48,4.79,1.35,1.04,3.29.97,4.89,1.4.98.26,1.97.64,2.76,1.27s1.25,1.59,1.96,2.32c1.04,1.06,2.59,1.48,4.08,1.35,3.6-.32,5.87-3.41,6.96-6.54,1.31-3.75,1.34-8.05-.37-11.58-.81-1.67-2.12-3.38-3.85-4.21-1.88-.9-3.9-.35-5.81.3-.68.23-.41,1.28.28,1.05h0Z"/><path class="cls-2" d="m1352.09,654.06c-.97.3-2,.16-2.71-.56-.82-.83-.79-1.91-.46-2.98.59-1.9,2.57-3.85,4.73-3.41,1.98.4,3.74,1.32,5.34,2.48,1.41,1.02,2.79,2.14,4.44,2.79,1.49.59,3.2.77,4.76.15,1.26-.5,2.47-1.61,2.32-3.03s-1.48-2.57-2.83-2.87c-1.51-.34-2.7.67-3.22,2.03-1.49,3.88,1.57,7.3,4.54,9.25.58.38,1.14-.58.55-.97-1.57-1.03-3.06-2.3-3.83-4.04-.62-1.4-.88-3.56.33-4.81,1.51-1.55,4.74,1.36,2.56,2.99-1.53,1.14-3.64.81-5.2.08s-2.8-1.8-4.16-2.75-2.81-1.65-4.42-2.13c-1.48-.44-2.61-.45-4,.35s-2.26,1.64-2.79,3.08c-.57,1.52-.72,3.08.36,4.37.95,1.14,2.53,1.47,3.97,1.03.69-.21.41-1.26-.28-1.05h0Z"/><path class="cls-2" d="m1325.19,675.72c-3.69,2.59-8.05,3.61-12.41,4.3-2.1.33-4.22.67-6.34.79-2.28.12-4.56-.14-6.81-.4-.7-.08-1,.98-.29,1.06,2.21.26,4.45.53,6.69.44s4.42-.44,6.61-.78c4.59-.71,9.22-1.76,13.11-4.48.59-.41.04-1.34-.55-.93h0Z"/><path class="cls-2" d="m1299.43,680.33c-2.93-.05-5.76-.78-8.26-2.21-2.65-1.5-4.82-3.65-6.96-5.75-1.03-1.01-2.85-2.19-2.59-3.79.22-1.33.82-2.62,1.49-3.79s1.54-2.35,2.42-3.45c1.06-1.34,2.13-2.69,3.55-3.68.59-.41.04-1.34-.55-.93-1.51,1.05-2.66,2.44-3.79,3.86-1.01,1.27-1.99,2.58-2.77,4-.69,1.25-1.29,2.64-1.47,4.04-.21,1.6.81,2.46,1.85,3.48,2.43,2.38,4.82,4.87,7.76,6.66,2.78,1.7,5.99,2.57,9.31,2.63.72.01.72-1.08,0-1.09h0Z"/><path class="cls-2" d="m1289.06,657.71c1.55-1.38,5.05-4.36,7.25-3.05,1.93,1.15,1.24,5.34.41,7.05-.61,1.26-2.66,2.34-3.09.37-.31-1.43.15-3.13,1.92-3.1,1.06.02,2.27.38,3.01,1.13.96.97.89,2.42.91,3.7.04,2.64-.05,5.32.13,7.94.1,1.48.57,3.91,2.51,3.92,1.7,0,3.46-1.66,3.84-3.2.53-2.1.75-4.38.78-6.53.04-2.63-.43-5.17-1.4-7.59-.47-1.17-1.01-2.3-1.59-3.41-.63-1.21-1.34-2.38-1.25-3.81.04-.7-1.07-.67-1.11.03-.07,1.12.28,2.13.75,3.11.71,1.47,1.52,2.87,2.13,4.39,1.1,2.75,1.51,5.61,1.31,8.6-.09,1.37-.28,2.73-.52,4.08-.15.85-.29,1.62-.98,2.24-.76.68-2.06,1.47-2.79.4-.84-1.25-.61-3.24-.63-4.69-.02-1.69-.05-3.39-.07-5.08-.03-2.34-.12-4.68-2.53-5.76-1.77-.79-4.4-.98-5.3,1.17-.7,1.65-.38,4.46,1.78,4.65,2.51.22,3.55-2.54,3.87-4.5.36-2.19.41-5.6-2.21-6.36-2.78-.8-5.98,1.83-7.92,3.55-.54.48.25,1.22.79.74h0Z"/><path class="cls-2" d="m1302.41,651.38c.36-1.13,1.43-1.83,2.34-2.53,1.06-.8,2.14-1.57,3.25-2.31,1.95-1.3,4.02-2.75,6.23-3.58,1.92-.71,4.51-.69,6.36.12,2.1.92,2.63,3.39,2.41,5.49-.41,3.88-2.98,7.25-5.65,10.03-2.65,2.76-5.82,5.2-6.13,9.23-.25,3.33,2.01,6.54,5.53,6.71,3.26.16,6.1-2.24,6.36-5.45.12-1.51-.34-3.02-1.32-4.15-.69-.79-1.83-1.39-2.09-2.46s.55-2.01,1.21-2.83c2.48-3.07,4.73-6.51,5.35-10.42s-.51-8.2-3.84-10.53c-1.56-1.09-3.44-1.66-5.36-1.77-1.18-.07-2.38.06-3.53-.24-1.22-.33-2.22-1.01-3.02-1.94-.45-.52-1.24.28-.78.8,1.11,1.28,2.63,2.14,4.35,2.36,2.03.26,4,0,5.94.76,3.85,1.52,5.56,5.48,5.27,9.44-.31,4.18-2.77,7.8-5.36,11.04-.89,1.11-1.78,2.44-1.27,3.87.27.76.87,1.32,1.45,1.85.82.76,1.49,1.49,1.77,2.6.46,1.8-.16,3.87-1.74,5.02-1.48,1.07-3.62,1.3-5.2.47-2.02-1.06-2.88-3.48-2.53-5.67.33-2.05,1.54-3.76,3-5.23,2.66-2.67,5.43-5.24,7.17-8.6,1.48-2.86,2.42-6.73.61-9.55-2.09-3.26-7.43-2.96-10.61-1.38-2.3,1.15-4.49,2.61-6.59,4.1-1.67,1.18-3.99,2.48-4.65,4.51-.22.68.86.92,1.07.25h0Z"/><path class="cls-2" d="m1320.37,647.71c.36.6,1.32.02.96-.58s-1.32-.02-.96.58h0Z"/><path class="cls-2" d="m1355.01,658.81c.36.6,1.32.02.96-.58s-1.32-.02-.96.58h0Z"/><path class="cls-2" d="m1318.86,645.69c.71,1.19,2.64.04,1.93-1.15s-2.64-.04-1.93,1.15h0Z"/><path class="cls-2" d="m1355.3,656.93c.71,1.19,2.64.04,1.93-1.15s-2.64-.04-1.93,1.15h0Z"/><path class="cls-2" d="m1315.94,648.37c1.07,1.79,3.96.06,2.89-1.73s-3.96-.06-2.89,1.73h0Z"/><path class="cls-2" d="m1356.74,660.3c1.07,1.79,3.96.06,2.89-1.73s-3.96-.06-2.89,1.73h0Z"/></g><g><path class="cls-2" d="m1278.72,303.18c-3.43,1.31-7.85,1.04-9.82-2.51-.84-1.52-1.07-3.45-.29-5.1s2.42-2.74,4.05-3.4c3.35-1.37,7.5-2.03,11-1.37,3.25.62,7.41,3.61,6.08,7.7-.57,1.75-2.23,3.11-4.02,2.82-1.96-.32-3.21-2.18-3.64-4.08s-.27-3.89-.13-5.81c.16-2.21.45-4.41.86-6.58,1.6-8.4,4.96-16.49,9.83-23.47,2.33-3.34,5.09-6.43,8.41-8.71,2.97-2.04,6.29-3.44,9.71-4.29s6.93-1.16,10.41-1.04c1.49.05,3.15.47,4.64.16s2.19-1.75,2.67-3.18c1.25-3.74.97-8.14.33-11.93-.26-1.54-.88-2.87-2.09-3.81-1.37-1.05-3.16-1.56-4.77-2.09-7.46-2.45-15.42-3.39-23.3-2.76-2.38.19-6.94.28-7.51,3.58-.23,1.31.47,2.48,1.32,3.34,1.26,1.27,2.82,2.27,4.28,3.26,3.29,2.23,6.78,4.13,10.42,5.71,1.35.59,3,1.46,4.53.91,1.2-.44,1.84-1.67,1.85-2.94,0-1.63-1.06-2.92-2.02-4.04-.44-.51-1.21.24-.77.74.65.76,1.38,1.56,1.66,2.57s0,2.3-1.07,2.67c-.86.29-1.83-.11-2.61-.42-1.03-.41-2.05-.87-3.05-1.34-3.71-1.76-7.25-3.88-10.56-6.34-1.18-.87-3.44-2.29-2.91-4.17s3.21-2.13,4.7-2.29c4.11-.45,8.25-.46,12.33-.06s8.14,1.24,12.05,2.5c1.73.56,3.81,1.06,5.19,2.35,1.48,1.39,1.5,3.8,1.66,5.75.19,2.2.26,4.45-.15,6.65-.2,1.05-.49,2.15-.97,3.11-.58,1.14-1.48,1.27-2.59,1.2-3.41-.24-6.76-.32-10.17.15-6.98.97-13.56,4.01-18.58,9.37-5.58,5.96-9.6,13.73-12.06,21.56-1.26,3.99-2.11,8.12-2.53,12.27-.35,3.38-.87,7.62,1.23,10.45,1.79,2.42,5.12,2.97,7.27.54s1.66-5.64-.08-7.89c-2.14-2.78-5.79-3.54-9.09-3.41s-6.94.75-9.8,2.51c-2.61,1.61-4.1,4.54-3.23,7.62s3.58,5.01,6.63,5.31c1.67.16,3.36-.13,4.95-.74.62-.24.41-1.29-.22-1.05h0Z"/><path class="cls-2" d="m1278.92,304.25c.92-.17,2.72-.28,2.54,1.19-.13,1.14-1.62,1.43-2.48,1.49-1.77.13-3.56-.09-5.26-.52-3.16-.8-6.82-2.28-7.85-5.82-.41-1.41-.43-2.95,0-4.39.51-1.74,1.65-3.21,2.34-4.88,1.12-2.73,1.36-6.04-.37-8.47-.96-1.34-2.37-2.17-3.78-2.9s-4.31-1.66-3.95-3.82c.11-.68-.92-.69-1.03-.01-.31,1.82,1.1,2.99,2.46,3.74,1.74.97,3.76,1.67,5.12,3.22,1.5,1.71,1.7,4.18,1.11,6.4-.61,2.26-2.12,4.07-2.82,6.28-1.02,3.2-.08,6.89,2.42,8.93,3.08,2.5,7.84,3.65,11.75,3.31,1.48-.13,3.38-.88,3.44-2.75.07-2.17-2.34-2.32-3.84-2.05-.66.12-.43,1.17.22,1.05h0Z"/><path class="cls-2" d="m1290.34,312.3c.3,4.06.92,9.1,4.99,10.84,3.3,1.41,8.37.04,9.94-3.64.85-2,.8-4.41.68-6.53-.11-1.99-.43-3.97-1.13-5.82-1.3-3.44-4.6-7-8.52-6.09-1.55.36-2.96,1.65-3.41,3.27-.5,1.78.44,3.44,1.91,4.25,1.89,1.04,4.16.58,6.16,0,2.21-.64,4.35-1.57,6.42-2.64,4.25-2.2,8.36-4.88,12.32-7.62,4.16-2.88,7.8-6.34,11.1-10.25,1.78-2.11,3.48-4.29,5.18-6.48,1.68-2.17,3.22-4.39,4.26-6.97,1.92-4.77,2.15-10.17.65-14.99-.2-.65-1.21-.39-1.01.26,1.16,3.71,1.27,7.74.3,11.58-1.06,4.19-3.44,7.46-6.03,10.79s-5.22,6.62-8.2,9.56-6.51,5.48-10.09,7.78c-3.34,2.14-6.68,4.33-10.24,6.03-1.8.86-3.65,1.59-5.57,2.08s-4.37.82-5.74-.93.15-4.04,1.93-4.61c1.9-.61,3.91.37,5.26,1.67,2.52,2.45,3.35,6.21,3.46,9.74.07,2.19.14,4.93-1.36,6.71-1.32,1.58-3.48,2.22-5.39,2.25-5.43.08-6.5-5.72-6.83-10.25-.05-.68-1.08-.71-1.03-.01h0Z"/><path class="cls-2" d="m1340.83,259.5c-1.36-3.62-2.86-7.19-4.49-10.68-.77-1.64-1.67-3.23-2.38-4.9-.42-.98-.64-2.03.26-2.83.58-.51,1.28-.8,1.79-1.4,1.03-1.21,1-2.8,1.1-4.29.13-1.99,1-3.63,2.47-4.93,1.35-1.2,3.02-1.93,4.68-2.49s3.5-1.13,5.29-1.36c.66-.08.43-1.13-.22-1.05-2.76.35-5.8,1.27-8.3,2.63-2.27,1.23-4.36,3.32-4.82,6.03-.27,1.59.15,3.65-1.1,4.91-.87.88-2.09,1.19-2.47,2.52-.34,1.18.2,2.37.69,3.37.74,1.49,1.48,2.97,2.18,4.48,1.6,3.43,3.06,6.94,4.4,10.5.24.64,1.16.11.92-.52h0Z"/><path class="cls-2" d="m1349.4,226.6c.86-.11,1.72-.17,2.59-.17.97,0,2.07-.11,2.82.53,1.18,1,1.02,3.61.95,5.14-.15,3.4-1.07,6.92-2.83,9.85-.85,1.41-1.9,2.65-3.13,3.7-1.15.98-2.41,1.84-3.48,2.92-1.91,1.93-2.76,4.51-1.97,7.16.95,3.23,3.7,5.16,6.57,6.34.61.25.92-.79.32-1.04-3-1.24-6.1-3.59-6.16-7.32s3.22-5.38,5.54-7.39c4.69-4.08,6.87-11.34,6.03-17.45-.19-1.41-.35-3.11-1.91-3.35-1.83-.28-3.72-.2-5.56.03-.66.08-.43,1.13.22,1.05h0Z"/><path class="cls-2" d="m1350.9,262.01c2.66,1.32,5.38,2.52,7.24,5.01,1.75,2.34,2.32,5.07,2.36,8.03,0,.69,1.04.71,1.03.01-.02-1.59-.1-3.16-.55-4.68-.41-1.36-1.02-2.63-1.82-3.77-1.93-2.76-4.81-4.09-7.68-5.52-.59-.29-1.16.63-.57.92h0Z"/><path class="cls-2" d="m1360.52,274.83c-.5,9.2-3.47,18.16-8.49,25.87-.38.58.48,1.15.86.57,5.12-7.86,8.15-17.04,8.66-26.42.04-.69-.99-.71-1.03-.01h0Z"/><path class="cls-2" d="m1352.01,300.77c-.61,1.3-1.41,2.51-2.52,3.4-.59.48-1.27.87-1.98,1.08-1.19.34-1.37-.24-1.64-1.29-.85-3.29-1.55-6.64-2.08-10.01s-.99-6.73-1-10.13c0-1.64.09-3.29.36-4.91.06-.38.09-1.06.28-1.41.15-.27-.09-.34.32-.25.37.08.2.11.31.41.27.7.14,1.8.11,2.56-.13,3.34-.16,6.6.11,9.92.26,3.12.39,6.39,1.41,9.33.35,1.02.87,2.27,1.96,2.61s2.25-.62,3.17-1.18c2.69-1.64,5.35-3.4,7.86-5.34,1.49-1.15,2.9-2.41,4.2-3.81,1.09-1.17,2.2-2.4,2.87-3.89,1.42-3.17.45-6.75,1.56-9.99.23-.66-.76-.96-.98-.3-1.06,3.11-.18,6.54-1.39,9.59-.68,1.71-2.06,3.11-3.3,4.39s-2.56,2.4-3.95,3.46c-1.47,1.11-2.98,2.15-4.52,3.16-1.39.91-2.88,2.1-4.4,2.72-2.78,1.15-3.17-7.57-3.33-9.27-.34-3.69-.44-7.32-.26-11.04.07-1.29.21-3.16-.43-4.32-.52-.93-1.66-.6-2.09.26-.65,1.31-.72,3.28-.82,4.71-.13,1.78-.1,3.56.02,5.32.24,3.44.74,6.85,1.36,10.22.38,2.04.81,4.07,1.3,6.08.29,1.2.39,3.2,1.77,3.54,1.21.3,2.67-.52,3.63-1.25,1.29-.98,2.25-2.34,2.94-3.82.29-.62-.57-1.2-.86-.57h0Z"/><path class="cls-2" d="m1367.33,278.06c.32-2.08,2.58-2.99,4.33-2.58,1.93.45,3.3,2.14,5.12,2.87.61.25.93-.79.32-1.04-1.11-.44-2.03-1.25-3.02-1.9s-2-1.07-3.15-1.11c-2.18-.08-4.26,1.41-4.62,3.74-.11.69.92.7,1.03.01h0Z"/><path class="cls-2" d="m1305.01,254.94c1.89.58,2.85-2.53.95-3.11s-2.85,2.53-.95,3.11h0Z"/><path class="cls-2" d="m1308.44,256.9c1.26.39,1.9-1.69.63-2.07s-1.9,1.69-.63,2.07h0Z"/><path class="cls-2" d="m1308.92,253.06c.63.19.95-.84.32-1.04s-.95.84-.32,1.04h0Z"/><path class="cls-2" d="m1350.19,298.51c.63.19.95-.84.32-1.04s-.95.84-.32,1.04h0Z"/><path class="cls-2" d="m1346.81,298.22c1.26.39,1.9-1.69.63-2.07s-1.9,1.69-.63,2.07h0Z"/><path class="cls-2" d="m1347.57,302.49c1.89.58,2.85-2.53.95-3.11s-2.85,2.53-.95,3.11h0Z"/></g><g><path class="cls-2" d="m1361.67,144.16c1.49,1.62-.07,3.71-1.13,5.01-1.27,1.57-2.57,3.11-3.87,4.65-2.43,2.87-4.84,5.81-7.45,8.5-1.16,1.2-2.57,2.44-4.27,2.49s-3.22-1.13-4.41-2.35c-1.04-1.06-2.9-2.71-2.58-4.43.19-1.03.99-1.89,1.6-2.67s1.27-1.62,1.91-2.42c2.44-3.1,4.89-6.2,7.33-9.3,1.17-1.48,2.34-2.96,3.51-4.45.73-.93,1.67-1.98,1.47-3.3-.14-.9-.86-1.72-1.76-1.68-1.34.07-2.36,2.02-3.12,2.95-2.46,3.02-4.92,6.03-7.38,9.05-1.18,1.44-2.35,2.89-3.53,4.33-1.1,1.35-2.2,3.19-3.68,4.09-1.84,1.11-3.43-.81-4.67-2.02-1.31-1.28-2.7-2.52-3.94-3.87-.56-.6-1.14-1.36-1.06-2.27.16-1.74,1.77-1.07,2.57-.35,1.19,1.08,2.12,2.52,2.94,3.92,1.54,2.64,2.64,5.53,3.89,8.32,2.17,4.84,5.81,11.66,11.79,10.99,2.68-.3,4.94-2.12,6.78-4.09,2.39-2.56,4.44-5.52,6.59-8.3s4.57-5.57,5.25-9.13c.3-1.54.32-3.18-.6-4.49-1.12-1.6-2.79-2.92-4.16-4.29-3.08-3.08-6.15-6.15-9.23-9.23-2.54-2.54-5.01-5.25-8.32-6.65-.2-.09-.46.02-.61.17-4.11,4.22-8.09,8.57-11.94,13.05-1.65,1.93-3.22,4.17-5.31,5.59-2.38,1.62-4.76,1.1-6.62-1.07-.78-.92-1.42-1.96-2.05-3-.36-.59-.72-1.18-1.08-1.77-.38-.62-1.06-1.38-1.22-2.11-.26-1.17,1.23-3.07,1.8-4.01.74-1.22,1.55-2.41,2.4-3.55,1.61-2.15,3.36-4.17,5.17-6.13.8-.87,1.62-1.74,2.44-2.6.97-1.02,1.93-2.26,3.23-2.8,2.71-1.12,5.4.9,7.27,2.8.84.85,3.42,3.18,1.28,4-1.4.53-2.68-1.03-3.39-2.08-1.46-2.14-2.28-4.67-3.56-6.92s-2.87-4.07-4.66-5.75c-3.08-2.9-7.35-6.82-11.76-6.61-1.02.05-2,.35-2.87.9-.99.62-1.78,1.58-2.82,2.12-1.44.76-3.37.15-2.62-1.9.49-1.35,1.73-2.52,2.81-3.36,2.4-1.88,5.22-2.57,8.17-2.58s5.83.42,8.73-.1c5.18-.94,8.76-5.3,11.93-9.39.51-.65-.37-1.59-.88-.94-1.85,2.39-3.75,4.84-6.13,6.66-2.61,1.98-5.47,2.65-8.65,2.61s-6.12-.46-9.11.3c-2.54.65-4.91,2.14-6.67,4.18-1.31,1.52-2.72,4.54-.36,5.86s4.21-.89,5.92-2.1c2.87-2.04,6.26-.3,8.81,1.5s4.96,3.85,6.98,6.25,3.14,5.28,4.59,8.08c1.01,1.95,2.66,4.77,5.08,4.69s3.22-2.61,1.82-4.45c-1.63-2.14-3.96-4.39-6.51-5.13s-4.7.3-6.57,2.25c-2.21,2.29-4.4,4.62-6.45,7.07s-3.83,4.87-5.35,7.59c-.55.97-1.4,2.16-1.34,3.35.07,1.38,1.29,2.72,1.97,3.83,1.49,2.42,3.05,5.42,5.81,6.37s5.29-.78,7.18-2.71c2.61-2.66,4.9-5.69,7.39-8.47,2.62-2.93,5.31-5.8,8.05-8.61l-.61.17c3.36,1.42,5.9,4.44,8.47,7.02,2.84,2.84,5.68,5.68,8.52,8.52.71.71,1.42,1.42,2.13,2.13s1.58,1.38,2.08,2.25c.98,1.73.05,4.34-.76,5.95-1.7,3.4-4.39,6.3-6.68,9.26-2.06,2.67-4.11,5.68-7,7.42-3.3,1.99-6.62.84-9.11-1.95-4.29-4.81-5.51-11.69-9.07-17.01-1.13-1.7-3.73-5.44-6.05-3.62s.04,4.85,1.49,6.27c1.31,1.28,2.6,2.6,3.94,3.84,1.09,1.01,2.35,1.97,3.87,1.73,1.14-.18,2.04-.99,2.81-1.85,1.4-1.57,2.69-3.27,4.02-4.91,2.51-3.08,5.03-6.16,7.54-9.25.59-.72,1.18-1.44,1.77-2.16.32-.39.64-.79.96-1.18.22-.27.56-.89.87-1.05,1.2-.64.99.61.67,1.21-.23.43-.56.79-.86,1.17-.63.81-1.27,1.62-1.91,2.42-2.55,3.23-5.1,6.47-7.65,9.7-1.25,1.59-2.54,3.16-3.76,4.78-.8,1.06-1.56,2.28-1.4,3.7.19,1.71,1.61,3.09,2.69,4.25s2.22,2.15,3.62,2.68c3.41,1.29,6.11-1.4,8.28-3.82,3.02-3.37,5.97-6.81,8.86-10.31,1.79-2.16,5.03-5.59,2.41-8.44-.56-.61-1.44.32-.88.94h0Z"/><path class="cls-2" d="m1299.52,104.92l-3.15,3.94.76-.1c-.97-.64-3.56-2.01-3.3-3.48.1-.57.69-1.36.98-1.84.44-.73.92-1.42,1.44-2.08.87-1.08,1.84-2.09,2.92-2.94.72-.57,1.86-1.5,2.73-.66.75.72.5,2.11.36,2.99-.23,1.4-.24,2.6-.27,4.01-.03,1.65-1.15,2.3-1.82,3.62-.59,1.15-.04,1.8-.02,2.97.02,1.35-1.24,2.81-1.59,4.11-1.47,5.4,1.54,10.64,5.53,13.78,2.04,1.6,5.58,2.45,5.34,5.73-.22,3.08-3.1,4.97-5.01,6.91-2.16,2.19-3.31,4.9-3.06,8.11s1.79,6.32,3.3,9.2c.39.74,1.47.08,1.08-.67-1.65-3.14-3.44-6.54-3.13-10.27.32-3.92,3.31-5.73,5.66-8.3,1.74-1.9,3.13-4.63,2.08-7.3-.46-1.16-1.3-1.83-2.32-2.42-1.44-.83-2.83-1.68-4.09-2.8-2.5-2.24-4.39-5.32-4.49-8.87-.05-1.81.44-3.34,1.23-4.92.27-.55.55-1.1.66-1.72.16-.88-.38-1.63-.26-2.46.17-1.16,1.51-1.98,1.91-3.09.54-1.5.11-3.24.37-4.8.22-1.28.5-2.52,0-3.77-.46-1.16-1.45-1.87-2.65-1.69-1.45.21-2.81,1.6-3.84,2.63-1.2,1.19-2.27,2.56-3.15,4.03-.66,1.1-1.75,2.61-.99,3.92s2.54,2.4,3.76,3.21c.22.14.58.11.76-.1l3.15-3.94c.52-.65-.36-1.59-.88-.94h0Z"/><path class="cls-2" d="m1300.33,105.83c.3-.44.52-.96.64-1.49.06-.28.1-.57.11-.86s.01-.63-.13-.9c-.36-.65-1.22-.51-1.76-.26-.43.2-.8.54-1.12.9-.4.45-.77.94-1.15,1.41-.21.26-.26.68,0,.94.23.23.66.28.88,0,.37-.46.73-.93,1.11-1.37.08-.09.16-.18.24-.26.08-.08.16-.19.26-.24-.14.08.04-.03.07-.05.05-.04.11-.07.16-.1,0,0,.12-.06.12-.07-.08.03-.09.04-.02.01.03-.01.06-.02.09-.03.03,0,.06-.02.09-.02.07-.01.06-.01-.03,0,.03-.02.11,0,.14,0,.03,0,.06,0,.09,0-.09-.02-.1-.02-.03,0-.13-.05-.22-.15-.26-.29.02.07.02.05,0-.05.04.03,0,.33,0,.38,0,.07-.01.15-.02.22-.01.14.02-.11,0,.04-.05.27-.11.54-.22.8.06-.14-.02.04-.03.07-.03.06-.06.12-.09.17-.07.13-.15.25-.23.37-.19.28-.05.75.22.91.32.18.65.06.86-.24h0Z"/></g><g><path class="cls-2" d="m131.74,271.96c1.56-1.27,3.25-2.46,5.48-2.06,1.87.33,3.69,1.54,5.21,2.89,3.27,2.91,5.37,7.21,6.23,11.42.77,3.77.72,8.23-2.04,10.53-1.18.98-2.78,1.51-4.41,1.21-1.98-.36-3.37-2.18-5.27-2.8-2.03-.67-3.95-.28-5.91-.17-1.74.1-3.38-.44-4.59-2.11-1.45-2-2.17-4.65-3.1-6.9-1.1-2.64-2.24-5.26-3.44-7.87-.57-1.24-1.15-2.97-2.31-3.78s-2.65-.72-3.84-.54c-2.09.31-4.38,1.15-5.96,2.52-.85.74-1.38,1.68-1.14,3s1.02,2.76,1.58,4.05c1.15,2.69,2.32,5.37,3.59,8.01,1.4,2.92,2.91,5.8,4.61,8.57,1.42,2.31,3.79,5.8,6.59,4.92,1.33-.42,1.97-2.17,1.53-3.68-.57-1.94-2.49-1.7-3.62-1.03-2.29,1.34-3.38,4.19-4.38,6.68-.28.71-1.36.02-1.08-.68.9-2.25,1.86-4.6,3.58-6.2,1.19-1.11,2.92-2.09,4.71-1.31s2.38,3.14,1.97,4.84c-.44,1.82-1.92,2.94-3.75,2.74-1.98-.21-3.69-1.69-4.98-3.4-1.77-2.35-3.19-5.05-4.54-7.65s-2.68-5.47-3.9-8.25c-.58-1.33-1.16-2.66-1.73-3.99s-1.27-2.64-1.41-4.01c-.2-1.99,1.03-3.37,2.41-4.27,1.83-1.19,4.11-2.01,6.35-2.2,1.77-.15,3.73.18,5.04,1.92.78,1.04,1.27,2.31,1.8,3.48.63,1.38,1.25,2.76,1.85,4.15,1.21,2.79,2.27,5.64,3.5,8.42.59,1.34,1.39,2.73,2.8,3.16,1.22.37,2.48.04,3.66-.05,1.9-.14,3.93,0,5.78,1.06,1,.57,1.84,1.5,2.91,1.91s2.23.31,3.19-.11c4.84-2.09,3.4-10.12,1.32-14.71-1.22-2.7-3.08-5.24-5.45-6.92-1.2-.85-2.59-1.62-3.96-1.67-1.67-.06-2.98,1.04-4.17,2.01-.56.46-1.24-.68-.69-1.13h0Z"/><path class="cls-2" d="m116.49,304.92c-2.49,4.07-6.33,6.61-10.38,8.73-1.96,1.02-3.93,2.04-5.99,2.85-2.37.92-4.93,1.35-7.47,1.76-.72.12-1.14-1.13-.41-1.24,2.33-.38,4.7-.76,6.89-1.55,2.05-.74,3.99-1.76,5.91-2.75,3.98-2.06,7.93-4.46,10.38-8.48.38-.63,1.47.05,1.08.68h0Z"/><path class="cls-2" d="m67.44,307.72c-.29-2.48.02-4.88.51-7.19s.98-4.72,2.21-6.62c.4-.62,1.32.32.92.93-1.14,1.76-1.56,4.1-2,6.24s-.73,4.38-.46,6.7c.1.82-1.08.75-1.17-.07h0Z"/><path class="cls-2" d="m92.56,318.2c-3.53,1-7.39.86-11.16-.39s-7.63-3.52-11.32-5.54c-.72-.39-.23-1.46.48-1.07,3.52,1.92,7.05,4.03,10.76,5.31s7.39,1.43,10.84.46c.7-.2,1.11,1.05.41,1.24h0Z"/><path class="cls-2" d="m70,294.24c1.04-2.34,2.66-5.51,5.21-6.16s4.24,1.57,5.28,3.91c.97,2.2,2.07,5.74.64,7.62s-3.67.86-4.75-1.3c-1-2.01-1.03-4.36.98-5.08,2.23-.79,5.07-.16,6.67,2.25.94,1.41,1.53,3.12,2.2,4.66.76,1.72,1.51,3.45,2.27,5.17.52,1.18,1.99,5.13,3.74,4.38.69-.29,1.33-1.45,1.47-2.21.18-.94-.26-2.07-.52-3.03-1.07-3.94-2.53-7.83-5.04-11.18-1.35-1.8-2.92-3.42-4.52-4.96-1.38-1.33-2.73-2.59-3.43-4.45-.3-.79.81-1.05,1.11-.26.6,1.61,1.88,2.7,3.06,3.85s2.33,2.31,3.4,3.56c1.77,2.08,3.23,4.35,4.35,6.85,1.18,2.63,2.1,5.49,2.67,8.27.39,1.9-.49,4.22-2.16,4.81-1.89.67-3.55-1.79-4.37-3.46-1.3-2.62-2.38-5.36-3.55-8.03-.66-1.49-1.27-3.46-2.62-4.47-1.15-.85-2.64-.94-3.83-.65-1.47.35-1.68,1.56-1.07,3.07.24.58.65,1.44,1.22,1.76.67.38,1.42.02,1.79-.5.84-1.18.25-3.35-.2-4.76s-1.16-3.32-2.42-4.22c-2.99-2.14-5.61,3.2-6.51,5.24-.31.69-1.38.01-1.08-.68h0Z"/><path class="cls-2" d="m98.1,274.48c-.62.38-1.31-.75-.69-1.13s1.31.75.69,1.13h0Z"/><path class="cls-2" d="m137.7,276.51c-.62.38-1.31-.75-.69-1.13s1.31.75.69,1.13h0Z"/><path class="cls-2" d="m96.33,272.78c-1.23.75-2.61-1.51-1.38-2.26s2.61,1.51,1.38,2.26h0Z"/><path class="cls-2" d="m137.78,274.42c-1.23.75-2.61-1.51-1.38-2.26s2.61,1.51,1.38,2.26h0Z"/><path class="cls-2" d="m95.39,276.74c-1.85,1.13-3.92-2.26-2.07-3.39s3.92,2.26,2.07,3.39h0Z"/><path class="cls-2" d="m141.49,277.86c-1.85,1.13-3.92-2.26-2.07-3.39s3.92,2.26,2.07,3.39h0Z"/><path class="cls-2" d="m80.94,285.29c-1.73-2.42.16-5.03,1.14-6.9,1.29-2.47,2.69-4.9,4.51-6.93,2.97-3.31,7.85-6.14,12.17-1.77,3.99,4.03,3.75,9.76,2.8,14.44-.59,2.91-1.59,5.61-2.29,8.47-.66,2.71-.85,5.77.81,8.52,2.09,3.46,6.28,3.35,8.48,1.06,1.14-1.2,1.16-3.16.33-4.86-.88-1.8-2.52-3.01-4.15-3.86-.72-.38-.23-1.45.48-1.07,2.41,1.26,4.7,3.36,5.3,6.24.53,2.53-.51,4.44-2.4,5.51s-4.3,1.46-6.49.16c-2.05-1.22-3.32-3.65-3.81-5.94-.58-2.75.02-5.37.75-7.8.85-2.87,1.73-5.72,2.18-8.76s.48-6.23-1.13-9.09c-1.44-2.56-3.91-4.45-6.54-3.97-3.19.58-5.65,3.45-7.41,6.04-1,1.47-1.87,3.06-2.7,4.67-.71,1.38-2.33,3.51-1.07,5.27.49.69-.47,1.27-.96.58h0Z"/><path class="cls-2" d="m105.25,293.77s-.09-.06-.14-.08c-.03-.02-.08-.03-.1-.05.09.04.1.05.04.02-.02,0-.04-.01-.05-.02-.04-.02-.08-.03-.13-.05-.04-.01-.07-.02-.11-.03-.03,0-.12-.01-.15-.04l.08.02s-.05,0-.07-.01c-.04,0-.07,0-.11-.01-.09,0-.17,0-.25,0-.12,0,.13-.02-.01,0-.04,0-.08.01-.12.02-.07.01-.16.07-.23.07l.08-.03s-.04.02-.06.03c-.04.02-.07.04-.1.06-.11.08.07-.08,0,0-.02.02-.04.06-.06.08.05-.08.06-.09.03-.04,0,.02-.01.03-.02.05-.01.04,0,.02.02-.06,0,.02,0,.05,0,.08,0-.09,0-.11,0-.04v.04c-.02-.1-.02-.11,0-.04,0,.03.02.05.03.08.01.03.05.09.05.12-.04-.1-.05-.11-.02-.05.01.02.02.04.03.06.05.09.1.17.16.25.04.06.04.05-.02-.03.02.02.04.05.06.07.03.04.06.07.09.1.06.07.15.18.23.22-.07-.05-.08-.06-.04-.03.02.01.04.03.05.04.05.04.1.07.15.1.28.18.44.6.3.88s-.48.39-.78.2c-.4-.25-.75-.59-1.03-1s-.49-.92-.43-1.4c.12-.89,1.1-1.17,1.86-1.09.44.05.88.2,1.28.45.28.18.44.6.3.88s-.48.39-.78.2h0Z"/><path class="cls-2" d="m70.14,312.23c-.34-.38-.63-.78-.83-1.25-.16-.38-.22-.82-.16-1.2.07-.42.3-.8.65-.99.2-.1.41-.16.65-.16.21,0,.42.07.62.15.3.12.55.46.49.8-.06.31-.36.54-.68.41-.09-.04-.18-.07-.27-.09-.05-.01-.02,0,.07.01-.02,0-.04,0-.06,0-.04,0-.08,0-.12,0h.15c-.09,0-.17.01-.25.05l.14-.06c-.07.03-.13.07-.19.12l.11-.1c-.06.05-.11.11-.15.17l.08-.13c-.03.06-.06.12-.08.18.07-.16.02-.08.01-.02,0,.03-.01.07-.02.1,0,.02,0,.04,0,.06v-.1s0,.09,0,.12c0,.07.02.14.03.22l-.03-.16c.03.15.08.29.15.43l-.07-.16c.1.21.23.41.37.59l-.11-.14c.08.1.16.19.24.28.23.26.31.67.09.9-.2.21-.59.24-.83-.04h0Z"/><path class="cls-2" d="m132.41,273.24c-1.55.96-3.24,2.31-5.13.45-1.61-1.59-1.64-3.93-.72-5.58,1.29-2.33,4.01-3.4,5.99-4.92,2.34-1.8,4.49-3.89,6.36-6.23.79-.99,1.49-2.1,1.31-3.58-.2-1.62-1.38-3.12-2.94-3.24-3.39-.26-2.14,4.01-.9,6.09.78,1.32,1.7,2.39,3.08,2.89,1.28.46,2.63.36,3.85.13,1.28-.25,2.61-.62,3.64-1.41,1.19-.92,1.88-2.38,2.66-3.69,2.52-4.25,7.28-6.21,12.33-4,.73.32.55,1.53-.19,1.21-2.62-1.15-5.43-1.15-7.72.06-2.48,1.31-3.37,3.93-5.01,6.12-2.49,3.34-9.33,4.94-12.72.57-1.36-1.75-2.7-4.38-2.42-6.53s2.22-3.17,4.22-2.54c2.11.67,3.43,3.11,3.33,5.27-.13,2.81-2.65,4.95-4.33,6.63-1.16,1.16-2.39,2.25-3.68,3.25s-2.81,1.86-4.16,2.89c-1.26.96-2.7,2.64-1.95,4.66.31.84,1.09,1.63,1.93,1.66.95.04,1.76-.83,2.5-1.29.61-.38,1.3.75.69,1.13h0Z"/><path class="cls-2" d="m68.46,307.98c-.21,2.6-2.54,4.98-4.92,5.29-1.18.15-2.36-.38-3.28-1.37-.77-.84-1.74-2.29-1.5-3.43.22-1.04,1.34-1.11,2.13-.45.95.79,1.16,2.17.96,3.24-.55,2.97-3.98,5.24-2.63,8.79.81,2.11,3.12,3.81,4.84,5.01,1.5,1.04,3.15,2.08,3.68,4.01.22.8-.88,1.08-1.11.26-.52-1.92-2.58-2.8-3.99-3.88-1.26-.96-2.52-2.04-3.5-3.33-1.92-2.52-1.5-5.27-.28-7.55.63-1.18,1.57-2.28,1.83-3.69.07-.41.11-.89-.06-1.32-.12-.3-.61-1.13-.68-.29-.04.55.93,1.68,1.27,2,2.48,2.37,5.88-1.2,6.08-3.66.06-.8,1.23-.41,1.16.39h0Z"/></g><g><path class="cls-2" d="m84.84,1021.58c-.77,2.03-3.31,1.23-4.87.7-1.9-.65-3.79-1.33-5.68-2.02-3.52-1.29-7.11-2.53-10.55-4.06-1.53-.68-3.2-1.61-3.96-3.25s-.34-3.55.21-5.15c.48-1.39,1.11-3.76,2.71-4.09s3.55.73,5.02,1.21c3.73,1.22,7.46,2.44,11.19,3.66,1.78.58,3.57,1.17,5.35,1.75,1.22.4,2.78,1.17,4.04.69.79-.3,1.43-1.19,1.23-2.11-.3-1.37-2.07-1.66-3.13-2.02-3.59-1.24-7.17-2.48-10.76-3.71-1.67-.58-3.35-1.16-5.02-1.73-1.81-.63-3.72-1.13-5.48-1.93-1.15-.53-2.04-1.34-2.02-2.72.01-.77.26-1.52.48-2.23.59-1.92,1.16-3.86,1.83-5.75.32-.89.69-1.95,1.65-2.27,1.59-.52,1.7,1.3,1.4,2.38-.44,1.57-1.34,3.05-2.22,4.37-1.69,2.52-3.79,4.69-5.72,7-3.23,3.87-7.46,9.9-4.29,15.34,1.48,2.55,4.14,4.05,6.72,5.1,3.24,1.32,6.65,2.22,9.97,3.26s6.52,2.21,9.79,1.63c1.5-.27,3.01-.89,3.76-2.31.86-1.64,1.28-3.63,1.87-5.39,1.34-4.04,2.68-8.08,4.03-12.13,1.16-3.48,2.59-7.02,2.4-10.84-.02-.32-.18-.54-.46-.66-5.33-2.38-10.73-4.6-16.18-6.64-2.45-.92-5.16-1.62-7.35-3.18-2.5-1.78-2.91-4.41-1.72-7.03.46-1.02,1.07-1.96,1.66-2.9.76-1.21,1.74-3.76,3.27-3.85,1.22-.07,2.68.33,3.88.59,1.36.29,2.71.65,4.04,1.05,2.47.76,4.9,1.7,7.3,2.69,1.17.49,2.33.99,3.49,1.49,1.27.55,2.67,1.04,3.6,2.17,1.9,2.33,1.17,5.59.3,8.06-.38,1.09-1.32,4.2-2.88,2.42-1.03-1.17-.17-3,.43-4.06,1.24-2.21,3.09-3.94,4.5-6.02,1.28-1.89,2.2-4.04,2.89-6.25,1.29-4.13,2.87-9.77.92-14.07-1.04-2.29-2.98-2.93-4.83-4.32-1.2-.9-2.19-3.11-.08-3.44,1.39-.22,3.07.64,4.27,1.35,2.69,1.6,4.53,4.04,5.82,6.9s2.11,5.86,3.8,8.49c3.06,4.75,8.36,6.62,13.34,8.2.79.25,1.13-.99.34-1.24-2.89-.92-5.83-1.86-8.44-3.52-2.88-1.84-4.64-4.47-5.96-7.62s-2.25-6.23-4.32-8.85c-1.73-2.18-4.17-3.94-6.77-4.73-1.94-.59-4.82-.28-4.63,2.41s2.93,3.48,4.7,4.85c2.81,2.17,2.51,6.3,1.98,9.35s-1.26,6.08-2.51,8.85-3.22,4.84-4.98,7.21c-1.26,1.7-3,4.36-1.87,6.67s3.68,2.03,4.65-.02c1.11-2.36,2.05-5.26,1.67-7.97-.41-2.97-2.25-4.58-4.82-5.71-2.86-1.26-5.74-2.49-8.67-3.55s-5.71-1.87-8.65-2.36c-1.12-.19-2.49-.58-3.58-.22-1.37.46-2.08,2.31-2.81,3.47-1.47,2.33-3.42,4.98-3.04,8.01s2.88,4.75,5.35,5.88c3.44,1.57,7.09,2.67,10.6,4.06s7.29,2.99,10.9,4.6l-.46-.66c.18,3.7-1.23,7.13-2.35,10.51-1.26,3.8-2.53,7.61-3.79,11.41-.62,1.87-1.06,4.08-1.98,5.8s-3.38,1.95-5.15,1.84c-3.54-.22-7.12-1.73-10.52-2.8s-6.98-1.91-9.91-4c-3.26-2.33-4.02-5.93-2.7-9.53,2.22-6.05,7.78-9.85,10.97-15.25,1.02-1.73,3.15-5.43.9-7.22-.91-.73-2.16-.59-3.04,0-1.19.8-1.6,2.34-2.03,3.67-.6,1.87-1.28,3.74-1.78,5.64-.35,1.33-.49,2.78.31,4.03s2.23,1.78,3.51,2.24c1.91.68,3.83,1.32,5.74,1.98,3.83,1.32,7.65,2.64,11.48,3.96.96.33,1.91.66,2.87.99.4.14,2.57.56,2,1.51-.43.71-2.42-.21-2.98-.39-1.14-.37-2.27-.74-3.41-1.11-3.89-1.27-7.79-2.54-11.68-3.82-1.7-.55-3.39-1.19-5.1-1.65-1.28-.35-2.63-.49-3.73.31-1.22.9-1.76,2.64-2.28,4.05-.54,1.48-.95,3.08-.75,4.72.46,3.65,3.9,5.19,6.85,6.36,4.21,1.67,8.45,3.26,12.72,4.76,2.68.95,6.95,2.75,8.33-.87.29-.77-.93-1.17-1.22-.41h0Z"/><path class="cls-2" d="m92.55,946.71l-4.76-1.59.46.66c.14-1.15.31-4.27,1.67-4.43s3.13.47,4.43.91,2.59,1.02,3.79,1.75c.83.5,2.18,1.42,1.6,2.55-.46.88-1.55,1.1-2.41,1.28-1.36.29-2.42.81-3.71,1.28-1.38.5-2.45-.36-3.81-.49s-1.66.85-2.79,1.18c-1.2.34-2.72-.23-3.99-.1-5.27.56-8.59,5.37-9.62,10.36-.24,1.17-.38,2.37-.45,3.57-.1,1.68-.37,3.06-2,3.74-2.71,1.13-5.63-.87-8.09-2.03-2.82-1.33-5.59-1.62-8.36-.28-2.98,1.44-5.01,4.18-6.94,6.82-.48.65.62,1.36,1.09.71,2.14-2.91,4.55-6.16,8.25-6.99,3.45-.77,6.24,1.58,9.37,2.76,2.39.9,5.39,1,7.05-1.17.74-.97.82-2.08.89-3.29.1-1.7.32-3.38.8-4.99.94-3.16,2.89-5.99,5.89-7.3,1.51-.66,3-.7,4.65-.53.59.06,1.2.12,1.77-.01.81-.18,1.26-1,2.03-1.16,1.09-.23,2.35.74,3.49.7,1.53-.05,2.86-1.11,4.34-1.42,1.25-.26,2.53-.49,3.37-1.54.71-.88.83-2.06.18-3.08-.85-1.32-2.59-2.09-3.94-2.72-1.56-.72-3.18-1.24-4.84-1.55-1.27-.23-2.99-.72-3.8.54s-.98,3.32-1.17,4.84c-.03.28.21.58.46.66l4.76,1.59c.79.26,1.13-.98.34-1.24h0Z"/><path class="cls-2" d="m92.03,947.83c.54.14,1.08.17,1.62.11.23-.03.46-.08.68-.16.27-.09.6-.19.8-.41.49-.53.13-1.34-.31-1.81-.39-.41-.9-.67-1.42-.87-.56-.22-1.15-.4-1.72-.59-.32-.11-.7.08-.78.42s.1.71.44.83c.55.19,1.1.36,1.64.56.11.04.22.09.33.14.03.01.05.02.08.03-.07-.03-.07-.03,0,0,.05.03.1.05.14.08.11.06.21.14.31.21-.12-.1.02.02.05.05.03.03.11.1.12.14-.05-.08-.05-.08-.01-.02l.03.04s.03.06.05.09c.03.07.03.06,0-.02.04.04.02.19.02.02,0-.14.07-.25.19-.32-.02.01-.04.02-.06.04-.05.03-.11.05-.17.08-.05.02-.15.06-.04.02-.12.04-.24.08-.36.1s-.25.04-.37.06c-.07,0-.07,0,0,0-.03,0-.05,0-.08,0-.06,0-.13,0-.19,0-.13,0-.25-.01-.38-.03-.05,0-.11-.02-.16-.02.14.02-.08-.02-.11-.03-.32-.08-.7.06-.78.42-.07.32.09.74.44.83h0Z"/></g><g><path class="cls-2" d="m882.75,1002.81c.02.06.03.11.05.17l-.05-.17c.11.36.24.72.38,1.06.07.17.09.35.03.52-.05.15-.17.31-.31.37-.15.07-.32.09-.48.02-.15-.07-.28-.18-.35-.34-.18-.46-.34-.93-.48-1.4-.05-.15.02-.38.09-.5.08-.13.24-.25.39-.27s.33,0,.46.12l.12.12c.07.09.12.2.14.32h0Z"/><path class="cls-2" d="m921.91,984.68c2.09-.7,3.06-3.27,2.62-5.51-.47-2.4-2.18-4.3-4.06-5.55s-3.99-2.01-6.05-2.73c-2.17-.76-4.38-1.4-6.63-1.78-4.3-.72-8.76-.47-12.66,1.55s-6.22,5.96-8.39,10.01c-2.52,4.71-4.12,10.3-4.57,15.79-.07.85-1.3.72-1.23-.14.46-5.56,2.04-11.22,4.56-16.02,2.43-4.62,4.95-8.91,9.61-11.11s9.68-2.15,14.54-1.05c2.53.57,5.02,1.39,7.45,2.36,2.14.85,4.3,1.91,5.99,3.64s3.06,4.38,2.74,7c-.28,2.31-1.64,4.19-3.69,4.88-.75.25-.98-1.07-.24-1.32h0Z"/><path class="cls-2" d="m882.94,1003.85c1.24,3.39,5.49,6.94,8.91,5.07,2.82-1.54-.55-4.58-1.61-6.15s-1.74-3.49-1.91-5.43c-.1-1.19-.04-3.06,1.27-3.43,1.46-.41,2.06,1.5,2.18,2.69.23,2.26-.59,4.61.09,6.83.72,2.35,3.73,3.5,5.83,3.2,1.79-.26,4.64-1.64,5.53-3.42.52-1.03.37-2.26-.17-3.28-.27-.52-.66-1.03-1.11-1.39-.49-.39-.48-.35-1.05-.01-.51.05-.67.29-.48.71.01.35.13.66.36.93,1.31,1.81,4.79,1.65,6.49.94,1.8-.76,3.11-2.49,3.77-4.43,1.44-4.22-.15-9.56-2.55-13.15-.51-.77-1.1-1.49-1.77-2.1s-1.85-1.65-2.73-1.59c-1.75.11.6,2.47.98,2.93l2.48,2.93c1.82,2.15,3.62,4.32,5.46,6.45.91,1.06,1.85,1.96,3.26,1.61,1.23-.31,2.1-1.39,2.57-2.6.86-2.2,1.02-5.4.36-7.72-.14-.49-.34-1.09-.74-1.42-.79-.64-.52.53-.38,1.12.38,1.61,1.77,2.56,3.22,1.92.73-.32,1.28.89.55,1.22-2.08.92-4.34-.3-4.94-2.7-.2-.83-.56-2.55.32-3.08.77-.46,1.8.19,2.31.83,1.64,2.02,1.39,5.81,1,8.19s-1.6,4.99-4.05,5.58c-2.87.68-4.7-2.4-6.41-4.42-2.37-2.8-5-5.51-7.17-8.49-.53-.74-1.05-1.73-.69-2.65.41-1.05,1.52-1.17,2.44-.89,2.4.73,4.29,2.98,5.55,5.21,2.79,4.91,4.12,12.08.25,16.55-1.86,2.15-4.49,2.8-7.19,2.37-1.99-.32-4.65-1.88-3.99-4.52.69-2.78,3.6-1.02,4.63.55,1.39,2.12,1.24,4.75-.52,6.44-1.91,1.84-4.95,3.17-7.55,2.61s-4.83-2.02-5.28-5c-.29-1.9.2-3.76.11-5.66-.01-.29.03-1.05-.16-1.28-1.06-1.33-.91.82-.88,1.22.07.96.28,1.92.62,2.82.71,1.89,2.11,3.1,3.16,4.74.7,1.08,1.13,2.48.66,3.73-.96,2.56-4.23,2.55-6.32,1.85-2.63-.87-4.81-3.1-5.82-5.85-.29-.8.81-1.37,1.11-.56h0Z"/><path class="cls-2" d="m926.24,982.78c1.23.99,1.81,2.41,2.53,3.82.96,1.91,2.38,2.65,4.07,3.67,1.56.94,2.3,2.27,3.44,3.69,1.29,1.6,3.12,2.5,4.95,3.13,3.67,1.27,8.09,1.41,11.31-.98,2.81-2.09,4.21-5.99,3.62-9.68-.67-4.21-4.66-7.45-3.5-11.97.21-.82,1.38-.34,1.17.48-.64,2.48.79,4.76,1.91,6.84.94,1.76,1.63,3.54,1.76,5.56.23,3.5-1.05,7.08-3.53,9.3-2.85,2.55-6.83,3.09-10.46,2.42-1.87-.35-3.74-.97-5.43-1.95s-2.7-2.38-3.92-4c-1.35-1.79-3.52-2.23-5.04-3.77s-1.87-4.09-3.56-5.46c-.65-.52.04-1.61.69-1.09h0Z"/><path class="cls-2" d="m920.88,989.92c3.33.97,3.64,5.07,5.02,7.85,1.73,3.5,5.72,2.54,8.23,4.9,1.3,1.23,1.84,3.07,3,4.42s2.84,2.28,4.41,3.1c1.38.72,2.79,1.43,4.05,2.41.39.31,1.47,1.65,1.99,1.61l.27-.38c.4-.3.35-.56-.16-.76-.27-.18-.59-.29-.89-.37-.66-.18-1.3-.12-1.94.1-1.39.49-2.64,1.42-4.19.97-1.07-.31-1.86-1.24-1.85-2.46.01-1.35,1.17-2.46,1.12-3.76-.1-2.51-3.9.4-4.88.54-1.09.16-2.32-.32-2.7-1.55-.58-1.85,1.02-2.94,1.36-4.53s-1.07-1.77-2.03-1.27c-.78.41-1.35,1.23-1.98,1.86-.85.84-2.19,1.77-3.31.82s-.99-2.57-.47-3.73c.46-1.04,1.27-2.02,1.02-3.28-.28-1.43-1.7-2.34-2.97-1.8-1.15.48-2.14,2.97-3.69,1.73-.47-.38-.64-1.03-.64-1.63,0-.87,1.01-2.49.37-3.22-.56-.63.37-1.48.93-.85.47.53.61,1.12.53,1.84-.05.4-.18.77-.3,1.14-.08.24-.17.45-.22.7-.1.51-.19.62.32.67.68.07,1.46-1.27,2.16-1.58s1.46-.35,2.17-.16c1.36.37,2.37,1.65,2.6,3.13.12.75-.02,1.49-.29,2.18-.37.92-1.15,1.78-1.11,2.84.07,1.95,1.7.6,2.36-.08.58-.6,1.13-1.29,1.85-1.7,1.01-.58,2.48-.7,3.39.24,1.16,1.2.49,2.89-.19,4.09-.27.47-.8,1.15-.73,1.73.11.93.75,1.22,1.49,1.08,1.02-.19,1.83-1.06,2.8-1.38,1.12-.37,2.55-.17,3.16,1.08s-.1,2.51-.54,3.63c-.37.94-.61,2.07.61,2.41,1.04.29,2.01-.36,2.93-.75,1.49-.63,3.18-.73,4.58.36.96.75,1.55,2.36.4,3.19-1.32.96-2.59-.39-3.59-1.26-2.64-2.28-6.13-3.04-8.62-5.56-1.57-1.58-2.18-4.19-4.07-5.35-1.67-1.03-3.68-1.06-5.37-2.05s-2.51-2.65-3.14-4.49c-.71-2.09-1.37-4.76-3.63-5.42-.77-.22-.36-1.47.41-1.25h0Z"/><path class="cls-2" d="m924.98,982.02c.79-.53,1.79-1.1,2.75-1.18.84-.07,1.33.56,1.55,1.38.25.89.37,1.91.04,2.78-.3.81-.92,1.38-1.46,1.99s-1.14,1.6-.29,2.29,1.67.9,2.37.02c.55-.68.93-1.48,1.68-1.94.66-.4,1.63-.43,2.17.27.66.86-.12,2.2-.4,3.05-.14.41-.69,1.48-.42,1.92.3.51,1.11.3,1.53.21.78-.15,1.02,1.17.24,1.32s-1.7.22-2.41-.38-.74-1.52-.5-2.38c.15-.52.34-1.02.51-1.53.09-.28.19-.56.28-.84.08-.23.28-.52-.01-.59-.69-.16-1.44,1.42-1.8,1.85-.54.65-1.26,1.07-2.1.96-.79-.1-1.61-.59-2.19-1.19-1.38-1.42-.25-3.25.77-4.35.32-.35.68-.71.87-1.17.21-.53.13-1.12.01-1.67-.03-.14-.07-.54-.19-.64-.18-.15-.68.12-.86.19-.56.21-1.08.5-1.58.84-.67.45-1.21-.77-.55-1.22h0Z"/><path class="cls-2" d="m912.34,997.58c3.73.35,4.9,4.62,6.53,7.57.54.98,1.22,1.88,2.14,2.46s1.91.83,2.86,1.26c1.65.74,2.7,1.94,3.65,3.55,1.12,1.9,2.09,3.47,4.14,4.21,1.58.57,3.25.69,4.86,1.09,3.26.81,5.1,2.93,6.6,6.08.76,1.6,1.42,3.31,2.52,4.68,1.27,1.59,2.95,2.01,4.74,2.51s3.03,1.26,4.29,2.62c.61.66,1.2,1.4,1.94,1.89s1.66.52,2.45.95c.9.49,1.38,1.67.62,2.54-.89,1.01-2.69.75-3.83.45-1.22-.32-2.44-1.04-2.88-2.41-.26-.81-.15-1.6,0-2.4.11-.56.29-1.11.26-1.69-.01-.28-.02-.66-.22-.87-.44-.48-1.38.2-1.6.73-.58,1.36-.9,2.98-2.55,3.14-1.32.13-2.59-.84-3.03-2.18-.24-.74-.24-1.53-.06-2.27.23-.98.91-1.56,1.25-2.44.88-2.32-2.07-.72-2.92-.36-.64.28-1.32.44-2.02.35-1.2-.16-2.27-1.13-2.09-2.54.23-1.77,2.15-2.49,2.62-4.16.33-1.17-.18-2.68-1.48-2.74-1.19-.06-1.39,1.77-2.02,2.58-.85,1.08-2.29,1.64-3.6,1.22s-2.28-1.76-2.35-3.22c-.03-.69.16-1.26.48-1.84.27-.51.63-1.01.51-1.65-.19-1.05-1.39-1.53-2.15-.91-.69.56-.78,1.81-1.33,2.53-.44.58-1.09,1.02-1.79,1.16-1.35.26-2.84-.71-3.13-2.22s.72-2.59,1.72-3.39c.36-.29,1.89-1.22,1.81-1.8-.05-.4-.87-.44-1.08-.42-.26.02-.56.17-.79.27-.62.27-1.04.73-1.56,1.16-.97.81-2.56,1.37-3.45.02-1.04-1.58.38-3.43.49-5.03.09-1.34-.54-2.6-1.95-2.25-.93.23-1.73.95-2.55,1.43-1.15.68-2.79,1.01-3.61-.5-.74-1.36-.13-2.93.59-4.07.09-.14.38-.48.38-.62l-.24-.5c-.03-.45-.18-.6-.46-.45-.39-.01-.92.43-1.21.67-.89.76-1.64,2.04-1.05,3.29.74,1.58,2.27,2.44,1.96,4.44-.27,1.71-1.62,2.84-3.1,3.26-1.78.5-3.97.37-5.78-.04-1.51-.34-2.95-1.07-3.89-2.46-.86-1.28-1.16-2.87-.61-4.31.3-.78,1.47-.31,1.17.48-.82,2.12.87,4.08,2.67,4.74s4.21.8,5.99.33c1.1-.29,2.21-1.09,2.31-2.41.09-1.24-.96-2.04-1.56-2.99-.75-1.19-.8-2.56-.18-3.79s1.81-2.31,3.09-2.56c1.08-.21,2.27.35,2.3,1.7.03,1.46-2.33,3.19-1.28,4.62.95,1.29,3.83-1.45,5.06-1.66s2.48.55,2.95,1.86c.56,1.57,0,2.98-.42,4.44-.08.26-.28.83-.21,1.04.15.43.71.77,1.05.71.48-.09.89-.62,1.26-.92.6-.51,1.25-.91,1.99-1.13,1.09-.32,2.85-.4,2.97,1.26.12,1.55-1.29,2.43-2.27,3.22-.56.45-1.33.99-1.31,1.83.02.89.85,1.6,1.67,1.43.65-.13,1.08-.66,1.36-1.26.66-1.36,1.1-2.74,2.79-2.74,1.31,0,2.4,1.1,2.58,2.5.22,1.76-1.76,3.02-.55,4.71.67.94,1.81,1.04,2.71.49.98-.6,1.06-1.79,1.7-2.66,1.75-2.41,4.92.11,4.72,2.72-.13,1.72-1.19,2.63-2.16,3.81-.4.49-.87,1.16-.23,1.73.32.29.83.3,1.22.25.98-.12,1.81-.85,2.76-1.13,1.17-.35,2.95-.11,3.06,1.57.12,1.79-1.85,2.76-1.68,4.64.11,1.25,1.42,2.46,2.45,1.47.67-.65.74-1.8,1.22-2.61.63-1.07,1.94-1.82,3.01-.87s.95,2.45.7,3.69c-.23,1.15-.48,2.31.54,3.12.71.56,1.7.72,2.54.76.26.01.82.1,1.04-.09.51-.44-.02-.67-.43-.81-.67-.22-1.31-.35-1.92-.74-1.41-.91-2.29-2.51-3.67-3.46-1.54-1.06-3.45-1.07-5.09-1.83-1.31-.6-2.35-1.62-3.17-2.87-1.71-2.64-2.45-6.37-5.01-8.27s-5.99-1.36-8.78-2.75c-1.36-.68-2.32-1.77-3.14-3.12-1.17-1.93-2.04-3.55-4.12-4.41-1.49-.62-2.96-1.12-4.1-2.42-1.22-1.39-1.87-3.21-2.69-4.87-.86-1.75-2.11-3.57-4.06-3.76-.79-.07-.7-1.41.09-1.33h0Z"/><path class="cls-2" d="m912.08,1013.31c-.3.74-.78,1.76-.4,2.58.45.99,1.31.22,1.93-.13s1.41-.49,1.99.05.54,1.26.25,1.92c-.2.47-.72.95-.75,1.48-.06,1.07,1.04,1.47,1.74,1.02s1.2-1.18,2.13-1.21c.8-.02,1.48.52,1.65,1.39.27,1.41-.86,2.92.96,3.68,1.38.58,3.2.2,4.63.23,2.31.06,4.8.12,6.95,1.21s3.39,3.29,4.66,5.43c2.83,4.76,5.95,11.59,11.65,12.67,2.95.56,5.81-.99,8.76-.23,1.17.3,2.05.94,2.9,1.84.57.61,1.04,1,1.8,1.28.56.2.94.37,1.32.87.19.25.18.56.05.82-.8,1.52-2.61,2.23-4.16,1.56-1.84-.8-2.32-3.06-2.59-4.94-.03-.18-.01-.61-.11-.77l-.74-.33-.36.59c-.23.53-.27,1.14-.5,1.67-.36.82-1,1.4-1.83,1.59-1.83.43-3.27-1.23-3.27-3.14,0-.86,1.23-.72,1.23.14,0,1.84,2.02,2.26,2.75.76.36-.73.36-1.63.85-2.3.54-.74,1.64-1.21,2.43-.57,1.01.81.77,2.86,1.13,4.04.29.98.86,1.93,1.86,2.12s1.83-.35,2.29-1.22l.05.82c-.42-.53-1.22-.55-1.76-.88-.42-.26-.76-.61-1.1-.98-1.12-1.2-2.21-1.8-3.78-1.88-2.8-.14-5.41,1.06-8.22.23-5.38-1.59-8.31-7.43-11.12-12.15-.82-1.38-1.58-2.87-2.58-4.12s-2.33-1.99-3.82-2.35c-2.78-.68-5.58-.24-8.37-.48-1.02-.09-2.03-.41-2.74-1.28-.27-.33-.49-.72-.6-1.16-.17-.74.23-1.39.13-2.06l.04-.36-.79-.31c-.31.07-.7.58-.96.78-.31.24-.65.45-1.03.54-.8.17-1.6-.23-2.14-.89-.58-.72-.78-1.69-.46-2.55.06-.15.14-.29.22-.42.19-.35.73-.78.35-1.01s-1.15.65-1.58.81c-.89.32-1.77-.12-2.29-.98-.76-1.26-.3-2.69.18-3.91.31-.78,1.48-.31,1.17.48h0Z"/><path class="cls-2" d="m943.76,1040.47c1.08-1.44-.12-3.44-1.82-2.73-.81.34-1.44.98-2.35,1.04-1.53.1-2.86-1.18-3.02-2.81-.07-.7.11-1.39.45-1.97.28-.48.7-.84,1-1.3.36-.53.37-.52.03-1.16-.37-.67-.55-.66-1.16-.44-1.49.52-2.61,2.12-4.33,1.14-1.54-.88-.81-2.37-.44-3.7.35-1.24.31-2.71-.57-3.73-.53-.62-1.17-1.02-1.77-.48-.5.45-.41.93-.58,1.57-.39,1.46-1.44,2.85-2.94,2.87-1.3.02-2.66-1.05-2.68-2.53,0-.42.31-1.13-.15-1.45-.5-.35-1.31.24-1.64.57-.9.9-1.18,2.41-1.02,3.71.3,2.44,1.8,4.93,3.16,6.88.67.97,1.42,1.88,2.3,2.62.42.35.88.73,1.37.95.1.04,1.06.36,1.2.1l-.2-1.12c-.26-.12-.51-.13-.77-.03-.96.19-1.67,1.07-2.54,1.5-.78.39-1.67.54-2.54.41-4.06-.57-5.07-5.62-7.23-8.56-2.53-3.45-7.1-3.47-10.05-6.34-.73-.71-1.33-1.54-1.7-2.53-.45-1.19-.53-2.63-1.33-3.64-1.16-1.45-3.26-1.47-4.85-1.82s-3.11-.93-4.08-2.43c-1.24-1.91-1.06-4.42-.85-6.58.09-.85,1.32-.71,1.23.14-.26,2.58-.42,5.85,2.26,7.06,1.64.74,3.47.67,5.13,1.31s2.63,2,3.15,3.85c.38,1.35.72,2.51,1.7,3.51s2.18,1.65,3.39,2.19c2.02.91,4.17,1.62,5.87,3.2s2.54,3.95,3.72,6.01c.65,1.13,1.47,2.24,2.58,2.86,1.55.87,2.87.31,4.19-.62,1.21-.85,3.07-1.57,4.16.04.96,1.4-.21,2.98-1.62,3.01-2.04.04-4.02-2.31-5.18-3.9-2.35-3.24-5.82-9.32-2.28-12.83.94-.94,2.92-1.53,3.76,0,.55,1.01-.45,2.49.94,3.02,1.67.64,2.26-1.55,2.48-2.82.33-1.85,1.84-2.36,3.37-1.4,1.72,1.09,2.3,3.31,1.9,5.28-.12.57-.6,1.29-.6,1.86s.6.99,1.05.94c.41-.05.8-.32,1.14-.53.89-.54,1.72-1.17,2.81-1.03.75.1,1.44.56,1.71,1.35.38,1.11-.23,2.13-.86,2.92-.59.74-1.18,1.51-.7,2.54.53,1.13,1.58,1.11,2.45.61.94-.54,1.76-1.08,2.88-.76,2.07.6,2.73,3.23,1.46,4.92-.49.66-1.52-.12-1.03-.78h0Z"/><path class="cls-2" d="m893.37,1012.06c-.51.09-1.34.19-1.62.73-.54,1.08.88,1.49,1.53,1.39,1.05-.17,1.56-1.37,2.52-1.76,1.25-.51,2.85.24,3.41,1.58.32.76.25,1.61.13,2.4-.07.45-.22.94-.2,1.41.04.95.86.9,1.59.81,1.56-.19,3.01-2.01,4.39-.2,1.14,1.5.49,3.2-.16,4.69-.3.7-.88,1.82-.04,2.43.38.27.98.36,1.42.39,1.25.1,1.6-.83,2.55-1.4,1.27-.77,2.68.14,2.8,1.72.06.82-.29,1.54-.67,2.2-.27.45-.6.89-.79,1.39-.08.21-.25.68-.18.92.23.75,1.03.59,1.45.34.97-.58,1.35-2.02,2.14-2.83.64-.67,1.52-1.13,2.44-.89,1.9.5,2.21,2.85,1.04,4.21-.53.62-1.35-.42-.82-1.03.44-.51.34-1.21-.1-1.69s-1.11-.13-1.47.16c-.49.4-.81,1.03-1.15,1.57-.46.75-.99,1.49-1.79,1.84-1.28.56-2.87-.13-2.97-1.77-.05-.82.34-1.59.72-2.25.25-.43.57-.84.75-1.32.21-.58.32-.86-.22-1.22-.51-.34-.53-.21-.93.14-.61.52-1.11,1.1-1.92,1.24s-1.76-.05-2.51-.37c-1.88-.81-1.62-2.66-.91-4.27.41-.93,1.2-2.3.42-3.3-.57-.74-1.06-.22-1.65.09-.44.23-.93.4-1.42.49-.75.13-1.97.19-2.66-.28-.6-.41-.62-1.48-.57-2.14.08-.96.6-2.2.08-3.11-.86-1.48-2.06-.48-2.88.28-1.24,1.15-3.52,1.29-4.5-.46-1.1-1.97,1.08-3.19,2.51-3.45.78-.14,1.02,1.18.24,1.32h0Z"/><path class="cls-2" d="m882.08,995.82c-.08,3.59-4.27,4.09-6.76,3.05-1.68-.71-2.42-2.58-3.91-3.58s-3.39-1.39-5.09-.97c-.9.22-1.86.65-2.36,1.54-.55.99-.59,2.36-.72,3.48-.23,2.05-.41,4.11-.82,6.12-.7,3.4-2.18,6.58-4.99,8.41-.67.44-1.22-.78-.55-1.22,3.08-2.01,4.19-5.96,4.69-9.63.28-2.02.37-4.09.74-6.09.26-1.39.83-2.53,1.99-3.24,2.3-1.42,5.36-1.07,7.64.39.6.39,1.15.87,1.64,1.42.69.78,1.16,1.69,2.14,2.1,1.73.72,5.06.72,5.12-1.94.02-.86,1.25-.72,1.23.14h0Z"/><path class="cls-2" d="m926.57,998.19c-.18-.83-.02-1.73.46-2.38.52-.7,1.3-1.06,2.12-1.19.89-.14,1.8,0,2.69-.16.8-.15,1.56-.6,2.09-1.25.22-.27.56-.38.86-.15.25.19.38.67.17.93-.51.63-1.11,1.14-1.83,1.46-.8.36-1.63.42-2.49.43-.73,0-1.51-.02-2.16.36-.59.35-.84,1.02-.69,1.74.18.84-1.03,1.06-1.21.22h0Z"/><path class="cls-2" d="m939.93,1011.51c-.1,1.45-1,2.58-1.19,3.98s.29,2.73,1.22,3.69c.25.25.18.73-.06.94-.27.25-.63.17-.87-.09-1.08-1.11-1.65-2.74-1.56-4.32.04-.77.27-1.49.56-2.18s.61-1.39.67-2.17c.06-.85,1.29-.72,1.23.14h0Z"/><path class="cls-2" d="m893.71,979.14c-3.12.56-4.07-4.72-.95-5.28s4.07,4.72.95,5.28h0Z"/><path class="cls-2" d="m898.34,977.45c-2.34.42-3.06-3.54-.71-3.96s3.06,3.54.71,3.96h0Z"/><path class="cls-2" d="m895.44,973.22c-.78.14-1.02-1.18-.24-1.32s1.02,1.18.24,1.32h0Z"/></g><g><path class="cls-2" d="m44.59,791.38c-1.66-3.02-1.03-6.86.81-9.64,2.19-3.31,5.73-5.41,8.94-7.52,3.73-2.46,7.54-4.81,11.41-7.03,3.65-2.1,7.36-4.22,11.35-5.55,1.8-.6,3.7-1.05,5.59-1.15,1.24-.07,2.71.16,3.63,1.12s.93,2.32.24,3.37c-.83,1.26-2.33,1.79-3.63,2.34-7.1,3-14.3,5.9-20.87,10.05-3.8,2.4-7.31,5.22-10.38,8.56-1.58,1.71-3.17,3.33-4.88,4.9s-3.53,3.86-2.51,6.33l-.59-.25c1.63-.29,3-1.35,4.37-2.25s2.81-1.85,4.22-2.78c2.75-1.83,5.5-3.69,8.25-5.52,5.54-3.7,11.11-7.35,16.87-10.67,2.89-1.67,5.82-3.25,8.81-4.71,1.34-.66,2.75-1.51,4.2-1.89,1.04-.27,2.2.04,2.64,1.15.56,1.42-1.02,2.01-1.08,3.28-.07,1.52,1.15,2.93,1.92,4.12,1.69,2.63,3.07,5.51,4.03,8.51.39,1.22.69,2.6.23,3.84s-1.57,1.94-2.61,2.62c-2.68,1.76-5.43,3.42-8.2,5.04-5.58,3.26-11.27,6.35-16.76,9.76-2.78,1.73-5.51,3.54-8.15,5.5-1.12.83-2.35,2.17-3.71,2.54-1.24.33-1.91-.53-2.39-1.58-1.42-3.08-2.95-6.09-4.62-9.02-.89-1.55-1.66-3.15-3.62-3.2-1.67-.04-3.35.55-4.98.83-2.64.46-5.32.4-7.45-1.46s-2.33-4.34-1.37-6.86c1.1-2.91,1.47-5.82.62-8.87-.38-1.36-.99-2.66-1.8-3.81-.86-1.2-1.98-2.18-2.97-3.27-.87-.97-1.59-2-2.06-3.23-.25-.65.76-.93,1.01-.29,1.01,2.61,3.48,4.14,5.02,6.37,1.41,2.04,2.18,4.52,2.33,7,.07,1.2,0,2.41-.25,3.59-.3,1.5-1.08,2.84-1.37,4.34-.62,3.1,2.26,5.43,5.01,5.64,3.01.23,5.93-1.42,8.9-1.03,2.61.35,3.73,3.33,4.87,5.42.7,1.28,1.38,2.57,2.03,3.87.36.71.7,1.43,1.04,2.15.42.9.76,2.63,2.13,2.23.51-.15,1.03-.71,1.46-1.04.6-.47,1.21-.93,1.82-1.38,1.32-.98,2.67-1.92,4.03-2.83,5.02-3.36,10.27-6.33,15.5-9.31,2.62-1.49,5.24-2.99,7.82-4.54,1.19-.71,2.37-1.43,3.54-2.17,1.26-.79,3.14-1.62,3.99-2.91s.24-2.9-.2-4.18c-.55-1.61-1.22-3.18-2-4.69-.62-1.21-1.31-2.38-2.06-3.51s-1.52-2.24-1.71-3.59c-.17-1.2.31-1.69.84-2.63,1.18-2.11-1.58-1.22-2.29-.9-.82.36-1.62.75-2.43,1.14-2.76,1.34-5.48,2.78-8.15,4.3-6.06,3.44-11.91,7.26-17.71,11.14-2.91,1.95-5.82,3.91-8.73,5.85-1.4.93-2.81,1.86-4.22,2.78s-2.69,1.86-4.3,2.15c-.21.04-.5-.02-.59-.25-1.34-3.27.92-6.08,3.2-8.11,2.85-2.54,5.22-5.57,8.1-8.08,5.38-4.7,11.67-8.08,18.09-10.99,3.16-1.43,6.36-2.76,9.56-4.11,1.26-.53,4.03-1.39,3.63-3.29-.35-1.7-2.74-1.61-4.01-1.47-4.03.45-7.81,2.18-11.38,4.08s-7.11,4-10.57,6.14c-2.02,1.25-4.01,2.53-5.99,3.85-1.78,1.19-3.61,2.35-5.22,3.78-3.05,2.7-5.53,7.3-3.3,11.34.33.6-.57,1.15-.9.54h0Z"/><path class="cls-2" d="m58.64,815.77c-1.68-.42.28,3.88.46,4.3.57,1.32,1.16,2.62,1.77,3.91,1.17,2.46,2.43,4.86,3.78,7.22s2.83,4.74,4.39,7.02c1.33,1.96,2.82,4.25,5.01,5.26,2.68,1.24,5.25-.74,7.49-2.09,2.49-1.5,4.97-3.01,7.45-4.52,4.96-3.03,9.9-6.09,14.83-9.18,1.17-.74,2.35-1.47,3.52-2.21s2.37-1.37,3.36-2.28c1.06-.97,1.45-2.15,1.17-3.59s-.76-2.8-1.18-4.17c-1.69-5.53-3.68-10.97-5.99-16.26-.51-1.17-1-2.37-1.62-3.49-.29-.52-.61-1.03-1.03-1.45-.55-.55-2-1.31-1.97.04.03,1.14.81,2.33,1.3,3.31.62,1.23,1.29,2.44,2.01,3.61,1.39,2.28,2.97,4.44,4.71,6.45,1.57,1.83,3.24,3.59,4.54,5.65,1.22,1.94,2.05,4.16,2.15,6.49.05,1.06-.07,2.15-.4,3.15-.15.47-.36.92-.59,1.35-.55,1.04-.45,1.7-.06,2.73,1.05,2.78,2.13,5.56,3.19,8.34.51,1.32,1.02,2.65,1.52,3.97s.96,2.58.96,3.95c0,2.35-1.57,3.92-3.22,5.32-1.98,1.68-4.05,3.27-6.17,4.75-4.29,3-8.86,5.56-13.64,7.65-2.23.97-4.61,2.11-6.99,2.64s-3.56-1.58-4.77-3.24c-1.54-2.1-2.92-4.33-4.13-6.66-.58-1.12-1.12-2.25-1.62-3.41-.39-.91-.86-1.96-.44-2.95.34-.79,1.11-1.1,1.83-1.42,1.3-.58,2.58-1.17,3.86-1.8,2.44-1.19,4.84-2.48,7.19-3.85,4.66-2.72,8.96-5.96,13.46-8.93,2.05-1.35,4.18-2.58,6.45-3.49s4.86-1.29,7.35-1.78,5.11-1.12,6.81-3.03c.81-.92,1.34-2.17.89-3.39-.55-1.49-2.05-1.69-2.84-.28-1.22,2.18-.3,5.09.88,7.07,1.31,2.2,3.24,3.91,5.24,5.41,4.02,3.01,8.53,5.38,11.93,9.2,1.51,1.69,2.71,3.59,3.54,5.73.25.64-.76.93-1.01.29-2.12-5.46-6.94-8.77-11.52-11.86-4.01-2.7-8.66-5.75-10.21-10.73-.61-1.97-.74-4.54.65-6.21,1.14-1.37,2.98-1.24,3.96.25,1.2,1.84.47,4.1-.97,5.53-1.74,1.73-4.22,2.49-6.53,2.97-2.59.54-5.21.85-7.7,1.82-2.65,1.03-5.08,2.55-7.43,4.16-4.75,3.24-9.4,6.57-14.43,9.37-2.6,1.44-5.26,2.79-7.96,4.01-.55.25-1.11.47-1.65.74-.85.43-1.01,1.05-.7,1.95.48,1.41,1.21,2.77,1.9,4.09,1.36,2.61,2.93,5.11,4.71,7.44.34.45.69.92,1.09,1.32.83.82,1.65.74,2.67.42,1.38-.44,2.75-.97,4.1-1.51,5.18-2.08,10.13-4.76,14.77-7.91,2.38-1.62,4.67-3.36,6.87-5.23.89-.76,1.83-1.56,2.36-2.64.82-1.65.22-3.48-.37-5.09-1.13-3.05-2.32-6.07-3.48-9.1-.55-1.43-1.21-2.86-1.65-4.34-.38-1.28.06-1.99.6-3.1,1.28-2.61.66-5.88-.61-8.36s-3.27-4.56-5.1-6.68c-1.71-1.99-3.28-4.11-4.67-6.35-.73-1.17-1.4-2.37-2.03-3.59-.56-1.1-1.28-2.28-1.53-3.52-.39-1.93.92-3.29,2.73-2.22,2.05,1.21,2.92,3.99,3.83,6.08,2.37,5.44,4.42,11.03,6.14,16.72.69,2.3,2,5.18.51,7.42-.56.84-1.37,1.47-2.19,2.03-1.31.89-2.68,1.7-4.02,2.54-5.27,3.32-10.57,6.6-15.88,9.85-2.71,1.66-5.43,3.31-8.16,4.96-2.07,1.25-4.34,2.94-6.87,2.6-2.24-.3-3.99-2.04-5.35-3.77-1.66-2.12-3.12-4.45-4.53-6.76-3.06-5.02-5.74-10.3-7.95-15.77-.36-.89-.75-1.94-.33-2.89.35-.79,1.07-1.22,1.88-1.01.65.16.38,1.21-.28,1.04h0Z"/></g><g><path class="cls-3" d="m1320.44,1028.51c4.04,1.93,6.28,6.73,5.09,11.41-1.32,5.2-6.37,8.28-11.28,6.89s-7.82-6.74-6.51-11.94c.82-3.25,3.11-5.67,5.9-6.69"/><path class="cls-3" d="m1333.24,1033.59c-.19-2.48,0-5.04.65-7.58,3-11.82,14.48-18.83,25.65-15.65,11.17,3.17,17.79,15.33,14.79,27.14s-14.48,18.83-25.65,15.65c-6.88-1.96-12.04-7.32-14.28-13.92"/><path class="cls-2" d="m1322.37,1038.25c-.16,2.21-1.73,4.27-3.76,4.91-.77.24-.44,1.52.33,1.28,2.58-.82,4.47-3.35,4.67-6.19.03-.36-.31-.66-.62-.66-.36,0-.6.3-.62.66h0Z"/><path class="cls-2" d="m1363.28,1047.44c-3.67,2.66-8.31,3.47-12.59,2.17-.77-.24-1.11,1.04-.33,1.28,4.57,1.39,9.62.55,13.55-2.3.66-.48.04-1.63-.63-1.14h0Z"/><path class="cls-2" d="m1320.85,1028.18c-1.06-.42-2.23-1.08-2.55-2.32s.54-2.23,1.55-2.69c2.08-.93,4.44.18,5.58,2.12,1.25,2.14,1.33,4.75,1.84,7.14.41,1.94,1.2,3.86,3.21,4.35.91.22,2.06.13,2.75-.61s.58-1.89.37-2.85c-.14-.66-1.1-.38-.96.28.12.6.3,1.33-.14,1.81s-1.26.48-1.86.32c-1.25-.34-1.85-1.45-2.19-2.68-.67-2.48-.69-5.12-1.74-7.49-.87-1.95-2.46-3.41-4.51-3.71-1.77-.26-3.92.42-4.71,2.26-1.06,2.45,1.19,4.33,3.11,5.09.6.24.86-.78.27-1.02h0Z"/><path class="cls-2" d="m1313.62,1028.74c.88-.53,1.15-1.63.91-2.63-.16-.67-.53-1.26-.84-1.85-.4-.74-.71-1.51-.93-2.32-.9-3.3-.36-6.76.63-9.96.2-.65-.76-.93-.96-.28-.85,2.76-1.37,5.68-1,8.59.17,1.35.52,2.66,1.09,3.89.43.92,1.92,2.86.61,3.65-.56.34-.06,1.25.5.91h0Z"/><path class="cls-2" d="m1335.06,1039.42c-1.58-2.33-4.32-.15-4.44,2.13-.21,3.91,4.11,6.04,4.36,9.9.12,1.87-.99,4.05-2.97,4.03-1.24-.02-2.53-1.14-1.87-2.51.53-1.09,1.94-1.41,3-1.39,4.2.1,6.72,4.84,8.61,8.18,2.08,3.67,4.13,7.4,7.48,9.95.52.4,1.02-.52.5-.91-3.72-2.82-5.71-7.26-8.09-11.24-1.93-3.22-4.53-6.93-8.5-7.03-1.48-.04-3.26.55-3.98,2.05-.62,1.29,0,2.74,1.11,3.45,2.7,1.73,5.47-.94,5.7-3.82.16-2.06-.76-3.99-1.9-5.59-.71-.99-1.54-1.92-2.04-3.05-.37-.83-.57-1.8-.26-2.69.29-.84,1.57-2.19,2.43-.92.37.55,1.24.02.86-.53h0Z"/></g></svg>