<?xml version="1.0" encoding="UTF-8"?><svg id="Layer_1" xmlns="http://www.w3.org/2000/svg" width="48" height="45" viewBox="0 0 48 45"><defs><style>.cls-1{fill:#fee6d5;}.cls-2{fill:#fee5d5;}.cls-3{stroke-width:.75px;}.cls-3,.cls-4{fill:none;stroke:#fee6d5;stroke-miterlimit:10;}.cls-4{stroke-width:2px;}</style></defs><path class="cls-4" d="m29.23,24.61v15.43c0,2.23-1.76,4.04-3.92,4.04H6.83c-2.17,0-3.92-1.81-3.92-4.04V5.24c0-2.23,1.76-4.04,3.92-4.04h18.48c2.17,0,3.92,1.81,3.92,4.04"/><ellipse class="cls-3" cx="16.07" cy="36.68" rx="2.53" ry="2.6"/><path class="cls-4" d="m33.78,24.18h-9.54c-3.12,0-5.65-2.6-5.65-5.81v-7.19c0-3.21,2.53-5.81,5.65-5.81h15.34c3.12,0,5.65,2.6,5.65,5.81v7.19c0,3.21-2.53,5.81-5.65,5.81"/><path class="cls-1" d="m31.61,24.52c-.03,2.14-.07,4.27-.1,6.41-.02,1.05,1.21,1.45,1.91.81,1.24-1.13,2.48-2.25,3.72-3.38,1.13-1.03,2.25-2.22,3.48-3,.51-.33.71-1.03.4-1.57s-1.01-.74-1.53-.41c-1.4.9-2.6,2.15-3.83,3.27s-2.55,2.32-3.82,3.48l1.91.81c.03-2.14.07-4.27.1-6.41,0-.6-.52-1.18-1.12-1.15s-1.11.51-1.12,1.15h0Z"/><g><path class="cls-2" d="m21.85,10.81v4.09c0,1.55.63,2.2,1.48,2.2.94,0,1.55-.68,1.55-2.2v-4.09h.83v4.02c0,2.12-1.03,2.99-2.4,2.99-1.3,0-2.28-.81-2.28-2.95v-4.06h.83Z"/><path class="cls-2" d="m30.61,17.72l-.81-1.53c-.33-.58-.54-.96-.74-1.36h-.02c-.18.4-.36.77-.69,1.37l-.76,1.52h-.94l1.94-3.49-1.87-3.41h.95l.84,1.62c.24.45.42.8.58,1.17h.03c.18-.41.34-.73.58-1.17l.87-1.62h.94l-1.93,3.36,1.98,3.54h-.95Z"/><path class="cls-2" d="m31.79,18.13l2.63-7.42h.64l-2.64,7.42h-.63Z"/><path class="cls-2" d="m36.57,10.81v4.09c0,1.55.63,2.2,1.48,2.2.94,0,1.55-.68,1.55-2.2v-4.09h.83v4.02c0,2.12-1.03,2.99-2.4,2.99-1.3,0-2.28-.81-2.28-2.95v-4.06h.83Z"/><path class="cls-2" d="m42.68,10.81v6.9h-.82v-6.9h.82Z"/></g></svg>