<?xml version="1.0" encoding="UTF-8"?><svg id="Layer_1" xmlns="http://www.w3.org/2000/svg" width="810" height="90" viewBox="0 0 810 90"><defs><style>.cls-1{fill:#d18229;}</style></defs><g><path class="cls-1" d="m385.04,19.93c-.6-1.81-2.38-3.02-4.19-3.35-2.15-.39-4.32.21-6.37.68-2.39.54-4.76,1.16-7.1,1.84-2.21.65-4.45,1.31-6.48,2.39-.91.49-1.81,1.07-2.56,1.78-.49.46-.95,1.14-.91,1.86s.59,1.25,1.27,1.37c.82.15,1.59-.24,2.3-.55,3.86-1.67,7.72-3.42,11.85-4.44,2.39-.59,4.84-.91,7.33-.86,1.28.03,2.53,0,3.8-.07s2.87.07,3.49,1.41l.12-.33c-.73.54-1.67.67-2.54.88s-1.8.41-2.7.61c-1.77.39-3.54.77-5.31,1.16-3.56.79-7.12,1.61-10.61,2.62-1.75.51-3.49,1.07-5.19,1.7-.77.28-1.63.52-2.33.94-.5.31-.81.89-.52,1.48.36.76,1.19.36,1.73.82.64.55.75,1.57.94,2.33.43,1.67,1.07,3.31,1.92,4.83.35.62.79,1.26,1.46,1.55s1.37.11,2.03-.04c1.71-.39,3.41-.85,5.1-1.33,3.4-.97,6.77-2.05,10.2-2.93,1.74-.44,3.49-.84,5.26-1.14.76-.13,1.75-.1,2.41-.5.6-.36.5-.96.26-1.55-.71-1.73-1.35-3.48-1.91-5.26-.29-.94-.65-1.86.06-2.65.61-.68,1.47-1.12,2.2-1.66,1.17-.87,2.15-1.96,2.2-3.51s-.88-2.57-2.25-3.16c-1.58-.67-2.89-1.63-3.8-3.13-.41-.67-.7-1.4-.86-2.16-.16-.8-.14-1.61-.21-2.42-.06-.71-.21-1.39-.53-2.05-.17-.34-.66-.05-.49.29.67,1.39.37,2.95.69,4.41.29,1.33,1,2.58,1.95,3.59.46.49.98.91,1.54,1.27.72.45,1.55.65,2.26,1.11,1.48.94,1.34,2.96.4,4.13-1.03,1.28-2.79,1.81-3.74,3.14-.84,1.17-.05,2.74.36,3.99.25.76.52,1.52.8,2.28.15.41.31.82.48,1.23.2.51.78,1.3.1,1.69-.25.15-.67.14-.97.18-.41.06-.82.13-1.24.2-.89.15-1.77.33-2.65.52-3.23.71-6.39,1.66-9.55,2.6-1.58.47-3.16.94-4.75,1.37-.73.2-1.46.39-2.2.57-.79.2-1.83.63-2.66.47s-1.26-1.01-1.61-1.67c-.44-.83-.82-1.69-1.14-2.57-.26-.71-.47-1.42-.64-2.15s-.33-1.45-.8-2.04c-.42-.52-.8-.52-1.37-.67-1.29-.34.1-1.09.49-1.25.45-.18.91-.36,1.37-.53,1.57-.59,3.17-1.11,4.78-1.59,3.65-1.09,7.38-1.96,11.11-2.78,1.87-.41,3.75-.82,5.62-1.23.9-.2,1.8-.4,2.7-.61s1.76-.36,2.47-.89c.09-.07.18-.2.12-.33-.82-1.78-2.79-1.95-4.46-1.82-2.09.16-4.2-.05-6.29.13-3.9.35-7.62,1.55-11.19,2.99-1.76.71-3.49,1.47-5.23,2.22-.69.3-2.06,1.07-2.69.19-.55-.79.37-1.7.91-2.15,1.69-1.42,3.8-2.27,5.9-2.95s4.27-1.29,6.43-1.85c1.26-.32,2.52-.63,3.79-.91,1.14-.25,2.3-.53,3.47-.63,2.23-.18,5.01.58,5.81,3.01.12.36.68.21.56-.15h0Z"/><path class="cls-1" d="m389.61,34.77c.46-.83,1.46,1.59,1.56,1.82.32.72.62,1.45.91,2.19.55,1.4,1.05,2.81,1.5,4.24s.85,2.93,1.19,4.41c.29,1.27.66,2.73.25,3.98-.5,1.53-2.26,1.8-3.64,2.17-1.53.41-3.07.82-4.61,1.23-3.08.81-6.16,1.61-9.24,2.38-.74.18-1.47.37-2.21.55s-1.44.42-2.18.46c-.79.05-1.41-.24-1.88-.9s-.84-1.37-1.24-2.06c-1.6-2.77-3.04-5.63-4.31-8.56-.28-.65-.58-1.3-.8-1.97-.1-.31-.19-.63-.2-.96-.02-.43.22-1.29.75-.76.45.45.64,1.21.85,1.77.26.71.5,1.44.7,2.17.4,1.42.68,2.86.84,4.32.15,1.32.23,2.65.58,3.95.32,1.22.91,2.4,1.81,3.32.41.42.89.79,1.42,1.04.25.12.5.21.76.28.63.18.85.47,1.12,1.02.73,1.48,1.44,2.96,2.17,4.44.34.7.69,1.41,1.03,2.11s.68,1.36,1.23,1.88c.95.89,2.17.87,3.34.75,1.42-.15,2.83-.36,4.22-.64,2.81-.56,5.55-1.4,8.18-2.49,1.23-.51,2.58-1.02,3.68-1.77s.69-2.01.48-3.12c-.27-1.41-.65-2.8-1.14-4.17-.23-.65-.49-1.3-.77-1.94-.22-.5-.47-1.09-1.03-1.3-.44-.17-.86.02-1.26.18-.72.29-1.44.58-2.17.84-1.39.51-2.81.97-4.24,1.38-2.84.81-5.75,1.28-8.63,1.94-1.31.3-2.6.67-3.82,1.23s-2.34,1.43-3.47,2.24-2.36,1.6-3.77,1.54c-.67-.03-1.37-.29-1.7-.94-.4-.79.09-1.45.95-1.23,1.34.34,2.16,1.82,2.52,3.04.39,1.36.37,2.77.22,4.13-.29,2.74-1.02,5.42-.75,8.22.12,1.24.44,2.44.99,3.58.17.34.66.05.49-.29-1.41-2.92-.94-6.09-.47-9.07.41-2.62.92-5.62-.51-8.13-.57-.99-1.55-2.02-2.75-2.11-.98-.07-1.62.71-1.38,1.66.29,1.17,1.48,1.75,2.59,1.72,1.35-.03,2.58-.73,3.64-1.46,1.19-.82,2.29-1.74,3.61-2.36,1.4-.66,2.93-1.04,4.45-1.36,3.08-.65,6.16-1.22,9.17-2.15,1.55-.48,3.09-1.02,4.59-1.63.3-.12.6-.26.91-.37.49-.17.8,0,1.05.47.39.73.66,1.54.94,2.31.54,1.53.96,3.1,1.24,4.69.05.31.12.62.13.93.02.64-.32.93-.83,1.21-.7.38-1.42.72-2.14,1.05-2.77,1.26-5.7,2.2-8.71,2.84-1.54.33-3.1.57-4.68.73-.64.06-1.31.13-1.95-.07-.97-.3-1.48-1.24-1.91-2.08-.81-1.61-1.58-3.23-2.37-4.84-.37-.76-.7-1.57-1.13-2.3-.37-.64-.82-.73-1.47-.94-1.53-.48-2.62-1.97-3.14-3.42s-.61-3.03-.79-4.56c-.16-1.44-.43-2.86-.81-4.27-.2-.73-.43-1.46-.69-2.17-.23-.64-.44-1.37-.85-1.94-.63-.89-1.67-.89-1.91.24-.28,1.27.51,2.67,1.02,3.83,1.31,3.01,2.79,5.94,4.44,8.79.67,1.15,1.34,2.76,2.8,3.02.55.1,1.11.02,1.64-.1.85-.18,1.69-.41,2.53-.62,3.31-.83,6.61-1.67,9.91-2.54,1.68-.44,3.37-.89,5.05-1.35,1.27-.34,2.81-.6,3.62-1.73.72-1,.67-2.35.48-3.55-.23-1.47-.63-2.93-1.03-4.36-.88-3.12-2-6.19-3.38-9.15-.22-.48-.5-1.04-1.04-1.23-.45-.16-.89-.04-1.11.36-.18.32.34.61.52.29h0Z"/></g><g><path class="cls-1" d="m180.61,76.46c-.99,1.7-3.13.59-4.43-.13-1.59-.88-3.17-1.79-4.75-2.7-2.94-1.7-5.94-3.37-8.77-5.29-1.26-.85-2.61-1.94-3.04-3.53s.22-3.23.95-4.58c.63-1.17,1.54-3.2,3.02-3.25s3.04,1.2,4.29,1.87c3.14,1.67,6.27,3.35,9.41,5.02,1.5.8,3,1.6,4.5,2.4,1.02.55,2.3,1.49,3.49,1.24.74-.15,1.45-.84,1.4-1.7-.06-1.28-1.6-1.81-2.48-2.3-3.01-1.67-6.01-3.34-9.02-5.01-1.4-.78-2.8-1.56-4.21-2.34-1.52-.84-3.14-1.59-4.58-2.59-.95-.66-1.61-1.52-1.39-2.75.12-.69.46-1.32.76-1.93.81-1.63,1.61-3.28,2.48-4.87.41-.75.9-1.64,1.8-1.78,1.49-.22,1.32,1.43.9,2.36-.62,1.34-1.64,2.53-2.62,3.57-1.87,1.99-4.07,3.61-6.12,5.39-3.44,2.97-8.09,7.71-6.08,13.09.94,2.52,3.08,4.27,5.22,5.62,2.68,1.69,5.58,3.03,8.38,4.48,2.65,1.38,5.47,3,8.46,2.98,1.37,0,2.81-.33,3.68-1.49,1.01-1.33,1.68-3.05,2.46-4.54,1.79-3.42,3.58-6.83,5.37-10.25,1.54-2.94,3.34-5.89,3.73-9.34.03-.29-.08-.51-.31-.67-4.39-2.97-8.86-5.8-13.4-8.48-2.05-1.2-4.35-2.25-6.06-3.99-1.96-1.98-1.94-4.41-.49-6.57.56-.84,1.24-1.59,1.9-2.34.85-.96,2.1-3.1,3.48-2.94,1.1.13,2.33.72,3.36,1.13,1.17.47,2.31,1,3.44,1.58,2.09,1.07,4.11,2.29,6.09,3.55.97.62,1.93,1.25,2.89,1.88,1.05.69,2.22,1.35,2.88,2.51,1.35,2.39.21,5.2-.92,7.28-.5.91-1.79,3.56-2.92,1.72-.74-1.21.29-2.71.98-3.58,1.43-1.78,3.33-3.05,4.89-4.7,1.42-1.49,2.55-3.28,3.49-5.15,1.75-3.5,4-8.31,2.9-12.47-.58-2.22-2.22-3.09-3.65-4.62-.93-.99-1.49-3.13.44-3.09,1.26.02,2.64,1.05,3.6,1.88,2.16,1.85,3.43,4.33,4.15,7.09.71,2.73,1.01,5.59,2.12,8.2,2.02,4.74,6.45,7.24,10.65,9.43.66.35,1.15-.71.48-1.06-2.43-1.27-4.91-2.58-6.98-4.48-2.29-2.1-3.46-4.73-4.17-7.76-.68-2.92-1.08-5.94-2.53-8.61-1.21-2.22-3.12-4.18-5.32-5.3-1.64-.83-4.24-1-4.47,1.44s2.09,3.58,3.46,5.08c2.18,2.39,1.3,6.04.38,8.69-.92,2.63-2.02,5.26-3.54,7.54s-3.58,3.84-5.49,5.69c-1.37,1.32-3.31,3.44-2.65,5.69s2.97,2.4,4.14.71c1.34-1.94,2.6-4.4,2.67-6.89.07-2.73-1.32-4.46-3.44-5.87-2.36-1.58-4.74-3.13-7.18-4.54s-4.8-2.56-7.34-3.47c-.97-.34-2.13-.91-3.15-.75-1.28.2-2.19,1.75-3.01,2.68-1.65,1.86-3.78,3.93-3.88,6.71s1.86,4.71,3.89,6.1c2.82,1.95,5.91,3.5,8.82,5.3s6.04,3.82,9.01,5.83l-.31-.67c-.38,3.34-2.15,6.2-3.64,9.05-1.68,3.21-3.37,6.43-5.05,9.64-.83,1.58-1.54,3.49-2.62,4.89-1.09,1.41-3.29,1.22-4.85.85-3.11-.75-6.08-2.67-8.94-4.15-2.81-1.46-5.92-2.8-8.22-5.14-2.55-2.6-2.7-5.94-.99-8.96,2.87-5.08,8.37-7.62,12-11.97,1.17-1.4,3.6-4.38,1.87-6.34-.7-.79-1.83-.87-2.7-.48-1.18.53-1.77,1.85-2.34,2.97-.81,1.59-1.69,3.15-2.42,4.78-.51,1.14-.85,2.42-.32,3.66s1.72,1.94,2.79,2.55c1.6.9,3.21,1.78,4.81,2.67,3.21,1.78,6.41,3.56,9.62,5.34.8.45,1.6.89,2.4,1.34.34.19,2.2.9,1.55,1.67-.49.57-2.12-.56-2.59-.81-.95-.51-1.91-1.02-2.86-1.53-3.27-1.75-6.54-3.5-9.82-5.24-1.43-.76-2.84-1.59-4.29-2.28-1.09-.51-2.27-.85-3.36-.3-1.22.62-1.96,2.1-2.62,3.27-.7,1.25-1.3,2.62-1.36,4.11-.13,3.35,2.7,5.27,5.15,6.77,3.5,2.16,7.03,4.24,10.6,6.26,2.24,1.27,5.77,3.55,7.53.52.37-.64-.65-1.2-1.02-.56h0Z"/><path class="cls-1" d="m198.52,10.53c-1.33-.72-2.66-1.44-3.99-2.17l.31.67c.3-1.01.91-3.78,2.14-3.71s2.71.91,3.81,1.51,2.15,1.32,3.11,2.16c.66.58,1.73,1.61,1.05,2.54-.54.72-1.54.74-2.33.77-1.25.05-2.27.35-3.48.57-1.3.23-2.13-.7-3.32-1.03s-1.61.51-2.66.62c-1.12.12-2.38-.63-3.53-.71-4.76-.32-8.43,3.47-10.08,7.79-.39,1.01-.69,2.06-.93,3.13-.33,1.49-.78,2.69-2.33,3.05-2.57.59-4.88-1.66-6.89-3.09-2.31-1.64-4.73-2.32-7.39-1.56-2.86.83-5.07,2.97-7.18,5.03-.52.51.35,1.32.87.81,2.33-2.28,4.96-4.82,8.36-4.98,3.18-.15,5.31,2.39,7.92,3.94,1.99,1.18,4.64,1.74,6.44.05.8-.75,1.04-1.74,1.28-2.81.34-1.51.79-2.98,1.45-4.35,1.3-2.69,3.45-4.92,6.31-5.63,1.44-.36,2.77-.16,4.21.25.52.15,1.04.3,1.58.27.75-.04,1.27-.7,1.98-.72,1-.03,1.98,1.03,3,1.17,1.36.2,2.7-.55,4.06-.6,1.15-.04,2.32-.05,3.22-.86.76-.68,1.04-1.72.61-2.74-.56-1.32-2-2.28-3.1-3.05-1.28-.89-2.64-1.61-4.08-2.14-1.09-.41-2.55-1.11-3.46-.11-.93,1.02-1.36,2.83-1.75,4.16-.07.25.11.55.31.67l3.99,2.17c.66.36,1.15-.7.48-1.06h0Z"/><path class="cls-1" d="m197.9,11.45c.46.21.93.32,1.43.35.21,0,.42,0,.63-.04.25-.04.56-.08.77-.24.52-.4.32-1.18-.01-1.67-.29-.43-.7-.74-1.13-1-.47-.29-.96-.54-1.44-.8-.27-.15-.64-.04-.75.25s-.02.65.27.81c.46.25.92.49,1.37.76.09.06.19.11.28.18.02.01.04.03.06.04-.05-.04-.05-.04,0,0,.04.03.08.06.12.09.09.07.17.15.25.24-.1-.11.02.03.03.05.02.03.09.1.09.14-.03-.08-.04-.08,0-.02l.02.04s.02.06.03.09c.02.07.02.06,0-.02.03.04-.01.17.02.02.03-.12.1-.21.21-.25-.02,0-.04.02-.06.02-.05.02-.11.03-.16.04-.04.01-.14.03-.04.01-.11.02-.22.03-.34.04s-.23,0-.34,0c-.07,0-.07,0,0,0-.02,0-.05,0-.07,0-.06,0-.11-.02-.17-.03-.11-.02-.22-.05-.33-.08-.05-.01-.09-.03-.14-.05.12.04-.07-.03-.09-.04-.28-.12-.63-.06-.75.25-.11.28-.03.68.27.81h0Z"/></g><g><path class="cls-1" d="m289.86,66.79c-1.83.91-4.35.94-5.77-1-.64-.87-.99-2.04-.72-3.11s1.11-1.84,1.99-2.33c1.68-.95,3.81-1.47,5.73-1.44s4.55,1.1,4.92,3.62c.18,1.22-.48,2.55-1.61,2.79-1.07.23-2.12-.61-2.66-1.61-.65-1.22-.75-2.7-.83-4.05-.07-1.23-.09-2.46-.04-3.69.18-4.86,1.28-9.65,3.23-13.94.98-2.17,2.17-4.25,3.71-5.97s3.38-2.97,5.4-3.83,4.23-1.34,6.43-1.49c1.06-.07,2.17.08,3.22-.07.95-.14,1.33-.86,1.54-1.81.51-2.26.05-4.67-.47-6.92-.24-1.04-.56-2.06-1.37-2.75s-1.85-.94-2.8-1.21c-4.54-1.26-9.25-1.58-13.83-.94-1.39.19-3.92.31-4.5,2.05-.7,2.13,2.28,3.52,3.57,4.29,2.03,1.2,4.15,2.22,6.33,3.04.88.33,1.97.86,2.89.54.74-.26,1.08-1.07.99-1.9-.11-1.01-.81-1.76-1.47-2.42-.29-.29-.73.14-.44.44.41.41.86.84,1.12,1.39.31.65.29,1.55-.39,1.84-.53.22-1.17-.03-1.7-.22-.63-.22-1.25-.46-1.88-.71-2.24-.91-4.42-2.05-6.5-3.39-.84-.55-2.7-1.68-1.81-2.96.57-.83,1.73-.98,2.61-1.14,2.38-.43,4.81-.59,7.25-.49s4.86.47,7.24,1.11c1.06.28,2.4.53,3.2,1.43s.98,2.47,1.21,3.66c.24,1.26.41,2.54.32,3.81-.04.61-.13,1.24-.33,1.81-.28.79-.94.8-1.63.79-2.21-.04-4.41.15-6.55.72-4.23,1.13-7.76,3.71-10.18,7.64s-3.91,8.45-4.62,13.11c-.37,2.41-.51,4.87-.42,7.33.08,2.16.16,4.82,1.84,6.35,1.41,1.29,3.39,1.03,4.22-.74s-.18-4.02-1.7-5.11-3.54-1.22-5.31-.94-3.8.83-5.23,2.06c-1.32,1.15-1.77,3.01-1.02,4.77.82,1.9,2.65,2.89,4.47,2.86.92-.02,1.81-.27,2.63-.68.35-.17.06-.77-.29-.6h0Z"/><path class="cls-1" d="m290.06,67.42c.47-.13,1.68-.33,1.62.62-.04.72-.84.94-1.36,1.02-.99.15-2.02.09-3.01-.09-1.85-.33-4.06-1.05-5.02-3.04-.42-.88-.59-1.91-.46-2.87.14-1.04.67-1.95.95-2.95.5-1.77.44-3.89-.79-5.38-.61-.74-1.45-1.19-2.27-1.57-.91-.42-2.82-.86-2.79-2.23,0-.43-.6-.48-.61-.05-.03,1.23.92,1.86,1.84,2.3,1.02.48,2.14.82,3.02,1.61,1.05.94,1.4,2.43,1.26,3.83s-.86,2.56-1.14,3.91c-.44,2.08.38,4.45,2.09,5.63,1.91,1.32,4.49,1.77,6.66,1.58.96-.09,2.31-.5,2.24-1.84s-1.51-1.38-2.37-1.16c-.37.1-.23.75.14.65h0Z"/><path class="cls-1" d="m297.4,71.94c.49,2.48,1.27,5.58,3.8,6.43,2.02.68,4.82-.34,5.46-2.64.33-1.19.14-2.56-.05-3.78-.21-1.32-.56-2.64-1.16-3.83-1.04-2.06-3.27-4.15-5.5-3.37-.88.31-1.59,1.19-1.7,2.21-.11,1.11.57,2.05,1.49,2.47,1.2.55,2.5.14,3.63-.3,1.31-.51,2.54-1.22,3.71-2.01,2.42-1.64,4.76-3.55,6.95-5.54s3.94-4.33,5.53-6.87c.88-1.41,1.74-2.85,2.55-4.31.74-1.33,1.34-2.72,1.65-4.26.59-2.9.27-5.99-.91-8.75-.17-.39-.7-.1-.53.3.93,2.16,1.29,4.54,1.07,6.87-.24,2.52-1.26,4.58-2.47,6.65-1.23,2.11-2.47,4.21-3.92,6.15-1.53,2.04-3.32,3.75-5.24,5.33s-3.82,3.18-5.91,4.46c-1.05.64-2.15,1.22-3.31,1.6-1.07.35-2.51.59-3.36-.51s.05-2.57,1.09-2.87,2.25.23,3.11,1c1.69,1.49,2.4,3.91,2.7,6.14.18,1.36.35,2.96-.52,4.04-.76.94-2.02,1.37-3.16,1.37-2.97,0-3.91-3.49-4.42-6.09-.08-.42-.67-.3-.59.13h0Z"/><path class="cls-1" d="m322.85,37.39c-1.1-2.23-2.28-4.41-3.54-6.54-.58-.98-1.27-1.92-1.78-2.94-.32-.64-.37-1.2.12-1.69.29-.29.64-.51.86-.88.52-.85.31-1.87.27-2.84-.04-1.09.33-2.06.98-2.84s1.53-1.31,2.42-1.73c1.01-.48,2.08-.92,3.17-1.14.38-.08.24-.73-.14-.65-1.64.34-3.43,1.06-4.8,2.06-1.12.81-2.07,2.05-2.22,3.59-.09.96.29,2.05-.08,2.95-.3.74-1.16.96-1.39,1.77-.21.72.13,1.46.49,2.07.54.9,1.1,1.78,1.64,2.69,1.23,2.09,2.39,4.24,3.47,6.43.19.38.72.09.53-.3h0Z"/><path class="cls-1" d="m325.27,16.79c.51-.11,1.02-.18,1.53-.22.29-.02.58-.03.87-.03.22,0,.7-.07.89.05.37.24.54,1.28.63,1.7.14.62.23,1.25.27,1.88.13,2.03-.15,4.17-.94,5.98-.37.85-.87,1.61-1.47,2.28-.57.63-1.21,1.19-1.75,1.85-1.01,1.26-1.39,2.84-.76,4.5.76,2,2.56,3.12,4.34,3.74.38.13.55-.5.18-.63-1.83-.63-3.78-1.88-4.18-4.13s1.31-3.46,2.52-4.77c2.44-2.63,3.22-6.99,2.4-10.7-.17-.79-.41-2.21-1.29-2.37-1.09-.2-2.34,0-3.39.22-.38.08-.24.73.14.65h0Z"/><path class="cls-1" d="m328.95,38.51c1.61.69,3.26,1.29,4.51,2.69s1.81,3.08,2.06,4.95c.06.43.65.3.59-.13-.27-1.98-.89-3.79-2.21-5.27s-3.06-2.15-4.77-2.88c-.37-.16-.54.47-.18.63h0Z"/><path class="cls-1" d="m335.52,45.93c.42,5.67-.61,11.32-2.95,16.27-.18.37.34.75.52.37,2.39-5.04,3.47-10.8,3.04-16.59-.03-.42-.64-.48-.61-.05h0Z"/><path class="cls-1" d="m332.53,62.31c-.26.83-.65,1.6-1.24,2.19-.29.29-.62.53-.99.69-.14.06-.43.18-.59.12-.33-.11-.42-.6-.53-.89-.78-2.06-1.46-4.16-2.04-6.28-.55-2-1.06-4.03-1.31-6.08-.12-.94-.17-1.88-.15-2.82,0-.32.13-1.9.45-.82.18.64.24,1.3.29,1.95.16,2.13.48,4.21.92,6.31.4,1.88.72,4,1.72,5.66.28.46.68.92,1.2.96.66.05,1.31-.67,1.81-1.06,1.48-1.15,2.93-2.38,4.26-3.73.71-.73,1.36-1.51,1.96-2.36.55-.78,1.1-1.6,1.34-2.58.47-1.95-.31-4,.07-5.96.08-.41-.5-.64-.58-.22-.37,1.9.33,3.87-.03,5.76-.2,1.05-.81,1.91-1.39,2.73-.63.89-1.35,1.7-2.11,2.45s-1.49,1.39-2.26,2.05-1.63,1.44-2.52,2.01c-.25.16-.5.34-.79.15-.17-.11-.32-.31-.43-.49-.28-.45-.49-.97-.67-1.47-.39-1.09-.62-2.24-.86-3.37-.51-2.39-.87-4.73-1.07-7.16-.06-.73-.11-2.19-.73-2.7-.45-.37-.94.02-1.07.52-.24.91-.14,2.08-.08,3.03.07,1.05.22,2.09.42,3.12.42,2.19,1.01,4.36,1.67,6.5.38,1.22.79,2.43,1.22,3.62.27.74.47,1.81,1.34,1.87,1.66.1,2.89-1.97,3.34-3.45.12-.4-.46-.62-.58-.22h0Z"/><path class="cls-1" d="m339.75,47.72c.03-1.35,1.28-2,2.39-1.8s2.03,1.17,3.12,1.53c.38.13.55-.5.18-.63-1.31-.43-2.35-1.62-3.77-1.61-1.28.01-2.48.96-2.52,2.45,0,.43.6.48.61.05h0Z"/><path class="cls-1" d="m300.82,35.24c.27,1.26,2.04.88,1.77-.38s-2.04-.88-1.77.38h0Z"/><path class="cls-1" d="m303.22,36.57c.18.84,1.36.59,1.18-.25s-1.36-.59-1.18.25h0Z"/><path class="cls-1" d="m303.44,34.45c.09.42.68.29.59-.13s-.68-.29-.59.13h0Z"/><path class="cls-1" d="m331.07,60.69c.09.42.68.29.59-.13s-.68-.29-.59.13h0Z"/><path class="cls-1" d="m328.82,60.39c.18.84,1.36.59,1.18-.25s-1.36-.59-1.18.25h0Z"/><path class="cls-1" d="m329.35,62.73c.27,1.26,2.04.88,1.77-.38s-2.04-.88-1.77.38h0Z"/></g><g><path class="cls-1" d="m1.12,31.83c1.76,4.28,4.38,8.88,9.41,10.09,1.76.42,4.11.31,5.39-1.2.68-.8.7-1.77.72-2.74.02-1.39.04-2.79-.02-4.18-.11-2.59-.47-5.14-.67-7.72s-.34-5.23.26-7.76,3.94-3.77,6.45-3.43c.31.04.79.08,1.06.23.46.25.4.64.36,1.07-.07.75-.14,1.5-.19,2.25-.09,1.3-.15,2.6-.17,3.9-.05,2.72.06,5.44.32,8.13.13,1.32.26,2.64.5,3.95.18,1.01.5,2.06,1.39,2.69.79.56,1.83.59,2.8.58,1.44-.02,2.88-.08,4.32-.16,2.9-.17,5.8-.47,8.68-.89s5.72-.96,8.54-1.62c1.11-.26,2.55-.41,3.45-1.19.66-.57.98-1.53.42-2.23-.52-.65-1.49-.68-2.28-.59-1.39.16-2.78.48-4.16.7-2.96.47-5.93.85-8.9,1.15-1.4.14-2.82.34-4.22.36-1.54.02-2.54-.65-3.2-1.93-.57-1.12-.97-2.34-1.41-3.51-.49-1.3-.96-2.61-1.37-3.94-.44-1.43-.81-2.88-1.06-4.36-.09-.57-.21-1.15-.19-1.73.02-.66.83-2.15,1.57-1.17.36.48.27,1.28.29,1.85.03.75.06,1.49.08,2.24.05,1.44.11,2.89.16,4.33s.11,2.89.16,4.33c.02.49.81.41.79-.07-.11-2.94-.22-5.87-.33-8.81-.05-1.21.11-2.62-.23-3.78-.23-.77-.92-1.31-1.79-1.07-2.35.65-1.33,3.97-1,5.47.59,2.72,1.54,5.34,2.53,7.93.72,1.87,1.38,4.37,3.7,4.88,1.2.27,2.54.03,3.76-.08,1.46-.13,2.93-.28,4.39-.46,2.97-.35,5.94-.78,8.89-1.29.8-.14,3.75-.91,3.27.73-.21.71-1.17.95-1.81,1.12-.79.2-1.58.39-2.37.57-5.79,1.31-11.68,2.1-17.58,2.38-1.36.06-2.82.22-4.17.06-1.6-.19-2.11-1.41-2.34-2.78-.45-2.69-.66-5.45-.75-8.19s-.03-5.56.21-8.34c.07-.85.54-2.28-.23-2.92-.72-.6-2.1-.62-3.02-.58-2.07.07-4.61,1.05-5.62,2.94-.56,1.05-.66,2.33-.75,3.46-.11,1.23-.12,2.46-.07,3.68.1,2.58.45,5.14.66,7.72.11,1.31.17,2.62.17,3.94,0,.7,0,1.4-.02,2.1s.04,1.4-.31,2.01c-1.23,2.17-4.69,1.49-6.45.68-2.41-1.1-4.15-3.1-5.43-5.29-.7-1.2-1.27-2.48-1.79-3.76-.18-.45-.93-.18-.75.27h0Z"/><path class="cls-1" d="m16.67,43.53c.65,7.61,1.91,15.14,3.76,22.52.46,1.82.93,3.65,1.49,5.45.44,1.42.98,2.87,1.92,4.05,2,2.55,5.3,2.55,8.41,2.55,7.48,0,14.91-1.58,22.14-3.53,3.74-1.01,7.46-2.14,11.17-3.24,1.88-.56,3.81-1.04,5.66-1.71,1.45-.53,2.74-1.36,3.31-2.8s.5-3.05.54-4.53c.05-1.84.03-3.67-.04-5.5-.14-3.71-.51-7.41-1-11.08-1-7.48-2.47-14.88-3.83-22.3-.66-3.62-1.2-7.3-2.01-10.89-.27-1.19-.7-2.48-1.68-3.3-.34-.28-.95-.68-1.42-.64-.52.04-.95.79-1.16,1.19-.63,1.24-.56,2.69-.57,4.01,0,1.86-.01,3.73-.01,5.59,0,3.83.05,7.66.2,11.48.29,7.45.99,14.89,2.59,22.15.78,3.55,1.64,7.25,3.32,10.49.47.91,1.26,2.91,2.67,2.6s1.46-1.8,1.21-2.84c-.43-1.78-.96-3.55-1.45-5.32-.13-.47-.87-.19-.75.27.45,1.66.93,3.33,1.36,4.99.1.38.21.76.18,1.17-.04.53-.5,1.31-1.18.86-.28-.19-.47-.6-.65-.87-.28-.45-.54-.91-.78-1.38-1.52-3.02-2.32-6.41-3.07-9.69-1.53-6.71-2.25-13.6-2.59-20.5-.17-3.44-.24-6.88-.27-10.32s-.12-6.74.01-10.1c.03-.65.09-1.32.33-1.94.1-.25.29-.78.55-.93.33-.19.71.13.94.33.99.82,1.31,2.27,1.54,3.47.67,3.49,1.28,7,1.92,10.5,2.43,13.26,5.48,26.75,4.74,40.4-.08,1.56-.35,3.13-1.84,4.08s-3.32,1.27-4.94,1.75c-3.46,1.03-6.91,2.07-10.37,3.06-6.7,1.91-13.51,3.59-20.45,4.12-1.71.13-3.42.19-5.12.17s-3.42,0-4.91-.62c-2.89-1.21-3.68-4.63-4.42-7.28-1.9-6.8-3.28-13.74-4.14-20.76-.21-1.74-.39-3.48-.54-5.23-.04-.48-.83-.41-.79.07h0Z"/><path class="cls-1" d="m52.92,34.29c2.13.21,2.82-1.95,2.86-3.57.07-2.32-.47-4.58-.97-6.81-.54-2.41-1.04-4.84-.8-7.34.11-1.19.32-2.38.56-3.55.21-1.07.51-2.27,1.43-3.01,1.03-.84,2.49-.86,3.74-1.02,1.17-.15,2.23-.51,3.3-.99,1.22-.55,2.51-1.21,3.88-1.09,1.18.11,2.27.68,3.25,1.27,2,1.22,3.7,2.84,4.98,4.74.64.96,1.49,2.24,1.15,3.46-.14.49-.56,1.01-1.07,1.18-.74.24-1.32-.28-1.55-.9-.61-1.6.7-2.91,2.39-2.56,1.4.29,2.72,1.29,3.9,2,2.48,1.48,4.89,3.06,7.25,4.72.4.28.92-.31.52-.59-2.51-1.77-5.09-3.44-7.74-5.01-1.71-1.01-4.51-3.06-6.5-1.21-1.36,1.27-.81,4.34,1.31,4.38.95.02,1.78-.69,2.14-1.5.48-1.06.12-2.23-.39-3.19-1.2-2.26-3.06-4.24-5.21-5.7s-4.36-2.39-6.98-1.39c-1.48.56-2.8,1.36-4.39,1.59-1.25.18-2.59.2-3.75.79-2.36,1.21-2.56,4.32-2.86,6.53-.43,3.08.11,5.97.78,8.94.36,1.61.72,3.23.84,4.89.09,1.25.26,4.43-1.89,4.21-.5-.05-.66.7-.15.75h0Z"/><path class="cls-1" d="m25.42,68.48c1.78,2.02,3.43,4.13,4.97,6.32.28.4.93-.05.65-.45-1.54-2.19-3.2-4.3-4.97-6.32-.32-.36-.97.08-.65.45h0Z"/><path class="cls-1" d="m25.96,65.54c2.34,2.74,4.44,5.67,6.28,8.75.25.41.9-.04.65-.45-1.84-3.08-3.94-6-6.28-8.75-.31-.37-.97.08-.65.45h0Z"/><path class="cls-1" d="m27.23,63.14c2.72,3.52,5.43,7.05,7.64,10.89.24.42.89-.03.65-.45-2.21-3.85-4.92-7.38-7.64-10.89-.3-.38-.95.06-.65.45h0Z"/></g><g><path class="cls-1" d="m132.59,63.44c.71.45,1.46.91,1.99,1.56.6.75.74,1.65.65,2.57-.15,1.61-.89,3.09-1.93,4.31-1.95,2.31-5.61,4.4-8.84,3.74-1.47-.3-2.93-1.44-3.12-2.97-.11-.83.3-1.58.4-2.38.08-.69-.02-1.39-.22-2.06s-.51-1.34-.85-1.97c-.36-.67-.85-1.35-.94-2.12-.12-1.04.72-1.8,1.46-2.39s1.55-1.19,2.32-1.79c1.47-1.17,2.92-2.36,4.34-3.59,1.08-.94,2.13-1.85,1.87-3.41-.25-1.47-1.3-2.82-2.32-3.89-.93-.98-2.05-2.09-3.45-2.35-1.6-.3-2.75.89-3.86,1.79-1.41,1.14-2.81,2.3-4.17,3.5s-2.56,2.36-3.74,3.64c-1.08,1.17-2.33,2.44-2.68,4.03-.29,1.31.15,2.81,1.46,3.48,1.21.61,3.05.4,3.75-.79s-.33-2.62-1.39-3.34c-1.64-1.11-3.66-1.41-5.58-1.66-.54-.07-.6.74-.06.81,1.76.24,3.65.48,5.16,1.51.66.45,1.49,1.24,1.2,2.09-.31.92-1.69,1.08-2.52.75-2.02-.79-1.2-3.22-.31-4.44,1.01-1.38,2.25-2.62,3.48-3.8s2.45-2.24,3.72-3.31,2.45-2.2,3.8-3.08c1.72-1.11,3.39.47,4.54,1.68,1,1.05,2.61,2.9,2.09,4.44-.27.8-1.15,1.38-1.77,1.91-.67.58-1.35,1.15-2.03,1.71-1.33,1.1-2.69,2.16-4.05,3.21-1.02.79-2.14,1.73-2.1,3.13.03,1.28.98,2.38,1.49,3.52.31.7.55,1.45.56,2.21s-.34,1.48-.43,2.24c-.13,1.1.35,2.21,1.13,3.02,1.88,1.95,4.76,1.82,7.11.99,2.81-1,5.34-3.01,6.59-5.67.59-1.26.98-2.83.65-4.23-.36-1.52-1.63-2.44-2.91-3.26-.46-.29-.94.37-.48.66h0Z"/><path class="cls-1" d="m133.12,62.89c-.63-.42-1.03-1.1-.95-1.85.1-.87.74-1.36,1.52-1.67,1.39-.55,3.46-.31,4.22,1.16.7,1.35.99,2.81,1.07,4.29.07,1.31.06,2.63.46,3.91.36,1.15,1.06,2.24,2.15,2.85.89.5,2.1.68,2.87-.07s.8-2.08.34-3.01c-.51-1.04-1.67-1.26-2.71-.93-2.97.95-3.53,4.36-3.27,7.01.05.52.88.39.83-.13-.14-1.4-.1-2.88.56-4.14.53-1.02,1.67-2.19,2.97-2.07,1.62.15,1.44,3.42-.54,2.91-1.39-.36-2.19-1.75-2.5-3s-.27-2.49-.35-3.73-.36-2.42-.84-3.59c-.44-1.07-.97-1.73-2.09-2.18s-2.02-.55-3.11-.18c-1.16.38-2.14,1.03-2.38,2.27-.22,1.09.33,2.17,1.27,2.8.45.3.93-.35.48-.66h0Z"/><path class="cls-1" d="m107.78,57.37c-3.25-.94-5.9-3.01-8.36-5.23-1.19-1.07-2.38-2.15-3.45-3.34-1.15-1.28-2.07-2.73-2.98-4.17-.28-.45-1.04-.12-.76.33.89,1.41,1.79,2.85,2.89,4.12s2.34,2.38,3.57,3.5c2.58,2.35,5.37,4.56,8.8,5.55.52.15.8-.61.28-.76h0Z"/><path class="cls-1" d="m92.94,44.48c-1.35-1.73-2.25-3.74-2.6-5.87-.37-2.26-.14-4.53.08-6.78.1-1.08-.06-2.7,1-3.3.88-.5,1.92-.76,2.92-.91s2.1-.21,3.16-.21c1.28-.01,2.58-.02,3.82.34.52.15.8-.61.28-.76-1.33-.39-2.68-.41-4.04-.39-1.22.01-2.44.05-3.64.27-1.05.19-2.15.49-3.06,1.04-1.03.63-1.06,1.63-1.16,2.73-.25,2.54-.57,5.11-.24,7.67.31,2.43,1.32,4.72,2.85,6.68.33.42.97-.09.64-.51h0Z"/><path class="cls-1" d="m101.28,27.76c1.54.26,4.93.9,5.2,2.8.24,1.67-2.54,3.25-3.93,3.57-1.03.24-2.62-.45-1.67-1.63.69-.85,1.9-1.38,2.72-.34.49.63.85,1.51.76,2.29-.11,1.02-1,1.66-1.74,2.27-1.52,1.27-3.13,2.48-4.58,3.82-.82.76-2.02,2.17-1.1,3.32.8.99,2.6,1.24,3.68.74,1.48-.68,2.92-1.63,4.19-2.62,1.56-1.22,2.82-2.69,3.78-4.4.46-.82.87-1.67,1.24-2.54.41-.94.76-1.9,1.64-2.53.43-.31-.11-.94-.54-.64-.69.49-1.11,1.16-1.47,1.91-.52,1.11-.96,2.24-1.56,3.31-1.09,1.94-2.57,3.53-4.41,4.82-.84.59-1.73,1.12-2.63,1.62-.57.31-1.08.6-1.77.48-.76-.13-1.83-.51-1.54-1.44.33-1.08,1.61-1.88,2.45-2.58.98-.81,1.96-1.63,2.94-2.44,1.35-1.12,2.68-2.28,2.17-4.19-.37-1.41-1.5-3.03-3.18-2.55-1.3.37-2.79,1.88-1.88,3.24,1.05,1.57,3.16.88,4.45.14,1.45-.82,3.47-2.4,2.68-4.29-.84-2.01-3.89-2.64-5.81-2.96-.53-.09-.59.72-.06.81h0Z"/><path class="cls-1" d="m111.28,32.58c.83-.32,1.74-.03,2.58.18.97.24,1.93.51,2.88.81,1.68.52,3.5,1.05,5.02,1.96,1.32.78,2.53,2.31,2.93,3.77.45,1.66-.74,3.13-2.07,3.99-2.46,1.59-5.64,1.67-8.53,1.43s-5.78-.96-8.28.76c-2.06,1.42-2.87,4.26-1.32,6.39,1.44,1.98,4.18,2.52,6.19,1.15.94-.64,1.61-1.62,1.8-2.73.14-.77-.05-1.73.45-2.38s1.44-.63,2.23-.63c2.96,0,6.04-.3,8.61-1.78s4.56-4.16,4.35-7.21c-.1-1.42-.65-2.79-1.49-3.97-.51-.72-1.16-1.36-1.52-2.18-.38-.86-.45-1.77-.29-2.68.09-.51-.75-.59-.84-.08-.23,1.25-.01,2.54.67,3.65.8,1.31,1.89,2.34,2.36,3.83.93,2.97-.59,5.83-3.04,7.53-2.59,1.79-5.87,2.05-8.98,2.07-1.07,0-2.26.11-2.86,1.08-.32.52-.36,1.13-.4,1.72-.06.84-.17,1.57-.69,2.26-.84,1.11-2.34,1.73-3.76,1.35-1.32-.36-2.47-1.5-2.73-2.82-.33-1.68.68-3.32,2.12-4.15,1.35-.77,2.93-.87,4.48-.71,2.81.29,5.62.71,8.41.14,2.37-.48,5.07-1.76,5.87-4.14.92-2.76-1.77-5.74-4.19-6.85-1.76-.81-3.64-1.39-5.5-1.92-1.48-.42-3.33-1.16-4.83-.59-.5.19-.14.93.36.74h0Z"/><path class="cls-1" d="m121.88,41.35c-.18.49.61.78.79.29s-.61-.78-.79-.29h0Z"/><path class="cls-1" d="m131.72,66.84c-.18.49.61.78.79.29s-.61-.78-.79-.29h0Z"/><path class="cls-1" d="m122.36,39.52c-.36.98,1.22,1.57,1.58.58s-1.22-1.57-1.58-.58h0Z"/><path class="cls-1" d="m132.95,66.12c-.36.98,1.22,1.57,1.58.58s-1.22-1.57-1.58-.58h0Z"/><path class="cls-1" d="m119.41,39.08c-.54,1.47,1.83,2.35,2.37.88s-1.83-2.35-2.37-.88h0Z"/><path class="cls-1" d="m131.65,68.55c-.54,1.47,1.83,2.35,2.37.88s-1.83-2.35-2.37-.88h0Z"/></g><g><path class="cls-1" d="m427.4,34.39s0,.07,0,.11v-.11c0,.24,0,.48,0,.72,0,.11-.02.23-.09.32-.06.08-.17.15-.27.15-.11,0-.22-.02-.31-.09-.08-.07-.14-.17-.14-.28-.02-.31-.01-.63,0-.94,0-.1.09-.22.17-.28.08-.06.21-.1.31-.08s.21.08.27.17l.05.1c.03.07.03.15.02.22h0Z"/><path class="cls-1" d="m455.98,32.09c1.47.04,2.63-1.29,2.85-2.72.23-1.54-.43-3.04-1.34-4.2s-2.07-2.07-3.21-2.95c-1.2-.93-2.45-1.79-3.78-2.5-2.55-1.37-5.41-2.18-8.31-1.83s-5.21,2.21-7.46,4.15c-2.61,2.27-4.83,5.26-6.31,8.43-.23.49-.98.14-.74-.35,1.5-3.22,3.73-6.26,6.36-8.57s5.06-4.25,8.47-4.55,6.56.82,9.38,2.53c1.47.89,2.85,1.92,4.17,3.03,1.16.98,2.29,2.08,2.98,3.47s.97,3.28.2,4.77c-.68,1.32-1.95,2.15-3.39,2.11-.53-.01-.38-.85.14-.84h0Z"/><path class="cls-1" d="m427.29,35.06c.04,2.3,1.94,5.33,4.5,4.97,2.11-.3.65-2.85.33-4.02s-.34-2.46-.02-3.66c.2-.73.64-1.84,1.55-1.77,1.01.07.97,1.34.79,2.08-.35,1.4-1.37,2.63-1.43,4.1-.06,1.56,1.59,2.9,2.97,3.18,1.18.24,3.28.03,4.22-.84.55-.5.72-1.27.61-1.99-.06-.37-.19-.76-.4-1.07-.22-.34-.22-.31-.66-.24-.33-.08-.48.03-.46.32-.07.21-.06.42.02.63.43,1.37,2.65,2.03,3.88,1.97,1.3-.06,2.5-.81,3.34-1.82,1.82-2.21,1.99-5.74,1.26-8.4-.16-.57-.37-1.13-.66-1.64s-.8-1.38-1.37-1.54c-1.13-.31-.16,1.61-.02,1.96l.92,2.29c.68,1.68,1.34,3.36,2.03,5.04.34.83.74,1.57,1.7,1.67.84.08,1.62-.37,2.18-.99,1.02-1.13,1.82-3,1.91-4.53.02-.32.02-.73-.16-1.01-.36-.56-.44.21-.48.58-.11,1.04.55,1.92,1.61,1.85.53-.03.61.81.08.85-1.51.1-2.67-1.12-2.52-2.69.05-.54.21-1.64.87-1.77.58-.11,1.09.51,1.28,1,.59,1.57-.39,3.77-1.15,5.11s-2.09,2.63-3.76,2.45c-1.95-.22-2.43-2.46-3.07-4.03-.88-2.19-1.95-4.37-2.66-6.63-.18-.55-.28-1.26.15-1.73.49-.54,1.21-.37,1.73,0,1.35.95,2.05,2.71,2.36,4.32.69,3.54-.04,8.11-3.45,9.93-1.64.88-3.44.69-5.04-.15-1.19-.62-2.52-2.13-1.53-3.56,1.04-1.51,2.49.17,2.79,1.33.41,1.57-.26,3.11-1.73,3.73-1.6.68-3.81.81-5.32-.09-1.49-.89-2.6-2.26-2.24-4.13.23-1.2.94-2.2,1.3-3.35.06-.18.24-.62.18-.8-.38-1.02-.75.29-.82.53-.17.59-.24,1.21-.23,1.81.03,1.29.65,2.31.95,3.51.2.8.17,1.72-.4,2.37-1.16,1.32-3.22.6-4.38-.27-1.46-1.09-2.35-2.89-2.39-4.76,0-.54.81-.64.82-.09h0Z"/><path class="cls-1" d="m459.12,31.89c.56.86.62,1.83.76,2.83.19,1.35.92,2.1,1.76,3.07.78.9.95,1.86,1.36,2.95.46,1.23,1.42,2.17,2.43,2.94,2.03,1.56,4.78,2.6,7.33,1.87,2.22-.64,3.96-2.66,4.39-4.99.49-2.66-1.31-5.46.41-7.91.31-.44.94.1.63.54-.94,1.34-.54,3.01-.29,4.5.21,1.25.25,2.47-.1,3.7-.62,2.14-2.2,4-4.24,4.79-2.35.9-4.97.36-7.11-.83-1.1-.61-2.14-1.39-2.99-2.35s-1.18-2.01-1.59-3.24c-.46-1.36-1.73-2.1-2.35-3.35s-.28-2.85-1.05-4.04c-.29-.45.38-.95.67-.5h0Z"/><path class="cls-1" d="m454.19,34.99c1.89,1.3,1.19,3.82,1.45,5.78.33,2.47,3.05,2.76,4.11,4.71.55,1.02.49,2.23.92,3.29s1.29,1.98,2.1,2.81c.71.73,1.45,1.46,2.02,2.32.18.27.57,1.31.9,1.4l.25-.17c.32-.09.34-.26.07-.49-.13-.17-.31-.3-.48-.42-.37-.25-.79-.36-1.24-.36-.98,0-1.97.27-2.85-.33-.6-.42-.9-1.14-.63-1.87.3-.8,1.27-1.22,1.52-2,.48-1.52-2.54-.61-3.19-.74-.72-.14-1.39-.7-1.36-1.51.04-1.23,1.28-1.54,1.85-2.41s-.29-1.29-1-1.2c-.58.07-1.12.44-1.65.68-.72.32-1.76.58-2.26-.23s-.06-1.75.51-2.33c.52-.52,1.24-.93,1.36-1.74.13-.92-.56-1.77-1.48-1.72-.83.04-2,1.31-2.7.23-.22-.33-.18-.75-.05-1.11.19-.52,1.18-1.27.93-1.84-.21-.5.56-.81.77-.31.18.42.14.8-.07,1.21-.12.23-.28.42-.44.61-.1.12-.21.23-.29.37-.17.28-.25.33.05.47.41.19,1.19-.44,1.7-.48s.99.11,1.4.38c.77.52,1.13,1.5.95,2.43-.09.48-.34.89-.66,1.24-.43.47-1.11.82-1.32,1.46-.38,1.18.94.73,1.5.46.49-.24.99-.53,1.54-.61.76-.12,1.71.12,2.08.88.47.97-.32,1.83-1.01,2.4-.27.22-.75.51-.83.88-.13.58.21.89.7.97.68.11,1.38-.23,2.07-.22.78.02,1.64.45,1.75,1.34s-.61,1.48-1.13,2.05c-.44.48-.83,1.1-.14,1.57.59.4,1.34.22,2.01.19,1.08-.05,2.16.26,2.8,1.21.44.66.46,1.74-.44,1.99-1.04.29-1.54-.8-1.99-1.53-1.17-1.93-3.19-3.15-4.22-5.19-.64-1.28-.46-2.97-1.4-4.08-.83-.98-2.08-1.43-2.94-2.39s-1-2.13-.99-3.36c0-1.4.18-3.14-1.1-4.03-.44-.3.09-.96.53-.66h0Z"/><path class="cls-1" d="m458.49,31.16c.61-.15,1.37-.27,1.99-.1.54.14.71.63.67,1.16-.04.59-.18,1.22-.58,1.67-.37.42-.88.62-1.35.87s-1.07.71-.68,1.3.85.9,1.49.53c.49-.29.91-.68,1.48-.79.5-.1,1.12.1,1.3.63.23.66-.55,1.29-.92,1.73-.18.21-.75.73-.68,1.05.08.37.63.42.92.46.52.08.38.92-.14.84s-1.12-.24-1.43-.75-.14-1.07.21-1.53c.21-.28.44-.54.65-.8.12-.15.24-.29.36-.44.1-.12.29-.25.12-.36-.4-.25-1.21.54-1.54.72-.48.27-1.02.37-1.53.12-.47-.23-.89-.71-1.12-1.19-.56-1.15.55-1.99,1.43-2.43.28-.14.58-.27.8-.51.25-.27.33-.64.37-1,.01-.09.07-.34.02-.42-.08-.13-.45-.08-.58-.08-.4,0-.79.07-1.18.16-.52.12-.59-.72-.08-.85h0Z"/><path class="cls-1" d="m447.15,37.7c2.27,1.02,2.08,3.82,2.46,5.94.13.7.36,1.38.81,1.93s1.02.91,1.52,1.37c.88.8,1.28,1.74,1.52,2.91.29,1.38.56,2.53,1.69,3.42.87.69,1.9,1.12,2.82,1.71,1.87,1.19,2.57,2.86,2.83,5.07.13,1.12.17,2.28.57,3.34.45,1.23,1.42,1.84,2.44,2.53s1.63,1.41,2.13,2.5c.24.53.45,1.1.81,1.55s.93.67,1.34,1.1c.46.49.5,1.3-.16,1.65-.78.41-1.86-.14-2.5-.57-.7-.46-1.31-1.15-1.29-2.06.01-.54.25-.99.53-1.43.19-.31.42-.6.53-.96.05-.17.13-.39.05-.57-.17-.39-.91-.18-1.17.09-.66.68-1.22,1.58-2.29,1.32-.86-.21-1.45-1.06-1.43-1.96,0-.49.19-.97.46-1.37.36-.54.91-.73,1.32-1.19,1.06-1.19-1.14-.88-1.76-.85-.46.03-.93-.02-1.35-.23-.72-.36-1.18-1.17-.76-1.97.53-1.01,1.9-1.02,2.55-1.91.46-.63.47-1.64-.34-1.96-.73-.3-1.26.76-1.83,1.1-.77.46-1.8.48-2.53-.05s-1.05-1.55-.78-2.43c.13-.42.38-.72.7-1,.28-.25.61-.47.68-.88.11-.67-.54-1.22-1.15-1.01-.56.19-.89.91-1.39,1.22-.4.25-.91.37-1.38.3-.91-.14-1.63-1.04-1.49-2.01s1.02-1.39,1.82-1.65c.29-.1,1.46-.32,1.53-.68.05-.25-.45-.45-.59-.48-.17-.04-.39-.02-.56-.01-.45.03-.82.21-1.23.35-.79.27-1.91.26-2.17-.74-.31-1.17.99-1.97,1.4-2.9.35-.78.23-1.67-.74-1.77-.64-.06-1.3.19-1.92.3-.87.15-1.98,0-2.16-1.08-.17-.97.56-1.78,1.26-2.3.08-.06.34-.21.38-.29l-.04-.35c.08-.27.02-.4-.19-.37-.24-.09-.68.06-.91.14-.72.26-1.47.86-1.37,1.74.12,1.11.9,1.95.27,3.08-.54.96-1.64,1.34-2.66,1.27-1.23-.09-2.58-.64-3.63-1.28-.87-.53-1.62-1.28-1.91-2.32-.26-.95-.11-1.96.56-2.71.36-.4.99.13.63.54-.98,1.09-.34,2.63.65,3.41s2.48,1.39,3.7,1.5c.76.07,1.63-.17,1.98-.93.33-.72-.16-1.43-.33-2.12-.21-.87.06-1.7.71-2.3s1.64-.98,2.5-.86c.72.11,1.35.7,1.08,1.51-.3.88-2.16,1.4-1.81,2.48.32.98,2.73-.03,3.54.11s1.44.87,1.45,1.75c0,1.06-.65,1.78-1.23,2.56-.1.14-.36.44-.36.58,0,.29.28.62.5.65.32.05.69-.17.99-.28.49-.17.98-.27,1.5-.24.75.05,1.88.38,1.6,1.4-.26.95-1.34,1.17-2.13,1.43-.45.15-1.05.3-1.23.81-.18.54.19,1.14.74,1.22.44.06.82-.16,1.13-.45.71-.67,1.29-1.4,2.35-1.03.82.29,1.27,1.18,1.08,2.05-.25,1.1-1.76,1.42-1.37,2.69.22.71.91,1.02,1.6.88.75-.14,1.06-.84,1.65-1.22,1.62-1.06,3.07,1.14,2.38,2.65-.46,1-1.32,1.31-2.19,1.81-.36.2-.8.5-.52.98.14.24.46.36.71.42.65.14,1.33-.11,1.98-.07.81.05,1.88.58,1.58,1.6-.32,1.09-1.77,1.25-2.07,2.41-.2.77.36,1.78,1.22,1.41.57-.24.86-.91,1.34-1.29.63-.5,1.61-.66,2.08.14s.07,1.67-.36,2.35c-.4.63-.8,1.27-.34,1.98.32.49.91.8,1.43,1.01.16.06.49.23.67.17.42-.15.14-.41-.09-.58-.37-.28-.75-.49-1.05-.86-.69-.85-.89-2-1.55-2.86-.74-.97-1.94-1.39-2.81-2.2-.69-.64-1.13-1.48-1.37-2.4-.5-1.95-.15-4.33-1.35-6.03-1.21-1.71-3.47-2.11-4.92-3.55-.71-.7-1.07-1.56-1.29-2.54-.31-1.41-.51-2.56-1.63-3.53-.8-.7-1.62-1.31-2.05-2.34-.47-1.1-.48-2.32-.63-3.49-.16-1.23-.55-2.59-1.74-3.13-.48-.22-.14-.99.35-.77h0Z"/><path class="cls-1" d="m443.56,47.04c-.35.38-.87.88-.82,1.46.07.69.77.42,1.24.34s.99.01,1.24.46.06.87-.26,1.2c-.23.23-.66.41-.79.72-.27.62.34,1.1.87.99s1.01-.45,1.6-.26c.51.16.82.63.73,1.19-.14.9-1.18,1.56-.2,2.41.74.64,1.97.81,2.86,1.15,1.44.54,2.99,1.12,4.11,2.23s1.41,2.7,1.75,4.25c.74,3.46,1.22,8.21,4.57,10.09,1.73.97,3.87.67,5.56,1.77.67.43,1.09,1,1.42,1.73.23.49.44.82.85,1.16.3.24.51.43.64.81.07.19,0,.37-.15.5-.83.73-2.13.77-2.96.03-.98-.88-.79-2.33-.55-3.51.02-.12.13-.37.1-.48l-.39-.36-.35.28c-.26.27-.42.62-.68.89-.41.41-.93.62-1.5.55-1.24-.14-1.79-1.45-1.38-2.58.19-.51.93-.16.74.35-.4,1.1.78,1.79,1.57,1.06.39-.36.58-.9,1.03-1.19.5-.33,1.3-.36,1.66.19.46.7-.14,1.87-.17,2.66-.03.65.12,1.34.71,1.67s1.23.19,1.71-.23l-.15.5c-.15-.41-.65-.59-.92-.9-.21-.24-.35-.53-.48-.82-.44-.96-1-1.56-1.97-1.95-1.73-.69-3.63-.54-5.22-1.65-3.04-2.12-3.61-6.24-4.35-9.67-.22-1-.37-2.06-.72-3.02s-1.04-1.69-1.89-2.24c-1.6-1.01-3.46-1.36-5.16-2.11-.62-.27-1.19-.69-1.44-1.36-.1-.26-.15-.54-.12-.82.05-.48.45-.78.53-1.2l.1-.21-.43-.36c-.21-.03-.57.19-.77.26-.25.08-.51.13-.77.09-.54-.07-.96-.49-1.15-1-.21-.55-.12-1.18.27-1.62.07-.08.15-.14.23-.21.19-.17.63-.31.44-.53s-.87.14-1.17.14c-.63,0-1.09-.46-1.23-1.08-.2-.91.39-1.67.97-2.29.36-.4,1,.14.63.54h0Z"/><path class="cls-1" d="m457.58,70.14c.99-.62.67-2.08-.55-2.02-.58.03-1.12.27-1.71.11-.98-.27-1.54-1.33-1.29-2.34.11-.43.37-.8.71-1.07.28-.22.62-.35.92-.56.34-.24.35-.23.27-.68-.08-.48-.2-.51-.64-.51-1.05-.01-2.1.7-2.97-.26-.78-.86,0-1.59.53-2.3.49-.66.78-1.55.45-2.35-.2-.49-.51-.86-1.01-.67-.42.16-.46.46-.71.81-.56.79-1.52,1.39-2.48,1.08-.82-.27-1.44-1.21-1.13-2.09.09-.25.44-.61.22-.9-.24-.32-.88-.14-1.15-.01-.76.34-1.27,1.18-1.45,1.99-.34,1.52.06,3.34.49,4.8.21.72.48,1.43.88,2.07.19.3.4.62.66.86.05.05.58.45.73.32l.12-.71c-.14-.13-.3-.19-.48-.18-.65-.1-1.28.28-1.92.34-.57.06-1.17-.04-1.69-.3-2.43-1.22-1.97-4.46-2.68-6.68-.84-2.61-3.71-3.62-4.94-5.97-.31-.58-.5-1.21-.52-1.88-.02-.81.24-1.69-.05-2.46-.41-1.12-1.73-1.59-2.66-2.14s-1.76-1.23-2.04-2.34c-.36-1.41.29-2.87.9-4.11.24-.49.99-.14.74.35-.73,1.48-1.54,3.4-.12,4.71.87.8,2.04,1.15,2.94,1.9s1.22,1.76,1.14,2.98c-.06.89-.09,1.65.3,2.47s1.01,1.46,1.65,2.04c1.07.98,2.27,1.87,2.99,3.19s.74,2.91,1.03,4.39c.16.81.44,1.66,1,2.27.79.86,1.74.81,2.77.54.94-.24,2.27-.27,2.61.93.3,1.04-.78,1.74-1.67,1.45-1.29-.42-2.03-2.25-2.41-3.45-.77-2.44-1.63-6.83,1.36-8.16.8-.35,2.17-.28,2.37.81.13.72-.83,1.39-.06,2.01.91.74,1.76-.44,2.17-1.14.61-1.03,1.67-1.01,2.43-.1.85,1.02.73,2.47.05,3.57-.2.32-.66.64-.78.98s.16.72.46.79c.27.06.57-.01.83-.07.68-.13,1.34-.33,1.99,0,.45.22.79.65.78,1.18,0,.75-.61,1.22-1.18,1.56-.53.31-1.07.65-1,1.36.09.79.75,1.01,1.41.9.71-.12,1.34-.26,1.98.17,1.17.81,1.02,2.52-.15,3.26-.45.28-.93-.4-.48-.69h0Z"/><path class="cls-1" d="m432.06,42.23c-.34-.05-.89-.18-1.18.08-.58.53.23,1.08.66,1.16.7.13,1.28-.48,1.97-.51.9-.03,1.74.76,1.8,1.68.04.53-.19,1.01-.44,1.46-.14.25-.35.52-.44.8-.18.57.35.73.82.83,1.02.23,2.33-.54,2.81.84.39,1.14-.39,2.01-1.12,2.76-.34.35-.95.9-.55,1.44.18.25.54.43.81.54.77.33,1.19-.15,1.91-.28.96-.18,1.66.67,1.38,1.64-.14.5-.52.86-.9,1.17-.27.21-.57.4-.8.66-.09.11-.3.35-.31.51-.02.5.52.57.84.52.74-.13,1.29-.91,1.96-1.23.55-.26,1.2-.34,1.73,0,1.09.71.77,2.18-.26,2.74-.47.25-.76-.54-.29-.79.39-.21.48-.65.31-1.03s-.67-.32-.96-.22c-.4.13-.73.44-1.06.69-.46.35-.95.68-1.53.71-.93.05-1.78-.71-1.48-1.71.15-.5.56-.87.95-1.19.25-.21.54-.38.76-.63.26-.3.39-.44.13-.78-.25-.31-.29-.24-.62-.12-.5.18-.94.42-1.48.33s-1.1-.41-1.5-.77c-1.01-.89-.44-1.94.36-2.75.46-.47,1.25-1.11.99-1.88-.2-.57-.62-.36-1.06-.3-.33.04-.67.04-1-.01-.5-.08-1.28-.32-1.61-.75-.29-.37-.07-1.02.11-1.4.26-.56.86-1.18.73-1.84-.22-1.07-1.19-.73-1.87-.46-1.03.42-2.5,0-2.73-1.25-.26-1.42,1.38-1.67,2.33-1.52.52.08.38.92-.14.84h0Z"/><path class="cls-1" d="m428.5,30.08c-.83,2.13-3.58,1.51-4.92.35-.9-.79-.96-2.06-1.68-2.99s-1.83-1.57-2.99-1.69c-.62-.06-1.31-.02-1.82.41-.56.47-.88,1.28-1.21,1.92-.59,1.17-1.15,2.36-1.85,3.48-1.18,1.88-2.81,3.46-4.97,3.94-.52.12-.6-.73-.08-.85,2.38-.53,3.93-2.65,5.05-4.73.61-1.15,1.12-2.36,1.79-3.47.47-.77,1.08-1.33,1.96-1.5,1.76-.35,3.61.52,4.72,1.9.29.36.54.77.72,1.2.27.62.36,1.26.89,1.72.93.81,3.03,1.53,3.64-.04.2-.51.94-.16.74.35h0Z"/><path class="cls-1" d="m455.97,41.16c.07-.53.36-1.04.81-1.32.48-.31,1.05-.35,1.59-.25.59.11,1.13.39,1.73.49.54.08,1.11-.02,1.59-.29.2-.11.43-.11.57.09.12.17.1.48-.1.59-.46.26-.95.44-1.47.47-.58.04-1.11-.1-1.66-.29-.46-.15-.95-.34-1.44-.25-.45.08-.75.43-.81.89-.07.54-.88.41-.81-.13h0Z"/><path class="cls-1" d="m461.47,52.02c-.38.84-1.19,1.32-1.62,2.12s-.41,1.69-.04,2.47c.1.2-.05.47-.24.55-.23.09-.43-.04-.53-.24-.43-.9-.44-2-.04-2.92.19-.45.5-.83.83-1.18s.69-.7.89-1.15c.23-.5.97-.15.74.35h0Z"/><path class="cls-1" d="m439.45,22.65c-2.09-.34-1.54-3.7.55-3.36s1.54,3.7-.55,3.36h0Z"/><path class="cls-1" d="m442.72,22.65c-1.56-.26-1.15-2.78.42-2.52s1.15,2.78-.42,2.52h0Z"/><path class="cls-1" d="m441.83,19.49c-.52-.09-.38-.93.14-.84s.38.93-.14.84h0Z"/></g><g><path class="cls-1" d="m262.07,61.11c-.57.66-1.42,1.65-2.46,1.5-.54-.07-.94-.47-1.31-.81-.53-.49-1.01-1.02-1.49-1.56-1.48-1.66-2.82-3.43-4.19-5.17-2.96-3.75-5.93-7.49-8.89-11.24-2.95-3.72-5.99-7.4-8.85-11.18-.35-.47-.74-1-.65-1.61.07-.46.4-.83.73-1.15.67-.65,1.45-1.14,1.89-1.97.78-1.49-.37-2.63-1.92-2.82s-3.41-.15-4.3,1.19c-.78,1.17-.58,2.79.41,3.82,1.1,1.15,2.87,1.5,4.42,1.2,1.03-.2,2.11-.7,3.18-.34s1.8,1.32,2.51,2.08c5.65,6.13,10.32,13,15.91,19.19,1.54,1.71,3.15,3.36,4.85,4.92.84.77,1.74,1.5,2.48,2.37.33.39.72.85.89,1.33.1.29.33,1.5-.6.72-.23-.19-.22-.87-.21-1.13.11-2.4,2.6-3.71,4.47-4.84,1.75-1.05,3.44-2.33,3.9-4.35.11-.47-.67-.59-.78-.12-.5,2.17-2.68,3.31-4.5,4.41-1.59.96-3.15,2.11-3.7,3.9-.24.76-.28,1.66.08,2.4.29.6.97,1.03,1.63.67,1.65-.9-.26-3.15-1.06-3.97-1.45-1.5-3.08-2.82-4.55-4.31-1.56-1.59-3.04-3.25-4.47-4.94-2.76-3.26-5.35-6.65-8.02-9.97-1.39-1.73-2.8-3.45-4.27-5.12-.65-.73-1.3-1.46-1.98-2.17s-1.35-1.4-2.28-1.74c-1.92-.7-3.77.76-5.74.23-.94-.26-1.83-.86-2.14-1.77s-.1-2.04.75-2.58,2.25-.48,3.22-.3c.49.09,1.05.26,1.24.76.23.62-.28,1.28-.69,1.7-.62.63-1.44,1.09-1.87,1.88s-.31,1.55.13,2.29c.52.87,1.25,1.65,1.88,2.45.82,1.04,1.64,2.07,2.46,3.11,1.51,1.91,3.03,3.83,4.54,5.74,3.47,4.38,6.94,8.77,10.4,13.15,1.52,1.92,3.02,3.96,4.88,5.61,1.74,1.54,3.43.48,4.68-.97.32-.37-.3-.84-.61-.48h0Z"/><path class="cls-1" d="m231.09,25.5c-.95-.14-1.06-1.22-1-1.93.01-.13-.01-.45.1-.54s.41-.06.55-.05c.47.03.94.1,1.4.18.94.17,1.85.45,2.72.84.38.17.83.36,1.06.71.18.28.19.74-.24.77-.5.03-.41.78.1.74.96-.07,1.28-1.1.85-1.82-.5-.86-1.73-1.24-2.65-1.53-1.06-.34-2.18-.58-3.3-.63-.41-.02-.85.02-1.13.34-.3.35-.26.96-.26,1.38,0,1,.53,2.11,1.69,2.28.5.07.62-.66.11-.73h0Z"/><path class="cls-1" d="m231.09,22.38c-.02-.93.23-2.24,1.41-2.43.79-.13,1.34.51,1.76,1.04.68.86,1.36,1.95,2.61,2.04.65.05,1.26-.22,1.8-.54.89-.52,1.71-1.17,2.55-1.76s1.64-1.14,2.46-1.72c.76-.53,1.69-1.02,2.3-1.71,1.04-1.18.15-2.65-.71-3.69-1.06-1.28-2.37-1.28-3.77-.5-1.73.97-3.32,2.22-4.85,3.43-.68.54-1.57,1.3-2.53.91-1.05-.42-1.33-1.67-1.11-2.62.46-1.97,2.35-3.32,2.71-5.34.28-1.59-.51-3.22-1.88-4.16-.41-.28-.91.29-.49.57,1.65,1.14,2.01,3.04,1.15,4.7-.79,1.53-2.19,2.83-2.34,4.61-.1,1.2.57,2.58,1.86,2.98,1.51.47,2.75-.78,3.79-1.59.75-.58,1.53-1.15,2.31-1.69s1.65-1.24,2.6-1.54c1.21-.39,1.87.46,2.46,1.34.28.41.57.94.51,1.45-.08.65-.74,1.02-1.24,1.37-1.64,1.15-3.28,2.29-4.92,3.43-.69.48-1.51,1.24-2.42,1.3-.75.05-1.26-.51-1.68-1.03-.71-.89-1.46-2.14-2.82-2.07-1.77.08-2.33,1.87-2.3,3.27,0,.48.79.4.78-.08h0Z"/><path class="cls-1" d="m236.47,24.6c.67-.24,1.1-.91,1.02-1.59-.02-.19-.23-.36-.44-.33s-.37.2-.34.41c0,.05,0,.1,0,.15v-.1c0,.1-.02.19-.04.29l.03-.1c-.03.08-.06.16-.1.24-.02.03-.07.09,0,0-.01.01-.02.03-.03.05-.03.03-.05.07-.08.1-.01.01-.03.03-.04.04-.07.07.05-.04,0,0-.03.03-.07.05-.11.08-.02.01-.03.02-.05.03-.01,0-.02.01-.03.02-.03.02-.02.01.04-.02-.04.01-.08.04-.12.05-.19.07-.31.3-.22.48s.31.29.51.22h0Z"/><path class="cls-1" d="m236.56,27.87c.11.06.17.1.3.19.11.08.22.17.32.26,0,0,.09.08.04.04.03.03.05.05.08.08.04.05.08.09.12.14.09.11.18.23.25.35.02.03.03.05.05.08-.03-.06.02.04.02.05.03.06.06.12.09.18.06.12.11.25.15.38,0,.03.02.06.03.09-.02-.07.01.05.01.05.02.07.03.13.04.2.02.14.04.28.04.42,0,.2.24.35.44.33.23-.02.35-.21.34-.41-.04-1.27-.84-2.46-2-3.09-.18-.1-.45,0-.52.18-.08.2,0,.39.2.49h0Z"/></g><g><path class="cls-1" d="m497.81,65.96c.64.59,1.59,1.46,2.67,1.23.56-.12.97-.53,1.34-.89.53-.52,1.02-1.07,1.5-1.63,1.48-1.72,2.81-3.54,4.18-5.33,2.95-3.86,5.89-7.71,8.84-11.57s5.96-7.63,8.8-11.51c.35-.48.73-1.03.61-1.6-.1-.43-.47-.77-.83-1.04-.74-.57-1.59-.96-2.1-1.73-.9-1.36.26-2.56,1.89-2.87s3.59-.44,4.6.77c.88,1.06.75,2.63-.25,3.71-1.11,1.2-2.96,1.69-4.61,1.54-1.1-.11-2.27-.49-3.38-.05s-1.84,1.42-2.55,2.22c-5.67,6.38-10.27,13.39-15.86,19.81-1.54,1.77-3.16,3.5-4.88,5.15-.85.82-1.77,1.6-2.5,2.5-.33.41-.71.88-.87,1.36-.1.29-.27,1.47.66.64.23-.2.19-.86.16-1.1-.23-2.29-2.93-3.34-4.96-4.26-1.9-.86-3.75-1.93-4.33-3.83-.14-.44.68-.62.82-.18.63,2.04,3,2.94,4.97,3.84,1.72.78,3.43,1.75,4.1,3.42.29.71.38,1.57.03,2.32-.27.6-.97,1.07-1.68.79-1.79-.72.12-3.04.92-3.9,1.46-1.56,3.12-2.98,4.59-4.54,1.57-1.66,3.05-3.38,4.48-5.13,2.76-3.37,5.32-6.85,7.98-10.28,1.38-1.78,2.79-3.56,4.26-5.29.65-.76,1.3-1.52,1.98-2.26s1.36-1.46,2.32-1.87c2-.84,4.02.4,6.08-.28.98-.33,1.89-.98,2.18-1.89s0-1.96-.92-2.41-2.4-.26-3.42,0c-.51.13-1.1.34-1.27.84-.22.62.36,1.21.82,1.57.69.55,1.57.93,2.07,1.64s.4,1.46-.03,2.21c-.51.88-1.23,1.69-1.86,2.51-.82,1.07-1.63,2.13-2.45,3.2-1.5,1.97-3.01,3.94-4.51,5.91-3.45,4.51-6.9,9.02-10.34,13.54-1.51,1.98-2.99,4.07-4.88,5.81-1.76,1.63-3.6.76-4.99-.52-.35-.33.27-.84.62-.51h0Z"/><path class="cls-1" d="m528.78,29.06c.99-.21,1.06-1.26.97-1.94-.02-.13,0-.43-.13-.51s-.44-.02-.58,0c-.5.07-.99.17-1.48.3-.98.25-1.93.6-2.83,1.04-.4.2-.86.42-1.09.78-.17.28-.17.73.29.72.53-.01.47.71-.06.72-1.02.02-1.4-.94-.99-1.68.49-.87,1.77-1.34,2.73-1.71,1.11-.42,2.28-.75,3.46-.9.43-.05.9-.06,1.21.23.33.31.32.9.34,1.31.05.96-.45,2.08-1.67,2.34-.53.11-.68-.58-.16-.7h0Z"/><path class="cls-1" d="m528.63,26.07c-.03-.89-.36-2.13-1.61-2.21-.84-.06-1.39.61-1.81,1.16-.68.89-1.34,1.99-2.66,2.18-.69.1-1.34-.1-1.93-.36-.97-.42-1.86-.97-2.78-1.46s-1.79-.96-2.68-1.43c-.83-.44-1.84-.83-2.52-1.44-1.16-1.05-.29-2.53.57-3.61,1.06-1.32,2.44-1.44,3.96-.81,1.87.78,3.61,1.84,5.3,2.87.74.45,1.72,1.11,2.72.66,1.09-.5,1.33-1.72,1.05-2.61-.58-1.85-2.65-2.98-3.12-4.89-.37-1.5.38-3.13,1.78-4.16.42-.31.97.2.55.51-1.69,1.24-1.97,3.09-.98,4.62.91,1.4,2.45,2.52,2.7,4.22.16,1.14-.48,2.52-1.81,3.02-1.57.59-2.94-.51-4.08-1.19-.83-.49-1.67-.97-2.53-1.42s-1.8-1.04-2.82-1.25c-1.3-.26-1.95.61-2.53,1.5-.27.42-.56.96-.47,1.44.11.61.83.91,1.37,1.2,1.79.96,3.58,1.91,5.37,2.87.76.4,1.65,1.06,2.62,1.03.8-.02,1.31-.6,1.72-1.13.71-.92,1.44-2.18,2.88-2.24,1.87-.07,2.55,1.59,2.59,2.94.01.46-.81.45-.83,0h0Z"/><path class="cls-1" d="m523.05,28.67c-.72-.17-1.2-.78-1.15-1.44.02-.19.23-.37.45-.36s.4.16.38.36c0,.05,0,.09,0,.14v-.1c0,.09.02.18.06.27l-.04-.09c.03.08.07.15.12.22.02.03.08.08,0,0,.01.01.02.03.04.04.03.03.06.06.09.09.01.01.03.02.04.04.08.06-.06-.04,0,0,.04.02.08.05.12.07.02,0,.03.02.05.02.01,0,.02.01.04.02.04.01.02,0-.04-.01.04.01.09.03.13.04.21.05.34.26.25.44s-.31.3-.53.25h0Z"/><path class="cls-1" d="m523.12,31.82c-.11.06-.17.11-.31.21-.11.09-.22.18-.33.28,0,0-.09.09-.04.04-.03.03-.05.06-.08.09-.04.05-.08.1-.12.15-.09.11-.17.23-.25.36-.02.03-.03.05-.05.08.03-.06-.02.04-.02.05-.03.06-.06.12-.09.18-.05.12-.1.25-.14.37,0,.03-.02.06-.02.09.02-.07,0,.04,0,.05-.01.06-.02.13-.03.19-.02.13-.02.27-.02.4,0,.19-.24.36-.45.36-.24,0-.38-.17-.38-.36-.02-1.22.77-2.43,1.96-3.14.19-.11.47-.03.56.13.1.19.01.38-.19.49h0Z"/></g><g><path class="cls-1" d="m549.02,58.33c-.95.25-1.96.49-2.78,1.06-.94.65-1.43,1.65-1.67,2.75-.42,1.94-.13,3.96.57,5.79,1.33,3.46,4.64,7.33,8.49,7.8,1.75.21,3.79-.55,4.56-2.26.42-.93.24-1.96.42-2.94.16-.83.53-1.62,1-2.32s1.06-1.37,1.67-1.97c.65-.64,1.44-1.25,1.82-2.11.51-1.17-.15-2.38-.76-3.36s-1.29-1.99-1.93-3c-1.22-1.94-2.39-3.9-3.53-5.88-.86-1.51-1.7-2.99-.84-4.71.81-1.62,2.48-2.79,4-3.65,1.39-.78,3.05-1.64,4.7-1.41,1.9.27,2.74,2.11,3.65,3.59,1.15,1.88,2.29,3.78,3.36,5.71,1.03,1.86,1.99,3.76,2.84,5.71.77,1.78,1.7,3.76,1.51,5.75-.16,1.65-1.2,3.23-2.9,3.5-1.57.25-3.54-.72-3.89-2.38s1.33-2.94,2.77-3.37c2.23-.67,4.6-.22,6.83.22.62.12.4,1.1-.23.97-2.05-.41-4.25-.85-6.3-.24-.9.27-2.11.88-2.1,1.98.01,1.2,1.49,1.92,2.54,1.86,2.54-.14,2.52-3.3,1.97-5.07-.62-2-1.55-3.93-2.49-5.79s-1.91-3.57-2.94-5.31-1.93-3.52-3.11-5.07c-1.5-1.97-3.95-.77-5.68.2-1.5.84-3.97,2.38-3.95,4.38.01,1.04.78,2.06,1.28,2.92.54.94,1.08,1.87,1.64,2.79,1.08,1.8,2.2,3.56,3.34,5.32.85,1.32,1.75,2.85,1.2,4.47-.5,1.48-1.96,2.41-2.94,3.54-.6.69-1.15,1.48-1.43,2.37s-.16,1.86-.34,2.78c-.26,1.34-1.2,2.45-2.37,3.1-2.81,1.55-5.97.29-8.28-1.6-2.77-2.26-4.85-5.59-5.28-9.19-.2-1.71-.05-3.69.83-5.2.96-1.64,2.71-2.23,4.44-2.68.62-.16.91.79.3.95h0Z"/><path class="cls-1" d="m548.63,57.49c.86-.25,1.55-.88,1.73-1.79.21-1.06-.33-1.88-1.09-2.54-1.35-1.18-3.74-1.71-5.13-.28-1.27,1.3-2.13,2.9-2.76,4.6-.56,1.5-1.03,3.06-1.94,4.39-.82,1.2-2,2.21-3.44,2.5-1.17.24-2.59-.02-3.17-1.19s-.14-2.74.72-3.65c.95-1.02,2.32-.83,3.35-.04,2.96,2.27,2.34,6.46,1.08,9.47-.25.59-1.12.12-.87-.47.66-1.59,1.16-3.32.89-5.06-.21-1.4-1.06-3.21-2.55-3.58-1.86-.45-2.85,3.44-.46,3.61,1.68.12,3.08-1.19,3.88-2.54s1.2-2.8,1.75-4.22,1.29-2.69,2.25-3.87c.88-1.08,1.71-1.65,3.12-1.73s2.45.15,3.54,1c1.15.9,2.01,2.04,1.83,3.58-.16,1.36-1.16,2.41-2.44,2.79-.61.18-.91-.77-.3-.95h0Z"/><path class="cls-1" d="m578.88,60.86c3.97.16,7.68-1.23,11.23-2.87,1.71-.79,3.44-1.59,5.06-2.57,1.74-1.05,3.3-2.39,4.84-3.72.48-.41,1.21.26.72.68-1.51,1.31-3.03,2.64-4.73,3.7s-3.48,1.87-5.26,2.7c-3.73,1.74-7.65,3.25-11.83,3.08-.63-.03-.67-1.02-.04-1h0Z"/><path class="cls-1" d="m600.12,51.54c2.14-1.5,3.88-3.49,5.04-5.85,1.23-2.49,1.81-5.25,2.39-7.96.28-1.3,1.06-3.13.09-4.25-.79-.92-1.86-1.63-2.92-2.2s-2.27-1.05-3.44-1.48c-1.42-.51-2.86-1.03-4.39-1.08-.63-.02-.67-1.02-.04-1,1.62.06,3.13.56,4.65,1.11,1.35.49,2.7,1.01,3.96,1.72,1.1.63,2.22,1.41,3.02,2.41.92,1.14.58,2.31.3,3.64-.65,3.07-1.23,6.2-2.54,9.07-1.24,2.72-3.19,5-5.62,6.71-.52.37-1.05-.48-.53-.84h0Z"/><path class="cls-1" d="m596.94,28.75c-1.81-.29-5.82-.87-6.81,1.26-.87,1.86,1.64,4.78,3.08,5.69,1.06.68,3.08.49,2.46-1.26-.45-1.27-1.61-2.36-2.9-1.45-.78.54-1.49,1.43-1.68,2.38-.24,1.24.5,2.32,1.1,3.33,1.24,2.07,2.58,4.11,3.71,6.25.63,1.2,1.46,3.33.02,4.3-1.25.85-3.35.44-4.37-.56-1.4-1.37-2.66-3.03-3.71-4.68-1.29-2.03-2.16-4.24-2.61-6.61-.21-1.14-.35-2.29-.46-3.45-.11-1.26-.15-2.52-.9-3.59-.37-.53.47-1.06.84-.53.59.84.81,1.79.94,2.8.18,1.5.25,2.99.53,4.48.5,2.69,1.58,5.12,3.15,7.35.72,1.02,1.51,1.98,2.34,2.92.52.58.99,1.12,1.79,1.25.89.15,2.23.11,2.25-1.09.02-1.4-1.1-2.83-1.78-3.97-.79-1.33-1.59-2.66-2.38-3.99-1.1-1.83-2.15-3.7-.89-5.75.93-1.5,2.78-2.96,4.48-1.75,1.31.94,2.42,3.28.91,4.51-1.75,1.43-3.84-.2-5.01-1.56-1.31-1.52-2.99-4.15-1.42-6.05,1.67-2.02,5.3-1.58,7.56-1.21.63.1.4,1.07-.23.97h0Z"/><path class="cls-1" d="m584.04,30.52c-.81-.69-1.93-.71-2.94-.79-1.17-.09-2.34-.15-3.51-.17-2.06-.04-4.29-.13-6.31.34-1.76.4-3.67,1.72-4.64,3.28-1.11,1.77-.32,3.95.85,5.47,2.17,2.81,5.67,4.15,8.98,4.98s6.79,1.12,8.95,4.11c1.78,2.46,1.65,6.09-.87,7.98-2.33,1.75-5.58,1.32-7.31-1.05-.81-1.11-1.2-2.52-1.01-3.89.13-.96.69-2,.37-2.96s-1.37-1.29-2.25-1.6c-3.3-1.15-6.62-2.7-8.94-5.42-2.34-2.74-3.56-6.63-2.21-10.11.63-1.63,1.74-3.01,3.11-4.06.84-.64,1.79-1.14,2.49-1.96.74-.86,1.15-1.9,1.3-3.02.08-.64,1.05-.4.96.23-.21,1.55-.92,2.98-2.08,4.01-1.37,1.22-2.96,2-4.02,3.56-2.12,3.11-1.48,7.05.63,9.98,2.23,3.09,5.79,4.68,9.25,5.91,1.19.42,2.48,1,2.79,2.37.16.73-.01,1.46-.18,2.17-.24,1-.38,1.91-.06,2.91.52,1.63,1.97,2.93,3.7,3.03,1.61.09,3.3-.8,4.07-2.24.99-1.84.46-4.15-.85-5.68-1.22-1.43-2.94-2.15-4.73-2.57-3.24-.75-6.52-1.35-9.42-3.1-2.47-1.48-5.01-4.02-5.03-7.12-.02-3.58,4.07-6.02,7.18-6.38,2.25-.26,4.57-.22,6.83-.11,1.8.08,4.14-.07,5.6,1.18.49.42-.19,1.15-.67.73h0Z"/><path class="cls-1" d="m569.02,36.66c.02.64-.97.68-.99.03s.97-.68.99-.03h0Z"/><path class="cls-1" d="m548.75,62.65c.02.64-.97.68-.99.03s.97-.68.99-.03h0Z"/><path class="cls-1" d="m569.16,34.33c.05,1.29-1.93,1.36-1.98.07-.05-1.29,1.93-1.36,1.98-.07h0Z"/><path class="cls-1" d="m547.63,61.32c.05,1.29-1.93,1.36-1.98.07s1.93-1.36,1.98-.07h0Z"/><path class="cls-1" d="m572.61,34.95c.07,1.93-2.9,2.04-2.97.1s2.9-2.04,2.97-.1h0Z"/><path class="cls-1" d="m548.19,64.67c.07,1.93-2.9,2.04-2.97.1s2.9-2.04,2.97-.1h0Z"/></g><g><path class="cls-1" d="m688.81,7.6c1.41,4.4,2.4,9.6-.53,13.71-1.03,1.44-2.82,2.84-4.72,2.49-1.01-.19-1.64-.92-2.26-1.65-.9-1.06-1.8-2.12-2.63-3.23-1.55-2.06-2.91-4.25-4.39-6.36s-3.06-4.24-5.1-5.8-5.28-.41-6.92,1.44c-.2.23-.53.57-.63.85-.18.49.12.75.42,1.05.52.53,1.05,1.06,1.57,1.61.89.94,1.75,1.9,2.59,2.89,1.76,2.06,3.4,4.22,4.91,6.46.74,1.09,1.48,2.2,2.13,3.35.5.89.94,1.9.68,2.95-.23.93-.97,1.62-1.69,2.22-1.07.9-2.17,1.76-3.28,2.6-2.24,1.7-4.56,3.31-6.94,4.8s-4.81,2.88-7.31,4.16c-.98.51-2.14,1.3-3.29,1.27-.84-.02-1.69-.56-1.72-1.45-.03-.82.67-1.46,1.31-1.9,1.12-.76,2.35-1.39,3.5-2.1,2.47-1.51,4.9-3.1,7.27-4.75,1.12-.77,2.29-1.53,3.33-2.4,1.15-.96,1.46-2.1,1.13-3.51-.28-1.22-.77-2.41-1.19-3.59-.46-1.31-.95-2.61-1.49-3.9-.58-1.38-1.23-2.73-1.98-4.02-.29-.49-.58-1.02-.95-1.45-.43-.5-1.97-1.13-1.89.09.04.6.61,1.15.96,1.61.45.59.9,1.18,1.36,1.78.87,1.14,1.75,2.29,2.62,3.43s1.75,2.29,2.62,3.43c.29.39-.33.83-.63.44-1.78-2.33-3.55-4.66-5.33-6.99-.73-.96-1.73-1.94-2.22-3.06-.32-.74-.16-1.59.64-1.96,2.13-.99,3.49,2.22,4.2,3.57,1.28,2.47,2.25,5.08,3.15,7.7.65,1.89,1.75,4.23.37,6.09-.71.96-1.85,1.63-2.81,2.32-1.16.82-2.33,1.63-3.51,2.42-2.41,1.61-4.86,3.16-7.35,4.63-.68.4-3.34,1.67-1.94,2.63.6.41,1.46-.01,2.04-.29.71-.34,1.41-.7,2.1-1.06,5.08-2.66,9.92-5.77,14.44-9.29,1.04-.81,2.21-1.61,3.1-2.59,1.05-1.16.66-2.42-.04-3.62-1.37-2.36-2.97-4.61-4.63-6.78s-3.5-4.3-5.43-6.28c-.59-.61-1.84-1.41-1.67-2.39.15-.91,1.16-1.81,1.85-2.36,1.57-1.26,4.05-2.11,5.99-1.3,1.07.45,1.95,1.38,2.75,2.19.85.88,1.64,1.82,2.38,2.79,1.56,2.05,2.92,4.24,4.39,6.36.75,1.08,1.54,2.12,2.37,3.14.44.54.89,1.07,1.34,1.6s.85,1.1,1.5,1.35c2.28.9,4.39-1.82,5.17-3.56,1.07-2.37,1.09-5.01.64-7.51-.25-1.37-.64-2.71-1.06-4.03-.15-.46.57-.72.72-.26h0Z"/><path class="cls-1" d="m684.78,26.43c4.33,6.27,8.18,12.85,11.49,19.71.82,1.69,1.63,3.4,2.35,5.13.58,1.37,1.09,2.83,1.16,4.33.14,3.22-2.28,5.32-4.57,7.28-5.5,4.73-11.96,8.22-18.51,11.29-3.39,1.59-6.83,3.07-10.27,4.57-1.74.76-3.46,1.61-5.24,2.26-1.4.51-2.88.68-4.21-.06s-2.3-2.03-3.27-3.15c-1.2-1.38-2.34-2.8-3.45-4.26-2.24-2.95-4.31-6.02-6.28-9.16-4-6.39-7.6-13.01-11.29-19.58-1.8-3.21-3.74-6.38-5.41-9.65-.56-1.08-1.06-2.35-.85-3.6.07-.43.27-1.12.64-1.39.4-.3,1.2,0,1.6.18,1.25.55,2.11,1.71,2.95,2.73,1.19,1.43,2.37,2.86,3.55,4.3,2.42,2.95,4.81,5.92,7.12,8.96,4.5,5.92,8.69,12.08,12.1,18.68,1.67,3.23,3.38,6.61,4.2,10.17.23,1,.92,3.03-.31,3.69s-2.21-.46-2.69-1.42c-.81-1.65-1.54-3.34-2.3-5.01-.2-.44.52-.7.72-.26.72,1.57,1.42,3.14,2.16,4.7.17.36.33.72.6,1.01.36.38,1.2.69,1.41-.09.09-.33-.03-.76-.08-1.08-.07-.52-.17-1.04-.3-1.56-.8-3.28-2.35-6.4-3.87-9.4-3.13-6.13-6.95-11.89-11.06-17.41-2.05-2.75-4.17-5.45-6.33-8.11s-4.17-5.26-6.4-7.76c-.43-.48-.9-.96-1.47-1.29-.23-.13-.7-.42-.99-.37-.36.06-.44.55-.49.85-.21,1.26.47,2.58,1.06,3.64,1.72,3.11,3.49,6.2,5.23,9.29,6.6,11.74,12.89,24.04,22.07,34.08,1.05,1.15,2.24,2.18,3.93,1.98s3.24-1.13,4.74-1.78c3.19-1.39,6.39-2.77,9.57-4.21,6.13-2.77,12.2-5.79,17.64-9.76,1.34-.98,2.64-2.01,3.88-3.11s2.51-2.16,3.22-3.59c1.36-2.76-.22-5.89-1.36-8.4-2.9-6.43-6.28-12.65-10.09-18.59-.94-1.47-1.92-2.93-2.91-4.37-.28-.4.35-.84.63-.44h0Z"/><path class="cls-1" d="m652.28,42.26c-1.43,1.51-3.31.28-4.36-.94-1.52-1.74-2.55-3.82-3.59-5.85-1.13-2.2-2.3-4.38-4.05-6.16-.83-.84-1.74-1.63-2.66-2.38-.83-.68-1.81-1.42-2.95-1.42-1.29,0-2.37.91-3.4,1.58-.96.62-1.96,1.02-3.06,1.33-1.25.35-2.61.65-3.54,1.61-.8.83-1.24,1.96-1.58,3.03-.7,2.2-.93,4.53-.66,6.8.13,1.14.32,2.67,1.35,3.39.41.29,1.05.43,1.54.23.7-.28.79-1.05.57-1.67-.56-1.62-2.35-1.8-3.38-.46-.85,1.1-1.18,2.71-1.6,4-.88,2.71-1.66,5.45-2.34,8.21-.12.47-.87.35-.75-.13.73-2.95,1.57-5.87,2.52-8.76.61-1.86,1.38-5.21,4.01-5.04,1.81.12,3.34,2.83,1.81,4.2-.69.61-1.75.59-2.53.2-1.02-.52-1.5-1.65-1.73-2.7-.55-2.5-.43-5.2.23-7.68s1.69-4.6,4.25-5.49c1.44-.5,2.92-.73,4.23-1.55,1.04-.65,2.03-1.49,3.25-1.77,2.5-.57,4.61,1.71,6.24,3.21,2.26,2.1,3.7,4.66,5.09,7.37.75,1.47,1.51,2.94,2.48,4.29.72,1.01,2.61,3.57,4.05,2.05.34-.36.93.12.59.48h0Z"/><path class="cls-1" d="m694.13,51.17c-.03,2.67.08,5.35.34,8.01.05.48-.72.55-.76.07-.26-2.66-.37-5.33-.34-8.01,0-.48.77-.55.76-.07h0Z"/><path class="cls-1" d="m691.88,49.25c.02,3.59.32,7.17.92,10.7.08.48-.68.54-.76.07-.59-3.53-.9-7.11-.92-10.7,0-.48.76-.55.76-.07h0Z"/><path class="cls-1" d="m689.42,48.2c.23,4.42.47,8.86,1.28,13.21.09.47-.68.54-.76.07-.81-4.36-1.05-8.79-1.28-13.21-.02-.48.74-.55.76-.07h0Z"/></g><g><path class="cls-1" d="m750.81,80.57c.87,1.7,2.99.68,4.28.02,1.58-.81,3.15-1.65,4.71-2.49,2.92-1.57,5.89-3.11,8.71-4.89,1.25-.79,2.61-1.82,3.09-3.36s-.06-3.18-.7-4.53c-.56-1.17-1.34-3.19-2.76-3.28s-2.99,1.08-4.22,1.69c-3.1,1.54-6.21,3.08-9.31,4.61-1.48.74-2.97,1.47-4.45,2.21-1.01.5-2.28,1.38-3.42,1.1-.71-.17-1.36-.87-1.28-1.71.12-1.25,1.63-1.72,2.5-2.17,2.98-1.54,5.95-3.07,8.93-4.61,1.39-.72,2.78-1.43,4.17-2.15,1.5-.78,3.11-1.46,4.54-2.39.95-.61,1.63-1.43,1.47-2.65-.09-.68-.38-1.31-.64-1.92-.7-1.62-1.4-3.27-2.16-4.86-.36-.75-.79-1.64-1.66-1.8-1.43-.27-1.34,1.36-.97,2.28.53,1.33,1.46,2.53,2.36,3.59,1.72,2.02,3.75,3.68,5.66,5.49,3.18,3.02,7.45,7.83,5.26,13.03-1.02,2.44-3.17,4.09-5.3,5.34-2.67,1.57-5.53,2.78-8.29,4.12-2.62,1.27-5.42,2.76-8.3,2.64-1.32-.05-2.69-.42-3.48-1.58-.91-1.34-1.48-3.05-2.16-4.54-1.57-3.41-3.14-6.82-4.71-10.23-1.35-2.94-2.95-5.89-3.17-9.28-.02-.28.11-.5.33-.64,4.37-2.76,8.81-5.39,13.32-7.87,2.03-1.11,4.3-2.07,6.03-3.71,1.98-1.88,2.07-4.26.78-6.43-.5-.84-1.12-1.6-1.73-2.36-.78-.97-1.88-3.11-3.22-3-1.06.09-2.28.62-3.3,1-1.15.42-2.28.9-3.39,1.43-2.06.98-4.07,2.1-6.04,3.28-.96.57-1.92,1.16-2.87,1.75-1.04.64-2.21,1.25-2.89,2.36-1.41,2.3-.45,5.09.55,7.17.44.91,1.56,3.55,2.73,1.79.77-1.16-.16-2.67-.78-3.54-1.3-1.8-3.07-3.1-4.5-4.77-1.3-1.51-2.31-3.3-3.13-5.17-1.53-3.49-3.47-8.28-2.22-12.32.67-2.15,2.28-2.96,3.74-4.41.95-.94,1.58-3.02-.28-3.05-1.22-.02-2.59.94-3.56,1.72-2.17,1.74-3.51,4.13-4.34,6.82-.82,2.65-1.23,5.44-2.43,7.97-2.17,4.58-6.56,6.88-10.71,8.89-.66.32-1.08-.74-.42-1.06,2.4-1.16,4.85-2.36,6.94-4.16,2.3-1.98,3.56-4.52,4.38-7.47.79-2.84,1.31-5.79,2.84-8.35,1.27-2.14,3.21-4,5.38-5.02,1.62-.76,4.14-.84,4.24,1.56.11,2.41-2.18,3.44-3.58,4.87-2.21,2.27-1.54,5.88-.77,8.51.76,2.61,1.71,5.22,3.07,7.51s3.27,3.88,5.04,5.76c1.26,1.34,3.04,3.49,2.29,5.67-.75,2.18-2.98,2.25-4.03.56-1.2-1.95-2.31-4.4-2.25-6.84.06-2.68,1.48-4.33,3.59-5.64,2.35-1.47,4.71-2.91,7.14-4.21s4.75-2.35,7.24-3.15c.95-.31,2.09-.82,3.07-.63,1.23.24,2.03,1.79,2.78,2.72,1.5,1.88,3.46,3.98,3.43,6.7-.03,2.66-2.01,4.55-4.03,5.86-2.81,1.81-5.86,3.23-8.75,4.9s-6.01,3.55-8.96,5.41l.33-.64c.21,3.29,1.79,6.15,3.1,9,1.48,3.21,2.95,6.42,4.43,9.62.73,1.58,1.32,3.48,2.3,4.89.98,1.42,3.12,1.31,4.64.99,3.04-.63,5.99-2.41,8.81-3.78,2.78-1.34,5.84-2.54,8.17-4.76,2.58-2.46,2.88-5.74,1.37-8.76-2.53-5.08-7.72-7.75-11.03-12.13-1.06-1.41-3.27-4.41-1.51-6.28.71-.75,1.81-.79,2.63-.38,1.11.56,1.62,1.88,2.12,2.99.71,1.58,1.48,3.15,2.11,4.77.44,1.13.71,2.4.14,3.6-.57,1.19-1.75,1.85-2.81,2.41-1.58.83-3.17,1.64-4.76,2.46-3.17,1.64-6.35,3.28-9.52,4.92-.79.41-1.59.82-2.38,1.23-.34.17-2.17.81-1.58,1.58.44.57,2.07-.48,2.53-.71.94-.47,1.89-.94,2.83-1.4,3.24-1.6,6.48-3.21,9.71-4.81,1.41-.7,2.81-1.47,4.25-2.09,1.07-.47,2.23-.76,3.26-.18,1.14.65,1.79,2.12,2.38,3.3.62,1.25,1.14,2.61,1.12,4.08-.03,3.29-2.85,5.07-5.28,6.47-3.47,2-6.98,3.92-10.52,5.78-2.22,1.17-5.73,3.29-7.29.26-.33-.64.68-1.15,1.01-.51h0Z"/><path class="cls-1" d="m736.59,15.32c1.32-.66,2.63-1.33,3.95-1.99l-.33.64c-.24-1-.7-3.74-1.89-3.71s-2.66.8-3.74,1.35c-1.09.55-2.14,1.22-3.1,2.01-.67.55-1.75,1.53-1.13,2.45.48.72,1.45.78,2.21.84,1.2.09,2.18.42,3.33.67,1.24.27,2.08-.62,3.25-.9s1.53.55,2.53.7c1.07.15,2.33-.54,3.44-.58,4.61-.16,7.97,3.69,9.37,7.98.33,1,.57,2.04.75,3.1.25,1.47.63,2.66,2.11,3.06,2.45.67,4.78-1.46,6.79-2.8,2.3-1.53,4.67-2.12,7.2-1.28,2.72.91,4.76,3.08,6.69,5.17.48.52-.4,1.28-.87.76-2.14-2.31-4.56-4.89-7.84-5.16-3.06-.25-5.24,2.17-7.82,3.6-1.97,1.09-4.56,1.55-6.21-.16-.74-.76-.92-1.74-1.1-2.8-.26-1.49-.62-2.94-1.2-4.31-1.13-2.68-3.1-4.94-5.83-5.73-1.37-.4-2.67-.25-4.07.11-.5.13-1.02.25-1.54.21-.72-.06-1.19-.73-1.87-.78-.96-.07-1.96.94-2.95,1.05-1.33.15-2.58-.63-3.89-.72-1.1-.08-2.24-.13-3.07-.95-.7-.69-.93-1.72-.47-2.7.6-1.27,2.03-2.17,3.13-2.89,1.27-.83,2.63-1.49,4.03-1.97,1.07-.36,2.51-1,3.34,0s1.18,2.82,1.5,4.14c.06.24-.13.54-.33.64l-3.95,1.99c-.65.33-1.07-.73-.42-1.06h0Z"/><path class="cls-1" d="m737.14,16.25c-.46.19-.91.29-1.39.29-.2,0-.41-.02-.61-.06-.24-.05-.54-.1-.73-.26-.48-.4-.25-1.17.09-1.64.3-.41.71-.7,1.14-.94.47-.26.95-.49,1.43-.74.27-.14.62-.02.72.27s-.01.64-.3.78c-.45.23-.91.45-1.36.7-.09.05-.19.11-.28.16-.02.01-.04.03-.06.04.05-.04.05-.04,0,0-.04.03-.08.06-.12.09-.09.07-.17.15-.25.23.1-.1-.02.02-.04.05-.02.03-.09.1-.09.14.04-.07.04-.08,0-.02l-.02.04s-.02.06-.03.09c-.02.07-.02.06,0-.02-.03.04,0,.17-.02.02-.02-.12-.09-.21-.19-.26.02,0,.04.02.06.02.05.02.1.03.15.05.04.01.14.03.04.01.11.02.21.04.32.05s.22,0,.33,0c.06,0,.06,0,0,0,.02,0,.05,0,.07,0,.06,0,.11-.01.16-.02.11-.02.22-.04.33-.07.05-.01.09-.03.14-.04-.12.04.07-.03.09-.04.27-.11.61-.03.72.27.1.27,0,.66-.3.78h0Z"/></g></svg>