<?xml version="1.0" encoding="UTF-8"?><svg id="Layer_1" xmlns="http://www.w3.org/2000/svg" width="50" height="50" viewBox="0 0 50 50"><defs><style>.cls-1{fill:#d18229;}</style></defs><path class="cls-1" d="m11.55,38.23c-1.13.56-2.69.58-3.57-.62-.4-.54-.61-1.27-.45-1.93s.69-1.14,1.23-1.45c1.04-.59,2.36-.91,3.54-.89s2.82.68,3.04,2.24c.11.75-.3,1.58-1,1.73-.66.14-1.31-.38-1.64-.99-.4-.75-.46-1.67-.51-2.51-.05-.76-.05-1.52-.03-2.28.11-3.01.79-5.97,2-8.63.61-1.34,1.34-2.63,2.3-3.7s2.09-1.84,3.34-2.37,2.62-.83,3.98-.93c.66-.05,1.34.05,1.99-.04.59-.09.82-.53.95-1.12.32-1.4.03-2.89-.29-4.29-.15-.64-.35-1.28-.85-1.7s-1.15-.58-1.74-.75c-2.81-.78-5.73-.98-8.56-.58-.86.12-2.43.19-2.79,1.27-.44,1.32,1.41,2.18,2.21,2.66,1.26.75,2.57,1.38,3.92,1.88.55.2,1.22.53,1.79.34.46-.16.67-.66.62-1.18-.07-.63-.5-1.09-.91-1.5-.18-.18-.45.09-.27.27.26.26.53.52.7.86.19.4.18.96-.24,1.14-.33.14-.72-.02-1.05-.13-.39-.14-.78-.28-1.16-.44-1.39-.57-2.74-1.27-4.02-2.1-.52-.34-1.67-1.04-1.12-1.83.35-.51,1.07-.6,1.62-.7,1.48-.27,2.98-.37,4.49-.3s3.01.29,4.48.68c.66.18,1.48.33,1.98.89s.61,1.53.75,2.26c.15.78.25,1.57.2,2.36-.03.38-.08.77-.21,1.12-.17.49-.58.5-1.01.49-1.37-.03-2.73.09-4.05.45-2.62.7-4.8,2.3-6.3,4.73s-2.42,5.23-2.86,8.11c-.23,1.49-.32,3.01-.26,4.54.05,1.34.1,2.98,1.14,3.93.87.8,2.1.64,2.61-.46s-.11-2.49-1.06-3.16-2.19-.76-3.29-.58-2.35.51-3.24,1.28c-.82.71-1.1,1.86-.63,2.95.51,1.18,1.64,1.79,2.77,1.77.57-.01,1.12-.17,1.63-.42.22-.11.04-.48-.18-.37h0Z"/><path class="cls-1" d="m11.68,38.62c.29-.08,1.04-.2,1,.38-.03.45-.52.58-.84.63-.61.09-1.25.05-1.87-.05-1.15-.2-2.51-.65-3.11-1.88-.26-.54-.36-1.18-.28-1.77.09-.65.41-1.21.59-1.82.31-1.1.27-2.41-.49-3.33-.38-.46-.9-.74-1.4-.97-.56-.26-1.74-.54-1.73-1.38,0-.27-.37-.3-.37-.03-.02.76.57,1.15,1.14,1.42.63.3,1.32.51,1.87,1,.65.58.87,1.51.78,2.37s-.53,1.59-.71,2.42c-.27,1.29.24,2.75,1.3,3.48,1.19.82,2.78,1.1,4.12.98.59-.05,1.43-.31,1.38-1.14s-.94-.86-1.47-.72c-.23.06-.15.47.09.4h0Z"/><path class="cls-1" d="m16.22,41.42c.3,1.53.79,3.46,2.35,3.98,1.25.42,2.98-.21,3.38-1.63.21-.73.09-1.59-.03-2.34-.13-.81-.35-1.63-.72-2.37-.64-1.28-2.02-2.57-3.4-2.09-.54.19-.99.73-1.05,1.37-.07.69.35,1.27.92,1.53.74.34,1.55.09,2.25-.19.81-.32,1.57-.75,2.3-1.25,1.5-1.02,2.95-2.2,4.3-3.43s2.44-2.68,3.42-4.25c.55-.87,1.08-1.76,1.58-2.67.46-.82.83-1.69,1.02-2.64.37-1.8.17-3.71-.57-5.42-.1-.24-.43-.06-.33.18.58,1.34.8,2.81.66,4.25-.15,1.56-.78,2.84-1.53,4.12s-1.53,2.61-2.43,3.8c-.95,1.26-2.06,2.32-3.24,3.3s-2.37,1.97-3.66,2.76c-.65.4-1.33.75-2.05.99-.66.22-1.55.36-2.08-.32s.03-1.59.67-1.78,1.39.15,1.92.62c1.04.92,1.49,2.42,1.67,3.8.11.84.22,1.83-.32,2.5-.47.58-1.25.85-1.96.85-1.84,0-2.42-2.16-2.73-3.77-.05-.26-.42-.18-.36.08h0Z"/><path class="cls-1" d="m31.97,20.03c-.68-1.38-1.41-2.73-2.19-4.05-.36-.61-.78-1.19-1.1-1.82-.2-.4-.23-.74.07-1.05.18-.18.39-.31.53-.54.32-.52.19-1.16.17-1.76-.03-.68.2-1.27.61-1.76s.94-.81,1.5-1.07c.63-.29,1.29-.57,1.96-.71.24-.05.15-.45-.09-.4-1.01.21-2.12.65-2.97,1.27-.69.5-1.28,1.27-1.38,2.22-.06.6.18,1.27-.05,1.83-.19.46-.72.6-.86,1.09-.13.44.08.9.3,1.28.33.56.68,1.1,1.01,1.66.76,1.3,1.48,2.62,2.15,3.98.12.24.45.05.33-.18h0Z"/><path class="cls-1" d="m33.47,7.27c.31-.07.63-.11.95-.14.18-.01.36-.02.54-.02.13,0,.43-.04.55.03.23.15.33.79.39,1.05.09.38.14.77.17,1.16.08,1.26-.09,2.58-.58,3.7-.23.53-.54,1-.91,1.41-.35.39-.75.73-1.08,1.15-.62.78-.86,1.76-.47,2.78.47,1.24,1.58,1.93,2.69,2.31.23.08.34-.31.11-.39-1.13-.39-2.34-1.16-2.59-2.55s.81-2.14,1.56-2.95c1.51-1.63,1.99-4.33,1.49-6.63-.11-.49-.25-1.37-.8-1.47-.67-.12-1.45,0-2.1.14-.24.05-.15.45.09.4h0Z"/><path class="cls-1" d="m35.75,20.72c1,.42,2.02.8,2.79,1.67s1.12,1.91,1.28,3.07c.04.26.4.18.36-.08-.17-1.23-.55-2.35-1.37-3.26s-1.89-1.33-2.96-1.78c-.23-.1-.34.29-.11.39h0Z"/><path class="cls-1" d="m39.81,25.32c.26,3.51-.38,7.01-1.83,10.07-.11.23.21.46.32.23,1.48-3.12,2.15-6.68,1.88-10.27-.02-.26-.39-.3-.37-.03h0Z"/><path class="cls-1" d="m37.96,35.46c-.16.51-.4.99-.77,1.36-.18.18-.38.33-.61.42-.09.04-.26.11-.37.08-.2-.07-.26-.37-.33-.55-.48-1.27-.9-2.57-1.26-3.89-.34-1.24-.65-2.49-.81-3.77-.07-.58-.11-1.17-.09-1.75,0-.2.08-1.17.28-.51.11.39.15.8.18,1.21.1,1.32.3,2.61.57,3.9.25,1.16.45,2.48,1.07,3.5.17.28.42.57.74.59.41.03.81-.42,1.12-.66.92-.71,1.82-1.47,2.64-2.31.44-.45.84-.94,1.21-1.46.34-.48.68-.99.83-1.6.29-1.21-.19-2.48.05-3.69.05-.26-.31-.39-.36-.14-.23,1.18.21,2.4-.02,3.56-.12.65-.5,1.18-.86,1.69-.39.55-.83,1.05-1.31,1.52s-.92.86-1.4,1.27-1.01.89-1.56,1.24c-.15.1-.31.21-.49.1-.11-.07-.2-.19-.27-.3-.17-.28-.3-.6-.41-.91-.24-.68-.38-1.39-.53-2.09-.32-1.48-.54-2.93-.66-4.43-.04-.45-.07-1.36-.45-1.67-.28-.23-.58.01-.66.32-.15.56-.09,1.29-.05,1.88.04.65.14,1.29.26,1.93.26,1.36.63,2.7,1.04,4.02.23.75.49,1.5.76,2.24.17.46.29,1.12.83,1.15,1.03.06,1.79-1.22,2.07-2.14.08-.25-.28-.38-.36-.14h0Z"/><path class="cls-1" d="m42.43,26.42c.02-.83.79-1.24,1.48-1.11s1.26.72,1.93.95c.23.08.34-.31.11-.39-.81-.27-1.46-1.01-2.34-1-.79,0-1.54.6-1.56,1.52,0,.27.37.3.37.03h0Z"/><path class="cls-1" d="m18.34,18.7c.17.78,1.26.55,1.09-.24s-1.26-.55-1.09.24h0Z"/><path class="cls-1" d="m19.82,19.52c.11.52.84.36.73-.16s-.84-.36-.73.16h0Z"/><path class="cls-1" d="m19.96,18.21c.06.26.42.18.36-.08s-.42-.18-.36.08h0Z"/><path class="cls-1" d="m37.06,34.45c.06.26.42.18.36-.08s-.42-.18-.36.08h0Z"/><path class="cls-1" d="m35.67,34.27c.11.52.84.36.73-.16s-.84-.36-.73.16h0Z"/><path class="cls-1" d="m36,35.71c.17.78,1.26.55,1.09-.24s-1.26-.55-1.09.24h0Z"/></svg>