<?xml version="1.0" encoding="UTF-8"?><svg id="Layer_1" xmlns="http://www.w3.org/2000/svg" width="695" height="598.58" xmlns:xlink="http://www.w3.org/1999/xlink" viewBox="0 0 695 598.58"><defs><style>.cls-1{stroke-width:11px;}.cls-1,.cls-2,.cls-3,.cls-4,.cls-5,.cls-6{stroke-miterlimit:10;}.cls-1,.cls-2,.cls-4{stroke:#221f20;}.cls-1,.cls-7{fill:#221f20;}.cls-2,.cls-3,.cls-4,.cls-6{fill:none;}.cls-2,.cls-5{stroke-width:15px;}.cls-8,.cls-5{fill:#e6e7e8;}.cls-9{fill:#f0c6da;}.cls-10{fill:#c48da8;}.cls-11{fill:#3e539f;}.cls-3{stroke:#d1d3d4;stroke-width:5px;}.cls-4{stroke-width:10px;}.cls-5{stroke:#e6e7e8;}.cls-6{stroke:#3e539f;}</style></defs><image width="2880" height="1578" transform="translate(28.67 14.06) scale(.21 .22)" xlink:href="Skærmbillede 2023-01-02 kl. 19.00.04.png"/><path class="cls-2" d="m28.67,170.07V21.14c0-6.85,5.78-12.41,12.91-12.41h577.24c7.13,0,12.91,5.56,12.91,12.41v153.14"/><polyline class="cls-2" points="631.74 153.23 631.74 366.3 28.67 366.3 28.67 143.12"/><path class="cls-5" d="m631.74,371.18v41.67c0,3.17-2.68,5.75-5.98,5.75H34.65c-3.3,0-5.98-2.57-5.98-5.75v-41.67"/><path class="cls-8" d="m267.04,435.62c32.65-2.86,65.46-2.44,98.2-2.06,9.19.11,18.39.22,27.58.32,1.61.02,1.61-2.48,0-2.5-32.67-.38-65.39-1.25-98.05.01-9.25.36-18.5.91-27.72,1.72-1.59.14-1.61,2.64,0,2.5h0Z"/><path class="cls-8" d="m329.03,11.64c1.96,0,3.84-1.72,3.75-3.75s-1.65-3.75-3.75-3.75c-1.96,0-3.84,1.72-3.75,3.75s1.65,3.75,3.75,3.75h0Z"/><g><path class="cls-7" d="m335.39,391.94c-2.92-1.88-6.52-.08-7.82,2.66-1.47,3.09-.53,6.93,1.12,9.79.77,1.32,1.84,2.93,3.39,3.54,1.82.71,3.37-.78,5.21-.63,1.82.15,3.42,1.2,5.26.41,1.62-.7,2.45-2.24,3.19-3.67.34-.65,1.02-1.46.44-2.15-.27-.32-.73-.53-1.06-.8-.44-.36-.79-.76-1.06-1.25-1.06-1.95-.86-4.69,1.43-5.76.69-.32.08-1.28-.6-.96-2.75,1.28-3.18,4.49-2.05,6.92.27.58.64,1.11,1.12,1.56.24.22.5.43.76.62.51.38.33.57.06,1.1-.68,1.31-1.43,3.03-3.08,3.49s-3.25-.66-4.86-.65c-.71,0-1.39.15-2.04.39-.85.31-1.63.7-2.51.23-1.38-.74-2.33-2.41-2.98-3.72-.72-1.47-1.18-3.1-1.25-4.71-.07-1.78.38-3.66,1.8-4.94,1.34-1.21,3.35-1.52,4.92-.51.63.41,1.23-.56.6-.96h0Z"/><path class="cls-7" d="m334.7,392.76c.85.38,1.66.64,2.6.37s1.74-.67,2.7-.83c1.69-.29,3.63.08,4.65,1.48.43.59,1.47.03,1.03-.56-1.02-1.41-2.78-2.13-4.58-2.13-.99,0-1.98.2-2.91.52-.45.16-.9.38-1.37.49-.54.12-1.03-.08-1.51-.3-.69-.31-1.3.65-.6.96h0Z"/><path class="cls-7" d="m336.92,390.65c.17-2.13,1.91-3.87,4.16-4.24l-.29-.16c.17,1.1-.19,2.28-.98,3.11s-1.85,1.29-2.99,1.34l.24.22c0-.09,0-.19,0-.28,0-.29-.48-.29-.48,0,0,.09,0,.19,0,.28,0,.12.11.23.24.22,1.29-.06,2.55-.6,3.38-1.53s1.24-2.24,1.05-3.49c-.02-.13-.18-.17-.29-.16-2.47.41-4.32,2.35-4.51,4.67-.02.29.46.29.48,0h0Z"/><path class="cls-7" d="m336.45,390.63c-.01.12,0,.23.02.35,0,.03.02.05.04.08.02.02.04.04.07.06.03.02.06.03.09.03.03,0,.06,0,.1,0,.06-.02.11-.05.14-.1l.02-.05s.01-.08,0-.12c0,0,0,0,0-.01v.06c0-.09,0-.18,0-.28,0-.03,0-.06-.02-.09,0-.03-.03-.05-.05-.07-.02-.02-.05-.04-.08-.05-.03-.01-.06-.02-.09-.02-.06,0-.13.02-.17.07l-.04.05s-.03.07-.03.11h0Z"/><path class="cls-7" d="m333.15,400.29c-.18-.22-.32-.46-.47-.7-.14-.21.1.33-.02-.06-.03-.12-.08-.24-.11-.36-.04-.15-.06-.3-.1-.46-.08-.32.03.53,0-.06-.02-.28-.03-.56-.03-.85,0-.17,0-.33.02-.5.01-.24.06-.19,0,0,.02-.05.16-.57.06-.29-.12.32.15-.32-.02,0-.13.23.13-.11.19-.17-.12.13-.27.18-.03.05.48-.26-.27.04.03-.03.15-.03.31-.08.46-.12.28-.07.1-.05-.08,0,.17-.05.41-.03.58-.03.35,0,.7.01,1.05.03.7.04,1.4.09,2.1.07,1.6-.05,3.21-.32,4.72-.84-.61-1.36-1.23-2.72-1.84-4.08-.08.04-.88.38-.46.22-.28.11-.57.2-.86.28s-.59.15-.88.21c-.15.03-.3.05-.45.08.26-.03.25-.03-.04,0-.29.02-.59.04-.88.03.28.05.28.04,0-.02.23.11.23.1-.03-.01-.67-.32-1.34-.69-2.05-.93-1.79-.6-3.64.32-4.14,2.02-.41,1.43.18,2.91.93,4.14.64,1.06,1.29,2.15,2,3.17.56.79,1.37,1.35,2.42,1.33.97-.01,1.75-.54,2.43-1.13.49-.42.9-.93,1.26-1.46.09-.13.52-.64.08-.19.18-.17.14-.15-.13.07-1.24.01-1.57.08-1.01.21.68.27,1.54.32,2.25.13.93-.26,1.38-.84,1.89-1.55l-.86.8.1-.06-1.21.3-.43-.06-1.43-1.03.04.08c.43.79,1.49,1.18,2.38,1.07,1-.12,1.64-.75,1.99-1.6.22-.55.45-1.1.69-1.65.12-.27.24-.55.36-.82.11-.25.12-.27.03-.08.06-.14.12-.27.19-.41.49-1.07.38-2.44-.86-3.05s-2.55-.25-3.27.8c-.68.98-.93,2.06-1.08,3.2-.14,1.03-.2,2.08,0,3.11s.8,1.92,1.29,2.84c.2.38.41.76.58,1.15-.11-.27-.12-.28-.04-.04.05-.7.03-.85-.06-.46-.07.15-.08.36-.18.5.42-.56-.14.04-.08.06.14-.26.38-.43.71-.5-.23.05-.26.06-.08.03.18-.03.15-.03-.09-.03.31.04.31.03,0-.03-.22-.07-.45-.13-.67-.19-1.32-.36-2.57-.3-3.91-.08-.57.09-1.13.2-1.69.3-.24.04-.49.08-.72.13-.49.1-.08.03.1.07.62.39.77.46.46.21-.16-.18-.16-.17,0,.03-.14-.16-.26-.34-.38-.51s-.23-.36-.33-.54c-.07-.12-.13-.25-.19-.37.1.21.09.2,0-.04-1.17.84-2.34,1.68-3.52,2.52,1.48.76,3.16,1.13,4.85.95s3.44-.52,5.15-.8c1.26-.21,2.01-1.67,1.67-2.74-.17-.53-.4-1.04-.67-1.53l-4.13,2.25.78,1.35c.59,1.03,2.21,1.44,3.27.8,1.12-.67,1.49-1.95.86-3.05-.26-.45-.52-.9-.78-1.35-.59-1.03-2.21-1.44-3.27-.8-1.13.68-1.48,1.95-.86,3.05.12.24.14.26.05.05.05.13.1.27.14.41.56-.91,1.11-1.83,1.67-2.74-1.35.22-2.71.42-4.07.66-.37.07.34,0-.03,0-.15,0-.3.02-.45.03s-.29,0-.43,0c-.05,0-.49-.05-.21,0s-.16-.04-.21-.05c-.14-.03-.27-.07-.41-.11-.05-.01-.45-.17-.21-.07.27.11-.3-.16-.29-.15-.85-.44-1.89-.38-2.66.17-.7.51-1.19,1.51-.86,2.35.48,1.22,1.14,2.48,2.14,3.41.67.62,1.56,1.04,2.51,1.06.69.01,1.39-.15,2.06-.27s1.29-.23,1.94-.34c.29-.04.33-.05.1-.02.16-.02.33-.02.49-.03.29.02.33.01.1-.03.15.03.3.06.45.1,1.47.37,2.92.71,4.35-.02,1.2-.61,1.88-1.86,2.19-3.06.39-1.5-.42-2.8-1.12-4.09-.14-.25-.28-.5-.42-.75-.04-.07-.24-.61-.13-.23-.05-.13-.09-.27-.12-.4.03.25.03.25,0-.02,0-.28,0-.55.02-.83.02-.26.03-.53.06-.79.01-.13.03-.26.04-.39-.04.27-.03.28.01.02.07-.25.13-.5.21-.74-.16.46.14-.21.22-.32-1.38-.75-2.75-1.5-4.13-2.25-.61,1.33-1.2,2.66-1.75,4.01l4.37-.53c-.81-1.47-2.91-1.52-4.11-.5-.19.16-.41.45-.52.69.46-.6.99-.86,1.61-.77.22.03.21.02-.02-.04-.52-.21-1.13-.24-1.68-.17-1.18.15-2,.84-2.63,1.75-.07.11-.14.22-.21.33-.07.1-.43.47-.1.15-.14.13-.28.27-.42.4l-.15.12c.26-.22.58-.32.96-.31l1.21.3-.13-.09.86.8c-.76-1.05-1.43-2.19-2.09-3.29-.07-.12-.14-.25-.21-.37-.09-.15-.12-.25-.03-.03-.05-.13-.09-.26-.14-.39-.19-.55-.01.21-.02-.11,0-.25-.07.25-.11.33-.13.35-.46.52-.97.51-.33.38-.66.49-1.01.35-.14-.05-.14-.05,0,.02l.22.11c.18.09.37.18.55.26.64.3,1.29.63,2,.74.86.13,1.65.08,2.5-.03,1.54-.19,2.96-.64,4.34-1.3,1.06-.51,1.42-1.82.98-2.79s-1.7-1.67-2.82-1.29c-.81.28-1.62.46-2.47.61.47-.09-.24.02-.29.03-.19.02-.39.03-.58.04-.43.02-.85.01-1.28,0-1.86-.09-3.71-.21-5.4.7-1.89,1.02-2.59,2.92-2.58,4.86,0,1.59.33,3.34,1.39,4.63.76.92,2.09,1.51,3.27.8.98-.59,1.67-2.06.86-3.05h0Z"/><path class="cls-7" d="m343.4,394.58c1.54,0,1.54-2.23,0-2.23s-1.54,2.23,0,2.23h0Z"/><path class="cls-7" d="m339.63,389.75l.18-.38c.09-.13.13-.27.14-.41.04-.15.03-.3-.02-.44-.04-.15-.11-.27-.21-.38-.08-.12-.2-.22-.34-.29l-.29-.11c-.21-.05-.42-.05-.64,0l-.29.11c-.18.1-.32.23-.43.4l-.18.38c-.09.13-.13.27-.14.41-.04.15-.03.3.02.44.04.15.11.27.21.38.08.12.2.22.34.29l.29.11c.21.05.42.05.64,0l.29-.11c.18-.1.32-.23.43-.4h0Z"/><path class="cls-7" d="m337.66,389.5l-.63.32.88.63c.03-.2.08-.39.15-.58.04-.11.03-.09.09-.2.05-.09.09-.18.15-.27.1-.17.21-.33.32-.49.05-.07.11-.15.17-.22,0,0,.1-.12.06-.07-.04.04.06-.07.06-.07.12-.14.25-.27.39-.4.07-.06.14-.12.21-.18.03-.02.06-.05.09-.07,0,0,.12-.09.07-.06-.05.04.07-.04.08-.05.04-.03.08-.05.12-.07.08-.05.16-.09.24-.14s.17-.08.25-.12c.03-.01.12-.05.04-.02.05-.02.11-.04.16-.06l-.76-.54c-.07.52-.18,1.11-.55,1.57.06-.08-.08.08-.09.1-.05.05-.1.11-.16.16-.1.09-.2.18-.3.26-.06.05-.12.09-.18.14-.06.04-.06.05-.02.01-.03.02-.06.04-.09.07-.13.09-.25.17-.38.26l.88.33s-.03-.08-.04-.11c-.1-.28-.42-.49-.74-.39-.29.09-.53.39-.42.69.01.04.03.08.04.11.11.31.54.56.88.33.61-.41,1.21-.82,1.66-1.39.49-.63.62-1.39.72-2.14.05-.35-.42-.65-.76-.54-.86.28-1.59.8-2.17,1.45s-1.16,1.49-1.3,2.38c-.04.23,0,.44.21.59.19.14.45.15.66.04l.63-.32c.28-.14.39-.52.21-.76-.18-.26-.52-.35-.82-.2h0Z"/></g><path class="cls-8" d="m263.64,433.71c1.61,0,1.61-2.5,0-2.5s-1.61,2.5,0,2.5h0Z"/><path class="cls-8" d="m279.5,434.47c3.49-.53,7.02-.81,10.55-.85,1.62-.02,1.6-2.4,0-2.5-2.93-.18-5.84-.48-8.75-.9l-.33,2.46c6.48.53,12.97,1.06,19.45,1.59,1.6.13,1.59-2.37,0-2.5-6.48-.53-12.97-1.06-19.45-1.59-1.39-.11-1.73,2.25-.33,2.46,3.12.46,6.26.79,9.41.99v-2.5c-3.76.05-7.5.38-11.21.94-1.59.24-.91,2.65.66,2.41h0Z"/><g><path class="cls-8" d="m239.49,483.25c24.06-.01,48.13.05,72.19.19,24.06.14,48.12.35,72.19.65,13.49.16,26.97.35,40.46.56,3.92.06,7.68-3.49,7.5-7.5s-3.29-7.43-7.5-7.5c-24.06-.38-48.12-.68-72.18-.9s-48.12-.37-72.19-.44c-13.49-.04-26.98-.06-40.47-.05-3.92,0-7.68,3.45-7.5,7.5s3.3,7.5,7.5,7.5h0Z"/><path class="cls-8" d="m256,420.6c-1.23,8.01-3.46,15.82-6.6,23.3l.76-1.79c-2.32,5.46-5.09,10.72-8.32,15.7-.79,1.22-1.61,2.42-2.45,3.61-.44.62-.89,1.24-1.35,1.85-.21.28-.42.55-.63.83-.55.73,1.08-1.38.28-.37-1.9,2.4-3.89,4.72-5.99,6.95-2.69,2.86-3.05,7.81,0,10.61s7.74,3.05,10.61,0c11.59-12.32,20.31-27.25,25.17-43.47,1.3-4.33,2.29-8.75,2.97-13.22.32-2.07.34-3.9-.76-5.78-.91-1.56-2.69-3.04-4.48-3.45-1.92-.44-4.07-.34-5.78.76-1.53.99-3.16,2.6-3.45,4.48h0Z"/><path class="cls-8" d="m388.08,424.59c3.04,17.13,11.22,32.94,22.25,46.27,3.06,3.7,6.38,7.17,9.91,10.42,2.89,2.66,7.79,3.07,10.61,0,2.66-2.89,3.08-7.77,0-10.61-2.66-2.45-5.19-5.02-7.59-7.72-1.16-1.31-2.28-2.64-3.38-4-.16-.2-1.29-1.65-.44-.55s-.13-.18-.3-.4c-.54-.72-1.07-1.44-1.59-2.17-4.01-5.64-7.41-11.69-10.13-18.06l.76,1.79c-2.57-6.1-4.48-12.45-5.64-18.97-.31-1.75-1.97-3.62-3.45-4.48-1.61-.94-3.98-1.34-5.78-.76s-3.57,1.71-4.48,3.45c-.99,1.88-1.13,3.69-.76,5.78h0Z"/><path class="cls-8" d="m265.51,467.1c5.33-6.6,9.32-14.16,11.14-22.5s1.76-16.89-.38-25.12l-11.02,8.47c15.55,9.36,34.15,10.87,51.89,11.09,9.52.11,19.04.04,28.55.04,8.43,0,16.8-.07,25.14-1.44,9-1.48,18-5.13,24.28-11.95l-11.78-9.09c-1.93,4.3-3.05,8.54-3.31,13.27-.22,4.07.34,8.28,1.37,12.22,2.11,8.12,6.57,15.19,11.66,21.74,2.55,3.28,5.32,6.38,8.14,9.43l5.3-12.8c-19.93-.23-39.86-.47-59.78-.7-19.93-.23-39.86-.47-59.78-.7-11.18-.13-22.73-.83-33.61,2.26l7.3,12.54c11.4-9.55,21.49-20.42,30.45-32.27l-13.71-1.79c.14.39.25.74.33,1.15l-.27-1.99c.07.52.07,1.02.03,1.54l.27-1.99c-.12.81-.34,1.55-.64,2.31l.76-1.79c-1.57,3.58-4.22,6.46-5.14,10.37-.57,2.42-.71,4.94-.06,7.36.8,2.99,2.7,5.22,5.22,6.91,3.3,2.21,8.41.7,10.26-2.69,2.1-3.83,4.39-7.55,6.9-11.13.61-.87,1.22-1.72,1.85-2.57.36-.49.72-.97,1.09-1.45.86-1.14-1.02,1.29-.06.08,1.42-1.77,2.86-3.52,4.36-5.23-4.18-1.1-8.36-2.21-12.54-3.31.34,1.73.63,3.47.87,5.22l-.27-1.99c.59,4.45.85,8.93.77,13.42-.05,3.16,2.35,6.51,5.51,7.23s6.99-.4,8.47-3.45c.62-1.28,1.3-2.53,2.06-3.73.36-.57.74-1.14,1.13-1.69.19-.27.43-.54.6-.82-1.01,1.73-.57.73-.16.23.87-1.06,1.79-2.07,2.76-3.02.54-.53,1.09-1.04,1.66-1.54.47-.41,2.49-1.99.56-.52-3.76-2.16-7.52-4.32-11.29-6.48.6,5.12,1.2,10.24,1.8,15.36.23,1.96.66,3.89,2.2,5.3,1.24,1.14,2.63,1.84,4.31,2.06,3.37.45,7.61-1.69,8.23-5.37.52-3.09,1.39-6.09,2.6-8.99l-.76,1.79c1.3-3.03,2.95-5.88,4.92-8.52-4.57-.6-9.14-1.19-13.71-1.79,1.12,6.41,3.67,12.68,7.24,18.11,1.77,2.69,5.21,4.5,8.47,3.45,3.07-.99,5.63-3.85,5.51-7.23-.06-1.67.01-3.32.22-4.97l-.27,1.99c.28-1.96.74-3.86,1.4-5.72h-14.46c2.43,6.34,6.11,12.08,11.3,16.52,2.08,1.78,4.56,2.68,7.3,1.93,2.39-.66,4.73-2.73,5.24-5.24.98-4.87,2.44-9.61,4.35-14.19l-.76,1.79c.24-.57.49-1.14.74-1.71h-12.95c3.08,6.83,8.96,12.66,15.68,15.91,2.47,1.19,5.12,1.44,7.57,0s3.64-3.81,3.71-6.48c.16-5.48.31-10.95.47-16.43l-12.8,5.3c9.03,7.94,19.12,14.62,30.07,19.6,1.58.72,3.01,1.13,4.78.89,1.57-.21,3.2-.86,4.31-2.06,2.36-2.57,2.72-5.99,1.17-9.09-2.52-5.04-5.95-9.69-9.92-13.7-2.63-2.67-6.94-2.84-9.85-.59-2.74,2.11-4.1,6.61-1.93,9.68.93,1.32,1.87,2.64,2.8,3.95l2.69-10.26c-2.64,1.8-5.44,3.32-8.39,4.57l1.79-.76c-2.56,1.06-5.2,1.91-7.9,2.53-3.83.88-6.45,5.48-5.24,9.23,1.29,4,5.13,6.19,9.23,5.24,6.4-1.48,12.65-4.16,18.08-7.86,1.56-1.06,3.01-2.57,3.45-4.48s.4-4.15-.76-5.78c-.93-1.32-1.87-2.64-2.8-3.95l-11.78,9.09c.86.87,1.69,1.77,2.49,2.7.37.44.73.89,1.09,1.33.6.73-.93-1.27-.39-.49.21.29.43.58.63.87,1.41,1.98,2.65,4.08,3.74,6.25l10.26-10.26c-5.12-2.33-10.08-5.01-14.81-8.06-2.3-1.47-4.54-3.03-6.72-4.67-.29-.22-.6-.43-.88-.67.47.39,1.21.94.3.23-.52-.41-1.04-.82-1.55-1.24-1.14-.93-2.26-1.88-3.36-2.85-2.31-2.03-5.28-2.78-8.19-1.55s-4.52,3.83-4.61,6.85c-.16,5.48-.31,10.95-.47,16.43,3.76-2.16,7.52-4.32,11.29-6.48-1.41-.68-2.76-1.46-4.03-2.37-.51-.36-1.25-1.27.28.24-.23-.22-.5-.41-.75-.62-.59-.5-1.15-1.03-1.7-1.58-.5-.5-.97-1.03-1.43-1.57-.36-.43-1.02-1.55.22.31-.21-.32-.45-.62-.67-.94-.86-1.27-1.6-2.61-2.23-4.01-2.21-4.9-10.75-4.92-12.95,0-2.55,5.71-4.61,11.56-5.85,17.69,4.18-1.1,8.36-2.21,12.54-3.31-.94-.8-1.84-1.65-2.69-2.55-.42-.45-.83-.91-1.23-1.38-.18-.21-.34-.43-.52-.63-.56-.67,1.15,1.58.3.38-1.41-2.02-2.64-4.11-3.61-6.37l.76,1.79c-.16-.38-.31-.75-.45-1.13-.6-1.57-1.32-2.84-2.69-3.9-1.26-.98-2.9-1.68-4.54-1.61-3.47.16-6.09,2.26-7.23,5.51-1.41,4.03-2.05,8.43-1.89,12.69,4.66-1.26,9.32-2.52,13.98-3.79-1.47-2.23-2.72-4.57-3.77-7.02l.76,1.79c-1.25-3-2.16-6.1-2.71-9.29-.5-2.88-3.57-5.01-6.24-5.37-3.2-.43-5.61,1.09-7.47,3.58-4.19,5.61-7.11,12.39-8.28,19.3l14.73,1.99c-.6-5.12-1.2-10.24-1.8-15.36-.32-2.72-1.23-5.02-3.71-6.48-2.1-1.23-5.51-1.57-7.57,0-5.82,4.45-10.77,9.83-14,16.47,4.66,1.26,9.32,2.52,13.98,3.79.12-6.92-.59-13.84-1.91-20.63-1.05-5.41-8.95-7.39-12.54-3.31-6.3,7.16-11.89,14.97-16.48,23.34l10.26-2.69c1.03.86,1.33,1.1.9.7-.11-.1-.22-.2-.31-.32.25-.03,1.2,1.86.56.55l.76,1.79c-.19-.46-.3-.91-.37-1.4l.27,1.99c-.06-.63-.03-1.23.05-1.86l-.27,1.99c.14-.88.39-1.71.72-2.54l-.76,1.79c.92-2.16,2.44-3.97,3.47-6.08,1.74-3.55,2.84-7.67,1.39-11.54-1.08-2.86-3.08-4.95-6.24-5.37-1.37-.18-2.61-.03-3.89.51-1.62.68-2.53,1.66-3.59,3.07-.27.36-.54.71-.81,1.07-.98,1.29,1.08-1.38.08-.11-.55.7-1.1,1.4-1.66,2.1-1.07,1.33-2.17,2.65-3.28,3.96-2.27,2.67-4.62,5.27-7.04,7.81-4.86,5.09-10,9.9-15.4,14.41-2.43,2.04-2.85,6.48-1.17,9.09,1.8,2.79,5.18,4.38,8.47,3.45,2.24-.64,4.52-1.1,6.83-1.42l-1.99.27c9.01-1.2,18.22-.65,27.28-.54,9.47.11,18.93.22,28.4.33,18.93.22,37.86.45,56.79.67,10.63.13,21.26.25,31.88.38,2.99.04,5.72-1.91,6.85-4.61,1.19-2.83.53-5.95-1.55-8.19-1.58-1.71-3.15-3.44-4.68-5.21-.76-.88-1.51-1.78-2.24-2.68-.36-.45-.7-.93-1.09-1.37,1.47,1.68.31.39-.01-.04-2.71-3.65-5.09-7.53-6.87-11.71l.76,1.79c-1.27-3.08-2.18-6.27-2.65-9.57l.27,1.99c-.35-2.7-.39-5.4-.06-8.11l-.27,1.99c.31-2.26.88-4.45,1.74-6.57l-.76,1.79c.11-.27.23-.53.35-.79.81-1.81,1.4-3.78.76-5.78-.51-1.58-1.37-2.88-2.69-3.9-2.83-2.19-7.3-2.18-9.85.59-.69.75-1.4,1.46-2.17,2.12-.27.23-1.57,1.27-.47.42s-.38.25-.67.44c-1.66,1.12-3.44,2.05-5.27,2.84l1.79-.76c-4.07,1.71-8.37,2.69-12.73,3.3l1.99-.27c-8.69,1.16-17.51.89-26.25.89-9.86,0-19.74.15-29.59-.17-5.12-.17-10.24-.51-15.33-1.19l1.99.27c-6.77-.93-13.44-2.49-19.75-5.15l1.79.76c-2.42-1.04-4.77-2.23-7.03-3.59-2.59-1.56-5.99-1.22-8.33.59s-3.46,4.94-2.69,7.88c.47,1.79.82,3.59,1.07,5.43l-.27-1.99c.5,3.93.49,7.88,0,11.81l.27-1.99c-.57,4.2-1.69,8.28-3.33,12.19l.76-1.79c-.81,1.89-1.74,3.73-2.79,5.49-.51.86-1.05,1.7-1.61,2.52-.3.44-.62.87-.93,1.3-.47.62-.32.43.44-.56-.17.21-.33.42-.5.63-1.29,1.6-2.2,3.17-2.2,5.3,0,1.84.82,4.04,2.2,5.3,2.73,2.51,7.97,3.26,10.61,0h0Z"/><path class="cls-8" d="m370.97,444.55c2.21-.13,4.43-.06,6.63.23l-1.99-.27c1.23.17,2.44.4,3.64.69,1.92.47,4.05.26,5.78-.76.87-.47,1.58-1.12,2.1-1.93.66-.72,1.11-1.57,1.34-2.55.44-1.92.34-4.07-.76-5.78-1.04-1.62-2.57-2.98-4.48-3.45-2.29-.56-4.65-.9-7-1.11-1.75-.16-3.51-.18-5.27-.08-1.99.12-3.86.75-5.3,2.2-.73.68-1.25,1.48-1.55,2.41-.47.89-.68,1.86-.65,2.89.09,1.94.72,3.95,2.2,5.3s3.32,2.32,5.3,2.2h0Z"/><path class="cls-8" d="m403.71,471.3l6.26,6.74c.68.73,1.48,1.25,2.41,1.55.89.47,1.86.68,2.89.65,1.03.04,2-.18,2.89-.65.93-.3,1.73-.82,2.41-1.55l1.17-1.52c.68-1.17,1.02-2.43,1.02-3.79l-.27-1.99c-.36-1.27-1-2.37-1.93-3.31l-6.26-6.74c-.68-.73-1.48-1.25-2.41-1.55-.89-.47-1.86-.68-2.89-.65-1.03-.04-2,.18-2.89.65-.93.3-1.73.82-2.41,1.55l-1.17,1.52c-.68,1.17-1.02,2.43-1.02,3.79l.27,1.99c.36,1.27,1,2.37,1.93,3.31h0Z"/><path class="cls-8" d="m346.7,452.01h-.75c-1.03-.04-2,.18-2.89.65-.93.3-1.73.82-2.41,1.55-.73.68-1.25,1.48-1.55,2.41-.47.89-.68,1.86-.65,2.89l.27,1.99c.36,1.27,1,2.37,1.93,3.31l1.52,1.17c1.17.68,2.43,1.02,3.79,1.02h.75c1.03.04,2-.18,2.89-.65.93-.3,1.73-.82,2.41-1.55.73-.68,1.25-1.48,1.55-2.41.47-.89.68-1.86.65-2.89l-.27-1.99c-.36-1.27-1-2.37-1.93-3.31l-1.52-1.17c-1.17-.68-2.43-1.02-3.79-1.02h0Z"/><path class="cls-8" d="m317.93,467.01c3.92,0,7.68-3.45,7.5-7.5s-3.3-7.5-7.5-7.5c-3.92,0-7.68,3.45-7.5,7.5s3.3,7.5,7.5,7.5h0Z"/><path class="cls-8" d="m290.66,466.52c3.92,0,7.68-3.45,7.5-7.5s-3.3-7.5-7.5-7.5c-3.92,0-7.68,3.45-7.5,7.5s3.3,7.5,7.5,7.5h0Z"/><path class="cls-8" d="m247.37,478.26c3.92,0,7.68-3.45,7.5-7.5s-3.3-7.5-7.5-7.5c-3.92,0-7.68,3.45-7.5,7.5s3.3,7.5,7.5,7.5h0Z"/></g><line class="cls-3" x1="254.25" y1="425.94" x2="403.97" y2="425.94"/><path class="cls-8" d="m230.33,472.78c-1.38,2.26-2.85,4.46-4.4,6.6-.51.7-.42,1.81,0,2.52.46.79,1.26,1.19,2.16,1.24,2.81.15,5.62.29,8.42.44,1.31.07,2.56-1.2,2.5-2.5-.06-1.41-1.1-2.43-2.5-2.5-2.81-.15-5.62-.29-8.42-.44l2.16,3.76c1.56-2.14,3.03-4.34,4.4-6.6.68-1.12.28-2.8-.9-3.42s-2.69-.3-3.42.9h0Z"/><path class="cls-8" d="m372.84,462.57c3.22,0,3.22-5,0-5s-3.22,5,0,5h0Z"/><path class="cls-8" d="m332.81,442.56c3.22,0,3.22-5,0-5s-3.22,5,0,5h0Z"/><path class="cls-8" d="m304.92,461.96c3.22,0,3.22-5,0-5s-3.22,5,0,5h0Z"/><path class="cls-8" d="m428,474.65c2.55,2.77,5.1,5.53,7.64,8.3l1.77-4.27c-2.82.07-5.65.15-8.47.22-1.35.04-2.72.02-4.07.11-1.6.11-3.33.8-3.68,2.56-.32,1.62.7,3.11,2.41,3.16,5.71.2,11.42.39,17.14.59,1.09.04,2.13-.8,2.41-1.84.31-1.14-.24-2.16-1.15-2.82-1.22-.89-2.44-1.79-3.66-2.68-1.09-.8-2.79-.18-3.42.9-.74,1.27-.2,2.62.9,3.42,1.22.89,2.44,1.79,3.66,2.68l1.26-4.66c-5.71-.2-11.42-.39-17.14-.59l2.41,3.16c-1.28.89-1.61,1.25-1.01,1.09.15-.03.14-.03-.02,0-.3-.1.42,0,.56,0l1.69-.04,3.39-.09c2.26-.06,4.52-.12,6.78-.18s3.24-2.67,1.77-4.27c-2.55-2.77-5.1-5.53-7.64-8.3-.92-.99-2.61-.93-3.54,0-.99.99-.92,2.54,0,3.54h0Z"/><path class="cls-8" d="m230.7,472.69c-1.94,2.45-4.07,4.73-6.37,6.84-1.87,1.71.09,4.83,2.43,4.18,1.55-.43,3.25-.22,4.83-.18,1.88.05,3.77.12,5.65.14,3.77.03,7.53-.18,11.22-.98,1.32-.28,2.09-1.83,1.75-3.08-.38-1.37-1.75-2.03-3.08-1.75-3.53.76-7.13.85-10.73.79-1.81-.03-3.63-.1-5.44-.14s-3.73-.13-5.54.37l2.43,4.18c2.31-2.11,4.43-4.39,6.37-6.84.84-1.06,1.03-2.5,0-3.54-.87-.87-2.69-1.06-3.54,0h0Z"/><path class="cls-8" d="m231.1,471.72c-2.9,2.61-5.81,5.23-8.71,7.84-1.59,1.43-.35,4.35,1.77,4.27,3.55-.14,7.09-.44,10.61-.88.69-.09,1.26-.22,1.77-.73.43-.43.76-1.15.73-1.77-.05-1.21-1.11-2.68-2.5-2.5-3.52.45-7.06.74-10.61.88l1.77,4.27c2.9-2.61,5.81-5.23,8.71-7.84.97-.88.96-2.66,0-3.54-1.04-.96-2.5-.94-3.54,0h0Z"/><g><rect class="cls-9" x="477.29" y="176.28" width="209.92" height="403.8" rx="28.89" ry="28.89"/><rect class="cls-10" x="479.54" y="176.28" width="203.51" height="41.18" rx="16.68" ry="16.68"/><image width="896" height="1360" transform="translate(478.18 194.6) scale(.23 .25)" xlink:href="Skærmbillede 2023-01-02 kl. 19.04.59.png"/><g><rect class="cls-4" x="474.03" y="175.12" width="213.17" height="408.92" rx="27.64" ry="27.64"/><rect class="cls-1" x="527.39" y="176.28" width="106.46" height="13.45" rx="6.22" ry="6.22"/></g><path class="cls-10" d="m507.43,193.16c-8.36-1.56-16.79-1.71-25.2-.5-1.34.19-2.07,1.89-1.75,3.08.39,1.44,1.73,1.94,3.08,1.75,7.46-1.08,15.14-.89,22.54.5,1.33.25,2.7-.37,3.08-1.75.33-1.22-.41-2.83-1.75-3.08h0Z"/><path class="cls-10" d="m508.6,198.09c4.56.39,9.13.78,13.69,1.17,1.31.11,2.56-1.23,2.5-2.5-.06-1.45-1.1-2.38-2.5-2.5-4.56-.39-9.13-.78-13.69-1.17-1.31-.11-2.56,1.23-2.5,2.5.06,1.45,1.1,2.38,2.5,2.5h0Z"/><path class="cls-10" d="m522.23,198.72l4.82,1.19c.64.16,1.35.08,1.93-.25.52-.3,1.01-.9,1.15-1.49.15-.64.11-1.36-.25-1.93l-.39-.51c-.31-.31-.68-.52-1.1-.64-.06-.02-.12-.05-.17-.07l.6.25c-.35-.15-.67-.34-.97-.57l-1.26,4.66c.25-.02.49-.02.74.01l-.66-.09c.25.04.48.11.72.2l-.6-.25c.09.04.17.08.25.12.59.31,1.27.43,1.93.25.58-.16,1.21-.61,1.49-1.15.31-.58.46-1.28.25-1.93-.2-.6-.57-1.19-1.15-1.49-.91-.47-1.94-.77-2.97-.68-.57.05-1.05.18-1.51.54-.41.32-.78.78-.9,1.3-.1.44-.1.89,0,1.33.08.33.23.61.45.85.18.27.41.49.7.64.53.4,1.12.65,1.74.89l1.33-4.82-4.82-1.19c-.64-.16-1.35-.08-1.93.25-.52.3-1.01.9-1.15,1.49-.15.64-.11,1.36.25,1.93s.86.99,1.49,1.15h0Z"/><path class="cls-10" d="m631.62,199.81c5.2-1.22,10.63-1.99,15.94-2.56,5.32-.58,10.77-.8,16.08-.07,1.34.18,2.68-.32,3.08-1.75.32-1.17-.4-2.89-1.75-3.08-5.8-.8-11.6-.74-17.41-.11s-11.64,1.42-17.27,2.74c-3.13.74-1.81,5.56,1.33,4.82h0Z"/><path class="cls-10" d="m665.19,195.2c.79.07,1.58-.1,2.3-.4.31-.13.59-.26.87-.45.09-.06.19-.12.28-.19l.12-.07c-.24.14-.49.22-.77.23l-2.41-1.84c.17,1.11,1.27,1.94,2.28,2.2.75.19,1.6.16,2.38.19,1.38.07,2.76.13,4.14.2v-5c-3.02.04-6.04-.01-9.06-.16-1.31-.06-2.56,1.19-2.5,2.5.06,1.41,1.1,2.43,2.5,2.5,3.02.14,6.04.2,9.06.16,1.31-.02,2.56-1.14,2.5-2.5s-1.1-2.43-2.5-2.5c-1.08-.05-2.16-.1-3.24-.16-.51-.02-1.02-.05-1.53-.07-.1,0-.73.04-.81-.04,0,0,.71.22.28.03-.21-.07-.08.01.37.23.48.19.8.56.95,1.09-.08-.51-.51-1-.9-1.3-.44-.34-.95-.54-1.51-.54-.86,0-1.56.33-2.26.79-.08.05-.26.12-.32.19.11-.13.52-.18.1-.07-.5.13.08-.07.14,0-.03-.04-.4,0-.45-.01-1.31-.12-2.56,1.23-2.5,2.5.07,1.45,1.1,2.37,2.5,2.5h0Z"/><path class="cls-10" d="m665.06,195.7c3.22,0,3.22-5,0-5s-3.22,5,0,5h0Z"/><path class="cls-10" d="m665.56,195.95c3.22,0,3.22-5,0-5s-3.22,5,0,5h0Z"/><path class="cls-10" d="m665.93,195.82c3.22,0,3.22-5,0-5s-3.22,5,0,5h0Z"/><path class="cls-11" d="m669.03,195.43l11.28-.25-.24-.18c.05.12.1.25.15.37.12.29.61.16.48-.13-.05-.12-.1-.25-.15-.37-.04-.1-.12-.19-.24-.18l-11.28.25c-.32,0-.32.51,0,.5h0Z"/><path class="cls-11" d="m668.86,195.12c-.37.01-.71.16-.98.42l.42.24c.03-.12.13-.2.25-.2l-.13-.47c-.44.25-.9.5-1.25.87s-.59.82-.6,1.33c0,.32.49.32.5,0,.02-.88.93-1.39,1.61-1.77.22-.12.12-.47-.13-.47-.34,0-.65.24-.73.57-.06.24.24.42.42.24.17-.17.39-.26.62-.27.13,0,.25-.11.25-.25,0-.13-.11-.26-.25-.25h0Z"/><path class="cls-11" d="m667.89,196.13c.65-.96,1.93-.75,2.92-.68,1.09.07,2.18.09,3.26.03,2.12-.11,4.22-.54,6.35-.33l-.24-.18c.06.15.11.3.17.46.11.3.59.17.48-.13-.06-.15-.11-.3-.17-.46-.04-.11-.12-.17-.24-.18-2.46-.24-4.9.33-7.36.36-1.21.01-2.44-.19-3.65-.12-.79.04-1.52.32-1.97.99-.18.27.25.52.43.25h0Z"/><path class="cls-11" d="m677.02,194.72c-2.7-.41-5.41.23-8.11-.08-.32-.04-.32.46,0,.5,2.66.3,5.33-.33,7.98.07.31.05.45-.43.13-.48h0Z"/><path class="cls-11" d="m667.01,197.37c.08-.6.31-1.2.74-1.63.4-.4.99-.65,1.55-.56.13.02.27-.03.31-.17.03-.12-.04-.29-.17-.31-.74-.12-1.48.14-2.01.66s-.82,1.27-.92,2.01c-.02.13.13.25.25.25.15,0,.23-.12.25-.25h0Z"/><path class="cls-11" d="m668.87,195.17c.32,0,.32-.5,0-.5s-.32.5,0,.5h0Z"/><path class="cls-11" d="m675.85,195.03l2.33.06,1.14.03h.57c.1.02.19.02.29.02.14,0,.19.05.25-.09-.13.29.3.55.43.25.16-.37-.11-.63-.47-.66-.49-.04-1-.02-1.49-.04l-3.04-.07c-.32,0-.32.49,0,.5h0Z"/><line class="cls-6" x1="668.79" y1="195.17" x2="680.71" y2="195.17"/></g></svg>