<?xml version="1.0" encoding="UTF-8"?><svg id="Layer_1" xmlns="http://www.w3.org/2000/svg" width="810" height="102.76" viewBox="0 0 810 102.76"><defs><style>.cls-1{fill:#d18229;}</style></defs><g><path class="cls-1" d="m101.59,73.67c-2.41-1.85-5.38-1.23-7.84.1-1.09.59-2.16,1.03-3.41.84-1.35-.2-2.77-1.07-4.1-.41l.22-.46c.77,2.39-2.05,3.63-3.65,4.56-2.28,1.33-4.57,2.64-6.9,3.88s-4.59,2.33-6.96,3.32-4.81,1.94-7.31,2.36c-2.35.39-4.95-.07-6.47-2.11-.28-.37.31-.77.59-.4,1.34,1.79,3.66,2.12,5.71,1.8,2.27-.36,4.52-1.24,6.65-2.09,4.2-1.69,8.2-3.85,12.14-6.1,1.11-.63,2.21-1.28,3.31-1.92s2.72-1.53,2.23-3.06c-.07-.2.05-.37.22-.46,1.29-.65,2.63-.03,3.93.28.85.2,1.63.18,2.45-.15.73-.29,1.38-.73,2.09-1.07,2.42-1.16,5.39-1.12,7.58.56.37.28-.11.82-.47.54h0Z"/><path class="cls-1" d="m55.22,85.68c-3.87-3.62-6.71-8.32-9.48-12.82-3.02-4.9-5.93-9.87-8.8-14.86-1.65-2.88-3.29-5.77-4.9-8.67-.23-.41.36-.81.59-.4,2.79,5.02,5.64,10,8.55,14.95s5.73,9.75,8.91,14.42c1.67,2.45,3.45,4.82,5.6,6.84.34.32-.13.86-.47.54h0Z"/><path class="cls-1" d="m32.1,49.29c-1.48-2.44-2.95-4.88-4.43-7.32s-2.82-4.62-4.02-7.06c-2.52-5.13-5.04-10.27-7.55-15.41-.2-.41.39-.82.59-.4,2.52,5.14,5.03,10.27,7.55,15.41,1.2,2.44,2.61,4.74,4.02,7.06l4.43,7.32c.24.4-.35.8-.59.4h0Z"/><path class="cls-1" d="m16.09,19.39c-.52-1.08-.94-2.21-1.25-3.37-.25-.95-.54-2-.08-2.93.96-1.93,3.5-1.9,5.3-2.1,5.12-.57,10.25-1.14,15.37-1.71,2.32-.26,4.8-.8,7.14-.54,2.14.24,3.44,1.63,4.5,3.44.47.8,1.05,1.73.98,2.71-.06.88-.66,1.46-1.41,1.82-2.13,1-4.62,1.36-6.92,1.71-2.81.44-5.63.83-8.44,1.24-2.94.43-5.89.88-8.88.7-.45-.03-.5-.75-.04-.72,4.51.28,9.08-.73,13.53-1.38,2.21-.32,4.43-.6,6.61-1.06,1.05-.22,2.09-.5,3.11-.85,1.13-.4,2.05-.93,1.6-2.33-.29-.9-.91-1.81-1.46-2.58-.68-.93-1.52-1.61-2.65-1.87-2-.45-4.22.06-6.22.29-4.42.49-8.85.98-13.27,1.48-1.26.14-2.51.28-3.77.42-1.13.13-2.4.13-3.43.68-.5.27-.97.72-1.13,1.29-.19.67.06,1.43.23,2.08.31,1.16.73,2.29,1.25,3.37.2.42-.47.65-.67.23h0Z"/><path class="cls-1" d="m22.33,20.26c-1.38.53-2.93.33-4.09-.64s-1.48-2.37-1.6-3.84c-.12-1.39.23-2.64,1.62-3.13.69-.24,1.46-.28,2.18-.35,1.02-.1,2.04-.18,3.06-.25,3.87-.25,7.79-.49,11.67-.47.85,0,1.7.03,2.55.13.55.07,1.16.21,1.51.7.87,1.25-.7,2.22-1.67,2.5-4.06,1.16-8.34,1.48-12.53,1.09-.45-.04-.3-.75.15-.71,2.94.27,5.9.16,8.81-.33.77-.13,1.54-.29,2.3-.47.64-.16,1.46-.26,2.01-.65.43-.31.62-.91.08-1.23-.23-.13-.54-.16-.8-.19-.82-.1-1.67-.11-2.5-.12-2.96,0-5.93.18-8.88.32-1.49.07-2.97.16-4.45.28-.69.06-1.39.12-2.08.2s-1.52.18-1.98.78-.37,1.38-.3,2.06c.08.79.18,1.58.6,2.27.88,1.45,2.6,1.94,4.13,1.36.43-.16.66.52.23.69h0Z"/><path class="cls-1" d="m37.92,14.72c-.43.02-.89.12-1.28-.13s-.51-.74-.47-1.19c.07-.73.64-1.41,1.34-1.57.18-.04.39.03.45.23.05.17-.03.41-.22.46-.07.02-.14.04-.2.06-.02,0-.1.05-.03.01-.03.01-.05.03-.08.05-.06.04-.12.08-.17.13.05-.04,0,0-.02.02-.02.02-.04.04-.06.07s-.04.05-.06.07c0,0-.07.1-.05.06s-.03.06-.04.07c-.02.03-.03.05-.04.08s-.03.06-.04.09c0,.02-.02.04-.02.06.01-.03.01-.04,0-.01-.02.07-.03.13-.05.2,0,.03,0,.06-.01.09,0-.08,0,0,0,.03,0,.04,0,.07,0,.11,0,.02.02.13,0,.06,0,.04.02.07.03.1.02.08-.01-.03.02.04.03.03.03.04,0,.01.01.01.02.02.04.04.01.01.02.02.04.03-.03-.02-.03-.02,0,0,.01,0,.1.04.03.02.03.01.06.02.1.03s.07.01.1.02c-.08,0,.07,0,.09,0,.18,0,.36-.04.54-.04s.37.14.38.34-.13.38-.33.38h0Z"/><path class="cls-1" d="m31.69,15.27c.29-.09.55-.23.76-.45.05-.05.24-.23.22-.33s-.22-.15-.3-.17c-.63-.19-1.39-.15-2.03-.11-.69.04-1.37.15-2.04.33-.35.09-.69.2-1.03.33-.1.04-.7.25-.48.42.37.28-.11.82-.47.54-.32-.24-.36-.71-.16-1.05.24-.42.8-.57,1.22-.72,1.02-.35,2.09-.55,3.16-.59.53-.02,1.07,0,1.59.07.38.05.84.15,1.08.48.62.84-.61,1.73-1.29,1.93-.44.13-.67-.55-.23-.69h0Z"/><path class="cls-1" d="m25.18,15.98c-1.27.16-2.54.3-3.8.47-.58.08-1.23.18-1.64.66-.44.51-.21,1.18.05,1.72,1.08,2.32,2.42,4.56,3.75,6.74.24.4-.35.8-.59.4-.8-1.31-1.57-2.64-2.3-3.98-.37-.67-.73-1.35-1.08-2.03-.29-.57-.64-1.15-.75-1.78-.23-1.29.77-2.11,1.9-2.35,1.44-.3,2.95-.39,4.42-.57.45-.06.49.67.04.72h0Z"/><path class="cls-1" d="m23.53,25.66c3.39,5.9,6.97,11.68,10.22,17.66.22.41-.37.81-.59.4-3.26-5.98-6.84-11.76-10.22-17.66-.23-.4.36-.81.59-.4h0Z"/><path class="cls-1" d="m33.82,43.53c2.24,4.61,4.95,8.96,7.6,13.33,2.71,4.47,5.3,9.01,7.75,13.64.22.41-.37.81-.59.4-2.45-4.63-5.04-9.17-7.75-13.64-2.65-4.37-5.36-8.72-7.6-13.33-.2-.41.39-.82.59-.4h0Z"/><path class="cls-1" d="m49.2,70.69c2.26,3.97,4.71,7.96,7.57,11.51.79.98,1.69,1.57,2.97,1.57,1.15,0,2.3-.32,3.38-.69,2.18-.74,4.32-1.63,6.46-2.47,4.31-1.69,8.59-3.46,12.74-5.52.85-.42,2.2-.93,2.1-2.13-.09-1.08-.98-2.21-1.56-3.09s-1.25-1.77-1.95-2.59c-.41-.48-.81-1.01-1.47-1.06s-1.39.18-2.03.33c-4.46,1.05-8.68,3.17-12.89,4.95-2.12.9-4.25,1.76-6.32,2.76-.53.26-1.06.53-1.58.82-.46.25-1.18.53-1.48.99-.36.57.16,1.29.43,1.81.25.48.51.96.8,1.42.58.9,1.3,1.73,2.24,2.23,1.1.59,2.18.5,3.33.11,2.01-.69,3.93-1.64,5.72-2.8.86-.55,1.68-1.16,2.47-1.8s1.72-1.36,2.23-2.28c.68-1.23.2-2.44-1.1-2.86-.86-.28-2.09-.42-2.75.36-.56.67-.64,2.18-.33,2.98.21.54.86.75,1.35.98.53.25,1.07.48,1.63.62,1.26.32,2.47.02,3.68-.38,1.04-.34,2.08-.7,3.1-1.11s2.07-.88,2.99-1.52c.53-.37.95-.81,1.04-1.49.08-.61-.06-1.28-.2-1.87-.53-2.21-1.79-4.22-3.02-6.1-.6-.92-1.23-1.81-1.89-2.69-.28-.37.31-.77.59-.4,1.61,2.13,3.16,4.42,4.26,6.88.51,1.15.94,2.43.98,3.7.04,1.09-.41,1.89-1.28,2.51-1.02.73-2.22,1.25-3.37,1.71-1.31.52-2.66,1.03-4.02,1.38-1.22.32-2.39.32-3.59-.09-.86-.3-2.24-.71-2.77-1.53-.47-.74-.39-2.09-.21-2.92.19-.91.79-1.61,1.68-1.85,1.71-.45,4.28.41,4.27,2.52,0,1.08-.64,2-1.37,2.72-.85.84-1.8,1.6-2.76,2.3-2.01,1.46-4.21,2.64-6.52,3.5-1.12.42-2.27.77-3.46.45-1.02-.27-1.93-.92-2.63-1.71-.83-.93-1.41-2.04-1.96-3.15-.45-.91-.65-1.73.22-2.44.95-.78,2.2-1.29,3.29-1.82,1.25-.6,2.52-1.14,3.79-1.68,2.68-1.13,5.36-2.27,8.04-3.4,2.58-1.09,5.19-2.14,7.94-2.69,1.13-.23,2.07-.37,2.95.52s1.67,1.98,2.39,3.04c1.04,1.54,2.87,4,.93,5.57-.95.76-2.21,1.21-3.29,1.73-1.27.6-2.55,1.18-3.84,1.75-2.58,1.12-5.19,2.17-7.81,3.2s-5.27,2.31-8.02,2.83c-1.1.21-2.31.31-3.35-.19s-1.68-1.42-2.33-2.3c-1.7-2.3-3.32-4.67-4.83-7.1-.74-1.2-1.46-2.41-2.16-3.64-.23-.4.36-.81.59-.4h0Z"/><path class="cls-1" d="m76.86,61.86c-2.91-4.58-5.72-9.22-8.46-13.92-2.74-4.7-5.51-9.37-8.61-13.83-.27-.38.33-.78.59-.4,3.1,4.47,5.87,9.13,8.61,13.83s5.55,9.33,8.46,13.92c.25.39-.34.79-.59.4h0Z"/><path class="cls-1" d="m59.76,34.2c-1.75-2.94-3.5-5.88-5.25-8.82l-2.55-4.29c-.79-1.33-1.5-2.99-2.67-4.02-.35-.3.12-.85.47-.54,1.1.96,1.76,2.42,2.5,3.67l2.7,4.53c1.8,3.02,3.6,6.04,5.39,9.07.24.4-.35.8-.59.4h0Z"/></g><g><path class="cls-1" d="m94.19,51.14c-1.79-1.07-3.72-1.88-5.74-2.4l.22.55c.81-1.83,1.7-3.62,2.67-5.37.24-.42-.41-.8-.65-.38-.98,1.75-1.87,3.54-2.67,5.37-.09.21-.03.49.22.55,1.96.5,3.82,1.29,5.56,2.33.42.25.79-.4.38-.65h0Z"/><path class="cls-1" d="m94.44,39.43c1.33,3.5,2.5,7.06,3.51,10.66.06.21.26.29.46.26,1.57-.22,3.09-.92,4.04-2.23s1.17-2.93.55-4.37c-.57-1.33-1.86-2.35-3.36-2.18-1.65.19-2.48,1.63-2.95,3.07-.15.46.57.66.72.2.38-1.18,1.06-2.49,2.47-2.54,1.3-.04,2.27,1.05,2.59,2.22s-.06,2.53-.87,3.46c-.86.99-2.12,1.47-3.39,1.64l.46.26c-1.01-3.61-2.18-7.16-3.51-10.66-.17-.45-.89-.25-.72.2h0Z"/><path class="cls-1" d="m106.17,43.69c-.58-.88-.62-2.07-.09-2.99.64-1.1,2.08-1.31,3.22-.96,1.39.42,1.83,1.94,2.16,3.2.18.67.19,1.34-.19,1.95-.34.53-.91.91-1.51,1.09-1.45.43-2.97-.37-3.42-1.81-.14-.46-.87-.26-.72.2.48,1.54,1.97,2.61,3.6,2.47s3.12-1.34,3.12-3.02c0-.89-.34-1.8-.67-2.61-.31-.77-.74-1.47-1.48-1.89-1.32-.75-3.34-.67-4.39.5s-1.11,2.98-.28,4.25c.26.4.91.03.65-.38h0Z"/><path class="cls-1" d="m118.53,35.3c-1.66.31-3.32.82-4.05,2.49s-.31,3.52.68,4.92c.44.62,1.01,1.21,1.79,1.35.85.15,1.72-.24,2.4-.72s1.21-1.13,1.32-1.99c.12-.92-.21-1.84-.5-2.7-.79-2.34-1.58-4.68-2.38-7.03-.15-.45-.88-.26-.72.2.67,1.98,1.34,3.95,2,5.93.33.98.83,2.04.87,3.09.04,1.1-.7,1.8-1.63,2.24-1.18.56-2.02.02-2.67-.99-.51-.8-.82-1.74-.78-2.7s.46-1.95,1.29-2.52c.75-.52,1.69-.68,2.57-.85.47-.09.27-.81-.2-.72h0Z"/><path class="cls-1" d="m121.85,34.74c1.49,1.83,3.15,3.53,4.96,5.06.37.31.9-.22.53-.53-1.81-1.53-3.46-3.23-4.96-5.06-.13-.16-.4-.13-.53,0-.16.15-.13.37,0,.53h0Z"/><path class="cls-1" d="m128.04,32.29c-.16,2.34-.33,4.67-.49,7.01-.08,1.12-.15,2.25-.24,3.37s-.42,2.29-1.76,2.32c-.48,0-.48.76,0,.75.92-.02,1.76-.51,2.17-1.35.5-1.04.4-2.41.47-3.53.2-2.85.4-5.71.6-8.56.03-.48-.72-.48-.75,0h0Z"/><path class="cls-1" d="m126.82,39.69s.03.01.04.02l-.09-.04c.09.04.17.08.24.14l-.08-.06c.08.06.16.14.22.22l-.06-.08c.05.07.1.14.13.22s.14.15.22.17c.09.02.21.01.29-.04s.15-.13.17-.22v-.1c.01-.07,0-.13-.04-.19-.03-.07-.07-.14-.12-.2-.06-.09-.13-.17-.21-.24s-.16-.14-.25-.19-.19-.1-.29-.14c-.05-.02-.1-.02-.15,0-.05,0-.1.02-.14.04-.08.05-.15.13-.17.22-.02.1-.02.2.04.29l.06.08s.1.08.17.1h0Z"/><path class="cls-1" d="m131.17,29.96l4.05,2.09c.26.14.79.28.97.5.25.06.27.22.07.49-.08.16-.16.31-.24.47-.32.63-.64,1.25-.96,1.88-1.06,2.09-2.34,4.27-1.38,6.65.75,1.84,2.57,2.54,4.28,1.56.47-.27.93-.65,1.47-.78.79-.19,1.45.32,1.84.96.84,1.38.3,3.05-.16,4.46-.15.46.57.66.72.2.64-1.98,1.25-5.06-1.13-6.2-.85-.41-1.69-.14-2.47.31-.48.28-.94.66-1.49.78-.98.22-1.85-.49-2.27-1.31-.76-1.49-.34-3.15.36-4.56s1.38-2.69,2.06-4.04c.51-1.03.13-1.28-.83-1.77l-4.54-2.34c-.43-.22-.81.43-.38.65h0Z"/><path class="cls-1" d="m95.2,39.13c-.46-.99-1.42-1.65-2.49-1.82-1.21-.19-2.37.29-3.33.99-1.09.79-1.94,1.86-2.95,2.74-.56.49-1.33,1.15-2.12.84-.64-.25-1.04-.94-1.38-1.5-.25-.41-.9-.03-.65.38.56.9,1.3,1.98,2.48,1.95,1.25-.03,2.29-1.19,3.11-2.01.98-.98,1.99-2.11,3.36-2.53s2.74.07,3.33,1.34c.2.44.85.06.65-.38h0Z"/></g><g><path class="cls-1" d="m298.57,28.97c-.33-1.7-1.19-3.26-2.39-4.49l-.17.63c1.5-.51,3-1.01,4.49-1.52.45-.15.26-.88-.2-.72-1.5.51-3,1.01-4.49,1.52-.27.09-.37.42-.17.63,1.12,1.15,1.89,2.59,2.2,4.16.09.47.82.27.72-.2h0Z"/><path class="cls-1" d="m301.59,31.9c2.44-2.42,4.88-4.83,7.32-7.25.34-.34-.19-.87-.53-.53-2.44,2.42-4.88,4.83-7.32,7.25-.34.34.19.87.53.53h0Z"/><path class="cls-1" d="m311.44,25.2c-.93,2.33-1.86,4.66-2.79,6.99l.72.2c.43-1.59,1.23-3.72,3.26-3.47.93.11,1.46.87,1.33,1.79-.15,1.07-.97,1.92-1.41,2.87-.2.43.44.82.65.38.55-1.18,1.56-2.22,1.54-3.61-.02-1.08-.74-1.93-1.79-2.14-.97-.19-2,.11-2.72.79-.88.84-1.27,2.05-1.58,3.19-.13.48.55.64.72.2.93-2.33,1.86-4.66,2.79-6.99.18-.45-.55-.64-.72-.2h0Z"/><path class="cls-1" d="m317.15,33.15l2.31.89,1.11.43c.36.14.71.24,1.04-.03.45-.36.69-1.03.67-1.59-.02-.65-.37-1.19-.94-1.5-.6-.33-1.35-.59-2.03-.66s-1.36.15-1.85.65c-.96.99-1.21,2.63-1.04,3.95.11.82.6,1.3,1.35,1.58.81.3,1.7.33,2.54.13.47-.11.27-.83-.2-.72-.58.14-1.18.14-1.76-.01-.44-.12-.99-.31-1.14-.79-.17-.55-.12-1.23-.02-1.79.09-.5.24-1,.51-1.44.25-.41.63-.75,1.12-.81.56-.07,1.14.16,1.65.36.44.17.91.37,1.03.88.08.37-.03.8-.27,1.1-.13.16-.2.09-.37.03s-.34-.13-.5-.19l-1.01-.39-2.01-.78c-.45-.17-.65.55-.2.72h0Z"/><path class="cls-1" d="m325.47,34.03c.49-.27,1.06-.32,1.6-.17s1.12.5,1.3,1.03c.12.33-.05.69-.17.99-.15.39-.31.78-.46,1.17-.31.78-.61,1.56-.92,2.33-.18.45.55.64.72.2.36-.92.72-1.84,1.09-2.76.33-.83.81-1.72.25-2.56-.8-1.21-2.55-1.58-3.8-.88-.42.24-.04.88.38.65h0Z"/><path class="cls-1" d="m328.16,36.37c-.96-.92-2.52-1.23-3.69-.54-.59.35-.98.94-1.02,1.63s.37,1.29.95,1.63c.75.43,1.62.4,2.45.33.2-.02.38-.16.38-.38,0-.19-.17-.39-.38-.38-.59.05-1.21.11-1.79-.09-.41-.14-.79-.45-.86-.9-.16-1.07,1.08-1.54,1.93-1.46.55.05,1.09.3,1.48.68.35.33.88-.2.53-.53h0Z"/><path class="cls-1" d="m336.15,36.67c-1.1-.75-2.53-1.26-3.81-.64-.58.28-.98.8-1.23,1.38-.27.61-.47,1.3-.4,1.97.13,1.25,1.18,2.25,2.44,2.28,1.34.03,2.08-1.03,2.53-2.15.67-1.65,1.28-3.32,1.92-4.98.17-.45-.55-.65-.72-.2-.46,1.19-.92,2.37-1.37,3.56-.21.53-.39,1.07-.62,1.59-.19.43-.43.88-.82,1.15-.87.61-2.07.11-2.47-.81-.23-.52-.15-1.07,0-1.6.14-.48.35-.97.72-1.31,1.01-.91,2.5-.27,3.45.38.4.27.77-.38.38-.65h0Z"/><path class="cls-1" d="m334.68,39.95l-.81,2.18c-.07.18.08.42.26.46.21.05.39-.06.46-.26l.81-2.18c.07-.18-.08-.42-.26-.46-.21-.05-.39.06-.46.26h0Z"/><path class="cls-1" d="m339.78,37.84c.73,1.35,1.46,2.7,2.19,4.05l.22-.55c-.99.39-1.99.76-2.97,1.18-.64.27-1.3.63-1.67,1.24-.83,1.35.48,2.6,1.82,2.67.9.05,1.73-.34,2.58-.61,1.01-.32,1.89-.24,2.86.18,1.57.69,3.06,1.83,4.87,1.39.47-.11.27-.84-.2-.72-1.56.37-2.95-.72-4.29-1.32-1.27-.57-2.41-.61-3.73-.16-.67.23-1.36.53-2.08.48-.77-.05-1.69-.71-1.17-1.54.37-.6,1.15-.87,1.77-1.11.81-.32,1.62-.64,2.42-.96.23-.09.35-.32.22-.55l-2.19-4.05c-.23-.42-.88-.05-.65.38h0Z"/><path class="cls-1" d="m308.8,24.84c.49-.54,1.11-1.03,1.89-.99.3.02.63.13.83.36.11.13.11.25.07.41-.05.21-.11.42-.21.61-.09.18-.05.4.13.51.16.1.43.05.51-.13.24-.5.49-1.16.2-1.68-.24-.44-.76-.72-1.24-.8-1.08-.18-2.02.41-2.72,1.18-.33.36.2.89.53.53h0Z"/><path class="cls-1" d="m301.19,31.28c-1.35,1.05-3.1,1.55-4.78,1.08-.71-.2-1.35-.55-1.89-1.06-.48-.46-.85-1.02-1.38-1.42-2.38-1.81-5.5-.01-8.13-.85-.46-.15-.66.58-.2.72,1.6.51,3.19.13,4.83.05.78-.04,1.59-.01,2.33.27.9.35,1.36,1.13,2.02,1.76,2.18,2.09,5.48,1.71,7.72-.03.38-.29-.15-.82-.53-.53h0Z"/></g><g><path class="cls-1" d="m268.66,70.3c1.81,1.36,3.62,2.73,5.17,4.38,1.64,1.73,2.62,3.71,3.64,5.83,1.75,3.65,4.61,7.47,8.19,9.49,7.17,4.03,15.79.36,20.89-5.24,2.61-2.87,4.76-6.43,5.19-10.35.47-4.24-1.53-8.1-3.81-11.52-4.87-7.31-11.55-13.47-18.29-19.04-3.44-2.84-7.33-5.36-11.89-5.71-4.29-.33-8.46,1.45-10.65,5.25-.08.15,0,.32.15.37.88.3,1.63,0,2.42-.42,1.21-.66,2.33-1.3,3.69-1.6,2.61-.58,5.41-.15,7.78,1.05,4.65,2.35,7.18,7.52,7.91,12.48.45,3.05-.06,5.95-2.08,8.35-1.73,2.05-4.15,3.45-6.73,4.13-5.25,1.39-10.75-.31-14.86-3.72-2.61-2.16-4.36-4.85-4.1-8.36.24-3.32,2.03-6.24,4.18-8.68.21-.24-.14-.6-.35-.35-3.67,4.18-6.3,10.47-2.41,15.41,3.34,4.24,9.09,6.95,14.48,6.68s10.82-3.33,12.23-8.62c.73-2.74.16-5.81-.69-8.46s-2.22-5.1-4.2-7.03-4.62-3.24-7.43-3.56c-1.47-.17-2.99-.07-4.42.33-.64.18-1.26.42-1.85.71-1.06.53-2.16,1.6-3.44,1.17l.15.37c2.15-3.71,6.25-5.37,10.42-4.98s7.82,2.67,11.01,5.27c6.18,5.04,12.27,10.64,17.03,17.06,2.41,3.25,4.94,6.99,5.29,11.13.36,4.26-1.75,8.35-4.42,11.53-4.93,5.86-13.6,10.03-20.94,5.92-4.17-2.33-6.73-6.74-8.75-10.89-1.84-3.79-4.95-6.33-8.25-8.82-.26-.19-.51.24-.25.43h0Z"/><path class="cls-1" d="m265.37,47.02c.75-.68,2.27,2.04,2.46,2.46.39.87.29,1.87.74,2.71.4.75,1.04,1.41,1.57,2.07.58.73,1.13,1.62,1.86,2.22.62.51,1.26.53,2.02.57,1.32.06,2.21.66,3.11,1.58,1.47,1.5,2.89,2.97,4.56,4.25.72.56,2.38,2.13,3.27.98s-.95-2.48-1.62-3.14c-.83-.81-1.65-1.62-2.48-2.43s-1.93-1.63-2.63-2.57c-.65-.88-.18-1.82-.52-2.79-.27-.78-.86-1.42-1.41-2.02-.78-.85-1.54-1.78-2.42-2.53-.73-.63-1.5-.86-2.43-1.02-2.71-.48-4.54-2.73-6.49-4.5-.24-.22-.59.14-.35.35,1.4,1.27,2.76,2.78,4.36,3.81.74.48,1.5.68,2.36.83,1.16.2,1.95.59,2.78,1.44.71.73,1.41,1.47,2.08,2.23.36.4.72.82.95,1.31.3.63.2,1.18.18,1.83s.16.97.58,1.42c.79.84,1.66,1.62,2.48,2.43.73.71,1.46,1.43,2.19,2.14.39.38.78.76,1.17,1.14.16.16.34.32.49.49.46.51.31,1.57-.52,1.36-.89-.23-1.86-1.25-2.53-1.81-.83-.68-1.62-1.41-2.37-2.17-1.06-1.08-2.06-2.49-3.57-2.95-.86-.26-1.89.04-2.67-.43-.88-.53-1.54-1.72-2.17-2.51-.82-1.04-1.49-1.82-1.7-3.15-.14-.88-.46-1.62-.96-2.35s-1.61-2.57-2.69-1.59c-.24.22.12.57.35.35h0Z"/><path class="cls-1" d="m264.83,42.66c-1.98-1.42-3.79-3.08-5.35-4.96-.79-.96-1.54-1.99-1.91-3.19-.4-1.29-.22-2.63-.13-3.94.25-3.52.14-9.03-3.94-10.37-.31-.1-.44.38-.13.48,2.64.87,3.34,3.75,3.55,6.21.2,2.29-.36,4.62-.03,6.88.28,1.9,1.5,3.48,2.74,4.88,1.47,1.67,3.14,3.15,4.94,4.45.26.19.51-.25.25-.43h0Z"/><path class="cls-1" d="m253.49,20.28c-1.45-1.11-3.4-.73-5.01-.21-2.18.71-4.45,1.54-6.47-.06-.25-.2-.61.15-.35.35,1.66,1.33,3.61,1.27,5.56.66s4.22-1.67,6.02-.31c.26.19.51-.24.25-.43h0Z"/><path class="cls-1" d="m268.88,70.27c2.06.72,4.12,1.43,6.18,2.15s3.63,1.84,4.95,3.6c1.08,1.44,1.85,3.09,2.29,4.83.32,1.26.51,3.27,1.64,4.14.91.7,1.58-.9,1.69-1.57.27-1.85.34-3.86.02-5.7-.27-1.54-.91-3.07-2.03-4.18s-2.81-1.68-4.34-2.2c-4.42-1.51-8.93-2.74-13.26-4.5-.3-.12-.43.36-.13.48,3.36,1.37,6.83,2.42,10.28,3.52,1.74.56,3.56,1.06,5.22,1.82s2.78,2.01,3.39,3.7.62,3.7.49,5.56c-.04.51-.05,3.02-1.07,2.62-.27-.1-.56-.87-.68-1.14-.19-.44-.31-.91-.43-1.37-.72-2.86-1.7-5.44-3.8-7.6-1.18-1.22-2.52-1.92-4.11-2.48-2.06-.72-4.12-1.43-6.18-2.15-.3-.11-.44.38-.13.48h0Z"/><path class="cls-1" d="m263.42,44.95c-.49-1.48-1.58-2.58-2.6-3.72-1.19-1.33-2.04-2.81-2.39-4.57-.06-.32-.54-.18-.48.13.33,1.66,1.09,3.13,2.19,4.41,1.04,1.21,2.29,2.32,2.8,3.88.1.3.58.17.48-.13h0Z"/><path class="cls-1" d="m266.09,66.86c-3.78-2.33-6.34-6.36-6.8-10.79-.26-2.47.58-4.23,1.92-6.21.99-1.46,1.98-2.91,2.13-4.72.03-.32-.47-.32-.5,0-.2,2.34-1.95,4.08-3.07,6.03s-1.21,3.82-.84,5.94c.73,4.2,3.28,7.94,6.91,10.18.27.17.53-.26.25-.43h0Z"/></g><g><path class="cls-1" d="m338.11,77.29c2.51-1.38,4.83-.17,6.54,1.67.75.81,1.53,1.48,2.63,1.54,1.18.07,2.6-.53,3.54.41l-.06-.51c-1.28,2.27.75,4.09,1.83,5.35,1.56,1.8,3.12,3.6,4.74,5.31,1.58,1.68,3.22,3.29,4.95,4.76s3.51,2.93,5.5,3.86c1.87.87,4.16.93,5.98-.83.33-.32-.06-.84-.39-.52-1.6,1.54-3.64,1.41-5.27.68-1.81-.82-3.45-2.16-5.01-3.46-3.07-2.55-5.84-5.55-8.53-8.62-.76-.86-1.51-1.74-2.26-2.61s-1.87-2.1-1.05-3.54c.11-.19.06-.39-.06-.51-.91-.91-2.2-.56-3.37-.51-.77.03-1.41-.15-2.01-.65-.53-.44-.96-1.02-1.46-1.5-1.72-1.66-4.22-2.21-6.5-.96-.38.21-.13.85.25.64h0Z"/><path class="cls-1" d="m373.74,98.77c4.21-2.88,7.85-7.07,11.37-11.07,3.84-4.35,7.61-8.8,11.35-13.27,2.16-2.58,4.3-5.18,6.43-7.8.3-.36-.09-.89-.39-.52-3.68,4.52-7.4,8.99-11.17,13.41-3.7,4.35-7.41,8.72-11.32,12.81-2.05,2.14-4.18,4.19-6.53,5.8-.37.25-.12.9.25.64h0Z"/><path class="cls-1" d="m402.84,66.58c1.89-2.17,3.78-4.35,5.67-6.52,1.8-2.07,3.6-4.11,5.26-6.34,3.49-4.69,6.97-9.39,10.45-14.08.28-.38-.1-.91-.39-.52-3.48,4.69-6.96,9.39-10.45,14.08-1.66,2.23-3.46,4.27-5.26,6.34-1.89,2.17-3.78,4.35-5.67,6.52-.31.35.08.88.39.52h0Z"/><path class="cls-1" d="m424.25,39.53c.72-.99,1.38-2.04,1.95-3.16.46-.91.99-1.92.85-2.95-.29-2.14-2.42-2.63-3.88-3.2-4.14-1.61-8.28-3.22-12.42-4.82-1.88-.73-3.81-1.78-5.84-1.98-1.86-.19-3.32.96-4.69,2.58-.61.72-1.34,1.54-1.54,2.54-.18.91.16,1.61.7,2.12,1.51,1.44,3.51,2.3,5.34,3.12,2.24,1.01,4.49,1.97,6.74,2.95,2.35,1.03,4.7,2.08,7.25,2.49.38.06.62-.66.23-.73-3.86-.62-7.41-2.56-10.97-4.11-1.76-.77-3.55-1.49-5.25-2.4-.82-.44-1.62-.92-2.37-1.49-.84-.63-1.47-1.36-.71-2.68.49-.85,1.25-1.65,1.91-2.31.82-.81,1.71-1.33,2.72-1.36,1.79-.06,3.52.91,5.14,1.54,3.57,1.39,7.15,2.78,10.72,4.16,1.02.39,2.03.79,3.05,1.18.91.35,1.98.61,2.69,1.38.35.38.62.92.6,1.53-.02.71-.43,1.44-.75,2.06-.57,1.12-1.23,2.17-1.95,3.16-.28.38.22.75.5.37h0Z"/><path class="cls-1" d="m418.8,39.15c1.02.81,2.37.92,3.6.17s1.87-2.1,2.37-3.56c.47-1.38.52-2.72-.52-3.5-.51-.38-1.15-.58-1.73-.79-.83-.31-1.66-.59-2.49-.87-3.17-1.03-6.39-2.06-9.65-2.82-.71-.17-1.44-.32-2.17-.38-.48-.04-1.03-.02-1.45.4-1.07,1.09-.01,2.39.73,2.87,3.09,1.99,6.59,3.17,10.21,3.63.39.05.45-.7.07-.75-2.53-.32-4.99-1.02-7.29-2.1-.61-.29-1.21-.6-1.8-.94-.5-.29-1.15-.56-1.51-1.07-.28-.4-.27-1.05.26-1.26.23-.09.5-.05.72-.03.72.06,1.43.22,2.12.39,2.48.59,4.92,1.37,7.36,2.11,1.23.37,2.45.76,3.66,1.18.57.2,1.13.4,1.69.62s1.22.49,1.45,1.18-.06,1.47-.3,2.15c-.28.79-.57,1.56-1.11,2.17-1.13,1.29-2.7,1.44-3.82.54-.31-.25-.69.4-.38.65h0Z"/><path class="cls-1" d="m407.22,30.41c.36.1.71.3,1.11.13s.63-.64.71-1.12c.14-.75-.16-1.55-.7-1.86-.14-.08-.34-.05-.44.14-.09.17-.09.42.06.51.05.03.11.07.15.11.01,0,.07.07.02.02.02.02.04.04.05.06.04.05.08.11.11.16-.03-.05,0,0,.01.03.01.03.02.05.04.08s.02.06.03.08c0,.01.03.11.02.07s.01.07.02.08c0,.03.01.06.01.09s0,.06,0,.09c0,.02,0,.04,0,.06,0-.04,0-.04,0-.02,0,.07,0,.14-.01.21,0,.03,0,.06-.02.1.02-.09,0,0,0,.03-.01.04-.02.08-.03.11,0,.02-.05.13-.02.06-.02.03-.03.06-.05.1-.04.08.02-.02-.03.04-.03.03-.03.03,0,.01-.01.01-.03.02-.04.03-.01,0-.03.02-.04.02.03-.02.03-.02,0,0-.01,0-.1.02-.03.01-.03,0-.06,0-.09,0s-.06,0-.09,0c.07,0-.06-.02-.07-.02-.15-.04-.29-.11-.44-.15s-.35.07-.41.27.01.41.18.45h0Z"/><path class="cls-1" d="m412.29,32.22c-.22-.15-.4-.34-.51-.61-.03-.06-.14-.29-.09-.38s.22-.11.29-.11c.58-.07,1.2.13,1.73.3.57.18,1.11.43,1.62.74.27.17.53.35.78.54.08.06.52.4.29.52-.38.21-.13.85.25.64.34-.18.49-.65.42-1.03-.09-.48-.52-.74-.83-.97-.76-.56-1.6-.98-2.49-1.23-.44-.13-.89-.21-1.35-.25-.33-.03-.74-.02-1.04.27-.74.73.05,1.87.57,2.22.33.22.71-.43.38-.65h0Z"/><path class="cls-1" d="m417.55,34.25c1.02.41,2.04.81,3.06,1.24.46.19.98.43,1.19.99.23.6-.14,1.24-.5,1.73-1.53,2.13-3.25,4.13-4.95,6.07-.31.35.08.88.39.52,1.02-1.16,2.02-2.35,2.99-3.57.49-.61.97-1.22,1.45-1.84.4-.51.84-1.03,1.1-1.65.54-1.27-.08-2.29-.96-2.76-1.13-.6-2.37-.99-3.55-1.47-.36-.15-.59.58-.23.73h0Z"/><path class="cls-1" d="m416.35,44.39c-4.41,5.29-8.96,10.43-13.29,15.82-.29.37.09.89.39.52,4.33-5.4,8.87-10.53,13.29-15.82.3-.36-.09-.89-.39-.52h0Z"/><path class="cls-1" d="m402.94,60.41c-3.11,4.22-6.54,8.08-9.93,11.97-3.47,3.98-6.86,8.06-10.14,12.25-.29.37.1.9.39.52,3.29-4.19,6.67-8.27,10.14-12.25,3.39-3.89,6.82-7.75,9.93-11.97.28-.38-.11-.91-.39-.52h0Z"/><path class="cls-1" d="m382.79,84.81c-2.95,3.56-6.07,7.12-9.42,10.13-.92.83-1.84,1.25-2.9.99-.96-.23-1.84-.79-2.65-1.38-1.63-1.19-3.18-2.52-4.75-3.8-3.16-2.58-6.27-5.23-9.2-8.15-.6-.6-1.6-1.39-1.19-2.58.37-1.07,1.41-2.04,2.13-2.81s1.52-1.54,2.32-2.23c.47-.4.95-.86,1.51-.77s1.11.46,1.61.74c3.45,1.96,6.42,4.95,9.47,7.6,1.53,1.33,3.09,2.63,4.55,4.07.38.37.75.75,1.1,1.14.32.35.85.78.97,1.3.15.65-.48,1.27-.84,1.74-.34.44-.68.87-1.05,1.28-.73.8-1.55,1.49-2.48,1.81-1.08.38-1.96.07-2.82-.56-1.5-1.1-2.86-2.45-4.04-3.98-.57-.73-1.1-1.51-1.59-2.32s-1.08-1.72-1.26-2.75c-.24-1.39.48-2.51,1.68-2.67.79-.11,1.86,0,2.21.92.29.79-.05,2.34-.52,3.09-.32.51-.92.59-1.39.72-.51.14-1.02.27-1.53.3-1.14.07-2.07-.48-2.98-1.12-.78-.56-1.56-1.13-2.3-1.75s-1.5-1.31-2.1-2.14c-.35-.48-.58-1.01-.47-1.71.1-.63.39-1.28.67-1.85,1.04-2.13,2.63-3.91,4.16-5.57.75-.81,1.52-1.59,2.3-2.34.33-.32-.06-.84-.39-.52-1.92,1.84-3.83,3.84-5.4,6.1-.74,1.06-1.43,2.27-1.81,3.55-.33,1.1-.16,1.99.4,2.8.66.95,1.52,1.71,2.36,2.41.96.79,1.95,1.57,3,2.21.94.57,1.92.81,3.04.63.8-.13,2.07-.26,2.73-1,.6-.66.89-2.04.96-2.91.08-.96-.23-1.79-.91-2.21-1.31-.8-3.69-.45-4.25,1.69-.29,1.1,0,2.15.42,3.03.49,1.02,1.08,1.98,1.7,2.89,1.29,1.88,2.82,3.52,4.52,4.86.83.65,1.69,1.24,2.78,1.16.93-.07,1.86-.54,2.66-1.2.94-.78,1.73-1.78,2.49-2.79.62-.83,1-1.62.47-2.51-.59-.98-1.49-1.75-2.27-2.5-.88-.85-1.8-1.66-2.72-2.46-1.94-1.69-3.88-3.38-5.82-5.06s-3.78-3.21-5.93-4.32c-.88-.46-1.64-.8-2.61-.06s-1.93,1.67-2.81,2.6c-1.28,1.35-3.48,3.48-2.27,5.45.59.96,1.52,1.67,2.29,2.41.9.87,1.82,1.71,2.75,2.54,1.86,1.66,3.77,3.25,5.69,4.81s3.8,3.39,5.96,4.48c.87.44,1.85.78,2.86.48s1.79-1.1,2.57-1.86c2.04-1.98,4.03-4.06,5.94-6.22.94-1.06,1.87-2.15,2.78-3.25.3-.36-.09-.89-.39-.52h0Z"/><path class="cls-1" d="m361.98,70.3c3.67-4.06,7.26-8.18,10.81-12.39,3.55-4.21,7.12-8.37,10.91-12.27.32-.33-.06-.86-.39-.52-3.79,3.9-7.36,8.06-10.91,12.27s-7.14,8.33-10.81,12.39c-.31.35.07.87.39.52h0Z"/><path class="cls-1" d="m383.71,45.74c2.25-2.62,4.5-5.25,6.76-7.87,1.09-1.28,2.19-2.55,3.28-3.83,1.02-1.18,2.06-2.73,3.31-3.53.37-.24.12-.88-.25-.64-1.18.75-2.12,2.1-3.07,3.21l-3.47,4.05-6.94,8.09c-.31.36.08.88.39.52h0Z"/></g><g><path class="cls-1" d="m418.45,80.62c-.45.84-.93,1.67-1.34,2.53-.18.38-.35.76-.47,1.16-.11.35-.33.89-.17,1.25s.65.46.98.6c.45.19.91.37,1.36.56.91.36,1.82.71,2.74,1.04.45.17.65-.56.2-.72-.78-.28-1.56-.58-2.33-.88-.38-.15-.75-.3-1.13-.45-.2-.08-.39-.16-.59-.24-.09-.04-.55-.16-.58-.25.02.04.08-.15.08-.14.03-.09.04-.19.07-.28.05-.19.11-.37.18-.55.13-.35.29-.69.46-1.02.38-.75.79-1.48,1.19-2.22.23-.42-.42-.8-.65-.38h0Z"/><path class="cls-1" d="m425.78,87.72c0-3.97-.07-7.94-.24-11.91-.02-.48-.77-.48-.75,0,.17,3.97.25,7.94.24,11.91,0,.48.75.48.75,0h0Z"/><path class="cls-1" d="m427.63,74.45c1.43,2.67,2.86,5.35,3.77,8.25l.69-.29c-.5-.98-.88-2.02-1.11-3.1-.12-.54-.23-1.11-.11-1.66.12-.5.47-.88.85-1.19s.94-.65,1.38-.27c.35.3.52.8.69,1.2.48,1.1.91,2.22,1.3,3.35.16.45.88.26.72-.2-.47-1.36-.98-2.74-1.61-4.04-.22-.46-.53-.93-1.02-1.13-.6-.25-1.22-.03-1.72.33-.46.33-.91.75-1.16,1.27-.29.59-.29,1.24-.19,1.87.2,1.38.68,2.71,1.31,3.95.19.38.81.12.69-.29-.93-2.96-2.39-5.7-3.85-8.43-.23-.43-.88-.05-.65.38h0Z"/><path class="cls-1" d="m436.11,71.76c.6,1.96,1.41,3.87,2.41,5.66.45.81.95,1.56,1.94,1.69s1.81-.4,2.58-.92c.4-.27.02-.92-.38-.65-.65.45-1.42,1-2.26.8s-1.19-1.2-1.53-1.86c-.83-1.57-1.51-3.22-2.03-4.92-.14-.46-.87-.26-.72.2h0Z"/><path class="cls-1" d="m435.97,74.79c1.46-.73,2.93-1.44,4.41-2.11.18-.08.23-.35.13-.51-.11-.19-.33-.22-.51-.13-1.48.68-2.95,1.38-4.41,2.11-.43.22-.05.86.38.65h0Z"/><path class="cls-1" d="m445.51,76.67c-.47-1.05-.93-2.11-1.4-3.16-.22-.49-.45-.97-.65-1.47-.11-.28-.09-.44.1-.67.14-.18.33-.37.55-.45.49-.18.75.23.95.61.26.49.51.98.76,1.47.53,1.02,1.06,2.05,1.59,3.07.22.43.87.05.65-.38-.49-.95-.98-1.9-1.47-2.85-.25-.48-.49-.95-.74-1.43-.2-.39-.39-.8-.76-1.06-.78-.55-1.69-.03-2.18.64-.3.4-.35.82-.15,1.29s.42.96.63,1.44c.49,1.11.98,2.22,1.47,3.33.19.44.84.06.65-.38h0Z"/><path class="cls-1" d="m445.7,71.06c.12-.46.28-1.4.84-1.54s1.07.39,1.33.83c.37.61.63,1.31.92,1.96.33.74.66,1.48.99,2.21.08.19.35.23.51.13.19-.11.22-.33.13-.51-.39-.86-.77-1.72-1.16-2.58-.34-.75-.62-1.59-1.21-2.19-.5-.51-1.3-.81-1.98-.48s-.92,1.27-1.11,1.97c-.12.47.6.67.72.2h0Z"/><path class="cls-1" d="m449.18,65.6c.52-.24,1.04-.47,1.57-.67l-.42-.17c1.27,2.49,2.62,4.97,3.62,7.59.17.45.9.25.72-.2-1.03-2.68-2.39-5.22-3.69-7.77-.07-.14-.28-.23-.42-.17-.59.23-1.18.47-1.75.74-.44.21-.06.85.38.65h0Z"/><path class="cls-1" d="m452.44,73.64c1.31-.62,2.65-1.18,4.02-1.67.19-.07.32-.26.26-.46-.05-.18-.27-.33-.46-.26-1.43.51-2.83,1.1-4.2,1.75-.18.09-.23.35-.13.51.11.19.33.22.51.13h0Z"/><path class="cls-1" d="m456.37,64.56c1.63.35,3.23.81,4.79,1.39l-.26-.46c-.63,1.8-1.22,3.61-1.79,5.42-.14.46.58.66.72.2.56-1.82,1.16-3.63,1.79-5.42.07-.2-.08-.4-.26-.46-1.56-.57-3.16-1.04-4.79-1.39-.47-.1-.67.62-.2.72h0Z"/><path class="cls-1" d="m428.27,74.24c-.51-1.52-2.19-3.41-3.99-2.81-1.06.36-2.08.89-3.11,1.33-.97.41-2.2.76-2.97-.21-.3-.38-.83.16-.53.53,1.31,1.66,3.51.49,5.01-.17.5-.22,1-.44,1.5-.65.58-.24,1.05-.25,1.61.05.84.45,1.45,1.23,1.75,2.12.15.45.88.26.72-.2h0Z"/><path class="cls-1" d="m456.38,72.18c1.56.11,3.02.86,4.06,2.02.54.6,1.03,1.37,1.04,2.2,0,.38-.09.8-.34,1.1-.35.41-.83.34-1-.19-.27-.91.92-1.33,1.59-1.44.95-.15,1.91,0,2.86-.02,1.57-.04,3.06-.55,4.33-1.47.39-.28.01-.93-.38-.65-.78.56-1.63.98-2.57,1.19-1.03.24-2.06.15-3.1.13-1.28-.02-3.55.29-3.52,2.03,0,.56.35,1.16.87,1.38.61.25,1.22-.12,1.57-.61.93-1.3.21-2.96-.71-4.04-1.18-1.4-2.9-2.26-4.72-2.39-.48-.04-.48.71,0,.75h0Z"/></g><g><path class="cls-1" d="m491.59,58.33c-.04,2.47-.08,4.97-.61,7.39s-1.77,4.43-2.88,6.61c-1.79,3.54-3.05,8.11-2.4,12.09,1.3,7.94,9.13,12.51,16.54,13.34,3.78.42,7.86.09,11.26-1.76s5.49-5.31,6.92-8.88c3.47-8.66,4.6-18.36,5.14-27.62.26-4.48-.06-9.19-2.58-13.06-2.31-3.54-6.1-5.74-10.39-5.3-.16.02-.29.15-.24.32.51,1.79,3.04,2.15,4.4,3.11,2.07,1.46,3.55,3.71,4.27,6.12,1.54,5.19-.75,10.59-4.23,14.44-2.08,2.29-4.56,4.06-7.74,4.2-2.79.12-5.56-.9-7.81-2.5-4.65-3.32-6.78-9.02-6.5-14.61.18-3.51,1.33-6.65,4.43-8.56,2.85-1.75,6.27-2.01,9.53-1.71.32.03.32-.47,0-.5-5.49-.5-12.06,1.04-13.88,6.97-1.69,5.52-.23,12.26,3.6,16.56,3.58,4.01,9.87,6.47,14.9,3.69,4.72-2.6,8.34-8.43,8.67-13.78.17-2.78-.61-5.6-2.19-7.9-.76-1.11-1.71-2.08-2.8-2.86-1.19-.84-3.74-1.31-4.17-2.81l-.24.32c4.11-.42,7.74,1.66,9.96,5.06s2.71,7.61,2.57,11.65c-.15,4.3-.66,8.63-1.26,12.89s-1.43,8.43-2.74,12.49c-1.21,3.74-2.74,7.81-5.81,10.44s-7.14,3.36-10.99,3.24c-7.66-.23-16.16-4.3-17.98-12.39-1.06-4.69.8-9.92,3.04-13.98,1.07-1.94,1.89-3.88,2.27-6.07s.42-4.42.46-6.64c0-.32-.49-.32-.5,0h0Z"/><path class="cls-1" d="m508.57,41.89c.32.09.27,1.21.24,1.43-.03.2-.11.4-.16.59-.17.56-.37,1.12-.68,1.61-.53.86-1.4,1.34-1.79,2.29-.34.84-.52,1.77-.76,2.64-.27.96-.78,2.1-.56,3.12.13.61.56,1.04.87,1.57.78,1.32.47,2.7.2,4.12-.41,2.18-.65,4.41-.6,6.63.02.85.28,2.19,1.45,1.87,1.47-.4,1.3-3.16,1.46-4.29s.33-2.22.49-3.32.05-2.87.98-3.61c.57-.45,1.08-.62,1.48-1.28s.55-1.41.7-2.14c.44-2.19,1.01-4.04.01-6.12-1.19-2.48-.45-5.33-.16-7.95.04-.32-.47-.32-.5,0-.21,1.95-.69,4.07-.49,6.03.07.66.27,1.25.55,1.84.58,1.23.84,2.08.61,3.48-.31,1.86-.44,4.42-2.14,5.55-.43.28-.79.44-.99.93-.39.91-.38,2.17-.52,3.15-.15,1.03-.3,2.06-.46,3.09-.13.9-.08,2.21-.45,3.04-.26.58-1.3.97-1.48.24-.06-.23-.03-.51-.03-.74,0-.49,0-.98.02-1.47.05-1.28.18-2.56.39-3.82.25-1.53.85-3.24.27-4.77-.27-.72-.85-1.24-1.07-1.98-.34-1.13.33-2.6.64-3.71.35-1.25.61-2.24,1.54-3.18.55-.56.95-1.17,1.24-1.9.36-.92,1.3-2.99-.16-3.4-.31-.09-.44.4-.13.48h0Z"/><path class="cls-1" d="m511.82,38.89c-.01-2.57.27-5.15.96-7.63.33-1.2.77-2.42,1.58-3.39.76-.9,1.79-1.48,2.78-2.09,3.06-1.89,7.59-5.25,6.27-9.43-.1-.31-.58-.18-.48.13.86,2.7-1.07,4.96-2.97,6.62-1.69,1.48-3.82,2.38-5.46,3.9-1.37,1.27-1.97,3.09-2.39,4.86-.55,2.3-.8,4.66-.78,7.02,0,.32.5.32.5,0h0Z"/><path class="cls-1" d="m523.32,16.41c.05-1.96-1.57-3.35-3.03-4.39-.83-.59-1.7-1.17-2.39-1.93-.81-.9-1.21-2.04-1.15-3.25.02-.32-.48-.32-.5,0-.1,2.13,1.15,3.69,2.78,4.89s3.85,2.44,3.79,4.68c0,.32.49.32.5,0h0Z"/><path class="cls-1" d="m491.73,58.49c.59,1.95,1.18,3.9,1.78,5.86.7,2.31.86,4.35.13,6.69-.63,2.01-1.72,3.7-3.08,5.29-.59.69-2.21,2.37-1.88,3.42.28.9,1.7.48,2.25.22,1.61-.78,3.26-1.96,4.53-3.22,1.08-1.07,1.96-2.4,2.29-3.9.38-1.7-.11-3.35-.61-4.97-1.4-4.58-3.11-9.06-4.26-13.71-.08-.31-.56-.18-.48.13,1.12,4.5,2.75,8.83,4.12,13.25.71,2.29,1.34,4.53.15,6.78-1.1,2.08-3.1,3.46-5.06,4.65-.44.27-1.98,1.37-2.36.38-.15-.39.6-1.32.84-1.65.55-.76,1.23-1.43,1.8-2.18,1.13-1.48,1.97-3.18,2.44-4.98,1.09-4.16-.88-8.26-2.08-12.21-.09-.31-.58-.18-.48.13h0Z"/><path class="cls-1" d="m509.14,39.05c.93-1.3,1.16-2.88,1.49-4.41.37-1.7,1.07-3.23,2.26-4.52.22-.24-.13-.59-.35-.35-1.13,1.23-1.9,2.69-2.29,4.31s-.54,3.33-1.54,4.71c-.19.26.25.51.43.25h0Z"/><path class="cls-1" d="m492.86,54.25c-.34-4.35,1.33-8.71,4.49-11.71.86-.81,1.81-1.56,2.95-1.93.99-.32,2.05-.38,3.08-.41,1.89-.07,3.85-.04,5.51-1.06.27-.17.02-.6-.25-.43-2.02,1.24-4.49.84-6.75,1.09-2.14.23-3.76,1.23-5.26,2.75-3.03,3.08-4.62,7.41-4.28,11.71.03.32.53.32.5,0h0Z"/></g><g><g><path class="cls-1" d="m612.63,90.18c-4.43-.09-8.7-.88-12.92-1.7s-8.4-1.77-12.53-2.83c-.34-.09-.08-.55.25-.47,4.21,1.08,8.47,2.05,12.78,2.88s8.25,1.54,12.54,1.62c.36,0,.24.5-.12.5h0Z"/><path class="cls-1" d="m586.99,85.68c-2.57-1.27-4.53-3.2-6.51-5.08-2.32-2.21-4.58-4.47-6.86-6.72-2.25-2.22-4.08-4.75-6.56-6.77-2.41-1.96-4.47-4.25-6.63-6.43-.23-.23.24-.55.47-.32,2.18,2.2,4.27,4.5,6.71,6.48,2.23,1.81,3.82,4.08,5.83,6.07s4.2,4.17,6.33,6.23c2.26,2.19,4.5,4.59,7.47,6.06.3.15.05.62-.25.47h0Z"/><path class="cls-1" d="m560.35,60.61c-5.17-5.27-10.52-10.39-15.62-15.72-2.43-2.53-4.95-5.05-6.91-7.91-.45-.65-1.35-1.67-.91-2.56.4-.8,1.33-.79,2.04-.55,1.32.45,2.32,1.61,3.22,2.5,1.28,1.26,2.55,2.53,3.81,3.79,2.65,2.65,5.27,5.32,7.87,8.01s4.96,5.16,7.4,7.76c1.22,1.3,2.44,2.61,3.66,3.92,1.15,1.24,2.31,2.51,3.87,3.36,1.41.76,6.78,1.84,5.48-1.3-.63-1.52-1.9-2.94-2.98-4.19-2.5-2.89-5.58-5.3-9.09-7.21-.29-.16.08-.57.37-.41,2.89,1.57,5.5,3.49,7.73,5.73,1.11,1.11,2.12,2.3,3.03,3.56.66.91,1.63,2.03,1.72,3.2.18,2.27-3.19,2.19-4.75,1.78-3.13-.82-5.06-3.36-7.01-5.45-5.03-5.41-10.15-10.75-15.36-16.01-1.26-1.27-2.52-2.54-3.79-3.81-1.4-1.39-2.73-2.99-4.39-4.15-.72-.5-.81-.78-1.68-.18s-.64.57-.16,1.33,1.03,1.49,1.59,2.2c1.09,1.37,2.29,2.66,3.5,3.95,5.77,6.15,11.91,12.01,17.82,18.04.22.23-.24.55-.47.32h0Z"/><path class="cls-1" d="m562.17,50.63c-1.67-.89-2.35,1.25-2.03,2.15.16.44.46.8.79,1.14.77.8,1.7,1.48,2.54,2.22,1.58,1.39,3.14,2.8,4.61,4.28,2.94,2.98,5.08,6.53,8.07,9.46.23.22-.24.54-.47.32-2.08-2.04-3.71-4.38-5.52-6.61-1.94-2.39-4.21-4.52-6.55-6.6-1.44-1.28-4.33-2.86-4.15-5.04.12-1.39,1.74-2.45,3.08-1.74.29.16-.08.56-.37.41h0Z"/><path class="cls-1" d="m576.03,69.79c1.17.99,2,2.2,2.84,3.43.91,1.34,1.96,2.44,3.13,3.59s1.66,2.67,2.85,3.81c.72.69,1.67.78,2.7.98.94.19,1.88.37,2.82.56.34.07.23.56-.12.5-1-.2-2-.39-3-.59-.67-.13-1.49-.19-2.09-.49-1.45-.73-2.05-2.3-2.84-3.52-.44-.68-1.1-1.2-1.7-1.77s-1.14-1.23-1.63-1.91c-1.04-1.45-1.92-2.99-3.33-4.18-.24-.21.12-.62.37-.41h0Z"/><path class="cls-1" d="m590.15,82.1c3.69,1.06,7.43,2.01,11.18,2.92,1.84.45,3.67.98,5.56,1.28.41.06.89.19,1.31.15,1.57-.15,1.36-.95.8-1.63s-1.19-1.26-1.79-1.87c-2.4-2.42-4.88-4.77-7.33-7.15-1.22-1.19-2.44-2.37-3.7-3.53-1.2-1.1-2.42-2.15-3.31-3.48-.17-.26.29-.58.47-.32,1.04,1.56,2.55,2.76,3.94,4.06,1.49,1.39,2.93,2.81,4.39,4.23,1.43,1.39,2.87,2.79,4.3,4.18.73.71,1.46,1.42,2.17,2.15.63.64,1.44,1.3,1.82,2.1,1.45,3.05-5.72,1.07-6.77.81-4.46-1.07-8.91-2.17-13.29-3.43-.33-.1-.08-.56.25-.47h0Z"/><path class="cls-1" d="m593.02,68.67c-5.73-4.36-10.49-9.69-15.47-14.7-2.62-2.63-5.23-5.27-7.85-7.89-2.41-2.42-4.89-4.79-8.04-6.47-.29-.16.08-.56.37-.41,2.93,1.56,5.28,3.71,7.53,5.95,2.61,2.59,5.18,5.21,7.77,7.81,5.17,5.21,10.11,10.77,16.06,15.3.26.2-.11.61-.37.41h0Z"/><path class="cls-1" d="m593.51,69.6s-.04-.09-.06-.13c0-.02,0-.01,0,0,0,0-.01-.02-.02-.03-.01-.02-.02-.04-.04-.06-.05-.08-.1-.16-.15-.24-.1-.16-.2-.32-.29-.48-.04-.06-.06-.11-.04-.18.01-.06.06-.13.12-.17.12-.07.32-.09.39.03.1.17.2.33.31.5.11.17.24.35.31.54.04.12-.03.28-.18.33s-.31,0-.35-.12h0Z"/><path class="cls-1" d="m592.83,68.68c-.1-.16-.23-.31-.37-.44-.04-.04-.05-.13-.04-.18.01-.06.06-.13.12-.17.06-.04.14-.07.21-.06h.07s.08.05.11.09c.14.13.27.28.37.44.04.06.06.11.04.18-.01.06-.06.13-.12.17-.06.04-.14.07-.21.06-.07,0-.14-.04-.18-.09h0Z"/><path class="cls-1" d="m561.74,39.58c-3.3-1.04-6.61-2.08-9.91-3.12-1.5-.47-3-.95-4.54-1.35-.83-.22-1.68-.41-2.54-.56-.31-.06-.72-.19-1.05-.16-1.36.12-.23,1.07.18,1.3.29.16-.08.57-.37.41-.54-.3-1.11-.69-1.01-1.35.07-.5.5-.83,1.06-.86.91-.05,1.91.27,2.76.47,1,.23,1.99.49,2.97.78,4.27,1.25,8.48,2.65,12.71,3.99.33.1.08.57-.25.47h0Z"/><path class="cls-1" d="m543.78,35.63c4.13,2.02,8.56,3.6,13.21,4.66,2.37.54,4.92,1.13,7.47.92,2.84-.23,5.69-1.71,8.1-3.18.31-.19.62.19.31.38-2.21,1.34-4.74,2.69-7.32,3.15-2.56.46-5.09-.03-7.48-.52-5.14-1.06-10.03-2.73-14.55-4.95-.3-.15-.05-.61.25-.47h0Z"/><path class="cls-1" d="m561.5,39.48c-.11-.29.42-.5.53-.21s-.42.5-.53.21h0Z"/><path class="cls-1" d="m561.66,39.52c-.11-.29.42-.5.53-.21s-.42.5-.53.21h0Z"/><path class="cls-1" d="m562,39.14c.13.05.25.12.35.21.03.02.05.04.06.07.02.03.03.06.03.09,0,.03,0,.06-.02.1,0,.03-.03.06-.05.09-.05.05-.12.09-.2.1h-.07s-.09-.02-.13-.04c-.07-.06-.14-.11-.22-.15l.06.03s-.04-.02-.07-.03c-.03-.01-.06-.03-.08-.05-.03-.02-.05-.05-.06-.08-.01-.03-.02-.06-.01-.1,0-.03,0-.06.03-.09.04-.06.09-.11.16-.14l.07-.02s.1,0,.14.01h0Z"/><path class="cls-1" d="m572.57,38.12c4.2-3.08,8.4-6.17,12.61-9.25,4.15-3.05,8.24-6.22,12.59-9.03.31-.2.62.18.31.38-4.35,2.81-8.44,5.98-12.59,9.03-4.2,3.08-8.4,6.17-12.61,9.25-.29.22-.6-.17-.31-.38h0Z"/><path class="cls-1" d="m597.75,19.82c1.25-.78,2.5-1.57,3.77-2.32,1.04-.62,2.16-1.21,3.37-1.39,2.58-.4,4.25,1.37,6.03,2.5.28.18-.09.58-.37.41-1.72-1.09-3.34-2.87-5.84-2.38-1.21.24-2.31.89-3.34,1.53-1.11.68-2.21,1.36-3.31,2.05-.31.19-.62-.19-.31-.38h0Z"/><path class="cls-1" d="m610.95,18.6c6.56,5.55,13.16,11.07,19.61,16.73.24.21-.13.62-.37.41-6.45-5.65-13.05-11.17-19.61-16.73-.24-.21.12-.62.37-.41h0Z"/><path class="cls-1" d="m630.57,35.31c4.69,4.32,9.43,8.6,14.2,12.85.24.21-.13.62-.37.41-4.8-4.28-9.57-8.59-14.29-12.94-.24-.22.23-.54.47-.32h0Z"/><path class="cls-1" d="m644.74,48.19c1.64,1.36,3.28,2.73,4.74,4.25.75.78,1.46,1.61,2.07,2.49.47.67.96,1.42.91,2.28-.04.7-.5,1.33-1.02,1.87-.82.86-1.75,1.66-2.65,2.46-1.84,1.61-3.75,3.16-5.66,4.7-.28.23-.59-.16-.31-.38,1.67-1.34,3.34-2.69,4.95-4.08.85-.74,1.69-1.49,2.51-2.26.74-.7,1.67-1.49,1.62-2.48-.05-.94-.78-1.77-1.34-2.49s-1.13-1.36-1.76-2c-1.38-1.41-2.91-2.68-4.44-3.95-.25-.21.12-.61.37-.41h0Z"/><path class="cls-1" d="m643.23,66.2c-5.65,4.34-11.23,8.76-17.03,12.94-.3.21-.61-.17-.31-.38,5.79-4.18,11.38-8.6,17.03-12.94.29-.22.6.16.31.38h0Z"/><path class="cls-1" d="m626.12,79.16c-3.19,2.2-6.93,4.53-10.92,4.7-1.65.07-3.21-.26-4.5-1.05-1.54-.94-2.76-2.29-4.05-3.47-.24-.22.23-.54.47-.32,1.17,1.07,2.27,2.24,3.61,3.16,1.4.96,3.14,1.33,5.01,1.16,3.69-.34,7.11-2.51,10.07-4.55.3-.21.61.17.31.38h0Z"/><path class="cls-1" d="m606.79,79.33c-4.01-3.59-7.77-7.4-11.61-11.13-1.95-1.9-3.79-3.95-5.87-5.73-1.96-1.67-3.76-3.29-5.43-5.21-.21-.24.26-.56.47-.32,1.73,2,3.7,3.65,5.69,5.43,1.84,1.64,3.51,3.46,5.27,5.17,3.92,3.82,7.76,7.71,11.86,11.38.24.21-.13.62-.37.41h0Z"/><path class="cls-1" d="m584.05,57.21c-2.33-1.91-4.66-3.82-6.75-5.93-1.98-2-4.09-4.26-5.41-6.69-.42-.76-.74-1.71-.26-2.6.57-1.06,2.06-1.82,3.09-2.46,2.91-1.83,6.01-3.39,8.59-5.62.27-.24.58.15.31.38-2.13,1.84-4.61,3.24-7.05,4.69-1.19.71-2.5,1.42-3.56,2.3-1.8,1.49-.77,2.96.23,4.29,3.18,4.25,7,7.79,11.19,11.23.25.2-.12.61-.37.41h0Z"/><path class="cls-1" d="m583.39,33.94c4.37-3.14,8.71-6.32,13.1-9.42,2.53-1.79,7.64-5.83,10.25-2.73.2.24-.26.56-.47.32-1.58-1.88-4.52-.48-6.4.71s-3.68,2.51-5.48,3.81c-3.56,2.57-7.13,5.13-10.69,7.7-.3.21-.61-.17-.31-.38h0Z"/><path class="cls-1" d="m606.61,21.8c2.54,1.69,4.73,3.74,6.96,5.72,2.4,2.13,4.81,4.27,7.21,6.4.24.21-.13.62-.37.41-2.4-2.13-4.81-4.27-7.21-6.4-2.24-1.98-4.43-4.03-6.96-5.72-.27-.18.1-.59.37-.41h0Z"/><path class="cls-1" d="m620.57,33.66c5.45,4.8,10.93,9.57,16.34,14.4,2.37,2.12,5.12,4.2,6.87,6.79.58.86,1.19,1.88,1.03,2.98-.17,1.16-1.42,2.11-2.27,2.97-.25.26-.67-.03-.42-.29,1.25-1.28,2.57-2.35,1.92-4.04-.51-1.31-1.53-2.43-2.54-3.44-2.25-2.26-4.73-4.37-7.14-6.49-4.72-4.17-9.45-8.32-14.17-12.48-.24-.21.13-.62.37-.41h0Z"/><path class="cls-1" d="m642.5,60.92c-5.77,4.96-12.02,9.42-18.29,13.84-.3.21-.61-.17-.31-.38,6.27-4.42,12.53-8.88,18.29-13.84.27-.23.58.15.31.38h0Z"/><path class="cls-1" d="m642.12,60.56c.05-.03.1-.07.14-.11l-.05.05c.07-.06.12-.12.17-.19l-.04.06s.02-.03.03-.05c.02-.03.04-.06.07-.08.03-.03.06-.05.1-.06.07-.03.15-.03.21,0s.12.07.14.13.02.13-.02.19c-.11.17-.26.33-.44.45-.06.04-.14.06-.21.06-.07,0-.14-.04-.18-.09-.04-.05-.06-.12-.04-.18.02-.06.06-.13.12-.17h0Z"/><path class="cls-1" d="m642.45,60.87s-.05.04-.07.06l.05-.05c-.14.12-.26.26-.37.4-.04.05-.13.09-.2.1s-.15,0-.2-.04c-.05-.04-.09-.1-.09-.16v-.06s.04-.08.07-.12c.14-.19.3-.35.49-.51.05-.04.15-.06.21-.06s.14.04.18.09c.04.05.06.12.04.18l-.02.06s-.05.08-.09.1h0Z"/><path class="cls-1" d="m624.15,74.76c-2.74,1.5-4.99,3.64-7.72,5.14-.61.34-1.66.83-2.07.12-.19-.34-.03-.83.05-1.2.13-.61.32-1.22.54-1.82,1.04-2.72,2.73-5.35,4.15-7.95,1.53-2.81,3.08-5.61,4.64-8.41.17-.3.67-.13.5.17-2.6,4.64-5.18,9.29-7.66,13.96-.58,1.08-1.11,2.18-1.43,3.33-.09.3-.16.6-.22.9-.03.13-.05.26-.07.39.07.46.28.6.61.43.54-.04,1.52-.8,1.97-1.1,2.17-1.41,4.11-3.09,6.4-4.34.32-.17.63.21.31.38h0Z"/><path class="cls-1" d="m623.65,60.62c1.37-2.6,2.77-5.2,3.88-7.87.53-1.28,1.07-2.63,1.3-3.96.06-.35.13-.81,0-1.14-.28-.68-.91-.24-1.3.14-.55.54-1.06,1.12-1.59,1.67-.25.26-.67-.03-.42-.29.62-.66,1.22-1.43,1.95-2,.41-.32,1.01-.56,1.47-.3,1.19.68.22,2.96-.11,3.95-1.15,3.42-2.94,6.7-4.67,9.96-.16.3-.66.13-.5-.17h0Z"/><path class="cls-1" d="m625.96,49.44c-.84.74-1.46,1.7-2.09,2.57-.75,1.03-1.47,2.07-2.2,3.11-1.42,2.02-2.84,4.04-4.26,6.06-.2.28-.7.11-.5-.17,1.46-2.08,2.93-4.17,4.39-6.25.67-.96,1.34-1.91,2.02-2.86s1.33-1.96,2.22-2.75c.27-.24.69.05.42.29h0Z"/><path class="cls-1" d="m617.35,61.27c-1.07,1.37-2.22,2.68-3.37,3.99-.97,1.1-2.02,2.35-3.53,2.86-.58.2-1.12.16-1.43-.31-.33-.51-.19-1.29-.17-1.89.06-1.48.22-2.97.48-4.46.06-.32.61-.27.55.05-.22,1.29-.38,2.57-.45,3.86-.03.58-.11,1.2-.04,1.78.06.47.32.69.87.51.35-.11.68-.28.98-.48,1.17-.76,2.03-1.89,2.91-2.89.95-1.09,1.89-2.18,2.78-3.31.22-.28.64.01.42.29h0Z"/><path class="cls-1" d="m609.33,61.45c.44-2.42,1.47-4.76,2.33-7.12.9-2.47,1.64-4.98,2.24-7.49.07-.32.62-.27.55.05-.59,2.52-1.33,5.02-2.24,7.49-.86,2.36-1.89,4.7-2.33,7.12-.06.32-.61.27-.55-.05h0Z"/><path class="cls-1" d="m613.88,46.85c.18-1.34.32-2.69.42-4.03.05-.68.09-1.36.12-2.04.02-.6.07-1.36-.43-1.77-.58-.48-1.5.26-1.91.72-.48.52-.85,1.11-1.24,1.68-.79,1.18-1.53,2.38-2.22,3.59-.17.3-.67.13-.5-.17.84-1.48,1.75-2.94,2.74-4.35.4-.58.82-1.17,1.42-1.61.5-.36,1.24-.67,1.81-.43,1.32.54.88,2.59.81,3.68-.1,1.59-.27,3.19-.48,4.79-.04.32-.59.27-.55-.05h0Z"/><path class="cls-1" d="m608.6,45.04c-1.03,2.15-2.11,4.28-3.23,6.4-1.06,2-2.12,4.03-3.58,5.87-.22.28-.64-.01-.42-.29,1.47-1.85,2.52-3.91,3.59-5.92s2.14-4.14,3.14-6.23c.15-.31.65-.13.5.17h0Z"/><path class="cls-1" d="m601.78,57.25c-.39.56-1.3,1.44-2.06,1.06-.87-.44-.85-1.67-.81-2.49.11-2.25.45-4.51.91-6.76.07-.32.62-.27.55.05-.35,1.68-.62,3.37-.79,5.06-.08.83-.2,1.7-.11,2.51.04.35.15,1.08.6,1.2s1.01-.53,1.21-.82.7-.11.5.17h0Z"/><path class="cls-1" d="m599.83,49c.74-2.18,1.72-4.27,2.72-6.39,1-2.11,1.4-4.33,1.72-6.52.05-.32.6-.27.55.05-.31,2.11-.7,4.24-1.6,6.28-.47,1.07-1.04,2.11-1.5,3.17-.5,1.14-.95,2.3-1.34,3.47-.11.31-.66.27-.55-.05h0Z"/><path class="cls-1" d="m604.26,36.21c-.05-.93-.11-2.05-1.03-2.57-.84-.47-2.3.09-3.09.64-.88.62-1.55,1.6-2.22,2.4-.75.89-1.48,1.8-2.19,2.71-.22.28-.64-.01-.42-.29.86-1.1,1.74-2.19,2.66-3.26.82-.96,1.56-1.93,2.82-2.44.99-.4,2.06-.69,2.92-.11.96.64,1.07,1.8,1.12,2.83.02.32-.54.4-.56.08h0Z"/><path class="cls-1" d="m595.69,39.44c-1.24,1.71-2.26,3.51-3.32,5.29-.46.77-.91,1.55-1.5,2.25-.38.44-.92,1.1-1.52.67s-.45-1.3-.42-1.93c.05-.92.1-1.85.18-2.77.15-1.82.65-3.78.12-5.51-.09-.3.44-.51.53-.21.43,1.41.2,2.91.03,4.39-.1.85-.16,1.7-.21,2.55-.05.77-.15,1.57-.12,2.34,0,.18,0,.57.2.67.24.12.54-.21.67-.35.32-.36.6-.75.85-1.14.46-.71.87-1.43,1.3-2.15.88-1.49,1.77-2.97,2.8-4.39.2-.28.62,0,.42.29h0Z"/><path class="cls-1" d="m589.22,37.43c-.31-.9-1.22-1.84-2.46-1.3-.94.41-1.73,1.43-2.35,2.17-1.12,1.35-2.04,2.82-3.17,4.16-.91,1.09-2.14,2.55-3.76,2.59-1.94.04-2.1-2.63-4.01-2.33-.36.06-.39-.44-.03-.49,2.31-.36,2.46,2.99,4.77,2.2,1.04-.36,1.87-1.38,2.53-2.15s1.21-1.54,1.78-2.33c1.01-1.39,2.17-3.22,3.8-4.13s3,.14,3.43,1.4c.1.3-.43.5-.53.21h0Z"/><path class="cls-1" d="m573.43,42.73c-1.12.21-2.11.97-3.26.98-1.1,0-1.48-.73-2.03-1.39-.16-.19-.39-.26-.58-.41-.15-.12-.25-.29-.35-.45-.32-.48-.64-.96-.98-1.43-.68-.94-1.42-1.83-2.27-2.64-.23-.22.24-.54.47-.32.78.73,1.46,1.54,2.09,2.38.3.4.58.81.86,1.22.14.21.28.43.42.64.13.19.33.27.53.4.31.21.47.56.69.84.32.41.72.7,1.34.65,1.06-.07,2-.77,3.05-.97.36-.07.39.43.03.49h0Z"/><path class="cls-1" d="m563.94,37.35c-.99-.98-2.04-1.5-3.59-1.61-1.16-.08-2.34-.02-3.49-.15-2.05-.23-4.74-.73-5.75-2.41-1.05-1.74-.43-4.17.2-6.09.75-2.29,1.89-4.53,2.02-6.89.02-.32.58-.4.56-.08-.11,2.02-.91,3.94-1.64,5.89-.83,2.25-2.09,5.7-.17,7.47,1.65,1.53,4.82,1.68,7.19,1.73,2.21.04,3.7.41,5.13,1.82.23.23-.24.54-.47.32h0Z"/><path class="cls-1" d="m553.37,20.24c-.27-1.23-.81-2.4-2.42-2.42-1.11-.01-2.29.35-3.34.03-1.18-.35-1.78-1.54-1.72-2.64.06-1.15.84-2.24,1.99-2.87.32-.18.63.2.31.38-1.31.73-2.03,2.07-1.63,3.31.2.61.66,1.19,1.36,1.37.51.13,1.09.08,1.63.03.98-.09,2.03-.24,2.87.2.98.51,1.3,1.57,1.5,2.53.07.31-.49.38-.56.08h0Z"/><path class="cls-1" d="m553.92,20.18c0,.21-.02.42-.08.62-.02.06-.06.12-.12.17-.06.04-.15.07-.21.06s-.14-.04-.18-.09-.06-.12-.04-.18c.04-.12.06-.25.07-.37v.06c0-.06,0-.13,0-.19s.02-.13.07-.18.13-.1.2-.1.15,0,.2.04.09.1.09.16h0Z"/></g><path class="cls-1" d="m612.73,89.68c1.67.11,3.57.32,5.09.86,1.37.49,1.92,1.74,2.43,2.89.64,1.45,1,2.86.93,4.49-.06,1.34.03,2.81-.78,4.08-.19.29-.69.12-.5-.17.76-1.19.67-2.56.72-3.82.07-1.49-.23-2.79-.8-4.13-.53-1.22-1.05-2.55-2.58-2.96s-3.07-.63-4.62-.73c-.36-.02-.24-.52.12-.5h0Z"/></g><g><path class="cls-1" d="m727.24,75.72c-2.09-1.82-4.4-1.05-6.24.44-.82.66-1.63,1.17-2.64,1.02-1.09-.15-2.3-1-3.3-.25l.14-.49c.83,2.46-1.31,3.88-2.5,4.91-1.7,1.48-3.41,2.95-5.16,4.34s-3.45,2.63-5.26,3.76-3.66,2.23-5.62,2.77c-1.84.51-3.95.14-5.35-1.92-.26-.38.18-.82.43-.44,1.23,1.81,3.11,2.06,4.71,1.64,1.78-.47,3.49-1.48,5.11-2.47,3.2-1.94,6.2-4.37,9.13-6.89.83-.71,1.65-1.43,2.47-2.15s2.03-1.71,1.5-3.28c-.07-.21,0-.39.14-.49.97-.73,2.1-.14,3.16.12.7.17,1.32.12,1.94-.27.55-.34,1.04-.82,1.57-1.21,1.83-1.31,4.2-1.4,6.1.26.32.28-.01.86-.33.59h0Z"/><path class="cls-1" d="m691.34,90.24c-3.41-3.61-6.09-8.39-8.71-12.96-2.85-4.98-5.61-10.04-8.35-15.12-1.58-2.93-3.14-5.88-4.69-8.84-.22-.41.22-.86.43-.44,2.68,5.11,5.39,10.19,8.16,15.23s5.45,9.93,8.39,14.66c1.55,2.48,3.18,4.88,5.08,6.9.3.31-.03.9-.33.59h0Z"/><path class="cls-1" d="m669.64,53.28c-1.4-2.48-2.79-4.96-4.19-7.44s-2.66-4.7-3.84-7.19c-2.47-5.25-4.94-10.5-7.4-15.75-.2-.42.23-.87.43-.44,2.47,5.25,4.93,10.5,7.4,15.75,1.18,2.49,2.51,4.83,3.84,7.19,1.4,2.48,2.79,4.96,4.19,7.44.23.4-.21.85-.43.44h0Z"/><path class="cls-1" d="m654.2,22.77c-.51-1.11-.95-2.26-1.3-3.46-.29-.98-.61-2.07-.33-3.05.59-2.05,2.62-2.14,4.04-2.42,4.03-.82,8.07-1.63,12.1-2.45,1.83-.37,3.75-1.04,5.64-.87,1.73.16,2.89,1.56,3.9,3.4.45.82.99,1.76,1.02,2.78.03.92-.4,1.55-.96,1.95-1.6,1.14-3.56,1.61-5.36,2.08-2.2.57-4.41,1.1-6.62,1.65-2.31.57-4.62,1.17-7.02,1.11-.36,0-.46-.76-.1-.75,3.62.1,7.18-1.15,10.67-2.02,1.73-.43,3.48-.81,5.17-1.39.82-.28,1.62-.61,2.4-1.02.87-.46,1.55-1.06,1.07-2.5-.32-.93-.89-1.85-1.4-2.62-.62-.94-1.36-1.62-2.28-1.83-1.63-.39-3.36.25-4.94.56-3.48.7-6.97,1.41-10.45,2.11-.99.2-1.98.4-2.97.6-.89.18-1.9.24-2.67.86-.38.31-.71.79-.79,1.39-.09.7.18,1.49.37,2.16.35,1.2.79,2.35,1.3,3.46.2.43-.32.7-.52.27h0Z"/><path class="cls-1" d="m659.25,23.41c-1.05.61-2.31.47-3.32-.49s-1.39-2.41-1.62-3.94c-.22-1.44-.06-2.77,1.01-3.34.53-.28,1.14-.35,1.7-.46.8-.15,1.61-.28,2.42-.39,3.06-.43,6.17-.84,9.26-.99.68-.03,1.36-.04,2.04.03.44.05.95.17,1.26.66.81,1.27-.36,2.35-1.11,2.68-3.13,1.38-6.52,1.9-9.9,1.68-.37-.02-.31-.77.05-.75,2.37.15,4.72-.08,7-.72.6-.17,1.2-.37,1.79-.59.5-.19,1.14-.34,1.55-.77.32-.34.41-.98-.05-1.29-.19-.13-.45-.14-.65-.16-.67-.07-1.34-.05-2-.01-2.36.12-4.71.44-7.05.72-1.18.14-2.36.29-3.53.48-.55.09-1.1.19-1.64.3s-1.19.25-1.51.89-.17,1.45-.05,2.16c.13.82.28,1.64.68,2.34.83,1.47,2.25,1.92,3.42,1.24.33-.19.57.52.24.71h0Z"/><path class="cls-1" d="m671.18,16.96c-.34.03-.7.17-1.03-.08s-.47-.75-.48-1.23c0-.76.38-1.5.93-1.7.14-.05.32.01.38.22.05.18.01.43-.14.49-.05.02-.11.04-.16.08-.01,0-.07.05-.02.01-.02.02-.04.03-.06.05-.05.04-.09.09-.13.14.03-.04,0,0-.02.02-.02.02-.03.05-.04.07s-.03.05-.04.08c0,0-.05.1-.03.07s-.02.06-.03.07c0,.03-.02.06-.03.09s-.02.06-.02.09c0,.02,0,.04-.01.06,0-.04,0-.04,0-.02,0,.07-.02.14-.02.21,0,.03,0,.06,0,.1,0-.09,0,0,0,.03,0,.04,0,.08.01.12,0,.02.03.13.01.07.01.04.02.07.03.11.03.08-.01-.03.02.04.02.03.02.04,0,.01,0,.01.02.02.03.04.01.01.02.02.03.03-.03-.02-.02-.02,0,0,.01,0,.08.04.03.02.03,0,.05.02.08.02s.05,0,.08.01c-.06,0,.06,0,.07,0,.14-.01.28-.05.43-.07s.31.13.33.34-.07.4-.23.41h0Z"/><path class="cls-1" d="m666.27,17.81c.22-.1.42-.26.56-.5.04-.06.17-.26.15-.36s-.19-.14-.25-.17c-.52-.17-1.12-.1-1.63-.03-.55.07-1.08.22-1.6.43-.27.11-.53.24-.79.39-.08.05-.53.29-.34.46.32.27-.01.86-.33.59-.28-.24-.35-.73-.22-1.09.16-.45.59-.63.91-.8.78-.41,1.62-.67,2.47-.75.42-.04.85-.04,1.28,0,.31.03.68.12.91.46.57.85-.33,1.83-.86,2.07-.34.16-.58-.55-.24-.71h0Z"/><path class="cls-1" d="m661.14,18.83c-1,.22-1.99.42-2.99.65-.45.11-.96.25-1.25.75-.3.55-.06,1.24.19,1.79,1.07,2.38,2.34,4.65,3.6,6.87.23.4-.21.85-.43.44-.75-1.33-1.48-2.68-2.19-4.05-.35-.69-.7-1.38-1.04-2.07-.28-.58-.61-1.17-.76-1.83-.3-1.34.42-2.23,1.31-2.53,1.12-.38,2.32-.53,3.47-.79.36-.08.45.68.1.75h0Z"/><path class="cls-1" d="m660.69,29c3.23,6.01,6.6,11.89,9.73,17.98.21.41-.22.86-.43.44-3.13-6.09-6.51-11.97-9.73-17.98-.22-.41.21-.86.43-.44h0Z"/><path class="cls-1" d="m670.5,47.2c2.2,4.72,4.75,9.13,7.25,13.58,2.56,4.55,5.04,9.18,7.4,13.9.21.42-.22.86-.43.44-2.36-4.72-4.84-9.35-7.4-13.9s-5.05-8.86-7.25-13.58c-.2-.42.24-.87.43-.44h0Z"/><path class="cls-1" d="m685.2,74.87c2.15,4.04,4.47,8.1,7.07,11.68.72.99,1.49,1.57,2.5,1.51.92-.05,1.8-.44,2.63-.87,1.67-.86,3.3-1.89,4.93-2.86,3.28-1.95,6.54-3.98,9.67-6.3.64-.48,1.67-1.07,1.48-2.31-.17-1.12-.98-2.26-1.52-3.15s-1.15-1.79-1.79-2.62c-.37-.48-.73-1.02-1.27-1.04s-1.09.25-1.59.43c-3.46,1.29-6.64,3.68-9.84,5.72-1.61,1.02-3.23,2.01-4.79,3.15-.4.29-.8.6-1.19.92-.34.28-.89.61-1.09,1.1-.24.61.25,1.34.5,1.87.24.49.49.98.77,1.45.54.92,1.19,1.74,1.99,2.23.93.57,1.78.43,2.66-.03,1.54-.8,2.99-1.88,4.31-3.16.63-.61,1.24-1.28,1.81-1.99s1.25-1.49,1.57-2.47c.43-1.32-.06-2.56-1.13-2.93-.71-.25-1.7-.34-2.16.49-.39.72-.32,2.3,0,3.13.22.56.75.74,1.16.96.44.23.89.45,1.36.58,1.04.28,1.97-.09,2.9-.55.8-.4,1.6-.82,2.37-1.29s1.57-1.01,2.25-1.71c.39-.4.69-.89.69-1.59,0-.64-.16-1.33-.33-1.94-.62-2.29-1.81-4.33-2.95-6.23-.56-.93-1.14-1.84-1.75-2.72-.26-.38.18-.82.43-.44,1.47,2.16,2.91,4.47,4.01,6.99.51,1.18.96,2.49,1.12,3.82.13,1.14-.16,1.99-.79,2.67-.75.81-1.65,1.4-2.53,1.93-1,.6-2.03,1.19-3.08,1.61-.94.38-1.88.44-2.87.06-.71-.28-1.85-.64-2.35-1.48-.44-.76-.5-2.16-.43-3.04.07-.95.49-1.72,1.17-2,1.32-.55,3.45.24,3.63,2.44.09,1.13-.33,2.11-.85,2.9-.6.92-1.29,1.75-2,2.52-1.47,1.61-3.12,2.93-4.88,3.93-.86.48-1.74.91-2.72.62-.84-.24-1.62-.87-2.25-1.67-.74-.93-1.31-2.06-1.85-3.2-.44-.93-.67-1.78-.04-2.56.69-.85,1.64-1.44,2.46-2.04.94-.68,1.9-1.3,2.87-1.91,2.03-1.3,4.07-2.6,6.1-3.89s3.95-2.46,6.09-3.15c.88-.28,1.62-.48,2.4.42s1.51,1.99,2.18,3.07c.97,1.56,2.65,4.05,1.24,5.77-.69.83-1.65,1.36-2.47,1.94-.96.68-1.93,1.34-2.91,1.99-1.96,1.28-3.95,2.49-5.94,3.67s-3.99,2.63-6.14,3.3c-.86.27-1.81.42-2.69-.06-.84-.45-1.47-1.41-2.07-2.3-1.57-2.32-3.06-4.73-4.49-7.2-.7-1.22-1.38-2.45-2.05-3.7-.22-.41.22-.86.43-.44h0Z"/><path class="cls-1" d="m706.46,64.47c-2.73-4.66-5.39-9.37-7.99-14.16-2.6-4.78-5.23-9.53-8.1-14.06-.25-.39.19-.83.43-.44,2.87,4.52,5.5,9.27,8.1,14.06,2.6,4.78,5.26,9.5,7.99,14.16.23.4-.2.84-.43.44h0Z"/><path class="cls-1" d="m690.34,36.35c-1.66-2.99-3.32-5.98-4.98-8.98-.81-1.45-1.61-2.91-2.42-4.36-.75-1.35-1.46-3.06-2.49-4.08-.3-.3.02-.89.33-.59.96.96,1.62,2.45,2.32,3.72l2.56,4.61,5.11,9.22c.23.41-.21.85-.43.44h0Z"/></g><g><path class="cls-1" d="m709.54,36.73c-1.79-1.07-3.72-1.88-5.74-2.4l.22.55c.81-1.83,1.7-3.62,2.67-5.37.24-.42-.41-.8-.65-.38-.98,1.75-1.87,3.54-2.67,5.37-.09.21-.03.49.22.55,1.96.5,3.82,1.29,5.56,2.33.42.25.79-.4.38-.65h0Z"/><path class="cls-1" d="m709.78,25.01c1.33,3.5,2.5,7.06,3.51,10.66.06.21.26.29.46.26,1.57-.22,3.09-.92,4.04-2.23s1.17-2.93.55-4.37c-.57-1.33-1.86-2.35-3.36-2.18-1.65.19-2.48,1.63-2.95,3.07-.15.46.57.66.72.2.38-1.18,1.06-2.49,2.47-2.54,1.3-.04,2.27,1.05,2.59,2.22s-.06,2.53-.87,3.46c-.86.99-2.12,1.47-3.39,1.64l.46.26c-1.01-3.61-2.18-7.16-3.51-10.66-.17-.45-.89-.25-.72.2h0Z"/><path class="cls-1" d="m721.51,29.27c-.58-.88-.62-2.07-.09-2.99.64-1.1,2.08-1.31,3.22-.96,1.39.42,1.83,1.94,2.16,3.2.18.67.19,1.34-.19,1.95-.34.53-.91.91-1.51,1.09-1.45.43-2.97-.37-3.42-1.81-.14-.46-.87-.26-.72.2.48,1.54,1.97,2.61,3.6,2.47s3.12-1.34,3.12-3.02c0-.89-.34-1.8-.67-2.61-.31-.77-.74-1.47-1.48-1.89-1.32-.75-3.34-.67-4.39.5s-1.11,2.98-.28,4.25c.26.4.91.03.65-.38h0Z"/><path class="cls-1" d="m733.88,20.89c-1.66.31-3.32.82-4.05,2.49s-.31,3.52.68,4.92c.44.62,1.01,1.21,1.79,1.35.85.15,1.72-.24,2.4-.72s1.21-1.13,1.32-1.99c.12-.92-.21-1.84-.5-2.7-.79-2.34-1.58-4.68-2.38-7.03-.15-.45-.88-.26-.72.2.67,1.98,1.34,3.95,2,5.93.33.98.83,2.04.87,3.09.04,1.1-.7,1.8-1.63,2.24-1.18.56-2.02.02-2.67-.99-.51-.8-.82-1.74-.78-2.7s.46-1.95,1.29-2.52c.75-.52,1.69-.68,2.57-.85.47-.09.27-.81-.2-.72h0Z"/><path class="cls-1" d="m737.19,20.32c1.49,1.83,3.15,3.53,4.96,5.06.37.31.9-.22.53-.53-1.81-1.53-3.46-3.23-4.96-5.06-.13-.16-.4-.13-.53,0-.16.15-.13.37,0,.53h0Z"/><path class="cls-1" d="m743.38,17.87c-.16,2.34-.33,4.67-.49,7.01-.08,1.12-.15,2.25-.24,3.37s-.42,2.29-1.76,2.32c-.48,0-.48.76,0,.75.92-.02,1.76-.51,2.17-1.35.5-1.04.4-2.41.47-3.53.2-2.85.4-5.71.6-8.56.03-.48-.72-.48-.75,0h0Z"/><path class="cls-1" d="m742.16,25.28s.03.01.04.02l-.09-.04c.09.04.17.08.24.14l-.08-.06c.08.06.16.14.22.22l-.06-.08c.05.07.1.14.13.22s.14.15.22.17c.09.02.21.01.29-.04s.15-.13.17-.22v-.1c.01-.07,0-.13-.04-.19-.03-.07-.07-.14-.12-.2-.06-.09-.13-.17-.21-.24s-.16-.14-.25-.19-.19-.1-.29-.14c-.05-.02-.1-.02-.15,0-.05,0-.1.02-.14.04-.08.05-.15.13-.17.22-.02.1-.02.2.04.29l.06.08s.1.08.17.1h0Z"/><path class="cls-1" d="m746.52,15.55l4.05,2.09c.26.14.79.28.97.5.25.06.27.22.07.49-.08.16-.16.31-.24.47-.32.63-.64,1.25-.96,1.88-1.06,2.09-2.34,4.27-1.38,6.65.75,1.84,2.57,2.54,4.28,1.56.47-.27.93-.65,1.47-.78.79-.19,1.45.32,1.84.96.84,1.38.3,3.05-.16,4.46-.15.46.57.66.72.2.64-1.98,1.25-5.06-1.13-6.2-.85-.41-1.69-.14-2.47.31-.48.28-.94.66-1.49.78-.98.22-1.85-.49-2.27-1.31-.76-1.49-.34-3.15.36-4.56s1.38-2.69,2.06-4.04c.51-1.03.13-1.28-.83-1.77l-4.54-2.34c-.43-.22-.81.43-.38.65h0Z"/><path class="cls-1" d="m710.54,24.72c-.46-.99-1.42-1.65-2.49-1.82-1.21-.19-2.37.29-3.33.99-1.09.79-1.94,1.86-2.95,2.74-.56.49-1.33,1.15-2.12.84-.64-.25-1.04-.94-1.38-1.5-.25-.41-.9-.03-.65.38.56.9,1.3,1.98,2.48,1.95,1.25-.03,2.29-1.19,3.11-2.01.98-.98,1.99-2.11,3.36-2.53s2.74.07,3.33,1.34c.2.44.85.06.65-.38h0Z"/></g><g><path class="cls-1" d="m758.23,46.56c-1.44.99-2.9,1.99-4.5,2.71-1.8.82-3.62.96-5.55,1.24-3,.43-6.51,1.7-8.68,3.9-4.34,4.4-3.62,11.34-.75,16.31,1.46,2.52,3.53,4.89,6.24,6.06s5.85.8,8.7.06c6.75-1.74,13.2-5.23,19.04-8.97,2.67-1.71,5.19-3.84,6.46-6.82s1.03-6.48-1.19-9.06c-.11-.13-.31-.07-.39.05-.85,1.17.03,2.84.01,4.14-.02,2.07-.89,4.09-2.26,5.63-2.74,3.07-7.19,3.76-11.08,3.12-2.14-.36-4.07-1.25-5.35-3.07s-1.74-3.95-1.64-6.07c.21-4.12,2.71-7.69,6.14-9.85,2.26-1.43,4.73-2.07,7.27-.92,2.23,1.01,3.82,2.95,5.02,5.02.16.28.59.03.43-.25-2.08-3.57-5.88-7.01-10.32-5.57-3.9,1.26-7.33,4.75-8.52,8.65s-.38,8.86,3.19,11.24c3.36,2.24,8.76,2.02,12.27.28,2.1-1.04,3.77-2.79,4.67-4.96.4-.97.64-2,.67-3.05.04-1.19-.8-3.09-.08-4.08l-.39.05c2.28,2.64,2.3,6.22.74,9.24-1.37,2.65-3.78,4.52-6.26,6.08-5.12,3.21-10.62,6.22-16.39,8.07-2.99.96-6.36,1.87-9.47.98-2.84-.8-5.07-3.06-6.63-5.49-3.15-4.92-4.27-12.34.48-16.72,2.67-2.46,6.46-3.28,9.93-3.71,3.21-.4,5.8-2,8.43-3.79.26-.18.01-.61-.25-.43h0Z"/><path class="cls-1" d="m775.71,49.9c.27.77-2.29,1.16-2.68,1.15-.7-.02-1.3-.27-1.99-.1-.76.19-1.51.53-2.25.79-.59.21-1.3.38-1.77.83s-.52,1.1-.85,1.66c-.42.7-1.18,1.07-1.9,1.4-1.49.68-2.93,1.44-4.28,2.38-.57.4-1.73,1.15-1.1,1.98s1.78.04,2.43-.29c.8-.4,1.59-.81,2.39-1.21s1.7-1.03,2.56-1.3,1.49.24,2.3.22c.58-.02,1.12-.24,1.65-.47,1.57-.68,3.06-1.17,3.91-2.74.98-1.8,3.07-2.58,4.79-3.53.28-.16.03-.59-.25-.43-1.26.7-2.68,1.31-3.8,2.22s-1.33,2.35-2.63,3.01c-.69.35-1.41.66-2.12.97-.37.16-.75.33-1.14.41-.58.12-1.01-.1-1.54-.27-1.11-.34-2.15.54-3.12,1.03-.68.35-1.37.69-2.05,1.04-.34.17-.68.35-1.02.52-.21.11-1.12.72-1.32.63l-.19-.42c-.33-.35-.25-.6.24-.75.14-.1.28-.2.42-.3.28-.2.57-.38.86-.57.63-.4,1.28-.76,1.95-1.1,1.05-.53,2.34-.89,3.13-1.81.29-.34.43-.73.6-1.14.44-1.1,1.49-1.32,2.51-1.69.97-.35,1.8-.76,2.85-.59.62.1,1.21.11,1.83-.04.75-.18,2.48-.55,2.09-1.65-.11-.3-.59-.17-.48.13h0Z"/><path class="cls-1" d="m779.05,50.66c1.5-1.07,3.12-1.98,4.85-2.64.94-.36,1.95-.68,2.97-.6s1.89.54,2.8.92c2.51,1.03,6.38,2.18,8.35-.42.19-.26-.24-.51-.43-.25-1.3,1.72-3.64,1.43-5.48.96-1.63-.42-3.16-1.39-4.82-1.65-1.45-.22-2.88.29-4.19.84-1.52.64-2.95,1.46-4.3,2.42-.26.19-.01.62.25.43h0Z"/><path class="cls-1" d="m797.9,47.93c1.18-.79,1.41-2.28,1.42-3.6.01-.86-.05-1.75.16-2.6s.71-1.55,1.44-2.02c.27-.17.02-.61-.25-.43-1.37.88-1.81,2.32-1.84,3.88-.03,1.43.19,3.42-1.18,4.34-.27.18-.02.61.25.43h0Z"/><path class="cls-1" d="m758.18,46.72c-.98,1.27-1.96,2.53-2.95,3.8s-2.11,2.21-3.7,2.77c-1.45.51-2.98.65-4.51.51-.64-.06-1.29-.14-1.93-.08-.35.03-1.08.09-1.33.39-.54.66.53,1.43,1,1.66,1.24.6,2.59,1.13,3.96,1.34,1.13.18,2.33.11,3.38-.36,1.17-.52,1.96-1.53,2.73-2.52,2.2-2.85,4.21-5.85,6.56-8.58.21-.24-.14-.6-.35-.35-2.17,2.52-4.06,5.27-6.06,7.92-1.08,1.43-2.13,2.98-4,3.37s-3.64-.25-5.29-.96c-.33-.14-.68-.26-.98-.45-.41-.15-.47-.44-.2-.86.24-.07.48-.11.72-.12.74-.05,1.48.08,2.21.13,1.53.1,3.08-.12,4.51-.67s2.45-1.28,3.36-2.44c1.09-1.37,2.15-2.77,3.22-4.15.19-.25-.16-.61-.35-.35h0Z"/><path class="cls-1" d="m777.75,49.07c1.18,0,2.23-.51,3.29-.96,1.25-.54,2.53-.79,3.89-.62.32.04.32-.46,0-.5-1.29-.17-2.55.03-3.75.52-1.11.45-2.2,1.07-3.43,1.06-.32,0-.32.5,0,.5h0Z"/><path class="cls-1" d="m761.38,45.65c2.71-2.24,6.45-3.07,9.84-2.13,1.66.46,2.59,1.59,3.59,2.9.76,1.01,1.55,2.01,2.74,2.52.29.13.55-.3.25-.43-1.48-.64-2.3-2.06-3.28-3.27-1.06-1.32-2.27-2.05-3.94-2.38-3.38-.67-6.92.24-9.57,2.44-.25.21.11.56.35.35h0Z"/></g><g><g><path class="cls-1" d="m227.34,55.04c-2.2,3.84-4.94,7.21-7.68,10.53s-5.58,6.53-8.49,9.64c-.24.25-.52-.19-.29-.44,2.97-3.18,5.86-6.45,8.65-9.84s5.3-6.5,7.43-10.23c.18-.31.56.03.38.34h0Z"/><path class="cls-1" d="m211.1,75.39c-2.34,1.65-4.98,2.44-7.58,3.28-3.05.98-6.12,1.88-9.18,2.8-3.03.91-6.12,1.31-9.08,2.52-2.88,1.17-5.87,1.89-8.82,2.74-.31.09-.36-.48-.06-.56,2.97-.86,6-1.59,8.9-2.79,2.65-1.09,5.41-1.4,8.12-2.21s5.67-1.69,8.5-2.57c3-.94,6.19-1.74,8.9-3.65.27-.19.56.25.29.44h0Z"/><path class="cls-1" d="m176.33,86.76c-7.1,2.01-14.16,4.26-21.28,6.18-3.39.91-6.8,1.93-10.25,2.28-.79.08-2.11.39-2.69-.43-.51-.73-.06-1.54.5-2.05,1.03-.94,2.52-1.26,3.74-1.63,1.72-.52,3.44-1.02,5.16-1.53,3.6-1.05,7.2-2.07,10.8-3.07,3.45-.95,6.9-1.88,10.36-2.78,1.73-.45,3.46-.89,5.19-1.33,1.63-.42,3.31-.82,4.8-1.79,1.35-.87,4.86-5.07,1.49-5.43-1.63-.18-3.49.26-5.11.61-3.73.81-7.33,2.36-10.68,4.52-.28.18-.46-.34-.18-.52,2.77-1.79,5.69-3.16,8.74-4.04,1.51-.44,3.04-.76,4.57-.95,1.12-.14,2.56-.46,3.64.02,2.08.93.39,3.85-.72,5.02-2.22,2.36-5.37,2.83-8.14,3.54-7.16,1.83-14.3,3.76-21.42,5.81-1.72.49-3.44,1-5.16,1.5-1.89.56-3.94.96-5.74,1.87-.78.39-1.07.33-.96,1.39s.19.83,1.09.77,1.8-.19,2.69-.34c1.72-.3,3.43-.73,5.14-1.18,8.16-2.12,16.24-4.7,24.38-7,.31-.09.36.48.06.56h0Z"/><path class="cls-1" d="m168.44,80.38c-1.58,1.04-.03,2.66.92,2.81.46.07.92-.02,1.38-.15,1.07-.29,2.12-.78,3.17-1.17,1.97-.72,3.96-1.41,5.97-1.99,4.02-1.15,8.16-1.33,12.17-2.55.31-.09.36.47.06.56-2.79.85-5.63,1.16-8.45,1.68-3.03.56-5.99,1.53-8.93,2.59-1.82.65-4.59,2.43-6.41,1.23-1.17-.77-1.32-2.7-.05-3.54.28-.18.46.34.18.52h0Z"/><path class="cls-1" d="m191.9,77.39c1.43-.55,2.89-.7,4.37-.85,1.61-.16,3.08-.55,4.65-1.02s3.14-.18,4.71-.68c.95-.3,1.48-1.09,2.15-1.89.61-.74,1.23-1.47,1.84-2.21.22-.27.6.07.38.34-.65.78-1.3,1.56-1.95,2.35-.44.53-.88,1.22-1.43,1.6-1.33.92-3.01.7-4.45.81-.81.06-1.58.39-2.36.65s-1.63.41-2.46.52c-1.77.22-3.55.26-5.27.92-.3.12-.48-.4-.18-.52h0Z"/><path class="cls-1" d="m209.47,70.89c2.7-2.73,5.32-5.56,7.92-8.42,1.27-1.4,2.62-2.75,3.79-4.27.25-.33.59-.69.76-1.08.62-1.45-.18-1.65-1.05-1.48s-1.68.43-2.5.67c-3.27.95-6.52,2-9.78,3.01-1.63.5-3.25,1.01-4.87,1.56-1.53.52-3.04,1.1-4.64,1.24-.31.03-.37-.54-.06-.56,1.87-.17,3.64-.91,5.45-1.51,1.93-.64,3.87-1.23,5.81-1.83s3.82-1.19,5.73-1.77c.97-.3,1.95-.6,2.93-.87.87-.24,1.83-.64,2.72-.59,3.38.19-1.8,5.53-2.53,6.33-3.08,3.4-6.18,6.78-9.38,10.02-.24.25-.53-.2-.29-.44h0Z"/><path class="cls-1" d="m199.05,61.94c-6.57,2.94-13.53,4.56-20.32,6.53-3.56,1.04-7.13,2.07-10.69,3.11-3.28.96-6.54,2-9.53,3.96-.28.18-.46-.34-.18-.52,2.77-1.82,5.79-2.86,8.83-3.76,3.52-1.04,7.05-2.05,10.58-3.08,7.05-2.05,14.3-3.71,21.13-6.76.3-.13.48.39.18.52h0Z"/><path class="cls-1" d="m200.11,61.96s-.09,0-.14,0c-.02,0-.01,0,.01,0-.01,0-.02,0-.03,0-.02,0-.04,0-.07,0-.09,0-.19,0-.28.01-.19,0-.37.02-.56.03-.07,0-.13,0-.18-.05-.05-.04-.08-.11-.09-.18,0-.14.08-.32.21-.33.19,0,.39-.02.58-.03.2-.01.42-.04.62-.01.13.02.23.16.2.31s-.14.27-.28.25h0Z"/><path class="cls-1" d="m198.97,62.11c-.19.01-.38.05-.56.12-.06.02-.14-.01-.18-.05-.05-.04-.08-.11-.09-.18,0-.07,0-.16.05-.22l.05-.05s.07-.05.12-.06c.18-.06.37-.1.56-.12.07,0,.13,0,.18.05.05.04.08.11.09.18,0,.07,0,.16-.05.22-.04.05-.1.11-.16.11h0Z"/><path class="cls-1" d="m158.53,75.46c-2.5,2.4-4.99,4.8-7.49,7.2-1.14,1.09-2.27,2.18-3.36,3.34-.59.63-1.16,1.28-1.71,1.96-.2.25-.52.54-.65.85-.55,1.25.83.72,1.23.47.28-.18.46.35.18.52-.52.33-1.13.64-1.67.24-.4-.3-.49-.84-.25-1.34.39-.82,1.15-1.54,1.73-2.2.68-.77,1.39-1.51,2.11-2.23,3.15-3.15,6.39-6.17,9.59-9.24.25-.24.54.21.29.44h0Z"/><path class="cls-1" d="m146.46,89.32c3.75-2.66,7.26-5.79,10.42-9.37,1.61-1.82,3.35-3.78,4.39-6.12,1.16-2.6,1.23-5.81,1.09-8.63-.02-.36.47-.46.48-.09.12,2.58.09,5.45-.74,7.93-.82,2.46-2.47,4.46-4.04,6.32-3.39,4.01-7.2,7.49-11.32,10.4-.27.19-.56-.25-.29-.44h0Z"/><path class="cls-1" d="m158.33,75.62c-.31-.04-.24-.61.07-.57s.24.61-.07.57h0Z"/><path class="cls-1" d="m158.44,75.5c-.31-.04-.24-.61.07-.57s.24.61-.07.57h0Z"/><path class="cls-1" d="m158.28,75.02c.11-.09.22-.16.35-.21.03-.02.06-.02.09-.02.03,0,.06,0,.1.02.03.01.06.03.08.06.02.02.04.05.05.09.02.07.03.15,0,.22l-.03.06s-.06.07-.1.09c-.08.03-.16.07-.24.13l.05-.04s-.04.03-.06.04c-.03.02-.05.04-.09.05-.03.01-.06.02-.1.01-.03,0-.06-.01-.09-.04-.03-.02-.05-.04-.07-.07-.04-.06-.06-.13-.04-.21l.02-.07s.04-.09.08-.12h0Z"/><path class="cls-1" d="m162.44,65.25c-.69-5.17-1.38-10.33-2.08-15.5-.68-5.1-1.52-10.21-1.89-15.38-.03-.36.46-.46.48-.09.38,5.17,1.21,10.27,1.89,15.38.69,5.17,1.38,10.33,2.08,15.5.05.36-.44.45-.48.09h0Z"/><path class="cls-1" d="m158.45,34.39c-.08-1.47-.18-2.94-.23-4.42-.04-1.21-.02-2.48.39-3.63.89-2.46,3.23-3.07,5.09-4.1.29-.16.47.36.18.52-1.78.98-4.12,1.56-4.89,3.98-.37,1.17-.32,2.46-.26,3.67.06,1.29.14,2.59.21,3.88.02.36-.46.46-.48.09h0Z"/><path class="cls-1" d="m163.7,22.22c8.02-3.1,16.02-6.24,24.08-9.2.3-.11.48.41.18.52-8.05,2.96-16.06,6.1-24.08,9.2-.3.12-.48-.4-.18-.52h0Z"/><path class="cls-1" d="m187.77,13c6.04-2.05,12.07-4.15,18.08-6.3.3-.11.48.41.18.52-6.06,2.16-12.13,4.28-18.21,6.34-.3.1-.36-.46-.06-.56h0Z"/><path class="cls-1" d="m205.86,6.73c1.98-.79,3.97-1.57,6.01-2.12,1.05-.28,2.11-.51,3.18-.63.81-.09,1.7-.16,2.43.29.6.37.93,1.07,1.16,1.79.36,1.13.62,2.33.89,3.5.54,2.38.98,4.8,1.41,7.22.06.36-.42.44-.48.09-.38-2.11-.76-4.22-1.21-6.3-.24-1.1-.49-2.2-.78-3.29-.26-.99-.51-2.18-1.4-2.61-.84-.41-1.93-.16-2.82-.02s-1.74.34-2.59.59c-1.89.53-3.75,1.27-5.6,2-.3.12-.48-.4-.18-.52h0Z"/><path class="cls-1" d="m220.94,16.69c1.1,7.04,2.31,14.06,3.2,21.15.05.36-.44.45-.48.09-.89-7.09-2.1-14.11-3.2-21.15-.06-.36.43-.45.48-.09h0Z"/><path class="cls-1" d="m224.12,37.91c.4,3.85.65,8.26-1.11,11.83-.73,1.48-1.77,2.69-3.08,3.45-1.56.9-3.34,1.33-4.99,1.89-.3.1-.36-.46-.06-.56,1.5-.51,3.06-.92,4.5-1.65,1.52-.77,2.67-2.12,3.42-3.85,1.47-3.4,1.21-7.44.84-11.02-.04-.36.45-.45.48-.09h0Z"/><path class="cls-1" d="m215.01,54.97c-5.07,1.8-10.22,3.27-15.33,4.85-2.6.8-5.28,1.43-7.84,2.41-2.4.92-4.69,1.73-7.18,2.27-.31.07-.37-.5-.06-.56,2.58-.57,4.98-1.5,7.49-2.39,2.32-.83,4.72-1.42,7.06-2.15,5.23-1.61,10.49-3.12,15.67-4.95.3-.11.48.41.18.52h0Z"/><path class="cls-1" d="m184.7,64.32c-2.79,1.13-5.58,2.26-8.44,3.08-2.7.78-5.7,1.54-8.47,1.55-.87,0-1.85-.17-2.4-1.01-.66-1-.61-2.68-.68-3.89-.21-3.43-.1-6.9-.82-10.23-.08-.35.41-.44.48-.09.6,2.75.63,5.59.74,8.44.05,1.39.05,2.88.31,4.23.44,2.29,2.23,2.1,3.88,1.86,5.25-.76,10.19-2.41,15.22-4.44.3-.12.48.4.18.52h0Z"/><path class="cls-1" d="m163.96,53.75c-.67-5.34-1.37-10.67-1.99-16.02-.36-3.08-1.45-9.5,2.52-10.3.31-.06.37.5.06.56-2.41.49-2.59,3.74-2.44,5.96.14,2.23.44,4.43.72,6.64.54,4.36,1.09,8.72,1.63,13.07.05.36-.44.45-.48.09h0Z"/><path class="cls-1" d="m164.42,27.56c2.7-1.42,5.54-2.36,8.36-3.37,3.03-1.09,6.05-2.17,9.08-3.26.3-.11.48.41.18.52-3.03,1.09-6.05,2.17-9.08,3.26-2.81,1.01-5.65,1.96-8.36,3.37-.29.15-.47-.37-.18-.52h0Z"/><path class="cls-1" d="m181.53,20.99c6.82-2.48,13.64-5.01,20.47-7.44,3-1.07,6.14-2.48,9.25-2.78,1.03-.1,2.22-.15,3.11.52.94.71,1.17,2.26,1.52,3.41.1.34-.35.57-.45.23-.52-1.71-.83-3.38-2.63-3.62-1.39-.18-2.87.18-4.23.58-3.07.89-6.1,2.06-9.12,3.15-5.92,2.14-11.83,4.31-17.74,6.46-.3.11-.48-.41-.18-.52h0Z"/><path class="cls-1" d="m215.96,14.8c1.59,7.44,2.51,15.06,3.38,22.69.04.36-.44.45-.48.09-.87-7.62-1.79-15.25-3.38-22.69-.08-.35.41-.44.48-.09h0Z"/><path class="cls-1" d="m215.47,14.96c0-.06-.01-.12-.02-.18l.02.07c-.02-.08-.05-.17-.08-.24l.03.06s-.02-.03-.03-.05c-.02-.03-.03-.06-.04-.1-.01-.04-.01-.07,0-.11,0-.07.05-.15.1-.19s.12-.07.18-.06.13.04.16.1c.1.18.17.39.18.6,0,.08-.01.15-.05.22-.04.06-.1.1-.16.11-.06,0-.13,0-.18-.05-.05-.05-.08-.11-.09-.18h0Z"/><path class="cls-1" d="m215.9,14.82s.01.06.02.09l-.02-.07c.04.18.1.35.18.51.03.06.02.16,0,.22s-.08.13-.13.16c-.06.03-.13.04-.19,0l-.05-.04s-.06-.07-.07-.11c-.1-.21-.17-.44-.21-.67-.01-.07.02-.16.05-.22s.1-.1.16-.11c.06,0,.13,0,.18.05l.04.05s.04.08.05.13h0Z"/><path class="cls-1" d="m219.32,37.53c0,3.13.8,6.12.81,9.24,0,.7-.06,1.85-.89,1.87-.39,0-.75-.37-1.03-.61-.48-.41-.92-.86-1.34-1.35-1.89-2.21-3.39-4.96-4.99-7.45-1.73-2.69-3.45-5.39-5.16-8.11-.18-.29.21-.65.39-.36,2.82,4.5,5.67,8.99,8.58,13.42.68,1.02,1.39,2.02,2.23,2.85.22.22.45.43.69.62.1.09.2.17.31.25.44.15.66.04.67-.33.23-.49.02-1.72-.02-2.26-.2-2.58-.75-5.09-.75-7.69,0-.36.48-.46.48-.09h0Z"/><path class="cls-1" d="m206.67,31.2c-1.62-2.45-3.23-4.92-5.05-7.18-.87-1.08-1.8-2.2-2.85-3.04-.28-.22-.65-.5-1-.54-.73-.08-.65.68-.5,1.2.21.74.47,1.47.71,2.19.11.34-.34.57-.45.23-.28-.86-.67-1.76-.82-2.67-.08-.51,0-1.15.44-1.43,1.17-.72,2.7,1.22,3.42,1.99,2.45,2.65,4.47,5.79,6.51,8.87.19.28-.2.64-.39.36h0Z"/><path class="cls-1" d="m197.96,23.82c.25,1.09.79,2.1,1.25,3.07.55,1.15,1.12,2.28,1.68,3.42,1.09,2.21,2.19,4.43,3.28,6.64.15.31-.24.67-.39.36-1.13-2.28-2.25-4.57-3.38-6.85-.52-1.05-1.04-2.09-1.55-3.15s-1.09-2.1-1.35-3.26c-.08-.35.37-.58.45-.23h0Z"/><path class="cls-1" d="m204.22,37.04c.69,1.59,1.29,3.23,1.89,4.87.5,1.38,1.1,2.9.82,4.47-.11.6-.39,1.06-.95,1.11-.61.05-1.22-.45-1.73-.76-1.27-.76-2.5-1.62-3.68-2.56-.25-.2.05-.66.31-.46,1.02.81,2.08,1.57,3.17,2.24.5.31,1.01.67,1.54.88.44.17.76.05.87-.52.07-.36.08-.73.05-1.09-.11-1.39-.69-2.69-1.15-3.94-.5-1.36-1.01-2.71-1.58-4.02-.14-.32.31-.55.45-.23h0Z"/><path class="cls-1" d="m200.54,44.17c-1.92-1.54-3.47-3.57-5.13-5.46s-3.58-3.83-5.51-5.55c-.24-.22.06-.68.31-.46,1.93,1.73,3.77,3.58,5.51,5.55,1.66,1.89,3.21,3.91,5.13,5.46.25.2-.05.66-.31.46h0Z"/><path class="cls-1" d="m189.9,33.17c-1.09-.8-2.2-1.57-3.33-2.3-.57-.37-1.15-.74-1.73-1.09-.51-.31-1.16-.71-1.76-.47-.7.28-.49,1.44-.29,2.02.23.67.57,1.28.89,1.89.65,1.26,1.35,2.48,2.09,3.67.18.29-.21.65-.39.36-.9-1.44-1.74-2.94-2.51-4.49-.31-.63-.63-1.28-.73-2.02-.08-.61,0-1.41.49-1.8,1.11-.9,2.69.47,3.61,1.05,1.35.86,2.67,1.76,3.97,2.71.26.19-.05.65-.31.46h0Z"/><path class="cls-1" d="m185.78,36.95c1.39,1.93,2.75,3.9,4.07,5.9,1.25,1.89,2.52,3.79,3.44,5.95.14.32-.32.55-.45.23-.92-2.17-2.22-4.08-3.48-5.98s-2.61-3.86-3.97-5.74c-.2-.28.19-.63.39-.36h0Z"/><path class="cls-1" d="m193.23,48.78c.3.61.64,1.83-.06,2.32-.8.55-1.87-.05-2.57-.48-1.92-1.17-3.75-2.55-5.5-4.04-.25-.21.06-.67.31-.46,1.31,1.11,2.66,2.16,4.07,3.11.69.47,1.4.99,2.15,1.3.32.13,1.02.38,1.34.05s.01-1.14-.14-1.45.24-.67.39-.36h0Z"/><path class="cls-1" d="m185.06,46.54c-1.56-1.7-2.93-3.56-4.31-5.45-1.37-1.89-3.13-3.3-4.9-4.64-.26-.2.05-.65.31-.46,1.7,1.29,3.39,2.64,4.74,4.41.71.93,1.35,1.92,2.06,2.84.76.99,1.57,1.93,2.4,2.84.22.24-.08.7-.31.46h0Z"/><path class="cls-1" d="m175.95,36.53c-.84-.4-1.85-.89-2.75-.32-.82.51-1.03,2.06-.92,3.02.12,1.07.66,2.13,1.04,3.1.42,1.09.87,2.16,1.33,3.23.14.32-.31.55-.45.23-.56-1.28-1.09-2.58-1.59-3.9-.45-1.18-.95-2.29-.79-3.64.13-1.06.39-2.14,1.3-2.61,1.02-.53,2.09-.07,3.02.38.29.14.09.67-.2.53h0Z"/><path class="cls-1" d="m174.68,45.6c.91,1.9,2,3.66,3.05,5.45.45.77.93,1.54,1.26,2.4.21.54.52,1.33-.14,1.65s-1.35-.22-1.89-.56c-.79-.49-1.57-.97-2.35-1.48-1.53-1-3-2.38-4.78-2.74-.31-.06-.23-.63.07-.57,1.45.29,2.64,1.22,3.87,2.08.7.49,1.42.96,2.14,1.41.66.41,1.31.88,1.99,1.22.16.08.5.27.68.15.22-.15.08-.58.01-.75-.16-.46-.37-.88-.6-1.3-.4-.74-.84-1.45-1.27-2.17-.88-1.48-1.76-2.97-2.51-4.56-.15-.32.3-.54.45-.23h0Z"/><path class="cls-1" d="m169.82,50.31c-.94-.16-2.2.19-2.32,1.54-.09,1.02.42,2.21.78,3.1.65,1.63,1.49,3.14,2.14,4.78.52,1.32,1.21,3.1.47,4.54-.89,1.73-3.32.58-3.97,2.41-.12.34-.57.13-.45-.21.79-2.2,3.8-.72,4.22-3.13.19-1.08-.31-2.3-.68-3.25s-.78-1.8-1.19-2.68c-.73-1.55-1.79-3.45-1.8-5.32s1.56-2.57,2.88-2.34c.31.05.24.62-.07.57h0Z"/><path class="cls-1" d="m166.9,66.7c-.36,1.08-.16,2.31-.71,3.33-.52.97-1.35.95-2.19,1.11-.24.05-.41.22-.64.31-.18.08-.38.08-.56.09-.57.05-1.15.1-1.72.17-1.15.14-2.28.37-3.4.73-.31.1-.36-.47-.06-.56,1.02-.33,2.05-.55,3.09-.69.49-.07.99-.12,1.49-.17.25-.02.51-.04.76-.06.23-.03.4-.16.6-.27.33-.17.72-.14,1.07-.2.51-.09.96-.3,1.22-.86.45-.96.28-2.13.61-3.14.11-.35.56-.14.45.21h0Z"/><path class="cls-1" d="m157.63,72.46c-1.33.4-2.3,1.07-3.13,2.38-.62.98-1.14,2.04-1.8,2.99-1.18,1.69-2.91,3.81-4.87,3.89s-3.87-1.62-5.26-3.09c-1.65-1.76-3.07-3.83-5.08-5.08-.27-.17-.07-.7.2-.53,1.72,1.06,3.02,2.69,4.38,4.26,1.57,1.81,4,4.56,6.48,3.73,2.14-.72,3.79-3.42,4.96-5.49,1.09-1.92,2.13-3.05,4.06-3.63.31-.09.36.47.06.56h0Z"/><path class="cls-1" d="m137.55,73.54c-1.21-.36-2.49-.44-3.28.96-.54.97-.79,2.17-1.58,2.95-.87.86-2.21.82-3.14.24-.98-.61-1.56-1.81-1.57-3.12,0-.36.48-.46.48-.09.01,1.49.85,2.77,2.12,3.02.63.12,1.36,0,1.86-.54.36-.39.59-.92.81-1.42.39-.9.76-1.9,1.55-2.43.92-.61,2-.38,2.95-.11.3.09.1.62-.2.53h0Z"/><path class="cls-1" d="m137.76,73.03c.18.1.36.22.51.37.05.05.08.11.09.18,0,.07-.01.16-.05.22s-.1.1-.16.11-.13,0-.18-.05c-.09-.09-.19-.17-.29-.24l.05.04c-.05-.04-.11-.07-.16-.1s-.1-.08-.13-.15-.02-.16,0-.22.07-.13.13-.16.13-.04.19,0h0Z"/></g><path class="cls-1" d="m226.94,54.71c.9-1.41,1.99-2.98,3.2-4.05,1.09-.97,2.44-.86,3.7-.75,1.58.14,2.99.49,4.38,1.34,1.15.7,2.48,1.32,3.2,2.64.16.3-.23.66-.39.36-.68-1.24-1.93-1.81-3.01-2.47-1.27-.77-2.56-1.14-4.01-1.28-1.33-.13-2.74-.3-3.84.84-1.05,1.1-2.02,2.39-2.86,3.71-.19.3-.57-.04-.38-.34h0Z"/></g></svg>