<?xml version="1.0" encoding="UTF-8"?><svg id="Layer_1" xmlns="http://www.w3.org/2000/svg" width="50" height="50" viewBox="0 0 50 50"><defs><style>.cls-1{fill:#d18229;}</style></defs><g><path class="cls-1" d="m43.34,32.73c-1.46,1.21-3.06,2.14-4.66,3.05s-3.21,1.77-4.85,2.58c-.13.07-.18-.16-.05-.22,1.66-.82,3.31-1.7,4.94-2.63s3.1-1.8,4.51-2.97c.12-.1.22.1.1.19h0Z"/><path class="cls-1" d="m33.78,38.42c-1.19.31-2.36.23-3.52.17-1.37-.07-2.73-.17-4.09-.26s-2.65-.4-4.01-.36-2.63-.13-3.94-.23c-.14-.01-.07-.24.06-.23,1.32.1,2.64.27,3.98.23,1.23-.04,2.37.25,3.58.34s2.52.18,3.79.25c1.34.08,2.74.23,4.11-.12.14-.04.19.19.05.22h0Z"/><path class="cls-1" d="m18.16,37.74c-3.14-.27-6.3-.43-9.44-.73-1.49-.14-3.01-.25-4.44-.63-.33-.09-.9-.16-1.01-.58-.09-.37.21-.63.51-.75.55-.22,1.2-.13,1.74-.09.76.05,1.53.11,2.29.17,1.6.12,3.19.25,4.78.4s3.04.29,4.56.45c.76.08,1.52.16,2.28.25.72.08,1.45.17,2.19,0,.67-.15,2.71-1.29,1.41-1.95-.63-.32-1.44-.42-2.13-.52-1.61-.24-3.28-.16-4.95.2-.14.03-.13-.21,0-.24,1.37-.3,2.75-.4,4.1-.3.67.05,1.33.15,1.97.31.47.11,1.09.2,1.45.56.69.69-.42,1.6-1.04,1.9-1.24.61-2.57.32-3.79.19-3.14-.35-6.28-.65-9.44-.9-.76-.06-1.53-.12-2.29-.18-.84-.06-1.72-.21-2.58-.12-.37.04-.48-.03-.59.41s-.05.36.32.47.75.2,1.13.27c.73.14,1.48.22,2.23.3,3.58.38,7.2.57,10.8.87.14.01.07.25-.06.23h0Z"/><path class="cls-1" d="m15.97,34c-.79.18-.41,1.06-.06,1.26.17.1.37.13.57.15.47.04.96,0,1.44,0,.9,0,1.8.03,2.69.1,1.78.14,3.46.7,5.25.81.14,0,.07.24-.06.23-1.24-.08-2.42-.38-3.63-.6-1.29-.23-2.62-.29-3.96-.31-.83-.01-2.2.28-2.75-.47-.35-.48-.12-1.28.51-1.42.14-.03.13.2,0,.24h0Z"/><path class="cls-1" d="m25.8,36.34c.65,0,1.26.15,1.87.32.67.18,1.31.24,2.01.29s1.28.4,1.99.44c.43.02.76-.21,1.15-.43.36-.2.71-.4,1.07-.61.13-.07.23.12.1.19-.38.21-.76.43-1.13.64-.26.14-.54.35-.81.42-.67.17-1.31-.17-1.9-.35-.33-.1-.69-.08-1.04-.1s-.71-.08-1.06-.16c-.74-.18-1.46-.43-2.24-.43-.14,0-.13-.23,0-.24h0Z"/><path class="cls-1" d="m33.8,36.38c1.49-.68,2.96-1.42,4.43-2.17.72-.37,1.46-.71,2.16-1.14.15-.09.34-.19.47-.32.47-.49.18-.69-.2-.75s-.74-.08-1.1-.11c-1.45-.11-2.91-.18-4.36-.27-.73-.04-1.45-.09-2.18-.11-.69-.02-1.38-.02-2.04-.2-.13-.04-.07-.27.06-.23.77.21,1.59.18,2.4.22.87.03,1.73.09,2.6.14s1.71.1,2.56.15c.43.03.87.06,1.3.09.38.03.83.02,1.18.17,1.32.58-1.55,1.94-1.96,2.15-1.74.9-3.49,1.78-5.26,2.6-.13.06-.18-.16-.05-.22h0Z"/><path class="cls-1" d="m30.99,31.23c-3.07.19-6.1-.21-9.11-.45-1.58-.12-3.16-.25-4.74-.37-1.45-.11-2.92-.19-4.41.15-.14.03-.13-.2,0-.24,1.38-.31,2.74-.27,4.1-.18,1.57.11,3.13.24,4.69.36,3.13.24,6.28.67,9.47.48.14,0,.13.23,0,.24h0Z"/><path class="cls-1" d="m31.41,31.4s-.04-.02-.06-.03c0,0,0,0,0,0,0,0,0,0-.01,0,0,0-.02,0-.03,0-.04-.01-.08-.02-.11-.04-.08-.02-.15-.05-.23-.07-.03,0-.05-.02-.06-.05-.01-.02-.02-.06,0-.09.02-.06.08-.12.13-.1.08.03.16.05.24.08.08.03.17.05.25.09.05.03.07.1.03.16s-.1.09-.15.06h0Z"/><path class="cls-1" d="m30.93,31.29c-.08-.02-.16-.04-.24-.04-.03,0-.05-.03-.06-.05-.01-.02-.02-.06,0-.09,0-.03.03-.06.05-.08h.03s.04-.02.06-.02c.08,0,.16.02.24.04.03,0,.05.02.06.05.01.02.02.06,0,.09,0,.03-.03.06-.05.08-.02.02-.06.03-.08.02h0Z"/><path class="cls-1" d="m12.75,30.54c-1.36.58-2.72,1.17-4.08,1.75-.62.27-1.24.53-1.85.83-.33.16-.66.34-.98.52-.12.07-.29.14-.39.24-.41.42.22.41.42.37.14-.03.13.21,0,.24-.26.05-.55.09-.7-.16-.11-.18-.07-.41.1-.57.28-.27.69-.44,1.02-.62.39-.21.78-.4,1.18-.57,1.73-.78,3.48-1.5,5.23-2.25.13-.06.18.16.05.22h0Z"/><path class="cls-1" d="m5.84,34.27c1.9-.5,3.77-1.22,5.58-2.18.92-.49,1.91-1.01,2.68-1.78.86-.87,1.37-2.14,1.74-3.29.05-.15.26-.11.21.04-.34,1.05-.79,2.19-1.49,3.06s-1.66,1.41-2.57,1.92c-1.96,1.09-4.01,1.91-6.09,2.46-.14.04-.19-.19-.05-.22h0Z"/><path class="cls-1" d="m12.65,30.58c-.12-.06,0-.28.11-.22s0,.28-.11.22h0Z"/><path class="cls-1" d="m12.71,30.54c-.12-.06,0-.28.11-.22s0,.28-.11.22h0Z"/><path class="cls-1" d="m12.71,30.33c.06-.02.11-.03.17-.03.01,0,.03,0,.04,0,.01,0,.03.01.04.02.01,0,.02.02.02.04,0,.01,0,.03,0,.04,0,.03-.01.06-.03.09l-.02.02s-.03.02-.05.02c-.04,0-.08,0-.11.02h.03s-.02,0-.03,0c-.01,0-.03,0-.04,0-.01,0-.03,0-.04,0-.01,0-.02-.02-.03-.03,0-.01-.01-.02-.02-.04,0-.03,0-.06.01-.09l.02-.03s.03-.03.05-.04h0Z"/><path class="cls-1" d="m15.85,27.05c.5-2.17,1-4.34,1.5-6.51s.93-4.31,1.56-6.43c.04-.15.25-.11.21.04-.63,2.12-1.06,4.29-1.56,6.43l-1.5,6.51c-.04.15-.24.11-.21-.04h0Z"/><path class="cls-1" d="m18.9,14.11c.19-.6.37-1.2.57-1.8.16-.49.36-.99.7-1.39.72-.85,1.75-.74,2.65-.87.14-.02.13.22,0,.24-.86.13-1.88,0-2.55.86-.33.41-.5.93-.66,1.43-.17.53-.33,1.06-.5,1.58-.05.15-.25.11-.21-.04h0Z"/><path class="cls-1" d="m22.83,10.03c3.67-.03,7.35-.08,11.01-.05.14,0,.13.24,0,.24-3.66-.03-7.34.02-11.01.05-.14,0-.13-.23,0-.24h0Z"/><path class="cls-1" d="m33.84,9.97c2.72.09,5.45.16,8.18.2.14,0,.13.24,0,.24-2.75-.05-5.49-.12-8.23-.2-.14,0-.07-.24.06-.23h0Z"/><path class="cls-1" d="m42.02,10.19c.91-.02,1.82-.03,2.72.05.46.04.92.12,1.37.23.34.09.7.19.93.48.18.24.21.57.19.89-.03.51-.1,1.03-.17,1.53-.14,1.03-.33,2.07-.52,3.1-.03.15-.23.11-.21-.04.16-.9.33-1.8.46-2.7.07-.48.13-.95.18-1.43.04-.43.13-.95-.17-1.25-.28-.29-.75-.35-1.13-.43s-.75-.12-1.12-.16c-.84-.07-1.69-.06-2.54-.04-.14,0-.13-.23,0-.24h0Z"/><path class="cls-1" d="m46.55,16.44c-.62,2.98-1.19,5.97-1.9,8.94-.04.15-.24.11-.21-.04.71-2.97,1.29-5.96,1.9-8.94.03-.15.24-.11.21.04h0Z"/><path class="cls-1" d="m44.63,25.4c-.42,1.6-.98,3.4-2.23,4.56-.51.48-1.11.81-1.75.92-.76.13-1.53.03-2.28,0-.14,0-.07-.24.06-.23.68.02,1.36.09,2.05.02.72-.08,1.39-.45,1.94-1.02,1.1-1.14,1.6-2.79,1.99-4.28.04-.15.25-.11.21.04h0Z"/><path class="cls-1" d="m38.42,30.85c-2.3-.04-4.58-.23-6.86-.37-1.16-.07-2.33-.22-3.5-.22-1.1,0-2.14-.02-3.21-.17-.13-.02-.07-.25.06-.23,1.12.16,2.22.15,3.36.17,1.05.02,2.1.14,3.15.2,2.33.14,4.66.33,7.01.38.14,0,.13.24,0,.24h0Z"/><path class="cls-1" d="m24.89,30.03c-1.28.03-2.57.06-3.84-.04-1.2-.09-2.51-.24-3.62-.66-.35-.13-.71-.35-.81-.77-.11-.5.16-1.16.31-1.66.43-1.4,1-2.77,1.21-4.22.02-.15.23-.11.21.04-.18,1.19-.59,2.33-.98,3.48-.19.56-.41,1.16-.51,1.74-.17.98.58,1.17,1.27,1.33,2.21.49,4.44.57,6.75.51.14,0,.13.23,0,.24h0Z"/><path class="cls-1" d="m18.19,22.68c.54-2.23,1.06-4.47,1.61-6.7.32-1.28.85-4.02,2.56-3.74.13.02.07.26-.06.23-1.04-.17-1.6,1.11-1.87,2.02s-.49,1.84-.71,2.76l-1.32,5.47c-.04.15-.24.11-.21-.04h0Z"/><path class="cls-1" d="m22.32,12.27c1.29-.16,2.57-.11,3.85-.09,1.37.02,2.75.04,4.12.06.14,0,.13.24,0,.24-1.37-.02-2.75-.04-4.12-.06-1.28-.02-2.56-.07-3.85.09-.14.02-.13-.22,0-.24h0Z"/><path class="cls-1" d="m30.14,12.22c3.1.03,6.21.05,9.3.11,1.36.02,2.83-.07,4.12.28.43.12.91.28,1.16.68.27.42.13,1.08.1,1.59,0,.15-.23.18-.22.02.05-.76.18-1.48-.51-1.84-.53-.28-1.17-.36-1.78-.41-1.36-.1-2.75-.1-4.12-.11-2.69-.03-5.38-.06-8.07-.09-.14,0-.13-.24,0-.24h0Z"/><path class="cls-1" d="m44.84,14.93c-.48,3.21-1.26,6.4-2.06,9.58-.04.15-.25.11-.21-.04.8-3.18,1.58-6.37,2.06-9.58.02-.15.23-.11.21.04h0Z"/><path class="cls-1" d="m44.62,14.92s.01-.05.02-.07v.03s0-.07,0-.11v.03s0-.02,0-.02c0-.01,0-.03,0-.04,0-.02,0-.03.01-.05.01-.03.04-.05.07-.06s.06-.01.08,0,.04.04.05.07c.01.09,0,.18-.02.27,0,.03-.03.06-.05.08-.02.02-.06.03-.08.02-.03,0-.05-.02-.06-.05-.01-.03-.02-.06,0-.09h0Z"/><path class="cls-1" d="m44.82,14.93s0,.03,0,.04v-.03c0,.08,0,.16,0,.23,0,.03-.02.07-.03.09s-.05.04-.08.04c-.03,0-.06,0-.08-.03l-.02-.02s-.01-.04-.01-.06c0-.1,0-.2.02-.3,0-.03.03-.06.05-.08s.06-.03.08-.02c.03,0,.05.02.06.05v.03s.01.04,0,.06h0Z"/><path class="cls-1" d="m42.76,24.53c-.47,1.25-.6,2.57-1.07,3.82-.1.28-.3.73-.64.61-.16-.06-.24-.26-.32-.4-.13-.24-.24-.48-.33-.74-.42-1.17-.61-2.49-.88-3.73-.29-1.34-.57-2.67-.84-4.02-.03-.14.18-.23.21-.08.45,2.23.91,4.45,1.41,6.66.12.51.25,1.01.46,1.48.06.12.12.24.18.35.03.05.06.1.08.15.15.13.26.12.32-.03.16-.16.27-.68.33-.91.31-1.06.47-2.15.86-3.19.05-.15.26-.11.21.04h0Z"/><path class="cls-1" d="m38.66,20.09c-.28-1.22-.55-2.46-.94-3.63-.19-.56-.39-1.15-.68-1.64-.08-.13-.18-.3-.32-.37-.28-.14-.36.18-.38.41-.03.33-.03.66-.05.98,0,.15-.22.18-.22.02.02-.39,0-.8.07-1.19.04-.22.17-.46.39-.5.58-.11.9.9,1.07,1.31.58,1.43.92,2.99,1.27,4.53.03.14-.18.23-.21.08h0Z"/><path class="cls-1" d="m36.29,15.83c-.07.47,0,.96.04,1.41.05.54.1,1.08.16,1.62.1,1.05.21,2.1.31,3.15.01.15-.2.23-.21.08-.11-1.08-.21-2.16-.32-3.25-.05-.5-.1-.99-.14-1.49s-.12-1-.05-1.51c.02-.15.24-.18.22-.02h0Z"/><path class="cls-1" d="m36.8,22.06c.04.74.03,1.49.02,2.23,0,.63,0,1.33-.35,1.91-.13.23-.32.36-.55.3-.25-.07-.42-.36-.58-.56-.39-.5-.76-1.02-1.09-1.58-.07-.12.12-.26.19-.14.29.48.59.94.93,1.37.15.2.3.42.48.58.15.14.3.13.42-.08.08-.13.14-.28.18-.43.17-.57.13-1.18.13-1.75,0-.62,0-1.23-.03-1.85,0-.15.21-.17.22-.02h0Z"/><path class="cls-1" d="m34.25,24.35c-.53-.91-.85-1.95-1.23-2.95s-.86-2.07-1.37-3.05c-.06-.12.13-.26.19-.14.51.98.97,2,1.37,3.05s.7,2.05,1.23,2.95c.07.12-.12.26-.19.14h0Z"/><path class="cls-1" d="m31.66,18.35c-.32-.48-.64-.96-.99-1.42-.17-.23-.35-.47-.53-.7-.16-.2-.35-.46-.63-.45-.32,0-.41.5-.42.77,0,.3.03.6.07.89.07.6.17,1.2.28,1.78.03.14-.18.23-.21.08-.14-.71-.25-1.44-.33-2.17-.03-.3-.06-.61.01-.92.06-.26.21-.56.47-.65.58-.19,1.01.59,1.29.96.41.55.8,1.11,1.18,1.68.08.12-.12.25-.19.14h0Z"/><path class="cls-1" d="m29.44,19.24c.27.98.51,1.97.74,2.97.21.94.44,1.9.48,2.9,0,.15-.21.17-.22.02-.04-1.01-.27-1.97-.49-2.92s-.46-1.94-.72-2.89c-.04-.14.17-.22.21-.08h0Z"/><path class="cls-1" d="m30.64,25.09c.03.29-.02.83-.37.92-.4.1-.74-.3-.96-.58-.59-.76-1.11-1.59-1.59-2.44-.07-.12.12-.26.19-.14.36.64.74,1.27,1.16,1.86.2.29.41.61.66.84.11.1.35.31.53.22s.18-.45.16-.6.2-.23.21-.08h0Z"/><path class="cls-1" d="m27.71,22.97c-.37-.91-.64-1.86-.9-2.83s-.75-1.79-1.26-2.59c-.07-.12.12-.25.19-.14.49.77.96,1.57,1.23,2.48.14.48.25.97.4,1.45.16.51.33,1.01.53,1.5.05.13-.14.27-.19.14h0Z"/><path class="cls-1" d="m25.58,17.6c-.27-.29-.61-.63-1.05-.54-.4.08-.72.67-.82,1.07-.11.45-.06.95-.05,1.39,0,.5.02,1,.05,1.49,0,.15-.21.17-.22.02-.03-.6-.05-1.2-.05-1.8,0-.54-.03-1.06.23-1.58.21-.4.48-.8.91-.85.49-.06.85.28,1.15.61.09.1-.07.28-.16.18h0Z"/><path class="cls-1" d="m23.7,21.03c.08.9.25,1.77.4,2.64.07.38.14.76.14,1.15,0,.25,0,.61-.3.64s-.51-.29-.67-.51c-.24-.31-.48-.63-.72-.95-.46-.63-.84-1.4-1.5-1.82-.11-.07,0-.29.11-.22.53.34.87.89,1.23,1.41.21.3.42.6.64.89.2.26.39.55.61.79.05.06.16.18.25.16.11-.03.12-.22.12-.3,0-.21-.02-.41-.04-.61-.05-.36-.12-.71-.18-1.06-.13-.73-.25-1.45-.32-2.2-.01-.15.2-.17.22-.02h0Z"/><path class="cls-1" d="m21.05,22.18c-.35-.21-.91-.26-1.16.27-.19.4-.16.95-.16,1.36.01.75.12,1.48.13,2.23,0,.6.02,1.42-.5,1.89-.62.56-1.41-.27-1.95.36-.1.12-.25-.03-.15-.15.65-.76,1.63.28,2.16-.62.24-.41.22-.97.22-1.4s-.04-.84-.07-1.25c-.06-.73-.19-1.65.08-2.4s1.01-.79,1.5-.5c.11.07,0,.28-.11.22h0Z"/><path class="cls-1" d="m17.41,28.3c-.31.38-.41.9-.78,1.23-.35.31-.68.17-1.04.11-.1-.02-.2.02-.3.03-.08,0-.16-.03-.24-.05-.24-.07-.47-.13-.71-.19-.48-.11-.97-.2-1.47-.22-.14,0-.07-.24.06-.23.46.02.9.09,1.34.19.21.05.41.1.62.16.11.03.21.06.31.09.1.02.18,0,.28-.02.16-.02.31.05.46.08.22.04.43.02.62-.16.32-.32.43-.81.72-1.16.1-.12.24.03.15.15h0Z"/><path class="cls-1" d="m12.84,29.21c-.59-.04-1.08.08-1.61.48-.4.3-.76.64-1.17.92-.73.5-1.74,1.09-2.53.82s-1.3-1.23-1.64-2.03c-.4-.95-.65-1.99-1.27-2.79-.08-.11.08-.29.16-.18.53.68.8,1.53,1.11,2.36.36.96.91,2.43,2.03,2.47.96.03,2.03-.8,2.81-1.45.73-.6,1.31-.9,2.17-.84.14,0,.07.24-.06.23h0Z"/><path class="cls-1" d="m4.65,26.61c-.43-.32-.93-.55-1.46-.11-.36.3-.64.75-1.07.94-.48.21-1.01,0-1.29-.37-.3-.39-.35-.96-.16-1.48.05-.15.26-.11.21.04-.22.6-.08,1.24.39,1.53.23.14.54.2.82.06.2-.1.37-.28.54-.45.29-.3.59-.65.98-.74.46-.11.86.15,1.19.4.11.08-.05.26-.16.18h0Z"/><path class="cls-1" d="m4.81,26.44c.06.07.11.14.15.23.01.03.02.06,0,.09,0,.03-.03.06-.05.08s-.05.03-.08.02-.05-.02-.06-.05c-.02-.05-.05-.1-.08-.14l.02.02s-.03-.04-.05-.06-.03-.05-.03-.08.01-.07.03-.09.05-.04.08-.04.06,0,.08.03h0Z"/></g><path class="cls-1" d="m43.22,32.54c.57-.43,1.24-.89,1.89-1.14.58-.22,1.11.03,1.59.26.61.29,1.12.64,1.55,1.19.35.45.79.9.88,1.54.02.15-.19.23-.21.08-.08-.6-.5-1.02-.83-1.44-.39-.5-.85-.84-1.41-1.11-.51-.25-1.05-.53-1.66-.24s-1.17.65-1.7,1.05c-.12.09-.22-.1-.1-.19h0Z"/></svg>